<svg width="256" height="315" viewBox="0 0 256 315" xmlns="http://www.w3.org/2000/svg" preserveAspectRatio="xMinYMin meet"><g fill="#1A1918"><path d="M67.517 313.864c-.542 0-1.126-.137-1.532-.686L48.6 290.316v23.32h-3.963V284.92c0-1.142.946-2.056 2.028-2.056.63 0 1.17.182 1.575.73l17.34 22.817v-23.226h3.963v28.668c0 1.19-.946 2.012-2.026 2.012M100.306 314.138c-3.962 0-8.107-.824-11.98-2.286l.946-3.293c3.558 1.143 7.43 1.966 11.034 1.966 5 0 7.612-1.784 7.612-4.298 0-2.286-2.028-3.43-9.008-6.722-6.98-3.292-9.727-5.394-9.727-9.51 0-5.166 3.962-7.27 11.438-7.27 3.11 0 7.883.64 10.63 1.464l-.63 3.383c-3.018-.73-6.8-1.234-9.91-1.234-5.267 0-7.43 1.004-7.43 3.52 0 2.468 1.576 3.52 8.963 6.95 7.792 3.61 9.773 5.44 9.773 9.19 0 5.44-5.135 8.138-11.71 8.138M130.798 283.184h4.098v30.45h-4.098v-30.45zM169.758 299.827h-10.18v10.334h10.18c3.467 0 5.584-2.194 5.584-5.258 0-2.88-2.206-5.075-5.584-5.075m-1.983-13.17h-8.197v9.74h8.197c3.288 0 5.675-2.103 5.675-5.03 0-2.88-2.072-4.71-5.675-4.71m2.028 26.978h-12.25c-1.172 0-2.073-.915-2.073-2.057V285.24c0-1.097.9-2.056 2.073-2.056h10.133c6.215 0 9.908 3.063 9.908 7.864 0 2.606-1.532 5.03-3.874 6.447 3.47 1.052 5.81 3.932 5.81 7.407 0 4.846-4.008 8.733-9.727 8.733M199.212 313.635c-1.124 0-2.025-.96-2.025-2.057v-28.394h4.097v26.748h16.304v3.703h-18.376zM245.526 314.138c-8.377 0-13.42-3.11-13.42-9.373 0-2.972 1.666-5.807 4.908-7.133-2.612-1.646-3.963-3.978-3.963-6.538 0-5.67 4.37-8.368 12.567-8.368 2.748 0 6.62.32 9.864 1.052l-.45 3.383c-3.422-.548-6.62-.867-9.73-.867-5.313 0-8.15 1.463-8.15 4.984 0 2.79 2.612 4.984 6.08 4.984h7.025c.99 0 1.757.778 1.757 1.738 0 1.006-.766 1.783-1.757 1.783h-7.565c-3.964 0-6.485 1.966-6.485 4.985 0 4.435 4.098 5.76 9.232 5.76 2.793 0 6.575-.364 9.637-1.096l.587 3.336c-2.927.824-6.756 1.372-10.134 1.372M14.138 288.895l7.178 17.984-10.84-8.67 3.662-9.315zm12.75 22.127L15.85 284.048c-.315-.778-.946-1.19-1.712-1.19s-1.44.412-1.756 1.19L.264 313.635h4.144l4.798-12.198 14.314 11.74c.576.473.99.686 1.532.686 1.08 0 2.027-.822 2.027-2.01 0-.194-.07-.5-.19-.83z"/></g><path d="M255.88 127.868c0 70.455-57.112 127.565-127.568 127.565-70.45 0-127.566-57.11-127.566-127.565C.746 57.418 57.862.302 128.312.302c70.456 0 127.567 57.116 127.567 127.566" fill="#1A1918"/><path d="M130.46 78.23l33.01 81.475-49.862-39.278L130.46 78.23zm58.644 100.244L138.326 56.272c-1.45-3.524-4.348-5.39-7.866-5.39-3.525 0-6.634 1.866-8.084 5.39l-55.732 134.04H85.71l22.06-55.265 65.84 53.19c2.648 2.14 4.56 3.11 7.042 3.11 4.974 0 9.322-3.73 9.322-9.11 0-.877-.31-2.268-.87-3.763z" fill="#FFF"/></svg>