<svg width="256" height="259" viewBox="0 0 256 259" xmlns="http://www.w3.org/2000/svg" preserveAspectRatio="xMinYMin meet"><defs><linearGradient x1="100.012%" y1="49.991%" x2="0%" y2="49.991%" id="a"><stop stop-color="#37BDA6" offset="0%"/><stop stop-color="#8AD3B8" offset="100%"/></linearGradient><linearGradient x1="100.012%" y1="49.998%" x2="0%" y2="49.998%" id="b"><stop stop-color="#4BB6AD" offset="50%"/><stop stop-color="#78BBC1" offset="100%"/></linearGradient><linearGradient x1="-.018%" y1="49.998%" x2="100.023%" y2="49.998%" id="c"><stop stop-color="#4379A7" offset="0%"/><stop stop-color="#7CC9B8" offset="100%"/></linearGradient></defs><path d="M127.693 36.867v73.58l63.847-36.866V0l-63.847 36.867z" opacity=".5" fill="#13A049"/><path d="M127.693 36.867L63.847 0v73.734l63.846 36.867V36.868z" opacity=".5" fill="#A2CC39"/><path d="M191.54 0l-63.847 36.867L63.847 0 0 36.867 127.693 110.6 255.31 36.868 191.54 0z" opacity=".9" fill="url(#a)"/><path d="M127.693 110.6L0 36.868V110.6l63.847 36.868v73.658l63.846 36.867 63.847-36.867v-73.658l63.77-36.867V36.868L127.693 110.6z" fill="url(#b)"/><path d="M127.693 110.6v147.393l63.847-36.867v-73.658l63.77-36.867V36.868L127.693 110.6z" fill="url(#c)"/><path d="M127.693 184.26v73.733l63.847-36.867-63.847-36.867z" opacity=".05" fill="#231F20"/><path d="M127.693 258.146v-73.734L63.847 221.28l63.846 36.866z" opacity=".1" fill="#231F20"/><path d="M63.847 73.734L0 110.6l63.847 36.868 63.846-36.867-63.846-36.866zM191.54 73.734L127.693 110.6l63.847 36.868 63.77-36.867-63.77-36.866z" opacity=".05" fill="#231F20"/></svg>