<svg width="256" height="174" viewBox="0 0 256 174" xmlns="http://www.w3.org/2000/svg" preserveAspectRatio="xMinYMin meet"><g fill="#00979C"><path d="M14.044 130.4L.92 173.24h10.327l2.37-7.983h12.802l2.304 7.982h11.23L26.832 130.4H14.045zm2.166 26.24l3.9-13.324 3.854 13.325H16.21zM64.632 153.696c-.155-.166-.313-.323-.474-.47.323-.122.638-.252.946-.394 1.25-.574 2.345-1.343 3.255-2.28.92-.946 1.642-2.086 2.147-3.39.5-1.286.754-2.765.754-4.392 0-2.243-.404-4.183-1.2-5.768-.805-1.603-1.97-2.923-3.46-3.924-1.448-.97-3.208-1.67-5.233-2.082-1.946-.395-4.138-.597-6.513-.597H41.456v42.842H51.73v-16.74h.306c1.124 0 2.06.247 2.864.757.797.504 1.408 1.25 1.87 2.28l6.21 13.702h11.956L67.39 157.96c-.913-1.857-1.816-3.25-2.758-4.264zm-4.47-8.22c-.296.567-.708 1.03-1.26 1.42-.58.407-1.3.72-2.145.93-.89.223-1.908.335-3.024.335H51.73v-9.018h2.26c2.35 0 4.1.37 5.194 1.098.954.635 1.418 1.705 1.418 3.273 0 .758-.144 1.4-.44 1.964zM105.04 135.487c-1.73-1.74-3.912-3.04-6.485-3.868-2.508-.81-5.46-1.22-8.773-1.22h-13.59v42.842h11.83c3.817 0 7.156-.52 9.923-1.545 2.81-1.04 5.157-2.547 6.974-4.48 1.813-1.93 3.165-4.29 4.015-7.008.834-2.663 1.256-5.657 1.256-8.9 0-3.535-.422-6.636-1.258-9.217-.854-2.644-2.163-4.866-3.892-6.606zm-8.4 26.037c-1.785 1.982-4.373 2.945-7.913 2.945h-2.26V139.17h2.803c1.98 0 3.644.28 4.94.833 1.26.535 2.232 1.29 2.976 2.31.76 1.043 1.31 2.353 1.637 3.89.343 1.626.518 3.51.518 5.6 0 4.458-.908 7.728-2.7 9.72zM134.942 157.654c0 1.477-.136 2.736-.407 3.742-.252.94-.623 1.706-1.105 2.28-.462.55-1.027.94-1.726 1.188-.76.272-1.734.41-2.894.41-1.227 0-2.24-.158-3.008-.47-.74-.3-1.333-.728-1.817-1.31-.486-.584-.834-1.318-1.035-2.184-.224-.956-.337-2.08-.337-3.347V130.4H112.34v28.027c0 2.316.286 4.442.85 6.318.587 1.95 1.555 3.634 2.878 5.005 1.323 1.37 3.055 2.43 5.148 3.147 2.034.7 4.492 1.056 7.305 1.056 2.516 0 4.824-.355 6.858-1.056 2.08-.713 3.873-1.794 5.33-3.214 1.458-1.422 2.59-3.212 3.362-5.32.76-2.07 1.146-4.494 1.146-7.205v-26.76h-10.274v27.256M150.47 139.018h9.22v25.544h-9.22v8.68h28.843v-8.68h-9.22v-25.544h9.22v-8.62H150.47v8.62M207.905 154.81L196.42 130.4h-11.63v42.842h9.57v-24.876l11.546 24.876h11.57V130.4h-9.57v24.41M250.738 135.468c-3-3.815-7.497-5.75-13.364-5.75-2.51 0-4.904.446-7.116 1.323-2.243.89-4.225 2.274-5.892 4.118-1.652 1.828-2.964 4.18-3.897 6.986-.924 2.77-1.392 6.094-1.392 9.878 0 6.99 1.487 12.428 4.42 16.166 3 3.826 7.496 5.765 13.363 5.765 2.512 0 4.908-.445 7.12-1.322 2.244-.89 4.225-2.274 5.89-4.115 1.65-1.827 2.962-4.177 3.898-6.986.92-2.77 1.39-6.094 1.39-9.88 0-7.01-1.488-12.455-4.42-16.182zm-6.762 22.26c-.294 1.582-.753 2.915-1.364 3.964-.58 1-1.298 1.73-2.193 2.236-.893.503-2.004.758-3.302.758-2.568 0-4.358-.956-5.472-2.92-1.224-2.16-1.845-5.562-1.845-10.116 0-2.138.155-4.06.46-5.706.295-1.578.757-2.91 1.377-3.958.59-1.003 1.31-1.737 2.2-2.244.88-.5 1.983-.755 3.28-.755 2.59 0 4.384.954 5.487 2.916 1.215 2.16 1.83 5.565 1.83 10.12 0 2.143-.153 4.063-.458 5.706zM240.315 5.74h1.823v4.793h1.293V5.74h1.84V4.55h-4.955v1.19M249.768 4.55l-1.247 4.078-1.29-4.078h-1.686v5.983h1.216V6.71l1.206 3.823h1.11l1.144-3.723v3.723h1.21V4.55h-1.662M190.275 120.327c-16.288 0-30.214-5.492-42.47-16.725-7.57-6.937-13.813-15.436-19.556-24.273-5.743 8.836-11.986 17.335-19.556 24.272-13.17 12.07-28.267 17.51-46.15 16.634-34.1-.148-61.797-27.06-61.797-60.118C.747 26.968 28.597 0 62.827 0c18.732 0 34.503 6.2 48.21 18.95 6.584 6.125 12.142 13.23 17.212 20.664 5.07-7.434 10.628-14.54 17.21-20.664C159.17 6.2 174.94 0 193.67 0c34.233 0 62.08 26.97 62.08 60.118 0 33.058-27.695 59.97-61.797 60.118-1.24.06-2.466.09-3.678.09zm-49.555-61.01c6.794 11.022 13.388 21.282 21.42 28.642 9.066 8.308 18.622 11.726 30.975 11.073l.556-.015c22.532 0 40.863-17.45 40.863-38.9s-18.33-38.9-40.862-38.9c-13.3 0-24.027 4.216-33.757 13.267-7.267 6.76-13.267 15.423-19.193 24.83zm-77.893-38.1c-22.53 0-40.862 17.452-40.862 38.9 0 21.45 18.33 38.9 40.862 38.9l.557.016c12.354.653 21.908-2.765 30.974-11.074 8.032-7.36 14.627-17.62 21.42-28.644-5.926-9.408-11.926-18.07-19.192-24.83-9.73-9.052-20.458-13.268-33.76-13.268z"/><path d="M196.477 52.407V40.9H184.5v11.507h-11.504v11.918H184.5v11.59h11.977v-11.59h11.506V52.407h-11.506M45.6 52.263h37.816v12.292H45.6V52.263z"/></g></svg>