<svg width="256" height="287" viewBox="0 0 256 287" xmlns="http://www.w3.org/2000/svg" preserveAspectRatio="xMinYMin meet"><path d="M203.24 231.53l-28.73-88.433 75.208-54.64h-92.966L128.02.026 128.01 0h92.98l28.74 88.446.002-.002.024-.013c16.69 51.31-.5 109.67-46.516 143.098zm-150.45 0l-.023.018 75.228 54.655 75.245-54.67-75.22-54.656-75.23 54.654zM6.295 88.435c-17.57 54.088 2.825 111.4 46.48 143.108l.008-.028 28.735-88.43-75.192-54.63H99.27L128.003.025 128.01 0H35.025L6.295 88.434z" fill="#EB5424"/></svg>