<svg width="256" height="190" viewBox="0 0 256 190" xmlns="http://www.w3.org/2000/svg" preserveAspectRatio="xMinYMin meet"><path d="M22.183 162c1.75 0 3.194.613 4.42 1.838 1.224 1.225 1.837 2.712 1.837 4.42v21.7H6.257c-1.75 0-3.194-.612-4.42-1.837C.614 186.897 0 185.41 0 183.703v-10.326h23.233v-5.12c0-.306-.088-.524-.306-.743-.22-.22-.438-.306-.744-.306H0V162h22.183zm1.05 22.752v-6.17H5.207v5.12c0 .306.087.525.306.743.22.22.437.307.744.307h16.976zM73.418 162h5.557l-10.5 27.958H64.23l-9.407-20.782-8.882 20.782-.087-.043.044.043h-4.2L30.715 162h5.513l7.57 18.55 8.05-18.55h5.95l8.532 18.55L73.418 162zm29.402 0c1.75 0 3.194.613 4.42 1.838 1.224 1.225 1.837 2.712 1.837 4.42v10.324H85.844v5.12c0 .306.087.525.306.743.22.22.438.307.744.307h22.183v5.206H86.894c-1.75 0-3.194-.612-4.42-1.837-1.224-1.224-1.837-2.712-1.837-4.418v-15.445c0-1.75.613-3.194 1.838-4.42 1.225-1.224 2.712-1.837 4.42-1.837h15.925zm-16.976 11.376h18.026v-5.12c0-.306-.087-.524-.306-.743-.22-.22-.438-.306-.744-.306H86.894c-.306 0-.525.087-.744.306-.22.22-.306.437-.306.744v5.12zm56.44-5.076v1.05h-5.205v-1.05c0-.306-.09-.525-.307-.743-.22-.22-.438-.307-.744-.307h-15.927c-.307 0-.525.088-.744.307-.22.218-.308.437-.308.743v4.07c0 .306.088.525.307.743.218.22.436.307.743.307h15.926c1.75 0 3.193.612 4.418 1.837s1.837 2.713 1.837 4.42v4.068c0 1.75-.612 3.194-1.837 4.42-1.225 1.225-2.713 1.837-4.42 1.837h-15.925c-1.75 0-3.194-.612-4.42-1.838-1.225-1.225-1.837-2.712-1.837-4.42v-1.05h5.206v1.05c0 .308.088.526.307.745.218.218.436.305.743.305h15.926c.305 0 .524-.087.743-.306.218-.22.306-.438.306-.745v-4.07c0-.305-.09-.524-.307-.743-.22-.218-.438-.306-.744-.306h-15.927c-1.75 0-3.194-.612-4.42-1.837-1.225-1.227-1.837-2.714-1.837-4.42v-4.07c0-1.75.612-3.194 1.837-4.42 1.226-1.224 2.713-1.836 4.42-1.836h15.926c1.75 0 3.193.612 4.418 1.837 1.225 1.183 1.837 2.67 1.837 4.42zm11.027-6.3h15.927c1.75 0 3.194.613 4.42 1.838 1.225 1.225 1.837 2.712 1.837 4.42V183.7c0 1.75-.612 3.194-1.838 4.42-1.225 1.224-2.712 1.836-4.42 1.836h-15.925c-1.75 0-3.193-.612-4.418-1.837-1.225-1.224-1.837-2.712-1.837-4.418v-15.445c0-1.75.612-3.194 1.837-4.42 1.225-1.224 2.713-1.837 4.42-1.837zm15.927 5.207H153.31c-.305 0-.524.087-.743.306-.218.22-.306.437-.306.744v15.445c0 .306.09.525.307.743.22.22.438.307.744.307h15.927c.307 0 .525-.088.744-.307.22-.218.307-.437.307-.743v-15.445c0-.307-.087-.525-.306-.744-.218-.175-.436-.306-.743-.306zM216.272 162c1.75 0 3.194.613 4.42 1.838 1.224 1.225 1.837 2.712 1.837 4.42v21.7h-5.164v-21.7c0-.308-.088-.526-.306-.745-.22-.22-.482-.306-.788-.306h-11.026c-.306 0-.525.087-.744.306-.218.22-.306.437-.306.744v21.7h-5.206v-21.7c0-.307-.088-.525-.307-.744-.218-.22-.437-.306-.744-.306h-11.07c-.306 0-.525.087-.744.306-.22.22-.306.437-.306.744v21.7h-5.207V162h35.66zm33.47 0c1.75 0 3.195.613 4.42 1.838s1.838 2.712 1.838 4.42v10.324h-23.233v5.12c0 .306.088.525.306.743.22.22.438.307.744.307H256v5.206h-22.183c-1.75 0-3.194-.612-4.42-1.837-1.224-1.224-1.837-2.712-1.837-4.418v-15.445c0-1.75.613-3.194 1.838-4.42 1.225-1.224 2.713-1.837 4.42-1.837h15.925zm-16.975 11.376h18.026v-5.12c0-.306-.087-.524-.306-.743-.22-.22-.437-.306-.744-.306h-15.926c-.306 0-.525.087-.744.306-.218.22-.306.437-.306.744v5.12z" fill="#494368"/><path d="M256 60.258L190.36.044l-9.235 10.065 54.7 50.148H20.218l54.7-50.193L65.686 0 .045 60.258H0v39.69c0 17.943 17.285 32.56 38.51 32.56h40.478c21.224 0 38.51-14.617 38.51-32.56V73.87h21.005v26.08c0 17.943 17.285 32.56 38.51 32.56h40.478c21.225 0 38.51-14.617 38.51-32.56V60.26z" fill="#FC60A8"/></svg>