<svg width="512" height="92" viewBox="0 0 512 92" xmlns="http://www.w3.org/2000/svg" preserveAspectRatio="xMinYMin meet"><g fill="#002A41"><path d="M103.96 22.426h13.363c6.02 0 10.442 1.02 13.263 3.065 2.822 2.045 4.232 5.133 4.232 9.265 0 2.822-.86 5.17-2.582 7.048-1.722 1.877-4.238 3.083-7.548 3.616v.2c3.888.576 6.748 1.804 8.58 3.68 1.833 1.878 2.75 4.494 2.75 7.85 0 4.486-1.49 7.94-4.465 10.362-2.977 2.422-7.198 3.632-12.663 3.632h-14.93V22.426zm3.4 21.693h10.73c4.576 0 7.903-.762 9.98-2.284 2.077-1.52 3.116-3.904 3.116-7.147 0-3.245-1.172-5.6-3.516-7.066-2.343-1.466-5.837-2.2-10.48-2.2h-9.83V44.12zm0 2.998v21.027h11.463c9.02 0 13.53-3.665 13.53-10.996 0-6.688-4.755-10.032-14.263-10.032h-10.73zM170.208 53.95h-19.794l-6.798 17.194h-3.766l19.594-48.918h2.166l19.195 48.918h-3.833l-6.764-17.194zm-18.56-3.066h17.427l-6.632-17.562c-.555-1.377-1.22-3.288-2-5.73-.6 2.13-1.254 4.064-1.965 5.797l-6.83 17.494zM208.463 24.792c-6.11 0-10.92 1.955-14.43 5.864-3.51 3.91-5.264 9.264-5.264 16.062 0 6.954 1.654 12.352 4.964 16.196 3.31 3.843 8.042 5.764 14.196 5.764 4.088 0 7.842-.522 11.263-1.566v3c-3.22 1.132-7.242 1.7-12.063 1.7-6.842 0-12.23-2.212-16.162-6.633-3.932-4.42-5.898-10.597-5.898-18.528 0-4.954.94-9.32 2.816-13.096 1.877-3.777 4.576-6.693 8.097-8.748 3.522-2.055 7.615-3.082 12.28-3.082 4.754 0 9.008.888 12.763 2.666l-1.366 3.065c-3.555-1.777-7.287-2.665-11.197-2.665zM262.814 71.144h-4.166L239.954 45.42l-6.498 5.73v19.994h-3.4V22.426h3.4V47.75l5.398-5.397 19.094-19.927h4.332L242.32 43.02l20.494 28.124zM269.778 22.426h13.363c6.02 0 10.442 1.02 13.264 3.065 2.82 2.045 4.232 5.133 4.232 9.265 0 2.822-.86 5.17-2.583 7.048-1.722 1.877-4.238 3.083-7.548 3.616v.2c3.888.576 6.748 1.804 8.58 3.68 1.834 1.878 2.75 4.494 2.75 7.85 0 4.486-1.488 7.94-4.465 10.362-2.977 2.422-7.198 3.632-12.663 3.632h-14.93V22.426zm3.4 21.693h10.73c4.576 0 7.902-.762 9.98-2.284 2.077-1.52 3.115-3.904 3.115-7.147 0-3.245-1.172-5.6-3.515-7.066-2.344-1.466-5.837-2.2-10.48-2.2h-9.83V44.12zm0 2.998v21.027h11.462c9.02 0 13.53-3.665 13.53-10.996 0-6.688-4.754-10.032-14.263-10.032h-10.73zM353.52 46.718c0 7.73-1.933 13.846-5.798 18.345-3.866 4.5-9.198 6.748-15.996 6.748-6.775 0-12.096-2.248-15.962-6.747-3.865-4.5-5.798-10.636-5.798-18.41 0-7.755 1.95-13.858 5.848-18.313 3.9-4.454 9.225-6.68 15.98-6.68 6.797 0 12.118 2.237 15.96 6.714 3.844 4.476 5.766 10.59 5.766 18.344zm-39.855 0c0 6.976 1.555 12.37 4.665 16.18 3.11 3.81 7.576 5.714 13.396 5.714 5.865 0 10.347-1.888 13.446-5.665 3.1-3.777 4.65-9.186 4.65-16.23 0-7.02-1.55-12.4-4.65-16.144-3.1-3.743-7.558-5.615-13.38-5.615-5.797 0-10.268 1.89-13.412 5.665-3.143 3.777-4.715 9.142-4.715 16.095zM400.106 71.144h-3.432L367.816 27.89h-.267c.266 5.155.4 9.042.4 11.664v31.59h-3.267V22.426h3.4l28.824 43.187h.2c-.2-4-.3-7.798-.3-11.397v-31.79h3.3v48.718zM440.494 71.144H413.87V22.426h26.624v3.132h-23.226v18.428h21.926v3.132h-21.926v20.894h23.226v3.132zM450.09 68.545c0-2.177.89-3.265 2.667-3.265 1.822 0 2.733 1.088 2.733 3.265s-.91 3.266-2.733 3.266c-1.777 0-2.666-1.088-2.666-3.265zM459.855 83.44c-2.044 0-3.72-.3-5.032-.9v-2.93c1.733.443 3.388.665 4.965.665 5.376 0 8.065-2.932 8.065-8.797V22.426h3.4v48.718c0 8.198-3.8 12.297-11.398 12.297zM511.673 58.58c0 4.067-1.494 7.288-4.482 9.665-2.987 2.377-6.958 3.566-11.912 3.566-5.954 0-10.52-.655-13.696-1.965v-3.4c3.51 1.49 7.986 2.233 13.43 2.233 3.998 0 7.17-.916 9.513-2.75 2.344-1.832 3.516-4.236 3.516-7.213 0-1.844-.388-3.37-1.166-4.582-.777-1.21-2.044-2.316-3.8-3.316-1.754-1-4.33-2.077-7.73-3.232-4.976-1.71-8.414-3.56-10.313-5.55-1.9-1.987-2.848-4.636-2.848-7.946 0-3.645 1.427-6.616 4.282-8.915 2.854-2.3 6.526-3.45 11.013-3.45 4.577 0 8.875.867 12.896 2.6l-1.233 2.932c-4.043-1.688-7.908-2.532-11.596-2.532-3.6 0-6.465.833-8.598 2.5-2.132 1.665-3.2 3.93-3.2 6.797 0 1.8.33 3.277.984 4.432.656 1.155 1.728 2.194 3.216 3.116 1.488.922 4.043 2.027 7.664 3.316 3.8 1.31 6.654 2.582 8.565 3.815 1.91 1.234 3.304 2.634 4.182 4.2.877 1.566 1.316 3.46 1.316 5.68z"/></g><path d="M.292.535V49.85L37 70.775V56.55L12.442 42.554V20.566L37 34.564V21.46L.29.534z" fill="#002A41"/><path d="M73.706.535V49.85L37 70.775V56.55l24.555-13.997V20.566L37 34.564V21.46L73.705.534zM.292 91.72V42.407L37 21.48v14.225L12.442 49.703V70.57L37 56.574v14.223L.29 91.72z" fill="#0071B5"/><path d="M73.706 91.72V42.407L37 21.48v14.225l24.555 13.998V70.57L37 56.574v14.223L73.705 91.72z" fill="#002A41"/></svg>