<svg width="256" height="212" viewBox="0 0 256 212" xmlns="http://www.w3.org/2000/svg" preserveAspectRatio="xMinYMin meet"><path d="M0 32.692h59.85v17.603H0V32.692zM0 0h59.85v17.603H0V0zm107.38 65.132H0v17.603h103.356c11.316 0 37.72.25 47.528 16.094V89.02c-4.778-15.592-18.86-23.89-43.505-23.89zm.25 32.69H0v17.604h103.356c25.147 0 40.99 1.006 47.528 4.527v-7.796c-5.03-12.322-26.153-14.334-43.253-14.334zm-.25 82.987H0v-17.604h103.356c11.316 0 37.72-.25 47.528-16.094v9.807c-4.778 15.59-18.86 23.89-43.505 23.89zm.25-32.692H0v-17.603h103.356c25.147 0 40.99-1.006 47.528-4.527v7.796c-5.03 12.322-26.153 14.334-43.253 14.334zm69.407 63.12H256v-10.814h-76.7c-6.79 0-22.883-.25-28.667-9.556v6.036c2.766 9.304 11.316 14.334 26.404 14.334zm-.25-19.867h78.962V180.56H179.3c-15.34 0-24.895-.503-28.667-2.766v4.778c3.017 7.544 15.842 8.8 26.153 8.8z" fill="#010101"/></svg>