<svg width="256" height="295" viewBox="0 0 256 295" xmlns="http://www.w3.org/2000/svg" preserveAspectRatio="xMinYMin meet"><g fill="#205081"><path d="M128 0C57.732 0 .012 18.822.012 42.663c0 6.274 15.057 95.364 21.33 130.498 2.51 16.313 43.92 38.9 106.658 38.9 62.74 0 102.893-22.587 106.657-38.9 6.274-35.133 21.33-124.223 21.33-130.497C254.735 18.823 198.268 0 128 0zm0 183.2c-22.586 0-40.153-17.568-40.153-40.154 0-22.586 17.567-40.153 40.153-40.153s40.153 17.567 40.153 40.153c0 21.33-17.567 40.153-40.153 40.153zm0-127.99c-45.172 0-81.56-7.528-81.56-17.566 0-10.04 36.388-17.567 81.56-17.567 45.172 0 81.56 7.528 81.56 17.567 0 10.038-36.388 17.567-81.56 17.567z"/><path d="M220.608 207.04c-2.51 0-3.764 1.255-3.764 1.255s-31.37 25.096-87.835 25.096c-56.467 0-87.836-25.095-87.836-25.095s-2.51-1.255-3.765-1.255c-2.51 0-5.02 1.255-5.02 5.02v1.254c5.02 26.35 8.784 45.172 8.784 47.682 3.764 18.822 41.408 33.88 86.58 33.88s82.816-15.058 86.58-33.88c0-2.51 3.765-21.332 8.784-47.682v-1.255c1.255-2.51 0-5.02-2.51-5.02z"/><circle cx="128" cy="141.791" r="20.077"/></g></svg>