<svg width="256" height="283" viewBox="0 0 256 283" xmlns="http://www.w3.org/2000/svg" preserveAspectRatio="xMinYMin meet"><path d="M128.338.078c-6.7 0-13.403 1.733-19.408 5.2L20.244 56.48C8.234 63.416.836 76.23.836 90.097v102.407c0 13.868 7.398 26.682 19.408 33.615l88.686 51.204c6.005 3.466 12.707 5.2 19.408 5.2 6.702 0 13.402-1.734 19.408-5.2l88.686-51.204c12.01-6.933 19.41-19.747 19.41-33.615V90.096c0-13.867-7.4-26.68-19.41-33.615L147.746 5.28c-6.006-3.467-12.706-5.2-19.408-5.2" fill="#FFF"/><path d="M236.432 56.482L147.746 5.278c-12.01-6.934-26.805-6.934-38.816 0L20.244 56.482C8.234 63.415.836 76.23.836 90.096v102.407c0 13.868 7.398 26.682 19.408 33.615l88.686 51.204c12.01 6.934 26.806 6.934 38.816 0l88.686-51.204c12.01-6.933 19.41-19.747 19.41-33.615V90.096c0-13.867-7.4-26.68-19.41-33.614zm7.21 131.123c0 12.54-6.69 24.128-17.55 30.398L145.89 264.31c-10.86 6.27-24.242 6.27-35.103 0l-80.202-46.307c-10.86-6.27-17.55-17.858-17.55-30.398v-92.61c0-12.54 6.69-24.13 17.55-30.398l80.202-46.305c10.86-6.27 24.242-6.27 35.102 0l80.202 46.305c10.86 6.27 17.55 17.857 17.55 30.398v92.61z" fill="#298AEC"/><path d="M73.68 109.916h112.986v9.905H73.68v-9.904zM73.68 143.224h112.986v9.905H73.68v-9.906zM73.68 176.423h112.986v9.905H73.68v-9.905z" fill="#44546C"/></svg>