<svg width="512" height="152" viewBox="0 0 512 152" xmlns="http://www.w3.org/2000/svg" preserveAspectRatio="xMinYMin meet"><g fill-rule="evenodd" stroke="none" stroke-opacity="0"><path d="M108.736 45.793c-1.576.014-3.048.29-4.214.874-2.613 1.306-6.1.672-8.71 1.976-2.51 1.256-3.786 2.972-5.822 4.354.237-.72.477-1.426.717-2.133-.27.32-.527.65-.822.944-.286.287-.424.762-.472 1.33-.047.566-.02 1.215.018 1.87.038.656.086 1.32.053 1.87-.024.415-.158.684-.297.945 4.414-2.097 10.27-4.365 12.17-2.465 1.578 1.577 2.287 3.493 3.952 5.158.263.263.85.38 1.434.542.334 0 .644-.06.875-.174.14-.07.484.022.594-.088.36-.36.492-.683.893-1.084.3-.3.594-1.12.594-1.59 0-.494-.36-1.445-.7-1.785-.118-.12-.873-.668-.873-.787 0-.59 2.015.844 2.063.892.132.132-.027.55.105.682.192.192-.032.53.105.804.457.915-.352 2.415-.804 2.868-.54.54.68.212.89 0 .205-.204.413-.62.596-.804.013-.015-.013-.28 0-.28.177 0 .17 1.506 0 1.68-.54.538-1.05.994-1.925 1.188 2.05 1.515 4.94 2.772 6.435 4.266.424.425 2.9-.137 3.165-.402 1.882-1.882 3.245-5.22 5.544-7.52.71-.71-.574-4.14-.788-4.353-.882-.88-.705-3.082-1.976-4.353-2.286-2.286-8.073-4.468-12.8-4.424z" fill="#E6B35A"/><path d="M91.687 42.12c-.1.024-.192.088-.28.176-.05.05-.248-.05-.297 0-.305.304-.826.423-1.19.786-1.002 1.003-1.88 2.035-2.902 3.078-4.873 1.758-9.416 3.254-14.916 3.9.412.04.836.1 1.26.174-.88.084-2.287.042-2.73.263-.13.066-.8.263-.926.28.233-.023 1.004.017 1.12.017.695 0 1.428.21 2.08.21.978 0 2.136-.03 3.253-.053 1.84.618 3.555 1.486 4.772 2.484.698.572-.138 4.492-.297 5.194-.737 3.25 1.98 12.575.262 14.67-.75.918.412 3.572.7 5.404.89.678 1.69 2.892 1.94 3.392.234.467.84 1.033.84 1.54 0 .068-1.137-1.138-1.26-1.26-.173-.174-1.046-1.318-1.66-1.906-.072.422-.118 1.03-.14 1.75.372.383.776.763.962 1.135.37.745.758 1.46 1.258 1.96.428.427-.877-.3-1.12-.42-.15-.077-.603-.452-1.1-.805.037 4.045.428 9.71.594 11.384.347 3.505-.134 6.832-.14 6.767-.01-.087-1.69 2.067-2.833 3.46-1.69 2.06-3.712 5.272-5.79 7.922.9-.892 2.042-1.988 3.15-2.483 2.545-1.14 8.814-6.05 12.536-8.64.824.594 2.567-2.048 5.14.526.332.33 1.377 3.567 1.173 3.567-1.814 0-2.144 1.79-1.173 2.763.496.496.98.265 1.364-.263.4-1.133.794-2.652.09-3.357-.118-.117.115-.583 0-.7-.632-.63-.364-1.9-1.12-2.657-.26-.26-1.38-.86-1.662-1.47-.02-.02-.05-.033-.07-.053-.206-.206-.65-.178-.96-.28-.233-.304-.714-.884-.264-2.063.788-2.06 1.005-5.826.787-8.026-.072-.74.02-2.317.194-4.127 0-.004-.002-.01 0-.016.28-1.07.717-2.223 1.1-2.99.3-.598-.048-1.91.403-2.36.243-.243.212-.758.193-1.26-1.296.33-2.825.697-3.41.874.07-.067.147-.147.192-.192.158-.158.696-.278.98-.42.938-.47 1.792-.968 2.325-1.224.028-.06.06-.113.105-.157.838-.838.094-3.406-.752-5.21-.032-.466-.03-.914.035-1.348.386-2.62.36-5.305.297-7.99-.14-.008-.296-.018-.472-.018-.075 0-1.737-.09-2.15-.036.108-.045.416-.217.75-.385.197-.1 1.097-.208 1.855-.298-.012-.48-.026-.955-.035-1.434-1.312.11-3.287.262-3.078.052.336-.335 2.17-.315 2.658-.56.056-.027.208-.087.402-.157-.02-1.6.002-3.193.14-4.773.165-.1.373-.213.542-.315.113-.274.21-.548.193-.962-.022-.552-.126-1.205-.228-1.854-.102-.65-.202-1.303-.21-1.872-.01-.57.092-1.05.35-1.363.264-.323.48-.67.716-1.015.082-.352.165-.715.245-1.066.292-1.285-.482-3.153-.016-4.372.074-.195.682-1.076.664-1.26-.006-.064-.072-.083-.175-.07-.513.07-2.057.982-3.095 1.575.228-.824-.534-1.92-1.17-1.766zm-1.085 38.506c-.11.1-.21.168-.21.07 0-.013.087-.032.21-.07z" fill="#E6B35A"/><path d="M46.135 1.01c-.76.094-1.51.218-2.22.455-4.805 1.6-9.23 3.6-13.85 5.14-1.752.585-3.793 2.492-5.14 3.166-5.586 2.793-10.57 5.802-15.774 8.692-.715.18-1.37.273-1.625.017-4.21-4.21 4.03-6.58 2.763-9.11-1.965-3.93-8.236 1.1-9.11 1.975-.832.83-.788 2.71-.788 4.354 0 .31-.197 1.777 0 1.975.922.922.878 2.468 1.976 3.567 1.915 1.915 5.45 1.775 7.887.822.023.046.046.076.07.122 1.05-.486 1.837-.86 1.94-.944 4.496-3.704 8.536-5.265 13.85-7.92 1.39-.696 7.306-4.44 8.708-5.142 1.872-.936 4.72-1.438 7.52-1.976.527-.528 1.21-.85 1.994-1.014.596-1.406 1.186-2.788 1.8-4.18zm7.536 42.597c-2.725 2.88-5.67 4.823-7.78 5.333.056.034.118.057.175.088-1.848.446-3.582.942-4.53 1.888-.182.183-.932-.12-1.17 0-4.873 2.436-11.66 1.763-15.04 5.14-2.082 2.084 13.692-1.975 13.85-1.975 1.36 0 4.323-.586 5.526-1.188.587-.293 2.11 0 2.78 0 4.422 0 6.918 1.49 11.07 3.567 1.273.636 1.643 2.027 2.378 2.762 1.455 1.455 3.203 2.838 4.354 5.14.343.687-.165 3.404.402 3.97 3.58 3.58-3.174 20.574-5.543 22.943-2.756 2.757-5.874 5.472-8.305 7.904-1.077 1.076-2.815 1.24-3.952 2.377-.58.58-2.246.336-3.182.804-3.146 1.574-6.232 1.535-9.494 3.166-.882.44-2.654.598-4.704.682l-4.197-.91c-1.27.803.986-.675-.49.21-.424.255-.958.892-1.573.892-.28 0-1.89-.698-2.08-.507-.195.194-.767.277-.998.507l-.892.875c-.818.82.306 2.588 1.487 2.588.544 0 .65-1.052.89-1.294.538-.538 1.725-.893 2.57-.893.024 0-.104.15-.104.192v.996c0 .39-.04 1.864-.192 2.168-.135.27-.062.63-.193.892-.045.093-.208.297-.104.297.378 0 .313-2.867 1.89-2.867 1.022 0 1.52.77 2.36 1.19.417.208.986.195 1.4.4.25.127.533.172.785.298.082.04.49.324.49.297 0-.303-1.714-1.08-2.237-2.167 3.18-.665 6.66-.04 9.862-.682 5.295-1.058 10.185-2.19 15.16-4.633.02.194.07.35.176.455.124.124 1.137-.42 1.277-.49 1.07-.535 4.19-.528 5.246 0 .027.014.538.016 1.032.035-.36-.133-.687-.285-.735-.332-.133-.133-1.833-.452-2.378-.997-.16-.16-.27-.455-.332-.822 9.683-9.606 18.874-16.492 15.773-32-.835-4.173-1.602-8.706-3.97-12.257-3.924-5.888-11.774-4.692-14.46-6.96-.526-.116-1.085-.195-1.295-.49-.017-.002-.087.003-.087 0 0-.008.043-.04.053-.053-.034-.066-.052-.138-.052-.227 0-1.846 5.283-2.933-.91-6.313zm8.395 60.45c.432.16.917.29 1.05.158.094-.096-.473-.135-1.05-.158z" fill="#E6B35A"/><path d="M46.24 2.83c-.658-.033-2.237.926-2.85.926-2.188 0-15.806 6.852-17.067 8.113-.697.696-.965 3.482-1.4 3.916-1.217 1.218-1.915 4.383-2.71 7.345-.55 1.34-.91 2.85-1.486 3.428-.206.206-.108.808-.28.98-.518.518-1.44.88-1.818 1.258-.14.138-1.19.244-1.54.42-.37.185-.775.343-.892.384.243-.02.99.155 1.032.175.227.114.65.092.84.28.255.256.658 1.12.978 1.12 2.662 0-.923-1.512 1.417-1.662.892.922 3.65 6.562 4.32 9.338.003.03.012.057.016.088.045.297.073.645.106.98.022.63.07 1.206.123 1.73.32 6.924-.77 18.497-.77 22.558 0 2.726-.39 11.863.4 13.447.36.715-.138 1.852-.4 2.378-1.392 2.783 1.175 15.08-.648 17.627.348.503.607 1.08 1.032 1.504.182.183 1.637 5.575 2.413 8.482 3.415-.032 6.877.024 8.778-.927 2-1 4.36-1.62 6.155-2.518.386-.193 2.095-1.017 3.025-1.33-1.28-.187-4.22-1.188-4.424-1.188-.557 0-1.21-.155-1.905-.403.07-.016.14-.036.21-.052-2.407-1.613-4.208-5.65-3.567-8.744-1.158-6.442-.315-16.516-.315-22.206 0-6.066.693-12.405.787-18.798-.484.144-.96.247-1.084.122-.28-.28-.413-2.698-.594-4.18-.206-.466-.347-.818-.385-.856-.542-.542-.943-1.327-1.26-1.958-.035-.07-.528-.84-.42-.84.262 0 1.18 1.32 1.4 1.54.05.05.106.08.175.104h.017c.274.036.485.057.506.035.382-.382-.28-1.275-.28-1.4 0-.317.043-.75.088-1.223.407.333.787.49 1.032.245 1.042-1.042-.84-5.737-1.4-6.295-.084-.085 0-.707 0-.84 0-.42-.09-.88-.21-1.346.013-.84.058-1.644.176-2.308.223.24.444.502.594.577.657.328.936-1.032 1.12-1.4.504-1.01-.27-3.058-1.26-5.018-.144-3.903-.56-9.118-.804-11.506v-.018c.127-.617.284-1.263.665-1.644.395-.395 1.12 0 1.678 0-.987.628.763 2.875 2.24 1.4 2.367-2.37 3.903-6.423 6.154-8.674.236-.237 2.76-2.836 2.517-3.078-.05-.05-.134-.082-.227-.087zm-1.224 100.038c.356.053.612.043.612-.07 0-.106-.25-.05-.612.07zM16.198 29.6c-.047.004-.087.014-.087.035 0 .002.07-.028.088-.035z" fill="#E6B35A"/><path d="M13.383 80.818c-.21.043-.775.51-.91.577-.726.363-1.704.585-2.238 1.12-.604.603-1.415.855-2.098 1.538-.466.466-.793 1.072-1.26 1.54-.177.176.555 1.667.7 1.957.28.558.277 1.252.56 1.82.26.522.39 2.488.7 2.797.292.292.14-.002.28-.14.066-.067.26.3.42.14.345-.347 1.133-.148 1.677-.42.96-.48 3.165.096 4.197-.42.498-.248 1.164-.414 1.855-.524.044.04.078.08.122.122l-.017.035c.102.073.198.153.297.227.268.24.533.465.682.542.002.002.013-.003.016 0 .588.496 1.15 1.044 1.82 1.713.97.972 2.524 7.876 2.762 8.114 1.002 1.002 1.075 4.24 1.976 5.14.516.517.75 1.153 1.19 1.592.545.545 1.512.725 1.975 1.188.584.585 3.7-3.107 4.16-3.567.2-.198.47-.903.595-.978.305-.183.82-.085.98-.403.04-.08-.04-.13-.158-.158l-4.984-5.193c-.94 0-1.88-4.26-2.763-5.142-2.665-2.666-4.58-4.887-6.837-7.205-.41-.74-.744-1.53-1.434-2.22-.65-.65-1.626-1.292-2.1-2.24-.108-.217-1.34-1.522-1.748-1.433-.027.006-.05.016-.07.035-.025.026-.045.06-.07.088-.056-.07-.128-.147-.21-.228-.013-.013-.04-.023-.07-.017z" fill="#E6B35A"/><path d="M57.308 38.15c-.1.14-.39.487-.437.578-.058.12-.145.253-.226.385.106-.13.215-.267.332-.385.103-.102.246-.41.332-.577zm-.664.963c-1.015 1.23-1.592 2.92-2.64 3.97-.802.8-1.435 1.906-.98 2.378l.682-.49c-.177-.353.123-.75.297-1.1.107-.213.403-.833.403-.595 0 .38 1.27.81 1.783.297.678-.68-.71-1.57-.21-2.57.13-.26.297-.683.297-.98 0-.285.184-.61.367-.91zm-6.295 8.15c-1.454.255-2.886.717-4.145 1.258-1.262.118-2.52.237-3.69.648-4.804 1.686-9.23 3.78-13.85 5.403-1.75.616-3.792 2.63-5.14 3.34-2.737 1.442-5.324 2.935-7.87 4.442-.283.663-.346 1.352.036 2.116.33.66.705 1.07 1.103 1.33 2.443-1.412 4.993-2.603 7.92-4.145 1.39-.732 7.307-4.682 8.71-5.42 1.87-.986 4.717-1.514 7.518-2.082.833-.875 2.05-1.216 3.446-1.205.426.003.876.04 1.33.105.348-.088.634-.124.75 0 .062.064.122.14.193.192.624.136 1.256.294 1.888.507 1.433.127 3.126.067 4.074 1.066 1.625 1.71 5.328 2.97 7.274 5.018 1.23 1.294 1.17 3.937 1.96 5.596.322.68 1.514 6.05 1.433 6.96-.013-.15-.03-.296-.09-.42-.254-.54-.73-1.908-.995-2.186l-.892-.927c-.158-.166-.467-.105-.665-.157v-.018c-.013-.038-.027-.06-.052-.087-.33-.348-.704-.185-1.05-.367-.147-.078-.348.004-.49-.07-1.42-.75-2.727 1.582-2.727 2.868 0 .743 1.202 2.285 2.133 2.518.197-.198 1.012-.148 1.276-.28.362-.182.837-.595 1.1-.595.064 0-.516.41-.89.786-.172.17-.535.398-.858.665.054.204.114.405.245.543.05.052-.05.262 0 .315.246.26.326.635.332 1.05.493-.013 1.05-.106 1.363-.106.516 0 1.084-.31 1.084-.193 0 .14-1.275.33-1.486.402-.34.113-.663.207-.978.314-.03.402-.094.813-.123 1.19-.012 0-.025-.002-.036 0-.088 1.297-.308 2.574-.612 3.81.005.153.01.305.018.456-.174.473-.372.92-.56 1.364-2.784 8.415-9.833 14.872-13.85 15.895.057.037.12.056.176.09-1.848.47-3.582.995-4.53 1.992-.182.193-.932-.126-1.17 0-4.873 2.566-11.66 1.863-15.04 5.42-2.082 2.194 13.692-2.08 13.85-2.08 1.36 0 4.323-.626 5.526-1.26.586-.308 2.11 0 2.78 0 2.83 0 4.874.644 7.065 1.68.507-.323.925-.525 1.154-.525.385 0 3.633-.942 4.984-1.137-.43-.146-.926-.458-.996-.84-1.673-.4-3.086-.82-3.9-1.678-.017-.017-.026-.03-.035-.052-.12-.076-.23-.17-.332-.28-.04-.043-.838.035-.838 0 0-.212 4.118-3.455 4.756-4.127 1.01-1.062 2.04-1.267 3.078-2.36 1.745-1.84 4.41-4.352 6.155-6.19.052.053 3.664-2.968 3.918-3.235.69-.728 1.423-1.272 2.133-1.802.003-.007.017-.01.018-.017.28-1.058 1.357-2.47 1.487-2.606.23-.243.417-.596.594-.997-.013-.155-.036-.4-.036-.472 0-2.437.085-4.75.158-7.03.223-2.215.282-4.565.14-6.767.03-1.39.27-7.704-.018-8.01-.42-.44-.98-.728-1.4-1.17-.148-.158-.382-.223-.663-.245-.49.14-.946.264-1.013.332-.363.363-.97.55-1.4.98-.32.32-.663.942-1.118 1.398-.442.44-.708.847-1.12 1.26-.007.005-.42.713-.42.56 0-.057.358-.5.42-.56.316-.317.27-1.11.56-1.4.868-.87 2.155-1.746 2.622-3.112-.034-.03-.08-.08-.105-.104-.43-.454-1.22-.91-2.186-1.364.002.15-.008.297-.05.385-.326.65-1.308 2.425-1.68 2.797-.1.1-.184.37-.262.63-.004.074-.018.16-.018.21 0 .057-.06.128-.122.192-.052.133-.1.227-.157.227-.11 0 .038-.105.158-.227.045-.116.094-.252.14-.402.02-.393.1-1.027.402-1.33.09-.088-.058-.442 0-.56.197-.393.72-1.916.56-2.237-.02-.04-.033-.108-.053-.175-.007-.003-.01-.015-.017-.017-3.256-1.35-7.812-2.645-9.863-3.725-.874-.46-1.972-.317-2.518-.892-1.098-1.155-4.545.678-5.91-1.066zM133.9 46.72c1.01 1.738 4.716 2.954 4.563 4.18-2.684 1.98-6.466 3.028-7.764 6.504-1.148 1.6-2.164 3.257-3.062 5-.31.385-.624.748-.926 1.05-.26.26-.533.855-.7 1.19-.162.323-.594.803-.787.996-.487.487-.98 1.87-1.486 2.378-.012.01-.038.083-.053.105-.46.21-.99.416-1.522.682-.488.244-1.014.06-1.486.297-.044.022-.107.016-.176 0 .227.104 2.172.595 2.343.595.485 0 1.128.2 1.766.472l.018.016c.02.02.134.074.28.123.216.097.407.193.613.296-.33-.054-.935-.172-1.61-.315-.02.1-.05.2-.07.298.336.335.803.61 1.085.892.025.025.402.032.402.088 0 .132-.27 0-.402 0-.164 0-.68-.054-1.206-.123-.09.802-.107 1.62-.018 2.466-.012 2.54-.065 5.08-.087 7.625-.002.005 0 .012 0 .017-.133.485-.065 1.068-.018 1.644-.002.344-.002.688 0 1.032-.004.017.003.035 0 .052-.03.156-.09.316-.158.455-.093.184.092.497 0 .682-.425.85-.738 1.58-1.084 2.273-.136.27-.77 1.625-.403 1.993.16.16.36.536.508.682.11.11.505.105.682.105.233 0 .436-.06.63-.122.067 1.22.152 2.437.28 3.655 1.563 3.004 4.543 5.025 6.94 7.29 2.83 2.65 6.35 4.29 9.18 6.89 1.762 2.09 3.823 7.2 6.856 3.918 4.317-3.22 9.196-5.708 12.836-9.86 2.093-.288 3.72-2.807 5.595-4.058 1.306-1.85-.658-4.422.666-6.365.73-2.19.06-4.696.245-6.995-.098-6.647-.168-13.293-.47-19.934 1.826.625 1.888 1.297 1.328 3.007.114 3.762 4.726 3.92 5 .088.432-3.092-2.267-4.53-4.004-6.348-2.442-1.62-4.838-3.133-7.57-4.16-2.19-.927-4.73-1.227-6.49-3.044-2.44-1.04-4.876-1.975-7.43-2.64-2.17-1.273-4.28-2.476-6.698-3.164-1.975-.864-4.083-1.312-6.137-1.906zm11.872 8.76c1.918.793 3.72 2.186 5.63 3.13 1.93 1.66 5.31 1.697 5.91 4.652.206.572.392 1.146.543 1.73l-.175.176c-.37.37.56 1.4.56 1.958 0 .572-.55.69-.84.98-.388.388-.122 5-.56 5.875-.198.4-.02 1.84-.28 2.1-.782.782-.355 6.447-1.118 7.973-.397.794.14 2.424.14 3.217v1.4c0 .156-.163.397-.14.42.236.235 1.023.043 1.26.28.716.716-1.224 1.573-1.12 1.677.03.03 1.26.765 1.26.84 0 .07-1.3.32-1.4.42-.23.23-.54 6.734-.28 6.994.35.35.832.476 1.31.49-2.888 1.763-5.65 3.873-8.742 5.177-.02.014-.048.02-.07.035-.593.39-1.43.628-1.958.89-.292.147-1.115.806-1.294.806-.033 0 .46-.268.7-.507.13-.13.852-.68 1.363-1.24-.087-.404-.157-.816-.226-1.242-.73.067-1.73.487-1.73.314 0-.168 1.03-.844 1.573-1.24-.16-.93-.36-1.85-.735-2.642-.285.128-.59.26-.84.507.167-.213.38-.467.595-.682l.105-.104c-.37-.665-.892-1.233-1.66-1.608-2.62-1.558-5.34-2.83-8.324-3.323-3.452.402-4.602-3.18-3.987-6.243.506-4.138.638-8.298.508-12.468.126-1.494-.117-3.11-.07-4.635.1.073.383.104.472.193.032.03.176.297.192.297.01 0 .885-1.48.997-1.59 1.36-1.363 1.66-3.427 2.972-4.74.24-.24.25-.652.49-.892.384-.385 1.486-1.296 1.486-1.68 0-.332-.63-1.23-1.032-1.695.096-.166.204-.322.297-.49.012.002.024 0 .035 0 .45 0 .81.003 1.19.193.153.077 1.633-2.353 1.975-2.867.11-.165.57-.772.997-1.364 1.16-.504 2.394-.886 3.515-1.365l.507-.105zM119.91 68.927c-.09-.006-.17.01-.228.07-.1.1.558.03.77.105-.165-.048-.37-.163-.542-.175zm24.585 31.738c-.04.057-.195.385-.28.385-.003 0 .112-.168.28-.385z" fill="#E6B35A"/><path d="M175.76 41.58c-.07.097-.142.182-.226.26.068.09.136.19.192.246.134.134.56.432.56.7 0 .153 1.296 2.135 1.538 2.377 1.183 1.183 2.146 3.897 2.256 6.208-.2-.174-.413-.34-.63-.506-.028-.033-.058-.076-.087-.105-1.794-1.795-3.637-4.057-5.456-5.876-.318-.32-.863-.584-1.26-.98-.202-.203-1.65-1.287-1.677-1.26-.33.33.84.654.84 1.12 0 .235 2.72 3.993 2.657 4.057-.176.177-.398-.117-.42-.14-.02-.018-.27-.032-.612-.034-.083-.017-.154-.028-.192 0-.106 0-.21.016-.332.018-.182-.06-.357-.123-.54-.123-.587 0-1.165.096-1.768.176-.18.007-.373.01-.542.018.066.006.127.026.193.035-.31.033-.62.05-.962.05-.033 0-.133.014-.19.02.014-.01.036-.012.05-.02.05-.024.117-.036.176-.05-.378.02-.72.036-.735.05-.034.037-.073.077-.12.106-.5.08-1.04.185-1.225.315-.184.04-.352.08-.472.14-.34.17-.84.423-.84.42 0-.03.69-.193 1.47-.402.572.02 2.174-.09 2.587-.297.816-.407 2.182.878 3.078.28.068-.045.133-.118.192-.192.146.032.288.067.437.105-.038.084-.07.16-.07.228 0 .234.467 0 .7 0 .153 0 .518.215.664.158.694.257 1.354.578 1.89.944-.046.022-.093.03-.14.053-.017-.007-.036-.01-.052-.018-.002.012 0 .024 0 .035-1.128.568-2.424 1.533-3.393 2.5-.47.47-.417 1.607-.787 1.977-.658.658.002 3.036.018 3.478.132-.344.894-1.735.98-1.906.365-.73 1.544-1.363 2.814-1.66-.06 3.383.235 6.845-.052 10.176-.42 4.88-.404 10.062.192 14.9.142 1.147-.26 14.107.21 14.652.507.587 1.21 1.57 1.766 2.536 2.42 4.202 5.763 7.58 7.73 12.135l1.573 3.656c.06.14.555 1.075.61 1.33.154-.264 1.086-1.27 1.365-2.24.758-2.634 2.337-4.447 3.76-6.644 1.942-3 4.77-5.958 6.54-8.01.373-.43.47-1.01.594-1.573 1.996 2.37 4.096 4.732 6.05 7.256.002.003-.004.014 0 .018.22.342.525.727.856 1.12.012.013.023.02.035.034.607.82 1.19 1.67 1.75 2.535.682 1.053 1.058 2.587 1.783 3.428.3.35 1.094 2.99 1.382 2.99.04 0 2.313-5.022 3.375-6.662 1.392-2.15 3.26-3.936 4.546-6.172 1.102-1.915 1.895-4.08 2.728-5.508.634.297 1.435.225 1.993-.333.367-.366.383-2.032.14-2.518-.254-.507.125-1.15-.14-1.678-.483-.97.217-2.367-.28-3.36-.307-.614.293-2.644-.14-3.076-.534-.535-.19-3.807-.594-5.176-.015-.416-.03-.827-.052-1.242.003-.054-.01-.108-.017-.157-.114-2.12-.31-4.227-.664-6.28-.236-1.36.078-2.786-.21-4.126-.194-.892-.41-12.307-.193-13.062.022-.078.07-.318.122-.594 1.788-1.554 4.094-3.15 5.42-3.813.288-.144 1.574-.592 1.574-.786 0-.232-1.993.593-3.55.593-1.67 0-13.96 1.282-14.252 1.574-.09.002-.17.008-.192.035-.08.094.787 5.275.787 5.963 0 1.873.89 6.67 1.574 8.253.592 1.37.522 4.085.997 5.736.048.166.004.49-.035.822-.406.98-.814 1.793-1.486 2.465-.055.057.526.527.56.56.396.397.396 1.632.7 2.24.276.553-.09 1.73.28 2.097.223.224.06 2.72.42 3.078.428.43-.408 4.782 0 5.596.168.34.885.094 1.118.56.15.3-.314.526-.14.7-.198-.01-.397-.024-.42 0-.04.04-.688.29-.56.42.266.265 2.798 1.5 2.798 1.678 0 .2-2.406.057-2.658.56-.055.11.272 1.67.42 1.818.23.23.755.21 1.364.35-.187.36-.125 1.67-.245 2.028-.138.416-.286.916-.42 1.434-.504.336-1.004.672-1.52.822-1.092.316-2.65.474-3.358 1.294-.09.105-1.922-1.11-2.238-1.294-2.16-1.25-4.586-1.988-6.68-3.165-.005-.002-.013.002-.018 0-.03-.028-.06-.043-.088-.07-.303-1.617-.664-5.057-.874-7.572.125-.807.264-1.612.42-2.413-.174.016-.41.035-.49.035-.05 0-.936-.112-1.12-.105-.04.03-.07.037-.07 0 0-.004.05 0 .07 0 .042-.03.09-.07.123-.087.325-.162.753-.13 1.085-.297.135-.068.337-.04.507-.053.03-.15.055-.303.088-.454.145-.677.147-1.405.175-2.117-.073-.19-.12-.402-.158-.63-.424.078-.865.2-1.1.28-.128.042-.325.002-.49-.017-.13.11-.298.24-.298.122 0-.133.13-.14.296-.122.032-.028.067-.067.087-.088.225-.224.982-.465 1.452-.542-.11-1.17.104-2.66.314-4.074-.046-.007-.18-.014-.175-.018.043-.043.107-.11.192-.157.055-.368.11-.74.157-1.084-.602.077-1.35.052-1.836.052-.028 0-.067-.026-.105-.035.037-.028.078-.056.105-.07.255-.127.634-.063.892-.192.165-.083.588-.167.997-.245.047-.4.08-.774.087-1.1-.5.053-1.068.136-1.556.226-.418.174-.87.273-.822.226.066-.065.412-.15.822-.227.06-.026.118-.043.175-.07.444-.223 1.094-.373 1.504-.648.11-.254.25-.515.087-.84-.897-1.793.694-4.75-.192-6.522-.408-.816-.997-6.515-.997-7.73 0-1.168-.88-5.047-.787-5.14.345-.345 3.97-2.792 5.736-3.934.145-.34.26-.672.192-.752-.066-.076-.16-.096-.28-.088-.36.027-.897.333-1.102.333-2.394 0-4.87.21-7.326.21-.284 0-1.604-.21-1.784 0-.005.005.022.238.035.33-2.737-.65-4.246-.026-4.582.753-.205.474.785 6.61.996 7.344.297 1.03-.296 2.414 0 3.445.244.847.04 2.402.385 3.2 1.026 2.38-.642 6.926 0 9.897.424 1.967-.125 3.61.4 5.437.02.064.036.13.054.193.123 1.475.227 3.617.227 4.284v1.12c0 .143-.243.174-.14.28.313.31.814.433 1.19.68.048.206.105.41.158.613-.32.414-1.144.867-1.067.944.263.263.804.277 1.225.368.015.116.036.23.052.35-.534.165-1.416.43-1.416.682 0 .403.375 3.543.28 3.637-.136.136-.42 1.86-.42 1.958 0 .374.747 0 1.12 0 .137 0 .435.02.682.035-.294.222-.58.44-.804.7-1.68 1.944-3.922 3.245-6.015 4.86-.22.17-1.062 1.03-1.12.963-.83-.96-1.82-1.703-3.077-2.43-.392-.228-.588-.893-.98-1.12-1.655-.958-3.002-2.642-4.546-3.882-.073-.134-.132-.267-.175-.384.15-.037.285-.066.437-.104.928-.026 3.426-.453 3.568-.595.448-.45-.19-2.138.14-2.798.223-.448-.224-1.232 0-1.68.067-.134.17-.84 0-.84-.28 0-1.41-.29-1.54-.418-.06-.062 1.722-.84 1.54-.84-.107 0-.187-3.03.14-3.357.266-.267-.333-1.592-.42-1.68-.35-.348.618-1.176.7-1.258.14-.14-.295-1.804.14-2.238.165-.167-.14-1.686-.14-2.1 0-2.697-.42-5.4-.42-7.833 0-.186.01-.855.017-1.452-.002-.005.002-.012 0-.017-.19-.534.122-1.527.122-1.89 0-.536-.076-1.602.14-1.817.075-.075.194-.1.332-.104.365.86.927 1.644 1.206 1.923.105.104 1.243 1.274 1.82.7.335-.337.694-.557.978-.84.234-.235.325-1.025.56-1.26.084-.084 0-.706 0-.84 0-2.357-.252-5.426-1.68-6.854-.013-.013-.038-.02-.052-.035-.006-.01-.01-.023-.017-.034-.702-1.152-1.81-2.12-2.396-3.095-.054-.09-.108-.168-.174-.244-.025.135-.072.278-.017.333 1.16 1.16 2.894 5.54 1.957 7.413-.576 1.152-.035 1.4-1.4 1.4-.166 0-.36.198-.558 0-.83-.83-1.19-2.103-1.732-3.306.02-.017.034-.035.052-.052.307-.307.23-2.057 0-2.52-.504-1.007.24-2.035-.28-3.076-1.06-2.123-1.884-4.963-3.637-6.716-.808-.808-1.748-1.853-2.798-2.378-.062-.03-.33-.147-.524-.227zm-6.434 6.19c.205-.012.413-.025.682-.036-.1-.008-.205-.018-.297-.018-.146 0-.265.022-.384.053zm32.087 26.84c.014-.003.032-.004.053 0-.046.035-.07.075-.07.035 0-.016.004-.032.017-.035zm-13.08 38.872c-.017.034-.022.035 0 .035.016 0 .024 0 .018-.035 0 .002-.015 0-.016 0zM248.176 46.877c-4.367 1.31-14.48 14.088-17.556 23.17-.363 1.07-2.495 5.846-.91 7.046 1.342 1.017 2.804 3.237 4.372 4.424 1.272.964 2.986 1.183 4.896 1.015-.115-1.02-.24-2.256-.017-2.256.15 0 .48 1.148.84 2.168.23-.032.464-.064.7-.105-.206-.573-.37-1.136-.14-1.365.07-.07.474.556.874 1.207 1.847-.38 3.75-.95 5.596-1.504-.062-.827-.108-1.66.244-1.66.213 0 .305 1.028.385 1.468.253-.075.52-.156.768-.228.084-.4.24-1.66.245-1.66.093 0-.04.196 0 .28.154.307.206.774.263 1.24 2.802-.782 5.23-1.227 6.504-.262 1.165.882 1.918 3.283 2.45 4.057 2.55 3.723-3.262 20.33-5.055 22.697-.54.714-3.593 5.945-4.32 7.1.516-.237 1.59-.158 2.1-.507 2.35-1.61 4.902-4.28 6.627-6.558 4.485-5.92 7.315-12.9 9.792-20.214.684-2.018.31-4.404.997-6.434.38-1.118-.517-3.736-.68-4.93-1.81-13.12-18.253-1.11-21.912-3.883-5.146-3.9-2.15-12.737-.524-17.54.842-2.485 1.382-3.278 3.462-6.766zm.14 66.833c-.2.09-.33.218-.297.454 0 .012.203-.307.296-.454z" fill="#E6B35A"/><path d="M236.217 94.796c-.05 0-.092.018-.133.038-1.59.775-2.89 2.79-4.478 3.564-.64.312 1.69.12 2.222.303.74.255 4.363 2.22 4.76 3.037.36.737 1.52 1.315 1.873 2.04l1.506 3.074c.425.873 1.514 3.24 1.69 4.56.066.5.04 1.12.2 1.447.034.07.082.114.136.138-.728 1.48-1.656 3.843 1.57 3.4 3.873-.536 5.494-3.928 7.334-6.357.236-.31-.264-.597-.302-.626-.105-.08-.18-.185-.258-.298.726-.29 1.64-.703 1.382-1.232-.712-1.46-2.84-3.177-4.068-4.43-1.26-1.284-10.117-9.444-12.24-8.408-.286.14-.842-.254-1.193-.248z" fill="#E6B35A"/><path d="M235.833 93.866c-.11.01-.2.036-.26.115-.912 1.205-4.234 2.51-6.43 3.795-.032.015-.06.037-.09.052-1.912.89-3.955 2.71-4.16 5.603-.042.598.698 1.097.792 1.325.482 1.16 1.333 1.786 2.438 1.864 4.27.3 5.03-6.222 2.263-8.093.824-.282 1.62-.412 2.03-.103.048.037.655.684.928.324.594-.784 5.663-1.802 5.93-2.154.18-.24-2.206-2.41-2.57-2.534-.06-.02-.54-.225-.87-.194zM248.123 47.332c-1.082-.1-4.193 4.508-4.773 5.473l-.385 2.85c-.965.506-1.794.264-2.658.28-.102.002 1.396 1.123 1.574 1.294.4.385.975.732 1.61 1.048.078-.355.283-.72.647-1.084.14-.14.185-.84.42-.84.09 0-.705 1.25-.648 2.116.327.152.67.295 1.013.438.444-.44.873-1.294 1.312-1.294.17 0-.37.973-.42 1.678.57.23 1.137.45 1.626.682l.036.018c.02.034.043.06.07.087.538.536 1.755.215 2.204.664.162.16.555.147.926.157.038-.225.082-.44.175-.63.206-.407.42-.877.42-1.258 0-.02.03-.064.053-.104-.007-.097.01-.175.088-.175.023 0-.038.09-.087.175.018.225.182.615.088.804-.116.234-.196.73-.21 1.24.083.026.16.073.21.124.166.165.588.062.753.227.124.124.31.207.542.262.276-.952.657-2.273.944-2.273.192 0-.14 1.218-.316 2.343 1.183.053 2.947-.266 4.582-.507 1.144.265 2.43.113 3.392.595.294.147.79-.147 1.084 0 .16.08.45.152.787.21h.017c1.603.858 3.06 1.767 4.284 2.99.094.093 1.22 1.76 1.417 1.66.785-.39.21-2.28.21-2.99 0-.62.11-1.34-.297-1.748-.166-.166-.416-.33-.7-.472.022-.294.033-.555.123-.734.174-.35.8-2.523.787-2.537-.13-.128-.414-.1-.542-.227-.7-.7-1.893-1.095-2.99-1.644-.736-.368-2.232-.115-2.763-.647-.108-.108-.466-.136-.875-.14-.615-.253-1.144-.42-1.416-.42-.56 0-2.87-.667-3.2-.996-.295-.296-1.76-.43-1.87-.543-.107-.106-.183-.274-.264-.437-2.04-.99-4.008-2.077-5.665-3.673-.48-.463-.683-1.538-1.12-1.958-.052-.052-.12-.082-.192-.088z" fill="#E6B35A"/><path d="M264.327 58.794c-.022.328-.392.962-.064.983.327.02-.02-1.3.064-.983.275 1.05.088 1.565.252 2.188.104.4.812.645.917 1.046.063.24.81.34.95.556.43.66 2.036 1.625 2.217 2.316.042.158.187.554.27.412.26-.446.842-5.343.908-6.355.11-1.7 2.218-6.885 1.987-7.764-.105-.398-.5-.766-.808-1.237-1.09-1.67-6.156-1.995-5.468.63.272 1.04-.006 2.512.837 3.804.675 1.034 2.798.36 2.457.16-.2-.116-.202.458-.143.682.064.244-.748 1.28-.89 1.52-.59 1.01-.95 2.268-1.142 2.393-.246.16-.698.612-.444.76l-1.9-1.11zM293.916 48.713c-.278.03-1.48 1.307-1.94 1.766-2.106 2.104-4.467 3.86-6.593 5.945-1.252.318-2.675.804-3.27 1.398-.565.565-1.154 1.26-1.784 1.89-.433.43-.833 2.912-1.085 3.164-.39.39-.814 1.286-1.294 1.766-.274.275-.586.574-.873.857-.07.026-.14.064-.21.087-.864.288-1.868.84-2.728.84-.163 0-1.61.118-1.61.14 0 .055.674.092.77.14.312.155 1.5.048 2.36.192-.99.962-1.978 1.942-2.937 2.902-.08.08-.222.402-.35.77-.404.182-.754.33-.892.33 0 0-2.377.736-2.447.77-.036.02-.086.023-.14.018-.312.126-.56.263-.84.402-.085.043-.28-.026-.28.07 0 .094 1.248.07 1.4.07.494 0 1.056.003 1.47.21.04.02.586-.062 1.188-.157-.063.352-.09.885 0 1.066.198.396.48.517.788.508-.062.095-.115.185-.14.245.004.03-.005.058 0 .088.096.06.574 0 .682 0h.56c.046 0 .14-.046.14 0 0 .054-.18.04-.21.07-.274.274-.66.533-1.015.822.397 1.984-.15 4.178.245 6.156.813 4.066 1.325 10.73 0 14.706-.17.508-.092 2.277-.455 2.64-.01.01-.636.692-.454.874.397-.428 2.06-1.267 2.554-1.084-.308.222-.486.514-.315.857.02.043-.033.18 0 .21.313.314.486.664.978.91.29.144 1.712.383 1.89.56.345.346.827.48 1.258.91.083.083.196.335.28.42.253.252.793.396.98.768.157.317.473.738.698 1.19.313.624.588 2.475 1.05 2.937.59.59 1.067 1.418 1.538 1.888.247.247.746.326.98.56.188.188 1.205.156 2.01.175.372.342 1.097.684 1.487.944.417.28.757.64 1.188.927.523.348 1.164 1.698 1.434 2.237.062.124 1.308 1.668 1.33 1.68.314.157.638.393.89.646.223.223 1.186.954 1.627.734.162-.082.493-.092.593-.192.382-.382.698-.876.997-1.364.578-.526 1.568-1.15 2.256-1.608 2.202-1.468 4.085-3.52 6.155-5.07 1.866-1.4 3.986-2.43 5.93-3.725 1.648-1.1 3.313-3.205 4.842-3.97.097-.048.22-.09.35-.14.132.114.247.24.35.367.527 1.293.734 3.742.734 4.862 0 .25.062.707-.07.84-.128.127.06.57-.07.698-.105.105.035.455-.07.56-.082.082-.012 1.342-.14 1.47-.173.172-.957-1.91-2.098-.77-.868.868-.916 2.72 0 3.637.295.296.55.14.91.14.992 0 1.46-1.11 1.888-1.538.128-.128-.058-.57.07-.7.14-.14-.14-.7 0-.84.24-.24.28-1.122.28-1.538 0-.535.14-2.377.35-2.798.07-.14.063-.307.052-.49.003.002.014 0 .017 0 .034 0 .21-1.042.21-1.188 0-1.12.115-2.326.14-3.515.362-.702.175-4.945.175-5.42 0-1.65.84-5.09.21-5.72-1.396-1.395-13.993.132-17.207.228.06.054.153.136.263.23h1.573c.096 0 .313.02.594.07.007.005.01.01.017.016.948.705 4.12 2.037 4.653 2.57.846.846 1.49 1.772 2.238 2.52.068.066.107.14.14.226-.012.01-.02.026-.034.035-1.016.158-2.293.508-2.5.612-1.01.503-2.645.727-3.953 1.38-.857.43-1.793 1.462-2.64 2.22.604 1.576 1.94 3.918 1.993 3.918.008 0-.716-.716-1.4-1.4-.375-.375-.84-1.33-1.258-1.538-.07-.035-.255-.096-.472-.157-.304.163-.68.404-1.1.7.062.103.155.26.174.297.507 1.015 1.41 1.7 1.958 2.798 1 2 1.29 2.494-.28.14-.288-.433-.43-.712-.84-1.12-.342-.342-.62-.76-.978-1.12-.2-.197-.396-.395-.595-.593-1.074.813-2.193 1.834-2.57 2.588-.314.627-.818 1.5-1.294 1.976-.717.716-1.306 1.352-1.765 2.272-.08.157-.124.368-.123.612-.08.08-.167.164-.245.245-.252-.194-.496-.358-.752-.56-.01-.07-.035-.14.018-.246.24-.48-.096-1.546-.385-1.836-.042-.042-.2-.153-.245-.245-.285-.57-1.258-.75-1.643-1.136-.052-.052.312-.468.35-.542.03-.064.11-.213.157-.263-.102-.013-.602-.257-.647-.28-.08-.04-.213-.024-.298-.052-.282-.094-.4-.33-.647-.454-.38-.19-.8-.348-1.19-.543-1.155-.577-2.578-1.39-3.46-2.273-.13-.13-.475-.177-.595-.297-.09-.09-.44-.215-.822-.332-.957-.773-1.788-1.474-2.36-2.063.04-.105.103-.295.12-.332.477-.952 1.375-1.54 1.785-2.36.2-.402-.862-1.428-1.19-2.08-.125-.253 0-.903 0-1.19 0-.65.3-5.34.456-6.243-.28-.04-.677-.5-.858-.682-.333-.333-.795-.498-1.19-.892-.215-.216-.302-.71-.49-1.084-1.27-2.54-1.185-5.9.228-7.117.037-.076.092-.2.105-.227.346-.692 1.29-1.01 1.75-1.47.093-.093.384-.104.49-.21.193-.193 1-.07.978-.07-.732 0-1.54-1.05-1.54-1.817 0-.8.23-1.258.7-1.75.375.03.734.07.857.193.026.026.496.5.595.402.12-.12.046-.553.192-.7.38-.378.808-1.19 1.19-1.573l4.948-4.948c.522-.523 3.837-.777 4.057-.997.448-.448-.73-2.733.087-3.55.894-.895 2.73-1.75 3.95-2.973.025-.023.06-.048.09-.07.518.327.96.716 1.1.857 2.365 2.365 7.877 3.908 10.544 6.575.465.463 1.655.36 2.186.89.236.237-1.06 2.14-1.31 2.64-.084.167-.14 2.46-.176 4.513-.05.003-.106.013-.157.017-.14.635-.3 1.345-.175 1.592.31.62.28 1.383.28 2.098-.133-.227-.28-.46-.28-.7 0-.71-.274-2.23-.647-2.937-.352.016-.664.012-.857-.053-.197-.065-.69-.118-1.312-.174-.12.302-.043 2.84-.21 4.336.04.295.052.58-.052.787-.008.014-.304.466-.14.14.09-.178.148-.526.193-.928-.06-.436-.193-.896-.193-1.17 0-.967-.347-2.338-.752-3.254-2.07-.122-4.704-.157-5.158.07-.94.47-1.517 1.353-2.378 1.784-.368.184-1.56-.193-2.064-.193-1.208 0-5.653.694-7.152 1.486-1.195-.18-2.516.666-3.444.874-.7-.267-1.438-.537-2.17-.525-.32.006-.634.066-.943.21-.55.02-1.037.093-1.26.315-.14.142-.513.374-.628.49-.06.058-.1.16-.14.262l.052.052c-.45.395-.86.867-1.032 1.382-.204.614-.21 1.27-.21 1.976 0 1.22.977 2.05 1.592 2.972.613.92 1.222 1.59 2.168 2.064.663.33 2.077-.138 2.57-.385.603-.3 1.3-.554 1.977-.892.895-.447 1.17-1.426 1.433-2.307.31-.467.496-1.492.56-1.556.166-.166.29-.357.437-.56.898-.096 1.636-.16 1.906-.175-.32 1.012-.824 2.06-.77 2.116.13.13 1.277-.77 1.382-.874.426-.426 1.98-.742 2.763-1.172.125-.02.244-.052.35-.105.246-.123.615-.07.91-.07.18 0 .333.007.49.018h.016c.5.12 1.035.27 1.52.385.42.19.82.424 1.364.7 2.537-.252 5.033-.526 7.03-.526 2.846 0 5.48-.664 8.358-.664h3.742c.232 0 .665.46.665.227v-7.5c-.217-.217-.415-.418-.526-.473-.29-.145-.21-.08-.21-.49 0-.792.323-1.276.735-1.714V67.878c.056-.045.115-.093.174-.122.183-.092.52-.102.63-.21.063-.064-.35-.454-.35-.56 0-.17-.207-.416-.28-.49-.023-.022-.437-2.203-.42-2.238.317-.634.437-2.535.84-2.937.247-.247.332-.82.56-1.05.327-.327.588-.727.908-1.048.03-.03.28-.18.28-.21 0-.125-1.068.57-1.19.63-.61.306-1.173.78-1.608 1.294-.002.003-.015-.003-.017 0-.21.104-.397.222-.525.35-.015.015-.65.82-.682.787-.053-.054.227-1.347 0-1.574-.845-.846-2.034-.788-3.375-.788-.088 0 .15-.65.193-1.45-.216-.098-.437-.194-.647-.3-3.025-1.512-5.964-3.155-9.215-3.968-1.978-.495-4.084-2.187-5.735-3.288-1.41-.94-3.502-.878-4.6-1.976-.01-.01-.015-.02-.034-.017zm-4.18 55.1c.012 0 .036.005.036 0 0-.034-.013-.024-.035 0zm19.603-28.8c.043.075.087.157.12.227.005.007.002.07 0 .122.075.16.13.297 0 .297-.006 0 0-.173 0-.298-.053-.118-.103-.245-.12-.35zm-25.514 1.433c1.793-.073 2.597 3.472 1.644 4.424-.303.304-1.68 1.54-2.168 1.294-.335-.167-.806-.23-1.084-.507-.772-.772-1.852-2.137-1.19-3.462.634-1.267 1.35-1.514 1.977-1.47.294-.175.565-.268.82-.28z" fill="#E6B35A"/><path d="M342.248 41.7c-.03-.03-3.51 1.134-3.952 1.575-2.427 2.427-11.344 5.487-16.96 6.435-.02.003-.037-.003-.054 0-.325-.326-1.56.304-2.168 0-.316-.158-.62-.056-.892-.193-.963-.48-2.24-.752-2.973-1.486-.23-.23-.723-.127-.997-.4-.403-.404-.17-1.15-.49-1.47-.378-.378-.864-.69-1.276-1.102-.216-.215-.893-.505-1.102-.087-.43.863.94 1.728 1.486 2.274.564.563 1.357 1.072 2.187 1.487.465.233 1.013.628 1.277.892.067.068.16.112.262.14.005.002.012 0 .017 0 .806.894 10.19 1.428 10.597 1.836.154.154 0 1.333 0 1.574 0 1.078-.748 7.862-1.172 8.708-1.364 2.73.94 27.69 1.574 30.864.464 2.32.505 4.96.088 7.484v.017c-.068.143-.14.294-.193.455-.55 1.653-2.41 4.073-4.057 4.896-.822.41-1.452 1.24-1.696 1.486.533-.117 2.677-.227 2.956-.227h.42c-.336.47-.688.915-1.085 1.312-.906.905-1.645 1.89-2.256 2.762-.19.195-.455.454-.613.61-.32.32-.35.737-.594.98-.043.044.018.21 0 .28v.018c-.308.543-.492.894-.49.892.08-.08.172-.192.262-.315-.2.568-.34 1.188-.647 1.8-.19.383-.073.972-.21 1.382-.35 1.05-.297 2.208-.297 3.375 0 .195.09.753.21.875.014.012.03.036.054.052-.143-.35.14-2.61.14-3.01 0-.496.615-2.415.98-2.78.273-.274.085-.96.4-1.275.284-.283.267-.756.595-1.085.933-.933 1.66-2.3 3.41-2.535 1.28-1.14 3.164-2.238 5-3.235.805.02 1.61.035 2.413.035 1.527 0 3.4-.3 4.897 0 .874.175 1.895.28 2.797.28.284 0 4.132.22 5.42.35-.29-.08-.624-.19-.663-.21-1.02-.51-2.232-.894-3.358-1.12-1.3-.26-3.413-.86-5.193-1.486.567-.016 1.13-.03 1.206-.106.1-.102-1.493-.187-2.01-.192-.538-.206-1.032-.402-1.418-.595-.145-.072-.447-.252-.682-.384.2-.17.38-.347.542-.507 2.702-2.703 2.118-14.376 6.33-18.588.882-.882-1.04-3.42-1.19-3.568-.06-.06-.093-.225-.104-.437-1.106-1.044-4.336-3.43-4.336-3.515 0-.065.565.423 1.12.7 1.094.547 2.4 1.14 3.076 1.818.007.007.102.015.175.018.03-.393.07-.816.07-.962 0-1.594-.023-3.485.018-5.438-.786.023-1.58.087-2.08.087-.693 0-1.4.15-1.4.14 0-.21.86-.22.98-.28.658-.327 1.69-.794 2.536-.925.01-.294.004-.58.017-.875l-.035-.017c-.484-.242-.804-.42-1.4-.42-.79 0 .45-.39 1.505-.682.152-2.246.454-4.44 1.05-6.224.394-1.185-.304-2.738 0-3.952.933-3.735.028-7.68.786-11.47.3-1.498.804-3.256.804-4.757 0-.673.86-1.5.384-1.976zm3.27 65.925c.242.066.455.114.455.07 0-.016-.197-.045-.455-.07zm-23.8-.525c-.038.012-.086.023-.086.035 0 .038.037.013.087-.035zm-2.237 13.797c.01.01.007.035.02.035.022 0 .008-.015-.02-.035z" fill="#E6B35A"/><path d="M352.53 45.705c-5.88.113-11.805 1.806-14.024 5.176-.002.11-.014.236-.017.35l1.782.368c-.58-.116-1.312.044-1.8-.245-.086 2.383-.427 5.52-.176 5.77.447.447.892-.384 1.19-.384 1.047 0 2.864-.827 3.95-1.19 1.814-.604 9.114-.44 10.58.717.313-.595.73-1.22 1.295-1.504.195-.097.59-.397.875-.472.09-.074.162-.12.21-.12.066 0-.022.086-.088.086-.035 0-.08.024-.122.035-.507.42-1.526 1.798-1.364 1.96.056.054.855-.21 1.085-.21.092 0 .175.01.262.017.197-.05.38-.076.438-.017.008.01.012.022.017.035.113-.014.226-.035.367-.035.414 0 .734.048.98.28l.016.017c.064.004.127 0 .192 0 .136 0 .33.062.525.14.225.01.435.033.56.157.082.083.214.11.297.193.024.024-.035.11-.07.122.053.04.25.384.175.384-.112 0-.37-.176-.403-.21-.38-.38-2.253.295-2.36.402-.06.06-.11.118-.158.175.093.17.097.465.245.613l.052.052c-.478.158-.867.422-1.032.752-.133.267-.21 1.662 0 1.87.01.01 1.575.36 1.8.386-.028.13-.063.256-.12.315-.054.053-.415.776-.3.892.315.314.5.69.893 1.084.553.553 2.083.505 3.043.472 0 .003.017.015.017.017 0 .44-2.49.193-2.57.193-.115 0-1.164-.247-1.084-.088.32.642.84 1.044 1.502 1.417.547-.014 1.068-.034 1.26.157.504.505 1.34.402 2.378.402 4.225 0 5.835-2.577 7.52-5.945.747-1.497-.32-3.804-.788-4.74-1.258-2.515-2.115-4.475-3.97-6.33-2.415-2.415-7.71-3.618-13.062-3.515zm-14.06 5.648c.003-.04.017-.082.02-.122l-.194-.034c.057.056.11.12.175.157zm-.174-.157c.063-.11.14-.21.21-.315.03-1.507-.098-2.576-.612-2.062-.295.295.402.397.402.804 0 .528-.373 1.2 0 1.574z" fill="#E6B35A"/><path d="M388.552 39.27c-1.443.737-2.967 1.662-3.41 2.24-.925 1.205-3.315 2.336-3.952 4.178-3.626 10.494-6.133 17.3-15.772 23.816-1.476.998-3.747.21-5.246.962 1.41.17 6.677.746 7.57-.42.65-.846 3.637-2.775 6-4.284-.275 1.257-.11 2.567.96 3.637.1.098.497-.1.595 0 .135.134.29.21.473.244-.196 1.08-.368 2.054-.49 2.43-2.957 9.1 3.516 1.96 2.168 5.86-.363 1.05.242 2.405-.105 3.41-1.445 4.562-.252 9.552-.14 14.722-.803 1.048-1.06 8.91-1.696 9.74-.295.385-.886.83-1.24 1.294-.66.857-1.825 1.768-3.08 2.378-.89.434-6.434 7.42-7.57 8.9-.26.337-1.585 2.04-1.417 2.17.267.203 2.677-2.454 3.27-2.974 1.086-.95 3.26-2.118 5.16-3.322.564-.15 1.127-.477 1.258-.647.17-.222.774-.093.944-.315.374-.488 1.334-.606 1.66-1.032.555-.72 1.077-1.537 1.313-2.588.143-.09.32-.175.472-.262.47-.803 1.577-1.742 1.783-2.01.272-.354 1.39-.47 1.662-.823.526-.686 2.023-.995 2.588-1.73.04-.053 1.398-.492 3.112-.998.517.08 1.093-.094 1.75-.49.424-.12.832-.233 1.258-.35.406.036.79.135 1.014.106.204-.027 3.26.503 3.27.577.01.075-.626-.652-.682-.734-.528-.78-1.317-1.62-1.924-2.518-.373-.553-.845-1.084-1.224-1.644-.177-.262-.234-.59-.297-.927.106-.942.232-2.058.42-3.602.037-.308.058-.56.087-.84-1.738-.037-4.704.032-4.704-.28 0-.13.27 0 .403 0 .54 0 2.7-.09 4.354-.244.157-1.726.16-2.93.14-4.003-2.054-.01-5.09.02-5.09-.315 0-.186 2.98-.11 5.09-.105-.01-.528-.03-1.05-.018-1.61-1.46-.045-3.283-.05-3.69-.05-1.382 0 1.562-.66 3.742-1.068.023-.334.06-.683.104-1.068.117-1.017-.19-2.07-.122-3.095.14-2.095.718-4.223.857-6.312.202-3.02-.035-6.05.123-9.11.262.045.543.045.892 0 .245-.033.657.296.804.104.425-.556.973-1.037 1.398-1.592.047-.06-.04-4.612-.227-4.756-.67-.515-1.728-3.66-1.258-5.02.35-1.015.76-7.794.595-9.057-.104-.788-.043-2.872-.63-3.322-.064-.05-.13-.068-.192-.105-.003-.002.003-.016 0-.017-.024-.33-.04-.676-.035-.98-.003-.003.003-.012 0-.016-.104-.148-.224-.275-.367-.385-.797-.612-1.278-1.287-2.414-1.68-.098-.033-.208-.055-.298-.07z" fill="#E6B35A"/><path d="M388.724 36.52c-5.435-.08-8.8-6.332-5.892-14.745.28-.815 2.832-3.812 2.89-3.767.126.096-2.148 4.798-1.08 4.657.102-.013 1.552-3.97 2.43-5.117.716-.93 5.367-9.348 4.62-9.92-.246-.19-.26 4.858-.21 4.825.63-.427 3.614-6.845 3.415-8.352-.082-.627-.022-2.244.226-2.568.054-.07-.193-1.103-.146-1.11.19-.025.298 4.407.307 4.475.442 3.357.257 8.436-1.81 9.833-.85.576-1.84 3.17-1.926 2.51-.074-.56 1.282-.045 1.627-.495.238-.31 2.378-2.57 2.482-2.585.293-.038-.206.577-.168.87.26 1.978-4.936 7.525-4.767 8.81.032.244 4.216-2.276 4.22-2.248.15 1.143-1.335 3.364-1.986 4.212-.364.474-.85 2.125-.927 1.533-.01-.072 1.58-.11 1.664-.22.12-.156 1.71-1.68 2.073-1.4.798.61.017 3.877-.525 4.583-.31.403-1.082.436-1.314.738-.08.104-.224.444-.24.314-.08-.593 4.824-1.088 3.233.985-1.616 2.107-5.252 3.18-8.196 4.183z" fill="#5A8CE6"/><path d="M386.882 34.667c-.267-.05-.852.115-.802-.152.05-.267 1.005.333.802.152-.182-.162-1.027-.165-1.208-.327-.342-.305-.646-.763-1.056-1.128-.2-.18.07-.943-.068-1.185-.772-1.347-2.498-5.187-1.176-6.67.295-.33.033-1.786.293-1.8.18-.01.75 1.793.904 1.93.022.018.575-.014.593-.035.248-.278.203-1.28.502-1.614.99-1.11 1.504-2.95 2.538-4.11 1.21-1.356 1.203-3.03 2.143-4.086.088-.098-.154-.387-.023-.395.094-.005-.48 1.565-.5 1.614-.418.97-1.56 3.9-1.53 4.45.013.22-.196.573-.163.603.424.377 2.004-2.295 2.443-2.32.045-.003-.814 1.445-.897 1.636-.21.487-2.412 5.907-1.81 6.444.102.09 2.826-2.568 2.84-2.342.025.45-2.025 4.754-1.484 5.237.188.167 3.733-2.296 4.046-2.017.22.196-2.352 2.59-2.014 2.89.45.4 1.654-.212 2.195.27 1.206 1.076-3.565 3.177-4.57 3.235-.337.02-1.693-.238-1.998-.28z" fill="#C8DCEB"/><path d="M431.48 2.147c-1.774.022-3.657.486-6.032 1.224-.015.005-.037-.004-.052 0-3.463.422-7.342 1.317-9.897 2.94-1.048.177-2.773 1.253-4.11 2.377-.03.024-.06.045-.088.07-.333.236-.745.578-1.4 1.014-.317.213-.405.645-.698.84-3.372 2.248-4.557 6.335-5.456 9.933-.162.648.07 1.47-.14 2.098-.24.717-.255 2.174 0 2.94.218.653.485 1.315.7 1.957.304.914.46 1.622.84 2.378.05.102.7.84.558.84-.117 0 .538-.08.7 0 .167.083.427.13.56 0 .392-.393.044-1.17-.14-1.54-.218-.434-1.098.163-1.26 0-.115-.115-1.817-5.876-1.12-6.574.35-.35-.07-1.468.28-1.818.586-.584.91-3.848 1.68-4.616.853-.853 1.306-1.866 2.098-2.658.498-.498.948-.837 1.38-1.172.096.406.11.844.44 1.172.877.878 3.16-.05 4.528-.717.074 0 .154.003.227 0-.2.35-.41.706-.7.998-.26.26-.354 1.473-.7 1.818-.14.14-.388 2.067-.84 2.518-.047.048-.15.488-.28.945.42.377 1.24 1.08 1.785 1.433.238-.017.454-.007.454.14 0 .122-.19.032-.455-.14-.205.013-.427.05-.525 0-.203-.102-1.465-.494-1.68-.28l-.034.035c-.066.23-.302 1.287-.49 2.028.558.518 1.31 1.056 1.504 1.154.074.037.35.195.612.332.286.075.508.15.508.228 0 .027-.246-.09-.508-.228-.705-.183-2-.414-2.78-1.12-.006-.004-.01-.01-.017-.016-.326-.16-.704-.35-1.382-.682-.378 1.684-.527 3.398-.21 4.984.762 3.81-.647 8.13.56 11.75.622 1.868.915 3.94 1.4 5.876.804 3.22 2.357 6.234 3.356 9.233.6 1.805.773 4.45.664 6.872-.9.872-1.708 1.893-2.238 2.954-.06.118-.097.242-.14.367-2.99-.005-5.984-.098-8.97-.366l-.788.98c-.066 0-.145-.047-.192 0-.508.507-.46 3.3 0 3.76.507.506 3.796-.194 4.546-.194 1.8 0 3.9.06 5.736-.262.485 1.227 1.122 2.093 1.976 2.815.065 1.113.023 2.203-.315 3.218-.944 2.83-.455 6.12-1.4 8.954-.746 2.238-1.74 4.378-2.518 6.715-.74 2.217-1.437 5.232-2.798 7.273-1.542 2.313-3.478 4.718-4.756 7.274-.888 1.776-2.817 3.106-3.917 4.756-1.688 2.534-2.8 4.48-4.755 6.435-1.108 1.108-4.374 5.39-5.036 6.715-.465.928-1.32 1.724-1.383 2.693.765-.737 2.835-2.214 3.34-2.973 2.188-3.282 4.913-4.912 7.554-7.554.906-.905 2.71-1.31 3.638-2.24 1.864-1.862 4.183-4.284 7.275-5.315 1.756-.585 3.662-.852 5.316-1.678.933-.468 4.758-.283 5.314-.84.224-.224-.778-1.18-1.87-2.36-.465.034-.897.107-1.207.262-.63.314-2.485.87-2.518.838-.32-.318 1.873-1.29 3.06-1.853-.73-.843-1.386-1.73-1.645-2.536-1.093.365-2.567 1.203-2.675 1.31-.288.288-.7.507-1.084.77-.18.242-.406.49-.595.49-.065 0 .094-.094.14-.14.134-.133.298-.243.456-.35.11-.147.218-.323.244-.35.744-.744 1.77-1.07 2.52-1.818l.89-.892v-.018c.054-.23.177-.44.368-.63.902-.902.183-3.82 1.12-4.755.954-.956 1.02-2.98 1.957-3.917 2.586-2.586 3.37-6.737 5.316-10.632.55-1.098.01-2.817.56-3.917.348-.694.284-1.59.298-2.43.523-.247 1.224-.542 1.574-.89 1.03-1.03 1.49-2.274 1.52-3.57 3.003-.19 7.015.21 9.164.21.485 0 1.494-.096 2.623-.244.05 1.503.198 2.837.488 3.708.295.883.42 2.016.42 2.937 0 .464.232.987.297 1.243.04-.255.263-1.542.263-1.66 0-1.377.42-3.1.42-4.618 0-.606.026-1.243.052-1.888-.003-.005.002-.013 0-.018-.065-.115-.136-.22-.193-.333-.215-.43-.732-.644-1.136-.857.363-.045.69-.096.718-.122.178-.18.472-.14.84-.14.155 0 .396-.162.42-.14.287.288.38 1.362.558 1.54.216.215 2.027-.665 2.378-.84.694-.348 3.577-.22 3.917-.56.212-.21-.664-.105-.698-.14-.352-.352-1.29-.295-1.82-.56-.515-.258-2.856-1.26-3.076-1.26-.465 0-1.068.93-1.26 1.12-.033.035-.793-.144-1.433-.28.165-.155.387-.352.454-.42.173-.17.366-.318.56-.47-.043 0-.08-.003-.122 0 .024-2.434-.174-4.825-1.277-6.663-.24.674-.6 3.603-.734 6.714-4.15.015-8.36.22-12.59.437-.503-1.062-1.222-2.066-2.08-2.903-.86-4.187-2.36-8.443-3.34-10.405-.584-1.166-.53-2.737-1.12-3.917-3.108-6.216-7.98-12.857-4.197-20.425.517-1.033.342-2.86 1.12-3.637 1.587-1.587 2.694-3.724 5.315-5.035 1.725-.862 3.53-2.798 5.316-2.798 1.062 0 3.215-.91 4.476-.28 2.58 1.29 5.144 2.626 6.715 4.197.573.574.688 2.22 1.118 3.078.92 1.838-.556 7.84.56 10.072.145.29.225.62.262.962-.157.017-.31.025-.472.035.52.36.944.718 1.19.963.04.04.17.015.28 0-.05.023-.094.074-.14.104-.383.083-.677.203-.7.315-.61-.61-1.16-.856-1.68-.857-.865 0-1.634.673-2.378 1.417-1.016 1.017-1.678 3.774-1.678 5.456 0 .474 0 3.497-.14 3.637-.233.233-.39 2.91-.7 3.217-.19.19-.84 1.75-.84 1.82 0 .14.652-.956 1.54-1.4.61-.305 1.177-.8 1.73-1.347.462-.39.853-.816.928-.89 1.573-1.575 4.217-3.38 5.875-5.037 1.04-1.04.912-2.383 1.54-3.638.13-.26-.132-.718 0-.98.73-1.462-.235-2.06-1.382-2.15 1.067-2.186 1.32-5.385 1.8-7.78.17-.396-.037-5.15-1.118-8.395-1.202-3.605-1.368-8.465-5.036-10.91-4.182-2.788-6.836-3.885-9.76-3.848zm10.755 72.516c-.004.025-.018.157-.017.157.052 0 .042-.06.017-.157zm-53.858 50.133c-.176.17-.297.313-.297.385 0 .187.28-.092.28-.28 0-.036.015-.068.017-.104zM420.884 60.5c.057-.014.09-.017.105 0 .33.33 1.862 1.227 2.377 1.485.614.307 1.453 1.138 1.784 1.47.027.025 0 .256 0 .296v2.782c0 .258.324 1.442.088 1.678-.516.517-2.022 1.45-2.867 1.87-.2.102-2.414 1.45-2.57 1.295-.526-.526-1.177-1.184-1.87-1.976-.32-.364-1.558-1.452-1.784-1.68-.177-.176.05-3.975.104-4.458.87-1.088 2.098-1.3 2.868-1.87.116-.117 1.37-.806 1.766-.893z" fill="#E6B35A"/><path d="M403.59 58.47c-2.19.872-3.464 3.036-3.952 5.49-.41.02-.81.072-1.206.246-.113.777-.23 1.282 0 1.68.033.055.44.022.98-.054-.02.455.006.914.034 1.364-.43.048-.856.14-1.294.367 0 .582.072 1.47.42 1.47.014 0 .61-.185 1.05-.316.27 1.43.8 2.726 1.538 3.673.393.505 1.635 2.25 2.325 1.713-.795-1.295-1.535-2.25-2.08-3.794-.14-.4-.206-1.167-.228-2.065.335-.102.887-.258.892-.262.36-.27 2.657.36 2.657-.21 0-.358.14-1.304.14-1.47 0-.288-.367.21-.56.21-.245 0-1.382-.233-1.538 0-.29.437-.954.573-1.593.613.014-.53.058-1.06.105-1.59 1.045-.18 2.06-.368 2.326-.368.2 0 1.13.218 1.26 0 .196-.338-.266-.042-.14-.472.074-.258.28-.43.28-.717 0-.254-.273.226-.42.226h-2.1c-.34 0-.706-.105-1.03-.175.13-.744.307-1.352.524-1.678.138-.208-.034-.63.105-.84.703-1.055.96-1.994 1.503-3.042zM417.29 65.653c.11-.545 1.104-2.873 1.36-2.833.27.042.73.01 1.068-.047.596-.1 1.105-.395 1.744-.296.03.004 2.15 2.937 2.162 2.953.008.01-.622 1.306-.73 1.515-.29.564-.41 1.282-.496 1.834-.01.07-.846-.132-.968-.15-.877-.136-1.59.39-2.377.268-.032-.005-1.22-2.504-1.763-3.245zM455.035 21.924c-.02 0-.01.176 0 .385.044-.227.055-.386 0-.386zm0 .385c-.056.294-.172.732-.262 1.24.077-.184.17-.362.262-.454.042-.042.017-.456 0-.787zm-.262 1.24c-.347.832-.542 2.397-.542 3.113 0 1.54-2.723 10.676-3.724 11.82-.008-.052-.032-.35-.035-.35-.19 0-.118.297-.12.543-.645.678-1.36 1.678-1.925 2.5-1.08 1.044-2.216 2.025-3.48 3.288-.207.207-.88.285-1.188.594-.272.272 1.25 4.033 1.38 4.162.012.01.036.013.053.018 1.612-.812 3.894-2.21 3.9-2.204.09.09-.882 1.092-.98 1.19-.6.6-.812 1.983-1.398 2.57-.075.075-.03.987.035 2.01 1.555 3.592 3.777 7.958 5.578 11.28 1.394.265 2.83.453 3.2.402-.207.135-.68.54-.7.56-.137.136-.842.055-.98.192-.073.073-.335.282-.628.49 1.07 1.906 1.876 3.215 2.08 3.322 4.39 2.293-4.383 7.813-2.168 8.97 1.914 1 12.583 3.07 13.184 4.984.504 1.607-16.83 23.744-19.288 28.45-1.025 1.962-10.313 17.356-9.844 18.85.027.086 2.93-3.81 3.584-4.44 3.867-3.733 7.257-5.54 11.174-9.32 2.302-2.223 5.79-3.938 7.432-4.688-1.608.877-3.16 2.553-3.655 3.497-1.227 2.35-4.416 4.275-6.365 6.156-5.848 5.643-9.544 13.46-12.852 19.793-.392.75-4.164 7.29-1.417 8.726 7.084 3.7 12.78-.436 16.193-9.216-1.13 2.162-3.184 2.453-3.83 3.69-1.21 2.317-9.52 3.41-9.023.33 1.766-10.966 21.822-29.415 33.014-40.217 1.177-1.136 7.738-5.138 8.114-5.858.16-.306.037-.788.018-1.173-1.437.94-4.573 2.61-6.067 3.078-1.532.48-14.96 7.82-15.142 7.24-.285-.908 1.1-1.56 1.783-2.22 4.646-4.485 8.64-13.744 14.62-19.516 7.734-7.466 14.063-23.246 19.864-33.488-1.044-.245-2.14-.43-1.906-.664.16-.158 1.338-.22 2.553-.437.283-.48.578-.966.858-1.416-.418.016-.783.035-.892.035h-1.24c.406-.075 1.093-.28 1.1-.28.213 0 .738-.037 1.224-.07.51-.805 1.02-1.553 1.522-2.24-.995-.694-2.398.21-3.725.21-.028 0-.068-.007-.105-.016-.115.055-.175.073-.175.017 0-.064.088-.038.175-.016.346-.166 1.14-.682 1.924-.682.448 0 1.655-.197 2.623-.455.045-.058.092-.118.14-.175 1.512-.773 4.245-2.183 4.37-2.308.453-.452 2.18-3.186 2.378-3.777.202-.604 1.034-1.13 1.4-1.68.708-1.062 1.543-2.107 2.098-3.216.458-.916 1.442-4.52 1.818-4.895.076-.076.975-2.243.84-2.378-.426-.426-6.106-1.005-6.995-.56-.43.215-2.668.98-2.94.98-.137 0-1.538.69-1.538.84 0 .066.685-.266.7-.28.274-.276 1.03-.052 1.26-.28.51-.51 4.278-.198 4.615.14.14.14.42.14.56.28.532.53-.26 1.744-.874 2.5-.798.044-1.575.086-2.134.262-5.997 1.88-14.1 1.613-16.893 6.958-3.47 6.646-2.742 18.536-4.65 22.19-1.422 2.72-4.547 1.102-5.474.42.178 1.15-1.515 5.683-1.66 5.963-.817 1.562-3.778 10.314-4.18 10.44-1.48.465-10.966-16.953-13.675-19.76-.95-.983-.21-6.427-1.364-7.03-1.865-.973.69-9.34-1.102-8.777-.908.285-2.32.587-3.812.962-.12-.386-.263-.754-.384-.997-.065-.13-.204-1.217-.332-2.273.214-.42.416-.767.542-.892.09-.09.227-.154.314-.245-.004.093.01.185.07.245.165.165.43.237.595.402.866.866 3.595-1.024 3.76-1.19.554-.554-.84-2.237-.98-2.377-.132-.132.132-.655 0-.787-1.18-1.18-.594-3.92-.594-5.927 0-1.717.193-3.162.193-4.564 0-.453.064-.9.14-1.33zm22.47 38.138c-.032-.203-.13-.315-.297-.262-.037.01.104.12.297.262zm2.326 35.9c.794-.52 1.087-.837.26-.578-.234.074-.274.302-.26.577zm-28.294 43.226c.503-.964-3.366.768-2.798 1.696.567.928 1.87-1.13 2.798-1.696zm42.456-90.65c.057-.013.175.035.245.035-.162.028-.28.04-.28 0 0-.024.016-.03.035-.036zM455.595 64.45c.02-.01.035-.01.035 0 0 .018-.03.027-.07.036.013-.008.025-.03.035-.035z" fill="#E6B35A"/></g></svg>