<svg width="256" height="269" viewBox="0 0 256 269" xmlns="http://www.w3.org/2000/svg" preserveAspectRatio="xMinYMin meet"><path d="M219.368 74.566c-3.498-4.94-7.416-9.568-11.702-13.823-4.282-4.252-8.934-8.133-13.898-11.595l-8.536 12.203c-4.22-2.943-8.715-5.53-13.43-7.72l-6.297 13.516c3.927 1.82 7.67 3.97 11.185 6.417 3.545 2.463 6.867 5.222 9.928 8.25l-10.52 10.53-10.53 10.533c1.844 1.806 3.526 3.773 5.03 5.876 1.504 2.094 2.838 4.314 3.965 6.658l26.973-12.59 13.494-6.297 13.487-6.297c-2.603-5.5-5.663-10.738-9.15-15.66zm24.384-17.084c-4.5-6.368-9.534-12.325-15.043-17.802-5.51-5.478-11.485-10.477-17.872-14.935-6.344-4.43-13.088-8.324-20.165-11.62-6.988-3.248-14.3-5.915-21.875-7.932-7.404-1.97-15.06-3.325-22.913-4l-1.295 14.84c6.974.598 13.777 1.8 20.354 3.548l-3.85 14.394c5.885 1.567 11.566 3.636 16.993 6.156 5.508 2.556 10.752 5.58 15.68 9.018 4.965 3.462 9.617 7.343 13.9 11.595 4.285 4.255 8.203 8.882 11.7 13.823 3.487 4.922 6.547 10.16 9.15 15.66l13.485-6.296 13.49-6.296c-3.338-7.077-7.27-13.82-11.74-20.152zM178.087 40.13c-5.427-2.52-11.108-4.59-16.993-6.156-5.753-1.534-11.703-2.578-17.803-3.104-2.98-.257-5.987-.395-9.032-.395-3.042 0-6.06.138-9.036.395-6.096.526-12.045 1.57-17.8 3.104l3.85 14.39c-5.04 1.337-9.91 3.11-14.557 5.267l6.293 13.518c3.875-1.794 7.92-3.274 12.118-4.39 4.104-1.085 8.347-1.823 12.694-2.197 2.122-.184 4.264-.295 6.438-.295 2.17 0 4.313.11 6.44.296 4.346.375 8.585 1.113 12.688 2.198 4.2 1.116 8.248 2.592 12.12 4.388l6.297-13.515c4.714 2.19 9.208 4.777 13.43 7.72l8.535-12.202c-4.93-3.438-10.173-6.462-15.68-9.018zM144.59 16.033l1.295-14.84c-3.833-.33-7.71-.507-11.627-.507-3.917 0-7.792.178-11.625.508-7.854.674-15.51 2.028-22.917 4-7.58 2.016-14.883 4.683-21.872 7.936-7.08 3.295-13.828 7.187-20.17 11.618-6.382 4.46-12.366 9.454-17.87 14.932l10.523 10.532c4.892-4.864 10.208-9.303 15.883-13.264l8.536 12.204c4.933-3.442 10.172-6.465 15.676-9.02 5.427-2.522 11.11-4.59 17-6.158 5.755-1.534 11.704-2.578 17.8-3.104 2.976-.257 5.994-.395 9.036-.395 3.045 0 6.053.138 9.033.395 6.1.526 12.05 1.57 17.804 3.104l3.85-14.393c-6.577-1.747-13.38-2.95-20.354-3.547zm-33.317 32.33l-3.85-14.39c-5.89 1.568-11.574 3.637-17 6.16-5.505 2.554-10.744 5.577-15.677 9.02-4.96 3.457-9.617 7.338-13.9 11.59-4.282 4.257-8.2 8.882-11.702 13.828l12.192 8.542c-2.987 4.215-5.62 8.7-7.85 13.41l13.496 6.298c1.86-3.92 4.068-7.644 6.558-11.153 2.504-3.52 5.295-6.824 8.355-9.855 3.057-3.027 6.383-5.784 9.925-8.25 3.524-2.447 7.26-4.597 11.188-6.414L96.715 53.63c4.647-2.157 9.517-3.93 14.558-5.266zM66.21 36.95c-5.675 3.96-10.99 8.4-15.883 13.264L39.804 39.68C34.3 45.16 29.258 51.117 24.766 57.485c-4.476 6.33-8.407 13.072-11.746 20.152-3.296 6.99-6.006 14.312-8.067 21.905-2.016 7.43-3.413 15.115-4.13 22.995l14.825 1.3c.64-7.005 1.88-13.836 3.682-20.44l14.373 3.857C35.31 101.352 37.43 95.66 40 90.226c2.6-5.5 5.664-10.738 9.144-15.655 3.503-4.945 7.42-9.57 11.703-13.827 4.282-4.252 8.938-8.133 13.9-11.59L66.21 36.947zM39.546 178.43c-2.52-5.482-4.586-11.215-6.138-17.158-1.518-5.803-2.546-11.804-3.04-17.95-.227-2.808-.347-5.645-.347-8.51 0-3.264.16-6.494.456-9.678.56-6.13 1.65-12.106 3.227-17.88l-14.373-3.857c-1.8 6.604-3.043 13.435-3.682 20.44l-14.824-1.3c-.364 4.044-.562 8.136-.562 12.275 0 3.74.16 7.443.455 11.103.652 7.904 1.98 15.61 3.935 23.068 2.007 7.634 4.67 15 7.918 22.038 3.297 7.137 7.197 13.933 11.647 20.33l12.192-8.546c-3.954-5.686-7.422-11.73-10.35-18.08l13.486-6.294zm20.49-37.71c-.153-1.95-.252-3.918-.252-5.908 0-2.39.124-4.75.34-7.08.41-4.378 1.212-8.64 2.348-12.765 1.158-4.206 2.666-8.272 4.51-12.147l-13.495-6.297c2.23-4.712 4.862-9.196 7.85-13.41L49.143 74.57C45.664 79.49 42.6 84.726 40 90.227c-2.57 5.435-4.69 11.126-6.297 17.028-1.576 5.774-2.666 11.75-3.227 17.88-.296 3.184-.455 6.414-.455 9.678 0 2.865.12 5.702.348 8.51.494 6.146 1.522 12.147 3.04 17.95l14.377-3.857c1.325 5.098 3.087 10.018 5.248 14.715l13.503-6.3c-1.792-3.922-3.275-8.02-4.372-12.273-1.077-4.147-1.783-8.44-2.127-12.836zm29.936 88.56c-5.543-2.608-10.824-5.686-15.78-9.192-4.985-3.525-9.645-7.475-13.932-11.798-4.278-4.323-8.187-9.017-11.66-14.03-3.46-4.98-6.495-10.276-9.054-15.83l-13.485 6.294c2.928 6.35 6.396 12.394 10.35 18.08l-12.193 8.545c4.475 6.433 9.495 12.458 15 18.002 5.508 5.55 11.5 10.616 17.905 15.138 6.37 4.497 13.152 8.447 20.268 11.794l6.294-13.5c6.25 2.94 12.8 5.352 19.59 7.177l3.85-14.39c-5.942-1.6-11.678-3.713-17.152-6.29zm12.58-27.008c-3.964-1.87-7.732-4.09-11.277-6.604-3.566-2.527-6.906-5.346-9.967-8.446-3.06-3.096-5.843-6.462-8.324-10.054-2.465-3.568-4.62-7.358-6.448-11.337l-13.503 6.3c-2.16-4.697-3.923-9.617-5.248-14.715l-14.377 3.857c1.552 5.943 3.618 11.676 6.138 17.158 2.56 5.554 5.595 10.85 9.054 15.83 3.473 5.013 7.382 9.707 11.66 14.03 4.287 4.323 8.947 8.273 13.932 11.798l8.53-12.2c4.253 3.01 8.78 5.654 13.538 7.89 4.7 2.214 9.62 4.03 14.72 5.402l3.856-14.4c-4.257-1.148-8.365-2.66-12.283-4.508zm100.308 30.02c-5.663 3.998-11.698 7.514-18.026 10.493-6.254 2.94-12.81 5.35-19.594 7.176l-3.855-14.39c-5.812 1.563-11.823 2.634-17.99 3.172-3.014.265-6.06.404-9.137.404-3.08 0-6.13-.14-9.14-.404-6.167-.538-12.178-1.61-17.995-3.173l-3.85 14.39c-6.79-1.824-13.34-4.236-19.59-7.175l-6.293 13.5c7.035 3.303 14.4 6.014 22.034 8.066 7.464 2.004 15.184 3.38 23.106 4.068 3.867.337 7.776.518 11.728.518 3.953 0 7.863-.18 11.73-.518 7.92-.688 15.637-2.064 23.106-4.067 7.63-2.05 14.994-4.762 22.025-8.066 7.123-3.345 13.905-7.297 20.276-11.794l-8.536-12.2zm29.25-29.488l-12.193-8.543c-3.476 5.013-7.38 9.71-11.66 14.03-4.286 4.323-8.95 8.275-13.932 11.798-4.956 3.506-10.237 6.584-15.783 9.19-5.47 2.58-11.21 4.692-17.157 6.29l3.855 14.393c6.785-1.824 13.34-4.236 19.594-7.175 6.328-2.98 12.363-6.495 18.026-10.494l8.536 12.2c6.403-4.52 12.392-9.588 17.9-15.134 5.505-5.546 10.53-11.573 15-18.007l-12.187-8.546zm-24.38-17.086l-12.196-8.55c-2.486 3.594-5.264 6.96-8.324 10.054-3.07 3.1-6.406 5.92-9.968 8.446l8.543 12.22c-4.252 3.01-8.778 5.654-13.532 7.892l6.29 13.5c5.545-2.608 10.826-5.686 15.782-9.192 4.98-3.523 9.646-7.475 13.93-11.798 4.28-4.32 8.186-9.017 11.662-14.03l-12.187-8.542zm-21.945 22.17l-8.543-12.22c-3.545 2.517-7.317 4.733-11.287 6.604-3.913 1.847-8.016 3.36-12.277 4.507-4.158 1.122-8.462 1.89-12.878 2.273-2.16.19-4.338.304-6.542.304-2.203 0-4.385-.115-6.54-.304-4.416-.384-8.72-1.15-12.882-2.274l-3.855 14.4c-5.1-1.373-10.02-3.188-14.72-5.402-4.757-2.236-9.285-4.88-13.537-7.89l-8.53 12.2c4.955 3.506 10.236 6.584 15.78 9.19 5.473 2.58 11.21 4.692 17.15 6.29 5.817 1.565 11.828 2.636 17.996 3.174 3.008.265 6.057.404 9.138.404 3.078 0 6.123-.14 9.136-.404 6.168-.538 12.18-1.61 17.99-3.173 5.947-1.6 11.687-3.713 17.158-6.29l-6.29-13.5c4.755-2.238 9.28-4.883 13.533-7.893z" fill="#52C1DB"/><path d="M219.368 74.566c-3.498-4.94-7.416-9.568-11.702-13.823-4.282-4.252-8.934-8.133-13.898-11.595l-8.536 12.203c-4.22-2.943-8.715-5.53-13.43-7.72l-6.297 13.516c3.927 1.82 7.67 3.97 11.185 6.417 3.545 2.463 6.867 5.222 9.928 8.25l-10.52 10.53-10.53 10.533c1.844 1.806 3.526 3.773 5.03 5.876 1.504 2.094 2.838 4.314 3.965 6.658l26.973-12.59 13.494-6.297 13.487-6.297c-2.603-5.5-5.663-10.738-9.15-15.66" fill="#52C1DB"/><path d="M243.752 57.482c-4.5-6.368-9.534-12.325-15.043-17.802-5.51-5.478-11.485-10.477-17.872-14.935-6.344-4.43-13.088-8.324-20.165-11.62-6.988-3.248-14.3-5.915-21.875-7.932-7.404-1.97-15.06-3.325-22.913-4l-1.295 14.84c6.974.598 13.777 1.8 20.354 3.548l-3.85 14.394c5.885 1.567 11.566 3.636 16.993 6.156 5.508 2.556 10.752 5.58 15.68 9.018 4.965 3.462 9.617 7.343 13.9 11.595 4.285 4.255 8.203 8.882 11.7 13.823 3.487 4.922 6.547 10.16 9.15 15.66l13.485-6.296 13.49-6.296c-3.338-7.077-7.27-13.82-11.74-20.152" fill="#3B528A"/><path d="M178.087 40.13c-5.427-2.52-11.108-4.59-16.993-6.156-5.753-1.534-11.703-2.578-17.803-3.104-2.98-.257-5.987-.395-9.032-.395-3.042 0-6.06.138-9.036.395-6.096.526-12.045 1.57-17.8 3.104l3.85 14.39c-5.04 1.337-9.91 3.11-14.557 5.267l6.293 13.518c3.875-1.794 7.92-3.274 12.118-4.39 4.104-1.085 8.347-1.823 12.694-2.197 2.122-.184 4.264-.295 6.438-.295 2.17 0 4.313.11 6.44.296 4.346.375 8.585 1.113 12.688 2.198 4.2 1.116 8.248 2.592 12.12 4.388l6.297-13.515c4.714 2.19 9.208 4.777 13.43 7.72l8.535-12.202c-4.93-3.438-10.173-6.462-15.68-9.018" fill="#00AEE8"/><path d="M144.59 16.033l1.295-14.84c-3.833-.33-7.71-.507-11.627-.507-3.917 0-7.792.178-11.625.508-7.854.674-15.51 2.028-22.917 4-7.58 2.016-14.883 4.683-21.872 7.936-7.08 3.295-13.828 7.187-20.17 11.618-6.382 4.46-12.366 9.454-17.87 14.932l10.523 10.532c4.892-4.864 10.208-9.303 15.883-13.264l8.536 12.204c4.933-3.442 10.172-6.465 15.676-9.02 5.427-2.522 11.11-4.59 17-6.158 5.755-1.534 11.704-2.578 17.8-3.104 2.976-.257 5.994-.395 9.036-.395 3.045 0 6.053.138 9.033.395 6.1.526 12.05 1.57 17.804 3.104l3.85-14.393c-6.577-1.747-13.38-2.95-20.354-3.547" fill="#3F8ABD"/><path d="M111.273 48.364l-3.85-14.39c-5.89 1.567-11.574 3.636-17 6.158-5.505 2.555-10.744 5.578-15.677 9.02-4.96 3.458-9.617 7.34-13.9 11.59-4.282 4.258-8.2 8.883-11.702 13.83l12.192 8.54c-2.987 4.215-5.62 8.7-7.85 13.41l13.496 6.298c1.86-3.92 4.068-7.644 6.558-11.153 2.504-3.52 5.295-6.824 8.355-9.855 3.057-3.027 6.383-5.784 9.925-8.25 3.524-2.447 7.26-4.597 11.188-6.414L96.715 53.63c4.647-2.157 9.517-3.93 14.558-5.266" fill="#52C1DB"/><path d="M66.21 36.948c-5.675 3.96-10.99 8.4-15.883 13.264L39.804 39.68C34.3 45.16 29.258 51.117 24.766 57.485c-4.476 6.33-8.407 13.072-11.746 20.152-3.296 6.99-6.006 14.312-8.067 21.905-2.016 7.43-3.413 15.115-4.13 22.995l14.825 1.3c.64-7.005 1.88-13.836 3.682-20.44l14.373 3.857C35.31 101.352 37.43 95.66 40 90.226c2.6-5.5 5.664-10.738 9.144-15.655 3.503-4.945 7.42-9.57 11.703-13.827 4.282-4.252 8.938-8.133 13.9-11.59L66.21 36.947" fill="#00AEE8"/><path d="M39.546 178.43c-2.52-5.482-4.586-11.215-6.138-17.158-1.518-5.803-2.546-11.804-3.04-17.95-.227-2.808-.347-5.645-.347-8.51 0-3.264.16-6.494.456-9.678.56-6.13 1.65-12.106 3.227-17.88l-14.373-3.857c-1.8 6.604-3.043 13.435-3.682 20.44l-14.824-1.3c-.364 4.044-.562 8.136-.562 12.275 0 3.74.16 7.443.455 11.103.652 7.904 1.98 15.61 3.935 23.068 2.007 7.634 4.67 15 7.918 22.038 3.297 7.137 7.197 13.933 11.647 20.33l12.192-8.546c-3.954-5.686-7.422-11.73-10.35-18.08l13.486-6.294" fill="#3F8ABD"/><path d="M60.037 140.72c-.154-1.95-.253-3.918-.253-5.908 0-2.39.124-4.75.34-7.08.41-4.378 1.212-8.64 2.348-12.765 1.158-4.206 2.666-8.272 4.51-12.147l-13.495-6.297c2.23-4.712 4.862-9.196 7.85-13.41L49.143 74.57C45.664 79.49 42.6 84.726 40 90.227c-2.57 5.435-4.69 11.126-6.297 17.028-1.576 5.774-2.666 11.75-3.227 17.88-.296 3.184-.455 6.414-.455 9.678 0 2.865.12 5.702.348 8.51.494 6.146 1.522 12.147 3.04 17.95l14.377-3.857c1.325 5.098 3.087 10.018 5.248 14.715l13.503-6.3c-1.792-3.922-3.275-8.02-4.372-12.273-1.077-4.147-1.783-8.44-2.127-12.836" fill="#3B528A"/><path d="M89.972 229.28c-5.543-2.608-10.824-5.686-15.78-9.192-4.985-3.525-9.645-7.475-13.932-11.798-4.278-4.323-8.187-9.017-11.66-14.03-3.46-4.98-6.495-10.276-9.054-15.83l-13.485 6.294c2.928 6.35 6.396 12.394 10.35 18.08l-12.193 8.545c4.475 6.433 9.495 12.458 15 18.002 5.508 5.55 11.5 10.616 17.905 15.138 6.37 4.497 13.152 8.447 20.268 11.794l6.294-13.5c6.25 2.94 12.8 5.352 19.59 7.177l3.85-14.39c-5.942-1.6-11.678-3.713-17.152-6.29" fill="#52C1DB"/><path d="M102.553 202.272c-3.965-1.87-7.733-4.09-11.278-6.604-3.566-2.527-6.906-5.346-9.967-8.446-3.06-3.096-5.843-6.462-8.324-10.054-2.465-3.568-4.62-7.358-6.448-11.337l-13.503 6.3c-2.16-4.697-3.923-9.617-5.248-14.715l-14.377 3.857c1.552 5.943 3.618 11.676 6.138 17.158 2.56 5.554 5.595 10.85 9.054 15.83 3.473 5.013 7.382 9.707 11.66 14.03 4.287 4.323 8.947 8.273 13.932 11.798l8.53-12.2c4.253 3.01 8.78 5.654 13.538 7.89 4.7 2.214 9.62 4.03 14.72 5.402l3.856-14.4c-4.257-1.148-8.365-2.66-12.283-4.508" fill="#00AEE8"/><path d="M202.86 232.29c-5.663 4-11.698 7.516-18.026 10.495-6.254 2.94-12.81 5.35-19.594 7.176l-3.855-14.39c-5.812 1.563-11.823 2.634-17.99 3.172-3.014.265-6.06.404-9.137.404-3.08 0-6.13-.14-9.14-.404-6.167-.538-12.178-1.61-17.995-3.173l-3.85 14.39c-6.79-1.824-13.34-4.236-19.59-7.175l-6.293 13.5c7.035 3.303 14.4 6.014 22.034 8.066 7.464 2.004 15.184 3.38 23.106 4.068 3.867.337 7.776.518 11.728.518 3.953 0 7.863-.18 11.73-.518 7.92-.688 15.637-2.064 23.106-4.067 7.63-2.05 14.994-4.762 22.025-8.066 7.123-3.345 13.905-7.297 20.276-11.794l-8.536-12.2" fill="#3B528A"/><path d="M232.11 202.804l-12.193-8.543c-3.476 5.013-7.38 9.71-11.66 14.03-4.286 4.323-8.95 8.275-13.932 11.798-4.956 3.506-10.237 6.584-15.783 9.19-5.47 2.58-11.21 4.692-17.157 6.29l3.855 14.393c6.785-1.824 13.34-4.236 19.594-7.175 6.328-2.98 12.363-6.495 18.026-10.494l8.536 12.2c6.403-4.52 12.392-9.588 17.9-15.134 5.505-5.546 10.53-11.573 15-18.007l-12.187-8.546" fill="#00AEE8"/><path d="M207.73 185.718l-12.196-8.55c-2.486 3.594-5.264 6.96-8.324 10.054-3.07 3.1-6.406 5.92-9.968 8.446l8.543 12.22c-4.252 3.01-8.778 5.654-13.532 7.892l6.29 13.5c5.545-2.608 10.826-5.686 15.782-9.192 4.98-3.523 9.646-7.475 13.93-11.798 4.28-4.32 8.186-9.017 11.662-14.03l-12.187-8.542" fill="#52C1DB"/><path d="M185.785 207.887l-8.543-12.22c-3.545 2.518-7.317 4.734-11.287 6.605-3.913 1.847-8.016 3.36-12.277 4.507-4.158 1.122-8.462 1.89-12.878 2.273-2.16.19-4.338.304-6.542.304-2.203 0-4.385-.115-6.54-.304-4.416-.384-8.72-1.15-12.882-2.274l-3.855 14.4c-5.1-1.373-10.02-3.188-14.72-5.402-4.757-2.236-9.285-4.88-13.537-7.89l-8.53 12.2c4.955 3.506 10.236 6.584 15.78 9.19 5.473 2.58 11.21 4.692 17.15 6.29 5.817 1.565 11.828 2.636 17.996 3.174 3.008.265 6.057.404 9.138.404 3.078 0 6.123-.14 9.136-.404 6.168-.538 12.18-1.61 17.99-3.173 5.947-1.6 11.687-3.713 17.158-6.29l-6.29-13.5c4.755-2.238 9.28-4.883 13.533-7.893" fill="#3F8ABD"/></svg>