<svg width="256" height="296" viewBox="0 0 256 296" xmlns="http://www.w3.org/2000/svg" preserveAspectRatio="xMinYMin meet"><defs><linearGradient x1="50%" y1="45.227%" x2="50%" y2="100%" id="a"><stop stop-color="#F7F6F3" offset="0%"/><stop stop-color="#FEF6D5" offset="100%"/></linearGradient></defs><path d="M11.07 215.71l116.927 67.51 116.932-67.51V80.697L127.996 13.19 11.07 80.695V215.71zM127.998 296L0 222.1V74.306L127.997.404 256 74.306V222.1L127.997 296z" fill="#A1070C"/><path d="M9.58 79.833L128 11.463l118.42 68.37v136.74L128 284.944 9.58 216.574V79.834" fill="url(#a)"/><path d="M182.332 98.173c0 5.372-1.06 10.708-3.18 16.008-2.12 5.302-4.965 10.214-8.534 14.737-3.57 4.524-7.686 8.482-12.35 11.874-4.666 3.394-9.507 5.832-14.525 7.316l-2.226-3.71c2.968-1.485 5.69-3.393 8.163-5.725 2.474-2.332 4.594-4.964 6.36-7.897 1.768-2.933 3.128-6.043 4.082-9.33.954-3.286 1.43-6.625 1.43-10.018 0-3.887-.564-7.562-1.695-11.025-1.13-3.464-2.79-6.485-4.982-9.065-2.19-2.58-4.895-4.61-8.11-6.095-3.216-1.485-6.91-2.227-11.08-2.227-5.088 0-9.752.99-13.993 2.97-4.24 1.978-8.057 4.646-11.45 8.003-3.392 3.357-6.343 7.21-8.852 11.555-2.51 4.348-4.594 8.906-6.254 13.677-1.66 4.77-2.916 9.594-3.764 14.47-.848 4.878-1.272 9.472-1.272 13.783 0 4.382.46 8.905 1.378 13.57.92 4.664 2.262 9.258 4.03 13.782 1.766 4.523 3.956 8.8 6.572 12.827 2.615 4.028 5.636 7.562 9.064 10.6 3.428 3.04 7.244 5.46 11.45 7.263 4.205 1.802 8.78 2.703 13.728 2.703 3.393 0 6.697-.46 9.912-1.378 3.216-.92 6.308-2.156 9.277-3.71 2.97-1.555 5.778-3.393 8.43-5.513 2.65-2.12 5.105-4.418 7.367-6.89l3.498 3.39c-3.11 4.1-6.802 8.04-11.078 11.822-4.276 3.78-8.888 7.138-13.835 10.07-4.947 2.934-10.124 5.266-15.53 6.998-5.408 1.732-10.762 2.597-16.062 2.597-5.16 0-10.02-.9-14.577-2.703-4.56-1.803-8.746-4.242-12.563-7.316-3.816-3.074-7.227-6.68-10.23-10.813-3.004-4.134-5.548-8.534-7.633-13.198-2.085-4.665-3.675-9.47-4.77-14.418-1.096-4.947-1.644-9.79-1.644-14.524 0-6.856 1.148-13.906 3.445-21.15 2.297-7.244 5.46-14.276 9.49-21.097 4.027-6.82 8.78-13.27 14.257-19.347 5.478-6.078 11.38-11.38 17.705-15.902 6.325-4.524 12.934-8.11 19.824-10.76 6.89-2.65 13.765-3.976 20.62-3.976 4.24 0 8.2.618 11.874 1.855 3.675 1.237 6.855 3.02 9.54 5.354 2.687 2.332 4.807 5.23 6.362 8.693 1.555 3.463 2.332 7.42 2.332 11.873z" fill="#A1070C"/></svg>