<svg width="256" height="118" viewBox="0 0 256 118" xmlns="http://www.w3.org/2000/svg" preserveAspectRatio="xMinYMin meet"><path d="M17.153 92.9l-4.37-2.907-1.817-2.623-4.576-6.314-.67-1.987-1.275-2.977-2.49-8.225-.874-4.683-.265-1.914-.538-1.7v-2.488L0 55.172V44.466l1.548-12.058.806-1.7.404-3.12L4.17 24.11l.54-2.197 1.277-2.77 1.077-1.915 1.546-3.26 2.894-3.62.737-1.066 2.623-2.765 1.546-1.065 3.158-2.62 2.35-.713L25.82.772h3.63L31.683 0l2.49 1.064 3.63.497 2.624 1.136 1.142.424.94.922v2.482l-1.48 3.122-.47 2.34-1.213 2.55-.272 1.846-1.008 1.417-.743 1.137h-.804l-3.496-1.846-3.23-.42-2.42.85-1.48.426-1.01 1.702-1.884.71-.806 2.2-1.55 1.062-.402 2.553-1.548 1.628-1.48 6.242-1.075 3.262-.272 3.615-.2.777-.54 7.158v9.64l.743 3.262.268 2.483.266.85 1.075 3.83 1.612 3.47 4.173 5.53 2.15 1.066 3.63.425 6.39-3.332h1.43l2.016 3.543 1.01 2.91 1.75 2.55.335 1.135.875 2.268-.47 1.06-1.212.784-2.42 2.268-2.356 1.275-3.43.71-2.222 1.133-2.355-.497-2.018.568-3.968-.71-5.25-2.198.003.025zm12.85 1.56l1.815-.78 3.7-.568 2.623-1.562 2.287-1.99 1.01-.85v-.85L40.42 85.66l-.27-.783-1.48-2.49-.943-2.698-1.414-2.406-2.018.497-1.213 1.27.538.562h1.274l1.68 1.347 1.008 2.125 1.21.85.265.92-.47.57-.81-.57-.266-.567-1.08-.783.337-.57-.536.288-1.547-.86v-1.347l-.737.36-.61-.64h-.265V79.6h-1.813l-1.546.568h-3.9l-1.81-.624-1.95-1.347-3.297-4.608-1.818-3.83-1.547-4.685-.537-1.42v-2.41l-.476-1.562-.338-2.908-.272-1.07v-6.563l.543-1.63v-5.815l.804-2.48v-2.414l.752-2.48.27-1.137.81-2.48 1.01-3.76 1.274-1.417.404-2.484 1.613-1.132L22.13 20h-1.01l-.81.43.54.92-.273.283H19.57l-.34 1.064-3.095-2.41-1.008-1.133-4.71-3.83.537-.568-.405-.706 2.22-.497 2.423 2.058h.68v-.424l-2.556-1.843v-1.28l1.01-1.13h.536l1.01 1.41 1.883 1.916 4.777 3.404-.404 1.277v.636l1.88-.924.674-.783-1.746-.923-1.812-1.915-1.275-1.065-.803-.85-1.27-.778-1.075-.85-1.546-1.137.27-.214V9.57l.272-.567-.266-.568h1.75l2.152 1.915.742.568 1.347 1.13 1.546 1.064.74.78 2.423 1.418.404.425-1.884 1.347 2.827-.497 1.68-1.418-2.556-.426-.737-.78-1.613-1.42-2.826-2.974-.405-.783-.942-.355-.74-.778-.54.28h-.403l.404-.848-1.007-1.065-3.63 2.34-1.618 2.555-2.627 3.047-4.465 9.078-.2 1.063-.804 2.483-.27 1.418-.672 1.42-.338 1.843-.538 2.202-.274 2.196-.672 2.762-.406 5.752-.47 1.632.265 1.702v7.66l.606 2.125 1.683 1.49.804.21.538.57 2.084 1.91 1.007 1.132 1.075.568 2.35 1.915.472.282.266.286 2.62 2.197.4 1.203 1.68 1.772v1.208l-1.48-.568-.338-.64-1.08-.57v-1.064h-.737v-.285l-1.546-.57-2.894-2.978h-.272v-.282h-.788L6.25 63.667l-.808-.215-.205-.287-1.618-1.137h-.333l-.67-1.06-.54-.563-.536-1.633.267-.287-.266-.28-.404.85 1.075 3.398.677.707v.28h-.532v.21l1.48.355.336.778 1.078.563 1.01 1.065 1.814 1.133.537.496.54.28 1.545 1.42 2.826 1.99 1.21 1.91 5.852 4.895 1.812 1.915 1.613.563.2.215 1.075.287 1.208.635-.604.635 4.1 3.405.605-.635.944.635.537.28v.57l-1.08-.573h-.27l1.078 1.136h1.277l4.507 3.548H36.25l-.268.283-1.076.568h-.737l-1.817-1.985V89.6l-1.075-.358-1.01-1.137-.808-.492-1.076-1.136h-.47l-.538-.563-.804-.284-.874-.924-1.95-1.275-1.076-1.064-1.01-.563-1.207-1.203-1.142-.425-1.34-.922-1.614-2.268-1.215-.635-.266-.282-.538-.286-.543-.57h-.2l-.805-.772-.81-.287-1.273-1.418-.81-.496v-.56l.543-.568-.604-.357-.94.354-1.547-1.06-.266-.286-.81-.568-1.546-1.632-.808-.282-.537-.567v-1.918l-.737-.85v2.203l.936 3.047 3.497 2.765 2.556 1.35.604 1.276.74.353 4.906 4.405.81.85 1.28.85 1.612 1.346 4.44 3.554.203.282 2.085 1.628.538.568 2.62 1.918 1.548 1.414.81.497v.57l-.538.283-.876.64-1.21-.635-2.354-2.483-1.34-.707-1.752-1.485-1.075-.568v-.773l-.538.28-1.818-1.135-1.278-1.065-2.356-1.7-2.894-2.975-1.546-1.136-.272-.49-2.217-1.204-1.145-1.85h-.47L6.266 74.19h-.47l-.34-1.42-.74-.782.27-.282-1.346-1.77v.495l1.077 2.91 1.075 3.47 1.278 1.772v-1.13h.47l4.71 3.613 1.816 1.915 1.613 1.07.2.282 2.62 1.915 1.813 1.633 6.59 5.177-1.348.424-1.346-.352h-.738v-.287h-.534l-1.616-.43-.47-.92-1.008-.57-2.356-1.913v-.855h-.807l-.808-.498-.468-1.136h-.27l-1.008-.712-.538-1.208-.676.71-.942-.995-1.01-.85-.27-.206-.81-.43-.736-1.276-1.08-1.064-.272-.855-.27-.28v1.136l.403 1.13 1.48 1.845 2.084 3.195 2.282 1.562.272-.568 1.075 1.064.536.28 2.827 1.988v.712l-1.014-.78-1.82-.92v.353l.744.845 3.16 1.633 4.637 1.628h5.792l.02.008zM13.318 63.967l-.27-.283h-1.144l-4.372-3.547L6.524 59l-1.076-.497-.737-.85-2.42-1.842-.605-1.206.404-.783.27-.85.538.283h.942L5.454 54.6v.286h-.2v.845H6.26l.54-.28-.406.777 4.576 3.897 1.007 1.13 1.074.498.27.568 1.01 1.137-.673.28.677 1.066-.267.282-1.075-.783.333-.354-.01.018zm-1.347-11.56l-.605.355-.942-.353-.538-.497-1.546-1.133-.27-.568-1.21-.57.47-.496v-.284l-.604.284-1.275-.85h-.2V47.23h1.01l.27.567h.272l1.01.71v-1L5.53 46.306l-.266.635h-.27l-.268.28h-.758l-.807-1.417-.538-.215v-.563l-.67-1.065.742-1.562 4.106 3.19.537.497L10.7 48.85l1.82 1.914-1.48.282.94.568 1.077 1.065v.568l-.267.287-.27.565-.54-.565V52.4l-.007.007zm-.47 5.532l-.537-.284-1.817-1.346-.54-.284v-.85l-.402.43-2.96-2.34L2.63 50.5v-.785l.675-.353-.942-1.065 1.214-.354L8.89 52.41l.27.285 2.355 1.843v.357L9.63 53.758v.64l2.894 2.413v2.197l-1.01-1.064-.01-.005zm-1.077-10.424l-.807-.852-.74-.28v-.287L7.803 45.6 4.44 42.83 2.622 40.92l.27-.287.266-.566.33-.353-.47-.995h.876l.81.78 1.007.57 3.43 2.764.738.568.54.497 2.354 1.983v1.066l-.27.85v1.63l-1.548-1.63-.542-.28.012-.006zm-5.18-1.276v-.782l-2.354-1.49.672 1.42 1.685.852h-.003zm3.903-4.256l-3.163-2.765-1.01-1.065-1.613-.848v-.783H3.9l.27.284h.674l1.413 1.065 1.546 1.133 2.29 1.916h.604v-.64l-2.624-1.845L4.71 34.82h.27l2.823 2.198.807.285v-.427l-3.902-3.19V31.84l6.797 5.18h.74v-.568l-2.356-1.845-3.364-3.333-.74-.353-.337-.994-.673-.783 1.077-.354-.606-1.347h.47l1.077.778 2.287 1.49 2.623 2.412 2.626 2.125v2.268l-.736.78-.81.28.267.563.273.85.27.497v1.13l-.265.283-.538 1.065-.338.353.876 1.275-.538 1.133-2.084-1.137-1.546-1.633-.01.03zm-4.98 8.51v-.496h-.537l.537.492v.003zm.27-9.573h.27v-.57h-.54l.27.57zm1.278.78h.27v-.285h-.54l.27.284zm4.978-12.057l-.81-.568-.265-.283-3.63-2.552v-.712l1.08-.357v-.778l-.265-.566h1.01l.808.85 1.213.64.604 1.275h.543l1.546 1.136.27.284 2.627 2.057v.638l-.81.855v1.562l-1.55-.993-2.35-2.48-.02-.007zm-3.9 12.905h.27v-.282H6.53l.27.282h-.005zm7.535-14.536l-1.28-1.134h-.537V25.53l-.67.354-1.147-1.206v-.568h-.81l-.737-.778-.27-1.136-.942.64-.404-1.425.806-.85h.27v-1.058l6.93 5.6 1.412 1.49-.27.57.403.85-.94.49v.57l-.27.28-.335-.783-1.21-.57v.012zM8.613 44.18h.403l-.672-1.063h-.806v.708l1.075.356zm8.073-18.933l-.538-.57-3.9-2.763-1.548-1.632-.272-.568-1.075-.354-.47-.993 1.003-.568v-1.063l-.27-.568h.803l1.545 1.628 1.347.852 3.632 2.978 2.218 2.34-1.546 1.704-.405-.425h-.536.01zM9.62 28.224l.538-.213h.268v-.286l-.537-.28-.472.562.202.21v.008zm1.077 22.554l.537-.287-1.612-1.204v.78l1.076.71v.002zm-.808-5.18h.27v-.284l-.268.285H9.89zm1.615.782v-.57h-.81l-.27.284h.54l.538.286h.002zm.2-4.682h.27l-.47-.497h-.81l1.01.498zm.27-1.347h.27v-.28h-.27v.286-.005zm.27-4.392h.267l-.268-.28v.285-.005zm.267 19.502v.282l-.268-.282h.268zm.27 3.543h.267l.54.574v.28h-.27l-.538-.562V59.003zm23.206-41.487h.807l.674-.71 2.02-5.248.406-1.986 1.55-3.332V5.105L38.893 3.26 34.72 2.126l-2.556-.85-.875.567h-4.174l-2.62.565L19.85 4.04 18.24 5.742v.212h1.818L22.21 7.09l5.438 4.68 1.816 1.35 2.086 2.198-.27.283 2.826.567 1.884 1.347-.002.002zm-16.413 1.42h.27l-.27-.288v.287zM34.44 15.6l-1.614-1.347.538-.287v-.285h-.538l-.336.43-2.555-2.692-.742.353-.806-.85-.2-.777h-.81L25.294 8.3l.81-.353-1.08-.354V5.745l-1.008-.563H21.93l1.01-.574v-.922l1.075.354.203.568h1.075v.852h.81l2.284 1.915.807.566 1.275 1.347 3.496 2.55.942.993.404.85h.804l.748 1.567-1.144 1.204-.268-.28-1.01-.57zM22.4 91.2h.538l-.538-.282v.283-.002zm2.893-84.39h.537v-.567l-.537.568zm1.547 75.88l.266.283h-.266l-.27-.283h.27zM30.27 7.09l-.268-.282.27-.285-1.348-.28v-.288l.944-.49-.675-.283-.537-.563-.337.777-1.48-1.06v-.292l1.075.568.27-.285.472-.284-.266-.496-.67.353-.87-1.207h1.817l3.43 2.764.272.492h.47v.71l-1.275-.71h-.542v.286l1.213 1.346.338-.778.27.282-.47.85h-1.756l-.336-.85-.012.005zm6.996 82.476l-1.546-1.7-1.28-.63-1.883-2.346v-1.418l-.47-.492-.54-.28-.538-.564v1.14h-1.007l-1.55-1.632 1.617-1.06 2.017 1.557.74.57.537.572.54.205.537.574 1.952 1.42h.6l.875 1.842 1.746.855v.85l-1.546.85v-.707l-.81.425.01-.03zm-1.68-77.51l-.406-.852 1.08-.354v-.993h-.537v.78h-.405l-.404-.78h-1.276V8.724l-.27-.285-.268.287h-1.28l.27-.282h.47l.47-.916 1.414.497-.27-.64h.538l1.01 1.065v.992l.806-.425 1.277 1.136v.216h-.266v.285h1.343v1.12l-.807.78h-.808l-.47-.496h-1.21l-.002-.004zm1.95-4.397h-.27l-.27.28h-.742l-.537-1.136-1.21-.635-.54-1.066-.61.353v-.563l-1.01-1.142h-.27v-.49l.337-.36-.47-.993 2.953 1.064 1.624 1.634.472.85.54.284.266.212 1.482.64.402 1.705-.47.987h-.874l-.804-.855v-.778l.002.005zm-3.633-.57h-.54v-.286l.54.282v.005zm-.54 77.512l.27-.286v-.282l-.27.282v.286zM37.538 4.04V3.75h1.345l.742.856.268.566.674.994-1.482-.71L37.54 4.04h-.003z" fill="#ED8A8A"/><path d="M50.787 95.524l-1.01-1.063v-4.68l-.402-1.773.47-2.058-.403-4.19.538-4.966-.605-2.41.402-2.136-.402-4.183.605-4.68-.605-2.626.402-1.916-.335-4.398.538-4.895-.605-2.34.402-2.195-.402-4.184.605-4.683-.605-2.412.402-2.125-.335-4.326.538-4.966-.605-2.345.402-2.197-.402-4.183.605-4.68-.605-2.483.402-2.2V1.56l.74-.853L62.56.283l1.614.85.47 1.49v4.68l.27 1.703-.27 1.346v10.43l.27 1.986-.27 1.28v10.495l.27 1.772-.54 2.2.606 2.346h17.086l.337-10-.337-1.417.337-12.058-.337-1.7.337-11.842L82 1.93l.606-.64.804-.28L85.094.29 95.52.717l1.21.855.472 1.347v90.7l-.61 1.915h-2.756l-6.66.28-3.835-.286-1.008-1.06V85.1l-.27-1.275.336-12.052-.336-1.7.338-12.698-.538-.563h-17.22v4.89l.268 1.705-.267 1.346v10.424l.27 1.987-.267 1.347v10.425l.27 1.843-.265 1.208-.332 3.195-2.284.64h-4.178l-1.816-.28h-5.255l.002-.016zm6.728-.637l.873-.426-1.345-.282-.202-.282h-1.076l-.805-.287h-1.01v-.845h-.804l-.737-.354V90.57l.475-.28-.737-1.066v-.564h.47l2.156 1.915.47.287 1.48 1.137-.403.783.876-.43 2.29 2.13h3.63l.403-.497-.543-2.13 1.008-1.556-.4-1.915v-7.665l-.67-2.196 1.075-1.91-.4-1.914v-7.444l-.537-2.412.87-1.915-.332-1.7v-5.53h7.87l4.173-.28 7.2.286.603 2.76v10.425l-.404 1.28.404 2.053v10.138l-.404 1.28.404 2.058v7.94l.405.856h10.025l1.547.215.537-.215v-1.7l.47-2.406-.604-2.622.405-1.274v-5.182L95.89 79.6l.47-2.477-.47-3.047.338-1.352v-4.89l-.272-1.842.405-2.7-.472-2.976.338-1.28v-4.68l-.338-1.77.537-2.91-.61-2.482.406-1.63V40.6l-.27-1.774.404-2.764-.47-2.903.332-1.348v-4.966l-.333-1.634.47-2.55-.47-2.98.338-1.346V13.37l-.337-1.777.537-2.765-.537-2.62.338-1.348V2.915L95.89 1.85l-7.532-.353-4.915.566-.337.353.338 1.56v10.497l-.47.922.47 2.342v10.21l-.403 1.203.404 2.057v10.21l-.403.424-8.07.426-1.955-.353h-9.165l-.266-2.197-.537-2.053.876-1.915-.334-1.77v-7.732l-.538-2.06.87-1.908-.337-2.053v-7.957l-.742-1.56-.27 1.56h-.54l-3.9-3.05-2.09-1.914L51.872 3.9v-.425h.54l.27.282.205-.85h1.34l2.09 1.06 2.084 1.7.737.497 3.16 2.478V9.78l.536.562 1.142-1.7-.4-1.915-.27-4.68-.538-.568-2.827.28h-8.61l-.54.57v2.41l1.076.354 1.28 1.065.803.563 1.546 1.413 2.887 2.196.267.215 2.826 2.478.27 1.137.943.922-.472.496.333 1.06-.67.353-1.817-1.418-.405-.85-1.28-.712v-.425l-1.075-.358v-.497h-.47l-.267-.215-.538-.286-3.63-3.052-1.413-2.908.333-.64-.338-.353-.666 1.35.676 2.837h.606l.538.568.537.282.2.21 3.432 2.765 1.008 1.13 1.21.57 2.69 2.416.537.287.47.993-1.95-1.418.472.993 1.273.993v.924l.272.566v1.065h-.538L60.2 20.18l.405-.855-1.343.425-.873-.92-1.48-1.204-.333-.712-1.21-.425-1.14-1.276-.538-.287v-.768l.27-.282h-.537l-.272.28h-.403l-.338-.85-.267-.285-.272-.497-.803-.85-.277 1.636v3.328l.402 1.203-.81 2.627.405 1.912v10.232l-.404 1.347.404 2.2v10.143l-.404 1.418.404 1.913v10.142l-.404 1.347.672 3.615.27.28-.536.565v7.946l-.406 1.346.405 2.197.265 1.982 1.075.497-.268.567-.807-.568-.27 1.914V87l-.406 1.345.404 2.197.27 3.333.536.568h.538l-.81-.855h.943l.405.85h2.29l2.554.425.005.024zm-4.64-60.634v-.284l-1.01-.57.268-.565-.67-.995.4-.353v-.284l.27-.282 1.01 1.134 1.076.57.538.777v.286l-.81-.426v.426l1.012.71.335-.924 1.01 1.065v.284h.265v1.63h-1.08l-1.01-.57-1.61-1.633.004.006zm6.792 54.675l-7.13-6.03-.405-.846-.67-.996.74-.71.872.427-.4-.925h.206l2.09 1.634.808.57.81.846h-.268l-1.345-.847v.424l1.884 1.42v-.71h.2l.27.28 1.346.783.338.78-1.275-.71 1.007 1.563h.804l-.403-.784h.27l1.076.784.538.848h.477l1.347 1.352v.568l-.267.282-.266.85.54.783v.783l-1.614-1.274L59.7 88.94l-.033-.012zm-3.362-27.73l-.808-.564L54.22 59.5l-1.077-.503-1.547-1.705v-.496h.673l-.74-2.484h.74l2.488 2.197 2.287 1.914 1.884 1.633.47.282 1.075 1.13v.497l-.807-.287-1.413-1.49-1.95-1.208-1.08-1.137h-.472v.57l.737.562 2.826 2.626-1.08.57-.942-.995.01.02zm2.825-36.873l-1.01-1.065-1.546-.85-.27-.284-1.076-.782-.268-.28-.74-.568-2.49-2.622.47-.496-.604-.993V14.47l4.71 3.83 1.008 1.346h-.47l-1.615-1.633h-.472l.2.568 6.05 5.177 1.276 1.137-.537.568.266.57v.495h-.538l-1.28-1.346-1.075-.85.01-.005zm-7.534-4.113v-.427l1.278.712v.566l-.2.28-.273-.564-.804-.568zm7.804 9.43v-.353l.67-.713-.94-.92h-.742l1.01 1.066-.34.348-1.213-.64-.537-.496-.743-.568-1.48-1.49-1.146-.425-2.357-2.482v-.778l1.275.993V21.84l1.076.57 1.546 1.628 2.084 1.7 1.075 1.065.736.425 2.622 2.273v.354l-.605.287.605 1.347h-.538l-1.01-1.064-1.074-.784.024.003zm11.57 24.892l-1.143-.78-1.01-.562-.538-.568-1.548-.778-1.345-1.42-2.56-1.627-1.818-1.916-.81-1.065-1.55-.85-1.347-1.347-1.076-.425-1.008-1.557-1.553-1.627-1.413-.706-.676-1.49v-.568h.538l.266.285h.476l-.476-.496v-.856l1.28 1.065 1.546 1.135 4.977 4.112 1.813 1.346 2.083 1.987.805.5 2.355 1.916 2.555 1.987.267.215 1.08.85 1.812 1.633.743.57 1.075 1.136-1.55.497h1.018l-3.297-.57.027-.03zm-11.57.07l-4.776-3.685-3.027-3.19v-.85h1.278l1.618.854.338.707.676.36.272.286.543.287.272.286v-.927l-1.818-1.42v-.418h.205v-.282l-2.69-2.836-.403-1.275.27-.85h.54l1.545 1.418.537.282 3.092 2.196 1.413.712.676 1.49 1.28 1.346.538.287.267.287 4.976 4.11 1.015.57-.27.28h-3.1l-.818-.86-.737-.562-3.026-2.622-.405.43-1.01.707 4.24 3.62-.405.425.338 1.065-.266.215-2.35-1.63-.804-.782-.023-.03zm.806 17.588l-.47-.494-.472.988h-.335l-1.078-.706v-.64l.538-.566-.538-.497h-.538l-.27.78-1.01-.565V69.14l-.94-.712.405.988-.34.354-.67-.36-.27-.562-1.212-.64.404-.425h-.737l-.538-.563v-.855L51.6 65.3l.942-.64 1.68 1.198 1.008 1.065 4.44 3.548.542.283 1.008.85.942.635.405 1.28v.563l-.804-.85-1.546-1.064-.01.026zm-8.342-.284l.27-.283v-.568l-.538-.565v-.215h1.077l.47.497 1.077.567v.852h1.076l1.75 1.347v.283h-.47l-.338 1.066h-.743l-1.95-1.21-1.685-1.772h.004zm2.355 17.304l-.27-.565h-.4l-.404-.783-.742-.425V85.66l-.538-.287-.266-.568.61-.64 3.834 2.837.543.568 1.008.49.267.283 1.55 1.132 1.348 1.346 1.817 1.275V93.3l-.266.288-.265.568-.81-.28H60.5l-1.356-.703-4.91-3.973-.013.012zm5.987-20.353h-.804l-1.546-1.63v-.567l-1.01-.282-.265-.495-1.142-.425-.47-.988h-1.21l-.876-1.347-.67-.353-.34-.78.27-.28.266-.778-.737-1.137h1.344l3.026 2.765 5.72 4.685v.85l-.272.21v.85l.805.856.266.78-.265.284L60.61 69.8l-.404-.922v-.02zm-.267 15.39l-1.008-1.06-2.355-1.915-2.622-2.764-1.275-.706v-.712l-.942-1.413.942-.994 1.01 1.065h-.54v.57l1.752 1.208.405-.497 1.008.36v.563l-.266.286v.424l.875-.496 1.48 1.136 1.55.993v.425l-.94.287.403.496 1.075.568v-.92l1.076.567.74 1.49v.282l.272.502V85.7h-.537l-1.01-.85-1.074-.57-.02-.03zm.538-24.182l-2.084-1.628-1.34-1.413-.74-.497-.27-.28-.538-.283-.537-.563h-.334l-2.488-1.987v-.49l.266-.283v-.778h.476l.538.568h.537v-.568l-1.546-.85V49.95l3.634 2.7.543.568 5.248 4.326-.47.57-1.952-1.49v.705l1.613 1.136 1.28 1.346-.338.784.61.635v.43l-1.547-.987-.542-.57-.02-.035zm-.81-25.81l-1.34-.353-1.48-1.556-.87-.498-.538-1.06-1.75-.92-.54-.565-.874-.28.404-1.066.333-.352-.333-.78v-.567l1.818 1.988h.27l.34 1.418.67.778h.542v-.568l.74.286.54 1.06-.406.425.943.994 1.008.497.808.568h.538l-1.074-1.064v-.424l1.612.778v.706h-.266l-.27.287.27.568.268.78.47.28-.336.36-.873-.426-.607-1.276-.014-.016zm-5.984 29.15h1.55l-.265-.565-1.21-.92-.537.567.47.927-.01-.01zm-.267-35.457h.272l-.267-.28v.28h-.006zm0 .784l.272-.287h-.267v.287h-.006zm0 29.71h.272v-.28l-.267.286-.006-.005zm1.08-40.703l-.537-.567v.568h.543-.005zm0 58.58l.272.286h-.267l-.266-.287h.27-.01zm3.36-10.36v-.357l-1.547-1.7h-.266v.855l.543.287.47.568.81.36-.01-.012zm3.164-24.534l-1.075-1.136-.537-.282-.737-1.065-1.208-.425-1.008-1.065.404-.706 1.01.28.27.498h1.01l-1.01-1.347h.27l1.28 1.065 1.082.784v.358h-.81l2.356 2.483v.78h-.538l-.266-.21h-.47l-.02-.012zM56.583 30.93h.47l-.2-.28h-.265v.286l-.005-.006zM57.59 3.482v-.287l-.542-.85h1.075l2.355.856 1.213.287.34 1.065.61.922-.334.71-1.075.57h.272l-1.546-.784L57.6 3.492l-.01-.01zm2.622 75.597l-1.347-1.133-1.008-1.346-.804-.424v-.993l.81.286.674-.707.405.425-.27.286v.425l.94-.492 1.613 1.705h-.737l2.355 2.483-.67.358.61 1.204-1.752-1.28-.803-.78-.015-.02zm-2.627-43.47l.266.287h-.265l-.266-.282h.27l-.005-.005zm0 43.966v-.282h-.27l.27.282zm.266-59.638l.273.287h-.267l-.266-.287h.266-.005zm2.09-2.478l.272-.282-.538-.21-1.546-1.136v.552l.81.78 1.007.284-.005.012zm0 46.448l-.537-.21-.47-.568h-.273l-.537-.568.27-.282.34.353.675-.353.27.574.544.28.81.57.332-.42-.743-.855.544-.565 1.413 1.844h-1.075l.333.992-.604.635-1.274-.922v-.496l-.016-.012zM58.66 20.51l.743.85h-.266l-.738-.85h.27-.01zm-.266 29.15h.27l-.265-.282v.28h-.006zm1.147 24.18l.405-.85 1.547.995v.43h-.743l-.81-.57h-.404l.005-.004zm.134 17.588h.27l-.265-.286v.286h-.006zm1.818-52.76v.285h-.272l-.2-.28h.472v-.006zm.266-4.394h-.538l.272-.282.266.282zm.27 18.652l-.536.282h-.272l.543-.282h.27-.004zm.134 24.468l.405.85H62.3l-.803-.85h.67-.005zm-.133-23.9v.282h-.272v-.282h.27zm0 21.422v.282h-.272v-.282h.27zm.808-20.848l.272.28h-.267l-.266-.28h.272-.012zm12.514-1.42l-.267-.208-1.075-.57-.742-.85-.804-.28-1.01-1.065-1.34-.85-3.093-2.765-3.158-1.628v-.81h1.342l.338-.78 2.355.92.404.354.54.287.74.85.54.284 1.345 1.065 1.752 1.276.808 1.774.81.778.808.565.205.283.538.284 4.1 3.264h-2.76l-1.074-1.065-1.28-1.136-.02.025zm-7.06-2.697v-.286l-1.01-.85v.568l1.01.567zm4.172-4.678l-1.28-1.065v-.855l-.333-.712 1.076.43.267.568h.537l1.55 1.634h.268l2.62 2.058v.92h-.803l-2.084-1.064-1.816-1.914zm.804 8.796v-.307H73l.273.287-.005.02zm15.61.286l-.875-.993.405-.424h-.804V51.87h-1.28l-.82-.86h-.537l-1.01-1.064-.265-.568-.937-.497-1.95-1.7v-.588l.537-.283h-1.546v-.287l.604-.637-1.275.427-.604-1.206-.803-.497-.538-.495h1.817l1.01 1.064 2.082 1.133 1.075 1.06 1.817 1.557.267.64 3.024 1.843 1.414 1.49.537.778h.604l3.563 2.904v2.62h-.272l-3.163-3.332-2.084-1.07.006.052zm4.71 8.51l-.537-.287-.27-.568-1.546-.785-1.813-1.7-.27-.496h-.538l-.742-.85-1.546-1.347-.538-.57-1.546-1.135v-.497l-.27-.28-.54.286-.265-.287-.804-.57-.265-.562-.743-.282-1.812-1.915-.81-1.627-.27-.28H79l.804.848 1.55.498 1.548 1.705 2.09 1.065 2.62 2.765.81.568 1.013.785 3.16 2.2 2.825 3.048v.855h-1.28l-.538-.564-.015-.02zm-.537-10.424l-.47-.287-.266-.287-.804-.425v-.424l-.27-.568-.738.425-.538-1.203-1.208-.922-.87-1.275h-.805l-1.345-1.49.404-.92-.876.495-.266-.28h-.267v-.85l-.762.546-.47-2.2h.47l4.44 3.26 1.01 1.138 4.507 3.475.47.92 1.01 1.066h-.74l-.332.64-1.28-.85-.002.017zm0 15.672l-1.28-1.137-.536-.85-1.142-.783-.4-.85-1.412-.707-3.835-3.26v-.426l-.604-1.276.61-.353.266-.567 1.95 1.705.948.496.404-.425 1.28 1.986 1.685 1.208 1.613 1.628 1.48.43.337.707v1.064l.272 1.137-.333.922-1.01-.635h-.27l-.02-.015zm.81-20.07l-.803-.57h-.267l-.47-.567-.81-.425-.875-1.413.404-.425-1.076-.64v.71h-.266l-.272-.28-.81-.568-.736-.78-.87-.28.47-1.137h-.41l-.536.287-.47-.497-1.077-.778v-1.205l-1.02-1.075.272-.282h.476l.27.283 2.356 1.916.27.568.54.282 3.634 2.693.81.854 2.088 1.49v.993l-.338.353.405.994h-.875v-.497l-.015-.006zm-2.62 24.965l-.54-.287-3.9-3.262-.604-1.06 2.084 1.132.537-.563-2.288-1.137h-.473v.712L84.44 67.34v-.64l.542-.493-1.013-1.418.74-.283.272-.563 1.075 1.132 1.28.71v-.64l-3.092-2.482v-.712l2.422 1.633 1.48 1.49 1.546 1.065 5.176 4.61v.635h-.2l-.272-.282-1.075-.565v.282l.81.85.27 1.06 1.01 1.136-1.28.57.265.28v.85l-3.16-2.55v-.01zm1.074 15.104h-.537l-1.547-1.628-1.613-1.065-.47-.563-1.076-.778v-.573l-.536.21-1.813-1.915v-.425l1.814 1.136v-.707l-.738-.778-1.817-1.49v-.425l.27-.277.27-.64 2.29 1.7 1.075 1.137 3.093 2.2 1.346 1.353 3.093 2.34v1.49l-.67.778.542 1.143h-.877L92.33 88.13l-.016-.02zM90.7 37.546l-2.825-2.693-1.546-1.136-1.885-1.915.537-.28v-1.066l-.338-1.13h.676l3.16 2.482h.94l-3.967-3.26-1.346-1.845.338-.424V25.2l3.164 1.92h.536l-2.893-3.056h-.604l-.406-1.347.338-.71-.332-.64v-.85h.742l1.075 1.06 1.01.57 3.363 2.764h1.346l-.807-.85-3.096-2.697-1.546-1.705-.81-1.065-.604.286-.538-1.705h.875l.54.286h.537l-1.613-1.627v-.575l1.075.85 1.545 1.062.538.568 1.548.85 1.547 1.628 1.346 1.135.47.498 1.68.922.405 1.28v1.135l.538 1.065v.567h-.87l-2.084-1.633h-.67l.536 1.065 2.555 2.768-.604.353.875 1.276-1.014 1.134-.27-.568-1.076-1.06H91.78l-.808-.85-.743-.28v.28l1.28 1.132.265.215 3.902 3.614-1.613 1.7.333.778v3.26h-.538l-.272-.28-2.893-2.197.006.02zm-.198 39.358l-.538-.282v-.567l-1.28-.425-.27-.707h-.54l-.537-.495-2.42-1.705-.677-1.91.338-.353-.47-.927 1.007-.563 7.67 6.24.266.288 1.82 1.413v2.197l-.472.778h-.538l-3.164-2.478-.205-.497.012-.005zm2.534-56.678l-1.01-.57-2.35-2.482v-.497h-.265l-.265.497-.338-.993.333-.354h.804l-1.818-1.914h-.538v.286l.538.57v1.49l-3.702-2.91v-.568l1.075-.21-.538-.85v-.287h-.81l.267-1.346.803.783.804.497 2.826 2.273 3.9 2.765 2.418 2.555-.337 1.275-.266 1.56-1.28-.992-.27-.568.02-.01zm-8.812 66.37v-.707h.742l2.084 1.702v-.855l-1.28-1.062-.805-.427v-1.91l2.624 2.338.808.783 1.55 1.137.54.497.47.287.537.57 3.636 2.697v.85h-1.546v.28l.81.85h-1.347l-1.48-.49-7.332-6.523-.01-.015zm0 1.773h.202l.808.85 1.413 1.067h-.876l-1.545-1.208v-.71zm8.678-45.6l-2.22-1.913v-.286l-.74.28v-.286l-1.413-.358-.54-.64.47-.502-.603-.706-1.076-.57v.57l.54.563h-.405L85.5 37.857l-1.075-1.418v-1.132l.272-.282V33.82l1.346.713 2.355 1.915 1.818 1.346.47.57 4.307 3.542.404.85H94.39v.563l.74.777-1.14.425-1.076-1.772-.012.02zM90.076 81.63l.404-.355.202-.567-1.01.566-1.074-1.13-1.546-1.066-.266-.563-1.01-.57-.803-.85v-1.064l-.538-.562v-1.633h1.214l5.313 4.68 2.084 1.423v.778h.81l1.008 1.065v.85l.537.85-.537.503.537 1.13-.737.288-.537-.562-4.035-3.195-.017-.013zM86.31 93.9l-1.212-1.277-.47-1.418.336-.356.538.568.538.282 1.28 1.065.537-.5-.537-.847h1.14l3.23 2.764H89.4L88.39 93.9h-2.084.005zm5.713-79.714v-.567l.27-.284h-1.615l-.74-.782-.538-1.133h-.944l-.604-1.348-.538-.568v.566h-.27l-.537-.57v-.284h-.676L85.5 8.15l-.803-.566v-.85l.537-.284v-.283h-.266v-.994l1.346.995.743.85.543.282 7.265 5.96v1.346l-1.618.85-1.208-1.274-.014.004zM86.036 3.972l-.537-.215-.54-.565.74-.425 2.422.852v.49l-1.342.707h.272l-.538-.28-.47-.57-.008.005zm-1.075 89.35l.54.575h-.54v-.574zm.807-15.948h.27v-.28l-.27.286v-.006zm.54-64.604h.2l-.2-.21h-.27l.27.215v-.005zm1.546 11.208v-.568l-1.817-1.275v.568l1.817 1.28v-.005zm-.538-5.386h.27l-.27-.282h-.27l.27.282zm1.278 70.21v-.706l-.47-.492h-.808v.497l1.278.707v-.005zm5.246-77.666l-1.817-1.913-1.413-.71-1.748-2.34v-.497l-.27-.284v.566h-.472V4.75l1.28.357.266.565h1.408l1.48.994v.353l1.14.85.944 2.195.875.922-.404.425-.472-.287h-.81l.01.01zm-5.248 16.81h.27v-.57h-.742l.47.57h.002zm-.47 65.098h.268v-.28h-.27v.282-.002zm.47-73.396h.27l-.27-.284v.285-.002zm.27 58.86h.538l-.537-.284h-.27l.27.282v.002zm.873 6.24l-.335-.78-.807-.355v.497l1.142.638zm.605-58.646l.338-.353-1.548-1.133h-.267l1.477 1.49v-.005zM89.13 53.76h.27l-.272-.283h-.266l.266.28.002.003zm1.548 17.587l-.74-.85h-.81l.405.85H90.678zm-.203 14.326h.47l-.74-.85h-.54l.805.85h.005zm0-75.1v-.214h-.27l.265.214h.005zm0 6.098h.2v-.286h-.205v.284l.005.003zm1.275 5.602v-.712l-1.28-.637v.638l1.275.713h.005zm-.804-10.004V11.7h-.27v.285l.265.283h.006zm0 52.194h.538l-.538-.567h-.266l.27.567h-.004zm-.27 4.11h.265l-.27-.282v.282h.005zm.265 21.987h.272l-.266-.28v.28h-.005zm2.627-85.172l-1.008-.565-.54-.568-.536-.283-.272-.497h2.355l.538.497.538 1.7v.78l-.81-.503-.27-.57.004.008zm-.537 12.91v-.286l-1.142-.85h-.404l.537.568 1.01.568zm-1.546 54.178h.266v-.284l-.27.284h.004zm1.275-58.293l.802-.283v-.852h-.27l-.272.568-.272.284v.283h.01zm1.34 4.965l-.538-.568h-.27v.568h.808zm-.81 54.675h.267v-.284l-.27.286.004-.003zm.54-58.29h.536v.565h-.537v-.566zm.536 8.792v-.285l-.27-.283v.283l.27.285z" fill="#A7D5A8"/><path d="M103.257 94.177v-1.7l1.278-3.973.266-2.836.267-1.135.266-1.35.538-1.418.267-2.2.737-3.262.267-2.197.81-1.914.266-2.482.266-1.137.2-1.344.804-3.336.266-1.915 1.008-3.546.81-6.027 1.075-2.2v-2.765l1.008-2.2v-1.63l1.075-4.395.2-1.703 1.075-4.68.272-1.914.537-1.346.2-1.634.538-1.915.537-4.183 1.275-3.404v-3.19l.81-1.628 1.008-5.745.537-1.915.604-3.47.606-1.276 1.433-.79h11.432l1.275 1.348.604 3.62v1.065l.943 2.058 1.142 7.025 1.01 3.614.265 2.197.537 1.92.605 3.83.942 3.052.266 2.202.266 1.346.272 2.197 1.274 5.248v1.49l.876 2.345 1.48 7.66.537 2.2 1.01 5.25.536 1.914.268 2.196 1.008 2.56.47 4.895 1.68 5.463-.337 1.418 1.074 3.262.81 3.614.465 1.915.808 5.177.333.993-.47 1.49-1.68.855h-7.577l-1.818-.287h-2.084l-.874-.916-.942-4.323-.538-1.07v-2.483l-1.28-3.968-.404-4.756-1.142-3.615-.538-3.902-.81-2.416h-12.645l-.61 2.2-.67 4.538-.942 3.05-.47 3.903-.81 1.7-.338 3.9-.942 2.91-.876 4.607-1.752.922h-8.068l-3.636-.57-1.075-1.058.037-.033zm4.17.71l1.278-.426h7.6l.81-.852.538-4.26 1.28-3.62v-1.49h-.538l-1.346-.783-.472-.568-.538-.28-.537-.57-1.01-.783-1.612-1.705-.736-.498-.266-.28-.538-.288-.538-.568-.47-.282-.804-.783v-.562l-.605-.993 1.347-1.49 6.59 5.46.742.565 1.413 1.495-1.01 1.772.672.353 1.01-2.197v-1.42h-1.01l-1.818-1.347-.267-.282-.81-.566-.803-.783-3.092-2.2-2.217-2.34.672-.707V70.47h.61l2.487 2.193 1.817 1.136.81.85 1.55.49 1.818 1.915-.272.57.543.844.266.64.543-2.556.742-3.333.538-2.98.266-1.136.273-2.483 5.043.283 2.688-.287 3.026.425 1.213-.424h1.546l1.008.353 1.147 4.044.2.85.27 2.98.81 2.058.942.49.47-.495-1.678-1.777h.803l.27.568h.206v-.568l.398-.778.405 1.34h.537l.538.57 1.546 1.35.266.278 1.28 1.136.267.215 6.19 5.04.338 1.843.537.568v.87h-1.08l-1.01-.854v-.568l.206-.28-.737-.217-.537.21-.538-.5h-.266l-.472-1.137-1.075-.568-.876-1.49-.404.425h-.538l-1.008-1.137-.405-.778h-.942l-1.147-1.28.405-.36v-.28l-1.28.64-.604-1.208-.743-.85v1.418l.54 1.915.47 3.83.81 2.483.337 2.41.47 1.42.87 3.333h.943l-.804-.855.272-.28 1.008 1.136-.2.28 1.685.426 1.68-.43h7.266v-2.754l-.942-2.98-1.214-7.52-1.546-3.758.338-.568v-1.42l-.404-1.204-.405-2.054-1.01-4.398v-1.698l-.802-2.413-.266-2.198-.2-.848-.537-1.92-.81-2.482v-1.915l-1.008-3.9-1.076-6.028-.742-2.198-.47-3.476-1.143-3.686-.272-1.914-.405-1.347-1.275-.425-.4.425.54.568v.283l-1.01-.568-.804-.85h.804v-.537l-7.332-5.597v.426l.27.282v.502l-1.076-1.065-.742-.563-3.43-2.694V20.49l-.472.282h-.604l.338-1.135.272-.284-.538-.21h-1.275l-.334.28-2.96-2.34.405-.424v-.856l.81-.425 1.818 1.418 1.278.637 2.084 2.2 1.28.854.538.567.537.282 2.827 2.272.803.425.538.568 2.355 1.633 1.547 1.703 2.017 1.35.336 1.135.537 1.065v-2.488l-1.377-6.028-.742-2.48V18.01l-.876-2.195-2.555-1.347-5.176-4.114-2.356-2.48-.538-.282-3.364-2.626V3.758l.743-.282.27-.284h.738l3.702 2.98.266.287 2.085 1.7.54.495 2.955 2.274.944 1.842.538.85v.568l.942.992-.67-4.325V8.8l-1.012-2.622-.537-3.692-1.21-.568-10.492-.42-.942.92-.808 4.68-1.142 3.546-.333 3.544-.737 1.63-.27 2.768-2.085 9.362-.27 2.695-.54 1.133-.67 3.05-.338 2.695-.27.85-1.286 5.462v2.483l-1.074 1.132v3.19l-1.275 3.686-.537 4.11-.537 2.203-.267 1.628-.472 1.418-.266 1.628-.266 1.065-.266 2.197-.538 1.423-.266 1.915-.737 2.483-.34 2.908-.737 1.983-.27 3.046-.406.926-.332 1.838-.538 1.352-.266 3.758-1.14 2.908.537 1.203 2.693.568-.063.004zm-.807-1.28l-1.278-1.35.874-.354-.604-1.346h1.278v-.497l-.476-1.136v-.57h.803l-.404-1.274.604-.64 2.622 1.915 2.082 1.915 2.35 1.7 1.547 1.628-2.085.353-2.627-.644-3.097-2.478h-.94l1.207 1.628 1.275 1.132v.358l-2.084-.358h-1.075l.027.02zm4.978-4.965l-1.01-1.065.203-.287-.202-.28-.537.567-1.545-1.705-.54-.215-.537-1.137v-2.2l.272-.283.27-.568 1.28 1.417 3.16 2.483.27.282 2.29 1.628 1.347 1.347.537.28v1.353l.338.707-1.884.778-2.155-2.263-1.547-.85-.008.01zm2.084-3.553l.27-.283v-.287l-.538.282-1.01-.573-.268-.288-1.077-.783-1.01-1.133-1.21-.64-.74-1.49 1.144-.358v-1.49l.806.424 4.71 3.83 1.545 1.13 1.68 1.706-.81 1.28.538 1.06-.81.353-1.145-.568-2.09-2.197.014.02zm-4.438-4.113h.27v-.286l-.27.282v.005zm7.668-6.947l-1.412-.784h-.538l-.54-1.28-1.275-.64-2.017-2.13-.47-1.98.47-.994 1.546.993 1.28 1.06 1.547 1.13 1.546 1.348 1.617.85 1.014 1.06v.573l.738 1.485-.737.712.472.922-1.076-.568-2.15-1.772-.014.016zm-1.412-5.96l-1.818-1.987-1.277-.645-.266-.993-.267-.568v-1.915h.808l1.01.855 1.546 1.06.272.28 3.164 2.484 2.084 2.198v.85l-.267.568.67.993-.67.353h-1.076l-.737-.855-3.16-2.693-.017.015zm-3.095 13.972h.47l-.47-.286h-.266l.27.286h-.005zm3.907-18.94l-2.084-1.135-1.547-1.633v-.57l.81-.92-.332-.994h.675l5.858 4.967 2.356 1.628 1.208 1.275-.67.353-1.68 1.203-1.746-1.208-2.826-2.98-.02.015zm9.082 2.76l-.875-.352-.4-.778h-.538l-1.01-1.065-.265-.57-.804-.28-1.546-1.28-.804-.36v-1.13l-.875.496-1.21-1.843h-.47l-.266-.568-.538-.287v-.286l-.266-.78-.27.21h-1.01l-.67-1.418.604-1.848 1.346.353 2.355 2.13 2.084 1.633.266.282 8.054 6.902v.85l-.54.498h-1.818v-.782l-.538.28.002-.007zm4.44-.85l-.738-.567-.537-.568-.54-.215-.27-.282-1.275-1.137-.538-.568-.537-.215-.205-.568-.538-.282-.804-.855-.737-.282-.266-.496h-.538l-3.9-3.333-1.348-1.352-.737-.282-1.546-1.633-.742-1.562.743-.424.205-.21.943-.358 2.76 2.555.742.497 3.43 2.765.742.567 6.518 5.468.81.563 1.545 1.418 2.827 2.197h-1.28l-2.15.712-2.018-1.562-.02.01zM148.13 75.44l-1.075-.784-1.008-1.136-1.814-1.347-4.168-3.62-.803-.495-1.275-1.137-1.076-.568-.537-1.065-2.017-1.065-4.506-4.183-.737-.57-2.09-1.632-.808-.568-.54-.492-1.007-.855-3.902-3.548-.803-.568-1.008-.85-3.698-2.555v-1.245l.81-.283-.677-1.065.942-.497 5.17 4.61 2.623 1.772.47 1.63 3.365 1.42.875.92 5.448 4.68.81.287 2.354 1.91 1.01 1.137h1.617l-1.077-1.136-.542-.28-1.008-1.066-8.34-6.878.266-.284h1.275l2.084 1.064.47.496.405-1.28.942.497.538.562.537.282 2.754 2.34.875.42.537.568 3.364 2.693.538.568.743.57 1.076.843.538.21.47.57.805.562.536.845.737.783-1.008.287 1.213 1.275.405 2.416-.81-.358-2.892-2.202-.808-.568-1.28-1.413h-.538v.563l2.084 2.197 1.075.424 3.026 2.335h-.938l1.547 1.915.27 1.347.538.563v.568l.47 1.065h-1.28l-1.546-1.628v.026zm-26.1-27.23l-.54-.495-.736-.287-.804-.85-2.284-1.56-1.346-1.778v-.497l.266-.285V40.55h.47l1.885 1.63v.497l1.01.355 1.074 1.065 1.01.568.536.566 2.09 1.42v2.41l-.605.64-1.48-1.207-.537-.286-.01.002zm-5.715 14.465l.742-.425-.472-.286-.266.28v.42l-.005.01zm4.172-21.058h-.472l-2.626-2.058-.338-1.634.81-.425.27-1.346 1.28 1.346 2.29 1.844.337.634-.265.282h-.267v.568l2.09 2.197 1.612 1.06v1.136h-.537l-3.697-2.622-.47-.993-.017.01zm4.438-1.065l.266-.283-.47-1.346-.472.994-.942-.497-.875-.92-3.294-2.056-.47-.283v-1.34l-.537-1.138v-.78l1.815 1.56v-.777l-1.278-1.347v-.568l.47-.568.27-.78.333-.426-.337-.71h.27l.537.565.81.567 1.75 1.35h.538l-1.817-1.916-1.546-.848v-.778l-.47-.922 2.487 1.275-.466.428v.283h1.075v.566l3.098 3.262-.265.568.27.282.877-.497.742.782v.282h-1.347l1.547 1.628v.85l-.47.497-.54-.498-.537-.282-.537-.855h-.737l-.533-.573-.404-.783h-.87l-.538-.57-.804-.568-1.01-.778v.215l.743 1.13.81.563 1.075 1.06h-.538l-.266-.28-.266.28v.57l.81.848h.47l.27.498 2.894 2.765-.267.282-.267.85-.537-.57-.47-.286-.048.02zm2.084-8.79l-1.075-.85-.743-.5-1.613-1.7-1.007-.782-1.546-1.42-.81-.498.87-.49.943.992 2.355 1.7h.272l-1.01-1.342-3.43-2.62v-.994h.81l2.826 2.483 2.085 1.632-.405.425 1.21 1.208.54.85.2.287.538 1.065 1.348 1.137-1.01.28-.87-.85h-.47l-.006-.015zm-6.528 3.056h.266l-.27-.284h-.266l.27.28v.004zm17.956-.568l-2.626-2.197v-.562h-.74l-1.347-1.065-1.816-1.417-.47-.57-1.08-.49h-.538l5.514 4.75v.784l-4.44-3.896-1.545-.85-.808-.778-4.24-3.902h.606l1.68 1.065-.406-.78-2.826-2.052-.81.425-.536-.85.537-.282-1.413-1.483.805-.85 1.346.998 2.622 2.765 3.16 2.196 2.555 2.197.806.568 1.28 1.066.808.425.804 1.204.405-.353 1.146 1.21h.81l.47 1.136 1.623 1.034 1.818 1.914v1.49l-3.16-2.835.006-.012zm-15.54 7.02l-.674-1.347 3.7 2.91v.495h-.537l-1.28-1.418-1.21-.64zm14.797-16.665h-.806l-.537-.567v-.28l-.538-1.065-1.547-.283-.268-.568-1.21-.64-.603-1.28h-.74v-1.06h-.81l-1.074-.568h-.202l-.27-.286.47-.567.267.28v-.568l-.742-.497-.27.284v.21l-.273.283-.537-.497v-.28h-.405l-.404-1.21-.743.354-.266-.57-.538-.285v-1.347h-.472l-.27.563h-.743l-.876-1.417.265-.496.333-1.275 2.826 2.053 1.01 1.136.808.565.81.783h.398l2.96 2.693v.354h.67l1.95 1.347 1.547 1.63 1.076.567.2.564.537.57v1.064l1.096 1.152-.538.78-1.546-.78v-.855l.005.013zm-1.075-5.46l-.54-.287-1.006-1.136-.538-.287-.81-.497-.737-.425v-.562l-1.817-.993-.537-.497v-.992l-.808.425-.266-.85-.47.28-.267-.568-1.075-.497-.67-1.065-.87-.353v-.778h-1.01l-.538-.568v-.276h.272v-.284l-.538-.566v-.78l-.27-.285v-.85h.536l5.52 4.468 1.008 1.065 1.01.568.808.785v.565h.737l1.618 1.347.742.563 1.618 1.633v1.132l.738.778-.47 1.137-.876-.502-.47-.85-.022.005zM124.11 36.736h.538l1.278 1.347h-.538l-1.28-1.347zm.27 26.378h.268l-.27-.28v.28zm1.008-10.99v-1.418l1.075-1.348.267-2.765 1.275-6.027.537-4.04 1.275-3.4h.266l.538 2.203.267 2.768.737 2.484.267 2.2.538 1.916v1.987l1.275 3.69V53.5h-6.25l-1.752-.426-.337-.916.025-.034zm1.88-19.785l.737 1.06h-.538l-1.413-1.488 1.208.427h.005zm5.176 20.067v-2.482l-1.214-3.973-.338-2.338-.27-1.136-.34-2.552-.74-1.915L128 45.813l-.538 1.63v2.624l-1.01 1.49v.85h5.992zm-.272-45.952l-2.355-1.633L128 2.907l1.346-.285.266-.352 1.95.568.334-.78.537.28 1.885.426 1.28 1.915v.424h-.81l.267 1.065.737.85v.562l.266.563V9.78h-.737l-3.163-3.334.015.01zm-3.9.566h.265l-.266-.283v.284zm.803 4.4l-.804-.853v.85h.805v.002zm-.538 19.216l.538.566h-.267l-.537-.563h.267v-.004zm.27-1.347h.268v.565h-.272l-.27-.28.265-.283.01-.003zm.268-1.916h.27l-.27-.284v.284zm1.546 4.68v.568h-.27l-.538-.57h.809zm.81 1.064h.47l.54.568v.567l-1.01-1.135zm10.696 12.126h.737v-.282l-.272-.285v-.568l-.74-.286-1.347-.778v.284l1.34 1.347v.637l-3.696-3.12h1.076l-.538-.78-.742-.283-.543.285-1.075-1.135.803-.282v-.282l-.537-.28-.808-.498-1.01-.563-.27-.282h-.27v.287l1.345 1.347h-.338l-2.423-1.844-.537-1.13h.404v-.288l-1.075-.353v-1.706l1.612 1.206.266.285 8.074 6.594 1.818 1.916v.85l.81 1.347-.406.425-1.684-1.777.026-.006zm-7.6-9.36l-.54-.85-.744-.214-.537-.567.604-.64 1.34.497 2.49 2.626-.268.283 1.076 1.345h-.272l-2.355-1.63-.803-.854.01.004zm-1.816 5.248l.27-.282.54.282v.78l-.273.283-.537-.284v-.778zm1.01-3.617l-.74-.778v.778h.74zm.265-32.973h.266l-.736-.783h-.272v.214l.738.568h.005zm3.968 48.65v-.425l1.546.994.537.287 1.008 1.065h.81l-.538-.778-.538-.282-.272-.28-.47-.283.198-.282-.942-.282-.47-1.065h-.538l-1.414-1.13-.537-.497-.538-.282-.47-.85v-.87l-.876.498-.742-.707-.2-.85.472-1.136.537 1.137 3.897 2.766 2.892 2.483.81.496.47.568.538.282 1.275 1.35 1.074.57.81 1.628-.272.568-2.018-1.06-.404 1.21-4.035-3.053-1.618-1.772.016-.016zm4.91-2.478l-1.28-1.06-2.355-1.628-1.28-1.418-1.08-.568-1.28-1.347-.272-.85-1.746-1.485 1.075-.568 5.115 4.25.27.568 1.01.568 3.763 3.052-.404.85 1.074.783-.538.57-1.28-1.132-.81-.563.017-.02zM134.79 20.22l-1.082-.57v.57h1.081zm.065 30.207h.47l.267.287 1.275 1.137.267.57h-.538l-.81-.426-.94-1.56.01-.007zm9.35 11.56l-1.614-1.627-3.09-2.196-2.356-2.478h-.604l-.738-1.065-.737-.85v-1.136h1.004l.67 1.418 1.213.784 2.084 1.694 1.546 1.065 5.38 4.542.334.993-.538 1.06v-.282l-1.01-1.06-1.546-.855v-.005zm-8.607-28.578h.737l1.613 1.632v.286l-1.618-1.065-.743-.853h.01zm.2 12.91h-.2v-.286l.2.287zm.265.283h.538l1.348 1.136v.28l-1.076-.567-.81-.85zm2.084 12.77v-.36l-1.008-1.13h-.54l.472.92 1.075.57zm-1.008-29.784l.27.28h-.27l-.273-.28h.272zm.808 7.45l.737.777h-.538l-.742-.778h.543zm1.48 2.553l-1.28-.64h1.346l.742-.85-.476-1.064-.537-.283-.81-.85v-.287l1.21.43 2.487 2.627v.425l-1.546-.778-.333.353.54.568v.497l-1.01-.497-.338.36.005-.012zm-.727 8.637l1.076 1.134v.284h-.268l-1.347-1.42h.54v.002zm9.416 31.625l-.672-.354-1.01-1.562h-.806l-1.956-1.343-.266-.287-1.547-1.418-.538-.497h-.272l-1.817-1.915v-.286l-.538-1.418.538-.282.338-.927.943.712 1.613.78.737.85v.57l.804.21.537.57 6.457 5.673v.918l1.076 2.203-.61.71-2.554-1.77-.47-1.138.014.003zm-8.6-41.772v.566l-.54-.568h.54zm1.815 12.34l.808.85v.283l-1.615-1.135h.804l.004.002zm.874 15.316l-.335-.71-.81-.425v.568l1.142.568h.002zm7.333 25.672l-.942-1.633-1.008-.353v-1.064h.537v-.498h-.808l-.942.64-1.142-1.203-1.008-.57-2.02-2.052-.335-1.208-.81-1.7v-.497h.538l1.546 1.065 1.28 1.352 2.35 1.705 1.076 1.065 1.546.85 1.075 1.065 2.085 1.49 1.275 1.843-.27.568.536.78-1.213.64-1.147-.918-2.222-1.347.023-.02zM141.6 46.024v.286l-.27-.286h.27zm0-5.745l.268-.283.47.282v.284l.54.568v.283l-1.278-.712v-.424zm2.084 16.666v-.71l-1.547-.85v.494l1.547 1.07v-.004zm2.96 36.948l-2.69-2.482h-.405l-.67-1.348-.742-.852V87.23l1.01.354 1.075.778 3.902 2.765 2.557 2.767v.354l-2.826-.358h-1.212v.004zm-2.69-30.21V63.4l-1.75-.783.942 1.066h.808zm-.808-21.206v.568l-.268-.283.266-.285h.002zm0 9.646l.27.284h-.27l-.268-.287h.266l.002.004zm.808.496l.47.567v.287h-.47l-.405-.85h.404v-.004zm0 5.53h1.01l2.353 2.484h-1.008l-2.356-2.483zm1.278-4.396v.285h-.268v-.286h.268zm0 11.56h.27l-.268-.285v.283h-.002zm2.624 6.027l-.538-.567v.563h.543l-.004.005zm.742 17.872h.543v-.284l-.537.284h-.005z" fill="#F9D472"/><path d="M162.384 93.68v-4.114l-.403-2.27.404-1.345v-9.857l-.403-2.554.404-1.28v-9.925l-.403-2.2.404-1.346v-9.93l-.403-2.55.404-1.28v-9.927l-.403-2.34.404-1.205V21.345l-.403-2.197.404-1.35V7.942l-.403-2.267.404-1.347.27-2.623L164.47.78h10.694l1.953.64.676 2.127v76.376h1.817l1.214-.64 2.42.64h9.15l1.28-.71 2.356.71h2.36l1.28.64.476 6.31-.47 2.977v4.753l-1.414.99h-34.32l-1.14-.637-.406-1.275h-.012zm14.33.78l.942-.282 4.775.287h7.333l.876-.282 5.85.353 2.156-.42v-5.39l.272-4.4-.333-2.974-2.284-.287-1.883-.353-1.28.353h-9.62l-2.084-.353-1.68.57-3.025-.565-.272-10.85.272-1.06-.267-12.338.273-1.414-.267-12.34.267-1.346-.267-12.124.272-1.347-.266-12.406.27-1.065-.297-11.87-1.28-.712h-7.603l-4.17.497v13.542l.268 1.632-.27 1.63v10.212l.265 1.913-.27 1.35v7.444l.265 2.48-.27.284.33 2.06-.336 1.207v15.673l.266 1.915-.272 1.418V75.25l.267 1.92-.267 1.704v5.176l.405 1.562.67.358 3.093 2.197 2.355 2.483.805.568 1.275 1.065 1.613 1.132v.712l-2.084-.717-2.49-.353-2.216-1.84-.81-.28-1.213-.85.472-1.347-.27-1.065-1.01-1.423h-.604v8.013h1.075l.267-.282 2.083.497h9.887l.044-.02zm-4.71-53.045l-6.257-5.18-.604-.355-.674-1.065-.27-1.064h.675l3.768 3.047.405.353 1.146.425v-.43l-5.72-4.68v-1.13l3.1 2.41 2.088 1.916.81.568 2.354 1.914 2.156 1.49.47.99.472.784h-1.21l1.01 1.42-.538.567v.495h-.266l-1.08-1.06-1.813-1.418-.024.005zm-7.534 1.413l.266.282h-.27l-.268-.287h.268l.004.005zm-.272 50.28v-.288l.538-.287.268-.496.27-.287.27-.712 1.345 1.982-.472.496-1.413-.425h-.807v.017zm9.15-65.384L172 26.588l-1.276-1.347-1.077-.854-.2-.287-.54-.287-.54-.497h-.34l-3.7-3.052.94-.286v-.85l-.27-.497v-1.125h.737l.81.85 6.727 5.104 1.88 2.058-.267.496.538.85-.27.563v1.347h-.81l-1.008-1.065.016.014zm0 9.575l-.538-.288-.808-.783-3.362-2.766-.74-.353.47-.496h-.808L165.14 30.7l-.81-1.28.672-.36v-.568l.338-.353-.81-1.28h.605l1.408 1.13.81.497 1.545 1.705 1.01.497.265.28.81.564.265.28 1.01.785 1.545 1.417.742.353.338.707v3.543l-1.28-1.06-.27-.282.015.02zm.27 15.384l-.81-.286-.268-.215-1.28-.85h-.807l-.27-.287-.538-.282v-.568l-1.144-.353-.94-.994-1.01-.57v-1.064l-.74.353-.336-.64v-.564l-1.01-1.07.808-.28v-1.42h.47l.268.282 2.35 1.915.538.568 6.252 5.106v2.62l-1.214-.64-.338-.777.02.014zm.2 23.404l-.54.635-.47-.927-1.277-.353v-.497l.472-.287v-.21h-.737l-.267-.287h-.604l-.737-1.137-.47-.282v-.425l-1.814-.927-.537-.57h-.948l-.404-.777-.674-.778.47-1.705-.808-1.132h.538l1.01 1.133 1.347.778.2.283 5.514 4.11 2.356 2.484v.564l.267.57v.705l-1.076-.71-.542.49h-.47l.47-.778h-.272l.004.03zm.807-26.952l-.54-.568h-1.274V46.94l-.537-.287-.537-.568h-.47l-.34-.354-1.14.426-2.423-1.986-.27-.287-1.348-1.065v-.85l1.347 1.418h.404l-.942-1.56-1.546-.78-.333-2.626h.338l1.014 1.065.875.49 1.75 1.42 2.894 2.196.47.564 1.08.85 2.695 2.837-.404.922.81.922h-1.01l-.737.353-.334-.358.538-.57-.03.026zm-2.893-38.507l.27-.288-.273-.215-.472.496-1.618-1.633-.47-.287-2.09-2.2-1.075-.784-.27-.85.536-.575-.54-.28h-1.01v-.77h2.422l3.835 2.975 1.546 1.42 2.355 1.842V10.9l.804.85-.676.712.67.634v.425l-2.354-1.202-1.613-1.705.022.016zm2.085 53.61l-.47-.287-.54-.49-2.085-1.706-3.16-2.765-.737-.215-1.95-2.058.404-.713.204-.287-.2-.85-.537-.5.61-.995 2.22 2.06.544.28 2.085 1.634v1.064l2.09 1.418.536-.282.273.282 1.008.71.267.708.543.21.676 2.202h-.404l-2.084-1.634-1.347-1.346-.736-.287-1.075-1.137-2.085-1.065v.425l1.346.927.273.282 1.28 1.13 1.28 1.348 1.08.563.27.282 1.48 1.274.406.78-.877-.426-.538-.57-.048.032zm-6.257 12.908v-1.49l-.737.425v-.57l.538-.285v-.425l-1.413.92-.943-1.064.27-1.204-.333-1.213.406-.42 2.017 2.053.742.568.543.773h.81l.875.994-.405.426.266.496.943.354.476.993-1.342.352-.603-.568-2.084-1.137-.023.02zm1.348-63.186l-.272.563-.27-.282-.266-1.208-2.754-2.412-.338-.783v-1.7l.27-.212.206-1.133 6.927 5.602.943.993 1.547 1.133.942.998-.87.498.742 1.49v1.633l-6.19-5.173h-.605l-.012-.005zm3.9 8.222l-1.078-.85-1.817-1.914-1.548-.784h-.268l-.338-.783-.672-.353-2.086-2.202v-2.19h.942l1.414 1.134 1.548.778 2.085 1.702.538.215.336.784.942.354 2.624 2.765v.782l-.272.57.407.92-.47.57-1.48-.64-.81-.85.002-.008zm-1.548 8.228l.47-.496h-.2l-.537.28-.942-.352-.403-.778h-.47L168.1 28l-.266-.568-.737-.286-.804-.855-.804-.424v-.922l-.472-1.633v-.833h1.28l1.818 1.913 2.892 2.198.27.287 3.497 2.836 1.278 2.556-.876.922h-.805l-1.008-.563-2.084-2.197-.02-.016zm-6.256 6.38l1.01 1.065h-.538l-.472-.57v-.5.005zm0 21.985h.74l1.817 1.915v.563l-.736.21-1.82-1.137v-1.556.005zm.74 6.59l-.47-.282-.272-.855.27-.568v-1.915l1.747 1.275.337.64-.47.92 1.207 1.27h.942l-.404-.777-.81-.564v-.71l3.697 2.913v.568h-1.613v.57l.742 1.06h-.743l-3.093-2.484-1.08-1.07.01.01zm10.025 28.016l-1.148-.85-2.084-2.19-.675-1.353h-.876l-.47-.993-.877.425-1.008-1.065-1.552-.855-2.09-2.202v-1.346l.273-1.915 1.28 1.345 2.355 1.915 1.01 1.137.536.215 1.28 1.13 1.347.85 4.91 4.108 1.885 1.35-.61.636-1.28-.358h-2.216l.01.015zm-2.423-36.024l-.804-.564-1.418-1.49-3.297-2.06v.995l-1.213-.85.47-.424-.266-.287h-.81l-.537-.497v-.57l-.205-.567.2-.568-.205-.282v-1.914l4.372 3.614 1.076 1.065 3.098 2.198 1.546 1.556-.47.922.537.85v.502l-2.088-1.63h.015zm-1.075 28.297l-2.355-2.406-.27-.573-1.215-.64-.338-.783h-1.008l-1.818-1.915v-1.916h1.01l1.273 1.418 1.614 1.065 1.01 1.132h.537v2.697h.538v-1.92h.737l1.613 1.628h.266l1.275 1.705 1.14.43-.403.354-1.01-.282h-2.626l.032.005zm-5.99-28.86l-.543-.498v.496h.542zm-.538 6.875l.266-.21-.27-.287v.497h.004zm0 10.992h1.075l-.543-.496-.538.287v.21h.004zm1.813-16.593v-.424l-1.01-.57v.426l1.01.57zm.67 3.4l1.21.57v.28l.47.85-.47.497-2.157-1.915.942-.287.005.005zm.133-17.3h.267l-.538-.57h-.54l.805.565.005.005zm-.27 10.21h.537l.81.777v.563l-1.348-1.346v.005zm5.247-9.93l-.27-.285-2.09-1.634-1.818-1.914h.337l3.83 2.98.752.584 1.346 1.418v.425l-1.346-.993-.74-.568-.003-.01zm-3.9.57h.198l-.2-.287h-.27l.27.282v.005zm3.9-38.226h-.538l-1.076-1.065-.205-.57-1.076-.568-1.008-.855h1.008l.267.287.538-.497h2.217l1.746 1.208-.337.712.804 1.065-1.28 1.275-.81-.425-.27-.568h.02zm-3.43 20.638h.266l-.266-.286V27.432zm.81 19.216h-.273v-.282l.267.282h.006zm1.007 18.437h-.47l-.272-.568-.538-.282v-1.347l1.075 1.065.737.57.537.844.81 1.064-.405.426-.943-.993-.543-.778h.01zm-1.008 11.77h-.272l.267-.214v.21l.006.006zm.266-7.377h-.27v-.282l.265.282h.005zm2.62 10.43h-.536l-.272.563h-.256v-.855l-.542.287-.676-.358.67-.707V77.63l1.685.634 1.746 2.273v.988l-.542.282-.543-.282-.742-1.633.01.015zM171.52 50.2h.47l-.268-.21-.202.212v-.002zm1.278 18.437l-1.14-.57.4-.85 2.288 1.634v.92l-1.008-.567-.54-.568zm-.537-55.246v-.282h-.268l.27.285v-.003zm-.27 69.857h.27v-.286h-.265v.292l-.004-.005zm.27-12.69v-.288h.54l.675.358 1.34-.706.877.916-.806.287h-1.014l1.48 1.913h-.738l-2.356-2.473.003-.008zm.273 8.293l.266-.28h-.257v.285l-.01-.005zm1.075-73.682h.47l-.47-.28v.28zm0 30.783h.2l-.2-.282v.284zm.47 30.78l.81.566v.64l-1.147-.43.334-.774.005-.002zm.267-7.447l.538.563v.283l-.543-.285v-.563h.005zm.81-56.02l-.27.283-.273-.284h.543zm-.27 73.892v.284h-.273v-.57l.267.286h.004zm.813-73.4l-.268.284v-.287h.266l.002.003zm5.985 84.39l-.806-.777-.27-.566-.737-.286v-.287h.47l.538-.28-.81-.287-.203-1.065-.538-.57-.737.355-1.076-1.132h-1.075l-.538-.288.542-1.134v.85h2.084l2.624 2.056v.712h1.008l.807.778v.425l-.807-.426-.2.284.337.717 2.22.425-1.012.21-.266.568-.272-.287h-1.28l-.005.01zm-.806 3.62l-.54.495-1.008-1.06-.27-.568h-.808l-1.818-1.91.538-.568h-1.078v-1.77l.943-.426 4.303 3.615.27.287 1.01.502.805.85 1.547 1.06.808.856-1.076.28-1.075.356-1.28-.638-1.277-1.346.004-.015zm-4.708-4.394h.537v-.563l-.538.57v-.006zm1.612-2.837l1.01.354h.807l-.27.784-1.547-.497v-.64zm3.095-1.843l-.268-.287h1.55v.57l-1.01-.283h-.273zm12.514 8.796l-1.01-1.13h-.267l-.876-.852-.872.425.403.427h-.604l-1.748-1.347.404-1.137h-.74l-.404.853-.27-1.35-.54.286-.27-.566h-.737l-.536-.572v-.85h-.807l-.605-.927-1.347-.99.405-.782-.268-.57 1.346-.35 6.256 5.038.47.567.808.494 1.008.85.81.563 2.35 1.918 1.276.922v.712h-1.818l-1.28-1.35-.537-.282zm-4.572 1.915l-1.145-.85h-.807l-.74-.778 1.006-.353V90.36h-.27l-.27.85-.468-.28-.27-.566h-.81v.282l.272.286h-.537l-.27-1.63-.266-.284-.2.285h-1.075v-.283l.808-.285v-.568h.742l.538.287h.947l.47 1.065 1.348.495.604.635v.287h.27l3.432 2.62v.43l-1.614-.567h-1.68l-.018-.015zM183.5 86.81v.287l-.265-.284h.27l-.004-.002zm11.71 1.064l-.27-.778-1.01-.287-.808-.856-1.546-.783-1.818-1.91h-1.075l.604 1.204 1.48 1.132v.353h-.466l-.537-.498-1.075-.85-.47-.568-1.076-.778-.267-.287-.737-.57v-.568h.47l1.348 1.132h.67l-.803-1.275 1.68.424h.47l1.347 1.137 2.09 1.342.265.282 1.014.568 1.345 1.347 1.818 1.417v1.065h-.538l-1.546-1.633-.54.208-.02.026zm-2.62-4.895l-1.01-1.137h.805l.204.28.808.57.804 1.065h-.537l-.804-.784h-.266l-.005.005zm-.738 3.83h.533v.567h-.538v-.568h.005zm1.813 1.346v.28l-.267-.285h.267v.006zm1.008-6.882h.538v1.132h-.537v-1.132zm0 3.047h.538l1.076 1.137-.405.354-1.212-1.208v-.286l.005.005zm0 4.686l.804.85h-.81v-.85h.006zm1.075-5.745V81.84l1.75.926-.674.707-.272-.21h-.81.006zm1.076 2.412l.465.564v.568h-.267l-.47-1.137h.27v.005z" fill="#76A9D8"/><path d="M206.445 95.524l-1.008-1.063V88.08l-.27-7.588.407-2.2-.406-11.202.406-2.622-.406-11.202.406-2.13-.406-11.274.406-2.622-.406-11.13.406-2.197-.406-11.273.27-1.772V1.772l.875-.85 1.748-.497h10.425l1.408.78.405 1.134v4.11l.4 2.125-.405 3.4v7.942l.266 1.418v3.548l1.545-1.63.538-1.704 1.48-1.563.87-2.267 1.48-.92.465-1.988 1.95-2.056.472-1.562L231 9.216l4.903-7.798 1.82-.993H250.3l1.816.638.743 1.56v1.133l-1.814 2.2-1.546 2.413-1.075 1.417-.737 1.632-1.547 1.628-.802 1.703-1.275 1.63-.538 1.066-1.817 2.48-1.818 3.047-1.613 1.915-1.22 2.197-2.694 3.83-2.085 3.333-3.026 4.18-.605 1.563-1.48 1.562.94 2.06 1.483 2.264 2.152 4.33 1.95 2.91 1.61 4.326 2.425 4.536.537.855 1.343 2.765 1.28 2.202 3.16 6.313 2.69 4.254 2.622 6.595 1.135 1.776 1.89 3.83 1.546 2.765v1.142l-.537.496-2.36.856h-9.078l-1.884-.286h-2.354l-1.28-1.347-1.014-2.196v-1.275l-2.288-2.975-1.885-4.045-.738-1.915-1.142-1.914-7.265-14.536-.676-1.772-.61-.993-.538 3.83v8.018l.4 2.125-.405 3.333v8.233l.4 2.202-.47 3.472-.81 1.77-3.298.288-1.818-.282h-7.844l.007-.036zm9.487-.637l1.208-.426 1.618-.282.47-.57V58.436h.743l.81 2.555 1.613 2.417 2.355 4.89 1.546 2.77 6.528 13.193.543.85 3.026 5.463 1.347 3.482 4.04.85 1.75-.707v-.28l-.808-.288-1.547-.845h-.804l1.074 1.137h-.537l-1.546-.85-2.62-2.76v-.215h.537l1.28 1.347 1.55.85h.533l-4.577-3.897-.405-1.065-1.007-1.13v-.283h.61l4.366 3.896 1.55 1.065.54.57 1.545 1.064 2.152 1.986h7.2v-1.49l-1.953-3.404-.877-2.27-5.852-10.356-2.08-5.105-.944-1.562-1.28-2.77-1.613-2.478-.742-1.628-.808-1.418-2.893-6.032-.74-.85v-.282l-.54-.778-.805-.425-.81.425-1.75-1.418-1.956-1.347-3.564-3.26-4.373-3.616h.737v-.61l-.332-.353-.81.425-1.208-.567-.537-.567-1.818-1.277v.424l1.813 1.913v.285h-.205l-2.084-2.2v-.495l-.544-.566h-.81v-.71l1.348-.708-1.147-.78.737-.354 4.306 3.333 1.275 1.42 1.075.568.205.21 5.786 4.685.472-.497h.266l-.266.497 2.35 2.483v.85l1.613 1.07.204.28h.27v-.634l-1.812-3.19-2.626-5.247-1.28-2.268v-.712l1.28-1.418 2.35-3.83 1.35-1.628 3.09-4.963 1.545-2.196 2.084-3.332 1.685-2.058.942-2.054 1.84-2.207.808-1.634 1.546-1.912.54-1.137 2.284-2.837 1.08-2.34 1.343-1.418 1.012-1.914 1.074-1.065V2.34l-.538-.497-4.372-.352-2.693.283h-7.065l-1.28 1.984-1.275 1.632-1.075 1.914-1.142 1.49-.673 1.915-1.48.992-.672 2.268-1.68 1.136-.473 2.482-1.613 1.135-1.077 2.057-1.076 1.63-1.01 1.92-2.15 2.556-.942 2.058-.338-1.843V2.628l-.67-.71-10.696-.425-1.414.707v7.868l.54 2.482h.266l.267-.566.404.425.405-.426.2.57.81.212 3.902 2.766 1.546 1.628 1.08.85.272.287 1.55 1.062v.783l-1.274-.922v.57l1.546 1.064v1.132l-.81-.425h-.47l.61 1.066-1.408-.778-.804-.78-1.075-.85.737-.352-1.214-1.28h-.548v.425l.81.354v.57l-1.078-.57-.74-.778-1.075-.568v-.563h1.074l.543-.282h.977v-.492l-1.275-.705v.712l-.408.358-1.68-1.208-.807-.282.538-.568.27-.497-.874.425-.74-.712v-.28l-2.087-1.133v10.967l.47 1.345-.475 1.704V37.23l.404 1.915-.404 1.134v10.71l.404 1.56-.404 1.49v10.423l.404 1.632-.404 1.7V78.22l.404 1.486-.404 1.563v7.377l.266.85-.27.282v1.914l.603 2.764h6.467l2.425.425.002.004zm9.078-58.436l-.802-.567-.812-.85-.737-.497-1.076-.85-1.01-.71v-.354h1.814l-1.075-1.135-.472-.285-1.074-1.063-2.078-1.704-3.364-2.976-.81-.568-1.545-1.347-1.077-.568-.47-.567-2.49-2.197-.67-1.065v-.85l-.266-.852v-.78l-.333-.994.876.427.27.28 2.157 1.847-.605.635h.538l.543-.287.2.28-.338.426.337.355.272-.497.537.497v.568l.672.707.61-.707 1.884 1.915v.563h.47v.283l-1.208.353.937.993 1.618 1.136 1.546 1.628.808 1.633 1.547.85h1.008v-.834l.538-.285.267-.496 1.01 1.065 2.354 1.63.794.85 1.014.564 2.017 2.06-.676.706-1.41-.783.4.85 1.01.706.27.567-1.75.354-1.41-1.49h-.743v.497l2.42 1.915-.536.497-1.883-1.49-.017.01zm-2.352 2.767v-.284l-.54-.282v-.28l-.266-.57.267-.28-3.027-1.275-.337-.353-.806-.57-.27-.28-1.012-.778-.538-.564-2.09-1.49v-1.28h-.265l-.272.564-.542-.282v-.568l.538-.497-1.346-2.125-1.01-.353h-.74v-.57l-1.082.287.804.85.738.354v.922l-1.01-.778-.808-.783-.742-.568-.272-.568.67-.353-1.48-1.56.605-.354-1.146-2.412.336-.988.738.712.537 1.203.805-.352 2.017 1.346-.742.287h-.538v.354l2.084 1.843L214 28.734l2.622 1.7 1.013 1.065 1.547 1.135.266.21.804.57 6.118 5.032-.942.998v1.418h-1.01l-.265-.28-1.55-1.348.055-.018zm-8.072-25.034l-.737-.354-.61-1.28-1.55-.57-1.274-1.418-1.347-.85-2.287-2.058.738-.36-.536-.567V5.662l7.803 6.595 1.617 1.065 1.88 2.053-.334.706v.713l-1.817-.993-1.547-1.633v.016zM212.5 50.99l-2.09-1.916-2.288-1.774-1.147-1.772h.943l1.95 1.632 2.622 2.765 1.817 1.346.466.85-.2.283h-.542l-.265-.287-1.28-1.137.015.01zm-3.164 42.905l-.81-.287h-.808l-.543-1.558.405-.424-.605-1.918 1.347.358 1.142.784-.47-2.34-.544.497-.676-.354v-1.06l-.81-.855h1.547l1.614 1.352 3.093 2.202h.266l-.266-.497-1.552-1.13-2.35-2.485v-.85l-1.817-1.556v-1.418l-.338-1.347 5.586 4.54 2.82 1.772h.538l-.266-.85.266-.287-.537-.49v.833l-3.635-3.335h.737l.403-.782 3.77 3.477 1.074.564v.85l-.266.57-.27-.283v-.358l-1.142.352.604 1.342-.205.28-1.347-1.13-1.546-1.065-1.884-1.635h-.916l.807 1.275 1.48.927 1.55 1.628 1.88 1.28v.635l-.402.43.606.917-.205.28v.846h-.938l-2.488-1.7v.354l1.208 1.914h-.404l-.266-.285h-4.443l.006.02zm4.705-21.21l-1.817-1.912-4.31-3.548-.876-1.352h.737l2.622 2.202 1.275 1.34 1.01.57 1.612 1.628 1.003.563.267.492-.267.568h-.537l-.2-.287-.543-.293.026.03zm0-2.975l-1.345-1.63-1.752-.923-.337-.78-3.098-2.55v-.42l1.01.28 1.074 1.066h1.275l-1.01-.568-1.08-1.06-1.55-1.275v-.64l.266-.28.404-.918 1.413 1.49-.333.712.605.353.803.855 4.373 3.83 2.084 1.633 1.34 1.418h-1.074l-.266.215.266.57.875.495.605 1.21-.937-.283v.706l-3.23-2.625-.405-.857.026-.023zm-5.984 3.548l.266.353.47.144.406-.426.942.21h.604l3.026 2.696.804.922v-.07h.47l1.347 1.134 1.41.992-.677.64-1.275-1.347-.742-.353-2.29-.28-1.678-.918v-.64l-.543-.28-2.017-1.916h-.538l-.81-.85h.81l.016-.01zm.266-68.15v.564h-.27l-.54-.568h.805l.005.003zm1.28 40.915l-.814-.496-1.28-1.42v-.352l.81.353 1.28 1.42 1.274.633v.918l-1.014-.778-.266-.287.01.01zm-2.09 30.28h.267l.537.568v.21l-.81-.352v-.43l.006.005zm3.636 5.248l-3.635-3.05v-.57h.538l.267.64 1.28.493v-.57l-1.08-.567v-.563h.537l1.546 1.418-.604.99 1.413.92 1.274 1.352v.42l-.742-.425-.538.277-.27-.282v-.502l.014.02zm-3.502-46.73h.67l.2.497.538.85-.338.353.743 1.204-1.28-.64-.54-2.27.006.007zm1.95 23.896l-1.28-.85-.608-1.28.338-.354.737.78 1.346.85.742.85 2.08 1.842v.635l-2.76-1.845-.605-.64.01.01zM207.78 28.43l.27-.28 2.827 2.262v.994l-3.098-2.412v-.568.005zm.27 2.766l-.27-.282V29.85l2.083 2.2h-.81l-.403.425-.604-.71V31.2l.005-.002zm-.27 10.214h.27l.267.21-.27.282-.273-.287V41.4l.005.01zm0 7.09l.537.283.2.568h-.205l-.538-.567v-.287l.005.005zm4.71 9.642l-1.347-1.346h-1.014l.337-.784-1.68-.92-.74-1.635.603-.286-.876-1.35v-.57l.538-.28.737.85.27.782h.538l.538.57 2.283 1.914 1.074 1.13.538.283 1.01 1.064v.286h-.54l-2.282-1.632v.568l1.28 1.346 1.546 1.065v.494l-2.217-1.56h-.605l.005.012zm-3.697 11.848l-1.014-1.137v-.71l3.896 3.332v.716h-.267l-1.547-1.698-1.075-.497.005-.005zm7.066-59.93l-1.082-.568-2.09-2.202v-.28h-.736l-1.075-1.066-2.96-2.483 1.142-.568 1.346 1.06 1.01.568 1.273 1.414 1.34.778.272.28 2.084 1.63 1.275 1.418v1.56l-1.013-.782-.804-.783.016.025zm-7.8 23.337l1.004.57v.705l-1.008-.568v-.707h.005zm.267 25.815h.737l.804.845v.282h-.537l-1.013-.713v-.425l.01.01zm0 12.55l.942.49.47 1h-.676l-.742-.784v-.707h.005zm1.28-45.246h.266v-.287l-.81-.784h-.536l1.075 1.06.005.01zm-.814-2.765h.266l-.272-.214v.21l.005.005zm0 15.458h.266l.808.78v.85l-.266.562-.476-.497-.338-1.705.005.01zm.538 11.203l-.542-.782h.538l.803.568v.778l-.272-.287-.538-.286.01.01zm5.25-39.853l-2.09-1.065-3.43-2.98V6.16h.537l2.62 2.195.74.564 1.074.848 1.28.922v.425h-.736v-.563l.005.005zM225.744 46.3l-.27-.784-.34.707-.675-.712-.537-.286h1.275l-1.004-1.418-1.08-.496-.47-.57-3.903-3.05-.74-.712-.877.425-.737-.783-.676-.354-.67-.783-1.42-1.915-.47-.143-.676-.425v-.492l-.81-.855h1.28l-1.207-1.346-.404 1.556-.743-.783h-.737l-.538-.287.538-.215.27-.282h1.01l.538-1.208 2.09 1.7.537.568.466.282 1.347 1.137 7.265 6.026.537.282 1.076 1.065.2.85.27-.28h.272v.85l.533.495v.57l.552.864.272.778.466.85-.272.282h-.74V46.28h-.805l.01.02zm-15.34 38.784h.472v-.564l-1.28-.71v.71l.804.564h.006zm-.536-68.715l.736.567-.2.212-.537-.493V16.37zm1.545 21.984l-1.28-.85-.27-.497h.265l.737.497h1.075v-.778h.272l1.006 1.062v.568h-.405l-.47-.988-.403.425v.568l.538.288v.425l-.81-.423-.265-.285.01-.01zM209.87 54.31h.265l-.27-.282v.287l.004-.005zm1.545 7.946l-.81-.778-.603-.353.404-.917.743.425.53 1.062 1.548 1.137 1.075 1.06h-.543l-.81-.78-1.545-.85.01-.006zm2.627-56.305l-1.08-1.13-.738-.568-.27-.282-.805-.497-.744-.85h.605l1.946 1.35.272.28.537.283 1.004.85.536.28 1.342 1.066h.47l-.47-.783-1.077-.564v-.563l-.806-.287-.2-.57-1.346-.854v-.634l1.817.5v-.99l1.076.352 1.347.356.737.78v1.062h-.532v.285l.81.844.265.784-1.075.564v.563l.67 1.347h-.4l-1.202-.63-2.688-2.345zm-3.636 32.13l.738.85h-.743v-.85h.006zm1.01 6.312l-.81-.778V41.91l-.2-.497v-.922l1.01.36 3.163 2.55v.71l-1.685-1.06.338.778.537.287v.568h-.266l-.266-.28h-1.818l-.005-.01zm-.272 7.445l-.272-.563.267-.283.534.57.81.567v.497h.466l-.267.287h-.47l-.34-.71-.738-.354.01-.01zm-.272 27.233h.538v.497h-.538v-.497zm.538-42.9v.284l-.27-.287h.266l.004.003zm0 10.992l.4-.427.41.427v.85l-.544-.28-.266-.57zm1.812-.85l-1.277-1.346.676-.356 1.68 1.704.47.283 1.75 1.772-.405.424-1.815-1.915-1.075-.568h-.003zm-1.006 33.827h.67l2.69 2.482v.497l-3.362-2.413v-.563l.002-.005zm.47-7.942l.542.286v.502l-.538-.292v-.502l-.005.006zm.82-49.214v.287l.54-1.13-.54.286h-.54v.287l.54.28v-.01zm-.268 11.28v-.282h-.27l.27.287v-.006zm.272-12.41v-.283h-.267l.267.288v-.005zm.343 26.664l6.45 5.243.073.072-.205.072-.404.425v-.283l-.333.144-6.19-5.39.61-.282zm-.338 4.398l1.08.85h-.804l-.536-.85h.27-.01zm0 8.58l.537.503h-.266l-.537-.498h.265v-.005zm3.16 19.79l-.54-.57-.265.565h-.338l-.466-1.418-1.01-1.06h.544l.47.497 2.29 1.842.338.64h-.272l-.27-.286-.472-.21h-.01zm-2.085-65.46V15.4l.737.426v.558l-.266-.284-.47-.285v.01zm.2 24.75h.81l-.805-.85-.2.282.2.57h-.005zm0 21.98l.542.574h-.266l-.47-.568h.2l-.006-.005zm.81 3.836l-1.005-.784V64.19h.604l2.488 1.915.81.425v1.275l.265.496v.57l-1.347-.784-1.812-1.705-.005.012zm-.534-22.554l1.613 1.7v.28l-1.61-1.28v-.71l-.004.01zm.27 1.987l.268.21-.267.286-.266-.286.273-.215-.006.005zm.544 7.94l-.804-.85v-.783l2.084 1.63 1.618 1.063v.85h-.537l-1.55-1.633-.805-.287-.005.01zm-.804 1.63V53.76l2.622 2.765h-.81l-1.008-1.137h-.804v.006zm0 19.286h.533l.542.216-.267.276-.804-.28v-.216l-.004.005zm1.608-59.57v-.354l-1.34-1.065v.78l1.34.64zm-.67-3.83l.67.706-.266.282-.814-.568.404-.425.005.005zm-.405 8.934h.27v-.286l-.27-.287v.574zm0 42.972l2.354 1.844h-.538l-1.817-1.275v-.574.006zm.536-46.52l.272.282v.215l-.543-.21.266-.287h.006zm.87 58.148l-.598-.988-.538-.287v-.636l1.275.922 1.69 1.77-.338.426-.538-.568-.943-.64h-.01zm-.87 8.37v.283l-.266-.282h.266zm1.28-21.487l-.942-.282-.47-1.065h.67l1.014 1.13v1.06l-.272-.28v-.563zm-1.274-33.26l.27.287v.28l-.27-.28v-.287zm.27 18.155h-.27v-.282l.27.282zm-.27 30.28l.27-.57h.738l.27.288h.54l.536.496-.27.285-1.552-.496h-.536l.003-.002zm.603-18.652l1.75 1.843v.78l-2.15-1.77.4-.856v.003zm.138-32.76v-.287l-.47-.568.334-1.065 1.75 1.915-.738.353-.34-.64-.537.287v.005zM228.936 59l-1.613-.85-2.09-2.198-3.698-2.625-4.91-4.536h.604l2.826 2.203.537.568.47.283.267.286 1.076.78 3.097 2.764 1.347.92 2.084 1.845 1.614 1.276-.676.78-.942-1.49.006-.005zm-12.252-12.113l.204-.285v-.573l.267-.214 1.817 1.275v.354l-.74.287-.81.426-.74-1.278.002.01zm0 36.802h.204l2.353 1.702h-.736l-1.616-1.134-.205-.57zm.47-54.39l.542.562h-.272l-.537-.568h.266l.002.005zm-.266 61.976l1.077.57v.562l-1.077-.57v-.567.006zm.267-79l.81.777v.568h-.27l-.54-.567v-.778zm.27 3.542h.27v-.282h-.27v.282zm.27 6.88v.283l-.27-.286h.27v.005zm-.27 24.464h.54v-.286h-.542v.287zm.54-29.148v.287l-.27-.286h.272zm.805 26.947v.57h-.27l-.544-.566h.804l.01-.003zm-.81 28.297l1.01.57-.205.28-.81-.568v-.283h.006zm.267 6.59l.538.287h-.543l-.266-.287h.271zm.272-31.836l.127-.137.604-.144.538.496 1.888 1.418 2.826 1.915 1.008.85v1.345l.272.287-.405.425-.338-.42v-.287l-1.613-.85-4.64-3.9v-.216l-.742-.354.472-.425.002-.004zm0-29.142h-.273v-.282l.272.282zm0 44.533h-.273v-.285l.272.286zm.802-32.265l.743.36v.71l-1.08-.71.332-.355.005-.005zm.2 14.894v.286l-.27-.287h.27zm8.878 18.15l-.537-.492-1.014-.85-1.076-1.136-1.547-.78-.273-.85-2.352-1.627-.537-.563-1.818-1.28v-1.13l4.442 3.542 1.074 1.065 1.546 1.13.27.282 1.547 1.065 1.822 1.92v.286h-.272l-.266-.286-1.01-.287-.002-.01zm-7.065-16.732l.537.568h-.543v-.568h.005zm.266 7.946v.287l-.27.282V55.4h.27v-.006zm.272-13.968h.533l-.268-.28h-.267v.28h.002zm4.572 18.084l-.67-.28-1.28-.64v-.565l-.61-.215-.468-.496-1.54-1.347h1.074l.205.287.47.85.073-.067h.81l.403.85h.61l1.142 1.49.47-.215v.353l.81.502-.343.353h-.764l-.74-.706.334-.138.014-.016zm11.705 14.608h-.406l-.47-.57h-.805l-1.818-1.914h-.272l-.266-.28-.737-.57v-.496l-.538-.282-1.347-1.136h-.2l-1.884-1.915-2.56-1.905-2.087-2.19h-.81l-2.083-2.203v-.927l2.355 1.987.538.568 1.014.57 1.075 1.058 2.084 1.137v.85h.742l.27.502.534.287.27.28 1.015.855.27.282 1.348.993v.353l1.01.57 6.19 5.103-1.276.85-1.148-1.843-.013-.015zm-15.47-40.704v-.282l-.272-.282v.282l.272.287v-.006zm5.18-1.64l-.538-.282-2.09-1.632-.203-.568-1.614-1.065-.737-.85v-.568l.403.495.405-.92-.806-1.276 1.548-1.06.267-.282.737-.21v-.85l-.205-.57.204-.285h1.602l1.275 1.418 3.904 2.766 1.55 1.628v1.352l-1.212 1.346-1.078-.778h-.538v.425l.738.424.333.64-1.756.92-.4 1.138-1.012-.497-.81-.85.032-.01zm-4.912-1.136v-.215h-.266l.27.215h-.004zm1.55 4.183h.27l-.742-1.13h-1.075l1.537 1.13h.012zm-1.076 4.4h.538v-.284h-.538v.287-.004zm0 10.142l.81.565v.282h-.272l-.538-.57v-.278zm6.257-20.352h.536l-.537-.783h-.284l-1.536-1.695-1.01-.497-1.347-1.13-1.008-.568v.286l1.546 1.632.27.563h.267l2.087 1.132 1.014 1.065v-.005zm-4.91 21.412h.47l2.083 2.198h-.487l-2.085-2.2.02.002zm.265 14.892h-.266v-.29l.265.285v.004zm3.9 6.594l-.536-.28-.273-.85-1.275-1.353-.41-.855-1.208-.778v-1.134l-.2-.566.204-.5 1.075.778.814.568 1.006.85.537.287.538.492 2.558 1.914v.283h-1.014l-2.15-1.352h-.742l1.546 1.635 2.084 1.77-1.815-.352-.74-.568v.013zM226.56 33.4l-.803-.777h-.538l.81.778h.537-.006zm.405-8.084l.338-.425-.47-.562v-.563h-1.347l1.48 1.56v-.01zm7.398 36.378l-3.09-2.197-3.7-3.26-.333-.78-1.618-.85 1.68-.852.27.287-.266.282.27.28.537-.28 1.553 1.633 2.35 1.628.54.568.54.287.47.784.942 1.346.4 1.137 1.008.778v.927l-1.546-1.705-.006-.013zm-8.262-41.76h.74l1.01.785v-.493l-.876-.924.47-.568 1.21-.425-.472-.994 1.214-.64-.604-.993 1.68-.497v-.71l-.27-.564.34-.354 1.274.497-.338-1.203.804-.85v-1.148l.81-.497.332-.78.67-.353.27-.568.27-.283v-.496l1.275-.922V5.96l1.077-1.133.738-.284.47-1.275.605-.355h1.28l1.075-.287h2.623l2.217-.353 2.492 2.196-1.078 2.55h-.804l-1.817-1.28v.424l2.085 1.77V9l-1.95 1.42-2.223-1.773h-1.075l3.098 2.622-.47.424v.993l-.744.353v1.137h-1.075l-.603 1.346-1.55 1.065.876.85-1.547.353v1.563h-.804l-.803-.778h-.74l1.28 1.346v.57l-1.007.28-1.347-1.135h-.537l1.744 1.843-.937.92v1.916h-.542v.85l-.47.57h-.805v1.064h-1.075l-6.242-5.172-1.208-1.705-.017.015zm1.48 49.22h.27V68.3l-.538.282.266.57v.002zm.535-20.634h-.273l.266-.285v.282l.007.003zm-.266 4.68h.54l1.008 1.13h-.47l-1.076-1.132-.003.002zm0 12.124l.266-.284h-.273v.283h.007zm9.687 6.313l-1.618-1.63-.668-.36-.338-.782h-.543l-.803-.784-1.552-.85-.537-.85-.466-.28-.815-.784.404-.85 3.363 2.77h.4v-.286l-.272-.282-.27-.563-.47-.22-.54-.564-.736-.352-.338-.783-1.01-.492-1.074-1.136.538-.282h-1.01l-1.207-1.208.4-.42h1.003l.27.563.805.783.267.564h.737l.804.855 4.577 4.188.405.706.742.282.543.568-.338.354-1.213-.635-1.746-1.347h-.605v.287l2.084 1.915 3.026 2.2 1.147 1.635.538.568v.43l-1.547-.85-2.354-2.053.018-.023zm-7.332-49.5v-.284l-.805-.496v.358l.804.43.002-.008zm-.537 32.476h.536l1.28 1.347v.28l-1.14-.64-.677-.992.002.005zm3.43-32.48h.27l-1.618-1.635-1.28-.855h-.272l1.818 1.915 1.075.57.007.004zm-2.624-4.68h.268v-.288l-.27.282.003.005zm.807 56.094v.28h-.266l-.27-.285h.537v.005zm18.77 17.874h-.4l-1.21-.854-1.816-1.915h-.47l-1.614-1.633-1.884-1.346.338-.286-.538-.85-.61-1.35h-.69v1.207l-1.684-1.277.407-.778 1.01.778v-.993l-3.298-2.555-3.09-.85-3.77-2.98h.54l.47.287.814-.28.267-.57.272.287h.47l-.738-1.066-.27.497h-.278l-.266-.777h1.347l2.283 2.488.267.492.404-.353 4.04 3.117 1.816 1.633 1.818 1.28 3.164 2.91.804.495 1.55 1.7v.783l-.403.425.67.707.742 1.633v.57h-.466v-.572zm-19.03-13.194l-.272-.568h.537l1.145 1.275-.404.353-.272.563v-.282l-.47-.497-.266-.85.002.006zm3.762-14.182l-3.764-2.842v-.85h.466l.807.85 1.55 1.06 1.818 1.633 1.08.85.266.85.272.5h-.538l-1.95-2.057-.01.006zM232.56 72.2l-1.08-.855h1.346l1.145 1.203-.476.57-.937-.923.002.005zm0-15.39l.266.21h-.54l-.265-.213h.54v.002zm10.153 34.037l-3.092-2.765-2.622-1.63-3.63-3.83v-.286l2.085 1.346 1.28 1.42 1.546 1.064 2.09 1.7h.538l-1.28-1.417-1.075-.784-1.815-1.705-1.28-.777-1.075-1.132-.81-.57-1.346-1.412.4-.855.942.495v.43h.265l1.347.85 1.274 1.346.804.563 1.01.78 2.42 1.49 3.36 3.05 1.274.712.81.85.475.285 1.346 1.065 1.01.57.608 1.274 1.413.71-.67.713-3.77-.568-3.84-2.98.008-.003zm-9.887-14.54h.272v-.282h-.27v.284l-.002-.004zm.743-51.13l-.47-.564v.568h.47v-.002zm-.2 32.127l.736.85h-.737v-.85zm.736-34.324h.27l-.538-.57h-.268l.538.565-.002.005zm.81.778h.53l-.265-.213h-.27v.213h.005zm0 49.218l1.002 1.132-.47.287-.538-.57v-.85h.005zm.265-51.133h.467l-.205-.284h-.266v.286l.005-.003zm1.01 53.048l.4-.355 1.14 1.204-.337.357-.942-.64-.267-.566h.007zm.266 4.82l.804.427.27.287 1.814 1.275v.917h-.538l-2.353-2.478v-.43h.003zm6.523.992l-1.55-1.136-.27-.778-1.55-.57-1.074-1.133-.67-.354.537-.567.942.707.74.358v.707h.537l1.08.358v-.916l-1.276-.635.87-.855.676.714.804.426-.333.918-.47.57 1.545 1.632 1.147.92-.404.712-1.008-.497-.27-.567-.003-.01zm-2.642-68.445v-.28l-1.28-1.064v1.065h.538l.742.284v-.005zm-1.01 58.01l.536.497h-.537l-.272-.497h.272zm1.545-62.408h.27l-.804-.85h-.268v.424l.81.425h-.01zm-.54 67.865v.284h-.268v-.285h.27-.002zm1.812-61.838h.275l-.743-.85h-.27v.428l.736.425.002-.003zm-.466 74.747v-.282h-.272l.27.285v-.003zm.742.85h.266l-.538-.568h-.2l.473.568zm1.814-83.824v-.564h-.47l.47.568V5.66zm1.075 76.66v.288l-.27-.287h.27zm2.356-79.99l1.275.282h1.078v1.64h-.81l-2.55-1.916h1.005l.003-.007z" fill="#D8ABD7"/><path d="M.57 116.04v-1.49l.284-1.115v-11.63l6.294-.974 10.255.602 3.395-.67 10.255.665 2.125-.45h4.388l2.688.67.568 1.264-.563 1.712.352 1.858v10.363l-1.13.6h-2.408l-1.13.296h-10.13l-1.836-.446-1.767.45h-9.83l-1.98-.38-1.627.375H2.196L.57 116.02v.02zm10.962.526h1.91l-1.98-.297-2.405-2.535-.778-.604-.283-.296-4.245-2.985-.425-1.342-.568-1.193.562-.226.282-1.27.778 1.264h.282l1.623.82.568.593 1.27.666.635 1.34h.706l2.048 1.722 2.335 1.638 1.34 2.09-1.203.373h4.03l.425-1.347-1.06.522-.85-.45-.353-.82h-.283l-1.203-.6-.707-1.115-1.13-.594-1.348-1.122-.57-.3v-1.117l-.496.22H9.88l-1.13-1.71h-.497l-.845-.82v-1.192l-1.264.688-2.048-2.086v-.3l-.21-.297.212-.297 1.7.45.778-.445 1.413.594 2.97 2.243v1.188h.564l1.274 1.044.92 1.27 1.13.594.78.9v.825l.565-.3v.67l1.345.522 1.694 1.413 1.344.973v.82h3.25l2.055.373 6.226-.593-3.04-.67-1.63-1.42-1.13-.895-1.342-1.418-.85-.445v-1.046l.566-.292-.706-.368-.64.665-1.202-.595-7.07-5.734-.28-.675 1.413.38h1.06v-.703l1.766.45 1.557 1.633 1.626.896 2.475 2.613h.564l3.538 2.903.85.522 1.626 1.787 1.13.517.215.297 1.415.966v.594l-1.84-.522-.353.446.567.302h4.878l1.628.29.563-.598v-9.83l-.21-1.413-.354-2.314H29.63l-1.983-.358-4.884.37h-6.845l-1.697-.375-4.88.37H5.52l-3.605.296v12.97l.567.598h3.323l-.566-.598-1.133-.6-.495-1.115-1.13-1.193.565-.303.635-1.637.993 1.045 3.322 2.31 1.697 1.867 1.838.446v.026zm-3.535-4.322l.773-.528h-.773l-.287.23.282.3.005-.002zm12.585.597l-1.275-.675-.353-.743-.497.448-.353-.746-.57-.302-.285-.6-1.06-.598-.283-.522-.85-.297-.215-.302-3.323-2.315-2.264-2.386 3.323-.67 1.694 1.34 1.628 1.71 3.323 2.91.492.3 1.13.815 2.192 1.567 4.454 3.948H23.32l-2.76-2.903.022.02zm15.345 2.306l-.707.376-.922-.97-.28-1.117h-1.27l-.636-1.49-1.137-.524-.778-.896-.85-.298v-.596l-1.91-.743-.568-1.27H25.6l-.918-1.418-.567-.298-.284-.303-.494-.303-.568-1.413-.706.743-.64-.743.21-.302h.844l.282-.297h2.19l2.474 1.71 6.01 4.926.283.293 3.04 2.386v.818l.492-.523.282 1.117.706 1.04-1.63.895-.705-.824.027.023zm0-4.622h-.707l-.425-1.262-.778.37v-.525l-1.137-1.188-.778-.304-.287-.518h-.84v-.602l-1.626-.59-2.476-2.612v-.298l1.91.298.85.3 2.544.373 5.658 4.7v1.27l.28.896v.89l-1.34-.29-.85-.897v-.012zm-3.538.3h.21l-.217-.3h-.28l.28.3h.006zm2.68-5.518l-.777-.52-.85-.894h4.173l.635 1.938-.567 1.265h-.917l-1.7-1.792.005.003zm1.358 10.734v-1.485l.282-1.116v-11.633l6.292-.973 10.25.604 3.395-.67 10.256.67 2.12-.445h4.382l2.683.675.563 1.265-.567 1.715.353 1.864v10.368l-1.132.6h-2.4l-1.132.3H61.66l-1.838-.45-1.772.45h-9.804l-1.982-.373-1.625.374H38.06l-1.625-1.72-.01-.02zm10.962.528h1.91l-1.98-.297-2.408-2.534-.778-.6-.287-.29-4.244-2.98-.425-1.342-.57-1.193.57-.22.28-1.27.78 1.27h.28l1.624.825.57.6 1.273.665.635 1.34h.707l2.053 1.722 2.33 1.638 1.346 2.09-1.203.373h4.03l.42-1.347-1.06.528-.85-.446-.354-.82h-.282l-1.188-.613-.707-1.117-1.13-.588-1.348-1.122-.568-.297v-1.115l-.497.22h-.563l-1.132-1.71h-.496l-.85-.82v-1.192l-1.276.67-2.053-2.083v-.297l-.21-.292.21-.296 1.696.45.778-.445 1.413.593 2.97 2.243v1.193h.568l1.27 1.043.916 1.27 1.133.594.778.896v.82l.564-.298v.666l1.34.523 1.696 1.418 1.342.974v.82h3.25l2.054.373 6.22-.594-3.04-.67-1.63-1.42-1.13-.895-1.342-1.418-.85-.446v-1.044l.564-.292-.707-.374-.634.67-1.203-.598-7.07-5.74-.284-.673 1.417.38h1.06v-.672l1.772.447 1.555 1.638 1.628.896 2.476 2.607h.567l3.538 2.908.845.523 1.628 1.792 1.137.517.21.297 1.413.973v.6l-1.838-.524-.354.446.57.3h4.878l1.628.295.563-.594v-9.85l-.21-1.413-.353-2.314h-9.267l-1.976-.37-4.88.37h-6.86l-1.696-.37-4.88.37H41.37l-3.605.302v12.97l.568.598h3.323l-.563-.6-1.13-.598-.498-1.117-1.126-1.192.567-.308.635-1.638.988 1.044 3.328 2.31 1.695 1.863 1.843.446-.006-.025zm-3.538-4.322l.78-.527h-.78l-.286.23.28.3.006-.004zm12.585.6l-1.275-.677-.353-.743-.498.45-.353-.747-.57-.297-.286-.6-1.06-.593-.28-.522-.85-.292-.21-.297-3.324-2.315-2.263-2.386 3.323-.667 1.695 1.347 1.623 1.715 3.322 2.908.497.302 1.132.82 2.19 1.566 4.454 3.954h-4.167l-2.76-2.903.01-.025zm15.345 2.303l-.707.378-.92-.967-.283-1.116h-1.264l-.635-1.49-1.13-.522-.778-.896-.85-.297v-.595l-1.91-.742-.566-1.27h-1.274l-.92-1.413-.565-.297-.284-.297-.493-.297-.563-1.414-.707.742-.635-.742.21-.297h.85l.282-.298h2.19l2.48 1.71 6.01 4.93.282.293 3.04 2.386v.825l.498-.522.28 1.116.713 1.043-1.628.9-.707-.823-.016-.03zm0-4.62h-.707l-.425-1.258-.778.368v-.527l-1.13-1.188-.78-.302-.286-.517h-.85v-.61l-1.628-.59-2.48-2.612v-.298l1.91.298.85.3 2.546.373 5.657 4.7v1.27l.283.896v.89l-1.347-.29-.85-.897.016-.005zm-3.538.303h.21l-.215-.297h-.283l.282.302.004-.005zm2.683-5.52l-.778-.516-.85-.89h4.17l.64 1.934-.567 1.27h-.92l-1.696-1.79v-.006zm1.357 10.737v-1.484l.28-1.117v-11.633l6.294-.973 10.25.604 3.395-.67 10.25.67 2.125-.445h4.382l2.688.67.563 1.27-.567 1.715.353 1.864v10.368l-1.13.6h-2.407l-1.133.3h-10.09l-1.84-.444-1.77.45H84.1l-1.98-.373-1.625.378h-6.58l-1.626-1.72-.006-.03zm10.962.528h1.904l-1.976-.297-2.407-2.534-.778-.6-.282-.296-4.245-2.98-.425-1.34-.568-1.194.563-.225.282-1.27.778 1.27h.282l1.628.825.563.6 1.27.67.635 1.34h.707l2.053 1.722 2.335 1.638 1.34 2.09-1.202.373h4.035l.42-1.347-1.06.53-.85-.447-.348-.82h-.282l-1.193-.613-.706-1.117-1.133-.593-1.347-1.122-.563-.297v-1.115l-.496.22h-.568l-1.13-1.71h-.498l-.85-.82v-1.192l-1.275.67-2.054-2.083v-.297l-.215-.292.21-.296 1.696.45.778-.445 1.413.593 2.97 2.243v1.188h.563l1.27 1.044.916 1.27 1.132.594.778.896v.824l.563-.302v.666l1.34.522 1.695 1.418 1.342.973v.823h3.256l2.048.374 6.222-.6-3.04-.67-1.63-1.418-1.13-.892-1.348-1.418-.85-.446v-1.044l.564-.292-.707-.374-.634.67-1.203-.598-7.07-5.74-.282-.676 1.414.374h1.06v-.67l1.772.45 1.55 1.635 1.63.9 2.472 2.61h.563l3.54 2.91.85.527 1.627 1.792 1.132.516.214.297 1.413.97v.597l-1.838-.523-.354.446.563.302h4.878l1.626.294.563-.595v-9.855l-.21-1.413-.355-2.314h-9.237l-1.982-.37-4.88.37H87.61l-1.694-.37-4.88.375H77.22l-3.605.302v12.974l.567.6h3.323l-.566-.6-1.132-.6-.494-1.115-1.132-1.192.563-.302.64-1.638.994 1.046 3.322 2.304 1.7 1.864 1.833.445.01-.03zm-3.538-4.32l.778-.53h-.778l-.282.232.282.297zm12.59.598l-1.275-.676-.353-.743-.497.45-.353-.747-.57-.297-.285-.594-1.06-.594-.287-.523-.85-.292-.21-.295-3.323-2.315-2.263-2.386 3.323-.665 1.7 1.345 1.623 1.716 3.323 2.91.498.3 1.13.82 2.192 1.567 4.455 3.952h-4.173l-2.76-2.904.016-.03zm15.344 2.304l-.706.378-.922-.967-.287-1.115h-1.274l-.64-1.49-1.132-.523-.777-.896-.85-.297v-.594l-1.91-.743-.563-1.27h-1.275l-.922-1.413-.563-.297-.28-.297-.498-.302-.563-1.413-.708.744-.64-.743.21-.296h.866l.282-.297h2.19l2.476 1.71 6.01 4.926.285.297 3.042 2.386v.824l.497-.522.28 1.116.707 1.044-1.628.9-.708-.823v-.025zm0-4.62h-.706l-.425-1.258-.777.368v-.527l-1.132-1.188-.777-.302-.287-.517h-.85v-.62l-1.628-.59-2.473-2.612v-.298l1.91.298.845.3 2.544.373 5.658 4.7v1.27l.28.896v.89l-1.34-.29-.85-.897.01.005zm-3.538.303h.21l-.215-.297h-.287l.28.303.01-.007zm2.683-5.52l-.778-.516-.85-.896h4.172l.635 1.94-.568 1.27h-.918l-1.7-1.79.005-.006zm1.357 10.738v-1.484l.282-1.116v-11.633l6.292-.973 10.256.6 3.394-.67 10.255.664 2.12-.445h4.383l2.688.67.563 1.27-.568 1.71.352 1.864v10.368l-1.13.6h-2.403l-1.132.3h-10.112l-1.838-.45-1.767.45h-9.83l-1.98-.373-1.63.38h-6.567l-1.628-1.72v-.01zm10.962.528h1.91l-1.982-.297-2.406-2.533-.768-.604-.287-.292-4.244-2.984-.426-1.342-.57-1.193.565-.22.28-1.27.773 1.27h.282l1.623.825.568.6 1.27.665.635 1.342h.708l2.048 1.72 2.334 1.638 1.342 2.09-1.198.373h4.03l.424-1.347-1.06.528-.85-.45-.353-.82h-.287l-1.198-.6-.706-1.115-1.132-.59-1.346-1.12-.564-.303v-1.116l-.496.22h-.57l-1.13-1.71h-.492l-.85-.82v-1.192l-1.274.67-2.048-2.083v-.302l-.21-.297.21-.297 1.7.45.778-.446 1.413.594 2.97 2.238v1.193h.563l1.274 1.043.922 1.27 1.132.594.778.896v.824l.568-.297v.666l1.342.522 1.694 1.418 1.342.973v.818h3.256l2.053.374 6.22-.594-3.04-.67-1.628-1.42-1.133-.89-1.347-1.423-.844-.445v-1.045l.563-.292-.708-.374-.635.665-1.203-.594-7.07-5.738-.287-.676 1.413.38h1.06v-.672l1.766.445 1.55 1.633 1.63.9 2.473 2.612h.567l3.533 2.908.85.528 1.628 1.787 1.13.518.21.296 1.414.974v.6l-1.838-.523-.353.447.57.307h4.88l1.627.292.568-.6v-9.856l-.215-1.418-.353-2.314h-9.23l-1.98-.374-4.88.368h-6.863l-1.696-.368-4.877.37h-3.818l-3.61.302v12.97l.563.598h3.323l-.566-.6-1.13-.598-.493-1.116-1.133-1.193.565-.302.635-1.64.988 1.046 3.323 2.31 1.695 1.864 1.838.445.006-.002zm-3.538-4.32l.778-.53h-.778l-.287.232.283.302.005-.005zm12.585.598l-1.275-.676-.353-.742-.492.45-.353-.747-.568-.296-.287-.6-1.06-.593-.28-.522-.85-.29-.216-.298-3.324-2.315-2.263-2.386 3.323-.666 1.7 1.346 1.623 1.716 3.32 2.908.498.302 1.126.82 2.197 1.57 4.455 3.954h-4.172l-2.76-2.903.01-.03zm15.345 2.304l-.707.38-.92-.97-.287-1.115h-1.27l-.64-1.49-1.13-.522-.78-.896-.85-.297v-.594l-1.904-.743-.57-1.27h-1.27l-.92-1.412-.57-.296-.286-.297-.497-.302-.563-1.414-.706.744-.635-.743.215-.296h.85l.28-.297h2.193l2.48 1.71 6.005 4.926.28.297 3.037 2.386v.824l.497-.522.28 1.116.707 1.045-1.628.9-.708-.825.016-.025zm0-4.618h-.707l-.424-1.26-.778.37v-.53l-1.132-1.187-.778-.302-.28-.517h-.85v-.63l-1.624-.59-2.478-2.612v-.298l1.91.298.844.3 2.545.373 5.657 4.7v1.27l.282.896v.89l-1.347-.29-.85-.897.01.016zm-3.538.302h.21l-.21-.297h-.287l.282.302.005-.006zm2.683-5.52l-.78-.517-.848-.896h4.172l.635 1.942-.563 1.27h-.923l-1.694-1.793v-.006zM144 116.07v-1.49l.28-1.115v-11.633l6.3-.973 10.25.598 3.393-.67 10.256.665 2.124-.445h4.382l2.688.676.564 1.264-.564 1.716.354 1.863v10.363l-1.132.594h-2.406l-1.132.302h-10.09l-1.84-.445-1.77.45h-9.83l-1.982-.373-1.623.38h-6.574l-1.624-1.72-.027-.006zm10.96.528h1.91l-1.975-.297-2.407-2.533-.778-.6-.287-.29-4.244-2.986-.42-1.34-.564-1.193.563-.22.28-1.265.78 1.27h.28l1.63.82.562.593 1.275.67.635 1.342h.706l2.053 1.72 2.33 1.64 1.342 2.088-1.203.373h4.03l.424-1.346-1.065.527-.85-.446-.355-.82h-.28l-1.204-.6-.706-1.115-1.13-.595-1.343-1.12-.567-.303v-1.116l-.497.22h-.568l-1.132-1.71h-.496l-.85-.82v-1.192l-1.27.67-2.053-2.088v-.297l-.21-.293.21-.297 1.695.45.778-.445 1.413.594 2.975 2.236v1.188h.563l1.27 1.05.917 1.27 1.132.593.777.896v.825l.563-.302v.665l1.342.523 1.694 1.42 1.347.966v.824h3.25l2.05.373 6.22-.6-3.036-.67-1.634-1.418-1.126-.897-1.34-1.418-.85-.445v-1.045l.567-.292-.676-.41-.64.672-1.198-.594-7.07-5.74-.282-.67 1.413.38h1.06v-.67l1.772.45 1.557 1.632 1.622.902 2.478 2.61h.563l3.538 2.91.85.52 1.63 1.793 1.13.517.216.297 1.413.97v.598l-1.84-.522-.353.44.57.302h4.9l1.624.292.566-.6v-9.835l-.21-1.413-.354-2.314h-9.264l-1.98-.37-4.882.375h-6.858l-1.697-.368-4.878.368h-3.82l-3.606.302v12.97l.566.598h3.324l-.566-.6-1.132-.598-.497-1.116-1.135-1.194.563-.302.635-1.638.988 1.044 3.324 2.31 1.695 1.868 1.837.445-.016-.005zm-3.53-4.32l.777-.528h-.778l-.283.23.282.297zm12.59.593l-1.276-.675-.353-.742-.49.45-.36-.747-.568-.297-.28-.6-1.06-.594-.283-.522-.85-.292-.216-.302-3.323-2.315-2.262-2.386 3.323-.67 1.696 1.345 1.628 1.71 3.318 2.91.497.3 1.13.82 2.19 1.567 4.456 3.952h-4.173l-2.755-2.903.01-.01zm15.343 2.31l-.706.38-.922-.974-.28-1.116h-1.276l-.64-1.49-1.133-.522-.778-.896-.846-.297v-.594l-1.915-.74-.57-1.27h-1.27l-.915-1.42-.57-.296-.28-.297-.502-.297-.568-1.413-.707.742-.63-.743.21-.297h.85l.282-.297h2.196l2.468 1.71 6.016 4.925.282.297 3.062 2.365v.822l.497-.522.287 1.118.707 1.04-1.628.895-.707-.824-.017.01zm0-4.618h-.706l-.425-1.265-.778.37v-.53l-1.132-1.186-.778-.3-.282-.52h-.85v-.634l-1.623-.59-2.48-2.612v-.298l1.91.298.85.3 2.545.373 5.658 4.7v1.27l.287.896v.89l-1.347-.29-.85-.897v.026zm-3.538.297h.215l-.215-.298h-.286l.28.302.005-.005zm2.688-5.52l-.778-.518-.85-.89h4.173l.64 1.935-.568 1.27h-.906l-1.695-1.792-.017-.006zm1.352 10.736v-1.49l.282-1.116v-11.633l6.292-.976 10.25.602 3.394-.67 10.255.665 2.124-.45h4.383l2.688.67.563 1.265-.563 1.713.348 1.86v10.366l-1.132.598h-2.4l-1.13.302h-10.113l-1.84-.448-1.77.45h-9.804l-1.977-.378-1.63.374h-6.58l-1.63-1.72-.01.018zm10.962.522h1.905l-1.982-.297-2.4-2.533-.77-.604-.286-.292-4.244-2.984-.425-1.34-.57-1.194.57-.226.286-1.27.775 1.27h.28l1.63.825.568.595 1.275.67.634 1.342h.707l2.047 1.72 2.33 1.638 1.346 2.09-1.208.373h4.034l.42-1.346-1.06.527-.85-.447-.354-.824h-.28l-1.205-.605-.71-1.116-1.132-.59-1.346-1.12-.57-.303v-1.11l-.495.22h-.564l-1.13-1.71h-.493l-.85-.82v-1.193l-1.274.67-2.053-2.09v-.3l-.21-.298.21-.297 1.694.45.778-.45 1.42.593 2.968 2.238v1.19h.564l1.274 1.043.918 1.27 1.13.594.785.896v.82l.563-.298v.666l1.34.523 1.696 1.418 1.342.974v.82h3.25l2.05.373 6.225-.594-3.043-.67-1.628-1.42-1.137-.895-1.337-1.418-.85-.446v-1.044l.57-.292-.713-.374-.635.666-1.203-.594-7.076-5.74-.283-.676 1.414.374h1.06v-.67l1.772.45 1.55 1.633 1.624.896 2.484 2.612h.563l3.533 2.903.85.527 1.623 1.787 1.13.517.21.296 1.413.968v.593l-1.838-.522-.358.44.568.303h4.88l1.622.29.564-.592v-9.867l-.21-1.414-.358-2.315h-9.216l-1.98-.37-4.88.37h-6.86l-1.696-.37-4.88.37h-3.798l-3.604.3v12.97l.563.6h3.324l-.57-.6-1.128-.6-.494-1.115-1.132-1.19.563-.303.63-1.638.993 1.044 3.323 2.308 1.694 1.866 1.833.447v.048zm-3.533-4.32l.773-.528h-.773l-.28.23.28.302v-.005zm12.585.598l-1.27-.676-.36-.742-.496.445-.353-.747-.567-.297-.282-.6-1.06-.594-.28-.522-.85-.292-.215-.297-3.323-2.314-2.263-2.385 3.322-.67 1.694 1.34 1.63 1.716 3.32 2.91.498.3 1.132.82 2.186 1.572 4.46 3.947h-4.173l-2.756-2.904.005-.01zm15.344 2.304l-.707.374-.92-.973-.288-1.115h-1.27l-.636-1.49-1.13-.522-.78-.896-.844-.297v-.594l-1.91-.743-.568-1.27h-1.275l-.917-1.412-.568-.296-.282-.303-.496-.295-.57-1.414-.705.744-.636-.743.21-.296h.85l.28-.302h2.203l2.473 1.716 6.01 4.925.288.292 3.036 2.386v.825l.496-.522.287 1.116.707 1.043-1.63.896-.71-.825v-.005zm0-4.623h-.696l-.425-1.265-.778.37v-.524l-1.137-1.187-.776-.3-.282-.52h-.847v-.634l-1.628-.59-2.478-2.612v-.298l1.91.298.85.3 2.544.373 5.66 4.7v1.27l.28.896v.89l-1.346-.29-.85-.897v.02zm-3.533.302h.21l-.21-.303h-.28l.28.302zm2.684-5.52l-.773-.518-.85-.896h4.174l.635 1.936-.57 1.27h-.92l-1.7-1.793h.004zm1.357 10.736v-1.49l.282-1.116v-11.633l6.298-.973 10.25.6 3.39-.67 10.255.666 2.12-.446h4.382l2.688.67.564 1.265-.565 1.714.348 1.864v10.363l-1.13.6h-2.402l-1.136.302h-10.086l-1.844-.448-1.77.45h-9.83l-1.988-.376-1.628.374h-6.574l-1.628-1.72.005.004zm10.963.527h1.904l-1.98-.297-2.408-2.534-.77-.6-.285-.296-4.245-2.98-.42-1.34-.568-1.194.568-.225.282-1.265.773 1.27h.282l1.623.82.563.593 1.275.665.635 1.347h.706l2.052 1.72 2.33 1.64 1.34 2.088-1.197.373h4.03l.42-1.346-1.065.522-.85-.445-.354-.82h-.28l-1.2-.605-.706-1.116-1.136-.59-1.342-1.12-.568-.303v-1.116l-.502.22h-.563l-1.133-1.71h-.49l-.85-.823v-1.193l-1.276.67-2.052-2.084v-.297l-.21-.296.205-.297 1.7.445.778-.445 1.414.593 2.97 2.238v1.19h.568l1.27 1.043.916 1.27 1.132.594.783.896v.824l.568-.297v.666l1.343.522 1.7 1.413 1.346.974v.82h3.25l2.048.373 6.22-.594-3.035-.67-1.633-1.42-1.132-.895-1.34-1.418-.85-.446v-1.044l.567-.292-.712-.374-.634.666-1.2-.6-7.07-5.74-.282-.67 1.413.374h1.077v-.67l1.77.445 1.552 1.638 1.622.896 2.48 2.61h.562l3.538 2.91.844.526 1.623 1.792 1.13.517.216.296 1.413.973v.593l-1.84-.522-.357.446.563.307h4.89l1.623.292.562-.594v-9.85l-.21-1.413-.358-2.314h-9.247l-1.98-.37-4.89.372h-6.85l-1.696-.374-4.884.375h-3.814l-3.61.3v12.968l.564.6h3.317l-.568-.6-1.13-.6-.493-1.115-1.132-1.188.566-.302.635-1.638.994 1.044 3.323 2.31 1.7 1.863 1.84.445h.016zm-3.538-4.32l.773-.528h-.778l-.282.23.282.297h.005zm12.59.593l-1.275-.676-.36-.742-.49.45-.353-.747-.57-.296-.28-.6-1.06-.593-.287-.52-.85-.293-.215-.297-3.318-2.314-2.268-2.386 3.322-.67 1.695 1.346 1.628 1.715 3.318 2.91.496.3 1.13.82 2.192 1.567 4.455 3.953h-4.173l-2.755-2.903.015-.02zm15.34 2.31l-.707.373-.917-.974-.28-1.116h-1.275l-.64-1.49-1.132-.522-.778-.896-.85-.297v-.594l-1.91-.74-.563-1.27h-1.28l-.916-1.414-.57-.297-.28-.298-.497-.297-.57-1.413-.706.742-.635-.742.21-.297h.85l.276-.297h2.2l2.474 1.71 6.01 4.925.283.297 3.04 2.386v.824l.498-.522.282 1.116.717 1.04-1.63.9-.706-.823v-.015zm0-4.624h-.707l-.425-1.26-.773.37v-.528l-1.137-1.188-.783-.302-.282-.517h-.845v-.64l-1.623-.592-2.478-2.61v-.3l1.91.3.845.298 2.55.374 5.657 4.7v1.27l.282.896v.89l-1.347-.29-.85-.897.004.026zm-3.54.302h.216l-.22-.302h-.255l.282.302h-.02zm2.684-5.52l-.774-.522-.855-.896h4.17l.644 1.94-.574 1.27h-.92l-1.7-1.79h.01z" fill="#72D4D7"/></svg>