<svg width="256" height="274" viewBox="0 0 256 274" xmlns="http://www.w3.org/2000/svg" preserveAspectRatio="xMinYMin meet"><g fill="#435363"><path d="M0 242.258v-.17c0-17.03 12.834-30.977 31.232-30.977 11.298 0 18.057 3.77 23.617 9.24l-8.388 9.67c-4.62-4.19-9.328-6.757-15.32-6.757-10.095 0-17.37 8.386-17.37 18.657v.17c0 10.27 7.104 18.83 17.37 18.83 6.848 0 11.04-2.742 15.747-7.02l8.386 8.473c-6.158 6.584-13.002 10.694-24.556 10.694-17.626 0-30.72-13.606-30.72-30.81M72.53 212.14h13.175v23.7h24.303v-23.7h13.183v59.9H110.01V247.99H85.705v24.047H72.53v-59.9zM144.39 212.156h45.907v11.91h-32.604v12.34h28.69v11.914h-28.69v12.78h33.037v11.91h-46.34v-60.854zM209.92 212.14h45.606v11.98h-32.434v12.748h28.583v11.98h-28.583v23.19H209.92v-59.9z"/></g><path d="M129.587 127.67c-21.86 0-39.646-17.785-39.646-39.644 0-21.862 17.788-39.65 39.647-39.65 18.046 0 33.3 12.122 38.083 28.646h15.34c-5.107-24.818-27.116-43.537-53.423-43.537-30.07 0-54.538 24.467-54.538 54.54s24.466 54.54 54.537 54.54c26.307 0 48.316-18.716 53.422-43.534h-15.34c-4.782 16.522-20.037 28.64-38.083 28.64" fill="#435363"/><path d="M102.86 114.75c6.848 6.847 16.303 11.09 26.727 11.09V110.03c-6.076 0-11.578-2.468-15.56-6.448L102.86 114.75z" fill="#435363"/><path d="M91.774 88.023c0 5.41 1.154 10.557 3.21 15.217l14.458-6.36c-1.195-2.71-1.864-5.703-1.864-8.857 0-12.155 9.854-22.006 22.006-22.006V50.21c-20.85 0-37.81 16.964-37.81 37.813" fill="#F38B00"/><path d="M143.295 52.787l-5.734 14.736c4.684 1.826 8.592 5.195 11.077 9.495h17.12c-3.378-11.096-11.734-20.043-22.462-24.23" fill="#435363"/><path d="M137.568 108.524l5.73 14.735c10.73-4.19 19.085-13.14 22.467-24.236h-17.12c-2.493 4.304-6.398 7.677-11.077 9.5" fill="#F38B00"/><path d="M59.63 109.175c-.248-.826-.487-1.658-.71-2.498l-.04-.154c-.205-.778-.393-1.556-.573-2.34-.038-.162-.072-.322-.106-.483-.15-.672-.286-1.35-.42-2.03-.057-.304-.108-.608-.16-.912-.095-.543-.19-1.082-.276-1.63-.072-.47-.133-.933-.195-1.4-.43-3.19-.663-6.428-.66-9.708H41.558c-.003 3.577.222 7.11.642 10.598.006.075.02.15.03.225.116.95.246 1.898.392 2.837.04.26.086.52.13.78.13.773.263 1.544.413 2.312.075.41.164.813.25 1.22.125.61.255 1.22.395 1.828.123.533.256 1.065.393 1.598.12.474.235.95.36 1.423.172.63.353 1.25.534 1.875.075.26.143.526.222.782h.006c1.03 3.41 2.252 6.738 3.672 9.96l13.684-6.018c-1.177-2.67-2.194-5.435-3.05-8.265z" fill="#435363"/><path d="M129.587 161.123c-20.152 0-38.42-8.206-51.654-21.443l-10.578 10.578c15.93 15.93 37.926 25.795 62.232 25.795 44.89 0 81.924-33.6 87.34-77.022h-15.07c-5.324 35.1-35.703 62.093-72.27 62.093M129.587 14.93c16.374 0 31.498 5.41 43.698 14.54l8.946-11.99C167.548 6.502 149.328 0 129.588 0 92.235 0 60.32 23.265 47.54 56.098l13.93 5.42C72.104 34.28 98.63 14.93 129.588 14.93" fill="#F38B00"/><path d="M201.858 77.022h15.07c-1.615-12.954-6.045-25.034-12.66-35.608l-12.69 7.92c5.18 8.27 8.754 17.646 10.28 27.688" fill="#435363"/><path d="M184.88 77.022H200c-3.945-25.354-21.31-46.32-44.577-55.402l-5.4 13.885c17.695 6.91 31.078 22.498 34.857 41.517" fill="#F38B00"/><path d="M129.587 31.652l.004-14.89h-.003c-30.184 0-56.04 18.863-66.41 45.422l13.876 5.4c8.205-21.01 28.658-35.932 52.534-35.932" fill="#435363"/><path d="M73.216 88.023h-14.89c0 29.945 18.573 55.624 44.8 66.15l5.53-13.82c-20.75-8.33-35.44-28.64-35.44-52.33" fill="#F38B00"/><path d="M129.587 144.394v14.893c35.553 0 65.106-26.174 70.414-60.263h-15.124c-5.13 25.84-27.968 45.37-55.29 45.37" fill="#435363"/></svg>