<svg width="256" height="257" viewBox="0 0 256 257" xmlns="http://www.w3.org/2000/svg" preserveAspectRatio="xMinYMin meet"><defs><linearGradient x1="49.998%" y1=".706%" x2="49.998%" y2="96.99%" id="a"><stop stop-color="#86BBE5" offset="0%"/><stop stop-color="#1072BA" offset="100%"/></linearGradient></defs><path d="M127.79.035s75.32-3.38 115.252 72.328H121.38s-22.96-.74-42.573 27.114c-5.634 11.69-11.69 23.734-4.894 47.468-9.79-16.586-51.975-90.04-51.975-90.04S51.693 3.028 127.788.035z" fill="#EF3F36"/><path d="M239.133 192.23s-34.756 66.94-120.253 63.63c10.564-18.277 60.848-105.36 60.848-105.36s12.15-19.507-2.183-50.424c-7.29-10.74-14.72-21.973-38.664-27.96 19.263-.175 103.95 0 103.95 0s31.727 52.715-3.697 120.113z" fill="#FCD900"/><path d="M16.973 192.757s-40.6-63.56 5.035-135.958C32.538 75.074 82.82 162.156 82.82 162.156s10.847 20.283 44.757 23.31c12.924-.95 26.375-1.76 43.56-19.472C161.663 182.757 119.16 256 119.16 256s-61.55 1.127-102.187-63.243z" fill="#61BC5B"/><path d="M118.845 256.493l17.113-71.412s18.804-1.478 34.58-18.768c-9.79 17.22-51.693 90.18-51.693 90.18z" fill="#5AB055"/><path d="M70.462 129.056c0-31.48 25.53-57.01 57.01-57.01 31.48 0 57.01 25.53 57.01 57.01 0 31.48-25.53 57.01-57.01 57.01-31.48-.035-57.01-25.53-57.01-57.01z" fill="#FFF"/><path d="M80.004 129.056c0-26.198 21.234-47.467 47.468-47.467 26.198 0 47.467 21.233 47.467 47.466 0 26.2-21.234 47.468-47.468 47.468-26.2 0-47.468-21.27-47.468-47.468z" fill="url(#a)"/><path d="M242.795 72.152l-70.462 20.67s-10.634-15.6-33.487-20.67c19.825-.106 103.95 0 103.95 0z" fill="#EACA05"/><path d="M72.54 144.34c-9.896-17.15-50.602-87.435-50.602-87.435l52.186 51.622s-5.353 11.022-3.345 26.797l1.76 9.015z" fill="#DF3A32"/></svg>