<svg width="256" height="259" viewBox="0 0 256 259" xmlns="http://www.w3.org/2000/svg" preserveAspectRatio="xMinYMin meet"><g fill="#343434"><circle cx="126.157" cy="129.008" r="30.593"/><path d="M1.204 96.572c0 .368-.37 1.105-.37 1.474 0 3.317 2.58 6.266 6.267 6.266h51.973c2.58 0 4.423-1.474 5.53-3.686 10.688-23.59 34.278-39.44 61.185-39.44 37.228 0 67.453 30.225 67.453 67.453 0 37.227-30.224 67.452-67.452 67.452-27.276 0-50.497-16.218-61.186-39.07-1.106-2.58-2.95-4.056-5.53-4.056H7.103c-3.318 0-6.267 2.58-6.267 6.267 0 .368 0 1.105.37 1.474 14.374 56.026 64.87 97.31 124.952 97.31 71.14 0 129.008-57.87 129.008-129.01C255.165 57.87 197.295 0 126.157 0 66.077 0 15.58 41.283 1.204 96.572z"/></g></svg>