<svg width="256" height="256" viewBox="0 0 256 256" xmlns="http://www.w3.org/2000/svg" preserveAspectRatio="xMinYMin meet"><path d="M70.337 160.792c-8.048 0-14.13-2.345-18.313-7.034-4.182-4.69-6.274-11.406-6.274-20.15 0-8.935 2.155-15.778 6.527-20.594 4.372-4.816 10.646-7.224 18.947-7.224 5.576 0 10.645 1.014 15.08 3.105l-3.42 9.06c-4.753-1.836-8.682-2.787-11.787-2.787-9.188 0-13.75 6.083-13.75 18.25 0 5.956 1.14 10.392 3.42 13.433 2.282 2.98 5.64 4.5 10.077 4.5 5.006 0 9.758-1.267 14.257-3.738v9.822c-2.027 1.204-4.18 2.027-6.462 2.534-2.282.57-5.07.824-8.3.824M104.935 85.196h11.28v74.645h-11.28V85.197z" fill="#96CA4B"/><path d="M134.273 183.414c-3.358 0-6.21-.38-8.428-1.204v-8.935c2.155.57 4.373.887 6.654.887 4.815 0 7.223-2.724 7.223-8.174V106.74h11.28v60.008c0 5.45-1.46 9.632-4.31 12.42-2.915 2.852-7.034 4.246-12.42 4.246zm4.753-90.677c0-2.028.57-3.55 1.647-4.626 1.078-1.076 2.662-1.647 4.753-1.647 1.964 0 3.548.57 4.625 1.648 1.08 1.078 1.65 2.662 1.65 4.627 0 1.9-.57 3.42-1.65 4.562-1.076 1.076-2.66 1.646-4.624 1.646-2.028 0-3.612-.57-4.753-1.647-1.14-1.142-1.647-2.662-1.647-4.563zM210.06 144.76c0 5.196-1.902 9.125-5.64 11.913-3.802 2.788-9.188 4.12-16.222 4.12-7.097 0-12.737-1.078-17.046-3.233v-9.758c6.21 2.85 12.04 4.31 17.426 4.31 6.907 0 10.392-2.092 10.392-6.274 0-1.33-.38-2.472-1.14-3.36-.76-.886-2.028-1.837-3.802-2.787-1.775-.95-4.183-2.027-7.35-3.23-6.084-2.345-10.266-4.753-12.42-7.098-2.155-2.344-3.232-5.45-3.232-9.188 0-4.562 1.837-8.047 5.513-10.582 3.674-2.535 8.616-3.74 14.953-3.74 6.21 0 12.103 1.27 17.68 3.803l-3.676 8.49c-5.703-2.343-10.52-3.547-14.448-3.547-5.957 0-8.935 1.71-8.935 5.07 0 1.647.76 3.04 2.344 4.245 1.52 1.14 4.942 2.725 10.138 4.752 4.372 1.71 7.54 3.232 9.568 4.626 1.965 1.395 3.422 3.043 4.436 4.88.95 1.774 1.457 3.992 1.457 6.59" fill="#5F7FBF"/><path d="M118.03 16.69l1.732-.154V0l-2.052.165c-31.948 2.56-61.614 16.98-83.53 40.6C12.137 64.52 0 95.423 0 127.78c0 32.357 12.138 63.258 34.18 87.012 21.916 23.622 51.582 38.04 83.53 40.602l2.052.165v-16.6l-1.732-.154c-27.594-2.45-53.194-15.107-72.085-35.64-19.004-20.654-29.47-47.45-29.47-75.448 0-27.995 10.466-54.78 29.47-75.417C64.83 31.786 90.43 19.14 118.03 16.69" fill="#96CA4B"/><path d="M221.82 40.766c-21.916-23.622-51.582-38.04-83.53-40.6L136.238 0v16.536l1.732.154c27.594 2.45 53.195 15.107 72.085 35.64 19.004 20.654 29.47 47.45 29.47 75.448 0 28-10.466 54.794-29.47 75.45-18.89 20.53-44.49 33.188-72.085 35.64l-1.732.153v16.537l2.052-.165c31.948-2.56 61.614-16.98 83.53-40.602 22.042-23.754 34.18-54.655 34.18-87.012 0-32.356-12.138-63.258-34.18-87.012" fill="#5F7FBF"/></svg>