<svg width="256" height="304" viewBox="0 0 256 304" xmlns="http://www.w3.org/2000/svg" preserveAspectRatio="xMinYMin meet"><path d="M13.104 287.306c-5.204 0-6.717-3.03-6.717-7.57 0-1.513.19-3.22.424-5.018 1.14-7.85 3.924-12.343 10.64-12.343 4.544 0 6.76 2.032 6.76 5.722v1.8h4.506c.05 0 .05-1.657.05-2.034 0-5.392-3.265-10.506-11.308-10.506-10.93 0-15.423 5.937-17.08 17.576-.236 1.562-.378 3.02-.378 4.576 0 6.86 2.7 13.1 12.35 13.1 7.33 0 11.686-3.576 14.24-7.976l-4.307-2.9c-2.79 4.4-5.82 5.572-9.18 5.572zm29.57-21.668c-8.754 0-12.536 4.492-13.813 13.432-.144 1.045-.238 2.13-.238 3.124 0 5.77 2.696 10.362 10.17 10.362 8.753 0 12.586-4.685 13.863-13.486.142-1.134.237-2.175.237-3.215.002-5.865-2.788-10.217-10.218-10.217zm3.643 13.435c-.947 6.483-2.98 8.47-6.814 8.47-3.073 0-4.586-1.278-4.586-5.11 0-.947.096-2.08.284-3.36.948-6.433 2.84-8.42 6.72-8.42 3.122 0 4.68 1.277 4.68 5.156 0 .945-.095 2.034-.283 3.263zm28.58-21.246l-1.465 8.685c-.094.755-.046.504.24 1.214-1.372-1.04-3.834-1.728-5.49-1.728-7.854 0-12.252 3.555-13.67 13.49-.19 1.182-.237 2.18-.237 3.17 0 7.242 4.257 9.94 9.98 9.94 2.416 0 4.78.052 6.623-1.508l.47 2.943h4.544l5.298-36.206h-6.293zm-4.494 28.342c-2.127 1.273-4.207 1.56-5.484 1.56-3.455 0-4.4-1.798-4.4-4.682 0-1.09.14-2.363.332-3.74 1.086-7.52 3.5-8.847 6.623-8.847 2.032 0 3.592.334 5.062 1.14l-2.134 14.57zm24.603-20.532c-8.66 0-12.725 4.113-14.1 13.432-.143 1.137-.238 2.226-.238 3.266 0 6.387 3.266 10.22 10.454 10.22 5.583 0 9.75-2.32 11.972-6.578l-4.78-1.94c-1.37 2.08-3.214 3.5-6.48 3.5-3.5 0-4.92-.942-4.92-4.065 0-.616.05-1.51.144-1.51h17.076c.24-2.415.52-4.12.52-5.536 0-4.728-1.796-10.79-9.648-10.79zm3.263 11.5H87.86c1.044-2.415 2.792-6.15 6.388-6.15 2.79 0 4.164 1.63 4.164 4.42-.003.474-.046 1.73-.143 1.73zm24.59-12.07l.567-4.827h-13.343l-.565 4.828h3.5l-3.783 24.137h-3.505l-.564 4.828h13.34l.57-4.828h-3.503l3.783-24.137h3.502zm27.11 7.24l1.705-4.826h-4.59l-3.308.683c-1.846-1.18-4.354-2.066-6.717-2.066-6.768 0-12.537 3.267-12.537 10.696 0 2.084.756 3.766 1.653 4.903-1.416.754-2.647 2.02-2.647 3.725 0 .756.28 1.53.85 2.238-2.84 1.706-4.585 4.533-4.585 7.842 0 6.39 6.67 7.753 11.778 7.753 6.433 0 14.1-1.47 14.1-9.655 0-2.79-1.75-4.97-6.813-5.916l-9.13-1.706c-1.04-.19-1.277-.52-1.277-.994 0-.71.43-1.086 1.136-1.086l.615.094c1.23.283 2.65.427 4.115.427 6.578 0 12.443-2.84 12.443-10.218 0-1.043-.188-1.748-.66-2.885.802.38 1.845.995 2.267.995h1.6v-.003zm-13.007 19.584c1.796.333 2.41.994 2.41 2.177 0 3.832-4.116 4.305-7.095 4.305-4.542 0-6.244-1.086-6.244-3.502 0-2.13.613-3.12 2.035-4.637l8.893 1.656zM135.02 279.5c-2.744 0-4.258-.992-4.258-3.36 0-3.5 2.035-5.535 5.583-5.535 2.84 0 4.212 1.183 4.212 3.498 0 3.502-1.99 5.397-5.537 5.397zm31.757-13.862c-2.65 0-5.013 1.3-7.948 3.616l-.426-1.772h-5.206l-3.642 26.55h6.292l2.745-20.134c1.846-1.135 4.115-2.783 6.055-2.783 2.364 0 3.218 1.14 3.218 3.316 0 .522-.05 2.065-.145 2.632l-2.314 16.97h6.293l2.314-17.108c.096-.8.19-2.12.19-2.874.003-4.5-2.13-8.412-7.427-8.412zm19.38 21.743l.048-.65 2.742-19.248H178.49l-.658 4.827h4.586c-.38 0-.615.422-.66.803l-1.894 12.82c-.094.617-.14 1.9-.14 2.418 0 3.312 1.796 5.683 5.484 5.683h3.218l.71-4.828h-2.033c-.712 0-.946-1.257-.946-1.824zm4.067-29.553h-6.15c-.38 0-.38-1.393-.425-.92l-.855 6.802c-.05.427-.05 1.358.33 1.358h6.153c.38 0 .38-1.653.425-2.083l.854-5.25c.048-.473.048.092-.333.092zm12.83 29.715c-1.558 0-2.316-.663-2.316-2.08l.048-.097 1.987-13.056h7.19l2.175-4.828h-8.704l1.465-10.623-6.62 2.116-1.186 8.506h-3.83l-.662 4.827h4.446c-.425 2.413-.852.847-.898 1.322l-1.704 11.448c-.094.522-.094.9-.094 1.37 0 4.496 3.31 6.178 7.29 6.178 3.687 0 6.668-1.077 8.988-3.02l-2.935-3.61c-1.47.897-2.462 1.544-4.64 1.544zm23.088-21.904c-8.657 0-12.725 4.113-14.098 13.432-.142 1.137-.237 2.226-.237 3.266 0 6.387 3.264 10.22 10.454 10.22 5.584 0 9.75-2.32 11.97-6.578l-4.776-1.94c-1.37 2.08-3.217 3.5-6.483 3.5-3.497 0-4.918-.942-4.918-4.065 0-.616.05-1.51.145-1.51h17.077c.236-2.415.52-4.12.52-5.536 0-4.728-1.797-10.79-9.652-10.79zm3.266 11.5H219c1.04-2.415 2.788-6.15 6.387-6.15 2.79 0 4.164 1.63 4.164 4.42-.002.474-.048 1.73-.142 1.73zm23.797-11.5c-2.27 0-4.4 1.3-6.53 3.33l-.378-1.486h-5.202l-3.644 26.55h6.34l2.792-20.56c1.656-.99 3.548-1.838 5.346-1.838 1.137 0 2.223-.18 3.263-.04l.81-5.485c-.95-.19-1.897-.472-2.795-.472zM92.54 238.81c-14.32-6.19-27.72-21.922-27.75-38.02-.04-17.55 11.082-32.45 24.915-42.24-1.663 6.282-2.57 12.03 1.55 17.648 3.83 5.226 10.538 7.765 16.872 6.387 14.8-3.24 15.48-19.51 6.705-28.99-8.675-9.386-17.067-19.99-13.765-33.602 1.653-6.824 5.843-13.216 11.15-17.785-4.078 10.722 7.515 21.296 15.154 26.563 13.252 9.14 27.79 16.045 39.975 26.757 12.816 11.258 22.28 26.48 20.37 44.135-2.072 19.136-17.278 32.445-34.334 39.164 36.043-7.955 73.284-35.928 74.047-75.9.632-32.885-21.927-58.193-49.872-72.682l-1.46-.797c.767 1.86 1.018 3.444.99 4.86.25-1.044.42-2.118.467-3.226-.012 1.38-.188 2.68-.512 3.902l.044-.674c-.42 1.774-1.125 3.423-2.07 4.93l.412-.44c-5.576 9.247-20.67 11.255-28.125 1.68-11.985-15.402.252-32.008 1.964-48.318 2.143-20.44-10.676-40.285-26.57-52.16 8.754 14.16-2.78 32.896-12.006 43.37C101.74 53.523 90.858 62 80.982 71.225c-10.61 9.908-20.81 20.345-29.53 31.974-17.443 23.276-28.12 52.55-20.274 81.588 7.842 29.018 32.978 47.49 61.363 54.022z" fill="#EE4323"/></svg>