<svg width="256" height="256" viewBox="0 0 256 256" xmlns="http://www.w3.org/2000/svg" preserveAspectRatio="xMinYMin meet"><path d="M245.177 128.825c0 64.73-52.476 117.207-117.207 117.207-64.73 0-117.206-52.476-117.206-117.207 0-64.73 52.475-117.207 117.206-117.207 64.73 0 117.207 52.476 117.207 117.207" fill="#FFF"/><path d="M128 255.79c-34.134 0-66.224-13.294-90.36-37.43C13.504 194.224.21 162.134.21 128s13.294-66.224 37.43-90.36C61.776 13.503 93.866.21 128 .21s66.224 13.293 90.36 37.43c24.136 24.136 37.43 56.226 37.43 90.36s-13.294 66.224-37.43 90.36c-24.136 24.136-56.226 37.43-90.36 37.43zm0-241.638c-30.41 0-59 11.842-80.503 33.345S14.152 97.59 14.152 128c0 30.41 11.842 59 33.345 80.503S97.59 241.848 128 241.848c30.41 0 59-11.842 80.503-33.345S241.848 158.41 241.848 128c0-30.41-11.842-59-33.345-80.503S158.41 14.152 128 14.152z" fill="#3C4655"/><path d="M86.65 95.216c0-7.052.036-13.727-.027-20.4-.015-1.532.94-2.075 2.018-2.613 4.75-2.372 9.886-3.55 14.986-4.854 20.835-5.33 41.25-3.31 61.37 3.534 5.27 1.793 5.227 1.924 5.227 7.42V95.1c-.822.113-1.19-.385-1.628-.686-11.845-8.117-24.713-14.108-38.322-18.6-1.84-.61-3.457-.583-5.28.053-13.123 4.58-25.534 10.564-36.997 18.463-.336.232-.683.45-1.346.883" fill="#3C4655"/><path d="M108.195 46.31c0-2.745.148-5.5-.047-8.23-.16-2.232.923-3.39 2.708-4.247 3.914-1.88 8.097-2.82 12.363-3.333 7.05-.85 13.883.235 20.48 2.78 3.86 1.49 4.134 1.986 4.134 6.03 0 5.277-.034 10.555.022 15.832.015 1.41-.135 1.953-1.84 1.614-12.075-2.4-24.175-2.44-36.242.074-1.51.315-1.62-.235-1.598-1.443.056-3.025.02-6.052.02-9.078" fill="#6E717E"/><path d="M222.63 157.638c-3.72-2.4-7.304-5.016-11.06-7.356-7.58-4.722-15.286-9.232-23.9-11.87-2.61-.8-5.27-1.594-8.06-.728-2.747.854-4.99 2.534-7.14 4.345-4.584 3.86-8.6 8.313-12.903 12.467-.506.49-.826 1.326-1.736 1.266-.254-.396-.06-.71.04-1.043 4.282-14.2 11.072-27.01 21.127-37.99 1.044-1.14 1.092-1.708-.138-2.762-14.466-12.39-30.463-22.08-48.674-27.946-1.4-.45-2.665-.523-4.062-.03-18.072 6.394-34.544 15.557-49.065 28.15-1.115.964-.962 1.445-.038 2.427 6.865 7.3 12.066 15.698 15.953 24.907 1.686 3.994 3.48 7.968 4.232 12.29 1.553 6.48 3.03 21.574 3.827 22.32-10.457-2.544-12.56-3.693-19.15-6.9-8.643-4.203-17.464-6.857-27.248-6.265-5.89.357-10.862 1.436-16.405 3.31-.98.33-3.057 1.48-2.66 2.302.132.393.23.415.398.79 5.41 12.095 12.9 22.735 22.58 31.767 19.726 18.403 43.098 27.96 70.103 28.032 17.734.05 34.34-4.635 49.63-13.626 21.748-12.79 36.94-31.053 45.307-54.93.49-1.4.27-2.137-.956-2.928zm-90.68-21.846c-.29 15.16-2.286 22.362-3.434 33.263-.088.838-.46 3.023-.46 3.023s-.664-2.79-.734-3.052c-1.21-9.906-2.157-17.342-3.297-27.256-.916-7.964-1.268-16-1.183-23.98.05-4.743 1.906-9.465 2.95-14.197.683-3.105 1.21-5.93 2.208-9.294 1.175 5.8 2.44 11.656 3.88 17.39 2.03 8.065.22 16.08.07 24.102z" fill="#3C4655"/><path d="M97.207 154.155c4.344 5.07 9.778 8.78 15.458 12.12 3.99 2.345 8.198 4.298 12.74 5.393.73.176 4.468.94 5.414 1.026 1.258.115 2.072.19 3.87.26-4.32 1.886-8.468 3.39-12.78 4.155-12.625 1.598-23.693.403-34.998-4.866-6.945-3.236-13.67-6.765-21.363-7.95-9.746-1.5-19.558-.35-28.727 3.17-.46.175-.79.904-1.252 1.07-1.807-3.516-2.877-7.305-4.11-11.036-.303-.918-.303-.918.717-1.987 10.127-8.835 21.457-14.686 35.33-14.01 10.18.495 19.073 4.41 27.057 10.583.885.685 1.762 1.38 2.643 2.072" fill="#777885"/></svg>