<svg width="256" height="256" viewBox="0 0 256 256" xmlns="http://www.w3.org/2000/svg" preserveAspectRatio="xMinYMin meet"><path d="M256 128c0 70.692-57.308 128-128 128C57.307 256 0 198.692 0 128 0 57.307 57.307 0 128 0c70.692 0 128 57.307 128 128" fill="#237DAC"/><path d="M129.283 60.73s39.84 64.87 39.84 88.5c0 18.84-8.81 41.506-39.84 41.506S89.43 168.056 89.43 149.22c0-22.82 39.853-88.49 39.853-88.49" fill="#FFF"/><path d="M100.532 82.518s25.074 40.828 25.074 55.7c0 11.858-5.545 26.124-25.074 26.124-19.53 0-25.084-14.274-25.084-26.13 0-14.362 25.084-55.694 25.084-55.694" fill="#61AAD4"/></svg>