<svg width="256" height="204" viewBox="0 0 256 204" xmlns="http://www.w3.org/2000/svg" preserveAspectRatio="xMinYMin meet"><path d="M234.287 57.17V12.824H21.774V57.17H5.147v90.87h245.446V57.17h-16.306z" fill="#F00"/><path d="M.71 149.97V52.734h16.63V8.387H238.72v44.347h16.306v97.236H.71zm6.935-3.49l239.552.21-1.038-85.083h-16.312v-44.35H26.208v44.35H9.577l-1.62 82.057-.313 2.815z" fill="#EB1019"/><path d="M32.848 8.02v19.985l7.574 10.247 22.265-7.56-.09-30.178-29.75 7.505z" fill="#FFF"/><path d="M37.46 109.964l50.245 11.353 130.69-12.176.03 39.634H37.36l.1-38.81zM186.996 81.835L173.34 76.17l-28.402-19.39-33.93 10.326-73.582-5.57v26.103l46.657 13.385L217.4 89.183v-27.23l-30.404 19.882z" stroke="#BD101D" fill="#BD101D"/><path d="M17.32 44.215l-8.41 8.897v23.855l11.874 5.054V68.244l5.053 3.96V62.79l11.59-.003 21.45 32.298 7.91 2.157 10.74 44.513 5.574 2.31 3.944 16.286h31.082L103.18 98.574l42.224-27.418L168.37 90.56l5.578-2.186 2.118 5.77 41.334-3.71-3.587-9.158-23.256-5.687-42.11-34.31-45.883 17.404L88.466 40.13l21.24-21.593h20.243l7.986 6.728v-6.728h15.91l-3.843-8.93-46.604-7.38-43.024 27.555L17.32 44.215z" fill="#FFF"/><path d="M37.587 201.38c-1.877.97-6.02 2.006-11.26 2.006-13.85 0-22.265-8.737-22.265-22.005 0-14.367 9.966-23.04 23.3-23.04 5.242 0 8.996 1.1 10.614 1.94l-1.747 6.343c-2.073-.905-4.92-1.683-8.544-1.683-8.868 0-15.275 5.567-15.275 16.05 0 9.58 5.632 15.73 15.21 15.73 3.237 0 6.603-.65 8.673-1.62l1.294 6.28zM71.95 186.624c0 11.585-8.153 16.762-16.18 16.762-8.93 0-15.792-6.15-15.792-16.245 0-10.354 6.796-16.698 16.31-16.698 9.384 0 15.663 6.603 15.663 16.182zm-23.753.323c0 6.084 2.977 10.68 7.832 10.68 4.53 0 7.7-4.467 7.7-10.81 0-4.917-2.2-10.548-7.635-10.548-5.632 0-7.898 5.434-7.898 10.677zM105.62 193.225c0 3.754.13 6.86.26 9.45h-6.99l-.39-4.79h-.13c-1.358 2.266-4.465 5.502-10.096 5.502-5.76 0-11.003-3.43-11.003-13.722v-18.51h7.962v17.15c0 5.243 1.682 8.608 5.89 8.608 3.17 0 5.24-2.265 6.083-4.272.26-.71.453-1.55.453-2.458v-19.028h7.96v22.07h.002zM136.223 201.703c-1.684.778-4.984 1.684-8.932 1.684-9.836 0-16.244-6.342-16.244-16.116 0-9.45 6.472-16.827 17.54-16.827 2.912 0 5.89.647 7.702 1.49l-1.423 5.953c-1.295-.583-3.17-1.23-6.02-1.23-6.084 0-9.708 4.466-9.643 10.226 0 6.473 4.208 10.162 9.644 10.162 2.783 0 4.724-.583 6.277-1.23l1.1 5.89zM140.805 156.72h8.025v18.77h.13c.97-1.49 2.33-2.783 3.947-3.624 1.553-.905 3.43-1.424 5.437-1.424 5.372 0 11.004 3.56 11.004 13.656v18.575h-7.96v-17.668c0-4.595-1.685-8.027-6.086-8.027-3.106 0-5.308 2.072-6.148 4.466-.26.648-.324 1.49-.324 2.396v18.833h-8.025V156.72zM177.018 159.634c3.496-.583 7.96-.906 12.686-.906 8.155 0 13.785 1.683 17.798 5.05 4.208 3.43 6.796 8.606 6.796 16.05 0 7.766-2.654 13.59-6.796 17.346-4.335 3.948-11.262 5.954-19.74 5.954-4.66 0-8.155-.26-10.744-.583v-42.91zm7.96 36.956c1.1.194 2.784.194 4.402.194 10.355.066 16.504-5.63 16.504-16.7.066-9.642-5.502-15.142-15.468-15.142-2.524 0-4.337.193-5.437.453v31.195zM220.307 159.634c2.523-.517 7.118-.906 11.584-.906 5.892 0 9.517.712 12.494 2.783 2.717 1.62 4.53 4.467 4.53 8.156 0 4.012-2.525 7.702-7.25 9.45v.13c4.596 1.164 8.803 4.787 8.803 10.807 0 3.883-1.683 6.925-4.207 8.996-3.107 2.717-8.22 4.077-16.18 4.077-4.402 0-7.766-.323-9.773-.583v-42.91zm7.896 17.216h4.078c5.503 0 8.61-2.588 8.61-6.278 0-4.078-3.108-5.953-8.155-5.953-2.33 0-3.69.128-4.53.322v11.908h-.002zm0 20.064c1.036.194 2.395.194 4.207.194 5.113 0 9.644-1.94 9.644-7.313 0-5.05-4.4-7.12-9.903-7.12h-3.947v14.24z"/></svg>