<svg width="512" height="89" viewBox="0 0 512 89" xmlns="http://www.w3.org/2000/svg" preserveAspectRatio="xMinYMin meet"><g fill="#DCE1E2"><path d="M54.857 29.257c-1.406-1.5-2.72-2.72-4.126-3.563-1.312-.844-3.187-1.22-5.53-1.22-2.908 0-5.44.75-7.503 2.158-2.063 1.406-3.845 3.188-5.252 5.438-1.406 2.157-2.53 4.5-3.375 7.127-.844 2.532-1.407 4.97-1.782 7.22-.188 1.126-.28 2.157-.375 3.283-.094 1.125-.188 2.25-.188 3.375 0 1.97.188 3.845.563 5.627.375 1.782.938 3.47 1.782 4.876.844 1.407 1.97 2.532 3.375 3.376 1.407.844 3.19 1.22 5.44 1.22 2.53 0 4.782-.47 6.657-1.408 1.876-.937 3.845-2.156 6.002-3.844l-4.877 22.974c-2.438 1.03-4.688 1.782-6.94 2.25-2.25.47-4.594.75-7.032.75-3.938 0-7.595-.656-10.97-1.97-3.377-1.31-6.378-3.28-8.91-5.906-2.53-2.626-4.5-5.908-5.907-9.846-1.407-3.94-2.157-8.627-2.157-13.88 0-1.687.095-3.375.188-4.97.188-1.687.376-3.468.657-5.344.938-6.095 2.438-11.44 4.407-15.94 1.97-4.502 4.22-8.44 6.846-11.63 2.53-3.187 5.25-5.813 8.252-7.782 2.907-1.97 5.814-3.564 8.627-4.69 2.813-1.124 5.532-1.874 8.064-2.343 2.533-.47 4.69-.657 6.565-.657 1.97 0 3.845.188 5.814.47 1.875.28 3.656.843 5.344 1.5l-3.657 23.35zM59.827 46.23c.844-4.97 2.157-10.034 4.126-15.097 1.97-5.064 4.5-9.565 7.596-13.69 3.187-4.033 6.938-7.41 11.25-9.94 4.315-2.533 9.38-3.846 15.005-3.846 4.69 0 8.627.844 11.91 2.626 3.28 1.78 5.907 4.126 7.97 7.127 2.063 3 3.47 6.376 4.407 10.315.938 3.844 1.407 7.876 1.407 12.002 0 1.782-.095 3.47-.19 5.252-.186 1.78-.374 3.468-.655 5.156-.844 4.97-2.157 10.034-4.126 15.098-1.97 5.063-4.502 9.565-7.597 13.69-3.188 4.033-6.94 7.41-11.252 9.94-4.313 2.532-9.377 3.845-15.003 3.845-4.69 0-8.72-.94-11.91-2.626-3.188-1.782-5.813-4.126-7.876-7.127-1.968-3-3.47-6.377-4.313-10.315-.937-3.845-1.406-7.97-1.406-12.19 0-1.69.094-3.377.188-5.158 0-1.688.188-3.376.47-5.064zm22.693 0c-.187 1.032-.28 2.438-.562 4.22-.188 1.782-.282 3.75-.282 5.814 0 1.5.094 2.907.282 4.313.187 1.407.468 2.626.937 3.75.47 1.126 1.126 1.97 1.876 2.627.845.656 1.782 1.03 3.095 1.03 1.407 0 2.626-.374 3.75-1.218 1.126-.844 2.064-1.97 2.908-3.282.844-1.313 1.594-2.813 2.157-4.5.656-1.595 1.125-3.283 1.594-4.877.47-1.594.75-3.095 1.03-4.5.283-1.408.47-2.533.564-3.47.188-1.032.375-2.44.563-4.314.282-1.876.376-3.75.376-5.814 0-1.408-.094-2.908-.28-4.22-.19-1.408-.47-2.627-.94-3.752-.468-1.125-1.124-1.97-1.875-2.626-.843-.656-1.78-1.03-3.093-1.03-1.407 0-2.626.374-3.75 1.218-1.126.844-2.064 1.97-2.908 3.282-.845 1.313-1.595 2.813-2.158 4.5-.656 1.595-1.125 3.283-1.594 4.877-.47 1.593-.844 3.094-1.125 4.5-.282 1.5-.47 2.626-.563 3.47zM135.314 87.303L129.22 5.158h23.348v33.758c-.093 3.376-.187 6.658-.28 9.94-.188 3.282-.282 6.564-.47 9.94h.188c1.03-3.376 1.97-6.658 2.72-9.94.843-3.282 1.78-6.564 2.906-9.94L168.98 5.158h24.098l-35.07 82.145h-22.694zM197.955 5.158h41.26l-2.907 19.41h-19.036l-1.876 11.44h17.16l-3.094 19.412h-17.066l-1.97 12.565h19.036l-2.907 19.41h-41.26l12.66-82.237zM272.785 87.303l-6.94-34.228-.28.188c-.188 2.063-.47 4.032-.657 6-.187 1.97-.468 4.034-.844 6.003L260.69 87.21h-22.226l12.754-82.146h21.474c4.313 0 8.252.28 11.91.937 3.656.658 6.75 1.783 9.376 3.284 2.626 1.594 4.69 3.657 6.095 6.376 1.407 2.72 2.157 6.095 2.157 10.22 0 1.033-.094 2.064-.188 3.096-.093 1.03-.28 2.157-.375 3.282-.75 4.595-2.344 8.72-4.97 12.378-2.625 3.75-6.19 6.47-10.97 8.158l11.252 34.227h-24.195v.283zm-3.938-44.074c1.406 0 2.813-.282 4.032-.845 1.218-.562 2.343-1.406 3.187-2.344.938-.937 1.688-2.062 2.25-3.375.564-1.313.94-2.532 1.22-3.844.094-.468.094-.843.188-1.22 0-.374.093-.75.093-1.124 0-2.625-.75-4.5-2.25-5.814-1.5-1.22-3.47-1.875-6.002-1.875h-.844l-3.282 20.35 1.407.092zM340.677 87.303V76.8h-14.91l-3.47 10.596h-22.88L331.862 5.25h27.1l4.69 82.146h-22.975v-.093zm.094-27.945l.563-19.036c.094-2.532.188-5.157.282-7.69.187-2.625.28-5.157.47-7.688h-.19c-.75 2.53-1.5 5.157-2.156 7.69-.75 2.625-1.5 5.156-2.25 7.688l-6.003 19.036h9.284zM369.465 87.303l12.753-82.145h22.224l-9.846 62.734h16.692l-2.907 19.41h-38.915zM414.476 87.303L427.23 5.158h22.223l-9.846 62.734H456.3l-2.908 19.41h-38.916zM462.957 59.64c.562 1.125 1.313 2.25 2.157 3.375.844 1.126 1.875 2.063 2.907 2.907 1.126.844 2.25 1.594 3.47 2.063 1.22.47 2.532.75 4.032.75s3.095-.468 4.595-1.406c1.594-.94 2.532-2.252 2.813-4.127.094-.28.094-.656.094-1.22 0-1.218-.375-2.343-1.22-3.375-.374-.563-.843-1.125-1.405-1.594-.564-.47-1.127-1.032-1.783-1.5-1.876-1.688-3.657-3.376-5.25-4.97-1.596-1.688-3.002-3.47-4.127-5.44-.844-1.406-1.407-3-1.876-4.688-.47-1.688-.656-3.47-.656-5.44 0-1.312.093-2.718.28-4.218.376-2.44 1.22-5.158 2.533-8.253 1.314-3.094 3.095-6.095 5.533-8.814 2.345-2.72 5.346-5.063 8.815-7.032 3.564-1.97 7.69-2.907 12.378-2.907 2.72 0 5.345.376 7.97 1.126 2.626.75 5.065 1.782 7.22 3l-3.75 24.945c-.468-1.03-1.125-2.062-1.97-3.094-.843-1.03-1.687-1.97-2.718-2.813-1.032-.844-2.157-1.5-3.282-2.063-1.22-.563-2.438-.844-3.75-.844-1.314 0-2.627.47-4.033 1.313-1.407.843-2.25 2.062-2.532 3.75v.656c0 1.407.47 2.72 1.5 3.938.47.657 1.033 1.22 1.69 1.782.655.563 1.218 1.032 1.78 1.594 2.064 1.688 3.94 3.282 5.533 4.876 1.594 1.595 2.813 3.283 3.75 5.158.75 1.313 1.314 2.72 1.69 4.22.374 1.5.562 3.188.562 5.064 0 1.687-.188 3.375-.47 4.97-.562 3.844-1.78 7.408-3.562 10.69-1.782 3.282-4.033 6.19-6.752 8.72-2.72 2.532-5.72 4.502-9.19 5.908-3.468 1.407-7.126 2.157-10.97 2.157-5.627 0-11.065-1.125-16.13-3.376l4.127-25.787z"/></g><g fill="#394A56"><path d="M51.294 25.88c-1.407-1.5-2.72-2.718-4.126-3.562-1.313-.844-3.19-1.22-5.533-1.22-2.907 0-5.44.75-7.502 2.158-2.063 1.406-3.844 3.188-5.25 5.44-1.408 2.155-2.533 4.5-3.377 7.125-.844 2.533-1.406 4.97-1.78 7.222-.19 1.125-.283 2.157-.377 3.282-.094 1.125-.188 2.25-.188 3.376 0 1.97.187 3.844.563 5.626.375 1.782.937 3.47 1.78 4.876.845 1.407 1.97 2.532 3.377 3.376 1.407.844 3.188 1.22 5.44 1.22 2.53 0 4.78-.47 6.657-1.408 1.874-.937 3.843-2.156 6-3.844L42.104 82.52c-2.438 1.032-4.69 1.782-6.94 2.25-2.25.47-4.594.75-7.032.75-3.94 0-7.596-.656-10.972-1.968-3.375-1.313-6.376-3.282-8.908-5.908-2.532-2.626-4.5-5.908-5.908-9.846C1.032 63.766.28 59.078.28 53.826c0-1.688.095-3.376.19-4.97.186-1.688.374-3.47.655-5.345.938-6.095 2.438-11.44 4.408-15.94 1.97-4.502 4.22-8.44 6.845-11.63 2.532-3.187 5.25-5.813 8.252-7.782 2.907-1.97 5.814-3.563 8.627-4.688 2.813-1.126 5.533-1.876 8.065-2.345C39.852.655 42.01.47 43.886.47c1.97 0 3.844.186 5.814.468 1.875.28 3.657.844 5.345 1.5l-3.75 23.443zM56.264 42.854c.844-4.97 2.157-10.033 4.126-15.097 1.97-5.064 4.5-9.565 7.595-13.69 3.19-4.033 6.94-7.41 11.253-9.94C83.552 1.593 88.615.28 94.242.28c4.688 0 8.627.845 11.91 2.627 3.28 1.782 5.907 4.126 7.97 7.127 2.063 3 3.47 6.376 4.407 10.315.937 3.843 1.406 7.876 1.406 12.002 0 1.78-.094 3.47-.188 5.25-.188 1.783-.375 3.47-.656 5.158-.844 4.97-2.157 10.034-4.126 15.098-1.97 5.064-4.502 9.565-7.596 13.69-3.188 4.033-6.94 7.41-11.253 9.94-4.313 2.533-9.377 3.845-15.003 3.845-4.69 0-8.72-.937-11.91-2.625-3.188-1.782-5.814-4.126-7.877-7.127-1.97-3-3.47-6.376-4.313-10.314-.938-3.845-1.407-7.97-1.407-12.19 0-1.688.094-3.376.188-5.158 0-1.688.187-3.376.47-5.064zm22.693 0c-.188 1.032-.282 2.438-.563 4.22-.187 1.782-.28 3.75-.28 5.814 0 1.5.093 2.907.28 4.313.188 1.408.47 2.627.938 3.752.47 1.126 1.125 1.97 1.875 2.626.844.656 1.782 1.032 3.095 1.032 1.406 0 2.625-.376 3.75-1.22 1.126-.843 2.064-1.97 2.908-3.282.844-1.312 1.594-2.813 2.156-4.5.657-1.595 1.126-3.283 1.595-4.877.47-1.593.75-3.093 1.032-4.5.28-1.407.47-2.532.563-3.47.187-1.03.375-2.438.562-4.313.282-1.876.375-3.75.375-5.814 0-1.407-.093-2.907-.28-4.22-.188-1.406-.47-2.625-.94-3.75-.467-1.126-1.124-1.97-1.874-2.626-.844-.657-1.782-1.032-3.095-1.032-1.406 0-2.625.375-3.75 1.22-1.126.843-2.063 1.968-2.907 3.28-.844 1.314-1.595 2.814-2.157 4.502-.658 1.594-1.126 3.282-1.595 4.877-.47 1.594-.844 3.094-1.126 4.5-.282 1.5-.47 2.626-.563 3.47zM131.75 83.927l-6.094-82.145h23.35V35.54l-.282 9.94c-.188 3.282-.282 6.564-.47 9.94h.188c1.032-3.376 1.97-6.658 2.72-9.94.844-3.282 1.782-6.564 2.907-9.94l11.345-33.758h24.006l-35.07 82.145h-22.6zM194.39 1.782h41.26l-2.906 19.41h-19.036l-1.875 11.44H228.9l-3.095 19.412h-17.067l-1.97 12.566h19.037l-2.907 19.41h-41.26L194.39 1.783zM269.222 83.927l-6.94-34.227-.28.187c-.188 2.063-.47 4.032-.657 6.002-.187 1.968-.47 4.03-.844 6l-3.375 21.943H234.9l12.66-82.05h21.474c4.314 0 8.252.28 11.91.936 3.657.656 6.75 1.78 9.377 3.28 2.627 1.596 4.69 3.66 6.096 6.378 1.407 2.72 2.157 6.095 2.157 10.22 0 1.033-.094 2.064-.188 3.096-.093 1.03-.28 2.157-.375 3.282-.75 4.595-2.344 8.72-4.97 12.378-2.625 3.75-6.19 6.47-10.97 8.158L293.32 83.74h-24.1v.187zm-3.938-44.074c1.406 0 2.813-.28 4.032-.843 1.22-.563 2.344-1.407 3.188-2.345.938-.938 1.688-2.063 2.25-3.376.563-1.313.938-2.532 1.22-3.845.093-.47.093-.844.187-1.22 0-.374.095-.75.095-1.125 0-2.625-.75-4.5-2.25-5.814-1.5-1.22-3.47-1.875-6.002-1.875h-.844l-3.19 20.256 1.314.187zM337.114 83.927V73.424h-14.91l-3.47 10.597h-22.88l32.445-82.145h27.1l4.688 82.146h-22.974v-.093zm.093-27.945l.563-19.035c.094-2.532.188-5.158.28-7.69.19-2.625.283-5.157.47-7.69h-.187c-.75 2.533-1.5 5.158-2.157 7.69-.75 2.626-1.5 5.158-2.25 7.69l-6.002 19.035h9.283zM365.902 83.927l12.753-82.145h22.224l-9.847 62.734h16.692l-2.907 19.41h-38.916zM410.913 83.927l12.753-82.145h22.224l-9.846 62.734h16.692l-2.907 19.41h-38.917zM459.393 56.264c.563 1.125 1.313 2.25 2.157 3.376.844 1.125 1.876 2.063 2.907 2.907 1.125.843 2.25 1.594 3.47 2.063 1.22.468 2.532.75 4.032.75s3.093-.47 4.594-1.407c1.594-.938 2.532-2.25 2.813-4.126.094-.28.094-.656.094-1.22 0-1.218-.374-2.343-1.218-3.375-.375-.562-.844-1.125-1.407-1.594-.562-.47-1.125-1.03-1.782-1.5-1.875-1.688-3.657-3.376-5.25-4.97-1.595-1.688-3.002-3.47-4.127-5.44-.844-1.406-1.406-3-1.875-4.688-.468-1.688-.656-3.47-.656-5.44 0-1.31.094-2.718.282-4.218.375-2.438 1.22-5.158 2.532-8.252 1.312-3.095 3.094-6.096 5.532-8.815 2.344-2.72 5.345-5.064 8.815-7.033 3.563-1.97 7.69-2.907 12.378-2.907 2.72 0 5.345.375 7.97 1.125 2.626.75 5.064 1.782 7.22 3l-3.937 24.945c-.47-1.032-1.126-2.063-1.97-3.095-.844-1.03-1.688-1.97-2.72-2.813-1.03-.844-2.156-1.5-3.28-2.063-1.22-.563-2.44-.844-3.752-.844-1.313 0-2.626.47-4.032 1.313-1.407.844-2.25 2.063-2.532 3.75v.657c0 1.407.47 2.72 1.5 3.94.47.655 1.032 1.218 1.688 1.78.657.563 1.22 1.032 1.782 1.594 2.063 1.688 3.938 3.283 5.532 4.877 1.595 1.595 2.814 3.283 3.75 5.158.75 1.313 1.314 2.72 1.69 4.22.374 1.5.562 3.188.562 5.064 0 1.688-.188 3.376-.47 4.97-.562 3.844-1.78 7.408-3.562 10.69-1.782 3.282-4.033 6.19-6.752 8.72-2.72 2.533-5.72 4.502-9.19 5.908-3.47 1.407-7.127 2.157-10.97 2.157-5.628 0-11.066-1.125-16.13-3.376l4.313-25.786z"/></g></svg>