<svg width="256" height="243" viewBox="0 0 256 243" xmlns="http://www.w3.org/2000/svg" preserveAspectRatio="xMinYMin meet"><defs><linearGradient x1="-82.637%" y1="-92.82%" x2="103.767%" y2="106.042%" id="a"><stop stop-color="#F9A03C" offset="0%"/><stop stop-color="#F7974E" offset="100%"/></linearGradient><linearGradient x1="-258.924%" y1="-248.97%" x2="97.62%" y2="98.768%" id="b"><stop stop-color="#F9A03C" offset="0%"/><stop stop-color="#F7974E" offset="100%"/></linearGradient><linearGradient x1="-223.163%" y1="-261.968%" x2="94.028%" y2="101.691%" id="c"><stop stop-color="#F9A03C" offset="0%"/><stop stop-color="#F7974E" offset="100%"/></linearGradient><linearGradient x1="11.339%" y1="-1.822%" x2="82.496%" y2="92.107%" id="d"><stop stop-color="#F26D58" offset="0%"/><stop stop-color="#F9A03C" offset="100%"/></linearGradient><linearGradient x1="15.844%" y1="3.858%" x2="120.126%" y2="72.38%" id="e"><stop stop-color="#B84E51" offset="0%"/><stop stop-color="#F68E48" offset="100%"/></linearGradient><linearGradient x1="46.984%" y1="23.466%" x2="51.881%" y2="147.391%" id="f"><stop stop-color="#F9A03C" offset="0%"/><stop stop-color="#F7974E" offset="100%"/></linearGradient></defs><path d="M255.52 175.62c.115-1.116.197-2.24.26-3.372.08-1.34-80.56-77.85-80.56-77.85h-1.93s81.737 86.215 82.23 81.22z" fill="url(#a)"/><path d="M83.472 149.077c-.107.235-.213.47-.323.704-.115.247-.233.492-.35.735-2.57 5.36 35.987 43.053 39.088 38.474.14-.203.283-.417.424-.62.157-.24.312-.47.467-.71 2.48-3.764-38.207-41.03-39.308-38.583z" fill="url(#b)"/><path d="M137.957 202.083c-.11.24-.885 1.552-1.594 2.245-.12.24 37.64 37.688 37.64 37.688h3.4c.002 0-35.446-38.35-39.446-39.933z" fill="url(#c)"/><path d="M255.835 171.568c-1.766 39.147-34.152 70.448-73.72 70.448h-5.35l-39.514-38.928c3.25-4.584 6.273-9.333 8.963-14.285h35.902c11.354 0 20.594-9.235 20.594-20.595 0-11.355-9.24-20.595-20.595-20.595H160.87c1.618-8.557 2.503-17.38 2.503-26.408 0-9.165-.9-18.114-2.578-26.808h13.197l81.61 80.414c.097-1.077.174-2.154.233-3.242zM21.467 0H0v53.213h21.467c37.493 0 68 30.5 68 67.992 0 10.2-2.275 19.883-6.318 28.576l39.162 38.59c12.86-19.24 20.376-42.338 20.376-67.165C142.688 54.373 88.308 0 21.468 0z" fill="url(#d)"/><path d="M182.115 0H95.187C116.42 12.963 134 31.344 145.98 53.213h36.135c11.354 0 20.594 9.235 20.594 20.595 0 11.357-9.24 20.592-20.595 20.592h-8.12l81.61 80.413c.192-2.18.312-4.376.312-6.605 0-17.94-6.437-34.395-17.125-47.203 10.688-12.802 17.125-29.26 17.125-47.197C255.917 33.112 222.813 0 182.115 0z" fill="url(#e)"/><path d="M176.765 242.016H95.808c16.296-10.064 30.384-23.35 41.443-38.928l39.515 38.928zm-54.453-53.645l-39.16-38.59c-10.82 23.252-34.395 39.423-61.685 39.423H0v53.208h21.467c42.01 0 79.09-21.487 100.845-54.04z" fill="url(#f)"/></svg>