<svg width="256" height="228" viewBox="0 0 256 228" xmlns="http://www.w3.org/2000/svg" preserveAspectRatio="xMinYMin meet"><defs><radialGradient cy="68.089%" fx="50%" fy="68.089%" r="61.683%" id="a"><stop stop-color="#BF7715" offset="0%"/><stop stop-color="#DC9636" offset="100%"/></radialGradient><linearGradient x1="50%" y1="0%" x2="50%" y2="100%" id="b"><stop stop-color="#F2B968" offset="0%"/><stop stop-color="#BF7A1D" offset="100%"/></linearGradient><radialGradient cy="11.982%" fx="50%" fy="11.982%" r="47.209%" id="c"><stop stop-color="#E85C66" offset="0%"/><stop stop-color="#C92935" offset="100%"/></radialGradient><radialGradient cy="11.982%" fx="50%" fy="11.982%" r="47.209%" id="d"><stop stop-color="#75ED9F" offset="0%"/><stop stop-color="#39BD67" offset="100%"/></radialGradient><radialGradient cy="11.982%" fx="50%" fy="11.982%" r="47.209%" id="e"><stop stop-color="#F7DE4A" offset="0%"/><stop stop-color="#FACF40" offset="100%"/></radialGradient><linearGradient x1="54.577%" y1="100%" x2="52.494%" y2="39.432%" id="f"><stop stop-color="#F7DB48" offset="0%"/><stop stop-color="#FACE40" offset="100%"/></linearGradient><linearGradient x1="45.546%" y1="100%" x2="50%" y2="44.506%" id="g"><stop stop-color="#F7DB48" offset="0%"/><stop stop-color="#FACE40" offset="100%"/></linearGradient><linearGradient x1="50%" y1="0%" x2="50%" y2="100%" id="h"><stop stop-color="#EDA23B" offset="0%"/><stop stop-color="#D89334" offset="100%"/></linearGradient><linearGradient x1="50%" y1="0%" x2="50%" y2="100%" id="i"><stop stop-color="#F6CF9A" offset="0%"/><stop stop-color="#E39B38" offset="100%"/></linearGradient></defs><path d="M.046 28.947V72.5s-.297 28.996 127.276 28.996S254.895 72.5 254.895 72.5V28.947s0 36.274-127.573 36.274S.046 28.948.046 28.948z" fill="url(#a)" transform="translate(.468 126.045)"/><path d="M127.147 65.843c78.502 0 127.748-17.182 127.748-34.42 0-17.24-58.24-31.02-127.748-31.02C57.64.403.047 14.183.047 31.423c0 17.238 48.598 34.42 127.1 34.42z" fill="url(#b)" transform="translate(.468 126.045)"/><path d="M127.615 191.45c37.296 0 69.766-3.9 93.19-10.73 21.818-6.36 34.12-14.854 34.12-23.252 0-16.71-57.588-30.582-127.31-30.582-69.6 0-126.662 13.842-126.662 30.582 0 8.41 12.167 16.9 33.797 23.254 23.26 6.83 55.58 10.728 92.865 10.728zm0 .438c-78.502 0-127.1-17.182-127.1-34.42 0-17.24 57.592-31.02 127.1-31.02 69.507 0 127.748 13.78 127.748 31.02 0 17.238-49.246 34.42-127.748 34.42z" fill="#BB791D"/><path d="M.514 152.212v7.438s0 31.684 127.425 31.684c127.423 0 127.423-31.684 127.423-31.684v-7.438s0 33.66-127.424 33.66C.513 185.872.513 152.212.513 152.212z" fill="#C92935"/><path d="M127.147 65.798c97.038 0 127.748-17.217 127.748-34.456 0-17.238-58.24-31.02-127.748-31.02C57.64.322.047 14.104.047 31.342c0 17.24 30.062 34.456 127.1 34.456z" fill="url(#c)" transform="translate(.468 120.428)"/><path d="M127.615 185.787c45.563 0 78.806-3.79 100.127-10.74 18.33-5.98 27.182-14.11 27.182-23.277 0-16.71-57.587-30.58-127.31-30.58-69.598 0-126.66 13.84-126.66 30.58 0 9.194 8.71 17.31 26.858 23.276 21.155 6.955 54.252 10.74 99.803 10.74zm0 .44c-97.038 0-127.1-17.218-127.1-34.457 0-17.238 57.592-31.02 127.1-31.02 69.507 0 127.748 13.782 127.748 31.02 0 17.24-30.71 34.456-127.748 34.456z" fill="#AD222C"/><path d="M.514 113.127v43.552s-.297 28.995 127.276 28.995 127.573-28.996 127.573-28.996v-43.553s0 36.274-127.573 36.274S.514 113.128.514 113.128z" fill="#340405"/><path d="M127.615 150.035c78.502 0 127.748-17.182 127.748-34.42 0-17.24-58.24-31.02-127.748-31.02-69.508 0-127.1 13.78-127.1 31.02 0 17.238 48.598 34.42 127.1 34.42z" fill="#340405"/><path d="M127.615 149.597c37.296 0 69.767-3.9 93.19-10.73 21.818-6.36 34.12-14.855 34.12-23.253 0-16.71-57.588-30.58-127.31-30.58-69.6 0-126.662 13.84-126.662 30.58 0 8.412 12.167 16.902 33.797 23.254 23.26 6.832 55.58 10.73 92.865 10.73zm0 .438c-78.502 0-127.1-17.182-127.1-34.42 0-17.24 57.592-31.02 127.1-31.02s127.748 13.78 127.748 31.02c0 17.238-49.246 34.42-127.748 34.42z" fill="#150101"/><g><path d="M.514 111.615v7.438s0 32.342 127.425 32.342c127.423 0 127.423-32.342 127.423-32.342v-7.438s0 34.36-127.424 34.36C.513 145.974.513 111.614.513 111.614z" fill="#39BD67"/><path d="M127.147 65.798c97.038 0 127.748-17.217 127.748-34.456 0-17.238-58.24-31.02-127.748-31.02C57.64.322.047 14.104.047 31.342c0 17.24 30.062 34.456 127.1 34.456z" fill="url(#d)" transform="translate(.468 80.466)"/><path d="M127.615 145.825c45.563 0 78.806-3.79 100.127-10.74 18.33-5.98 27.182-14.11 27.182-23.277 0-16.71-57.587-30.58-127.31-30.58-69.598 0-126.66 13.84-126.66 30.58 0 9.194 8.71 17.31 26.858 23.276 21.155 6.955 54.252 10.74 99.803 10.74zm0 .44c-97.038 0-127.1-17.218-127.1-34.457 0-17.238 57.592-31.02 127.1-31.02 69.507 0 127.748 13.782 127.748 31.02 0 17.24-30.71 34.456-127.748 34.456z" fill="#33A65B"/></g><g><path d="M.514 73.164v43.552s-.297 28.996 127.276 28.996 127.573-28.996 127.573-28.996V73.164s0 36.274-127.573 36.274S.514 73.164.514 73.164z" fill="#340405"/><path d="M127.615 110.073c78.502 0 127.748-17.183 127.748-34.42 0-17.24-58.24-31.02-127.748-31.02-69.508 0-127.1 13.78-127.1 31.02 0 17.237 48.598 34.42 127.1 34.42z" fill="#340405"/><path d="M127.615 109.634c37.296 0 69.767-3.9 93.19-10.728 21.818-6.362 34.12-14.856 34.12-23.254 0-16.71-57.588-30.582-127.31-30.582C58.015 45.07.953 58.912.953 75.652c0 8.41 12.167 16.9 33.797 23.254 23.26 6.832 55.58 10.728 92.865 10.728zm0 .44C49.113 110.073.515 92.89.515 75.65c0-17.24 57.592-31.02 127.1-31.02s127.748 13.78 127.748 31.02c0 17.238-49.246 34.42-127.748 34.42z" fill="#150101"/></g><g><path d="M127.147 65.763c78.502 0 127.748-17.182 127.748-34.42 0-17.24-58.24-31.02-127.748-31.02C57.64.322.047 14.102.047 31.342c0 17.238 48.598 34.42 127.1 34.42z" fill="url(#e)" transform="translate(.468 43.04)"/><path d="M213.83 52.87c15.47-3.853 24.783-6.6 33.16-9.496-13.762 7.665-13.706 30.2-18.55 30.2-4.847 0-16.497-12.84-51.822-10.33 0 0 21.744-6.524 37.213-10.375z" fill="url(#f)" transform="translate(.468 43.04)"/><path d="M29.163 50.763c8.995 3.21 18.61 7.447 27.18 9.368-25.01-1.92-34.05 12.74-35.742 4.952-1.692-7.788 1.075-12.528-14.517-23.176 0 0 10.58 4.395 23.08 8.857z" fill="url(#g)" transform="translate(.468 43.04)"/></g><g><path d="M.904 28.995v43.552s-.297 28.996 127.276 28.996c127.572 0 127.572-28.996 127.572-28.996V28.995s0 36.274-127.572 36.274C.607 65.27.904 28.994.904 28.994z" fill="url(#h)" transform="translate(-.39 .4)"/><path d="M128.005 65.89c78.5 0 127.747-17.18 127.747-34.42 0-17.238-58.24-31.02-127.747-31.02C58.497.45.905 14.232.905 31.47c0 17.24 48.598 34.42 127.1 34.42z" fill="url(#i)" transform="translate(-.39 .4)"/><path d="M127.615 66.51c37.354 0 69.885-3.906 93.373-10.754 22.082-6.438 34.594-15.078 34.594-23.886 0-17.317-57.796-31.24-127.967-31.24C57.568.63.295 14.525.295 31.87c0 8.82 12.377 17.456 34.27 23.886 23.326 6.85 55.707 10.754 93.05 10.754zm0-.438c-37.304 0-69.644-3.9-92.927-10.737C12.97 48.955.733 40.418.733 31.87c0-16.94 57.134-30.8 126.882-30.8 69.87 0 127.528 13.888 127.528 30.8 0 8.535-12.37 17.078-34.278 23.465-23.444 6.835-55.935 10.737-93.25 10.737z" fill="#C58020"/><g fill="#FCF1DE"><path d="M78.128 13.52c1.305 0 3.253-.962 3.253-1.78 0-.815-1.965-1.813-3.252-1.813-1.287 0-2.78-.353-2.78 1.814 0 2.17 1.475 1.78 2.78 1.78zM97.258 19.813c1.305 0 3.252-.96 3.252-1.777s-1.965-1.815-3.252-1.815c-1.287 0-2.78-.352-2.78 1.816 0 2.167 1.475 1.777 2.78 1.777zM80.76 24.35c-1.312-.343-3.497-.027-3.69.676-.194.703 1.545 2.077 2.84 2.414 1.293.338 2.71 1.033 3.224-.832.514-1.866-1.062-1.917-2.374-2.26zM47.956 31.01c1.306-.377 2.995-1.74 2.776-2.42-.22-.68-2.455-.942-3.742-.57-1.288.373-2.877.51-2.294 2.315.583 1.805 1.955 1.053 3.26.675zM35.39 19.98c-1.31-.343-3.496-.027-3.69.676-.193.703 1.546 2.077 2.84 2.414 1.294.337 2.712 1.033 3.226-.833.513-1.865-1.063-1.916-2.375-2.258zM75.262 50.918c1.337 0 3.33-.96 3.33-1.777 0-.816-2.01-1.813-3.33-1.813-1.318 0-2.848-.353-2.848 1.814 0 2.168 1.512 1.778 2.848 1.778zM65.43 38.146c-1.19.633-2.34 2.083-1.81 2.513.53.43 2.968.002 4.14-.622 1.172-.624 2.762-1.162 1.355-2.304-1.406-1.14-2.497-.22-3.686.412zM45.874 47.738c.925.74 3.388 1.575 4.308 1.35.92-.225.648-1.612-.265-2.34-.912-.73-1.574-1.67-4.014-1.073-2.44.598-.954 1.325-.03 2.063zM26.3 66.383c1.306-.378 2.996-1.74 2.777-2.42-.22-.68-2.455-.943-3.742-.57-1.288.372-2.877.51-2.294 2.314.584 1.805 1.956 1.053 3.26.676zM37.624 84.105c1.336 0 3.33-.96 3.33-1.777s-2.012-1.814-3.33-1.814c-1.32 0-2.848-.354-2.848 1.814 0 2.167 1.51 1.777 2.848 1.777zM51.666 68.123c-.943.735-1.293 2.107-.393 2.34.9.234 3.42-.588 4.35-1.313.93-.725 2.4-1.465.012-2.085-2.388-.62-3.025.323-3.97 1.058zM75.8 85.472c1.304-.377 2.994-1.74 2.774-2.42-.22-.68-2.454-.942-3.742-.57-1.288.373-2.877.51-2.294 2.315.584 1.804 1.955 1.052 3.26.675zM109.148 74.2c1.337 0 3.33-.96 3.33-1.778 0-.816-2.01-1.814-3.33-1.814-1.318 0-2.848-.353-2.848 1.814 0 2.168 1.512 1.778 2.848 1.778zM73.33 66.613c-.944.735-1.294 2.107-.394 2.34.9.235 3.42-.587 4.35-1.312.93-.724 2.4-1.464.012-2.085-2.388-.62-3.025.323-3.97 1.058zM61.858 22.094c.925.738 3.388 1.575 4.307 1.35.92-.226.65-1.613-.264-2.34-.912-.73-1.574-1.672-4.014-1.074-2.44.598-.954 1.325-.028 2.064zM99.495 89.097c1.337 0 3.33-.96 3.33-1.777s-2.01-1.815-3.33-1.815c-1.318 0-2.848-.353-2.848 1.815 0 2.167 1.512 1.777 2.848 1.777zM175.812 58.983c1.336 0 3.33-.96 3.33-1.777s-2.012-1.814-3.33-1.814-2.848-.353-2.848 1.814c0 2.168 1.512 1.777 2.848 1.777zM102.585 58.046c1.336 0 3.33-.96 3.33-1.777 0-.818-2.012-1.816-3.33-1.816s-2.848-.353-2.848 1.815c0 2.166 1.512 1.776 2.848 1.776zM136.782 35.104c1.337 0 3.33-.96 3.33-1.777s-2.01-1.814-3.33-1.814c-1.318 0-2.848-.353-2.848 1.814s1.512 1.777 2.848 1.777zM121.69 45.004c1.306-.377 2.996-1.74 2.776-2.42-.22-.68-2.454-.942-3.742-.57-1.287.373-2.877.51-2.293 2.315.584 1.803 1.956 1.052 3.26.674zM100.032 32.83c1.305-.377 2.995-1.74 2.775-2.42-.22-.68-2.454-.94-3.742-.57-1.287.373-2.877.51-2.293 2.316.583 1.804 1.954 1.052 3.26.675zM128.19 11.864c-1.31-.342-3.496-.025-3.69.678-.193.702 1.546 2.076 2.84 2.414 1.294.337 2.712 1.033 3.225-.833.514-1.865-1.062-1.917-2.374-2.26zM109.803 9.878c1.337 0 3.33-.96 3.33-1.777 0-.816-2.01-1.813-3.33-1.813-1.318 0-2.848-.353-2.848 1.814 0 2.17 1.512 1.778 2.848 1.778zM154.66 8.52c.927.737 3.39 1.574 4.31 1.348.918-.225.648-1.612-.265-2.34-.913-.73-1.575-1.67-4.015-1.073-2.44.598-.954 1.326-.03 2.064zM145.38 21.633c1.336 0 3.33-.96 3.33-1.777s-2.012-1.815-3.33-1.815c-1.32 0-2.848-.352-2.848 1.816 0 2.167 1.51 1.777 2.848 1.777zM190.752 12.532c1.337 0 3.33-.96 3.33-1.777s-2.01-1.815-3.33-1.815c-1.318 0-2.848-.353-2.848 1.815 0 2.167 1.512 1.777 2.848 1.777zM217.905 14.518c-1.31-.342-3.497-.026-3.69.677-.194.703 1.545 2.077 2.84 2.414 1.293.337 2.71 1.032 3.224-.833.513-1.866-1.063-1.917-2.375-2.26zM234.192 25.47c-.943.735-1.293 2.107-.393 2.34.9.234 3.418-.588 4.35-1.313.93-.725 2.398-1.465.01-2.085-2.387-.62-3.025.323-3.968 1.058zM213.958 27.824c1.337 0 3.33-.96 3.33-1.778 0-.816-2.01-1.814-3.33-1.814-1.318 0-2.848-.353-2.848 1.814 0 2.168 1.512 1.778 2.848 1.778zM182.527 24.82c1.306-.377 2.996-1.74 2.776-2.42-.22-.68-2.454-.942-3.742-.57-1.287.373-2.876.51-2.293 2.315.584 1.804 1.955 1.052 3.26.675zM159.297 33.284c1.336 0 3.33-.96 3.33-1.777s-2.012-1.815-3.33-1.815c-1.32 0-2.848-.353-2.848 1.815 0 2.167 1.51 1.777 2.847 1.777zM188.17 41.817c1.337 0 3.33-.96 3.33-1.777s-2.01-1.814-3.33-1.814c-1.318 0-2.848-.353-2.848 1.814s1.512 1.777 2.848 1.777zM220.674 45.004c1.305-.377 2.995-1.74 2.775-2.42-.22-.68-2.455-.942-3.743-.57-1.287.373-2.877.51-2.293 2.315.583 1.803 1.954 1.052 3.26.674zM246.26 54.57c-1.313-.34-3.498-.024-3.692.678-.193.703 1.546 2.077 2.84 2.415 1.294.337 2.712 1.032 3.225-.833.514-1.866-1.062-1.917-2.374-2.26zM235.296 70.476c1.336 0 3.33-.96 3.33-1.777 0-.818-2.012-1.815-3.33-1.815-1.32 0-2.848-.353-2.848 1.814s1.51 1.776 2.848 1.776zM218.592 63.656c.925.738 3.388 1.575 4.307 1.35.918-.226.648-1.613-.265-2.34-.913-.73-1.575-1.672-4.015-1.074-2.44.598-.954 1.326-.028 2.064zM210.677 82.92c1.336 0 3.33-.96 3.33-1.778 0-.817-2.012-1.814-3.33-1.814-1.32 0-2.848-.353-2.848 1.814 0 2.168 1.51 1.777 2.847 1.777zM192.417 65.916c-.944.735-1.293 2.107-.394 2.34.9.235 3.42-.587 4.35-1.312.93-.725 2.4-1.465.012-2.085-2.388-.622-3.025.32-3.968 1.056zM159.297 52.74c1.336 0 3.33-.962 3.33-1.78 0-.815-2.012-1.813-3.33-1.813-1.32 0-2.848-.353-2.848 1.814 0 2.17 1.51 1.78 2.847 1.78zM126.143 63.664c1.336 0 3.33-.96 3.33-1.777s-2.012-1.814-3.33-1.814-2.848-.353-2.848 1.814 1.512 1.777 2.848 1.777zM146.246 57.22c0-.787-1.63-1.962-3.017-1.962s-3.08 1.186-3.08 1.963c0 .777-.6 1.68 3.08 1.68 3.678 0 3.016-.892 3.016-1.68zM131.52 74.977c-.443-.78-2.584-1.844-3.84-1.76-1.258.082-2.126 1.358-1.688 2.126.438.77.402 1.697 3.74 1.476 3.336-.223 2.233-1.064 1.79-1.843zM162.386 78.645c1.337 0 3.33-.96 3.33-1.778 0-.816-2.01-1.814-3.33-1.814-1.318 0-2.848-.353-2.848 1.814 0 2.168 1.512 1.778 2.848 1.778zM120.1 91.777c-1.31-.342-3.497-.026-3.69.677-.194.703 1.545 2.077 2.84 2.414 1.293.337 2.71 1.033 3.225-.833.513-1.865-1.063-1.916-2.374-2.258zM133.513 87.746c1.336 0 3.33-.96 3.33-1.778 0-.816-2.012-1.814-3.33-1.814s-2.848-.353-2.848 1.814c0 2.168 1.512 1.778 2.848 1.778zM9.587 50.147c-1.31-.342-3.49-.026-3.683.677-.194.703 1.542 2.077 2.833 2.414 1.29.337 2.706 1.033 3.22-.833.51-1.865-1.062-1.916-2.37-2.258zM29.32 47.278c1.334 0 3.325-.96 3.325-1.777 0-.816-2.01-1.814-3.325-1.814-1.315 0-2.842-.353-2.842 1.815s1.51 1.778 2.842 1.778zM10.777 73.013c.92.738 3.374 1.575 4.29 1.35.915-.226.646-1.613-.263-2.34-.91-.73-1.57-1.672-4-1.074-2.43.597-.95 1.325-.027 2.063zM185.18 84.59c1.3-.378 2.982-1.74 2.763-2.42-.218-.68-2.444-.943-3.726-.57-1.282.372-2.865.51-2.284 2.314.58 1.804 1.947 1.053 3.246.675zM162.768 95.026c1.33 0 3.317-.96 3.317-1.777s-2.004-1.815-3.317-1.815c-1.313 0-2.837-.353-2.837 1.814s1.507 1.776 2.838 1.776zM243.324 35.643c.917.738 3.36 1.575 4.272 1.35.91-.226.643-1.613-.262-2.34-.906-.73-1.562-1.672-3.982-1.074-2.42.597-.946 1.325-.028 2.063zM20.495 33.284c1.325 0 3.303-.96 3.303-1.777s-1.996-1.815-3.303-1.815c-1.308 0-2.825-.353-2.825 1.815 0 2.167 1.5 1.777 2.825 1.777zM48.1 16.172c1.325 0 3.303-.96 3.303-1.777S49.407 12.58 48.1 12.58c-1.308 0-2.825-.352-2.825 1.815 0 2.168 1.5 1.777 2.825 1.777z"/></g></g></svg>