<svg width="256" height="256" viewBox="0 0 256 256" xmlns="http://www.w3.org/2000/svg" xmlns:xlink="http://www.w3.org/1999/xlink" preserveAspectRatio="xMinYMin meet"><defs><circle id="a" cx="128" cy="128" r="128"/></defs><mask id="b" fill="#fff"><use xlink:href="#a"/></mask><use fill="#B3BBC6" xlink:href="#a"/><path d="M38.715 176.727l107.34 79.844 264.006 16.605-202.306-187.25v42.687l-18.874-13.517-35.122-29.17-20.908 34.082-29.395-24.54L51.77 92.19l-13.055 84.537z" fill="#666C76" mask="url(#b)"/><path d="M118.837 131.16c0-27.132-16.675-45.53-48.44-45.53H39.033v91.32H71.06c30.837 0 47.777-18.66 47.777-45.79zm-22.763.13c0 19.59-10.06 28.06-26.205 28.06h-8.207v-56.116h8.206c15.483 0 26.204 8.867 26.204 28.057zm112.892 45.66V85.63h-21.043v51.088L154.307 85.63h-21.97v91.32h21.043v-54.658l36 54.66h19.586z" fill="#FFF"/></svg>