<svg width="256" height="326" viewBox="0 0 256 326" xmlns="http://www.w3.org/2000/svg" preserveAspectRatio="xMinYMin meet"><g fill="#2BA977"><path d="M114.784 0h53.278v244.19c-27.29 5.163-47.38 7.194-69.117 7.194C33.873 251.316 0 222.244 0 166.412c0-53.795 35.93-88.708 91.608-88.708 8.64 0 15.222.68 23.176 2.717V0zm1.867 124.427c-6.238-2.038-11.38-2.717-17.964-2.717-26.947 0-42.512 16.437-42.512 45.243 0 28.046 14.88 43.532 42.17 43.532 5.896 0 10.696-.332 18.307-1.35v-84.708z"/><path d="M255.187 84.26v122.263c0 42.105-3.154 62.353-12.41 79.81-8.64 16.783-20.023 27.366-43.542 39.055l-49.438-23.297c23.52-10.928 34.9-20.587 42.17-35.326 7.61-15.072 10.01-32.53 10.01-78.445V84.26h53.21zM196.608 0h53.278v54.135h-53.278V0z"/></g></svg>