<svg width="256" height="244" viewBox="0 0 256 244" xmlns="http://www.w3.org/2000/svg" preserveAspectRatio="xMinYMin meet"><defs><linearGradient x1="49.997%" y1="-19.516%" x2="49.997%" y2="129.625%" id="a"><stop stop-color="#0994DC" offset="0%"/><stop stop-color="#66CEF5" offset="35.001%"/><stop stop-color="#66CEF5" offset="35.001%"/><stop stop-color="#127BCA" offset="84.616%"/><stop stop-color="#127BCA" offset="84.616%"/><stop stop-color="#127BCA" offset="100%"/></linearGradient><linearGradient x1="50.001%" y1="-19.516%" x2="50.001%" y2="129.624%" id="b"><stop stop-color="#0E76BC" offset="0%"/><stop stop-color="#36AEE8" offset="36%"/><stop stop-color="#36AEE8" offset="36%"/><stop stop-color="#00ADEF" offset="84.616%"/><stop stop-color="#00ADEF" offset="84.616%"/><stop stop-color="#00ADEF" offset="100%"/></linearGradient><linearGradient x1="49.999%" y1="110.922%" x2="49.999%" y2="-6.214%" id="c"><stop stop-color="#1C63B7" offset="0%"/><stop stop-color="#33BDF2" offset="50%"/><stop stop-color="#33BDF2" stop-opacity=".42" offset="100%"/></linearGradient><linearGradient x1="50.001%" y1="-19.515%" x2="50.001%" y2="129.627%" id="d"><stop stop-color="#166AB8" offset="0%"/><stop stop-color="#36AEE8" offset="39.999%"/><stop stop-color="#36AEE8" offset="39.999%"/><stop stop-color="#0798DD" offset="84.616%"/><stop stop-color="#0798DD" offset="84.616%"/><stop stop-color="#0798DD" offset="100%"/></linearGradient><linearGradient x1="49.999%" y1="-19.521%" x2="49.999%" y2="129.627%" id="e"><stop stop-color="#124379" offset="0%"/><stop stop-color="#1487CB" offset="39%"/><stop stop-color="#1487CB" offset="39%"/><stop stop-color="#165197" offset="78.023%"/><stop stop-color="#165197" offset="78.023%"/><stop stop-color="#165197" offset="100%"/></linearGradient><linearGradient x1="0%" y1="50.001%" y2="50.001%" id="f"><stop stop-color="#33BDF2" stop-opacity=".698" offset="0%"/><stop stop-color="#1DACD8" offset="100%"/></linearGradient><linearGradient x1="50.01%" y1="94.686%" x2="50.01%" y2="-3.025%" id="g"><stop stop-color="#136AB4" offset="0%"/><stop stop-color="#59CAF5" stop-opacity=".549" offset="60%"/><stop stop-color="#59CAF5" stop-opacity=".235" offset="100%"/></linearGradient><linearGradient x1="-.001%" y1="50%" x2="99.999%" y2="50%" id="h"><stop stop-color="#05A1E6" stop-opacity=".247" offset="0%"/><stop stop-color="#05A1E6" offset="100%"/></linearGradient><linearGradient x1="49.998%" y1="124.314%" x2="49.998%" y2="-9.421%" id="i"><stop stop-color="#318ED5" offset="0%"/><stop stop-color="#38A7E4" offset="100%"/></linearGradient><linearGradient x1="49.999%" y1="91.2%" x2="49.999%" y2="-76.785%" id="j"><stop stop-color="#05A1E6" offset="0%"/><stop stop-color="#05A1E6" stop-opacity=".549" offset="100%"/></linearGradient><linearGradient x1="50%" y1="100.01%" x2="50%" y2=".01%" id="k"><stop stop-color="#1959A6" offset="0%"/><stop stop-color="#05A1E6" offset="50%"/><stop stop-color="#05A1E6" offset="50%"/><stop stop-color="#7EC5EA" offset="91.759%"/><stop stop-color="#7EC5EA" offset="100%"/></linearGradient><linearGradient x1="59.804%" y1="94.568%" x2="38.471%" y2="5.755%" id="l"><stop stop-color="#165096" offset="0%"/><stop stop-color="#0D82CA" offset="100%"/></linearGradient><linearGradient x1="49.995%" y1="76.998%" x2="49.995%" y2="-3.299%" id="m"><stop stop-color="#05A1E6" offset="0%"/><stop stop-color="#0495D6" offset="87.363%"/><stop stop-color="#0495D6" offset="100%"/></linearGradient><linearGradient x1="65.263%" y1="-4.161%" x2="34.263%" y2="105.844%" id="n"><stop stop-color="#38A7E4" stop-opacity=".329" offset="0%"/><stop stop-color="#0E88D3" offset="96.153%"/><stop stop-color="#0E88D3" offset="96.153%"/><stop stop-color="#0E88D3" offset="100%"/></linearGradient><linearGradient x1="50.017%" y1="-.296%" x2="50.017%" y2="101.882%" id="o"><stop stop-color="#168CD4" offset="0%"/><stop stop-color="#1C87CC" offset="50%"/><stop stop-color="#154B8D" offset="100%"/></linearGradient><linearGradient x1="16.674%" y1="205.565%" x2="87.813%" y2="-19.836%" id="p"><stop stop-color="#97D6EE" offset="0%"/><stop stop-color="#55C1EA" offset="70.329%"/><stop stop-color="#55C1EA" offset="100%"/></linearGradient><linearGradient x1="6.89%" y1="6.3%" x2="75.783%" y2="116.771%" id="q"><stop stop-color="#7ACCEC" offset="0%"/><stop stop-color="#3FB7ED" offset="100%"/></linearGradient><linearGradient x1="49.997%" y1="6.363%" x2="49.997%" y2="127.961%" id="r"><stop stop-color="#1DA7E7" offset="0%"/><stop stop-color="#37ABE7" stop-opacity="0" offset="100%"/></linearGradient></defs><path d="M214.27 128.006c0-.43-.12-.737-.36-.937-.27-.217-.733-.332-1.38-.332h-.927v2.552h1.12c1.035 0 1.546-.43 1.546-1.284zm1.447 5.32h-1.276l-.813-1.795c-.413-.9-.855-1.35-1.337-1.35h-.687v3.146h-1.052v-7.484h2.108c.936 0 1.64.203 2.122.626.41.364.614.83.614 1.41 0 .516-.167.95-.503 1.31-.326.363-.797.61-1.398.736v.032c.417.098.834.556 1.24 1.382l.985 1.992v-.004zm2.33-3.668c0-1.473-.502-2.716-1.504-3.702-1.006-.985-2.233-1.48-3.68-1.48-1.494 0-2.737.495-3.722 1.49-.985.997-1.476 2.232-1.476 3.692 0 1.493.512 2.74 1.526 3.734 1.002.993 2.23 1.484 3.672 1.484 1.436 0 2.662-.495 3.673-1.5 1.01-.99 1.513-2.234 1.513-3.718zm.708-.033c0 1.653-.568 3.04-1.71 4.155-1.14 1.125-2.54 1.685-4.21 1.685-1.686 0-3.085-.552-4.197-1.636-1.113-1.1-1.665-2.483-1.665-4.16 0-1.64.565-3.018 1.693-4.15 1.13-1.13 2.536-1.693 4.217-1.693 1.648 0 3.03.54 4.15 1.615 1.15 1.104 1.722 2.494 1.722 4.183zM58.8 150.495H55.17v-20.76c0-1.64.108-3.635.3-5.99h-.08c-.34 1.377-.65 2.375-.925 2.993l-10.543 23.757h-1.767L31.593 126.91c-.297-.66-.61-1.718-.924-3.166h-.08c.112 1.24.174 3.248.174 6.032v20.72h-3.497V119.58h4.785l9.484 21.557c.716 1.624 1.178 2.86 1.403 3.702h.15c.617-1.69 1.107-2.958 1.48-3.793l9.688-21.466h4.54v30.915zM69.957 150.494h-3.525v-22.076h3.525v22.076zm.61-29.99c0 .65-.23 1.194-.683 1.64-.446.446-.998.67-1.644.67-.63 0-1.178-.215-1.628-.645-.45-.435-.67-.987-.67-1.666 0-.638.222-1.182.67-1.623.45-.44.998-.654 1.628-.654.646 0 1.198.213 1.644.655.454.442.683.986.683 1.624zM91.988 149.472c-1.693 1.04-3.714 1.554-6.05 1.554-3.164 0-5.712-1.05-7.66-3.15-1.888-2.035-2.84-4.665-2.84-7.888 0-3.615 1.034-6.543 3.12-8.768 2.073-2.23 4.862-3.34 8.37-3.34 1.92 0 3.62.375 5.11 1.12v3.627c-1.65-1.157-3.39-1.73-5.26-1.73-2.25 0-4.078.785-5.497 2.352-1.475 1.602-2.224 3.745-2.224 6.42 0 2.568.683 4.6 2.04 6.1 1.363 1.494 3.175 2.242 5.46 2.242 1.93 0 3.74-.634 5.432-1.897v3.357zM108.85 132c-.622-.48-1.518-.712-2.7-.712-1.435 0-2.642.642-3.62 1.938-1.107 1.448-1.66 3.452-1.66 6.012v11.255h-3.533v-22.076h3.534v4.552h.086c.52-1.613 1.32-2.852 2.392-3.73 1.002-.803 2.135-1.208 3.382-1.208.94 0 1.64.102 2.12.3V132zM128.543 139.496c0-2.826-.638-4.985-1.914-6.466-1.24-1.423-2.97-2.135-5.2-2.135-2.195 0-3.958.72-5.275 2.16-1.394 1.537-2.09 3.71-2.09 6.527 0 2.642.663 4.715 2 6.195 1.33 1.49 3.12 2.233 5.366 2.233 2.324 0 4.103-.756 5.322-2.26 1.194-1.473 1.79-3.555 1.79-6.254m3.624-.125c0 3.52-.993 6.345-2.973 8.463-1.987 2.127-4.662 3.19-8.024 3.19-3.313 0-5.95-1.063-7.885-3.19-1.894-2.05-2.847-4.756-2.847-8.122 0-3.84 1.076-6.8 3.235-8.902 1.996-1.95 4.666-2.932 8.012-2.932 3.292 0 5.864 1.026 7.717 3.06 1.836 2.043 2.764 4.857 2.764 8.435M149.69 144.588c0 1.807-.675 3.304-2.03 4.498-1.475 1.292-3.503 1.94-6.055 1.94-2.09 0-3.922-.44-5.476-1.33v-3.8c1.73 1.407 3.638 2.115 5.737 2.115 2.797 0 4.2-1.03 4.2-3.083 0-.863-.308-1.58-.93-2.13-.62-.565-1.827-1.24-3.622-2.03-1.85-.81-3.166-1.64-3.942-2.502-.933-1.023-1.403-2.35-1.403-3.987 0-1.833.732-3.358 2.18-4.573 1.45-1.218 3.316-1.828 5.606-1.828 1.755 0 3.325.344 4.72 1.035v3.558c-1.456-1.05-3.12-1.575-5.01-1.575-1.17 0-2.11.292-2.81.86-.707.58-1.063 1.32-1.063 2.224 0 .977.298 1.737.888 2.28.524.504 1.636 1.118 3.313 1.833 1.885.79 3.247 1.608 4.077 2.446 1.076 1.058 1.62 2.408 1.62 4.048M171.285 139.496c0-2.826-.638-4.985-1.918-6.466-1.235-1.423-2.97-2.135-5.194-2.135-2.196 0-3.96.72-5.284 2.16-1.39 1.537-2.083 3.71-2.083 6.527 0 2.642.663 4.715 1.988 6.195 1.345 1.49 3.137 2.233 5.378 2.233 2.327 0 4.102-.756 5.32-2.26 1.194-1.473 1.792-3.555 1.792-6.254m3.63-.125c0 3.52-1 6.345-2.984 8.463-1.98 2.127-4.653 3.19-8.015 3.19-3.317 0-5.955-1.063-7.89-3.19-1.892-2.05-2.845-4.756-2.845-8.122 0-3.84 1.083-6.8 3.23-8.902 1.996-1.95 4.67-2.932 8.02-2.932 3.293 0 5.86 1.026 7.71 3.06 1.84 2.043 2.776 4.857 2.776 8.435M190.486 120.917c-.695-.385-1.467-.58-2.347-.58-2.475 0-3.702 1.557-3.702 4.678v3.402h5.173v2.994h-5.172v19.083H180.9V131.41h-3.754v-2.993h3.754v-3.578c0-2.43.745-4.337 2.258-5.71 1.296-1.195 2.883-1.788 4.768-1.788 1.093 0 1.943.13 2.56.385v3.19zM204.433 150.27c-.834.48-1.947.717-3.32.717-3.853 0-5.78-2.172-5.78-6.515v-13.058h-3.786v-2.998h3.787v-5.386c1.128-.356 2.302-.744 3.54-1.145v6.53h5.56v3h-5.56v12.456c0 1.48.243 2.54.75 3.154.51.634 1.345.945 2.523.945.88 0 1.64-.237 2.286-.713v3.014z"/><g><path d="M13.414 236.653c0 1.73-.617 3.226-1.864 4.49-1.244 1.26-2.753 1.894-4.524 1.894-1.73 0-3.202-.634-4.408-1.894-1.207-1.264-1.808-2.76-1.808-4.49 0-1.78.6-3.28 1.808-4.523 1.206-1.248 2.678-1.865 4.408-1.865 1.77 0 3.28.626 4.524 1.89 1.247 1.263 1.864 2.764 1.864 4.498M92.53 241.737H81.008l-41.833-64.604c-.978-1.554-1.82-3.243-2.536-5.088h-.344c.298 1.73.45 5.443.45 11.132v58.56h-9.5v-81.053h12.33l40.582 63.586c1.616 2.523 2.72 4.33 3.28 5.42h.226c-.377-2.333-.573-6.308-.573-11.92v-57.086h9.442v81.053zM153.436 241.737h-42.958v-81.053h41.093v8.59h-31.6v26.96h29.283v8.594H119.97v28.316h33.466v8.593zM218.595 169.274h-23.347v72.464h-9.497v-72.464h-23.39v-8.593h56.235v8.594z"/></g><g><path d="M88.5 20.69c9.164 28.025 12.636 78.02 39.436 78.02 2.04 0 4.102-.2 6.17-.593-24.36-5.68-27.248-55.132-42.114-80.74-1.166 1.058-2.323 2.162-3.493 3.312" fill="url(#a)" transform="translate(.81)"/><path d="M91.992 17.376c14.866 25.61 17.753 75.06 42.115 80.74 1.914-.35 3.832-.882 5.754-1.553-21.866-10.714-27.91-58.735-44.793-81.854-1.022.85-2.048 1.742-3.075 2.666" fill="url(#b)" transform="translate(.81)"/><path d="M114.22 2.145c-2.035 0-4.1.2-6.174.594-5.423 1.02-10.932 3.356-16.485 6.89 1.518 1.496 2.96 3.21 4.32 5.08 5.647-4.688 11.258-8.152 16.85-10.233 2.096-.777 4.186-1.362 6.284-1.747-1.513-.384-3.108-.585-4.793-.585" fill="#14559A"/><path d="M156.93 86.687c2.238-1.78 4.48-3.746 6.725-5.893-9.312-27.896-12.645-78.607-39.633-78.607-1.93 0-3.877.18-5.82.54 24.583 6.114 27.732 59.598 38.73 83.96" fill="url(#c)" transform="translate(.81)"/><path d="M119.013 2.728c-1.513-.384-3.108-.584-4.793-.584l10.613.04c-1.93 0-3.877.18-5.82.543" fill="#3092C4"/><path d="M157.27 92.613c-1.055-1.006-2.057-2.11-3.043-3.288-4.54 3.214-9.062 5.652-13.557 7.238 1.6.782 3.276 1.362 5.055 1.722 1.378.282 2.806.426 4.306.426 5.044 0 9.03-.596 12.426-2.224-1.87-1.01-3.583-2.32-5.186-3.873" fill="#1969BC"/><path d="M111.917 4.48c22.018 11.517 23.932 63.67 41.5 84.845 1.18-.83 2.345-1.71 3.51-2.638-10.997-24.362-14.142-77.85-38.72-83.96-2.098.392-4.192.973-6.29 1.754" fill="url(#d)" transform="translate(.81)"/><path d="M95.067 14.71c16.882 23.118 22.927 71.14 44.794 81.853 4.496-1.586 9.02-4.024 13.558-7.238-17.57-21.176-19.483-73.328-41.5-84.844-5.592 2.08-11.203 5.542-16.85 10.23" fill="url(#e)" transform="translate(.81)"/><path d="M77.698 20.014c-2.646 5.983-5.35 13.847-8.617 24.112C75.58 34.97 82.06 27.08 88.5 20.69c-.888-2.73-1.84-5.244-2.868-7.486-2.634 2.016-5.288 4.286-7.934 6.81" fill="url(#f)" transform="translate(.81)"/><path d="M88.79 11.48c-.778.555-1.56 1.124-2.345 1.725 1.027 2.24 1.975 4.756 2.863 7.484 1.17-1.146 2.33-2.254 3.492-3.314-1.247-2.143-2.572-4.122-4.01-5.897" fill="#2B74B1"/><path d="M91.56 9.63c-.924.584-1.844 1.202-2.772 1.848 1.44 1.775 2.764 3.754 4.016 5.9 1.027-.927 2.053-1.823 3.075-2.67-1.358-1.868-2.802-3.582-4.32-5.08" fill="#125A9E"/><path d="M240.937.01c-12.453 48.026-38.463 86.6-60.27 96.324h-.04c-.397.18-.79.344-1.178.503-.055.033-.104.037-.145.056-.114.046-.22.082-.335.128-.054.033-.102.044-.15.063-.185.066-.365.12-.545.193-.078.033-.15.053-.225.08-.082.03-.176.06-.27.087-.082.032-.168.056-.262.092-.078.032-.16.046-.233.078-.16.046-.306.085-.466.14-.067 0-.128.036-.197.054-.1.032-.21.055-.316.085-.073.032-.134.043-.212.06-.11.03-.233.06-.344.087-.146.03-.277.06-.416.09.986.365 2.012.55 3.12.55 20.678 0 41.526-37.057 76.023-98.68h-13.545l.005.01z" fill="url(#g)" transform="translate(.81)"/><path d="M64.59 4.094c.014 0 .03-.032.038-.032.017 0 .042 0 .05-.032h.026c.114-.04.22-.085.335-.128.028 0 .044 0 .065-.032.03 0 .057-.033.086-.037.123-.04.246-.085.36-.127h.02c.274-.082.528-.184.793-.28.038 0 .074-.03.12-.03.11-.037.224-.076.338-.102.055-.033.108-.033.157-.05.118-.035.233-.075.343-.1.05 0 .094-.034.13-.037.38-.105.758-.203 1.138-.294.053 0 .098-.033.155-.036.11-.032.213-.05.332-.066.05-.03.106-.03.163-.048.11-.032.217-.036.336-.062h.077c.23-.047.464-.085.693-.128h.14c.11-.032.207-.036.318-.056.06 0 .123-.032.18-.032.103 0 .205-.033.307-.046.054 0 .106 0 .168-.033.24-.032.49-.045.744-.065-.716-.07-1.453-.115-2.2-.115-23.287 0-55.37 43.207-69.823 99.16h2.785c4.625-8.247 8.78-16.05 12.58-23.375C25.66 38.277 46.278 11.25 64.59 4.088" fill="url(#h)" transform="translate(.81)"/><path d="M78.51 20.014c2.645-2.524 5.3-4.794 7.932-6.81-.6-1.316-1.222-2.535-1.89-3.652-2.13 2.585-4.076 5.996-6.043 10.462" fill="#0D82CA"/><path d="M80.422 4.422c1.52 1.276 2.883 3.03 4.13 5.133.393-.483.79-.93 1.202-1.346-1.73-1.616-3.598-2.94-5.627-3.94.082.046.164.083.25.12 0 0 .03.03.045.03" fill="#0D82CA"/><path d="M15.54 77.915C36.774 36.998 46.834 11.102 64.59 4.092c-18.308 7.166-38.928 34.194-49.05 73.823" fill="url(#i)" transform="translate(.81)"/><path d="M85.753 8.208c-.413.42-.805.863-1.202 1.346.667 1.116 1.29 2.33 1.894 3.65.786-.6 1.567-1.168 2.344-1.724-.96-1.186-1.976-2.286-3.035-3.272" fill="#127BCA"/><path d="M25.18 101.107c-.13.033-.262.033-.385.046h-.073c-.11 0-.226.033-.328.033h-.053c-.265.032-.527.032-.78.052h-.082c21.49-.6 31.314-11.36 36.19-26.967 3.705-11.83 6.747-21.797 9.414-30.16-9.002 12.67-18.044 27.773-27.135 44.692-4.384 8.154-11.05 11.56-16.768 12.29" fill="url(#j)" transform="translate(.81)"/><path d="M25.18 101.1c5.717-.73 12.383-4.132 16.767-12.29 9.09-16.915 18.138-32.022 27.13-44.692 3.272-10.27 5.972-18.13 8.622-24.113-17.926 17.062-35.92 45.432-52.52 81.086" fill="url(#k)" transform="translate(.81)"/><path d="M16.35 77.916c-3.8 7.324-7.955 15.127-12.58 23.376h8.1c1.073-8.192 2.594-16.003 4.48-23.372" fill="#05A1E6"/><path d="M71.454 2.326c-.066 0-.115.032-.172.032-.098.033-.2.033-.303.043-.06 0-.12 0-.18.034-.11.032-.213.035-.32.056-.05 0-.098 0-.14.032-.232.04-.46.082-.69.12h-.077c-.12.034-.226.05-.336.067-.057.03-.114.03-.168.044-.11.033-.222.046-.328.066-.057.032-.102.032-.155.035-.38.092-.757.19-1.137.295-.04 0-.082.032-.13.04-.115.03-.226.064-.345.1-.05.033-.106.033-.155.046-.114.032-.23.065-.34.1-.044 0-.08.033-.122.033-.262.097-.52.196-.79.277-.114.036-.237.082-.36.125-.05.032-.093.04-.15.062-.115.036-.23.082-.336.124-.04.033-.082.036-.11.053-17.757 7.01-27.818 32.906-49.05 73.823-1.886 7.37-3.412 15.18-4.48 23.373h1.138c3.202 0 4.106-.033 7.79-.033h3.572c.254-.032.516-.032.782-.053h.05c.11 0 .22-.032.326-.032h.078c.118 0 .253-.032.384-.046 16.6-35.654 34.594-64.024 52.52-81.086 1.97-4.465 3.913-7.876 6.04-10.457-1.244-2.103-2.606-3.86-4.127-5.137 0 0-.04 0-.044-.033-.088-.035-.17-.078-.255-.12-.086-.047-.16-.083-.25-.128-.077-.033-.167-.076-.245-.118-.106-.033-.192-.08-.286-.12-.078-.034-.147-.067-.225-.1-.16-.062-.32-.127-.47-.196-.07-.032-.136-.05-.202-.075-.11-.04-.237-.092-.352-.14-.057-.033-.122-.04-.188-.063-.167-.056-.33-.115-.486-.167h-.04c-.19-.062-.373-.108-.565-.16-.045-.033-.082-.033-.127-.04-.168-.045-.315-.09-.474-.133-.04 0-.078-.033-.11-.033-.385-.1-.782-.183-1.183-.258-.04 0-.08-.034-.122-.034-.17-.032-.34-.062-.51-.082-.042-.032-.066-.032-.102-.032-.205-.032-.405-.056-.606-.08h-.106c-.164-.03-.315-.034-.466-.05-.258.03-.503.045-.745.068" fill="url(#l)" transform="translate(.81)"/><path d="M192.294 26.598C188.21 39.685 184.9 50.48 182.02 59.364c11.21-15.426 22.253-34.832 32.768-57.226-12.265 3.852-18.81 12.67-22.494 24.46" fill="url(#m)" transform="translate(.81)"/><path d="M182.377 95.516c-.572.292-1.145.57-1.71.818 21.807-9.725 47.817-48.298 60.27-96.323h-2.524c-28.61 51.11-37.812 85.323-56.036 95.506" fill="url(#n)" transform="translate(.81)"/><path d="M168.948 91.223c4.744-5.79 8.61-15.635 13.885-31.86-6.086 8.36-12.212 15.546-18.343 21.407 0 .032 0 .032-.032.052 1.337 4.008 2.805 7.545 4.478 10.4" fill="#079AE1"/><path d="M168.948 91.223c-1.615 1.97-3.325 3.472-5.227 4.584-.416.242-.837.47-1.266.68 2.008 1.083 4.2 1.807 6.653 2.097.36.036.716.07 1.088.095h.066c.168 0 .344 0 .524.03h1.773c.066 0 .134 0 .2-.03.127 0 .26 0 .392-.034h.194c.134 0 .28-.032.425-.046h.03c.044 0 .09-.032.132-.032.15-.033.308-.046.454-.07h.135c.167-.03.34-.052.512-.084h.082c.343-.066.678-.13 1.018-.216-2.814-1.03-5.17-3.46-7.198-6.92" fill="#1969BC"/><path d="M128.746 98.71c2.04 0 4.102-.198 6.172-.596 1.914-.347 3.832-.88 5.754-1.55 1.6.78 3.276 1.362 5.05 1.722 1.38.28 2.81.425 4.31.425h-21.286z" fill="#1E5CB3"/><path d="M150.033 98.71c5.04 0 9.03-.596 12.42-2.224 2.01 1.084 4.2 1.808 6.654 2.1.36.034.716.067 1.088.093h.066c.168 0 .344 0 .524.032h.612-21.377.013z" fill="#1E5CB3"/><path d="M171.408 98.71h1.166c.07 0 .134 0 .2-.03.127 0 .26 0 .397-.034h.193c.135 0 .282-.032.422-.045h.036c.044 0 .086-.03.13-.03.15-.034.306-.047.452-.07.05 0 .09 0 .14-.033.168-.032.34-.05.513-.08h.082c.343-.067.678-.132 1.017-.217.986.364 2.013.548 3.12.548l-7.86.032-.006-.04z" fill="#1D60B5"/><path d="M164.47 80.823v-.033c-2.244 2.147-4.485 4.115-6.722 5.893-1.17.93-2.335 1.808-3.513 2.638.985 1.18 1.987 2.283 3.043 3.29 1.603 1.553 3.316 2.862 5.185 3.872.426-.21.85-.438 1.264-.68 1.905-1.11 3.615-2.612 5.23-4.583-1.672-2.856-3.14-6.393-4.478-10.4" fill="#175FAB"/><path d="M230.422.01H217.723c-.687.034-1.354.057-2.012.1-.31.666-.63 1.333-.937 2.004-10.514 22.394-21.556 41.8-32.766 57.226-5.272 16.223-9.14 26.067-13.884 31.858 2.028 3.46 4.388 5.893 7.193 6.924.082-.033.148-.033.22-.05h.047c.05 0 .102-.032.155-.032.114-.033.237-.053.352-.088.073-.033.134-.036.208-.06.107-.032.217-.055.315-.08.066-.034.13-.044.196-.057.163-.053.31-.092.466-.14.073-.033.15-.06.233-.08.09-.032.18-.055.26-.094.095-.032.19-.05.27-.084.074-.033.152-.053.22-.082.185-.066.365-.12.55-.193.05 0 .098-.045.15-.055.11-.046.226-.082.336-.13.04-.034.09-.037.143-.054.384-.16.78-.323 1.177-.502h.04c.566-.248 1.138-.527 1.707-.818 18.227-10.183 27.43-44.397 56.04-95.505h-7.99l.008-.004z" fill="url(#o)" transform="translate(.81)"/><path d="M73.01 2.257c.044 0 .085 0 .13.032.11 0 .22 0 .33.035h.112c.2.032.4.05.605.08.037 0 .07 0 .102.03.167.033.338.06.51.086.037 0 .086.034.127.034.393.078.794.16 1.178.26.036 0 .074.034.106.034.165.04.312.088.476.134.05 0 .085.032.13.04.193.05.373.098.56.16.01 0 .02 0 .042.032.16.05.323.11.49.167.067.033.128.047.19.063.114.05.24.098.35.144.066 0 .132.046.2.07.152.068.312.13.467.195.082.033.15.07.23.1.09.045.183.087.28.12.083.04.173.08.25.117.087.046.168.08.25.127 2.03.998 3.898 2.327 5.628 3.94.638-.672 1.304-1.274 1.995-1.813-3.783-2.683-8.07-4.213-13.013-4.213-.573 0-1.145.034-1.726.077" fill="#7DCBEC"/><path d="M85.753 8.208c1.06.985 2.074 2.086 3.035 3.272.928-.647 1.848-1.268 2.772-1.85-1.21-1.21-2.486-2.297-3.815-3.234-.69.536-1.354 1.14-1.992 1.812" fill="#5EC5ED"/><path d="M72.198 6.285c.58.05 1.153.07 1.726.07 4.944 0 9.23-1.53 13.013-4.21 3.992 3.15 8.817 4.25 15.52 4.25h-32.46c.75 0 1.48-.045 2.2-.11" fill="url(#p)" transform="matrix(1 0 0 -1 .81 8.54)"/><path d="M102.457 9.63c-6.703 0-11.528-1.1-15.52-4.25 1.325-.936 2.6-2.024 3.812-3.234 5.556 3.533 11.06 5.873 16.488 6.895 2.07.39 4.135.59 6.17.59h-10.95z" fill="url(#q)" transform="matrix(1 0 0 -1 .81 11.776)"/><path d="M182.02 59.372c2.884-8.89 6.185-19.683 10.278-32.774 3.69-11.795 10.22-20.612 22.485-24.46.324-.66.63-1.338.945-2.004-19.994 1.198-29.34 11.37-34.042 26.43-8.224 26.297-13.206 43.343-18.003 54.205 6.127-5.857 12.253-13.047 18.338-21.398" fill="url(#r)" transform="translate(.81)"/><path d="M212.165 91.706H209.9v7.043h-.925v-7.044H206.7v-.838h5.465v.838zM221.442 98.747h-.92v-5.292c0-.417.032-.928.075-1.53-.095.36-.173.61-.245.77l-2.683 6.052h-.45l-2.692-6.007c-.078-.167-.157-.438-.242-.814h-.032c.032.317.043.83.043 1.542v5.28h-.884v-7.88h1.22l2.416 5.5c.182.412.297.73.355.944h.035c.16-.434.292-.757.38-.97l2.467-5.475h1.16v7.88h-.005z"/></g></svg>