<svg width="256" height="240" viewBox="0 0 256 240" xmlns="http://www.w3.org/2000/svg" preserveAspectRatio="xMinYMin meet"><defs><linearGradient x1="50%" y1="1089.396%" x2="50%" y2="-159.5%" id="a"><stop stop-color="#473788" offset="30.33%"/><stop stop-color="#2C2255" offset="87.2%"/></linearGradient><linearGradient x1="49.999%" y1="896.537%" x2="49.999%" y2="-352.359%" id="b"><stop stop-color="#473788" offset="30.33%"/><stop stop-color="#2C2255" offset="87.2%"/></linearGradient><linearGradient x1="49.999%" y1="215.17%" x2="49.999%" y2="-166.715%" id="c"><stop stop-color="#473788" offset="30.33%"/><stop stop-color="#2C2255" offset="86.31%"/></linearGradient></defs><path d="M70.382 153.05h-39.12c5.18 17.767 14.79 33.692 28.863 47.767 22.434 22.436 49.41 33.64 80.956 33.64 6.307 0 12.417-.47 18.35-1.365 23.762-3.587 44.566-14.33 62.39-32.275 14.163-14.07 23.843-30 29.063-47.768H70.382zM48.81 99.915H28.373c-.747 4.49-1.257 9.074-1.488 13.775h228.4c-.233-4.7-.743-9.285-1.497-13.775M26.885 126.482c.23 4.703.738 9.287 1.488 13.775H253.79c.754-4.488 1.268-9.072 1.5-13.775M250.887 87.12c-5.215-17.817-14.897-33.817-29.067-47.99-17.778-17.777-38.522-28.443-62.207-32.03-5.99-.91-12.16-1.387-18.532-1.387-31.545 0-58.523 11.143-80.955 33.418-14.077 14.173-23.694 30.173-28.87 47.99" fill="#2C2255"/><path d="M20.093 120.09C20.093 59.753 65.407 9.62 124.357.803c-1.462-.053-2.932-.112-4.41-.112C53.798.692.165 54.15.165 120.09c0 65.942 53.63 119.396 119.784 119.396 1.482 0 2.95-.056 4.42-.11-58.96-8.817-104.275-58.95-104.275-119.287z" fill="#F7941E"/><g><path d="M155.728 14.226C155.345 9.504 154.55 4.9 153.364.45H2.642C1.456 4.898.66 9.503.276 14.227h155.452z" fill="url(#a)" transform="translate(63.083 99.46)"/><path d="M155.728 27.02H.278c.383 4.722 1.175 9.327 2.364 13.776h150.724c1.187-4.45 1.98-9.054 2.362-13.776z" fill="url(#b)" transform="translate(63.083 99.46)"/><path d="M78.003 98.636c31.3 0 58.282-18.44 70.706-45.048H7.296c12.425 26.607 39.405 45.048 70.706 45.048z" fill="url(#c)" transform="translate(63.083 99.46)"/></g><g fill="#FFF"><path d="M51.84 126.482h203.29c.108-2.035.168-4.084.168-6.147 0-2.232-.08-4.444-.208-6.647H26.886c-.126 2.2-.208 4.415-.208 6.647 0 2.063.06 4.112.168 6.147H51.84zM69.924 87.12H31.252c-1.27 4.166-2.09 8.44-2.88 12.795h224.693c-.79-4.353-1.806-8.626-3.075-12.795M238.373 140.255H28.37c.767 4.352 1.64 8.623 2.89 12.794H250.736c1.247-4.17 2.254-8.44 3.023-12.795h-15.387z"/></g></svg>