<svg width="512" height="79" viewBox="0 0 512 79" xmlns="http://www.w3.org/2000/svg" preserveAspectRatio="xMinYMin meet"><g fill="#47848F"><path d="M107.802 62.694h28.174c.8 0 1.48-.678 1.48-1.48 0-.8-.68-1.48-1.48-1.48h-26.57V42.412h23.487c.802 0 1.48-.677 1.48-1.478 0-.802-.678-1.48-1.48-1.48h-23.488V22.5h26.262c.802 0 1.48-.68 1.48-1.48 0-.802-.678-1.48-1.48-1.48h-27.865c-.863 0-1.603.74-1.603 1.602v39.95c0 .862.74 1.602 1.602 1.602zm49.214-1.603c0 .864.74 1.604 1.602 1.604h25.708c.802 0 1.48-.678 1.48-1.48 0-.8-.678-1.48-1.48-1.48H160.22V20.897c0-.863-.738-1.603-1.602-1.603-.863 0-1.602.74-1.602 1.603V61.09zm49.275 1.604h28.174c.802 0 1.48-.678 1.48-1.48 0-.8-.678-1.48-1.48-1.48h-26.57V42.412h23.488c.8 0 1.48-.677 1.48-1.478 0-.802-.68-1.48-1.48-1.48h-23.488V22.5h26.262c.802 0 1.48-.68 1.48-1.48 0-.802-.678-1.48-1.48-1.48H206.29c-.862 0-1.602.74-1.602 1.602v39.95c0 .862.74 1.602 1.603 1.602zm68.757.74c7.213 0 11.96-2.65 16.337-6.72.247-.247.493-.617.493-1.11 0-.8-.74-1.54-1.54-1.54-.494 0-.864.246-1.11.492-4.07 3.884-8.2 5.98-14.057 5.98-10.295 0-18.248-8.507-18.248-19.42v-.123c0-10.85 7.83-19.296 18.187-19.296 6.04 0 10.17 2.343 13.746 5.61.247.247.678.432 1.11.432.863 0 1.665-.74 1.665-1.604 0-.555-.308-.986-.616-1.295-4.192-3.574-8.692-6.04-15.844-6.04-12.453 0-21.577 10.11-21.577 22.317v.123c0 12.39 9.124 22.194 21.454 22.194zm47.426-2.096c0 .863.74 1.602 1.603 1.602s1.602-.74 1.602-1.602v-38.84h13.81c.8 0 1.48-.677 1.48-1.48 0-.8-.68-1.478-1.48-1.478h-30.825c-.8 0-1.48.678-1.48 1.48 0 .8.68 1.48 1.48 1.48h13.81v38.838zm37.5 0c0 .863.74 1.602 1.603 1.602s1.603-.74 1.603-1.602V44.816h14.116l13.255 17.26c.37.495.802.864 1.42.864.862 0 1.663-.8 1.663-1.664 0-.37-.185-.74-.493-1.11L380.872 44.26c7.274-.986 12.638-5.116 12.638-12.33v-.122c0-3.083-1.233-5.98-3.267-8.015-2.59-2.59-6.844-4.253-12.145-4.253h-16.522c-.863 0-1.603.74-1.603 1.602v40.196zm3.206-19.42v-19.42h14.733c7.83 0 12.39 3.638 12.39 9.433v.124c0 6.227-5.362 9.864-12.575 9.864h-14.55zm70.604 21.516c13.07 0 21.762-10.542 21.762-22.317v-.124c0-11.775-8.57-22.193-21.638-22.193-13.07 0-21.763 10.542-21.763 22.317v.123c0 11.775 8.57 22.194 21.64 22.194zm.124-2.898c-10.666 0-18.433-8.754-18.433-19.42v-.123c0-10.665 7.644-19.296 18.31-19.296 10.665 0 18.432 8.754 18.432 19.42v.123c0 10.665-7.644 19.296-18.31 19.296zm42.062.863c0 .862.678 1.54 1.54 1.54.864 0 1.542-.678 1.542-1.54V24.224l29.653 37.606c.494.617.987 1.05 1.603 1.05h.247c.74 0 1.295-.618 1.295-1.357v-40.69c0-.862-.68-1.54-1.542-1.54-.863 0-1.54.678-1.54 1.54v36.374l-29.1-36.928c-.43-.555-.924-.925-1.602-.925h-.493c-.863 0-1.603.74-1.603 1.603v40.44zM25.51 16.806c-10.19-1.856-18.247.087-21.458 5.648-2.396 4.15-1.712 9.653 1.66 15.535.288.5.926.673 1.427.386.5-.287.673-.926.386-1.426-3.038-5.3-3.63-10.048-1.664-13.45 2.667-4.62 9.853-6.354 19.273-4.638.568.103 1.112-.273 1.215-.84.104-.568-.273-1.113-.84-1.216zM11.01 45.138c4.12 4.528 9.473 8.775 15.578 12.3 14.78 8.534 30.517 10.815 38.272 5.527.477-.325.6-.976.275-1.452-.325-.477-.975-.6-1.452-.275-6.94 4.733-21.89 2.566-36.05-5.61-5.923-3.42-11.106-7.532-15.077-11.896-.39-.427-1.05-.458-1.477-.07-.425.39-.457 1.05-.068 1.476z"/><path d="M62.388 43.867c6.672-7.882 9.002-15.81 5.798-21.36-2.358-4.084-7.343-6.24-13.967-6.326-.578-.006-1.052.455-1.06 1.032-.007.577.454 1.05 1.03 1.06 5.96.076 10.254 1.934 12.186 5.28 2.66 4.61.584 11.68-5.583 18.965-.373.44-.318 1.1.123 1.473.44.372 1.1.318 1.472-.123zM45.24 17.154c-6.032 1.293-12.453 3.82-18.62 7.38-15.26 8.81-25.213 21.8-23.83 31.22.084.57.614.965 1.185.882.57-.084.966-.615.882-1.186-1.227-8.363 8.208-20.677 22.808-29.106 5.982-3.454 12.2-5.9 18.014-7.147.563-.12.923-.676.802-1.24-.12-.564-.677-.924-1.24-.803z"/><path d="M20.52 62.284c3.49 9.74 9.196 15.738 15.614 15.738 4.68 0 9.01-3.19 12.387-8.807.3-.495.14-1.137-.356-1.434-.494-.296-1.136-.136-1.434.358-3.034 5.048-6.762 7.795-10.596 7.795-5.33 0-10.42-5.35-13.646-14.354-.194-.544-.792-.827-1.336-.632-.543.194-.826.792-.63 1.336zm31.866-1.906c1.806-5.77 2.775-12.428 2.775-19.366 0-17.31-6.057-32.233-14.687-36.065-.528-.234-1.145.003-1.38.53-.233.528.004 1.146.532 1.38 7.697 3.418 13.447 17.58 13.447 34.155 0 6.73-.94 13.178-2.68 18.742-.173.55.134 1.137.684 1.31.55.172 1.137-.135 1.31-.686zM72.065 59.355c0-2.762-2.24-5-5-5-2.763 0-5.002 2.238-5.002 5s2.24 5 5 5c2.763 0 5.002-2.238 5.002-5zm-2.09 0c0 1.607-1.303 2.91-2.91 2.91-1.61 0-2.912-1.303-2.912-2.91 0-1.608 1.303-2.912 2.91-2.912 1.61 0 2.912 1.304 2.912 2.912zM5.132 64.356c2.762 0 5-2.24 5-5 0-2.763-2.238-5.002-5-5.002s-5 2.24-5 5c0 2.763 2.238 5.002 5 5.002zm0-2.09c-1.608 0-2.91-1.304-2.91-2.91 0-1.61 1.302-2.913 2.91-2.913s2.91 1.304 2.91 2.912c0 1.607-1.302 2.91-2.91 2.91z"/><path d="M36.134 10.048c2.762 0 5-2.24 5-5 0-2.763-2.238-5.002-5-5.002s-5 2.24-5 5c0 2.763 2.238 5.002 5 5.002zm0-2.09c-1.608 0-2.91-1.303-2.91-2.91 0-1.61 1.302-2.912 2.91-2.912s2.91 1.303 2.91 2.91c0 1.61-1.302 2.913-2.91 2.913zM36.898 44.55c-1.954.42-3.878-.82-4.3-2.774-.422-1.953.82-3.877 2.772-4.3 1.953-.422 3.878.82 4.3 2.772.423 1.954-.82 3.878-2.772 4.3z"/></g></svg>