<svg width="512" height="213" viewBox="0 0 512 213" xmlns="http://www.w3.org/2000/svg" preserveAspectRatio="xMinYMin meet"><path d="M511.72 146.402c-1.242-12.197-10.1-17.636-18.413-17.636-3.807 0-6.837 1.088-8.002 1.554l-1.632.7-1.398 1.01c-1.943 1.475-5.36 3.495-8.39 4.583-.156-2.486-.08-5.672.31-8.313l.077-.466c2.253-21.444-2.253-33.952-13.363-37.138-1.866-.544-3.808-.777-5.75-.777-6.76 0-12.742 3.262-16.627 6.06-3.263-4.118-8.7-6.45-15.538-6.45-10.178 0-18.336 4.74-21.288 12.354-.31.777-.7 1.942-1.166 3.496-5.98-13.208-18.18-18.258-29.522-18.258-10.722 0-21.133 4.196-25.018 7.148-.155.155-.388.233-.62.466-10.18 7.226-18.104 16.316-23.698 27.27-2.72-9.478-8.7-18.335-19.423-25.017l-.156-.156c-.31-.155-.544-.31-.855-.466 10.488-18.647 19.81-43.353 14.217-66.894C309.562 4.38 294.8.65 286.487.65c-3.418 0-6.914.62-10.488 1.864l-.234.078-.234.077c-15.616 6.137-22.453 15.383-23.93 17.558-1.553 2.33-18.646 28.28-22.763 66.273-.467 4.196-.934 8.547-1.4 12.898-2.408-3.42-6.37-6.526-12.664-8.47-1.942-.62-3.962-.853-5.982-.853-8.624 0-15.617 5.283-19.346 8.78l-.078-.08c-3.263-4.816-8.468-7.69-14.218-7.923h-1.398c-9.168 0-16.47 4.04-21.832 8.624-3.418-5.983-9.712-9.712-17.092-9.712-.622 0-1.166 0-1.71.078h-1.243c-10.178 0-18.18 4.817-21.443 12.82-.233.62-.544 1.397-.855 2.407-8.003-9.945-18.18-14.607-31.855-14.607h-1.32c-8.547.155-29.835 3.73-42.888 33.098-2.02 4.507-3.574 9.09-4.74 13.597-2.874-1.32-5.515-1.632-7.458-1.632-6.838 0-11.965 3.885-14.452 7.537-2.02 2.952-8.468 13.44-5.283 23.696 1.71 5.516 5.672 9.712 11.266 11.887 4.896 1.943 11.11 3.807 15.773 5.128 2.874 6.526 8.002 14.062 17.092 20.977 6.45 4.895 14.684 7.38 24.396 7.38 16.317 0 32.088-7.07 33.798-7.846l.62-.31.156-.156c3.108 3.263 7.226 5.594 12.43 6.604 1.555.31 3.575.544 5.906.544 8.857 0 14.995-4.507 20.667-12.975 4.66 7.304 13.13 11.422 23.152 11.422h.077c.544 0 1.088.388 1.71.388 5.282 0 11.886-1.864 17.403-10.72 4.583 8.234 12.974 12.973 22.92 12.973 8.856 0 16.548-3.65 17.946-4.35l.31-.156c2.953-1.554 5.44-2.952 7.382-4.04 6.604 3.496 16.626 7.38 28.902 7.38 2.098 0 4.195-.077 6.293-.31l.544-.077.544-.078c26.028-5.128 42.965-11.343 53.065-16.083 7.07 7.924 18.336 15.538 34.42 16.703 1.786.156 3.65.233 5.437.233 13.208 0 23.774-3.73 31.544-7.847 2.486 2.64 5.594 5.05 9.634 6.68 2.408 1.01 4.894 1.477 7.458 1.477 16.16 0 23.697-19.268 25.795-25.794l3.884-10.41c3.42 3.65 7.77 6.603 13.286 8.157 3.03.855 6.293 1.32 9.634 1.32 17.792 0 34.884-12.586 37.603-14.683 4.895-4.04 10.256-12.354 9.09-23.775" fill="#FFF"/><path d="M348.727 151.667s-2.253-7.924 6.138-23.23c8.313-15.228 14.84-6.915 14.84-6.915s7.147 7.77-1.01 19.346c-8.158 11.654-19.968 10.8-19.968 10.8M284.63 162.7c-9.556 25.017-32.786 14.84-32.786 14.84s-2.642-8.935 4.894-34.03c7.537-25.018 25.25-15.228 25.25-15.228s12.198 9.4 2.642 34.418M267.305 57.89s14.45-37.68 17.947-19.344c3.496 18.335-30.3 72.876-30.3 72.876.31-12.275 12.353-53.53 12.353-53.53M60.64 151.666c.62-24.24 16.47-34.806 21.987-29.523 5.516 5.283 3.496 16.704-6.915 23.852-10.333 7.148-15.072 5.67-15.072 5.67m437.88-3.96c-.777-8.16-8.157-5.13-8.157-5.13s-11.81 9.17-22.22 8.16c-10.334-1.09-7.07-24.24-7.07-24.24s2.252-21.29-3.886-23.076c-6.137-1.787-13.674 5.516-13.674 5.516s-9.4 10.41-13.83 23.62l-1.242.387s1.4-23.23-.232-28.513c-1.243-2.642-12.43-2.41-14.218 2.253-1.865 4.66-10.8 37.215-11.42 50.89 0 0-17.482 14.84-32.788 17.325-15.305 2.408-18.957-7.148-18.957-7.148s41.566-11.576 40.09-44.752c-1.4-33.175-33.486-20.9-37.138-18.18-3.496 2.642-22.22 13.907-27.736 45.218-.155 1.088-.543 5.75-.543 5.75s-16.083 10.8-25.017 13.673c0 0 25.017-42.11-5.517-61.3-13.83-8.314-24.86 9.167-24.86 9.167s41.33-45.995 32.164-84.92c-4.35-18.49-13.597-20.51-22.143-17.48-12.897 5.128-17.792 12.586-17.792 12.586s-16.704 24.24-20.59 60.29c-3.883 36.05-9.555 79.558-9.555 79.558s-7.925 7.77-15.228 8.16c-7.304.388-4.04-21.755-4.04-21.755s5.67-33.797 5.282-39.468c-.388-5.672-.777-8.78-7.536-10.8-6.682-2.02-14.063 6.527-14.063 6.527s-19.345 29.29-20.977 33.796l-1.01 1.865-1.01-1.243s13.674-39.935.622-40.478c-13.053-.622-21.6 14.217-21.6 14.217s-14.838 24.863-15.46 27.66l-1.01-1.243s6.138-28.902 4.895-36.05c-1.243-7.147-7.925-5.67-7.925-5.67s-8.546-1.01-10.8 4.505c-2.253 5.516-10.41 41.955-11.42 53.53 0 0-21.366 15.307-35.43 15.462-14.06.233-12.585-8.935-12.585-8.935s51.51-17.637 37.448-52.444c-6.292-8.935-13.673-11.732-24.006-11.576-10.41.233-22.61 6.526-31 25.25-3.962 8.935-5.594 17.403-5.594 23.852 0 0-9.634 1.865-14.528-2.253-4.895-4.04-7.692 0-7.692 0s-8.546 12.197-.233 15.46c8.313 3.263 21.21 6.293 21.21 6.293 1.166 5.283 4.662 13.907 14.84 21.6 15.228 11.575 44.596-1.788 44.596-1.788l12.042-7.148s.39 10.8 9.168 12.43c8.78 1.633 12.43-.154 27.66-37.136 8.934-18.957 9.555-17.947 9.555-17.947l1.01-.233s-6.914 36.205-4.273 45.995c2.642 9.79 14.218 8.78 14.218 8.78s6.293 2.252 11.42-15.695c5.13-17.947 14.84-36.67 14.84-36.67h1.244s-4.274 36.05 2.253 47.858c6.526 11.81 23.385 3.496 23.385 3.496s11.81-6.215 13.674-8.08c0 0 13.984 11.81 33.796 9.634 44.208-8.702 59.902-20.51 59.902-20.51s7.614 19.19 31.077 20.976c26.882 2.02 41.566-14.917 41.566-14.917s-.232 10.955 9.17 14.84c9.4 3.884 15.693-16.627 15.693-16.627l15.694-42.032h1.4s.776 26.882 16.314 31.388c15.618 4.43 35.74-11.11 35.74-11.11s4.895-3.263 4.04-11.42" fill="#E24B31"/></svg>