<svg width="256" height="225" viewBox="0 0 256 225" xmlns="http://www.w3.org/2000/svg" preserveAspectRatio="xMinYMin meet"><path fill="#FFF" d="M0 0h256v225H0z"/><g fill="#A90533"><path d="M44.34 159.66c-18.803-19.926-29.805-47.452-29.777-80.295-.026-29.045 9.1-54.01 24.79-73.008l-.027.01H6.35V159.66h37.967l.023-.003zM218.01 159.672c8.1-8.676 15.357-18.893 21.934-30.578l-36.5-18.25c-12.817 20.84-31.563 40.022-57.485 40.15-37.727-.128-52.55-32.388-52.468-73.91H234.47c.188-4.69.188-6.868 0-9.125.92-24.704-5.628-45.47-17.537-61.64l-.062.047h31.743v153.296H217.94l.07.01z"/><path d="M95.774 41.497c1.56-18.8 16.383-31.443 33.76-31.48 17.5.037 30.14 12.68 30.57 31.48h-64.33z"/></g><path d="M26.426 185.668v-6.387H6.806v37.87h19.62v-6.39h-12.32v-10.036H25.97v-6.387H14.106v-8.67h12.32zM59.73 201.18c4.892-.726 7.577-5.573 7.757-10.494-.18-8.05-5.4-11.38-12.775-11.406H44.675v37.868h7.3v-15.056l9.125 15.056h9.124L59.73 201.18zm-7.756-15.968h.913c3.982.15 6.97 1.058 6.843 5.93.128 4.466-2.76 5.678-6.843 5.476h-.913v-11.406zM93.036 179.28h-7.3v37.87h17.793v-6.39H93.035v-31.48zM140.94 209.392l3.194 7.756h7.756l-14.143-38.78h-5.93l-15.057 38.78h7.755l3.195-7.756h13.23zm-1.824-5.93h-9.125l4.107-14.144 5.02 14.144zM165.578 217.15h7.756V191.6l20.075 26.46h5.473v-38.78h-7.756v25.55l-20.075-26.462h-5.474v38.78zM230.82 197.074v5.93h8.212c-.17 4.767-4.072 8.806-8.668 8.67-7.26.136-10.857-6.88-10.95-13.232.093-6.266 3.64-13.585 10.95-13.687 3.836.1 7.08 2.726 8.668 5.93l6.388-3.192c-2.81-5.917-8.484-9.2-15.056-9.125-11.313-.073-18.558 9.265-18.706 20.074.148 10.54 7.19 19.93 18.25 20.075 11.943-.146 17.465-9.686 17.337-20.53v-.913H230.82z"/></svg>