<svg width="256" height="251" viewBox="0 0 256 251" xmlns="http://www.w3.org/2000/svg" preserveAspectRatio="xMinYMin meet"><path d="M183.515 102.912c.586-13.824-3.437-24.942-8.85-33.792-5.412-8.85-15.36-17.7-26.185-16.677-6.437.586-9.29 3.146-10.825 6.437-1.536 3.438-1.83 11.41-1.83 14.702v83.31c15.8-2.122 30.356-11.118 39.498-25.674 5.194-8.192 7.9-18.87 8.192-28.306"/><path d="M127.78.073C57.27.073 0 56.466 0 125.88c0 64.51 49.152 117.54 112.713 124.78 3.145.147 4.974-.146 6.437-1.316 1.17-1.024 1.682-2.706 1.682-4.242l.146-74.972c-34.45-3.584-61.952-32.036-61.513-66.706.44-33.207 23.333-59.977 53.687-66.12.73-.147 1.317-.294 1.83.145.437.438.145 1.68.145 1.68l-2.268 11.12s-.147.584-.293.877c-.146.146-.44.292-.732.44-13.092 4.022-25.088 12.945-30.793 23.77-4.827 8.997-7.972 15.8-7.972 27.94 0 26.332 20.772 50.542 48.128 53.834V73.73c0-8.704.44-18.798 5.56-25.82 4.02-5.412 10.97-8.703 21.94-8.703 15.8 0 34.744 11.556 44.18 36.644 2.852 7.533 4.68 17.115 4.535 27.5-.147 34.744-27.21 63.123-61.514 66.927l-.147 74.97c0 1.976.585 3.44 1.83 4.39 1.315 1.024 2.56 1.536 6.435 1.17 1.536-.146 4.243-.44 5.267-.585 60.27-10.094 106.276-61.806 106.276-123.977C255.56 56.465 198.29.073 127.78.073"/></svg>