<svg width="256" height="329" viewBox="0 0 256 329" xmlns="http://www.w3.org/2000/svg" preserveAspectRatio="xMinYMin meet"><path d="M76.5 203.35c-9.748-7.67-20.152-15.02-27.26-25.376-14.96-18.264-26.476-39.405-34.35-61.625-4.76-14.45-6.388-29.942-12.528-43.83-6.415-10.092 1.104-21.115 12.156-24.32 4.917-.95 13.568-5.59 3.125-2.27-9.364 6.867-10.266-6.238-.666-7.07 6.552-.868 8.964-6.23 6.72-11.055-7.035-4.59 17.056-9.626 4.933-16.473-12.62-13.62 17.66-16.242 10.188-.77-1.786 11.894 21.166-2.186 15.836 11.553 5.415 6.6 20.272 1.505 19.9 10.757 7.885.542 10.592 7.173 17.987 7.683 7.678 3.466 21.58 6.192 24.19 14.837-7.61 6.023-25.228-12.443-26.08 4.232 2.303 24.638 1.716 50.017 10.727 73.478 4.262 14.204 14.6 25.385 23.93 36.45 8.934 10.834 21.03 18.466 33.364 24.887 10.816 5.1 22.476 8.48 34.266 10.605 4.78-3.656 13.22-17.25 20.675-11.522.36 6.45-14.795 13.47-.71 12.758 8.278-2.497 14.013 6.395 20.826-1.628 6.278 7.436 26.09-4.747 21.625 10.45-6.04 3.898-14.85 1.543-20.897 6.906-9.972-4.983-17.912 4.453-28.956 3.263-12.26 2.197-24.738 3.08-37.167 3.1-20.396-1.61-41.222-2.29-60.624-9.39-10.933-3.177-21.598-9.403-31.205-15.63zm17.225 7.47c10.672 4.61 21.11 9.474 32.807 10.945 18.558 2.577 37.723 6.552 56.346 2.93-8.428-3.805-17.145 1.478-25.54-2.72-10.07 2.164-20.88-.556-31.12-1.897-11.64-5.184-24.207-8.748-35.108-15.485-13.628-4.975 7.043 6.383 10.724 7.306 8.514 4.83-9.365-2.48-11.89-4.488-7.132-4.002-8.04-3.165-.704.896 1.477.864 2.936 1.773 4.485 2.51zm-20.31-14.354c10.345 3.832-.046-7.272-4.78-6.63-2.1-3.643-8.023-5.945-3.845-7.9-7.513 2.61-7.873-9.92-11.403-8.127-7.952-2.512-3.094-11.406-12.57-16.872-.863-5.755-9.408-10.744-12.13-19.422-1.202-4.446-9.657-17.203-4.465-5.33 4.42 11.43 12.195 21.227 18.67 31.003 5.02 9.31 10.958 19.047 20.107 24.854 3.086 2.962 6.06 7.493 10.414 8.422zm-29.79-32.715c.357-1.562 1.89 3.38 0 0zm42.182 37.306c2.288-1.026-3.296-1.294 0 0zm5.61 2.048c-.58-2.826-2.563 1.582 0 0zm7.03 2.93c3.34-3.187-5.16-2.01 0 0zm12.045 6.713c2.033-3-6.507-1.13 0 0zm-23.128-16.123c5.19-3.362-6.716-.047 0 0zm5.27 2.628c-.15-1.773-1.877.797 0 0zm26.345 16.445c4.236 2.675 24.737 5.86 11.9 1.098-2.152.452-23.802-6.127-11.9-1.098zM77.155 183.12c-.412-1.778-6.58-1.97 0 0zm12.26 7.154c3.197-2.23-6.624-1.72 0 0zm10.318 6.323c4.584-1.726-7.427-1.733 0 0zm-27.575-18.91c4.97 3.81 20.048.49 7.61-2.276-5.656-3.014-18.407-5.08-9.715 1.82l2.104.456zm34.565 21.094c2.072-3.524-8.685-2.014 0 0zm-10.503-8.344c12.15 3.434-10.22-7.69-3-1.268l1.603.726 1.397.542zm21.058 12.17c11.508.11-10.398-1.588 0 0zm-49.547-31.578c-.452-2.144-2.838.178 0 0zm69.013 42.498c.307-3.87-3.754 2.884 0 0zm-49.37-30.472c-.7-2.04-3.596-.085 0 0zm-18.552-13.372c6.606-.398-9.05-2.91 0 0zm-21.978-14.204c-.823-3.17-7.186-5.694 0 0zm57.695 36.614c-1.208-1.38-.57.3 0 0zm35.906 22.037c-.11-2.114-1.955.795 0 0zm-39.083-25.32c.648-2.72-5.636-.826 0 0zM74.61 171.852c4.92-.524-7.878-3.322 0 0zm45.253 28.12c7.663-3.036-7.468-1.48 0 0zm-23.535-15.976c8.827 1.136-10.508-6.01-1.942-.642l1.942.642zm30.68 18.864c8.247-4.922 5.527 11.543 13.99 1.394 8.342-6.094-7.208 7.533 3.072 1.086 7.44-4.977 18.426 2.36 25.365 4.747 4.988-.242 9.84 4.316 14.96 1.542 9.848-2.656-19.263-3.936-11.633-8.64-9.01 2.625-15.666-3.124-20.1-8.898-10.11-2.335-21.795-7.5-26.843-16.452-2.06-3.354 2.968.478-1.78-5.015-6.087-5.415-9.127-11.57-13.215-18.153-4.885-2.603-5.46-10.273-5.95-.254.04-6.324-5.9-10.58-7.35-8.815-.027-6.09 6.356-3.035 1.89-7.54-.96-6.31-4.127-12.888-5.076-20.016-1.477-3.433-.21-10.79-5.048-3.015-1.76 8.22-.582-10.096 2.158-4.06 3.596-6.16-1.296-5.435-1.492-4.584 2.342-5.198 1.485-12.575-.614-9.763 1.25-5.513 1.975-20.284-1.863-17.662 2.328-5.767 4.415-26.38-5.696-18.518-4.093.058-11.187 1.485-14.535 3.152 10.507 5.794-1.06 2.092-5.344 1.17-.556 5.362-4.793 3.047-10.09 3.1 8.462 1.045-4.12 8.65-8.964 5.695-6.304 3.008 5.434 10.528.124 12.855.655 3.5-9.652-1.267-8.847 6.828-6.116-2.578-.838 9.6 2.222 5.48 10.404 2.818 7.324 9.233 7.585 15.333-1.694 3.55-8.37-8.35-1.485-7.8-5.434-8.823-6.008-3.192-10.52.908-1.047.295 11.508 5.832 3.628 8.566 6.932 1.073 7.135 7.14 8.548 10.98 4.165 4.34 3.307-4.795 8.298.425-3.16-4.65-16.715-13.1-5.8-10.39-.06-4.676-1.976-8.45 1.372-8.36 3.316-5.995-3.472 14.793 3.996 7.17 2.065-.903 2.583-6.004 6.297.483 5.395 5.31 1.95 9.153-5.662 4.29 1.36 4.622 10.18 6.27 8.52 13.496 1.758 6.356 4.218 4.014 6.362 3.648 1.68 6.173 2.637 1.635 2.715-1.308 7.696 1.65 5.89 6.2 8.303 9.378 5.303 2.392-7.59-16.224 1.512-5.598 9.578 8.65 3.596 12.26-5.002 10.875 5.44-.438 7.19 7.358 14 7.083 6.205 2.955 10.41 14.294-.288 9.572-3.708-3.348-16.846-7.474-6.114-1.11 9.9 4.59 17.773 7.33 27.326 13.09 6.834 4.88 9.788 10.468 12.378 11.575-5.747 2.745-17.314-2.19-8.723-3.7-5.362-.976-11.39-3.69-6.258 2.987 4.367 3.65 15.464 3.262 17.46 3.674-1.688 3.716-4.584 4.01.064 4.298-5.186 2.766 1.668 3.198 2.145 4.773zm-10.606-29.954c-3.158-3.302-3.975-9.48-.562-4.108 1.753.707 5.605 10.105.562 4.108zm34.547 21.945c1.967-.13.057 1.497 0 0zm-39.53-30.04c-.125-4.99 1.137 3.85 0 0zm-3.433-4.616c-3.975-7.67 5.002 2.17 0 0zm-41.615-28.72c2.335-.622 1.15 3.988 0 0zm33.12 17.95c1.433-5.382 1.682 4.513 0 0zm-23.396-16.27c-1.647-2.968 3.447 2.787 0 0zm20.075 6.435c-3.76-8.423 2.67-4.605.838 1.378l-.837-1.38zM61.548 116.5c-1.68-2.766-4.46-10.875-3.564-13.352.804 4.034 8.573 17.354 3.805 5.52-5.263-9.92 6.298 3.215 7.488 5.694.556 2.46-3.25-.673-.674 5.1-4.7-6.572-2.773 3.63-7.055-2.963zm-10.698-7.376c.437-6.428 2.445 4.407 0 0zm4.812 1.66c2.295-4.85 3.89 6.762 0 0zm-11.58-8.957c-3.984-3.964-6.868-7.612.188-2.46 2.714.105-6.04-8.297.655-2.668 7.035 1.282 3.47 11.542-.844 5.127zm6.08-.157c2.316-2.295 1.23 2.256 0 0zm3.747 1.196c-3.513-6.572 4.256 2.76 0 0zm-7.442-7.107c-11.58-10.315 14.55 5.386 1.89 1.907l-1.89-1.908zm33.185 19.275c-5.015-3.002-1.334-21.153.38-8.742 4.872-1.577-.27 6.415 3.36 6.336-.568 5.04-2.196 6.853-3.74 2.405zm12.274 7.258c.49-5.472 1.033 3.742 0 0zm-2.13-2.112c.548-2.333.05 2.754 0 0zm-41.06-27.81c-7.442-10.266 21.624 10.384 4.767 2.604-1.76-.464-3.884-.628-4.768-2.603zm23.638 12.53c-.705-8.644 1.57 1.432 0 0zm17.943 11.514c1.386-4.923.106 3.258 0 0zM49.88 88.454c4.422-.948 18.323 7.762 5.56 2.485-1.42-1.57-4.447-.858-5.56-2.487zm37.972 18.924c.473-8.84 2.644-5.277.02 1.27l-.02-1.27zm-34.68-22.003c1.803-2.643-4.79-11.947.946-3.336 2.48 1.967 7.173 3.295 3.028 4.125 6.52 5.75-1.588 1.557-3.975-.79zm32.804 19.244c1.244-10.072 1.1 5.897 0 0zM49.404 76.075c1.38-.59.732 1.836 0 0zm8.56 5.094c2.202-4.624 4.06 5.152 0 0zm24.135 13.424c-.02-1.772.456 2.583 0 0zm-1.4-3.092c-3.35-8.266 3.118 4.374 0 0zm-2.055-5.422c-.56-3.414 1.91 4.29 0 0zm3.348-5.44c-2.3-4.05 2.905-17.852 3.487-9.292-2.427 6.67-.7 10.398.986 1.452 3.127-7.036-.673 13.896-4.473 7.84zm3.44-20.526c1.002-1.23.223 1.483 0 0zm-5.746 113.21c-1.36-1.19.175.753 0 0zm11.835 5.984c6.584 1.694 6.552-1.02.6-1.832-3.197-2.974-13.3-6.133-4.256-.366.596 1.518 2.486 1.478 3.656 2.198zm-23.37-15.525c3.622 2.71 13.66 7.664 5.165 1.035 2.864-3.33-5.48-5.1-2.713-7.33-7.043-4.31-5.56-3.925-.62-3.787-8.463-3.786 1.22-3.498.764-5.44-3.263-.64-16.21-5.755-8.593.42-7.742-3.945-1.845 1.47-4.185.9-7.92-2.157 7.05 6.03-1.256 3.997 4.54 3.596 12.222 9.22 1.916 3.805-1.353 1.955 7.377 4.918 9.52 6.4zm12.377 7.115c15.046 4.846-7.384-5.93 0 0zm63.363 38.384c.196-2.988-2.054 2.55 0 0zm6.513 2.74c3.472-3.36.144 5.362 5.754-.823.058-4.43-.17-7.043-6.447-1.663-1.734.962-2.504 5.035.693 2.486zM47.024 147.098c-1.067-4.192-7.475-4.174 0 0zm6.95 4.556c-2.583-4.282-9.214-3.877 0 0zm39.568 23.86c3.866 3.435 17.74 2.52 4.69.427-1.93-2.858-12.268-2.17-4.69-.426zm54.385 33.594c5.944-4.99-5.76 2.223 0 0zm12.366 8.493c.038-1.602-2.563.7 0 0zm.02-2.243c6.584-6.97-6.376.412 0 0zm-130.396-82.58c-5.61-8.005-3.485-11.602-8.9-18.14-1.027-5.003-9.284-16.342-4.27-4.33 4.59 7.03 5.952 17.91 13.17 22.47zm128.33 80.364c12.117-7.827-4.97-3.406 0 0zm9.246 3.623c6.068-5.206-3.84-1.086 0 0zm-122.53-78.515c1.734-2.583-4.485-.333 0 0zm120.6 76.043c5.872-3.784-1.353-3.203-1.065.347l1.065-.346zM85.865 164.06c-.202-2.563-3.105.216 0 0zm4.924 2.832c-1.57-3.165-2.407.497 0 0zm84.196 49.96c7.526-5.43-4.557-1.042-1.576 1.032l1.576-1.033zm-2.883-1.394c6.133-5.134-6.468 2.275 0 0zm14.724 9.8c4.115-2.752-5-.888 0 0zm-138.09-88.87c5.512 1.234 22.042 13.58 12.293.856-4.995-1.478-2-13.687-7.094-11.53 3.42 5.716 2.81 8.142-4.37 4.546-9.016-4.408-5.067 2.178-3.3 3.996-2.408.55 3.177 2.086 2.47 2.13zm-25.13-19.846c.987-4.088-9.096-22.47-4.76-9.214 1.562 2.78 1.4 8.042 4.76 9.214zm46.126 28.437c-2.844-2.373-.137-.34 0 0zm6.99 1.63c0-4.33-7.728-1.76 0 0zm60.618 38.207c-1.156-2.957-4.57-.066 0 0zm2.91 2.124c-.432-1.654-1.68.32 0 0zm24.025 15.138c2.31-1.706-2.884-.22 0 0zm-128.12-82.332c6.612-2.558-7.082-1.825 0 0zm95.85 60.38c-.078-4.276-4.218 1.067 0 0zm-98.46-66.47c4.245-1.43-3.93-.94 0 0zm12.32 5.97c-.072-1.404-1.3.538 0 0zm150.302 92.17c5.46-1.106 17.903 2.778 19.91-1.445-6.63-.165-22.932-4.684-23.704 1.07l1.452.23 2.342.143zM49.782 120.61c.1-4.335-3.38-.162 0 0zM17.39 98.14c-1.472-8.26-5.6-1.25 0 0zm7.72 1.94c.1-2.654-7.068-2.386 0 0zm4.415 2.172c-1.275-1.034-.994 1.3 0 0zM57.31 120.07c1.308-1.204-3.1-.89 0 0zM26.59 97.36c-.752-6.238-8.953-.935 0 0zM10.744 87.08c-.223-2.877-1.544 1.085 0 0zm2.36-1.777c-.385-3.415-2.027.43 0 0zM26.12 93.07c5.505-2.158-10.027-4.473-1.126-.405l1.125.405zm174.225 107.62c3.524-3.23-4.473-1 0 0zm21.05 10.907c1.412-4.17-3.56.55 0 0zM27.45 86.25c.584-4.04-4.366.804 0 0zM8.928 73.84c-.994-5.702-.857-15.714 8.658-12.333-12.7 2.524 8.795 15.79 6.08 5.315 5.343.263 10.45-3.157 7.645 2.027 10.528-1.158 17.82-10.286 27.987-9.004 7.918-1.052 16.576-1.844 25.11-5.035 7.016-.503 13.77-8.056 9.927-12.535-9.567-.81-19.586.386-30.16 2.492-11.716 2.432-22.36 7.06-34.185 9.05-11.53 1.55 2.314 4.263-.99 4.87-6.008 2.087 7.175 3.493-.777 5.696-4.91-.934-10.024-2.62-7.925-7.8-11.038 1.44-20.742 6.016-12.02 17.25l.65.006zm26.608-13.55c2.583-9.533 13.862 7.848 4.237 1.27-1.145-.865-3.042-1.565-4.237-1.27zm.502-4.624c3.735-2.778 1.982 1.564 0 0zm4.74.08c.343-4.388 10.864 2.32 1.735 1.576l-1.734-1.577zm6.488-2.61c2.374-2.773.688 2.46 0 0zm1.662-1.11c3.95-4.74 22.343-3.03 8.88-.466-3.61-2.72-6.376 1.602-8.88.466zm24.01-3.702c-.594-12.955 11.934 4.597 0 0zm6.815-.04c2.49-6.525 9.67-2.62 1.157-1.314.18.7-.256 3.375-1.158 1.314zM24.765 82.902c7.44-4.558-7.9-3.955 0 0zm5.505 1.524c2.61-2.772-5.676-1.125 0 0zM14.054 72.924c4.25-3.27-5.035-1.242 0 0zm219.764 137.483c.124-3.793-3.25 1.706 0 0zm-22.33-15.243c.633-4.36-2.872.38 0 0zm28.47 16.715c5.945.02 18.014-1.853 5.08-1.846-2.033.315-11.828.25-5.08 1.845zM35.11 81.75c4.813-.326 7.526-5.303-.936-5.02-13.11-1.354 11.567 4.492-1.68 2.818-1.778 1.177 2.51 2.53 2.616 2.203zm4.237 2.147c-.504-3.087-1.492 1.64 0 0zm5.028-13.406c2.086-2.588-2.89-.692 0 0zM28.367 43.74c8.593-2.917 20.337-6.2 24.392 1.44-4.128-4.964-1.668-9.856 2.23-2.59 5.51 7.343 8.27-3.342 4.686-5.808 4.088 5.074 8.73 7.475 2.733.322 6.52-7.84-13.046 1.026-17.492.934-2.138.96-22.09 5.087-16.55 5.7zm5.035-9.638c4.9-3.694 16.943 2.203 9.214-3.676-.758-.666-16.922 4.46-9.214 3.676zm17.86.738c5.727.144-2.472-7.703 4.354-4.146-1.118-3.66-7.95-4.348-11.292-5.812-1.89 3.348 3.843 10.004 6.937 9.958zM36.533 18.63c1.982-2.687-3.478 1.367 0 0zm7.3 1.745c9.238-1.222-2.356-3.975-1.866-.097l1.865.097zM30.203 9.717C23.7 1.223 42.44 11.143 35.83 2.25c-5.564-4.427-10.906 4.99-5.623 7.467zm83.47 44.957c2.985-5.285-12.31-7.128-2.006-1.872.948.315.734 2.237 2.007 1.872zM53.108 251.495c-.66 2.606-1.07 6.98-1.222 13.117 0 1.206-.543 1.81-1.632 1.81-1.09 0-1.847-.527-2.276-1.576-1.166-2.838-2.27-4.817-3.324-5.947-1.242-1.32-2.894-2.12-4.955-2.39-2.216-.35-7.734-.526-16.556-.526-2.02 0-3.343.215-3.963.644-.388.27-.582.854-.582 1.75v26.408c0 .894.563 1.32 1.688 1.283 3.46-.04 8.474-.277 15.04-.702 1.284-.157 2.15-.574 2.596-1.255.45-.68.887-2.436 1.312-5.275.27-1.555 1.186-2.158 2.74-1.806 1.32.272 1.888.875 1.693 1.806-1.09 5.288-1.442 12.167-1.053 20.64.04 1.008-.6 1.554-1.923 1.632-1.088.117-1.768-.467-2.04-1.75-1.007-4.857-2.886-7.453-5.623-7.785-2.74-.328-7.203-.494-13.38-.494-.7 0-1.05.252-1.05.758v26.235c0 1.944.718 3.267 2.155 3.964 1.13.583 3.558 1.11 7.287 1.575 1.906.194 2.74 1.032 2.51 2.506-.236 1.283-1.944 1.79-5.134 1.517-9.21-.74-16.81-.7-22.793.12-1.673.23-2.506-.45-2.506-2.042 0-1.013.833-1.595 2.506-1.75 3.81-.43 5.712-3.772 5.712-10.027v-49.908c0-2.562-.458-4.534-1.37-5.915-.914-1.38-2.615-2.635-5.1-3.76-1.555-.7-2.137-1.652-1.748-2.858.193-.737.505-1.147.93-1.223.39-.118 1.42-.04 3.09.234 2.45.388 8.222.583 17.315.583 10.73 0 19.996-.236 27.81-.7 2.603-.16 3.907.056 3.907.638 0 .16-.02.312-.062.467zM90.915 325.502c0 1.555-.875 2.235-2.623 2.04-5.36-.506-12.008-.43-19.936.23-1.595.16-2.574.118-2.946-.112-.37-.235-.552-.875-.552-1.928 0-.93 1.057-1.716 3.175-2.36 2.12-.64 3.177-2.554 3.177-5.74v-52.76c0-3.15-.457-5.463-1.368-6.94-.915-1.478-2.518-2.624-4.81-3.438-1.206-.43-1.81-1.032-1.81-1.81 0-1.166.875-2.04 2.624-2.623 2.644-.854 5.385-2.173 8.223-3.963 2.33-1.4 3.81-2.097 4.428-2.097 1.437 0 2.16.988 2.16 2.97 0-.152-.08 1.79-.237 5.83-.112 3.848-.152 7.637-.112 11.37l.23 52.06c0 2.373.584 4.094 1.75 5.163 1.166 1.068 3.17 1.777 6.004 2.126 1.748.192 2.623.853 2.623 1.982zM143.644 322.064c0 .818-1.486 2.05-4.458 3.7-2.975 1.653-5.356 2.48-7.142 2.48-1.518 0-2.857-.738-4.023-2.216-1.165-1.477-1.984-2.214-2.45-2.214-.348 0-2.194.797-5.538 2.388-3.34 1.595-6.704 2.393-10.085 2.393-3.186 0-5.85-.935-7.987-2.797-2.332-2.062-3.498-4.86-3.498-8.398 0-6.724 7.696-11.542 23.088-14.457 2.64-.506 3.984-1.575 4.02-3.207l.12-3.732c.233-6.373-2.585-9.56-8.455-9.56-1.672 0-3.255 1.495-4.754 4.487-1.492 2.997-3.642 4.608-6.44 4.843-3.186.308-4.78-1.032-4.78-4.024 0-1.868 2.37-4.04 7.112-6.532 4.976-2.602 9.758-3.906 14.344-3.906 7.888 0 11.794 3.753 11.717 11.254l-.235 24.017c-.036 2.527 1.033 3.79 3.207 3.79.43 0 1.246-.097 2.45-.292 1.206-.193 1.906-.29 2.1-.29 1.126 0 1.69.76 1.69 2.274zm-17.955-13.29c.04-.973-.188-1.617-.674-1.924-.486-.31-1.25-.373-2.3-.178-9.368 1.672-14.052 4.724-14.052 9.154 0 4.47 2.43 6.704 7.287 6.704 1.945 0 3.95-.368 6.005-1.105 2.413-.858 3.616-1.886 3.616-3.093l.12-9.56zM186.988 315.357c0 4.12-1.588 7.397-4.753 9.825-3.167 2.43-7.49 3.644-12.972 3.644-3.652 0-7.308-.388-10.96-1.166-3.15-.7-4.976-1.34-5.48-1.923-.313-.547-.467-3.206-.467-7.988 0-2.062.466-3.13 1.4-3.207.932-.118 1.73.39 2.39 1.514 2.914 5.093 7.618 7.64 14.11 7.64 5.476 0 8.217-1.907 8.217-5.717 0-1.668-.62-3.07-1.866-4.195-1.36-1.283-4-2.78-7.927-4.49-5.676-2.525-9.466-4.74-11.37-6.647-2.06-2.02-3.088-4.74-3.088-8.162 0-4.2 1.612-7.46 4.838-9.793 2.992-2.256 6.996-3.38 12.008-3.38 3.15 0 6.025.25 8.632.756 2.798.505 4.255 1.125 4.372 1.865.308 2.174.952 5.324 1.924 9.446.117.503-.43.912-1.632 1.223-1.284.272-2.138.057-2.567-.64-3.07-5.016-6.955-7.522-11.66-7.522-5.324 0-7.987 1.71-7.987 5.13 0 1.907.72 3.422 2.157 4.547 1.284.972 4.295 2.49 9.037 4.55 4.975 2.138 8.356 4.062 10.146 5.77 2.332 2.215 3.498 5.19 3.498 8.92zM255.575 325.56c0 1.36-.915 2.08-2.74 2.157-2.722.04-6.28.234-10.67.583-2.177.43-3.732.158-4.663-.814-6.142-6.607-11.352-13.526-15.628-20.757-.348-.62-.794-.932-1.34-.932-.66 0-1.805.583-3.437 1.75-1.83 1.008-2.74 2.448-2.74 4.31 0 1.324.035 3.227.116 5.718.078 2.485.697 4.116 1.863 4.894.817.547 2.705.972 5.655 1.284 1.828.234 2.743.914 2.743 2.04 0 .895-.146 1.45-.438 1.66-.29.214-1.06.263-2.304.146-3.885-.348-10.452-.154-19.702.583-2.332.194-3.596-.098-3.79-.875-.077-.27-.118-.66-.118-1.166 0-1.202 1.187-2.118 3.56-2.736 2.137-.548 3.205-3.054 3.205-7.523v-50.955c0-3.186-.31-5.4-.935-6.644-.854-1.595-2.644-2.84-5.364-3.733-1.28-.424-1.923-1.027-1.923-1.805 0-1.13.915-2.004 2.74-2.623 2.916-.972 5.693-2.312 8.336-4.024 2.138-1.397 3.46-2.098 3.963-2.098 1.596 0 2.393 1.008 2.393 3.033 0-.275-.02 1.652-.06 5.77-.037 2.837-.057 6.647-.057 11.428l.116 36.495c0 1.012.27 1.514.814 1.514.583 0 1.478-.503 2.684-1.515 3.226-2.527 7.19-5.83 11.89-9.91.936-.972 1.4-1.75 1.4-2.333 0-1.048-1.573-1.79-4.72-2.214-1.36-.16-2.003-.915-1.927-2.276.118-1.36.8-1.943 2.04-1.75 2.803.39 6.884.605 12.244.645 3.734.036 7.446.057 11.14.057 1.2.04 1.805.757 1.805 2.158 0 1.32-.952 2.04-2.855 2.158-2.996.113-5.814.793-8.453 2.04-3.693 1.668-7.64 4.603-11.838 8.802-.31.234-.467.525-.467.874 0 .543.66 1.847 1.984 3.907 4.858 7.385 9.445 12.96 13.757 16.732 2.76 2.37 5.344 3.555 7.753 3.555 1.79 0 2.898.126 3.323.38.43.253.645.924.645 2.01z"/></svg>