<svg width="256" height="280" viewBox="0 0 256 280" xmlns="http://www.w3.org/2000/svg" preserveAspectRatio="xMinYMin meet"><path d="M75.294 109.063v60.494l53.47 31.124 51.942-30.247v-61.378l-52.628-30.72-52.784 30.728zm155.66-57.673l-27.833-16.053-53.385 30.66 53.56 30.66v61.505L256 127.48V95.204c0-18.1-9.306-34.816-25.045-43.814zM181.69 22.994L153.156 6.68c-15.58-8.907-34.728-8.907-50.312 0L74.47 22.9l53.62 30.74 53.6-30.646zm21.604 220.908l27.74-16.135c15.74-9 24.966-25.716 24.966-43.814v-31.787l-52.706 30.685v61.052zm-128-49.656v61.93l28.032 16.3c15.58 8.908 34.008 8.908 49.59 0l27.79-16.3V195.12l-51.94 30.243-53.472-31.12zm-22.44-159.01L25.024 51.39C9.287 60.388 0 77.103 0 95.204V126.6l52.706 30.684V96.647l53.73-30.672-53.582-30.738zM0 183.954c0 18.1 9.226 34.816 24.965 43.814l27.74 16.135v-61.93L0 151.29v32.665z" fill="#222"/></svg>