<svg width="256" height="102" viewBox="0 0 256 102" xmlns="http://www.w3.org/2000/svg" preserveAspectRatio="xMinYMin meet"><path d="M205.033 0c-10.048 0-19.406 2.92-27.3 7.94l-49.734 36.525-26.215-19.25c-1.58 2.564-3.17 5.112-4.692 7.75-.367.635-.707 1.278-1.068 1.912l21.91 16.09L71.96 84.73c-6.3 3.926-13.55 6.004-20.994 6.004-21.926 0-39.767-17.84-39.767-39.767 0-21.93 17.838-39.767 39.767-39.767 7.444 0 14.696 2.074 20.994 6.004l4.57 3.354c1.89-3.264 3.846-6.452 5.822-9.617l-4.085-2.998c-7.892-5.02-17.253-7.94-27.3-7.94C22.818.003 0 22.823 0 50.968c0 28.145 22.816 50.963 50.964 50.963 10.048 0 19.41-2.92 27.3-7.938L128 57.468l26.314 19.325c1.612-2.64 3.22-5.29 4.81-8.052.316-.546.6-1.09.912-1.637l-21.972-16.136 45.975-33.763c6.3-3.927 13.552-6.004 20.993-6.004 21.93 0 39.767 17.838 39.767 39.767 0 21.928-17.838 39.767-39.767 39.767-7.444 0-14.693-2.075-20.994-6.005l-4.505-3.308c-1.908 3.296-3.84 6.498-5.78 9.646l3.98 2.92c7.895 5.022 17.253 7.94 27.3 7.94 28.146 0 50.965-22.82 50.965-50.964C255.997 22.82 233.18 0 205.033 0z" fill="#44B74A"/></svg>