<svg width="256" height="70" viewBox="0 0 256 70" xmlns="http://www.w3.org/2000/svg" preserveAspectRatio="xMinYMin meet"><g fill="#11110F"><path d="M49.31 30.145H27.798c-.555 0-1.005.45-1.005 1.006v10.52c0 .555.45 1.007 1.005 1.007h8.393v13.068s-1.885.643-7.095.643c-6.147 0-14.733-2.246-14.733-21.128 0-18.886 8.94-21.37 17.335-21.37 7.267 0 10.397 1.28 12.39 1.895.625.192 1.204-.43 1.204-.987l2.4-10.163c0-.26-.087-.573-.384-.785-.808-.577-5.744-3.34-18.21-3.34C14.732.51 0 6.623 0 35.997 0 65.372 16.868 69.75 31.08 69.75c11.77 0 18.91-5.03 18.91-5.03.294-.163.326-.574.326-.763V31.15c0-.554-.45-1.005-1.005-1.005M160.128 4.188c0-.56-.443-1.01-.998-1.01h-12.114c-.554 0-1.004.45-1.004 1.01l.004 23.41h-18.883V4.19c0-.56-.445-1.01-1-1.01H114.02c-.55 0-1 .45-1 1.01v63.39c0 .558.45 1.013 1 1.013h12.114c.554 0 1-.454 1-1.013V40.463h18.882l-.033 27.114c0 .56.45 1.014 1.003 1.014h12.143c.554 0 .997-.454.998-1.013V4.187M72.132 12.663c0-4.362-3.498-7.887-7.812-7.887-4.31 0-7.81 3.525-7.81 7.887 0 4.357 3.5 7.892 7.81 7.892 4.314 0 7.812-3.535 7.812-7.892M71.17 54.238v-29.26c0-.556-.448-1.01-1.002-1.01H58.093c-.554 0-1.05.572-1.05 1.127v41.92c0 1.233.768 1.6 1.76 1.6h10.88c1.195 0 1.487-.586 1.487-1.618v-12.76M206.427 23.968h-12.02c-.553 0-1 .454-1 1.014v31.08s-3.055 2.235-7.39 2.235c-4.334 0-5.484-1.966-5.484-6.21V24.982c0-.56-.448-1.014-1-1.014h-12.2c-.55 0-1.002.454-1.002 1.014V54.14c0 12.605 7.027 15.69 16.692 15.69 7.93 0 14.322-4.38 14.322-4.38s.305 2.307.442 2.58c.138.274.497.55.885.55l7.762-.035c.55 0 1.002-.455 1.002-1.01l-.004-42.553c0-.56-.45-1.014-1.003-1.014M234.124 58.32c-4.17-.125-6.998-2.018-6.998-2.018V36.23s2.79-1.712 6.213-2.018c4.328-.387 8.5.92 8.5 11.247 0 10.888-1.883 13.037-7.716 12.86zm4.74-35.713c-6.826 0-11.47 3.046-11.47 3.046V4.188c0-.56-.448-1.01-1-1.01h-12.148c-.552 0-1 .45-1 1.01v63.39c0 .558.448 1.013 1.002 1.013h8.428c.38 0 .667-.194.88-.537.21-.34.51-2.923.51-2.923s4.97 4.708 14.372 4.708c11.04 0 17.37-5.6 17.37-25.14 0-19.538-10.11-22.09-16.943-22.09zM106.035 23.86H96.95l-.015-12.005c0-.454-.234-.682-.76-.682H83.793c-.48 0-.74.212-.74.675v12.405s-6.205 1.498-6.625 1.62c-.417.12-.725.506-.725.965v7.796c0 .56.448 1.013 1.002 1.013h6.348V54.4c0 13.93 9.77 15.3 16.365 15.3 3.012 0 6.616-.97 7.21-1.188.36-.132.57-.505.57-.91l.01-8.575c0-.56-.472-1.012-1.004-1.012-.53 0-1.884.216-3.28.216-4.462 0-5.974-2.075-5.974-4.76l-.002-17.823h9.087c.554 0 1.003-.452 1.003-1.013V24.87c0-.56-.45-1.01-1.003-1.01"/></g></svg>