<svg width="256" height="227" viewBox="0 0 256 227" xmlns="http://www.w3.org/2000/svg" preserveAspectRatio="xMinYMin meet"><path d="M81.558 190.482l-44.94-77.835 44.94-77.836h89.876l44.94 77.837-44.94 77.835H81.558" fill="#CAC9C2"/><path d="M127.997 148.176c-19.315 0-35.028-15.714-35.028-35.03 0-19.313 15.712-35.026 35.027-35.026 19.314 0 35.027 15.713 35.027 35.027 0 19.315-15.713 35.03-35.027 35.03" fill="#FFF"/><path d="M198.465 8.716C195.71 3.946 188.95.044 183.443.044H72.7c-5.508 0-12.268 3.903-15.02 8.672L25.32 64.764c-.254 3.62.41 7.403 2.007 10.167l21.904 37.45 39.102-67.55h123.59c2.924 0 6.196 1.106 9.04 2.85L198.465 8.716" fill="#5072AA"/><path d="M26.727 62.31l-1.416 2.454c-.253 3.62.41 7.403 2.007 10.167l21.904 37.45 11.655-20.13-34.148-29.94" fill="#4D6796"/><path d="M75.554 28.837c-3.726 0-6.758-3.032-6.758-6.758 0-3.728 3.032-6.76 6.758-6.76 3.727 0 6.76 3.032 6.76 6.76 0 3.725-3.033 6.757-6.76 6.757M186.296 22.08c0 3.455-2.802 6.257-6.258 6.257s-6.258-2.802-6.258-6.258c0-3.457 2.802-6.26 6.258-6.26s6.258 2.803 6.258 6.26z" fill="#FFF"/><g><path d="M253.837 104.624L220.962 47.68c-2.844-1.744-6.116-2.85-9.04-2.85h-44.568l38.537 67.924-61.01 107.794c-1.344 2.324-3.64 4.44-6.276 6h44.84c5.507 0 12.267-3.903 15.02-8.672l55.373-95.907c2.755-4.77 2.755-12.576 0-17.346" fill="#CC4232"/><path d="M222.446 50.235l-1.474-2.555c-2.842-1.744-6.114-2.85-9.038-2.85h-44.568l11.6 20.447 43.48-15.042" fill="#B23F33"/><path d="M180.038 209.982c-3.727 0-6.758-3.032-6.758-6.76 0-3.726 3.03-6.757 6.758-6.757 3.727 0 6.76 3.03 6.76 6.758 0 3.727-3.033 6.76-6.76 6.76M232.634 119.906c-3.727 0-6.76-3.032-6.76-6.76 0-3.725 3.033-6.757 6.76-6.757s6.758 3.03 6.758 6.757-3.03 6.76-6.758 6.76" fill="#FFF"/></g><g><path d="M89.184 180.69L27.327 74.93c-1.596-2.763-2.26-6.545-2.007-10.166l-23.013 39.86c-2.754 4.77-2.754 12.575 0 17.345l55.372 95.906c2.752 4.77 9.512 8.67 15.02 8.67h65.904c2.636-1.56 4.932-3.674 6.275-5.998l22.558-39.858H89.184" fill="#ECB02A"/><path d="M134.857 226.547h3.833c2.637-1.56 4.932-3.675 6.274-6l22.56-39.857H143.5l-8.643 45.857" fill="#C79732"/><path d="M75.554 209.982c-3.726 0-6.758-3.032-6.758-6.76 0-3.726 3.032-6.757 6.758-6.757 3.727 0 6.76 3.03 6.76 6.758 0 3.727-3.033 6.76-6.76 6.76M22.865 119.906c-3.727 0-6.76-3.032-6.76-6.76 0-3.725 3.033-6.757 6.76-6.757s6.758 3.03 6.758 6.757-3.03 6.76-6.758 6.76" fill="#FFF"/></g></svg>