<svg width="256" height="348" viewBox="0 0 256 348" xmlns="http://www.w3.org/2000/svg" preserveAspectRatio="xMinYMin meet"><path d="M3.686 188.165c.498 10.26 10.758 5.48 15.34 2.29 4.383-3.087 5.678-.497 6.076-6.474.3-3.983.697-7.868.498-11.852-6.674-.598-13.846.996-19.325 4.98-2.888 1.992-8.068 8.567-2.59 11.057M208.187 314.272c7.87 4.88 22.313 19.624 10.46 26.796-11.357 10.36-17.732-11.456-27.693-14.444 4.283-5.877 9.662-11.256 17.233-12.352zM67.337 330.907c-9.264 1.395-14.444 9.762-22.213 14.046-7.272 4.283-10.06-1.395-10.66-2.59-1.094-.498-.995.498-2.788-1.295-6.773-10.66 6.973-18.428 14.145-23.708 9.962-1.992 16.238 6.674 21.517 13.547zM251.916 186.87c-.498 10.26-10.758 5.48-15.34 2.29-4.383-3.087-5.678-.497-6.076-6.474-.3-3.984-.698-7.87-.498-11.853 6.673-.598 13.845.996 19.324 4.98 2.79 1.992 8.07 8.567 2.59 11.057" fill="#F6D2A2"/><path d="M224.722 61.76c35.56-12.552 7.77-61.262-23.21-39.746-20.32-17.432-48.31-20.62-77.696-20.62C95.03 3.687 67.636 8.965 48.51 25.7 17.63 5.777-10.857 53.59 25.4 65.644c-10.16 39.445 1.395 79.688-.198 119.83-1.495 36.06-10.958 84.372 9.064 116.745 17.034 27.69 53.69 37.553 83.873 38.648 38.548 1.395 85.265-8.068 103.992-45.422 17.93-35.56 12.95-79.888 10.66-118.238-2.292-38.75 1.99-78.095-8.07-115.45z" fill="#69D7E2"/><path d="M254.605 180.794c-.996-2.092-2.888-4.483-4.68-5.778-4.583-3.287-10.46-5.08-16.537-5.28-.2-6.175-.398-12.948-.398-21.515v-7.77c-.1-24.503-.4-35.26-1.793-48.708-1.096-10.56-2.79-20.32-5.18-29.485 8.07-3.088 13.348-8.168 15.44-14.743 1.992-6.076.996-12.95-2.39-19.025-3.487-5.978-9.065-10.46-15.54-12.253-6.973-1.893-14.543-.498-21.815 4.382-6.475-5.48-13.945-9.663-22.313-12.85C164.556 2.29 147.324.2 123.915.2v.995l-.1-.996c-25.002 1.99-43.53 5.876-58.87 13.347-6.176 2.988-11.654 6.574-16.435 10.758-7.37-4.582-15.04-5.678-22.113-3.486-6.574 1.99-12.252 6.673-15.64 12.75-3.386 6.075-4.183 13.048-1.892 19.025 2.29 5.976 7.57 10.658 15.44 13.547-2.49 10.06-3.785 20.72-3.984 32.473-.2 11.455.3 20.62 2.092 41.338 1.295 15.44 1.793 22.512 1.993 31.08-6.774-.3-13.547 1.493-18.628 5.18-1.793 1.294-3.785 3.585-4.68 5.776-1.296 2.788-.798 5.278 1.792 6.773.397 4.78 3.087 6.972 7.17 6.574 2.99-.3 6.575-1.893 9.663-4.084.697-.498 1.395-.897 2.092-1.195.3-.1.498-.2.797-.3 0 0 .597-.198.797-.298.297-.1.596-.2.795-.4-.2 4.683-.597 9.564-1.494 20.72-.995 12.552-1.493 19.425-1.692 27.095-.897 28.488 2.49 49.207 12.65 65.643 3.188 5.18 7.073 9.762 11.655 13.946-.897.597-4.682 3.387-5.877 4.283-4.184 3.188-7.072 5.877-8.766 8.865-2.19 3.885-2.19 7.77.3 11.854l.1.1.098.1c1.096 1.095 1.694 1.394 2.49 1.394H33.968c.1.2.2.3.298.498.3.498.598.896.897 1.295 2.49 2.89 5.976 3.586 10.658.797 2.49-1.295 4.284-2.79 8.07-5.977l.2-.2c6.075-5.18 9.063-7.07 13.546-7.77l1.594-.298c.597.3 1.195.5 1.892.797 14.145 5.678 30.58 8.766 47.216 9.364 21.516.797 42.235-1.893 59.766-8.268 4.682-1.693 9.065-3.686 13.25-5.877 2.588.997 4.78 3.09 8.964 7.97.2.2.2.2.298.398.2.2.2.3.3.4.198.298.497.497.696.796 3.288 3.884 5.48 5.777 7.97 6.873 3.286 1.394 6.474.697 9.76-2.29 5.78-3.587 6.177-9.165 2.392-15.54-2.69-4.483-7.37-9.165-11.754-12.153 5.18-5.08 9.662-11.156 13.148-18.03 9.563-19.125 13.25-41.438 13.05-70.126-.1-10.16-.5-19.025-1.594-35.96v-.497c.498.2.996.5 1.494.897 3.088 2.092 6.674 3.785 9.662 4.084 4.084.4 6.774-1.792 7.172-6.573 2.49-1.594 2.988-4.084 1.693-6.873zM222.93 18.328c5.976 1.594 11.156 5.778 14.343 11.356 3.188 5.578 4.084 11.854 2.29 17.432-1.89 5.877-6.673 10.56-14.144 13.348-1.495-5.38-3.288-10.66-5.28-15.74 2.89-2.49 4.283-5.577 1.992-9.96-2.29-4.383-6.275-4.88-10.36-3.586-2.59-3.387-5.478-6.375-8.466-9.164 6.574-4.184 13.348-5.38 19.623-3.686zM10.56 51.998c-2.093-5.38-1.396-11.755 1.792-17.333 3.187-5.58 8.367-9.96 14.543-11.754 6.375-1.892 13.248-.996 20.022 2.99-3.885 3.485-7.37 7.47-10.36 11.853-5.18-2.69-10.46-3.188-13.447 2.29-3.088 5.878.498 9.563 5.578 12.352-.697 1.694-1.395 3.487-1.992 5.28-.698 2.19-1.395 4.482-1.992 6.773-7.272-2.79-12.053-7.072-14.145-12.45zm12.052 135.77c-.1 0-.698.198-.698.297-.298.1-.597.2-.896.4-.797.298-1.594.796-2.39 1.393-2.79 1.993-6.177 3.487-8.767 3.686-2.987.3-4.68-.996-4.98-4.582 2.093-.697 2.99-1.195 3.786-2.39l-1.594-1.196c-.597.797-1.195 1.096-2.988 1.693-.1 0-.1 0-.2.1-1.593-.898-1.892-2.292-.995-4.284.796-1.793 2.59-3.885 4.083-4.98 4.78-3.487 11.156-5.18 17.53-4.782 0 2.49.1 4.98 0 7.37 0 .3 0 .5-.098.798-.1 1.394-.1 1.992-.2 2.69-.298 2.888-.498 3.286-1.593 3.785zm30.082 150.31l-.2.2c-3.685 3.188-5.478 4.483-7.77 5.778-3.784 2.29-6.374 1.793-8.167-.398-.3-.3-.498-.698-.697-.997-.1-.098-.2-.297-.3-.397v-.1c.2-1.793.898-3.088 2.69-5.877.1-.1.1-.1.1-.2 1.096-1.593 1.594-2.49 2.092-3.585l-1.793-.796c-.4.897-.897 1.694-1.894 3.287-.1.1-.1.1-.1.2-1.792 2.59-2.59 4.184-2.988 5.977h-.1H33.27c-.2-.1-.498-.3-.896-.697-3.885-6.176-.797-11.455 7.968-18.03 1.096-.796 4.782-3.386 5.778-4.183.2 0 .398-.1.598-.2 5.378 4.583 11.654 8.567 18.627 11.854 0 .1.1.2.2.3-4.085.996-7.273 3.088-12.85 7.87zm167.247-10.856c3.09 5.18 2.99 9.363-.896 12.252-.298-.598-.498-1.295-.896-2.29 0-.1 0-.1-.1-.2-1.394-3.786-2.29-5.38-3.984-7.172l-1.395 1.394c1.493 1.395 2.19 2.89 3.585 6.375 0 .1 0 .1.1.2.498 1.295.797 2.092 1.096 2.79-2.59 2.19-4.88 2.59-7.27 1.494-2.093-.897-4.085-2.79-7.273-6.375-.2-.2-.398-.5-.597-.798-.1-.1-.2-.2-.3-.4-.198-.198-.198-.198-.298-.397-3.686-4.283-5.877-6.574-8.268-7.87 5.58-3.187 10.56-6.773 15.042-10.957 4.183 3.088 8.865 7.67 11.455 11.954zm1.395-32.274c-8.566 17.233-23.707 29.385-44.028 36.756-17.332 6.276-37.852 8.866-59.07 8.07-36.556-1.296-68.232-14.046-83.074-38.152-9.96-16.038-13.25-36.458-12.352-64.548.3-7.67.698-14.543 1.694-27.094 1.096-14.145 1.395-18.23 1.694-24.604.2-4.582.2-9.264.1-14.244-.2-8.766-.698-15.74-1.993-31.378-1.793-20.72-2.29-29.784-2.092-41.14.3-14.94 2.29-28.09 6.475-40.54C35.46 37.85 47.913 24.203 65.843 15.34c15.04-7.37 33.27-11.156 58.073-13.15 23.21 0 40.143 2.093 54.786 7.472 17.53 6.475 30.58 17.83 39.545 35.263 5.778 14.144 9.165 29.385 10.958 46.916 1.394 13.35 1.693 24.107 1.793 48.512v7.77c.1 12.052.298 20.52.797 28.986.2 3.287.298 4.682.796 12.55 1.097 16.935 1.496 25.7 1.595 35.86.2 28.59-3.387 50.603-12.85 69.43zm30.48-109.074c-.098 0-.198-.1-.297-.1-1.793-.597-2.39-.996-2.99-1.693l-1.593 1.196c.897 1.196 1.793 1.694 3.786 2.39-.398 3.587-2.09 4.882-4.98 4.583-2.59-.2-5.977-1.794-8.766-3.687-.797-.597-1.593-.996-2.39-1.394-.1 0-.2-.1-.3-.1-.398-5.48-.398-6.874-.597-9.763l-.3-5.38c5.58.1 11.058 1.794 15.242 4.882 1.493 1.095 3.286 3.187 4.083 4.98.996 1.693.797 3.187-.897 4.084z"/><path d="M138.918 104.123c.1 5.08 1.096 10.658.2 16.037-1.396 2.59-3.985 2.89-6.276 3.885-3.188-.498-5.878-2.59-7.172-5.578-.797-6.076.2-11.854.498-17.93 0-.2 3.785.1 7.172 1.096 2.888.896 5.578 2.39 5.578 2.49zM110.728 104.52c-2.79 10.56 3.686 27.793 14.344 13.648-.797-5.977.1-11.754.398-17.63.1-.5-14.642 3.286-14.742 3.983z" fill="#FFF"/><path d="M140.113 108.805c-.2-2.99-.3-4.184-.3-5.678v-.697l-.696-.2-12.55-3.884v-.698l-1.296.3h-.1v.1l-14.143 3.585-.498.1-.2.497c-2.192 5.28-1.694 13.25 1.095 18.13 3.188 5.578 8.367 5.677 13.647-.698 1.494 2.89 4.283 4.88 7.47 5.38h.3l.298-.1c.4-.2.797-.3 1.495-.598.1 0 .1 0 .2-.1 2.887-.996 4.083-1.793 5.08-3.685l.1-.1v-.2c.297-1.793.397-3.686.397-5.777 0-1.495-.1-2.89-.3-5.678zm-15.938-3.686c-.1 1.792-.2 2.49-.298 3.485-.2 3.686-.2 6.475.1 9.264-4.683 5.976-8.368 5.976-10.858 1.493-2.392-4.183-2.89-11.256-1.097-15.937l12.55-3.188c-.1 1.295-.198 2.59-.398 4.88zm13.946 14.742c-.696 1.195-1.593 1.793-3.984 2.59-.1 0-.1 0-.2.1-.596.198-.995.397-1.294.497-2.69-.5-4.98-2.292-6.076-4.782-.3-2.69-.3-5.48-.1-9.164.1-.997.1-1.694.3-3.487.198-2.29.298-3.685.298-4.98l10.858 3.287c0 1.295.1 2.49.3 5.08.198 2.69.297 4.084.297 5.678 0 1.892-.1 3.586-.4 5.18z"/><g transform="translate(48.476 21.976)"><path d="M2.29 38.75c9.165 35.66 66.242 26.495 64.05-9.265C63.75-13.348-6.474-5.08 2.29 38.75" fill="#FFF"/><path d="M67.337 29.385c-.598-10.36-5.18-18.428-12.75-23.508-6.774-4.582-15.74-6.375-24.604-5.28C21.118 1.794 12.95 5.778 7.57 12.054 1.594 19.026-.697 28.19 1.395 38.75l.896-.2-.895.2c9.363 36.655 68.133 27.79 65.942-9.365zM3.187 38.55c-1.992-10.06.2-18.628 5.778-25.103 5.08-5.877 12.75-9.76 21.217-10.857 8.467-1.096 16.934.598 23.31 4.98 7.07 4.782 11.355 12.253 11.952 22.114 2.092 34.764-53.39 43.132-62.256 8.865z"/><ellipse cx="18.03" cy="32.872" rx="9.662" ry="10.459"/><ellipse fill="#FFF" cx="22.412" cy="35.262" rx="2.291" ry="2.689"/></g><g transform="translate(129.618 18.098)"><path d="M1.195 35.96c7.073 40.94 74.01 30.082 64.35-11.157C56.877-12.252-1.196-1.992 1.194 35.96" fill="#FFF"/><path d="M66.44 24.604C57.575-13.546-2.19-3.088.2 36.06v.1c3.286 19.323 20.52 29.185 39.545 25.997C48.41 60.663 56.18 56.48 61.26 50.304c5.58-6.874 7.57-15.74 5.18-25.7zm-6.673 24.504c-4.782 5.778-12.053 9.762-20.32 11.157C21.416 63.253 5.278 53.99 2.09 35.86-.1-.996 56.28-10.858 64.647 25.002c2.192 9.463.4 17.73-4.88 24.106z"/><ellipse cx="17.631" cy="34.167" rx="9.463" ry="10.459"/><ellipse fill="#FFF" cx="22.014" cy="36.557" rx="2.191" ry="2.689"/></g><g><path d="M112.785 83.002c-7.87.697-14.245 9.96-10.16 17.332 5.378 9.762 17.43-.896 24.902.1 8.666.2 15.74 9.164 22.612 1.594 7.67-8.368-3.288-16.536-11.955-20.122l-25.4 1.096z" fill="#F6D2A2"/><path d="M151.135 89.676c-2.69-3.387-7.37-6.475-12.452-8.567l-.2-.1h-.198l-25.5.996c-8.866.797-15.24 11.057-10.958 18.826 1.694 2.99 3.985 4.483 7.073 4.682 2.29.1 4.682-.398 8.367-1.693.3-.1.697-.198 1.195-.398 4.98-1.693 6.973-2.19 8.965-1.892h.1c2.39 0 4.383.697 8.168 2.19 4.184 1.694 5.48 2.193 7.57 2.392 2.89.2 5.38-.797 7.67-3.287 3.885-4.284 3.686-8.866.2-13.15zm-1.694 11.754c-1.89 2.092-3.784 2.79-6.075 2.69-1.793-.1-2.988-.598-6.973-2.192-3.984-1.693-6.175-2.29-8.765-2.39-2.49-.3-4.582.2-9.862 1.992-.498.2-.896.3-1.195.398-7.272 2.49-10.758 2.29-13.15-2.092-3.585-6.474 1.894-15.24 9.365-15.937l25.2-.998c4.783 1.993 9.066 4.88 11.556 7.97 2.99 3.585 3.09 7.17-.1 10.558z" fill="#231F20"/><path d="M140.178 78.72c-3.088-11.357-28.987-9.663-28.39 3.884 1.295 10.06 31.378 7.37 28.39-3.885z"/></g></svg>