<svg width="256" height="175" viewBox="0 0 256 175" xmlns="http://www.w3.org/2000/svg" preserveAspectRatio="xMinYMin meet"><path d="M137.788 173.906c6.026-.86 12.914-2.583 16.357-4.304 3.444-1.723 6.027-4.305 6.027-6.027l-1.722-3.444c-1.722-2.58-3.444-6.025-7.748-15.495-1.722-4.305-5.618-15.582-6.888-20.662-1.315-7.592-1.436-15.676 0-23.245 1.25-4.427 2.967-8.707 6.027-12.053 3.434-4.542 7.462-9.022 12.915-11.192 16.974-6.757 37.02-21.523 47.35-37.88 3.444-6.027 5.087-8.61 6.342-12.054 3.106-8.52 5.847-17.57 5.71-26.69V0H31.895v1.722c-.14 22.56 13.195 42.893 29.272 57.682 8.61 7.748 18.94 13.774 30.993 18.08 4.303 1.72 6.026 2.582 9.47 6.025 4.304 5.165 7.747 11.19 9.47 18.08 1.042 9.95.262 20.464-2.584 30.13l-1.72 5.166c-.862 3.444-3.445 8.61-7.75 17.22-4.304 8.608-4.304 9.47-4.304 10.33 1.72 5.166 12.053 8.61 27.55 10.33 3.443 0 8.608 0 15.496-.86zm-72.318-29.27c6.027-.862 11.193-2.584 12.914-5.167v-.862l-.86-2.582c-6.027-11.193-9.47-20.663-9.47-30.133 0-5.165.86-7.748 2.582-12.053 2.583-4.304 3.444-5.694 7.748-7.415 1.722-.88 3.777-1.213 4.638-1.742 2.25-.665 4.832-2.035 4.832-2.035s-1.545-.332-3.287-1.193c-5.165-1.722-7.044-3.11-11.348-5.694-13.776-7.747-22.385-15.496-30.994-26.687-2.583-4.305-3.92-6.207-5.166-7.942l-.86-1.528c-.862-.86-35.3-.86-36.16 0-.583 12.053 5.194 22.672 12.914 31.855C21.974 82.183 29.312 85.23 36.2 86.953c6.026 1.722 6.887 2.583 9.47 6.027 1.72 4.304 2.582 6.887 2.582 12.052.86 7.75-1.722 15.497-6.887 26.69l-3.444 6.886c0 .86 1.723 2.583 3.445 3.444 4.304 2.583 16.357 4.304 24.105 2.583zm140.33 0c6.888-.862 11.193-2.584 12.054-5.167 0-.862 0-1.723-2.583-6.888-5.416-10.692-9.153-23.4-6.026-35.298 1.788-4.816 4.086-9.835 9.47-10.672 8.61-2.582 15.497-6.546 24.106-15.155 5.166-5.166 9.97-13.88 11.32-18.94 1.082-4.057 2.443-8.908 1.594-12.915-.86-.86-36.16-.86-37.02 0l-1.72 1.722c-.863 2.583-4.306 7.75-6.89 10.33-3.443 4.306-13.773 14.637-17.217 17.22-6.35 6.504-18.535 10.887-24.967 13.774.86.86 5.165 3.444 8.61 4.305 6.887 2.583 6.887 2.583 9.47 6.887 1.72 4.305 2.582 6.888 2.582 12.053.476 11.95-5.616 23.016-10.33 32.715 6.12 6.89 18.97 6.716 27.55 6.027z" fill="#7AB852"/></svg>