<svg width="256" height="316" viewBox="0 0 256 316" xmlns="http://www.w3.org/2000/svg" preserveAspectRatio="xMinYMin meet"><path d="M119.78 158.373L98.172 312.677s-35.23 12.918-67.17-14.09l34.994-149.61L0 15.108s26.07-11.04 42.745-7.28l58.01 109.445 100.522-85.49s33.82 11.743 36.873 23.016L119.78 158.373z" fill="#ECDFA7"/><path d="M251.772 173.798c-1.644-3.288-3.757-6.34-6.106-9.16-4.697-5.4-10.334-9.864-16.44-13.387-5.872-3.756-12.448-6.81-19.024-8.923l-2.584-.705-2.113-.705c-1.41-.47-2.584-1.174-3.758-1.644-2.35-1.41-3.993-2.818-5.167-4.697-2.35-3.523-2.584-8.925-1.41-14.56.236-1.41.705-2.82 1.175-4.23.47-1.408.94-2.817 1.41-4.46.47-2.115.704-4.23.704-6.812l1.173-.94 14.092-11.743c2.583-2.113 5.167-4.46 7.75-6.575.94.47 1.88 1.174 2.584 1.644 0 0 7.28.704 11.272-10.335l-2.114-1.41 1.41-1.173 3.522-3.054c1.175-.94 2.114-2.113 2.584-4.227-2.114-.234-3.523.47-4.697 1.41l-3.758 2.818-2.585 1.88-32.41-22.313c1.643-1.41 3.053-2.583 4.697-3.992l6.81-6.107.705-.704c.705.47 1.175.94 1.88 1.41 1.643 1.173 3.522 2.348 5.166 3.287l10.334 5.636c3.288 1.88 6.81 3.757 10.334 5.402 1.645.94 3.524 1.644 5.403 2.348.94.235 1.88.705 2.818.94.47 0 1.176.234 1.645.234h1.175c.47 0 .94-.234 1.41-.94v-.234c0-.235 0-.47.234-.704v-.94c0-.47-.235-.704-.47-.94-.235-.47-.705-.94-.94-1.41-.704-.703-1.41-1.643-2.113-2.112-1.41-1.41-3.053-2.584-4.462-3.758-3.053-2.35-6.34-4.462-9.63-6.576-3.287-2.114-6.575-3.993-10.098-5.637-1.644-.94-3.523-1.645-5.402-2.35-.94-.234-1.88-.704-3.053-.94-.47 0-1.175-.234-1.88-.234-.47 0-.704 0-1.408.235-.47.236-1.175.47-1.88 1.175-1.643.705-3.052 1.41-4.227 2.35l-7.046 3.992c-2.113 1.644-4.462 3.523-6.576 5.167l-2.348-1.644s-9.865.94-6.577 7.28l.94.94c-9.395 7.75-18.554 15.736-27.714 23.486-9.395 7.985-18.555 15.97-27.95 24.19l-13.856 12.214c-.705.704-1.41 1.41-2.35 2.113-.47-1.41-1.173-2.583-1.643-3.757l-3.287-7.046-6.34-14.092c-4.23-9.395-8.456-18.79-12.92-28.184l-13.15-27.948-2.115-4.228h2.82s.938-7.75-4.7-9.16c0 0-.938 0-2.347.236-2.113-4.228-3.992-8.455-6.106-12.683l-.94-3.522c-.234-1.174-.94-1.644-1.408-2.114-.47-.235-.94-.47-1.175-.47-.703-.234-1.173-.234-1.878-.47C54.488 0 53.55 0 52.61 0c-2.115 0-3.993.235-5.872.47-3.758.47-7.75 1.174-11.51 2.113-3.756.94-7.514 1.88-11.272 3.054-1.88.704-3.758 1.174-5.402 2.113l-2.818 1.41c-.47.234-.94.704-1.41.94l-.704.704c-.235.235-.235.47-.47.704v.94c.235.94.705 1.174 1.175 1.41.47.234.704.47.94.47.704.233 1.173.233 1.643.468.94.235 2.114.235 3.053.235 1.88 0 3.993-.234 5.872-.47 3.758-.468 7.75-.938 11.508-1.643L48.85 11.04c1.88-.236 3.76-.706 5.873-1.176 1.644 3.288 3.288 6.81 4.932 10.1-10.804.94-27.714 2.348-38.283 3.522-1.174-2.114-2.113-3.992-3.288-6.106-.234-.47-.94-.94-1.644-.705s-.94.94-.704 1.644c.704 1.878 1.41 3.522 2.114 5.4-3.29.47-5.402.94-5.637 1.41-1.174 2.114 2.348 13.153 7.046 15.97 0 0 1.878-.704 5.166-1.408l4.932 11.273 14.092 31.94 14.326 31.943c4.697 10.57 9.63 21.137 14.562 31.94 0 0 0 .236.234.236-.704 2.348-1.41 4.697-2.113 7.046-1.88 6.576-3.76 13.152-5.638 19.728-3.523 13.152-6.81 26.54-10.1 39.692l-4.93 19.963-4.698 19.964c-3.288 13.387-6.342 26.54-10.1 39.69 0 .236 0 .706.235.94 1.878 2.584 4.462 4.463 6.81 6.342 2.584 1.878 5.167 3.287 7.75 4.696 5.403 2.82 11.04 4.932 16.91 6.81 5.872 1.645 11.98 2.82 18.32 3.054 3.053.235 6.34 0 9.395-.47 3.053-.47 6.106-.94 9.394-1.878.94-.235 1.643-1.174 1.878-2.114v-.235c2.584-12.917 4.697-26.07 7.046-38.987l6.576-39.222c2.114-13.152 4.462-26.07 6.576-39.222.235-1.41.47-3.053.705-4.462.47.47.705 1.174 1.175 1.644 2.35 2.818 5.167 5.167 7.985 7.28 5.637 3.993 11.744 7.046 17.85 9.395 6.106 2.348 12.448 4.226 18.79 5.636 4.227.94 8.22 1.644 12.447 2.113-1.88 4.227-3.054 8.69-2.82 13.62 0 .47.236.94.706 1.176h.235c4.462 2.348 9.16 4.227 14.326 5.402 4.933.94 10.334 1.41 15.5.704 5.403-.704 10.805-2.818 15.033-6.34 4.227-3.524 7.28-8.22 9.16-13.153l.234-.236v-.235l.706-6.342v-.235c2.348-1.41 4.697-2.82 7.045-4.698 2.82-2.348 5.403-4.932 7.282-8.22 1.88-3.288 3.053-7.28 2.82-11.273-.236-3.758-1.645-7.516-3.29-10.804zm-4.462-118.37s0 .234 0 0zM230.635 42.98c3.288 1.88 6.34 3.758 9.394 6.106 1.41 1.175 3.053 2.114 4.462 3.523.704.704 1.41 1.173 1.88 1.878l.468.47h-.47c-.94-.235-1.643-.47-2.583-.705-1.644-.704-3.523-1.41-5.167-2.114-3.288-1.645-6.81-3.29-9.864-5.402-3.053-2.114-6.106-4.463-8.69-7.046-.94-.94-1.88-1.88-2.583-2.82l3.523 1.41c3.053 1.175 6.34 2.82 9.63 4.698zm-15.97-10.334l.234.235v.47s0-.234-.236-.234v-.47zM47.206 6.34C43.92 7.986 40.16 9.16 36.64 10.1c-3.76.94-7.282 1.643-11.04 1.878-1.88.235-3.758.235-5.637.235-.94 0-1.88 0-2.583-.235h-.705c.235 0 .235-.235.47-.235.705-.47 1.644-.704 2.35-1.174 1.643-.706 3.522-1.176 5.166-1.88 3.523-.94 7.28-1.88 11.04-2.584 3.757-.704 7.515-1.174 11.038-1.41 1.174 0 2.348 0 3.523-.234-.704.705-1.878 1.175-3.053 1.88zm162.995 80.09L195.64 97.702l-14.56 11.508c-3.994 3.29-7.986 6.577-11.98 9.63.236-.234.47-.704.706-.94 1.878-2.583 3.757-4.93 5.636-7.28 3.993-4.697 7.75-9.63 11.978-14.092s8.69-8.924 13.152-12.917c2.35-2.113 4.698-3.992 7.28-5.636l2.115-1.41c2.114 1.645 4.462 3.29 6.576 4.933-1.88 1.644-4.227 3.288-6.34 4.932zM38.048 57.54l1.174 1.176c2.35 2.348 4.697 4.697 6.576 7.28 1.88 2.584 3.523 5.402 4.228 8.22.47 2.35.47 4.933-.705 7.046l-.234-.704L38.048 57.54zm11.508 24.427c.705-.705 1.174-1.644 1.644-2.818.705-1.645.705-3.524.47-5.168-.47-3.523-2.114-6.81-4.228-9.395-3.053-3.993-6.81-7.28-11.038-10.1l-2.584-5.4c-1.644-3.524-3.288-7.047-5.167-10.335 3.523-.94 7.75-2.348 12.448-3.523 4.228 6.81 7.986 13.856 11.51 21.137 3.992 9.16 7.984 18.79 8.69 28.653.234 2.35 0 4.932 0 7.516 0 2.583 0 5.167.234 7.75.235 3.523.94 7.28 1.644 10.804L49.556 81.967zm55.427 191.413c-.704.94-1.174 1.644-2.113 2.348-1.175.94-2.35 1.41-3.758 1.175-1.174-.235-2.114-1.41-2.584-2.584-.47-1.175-.94-2.584-.94-3.993-.234-2.82-.234-5.637.47-8.455.47-2.82 1.41-5.402 2.584-7.986.705-1.174 1.41-2.348 2.35-3.288.938-.94 2.113-1.644 3.287-1.41 1.173 0 2.348 1.175 3.052 2.35.47.704.705 1.41.94 2.113l-2.82 16.677c-.234 1.174-.234 2.113-.47 3.053zm13.857-81.028l-4.227 24.66c-.235-1.643-.705-3.287-1.174-4.93-1.176-4.464-2.585-8.69-3.994-12.92-3.053-8.454-6.576-16.674-10.804-24.424 2.584 8.69 5.637 16.91 8.69 25.365 1.644 4.227 3.053 8.455 4.462 12.447l2.114 6.342c0 .235.235.704.235.94-.704 3.757-1.41 7.515-1.88 11.507l-3.522 21.372c-.234-.47-.234-.94-.468-1.41-.705-1.408-1.644-2.818-3.523-3.287-1.645-.47-3.29.47-4.7 1.41-1.173.938-2.112 2.347-3.052 3.522-1.644 2.583-2.583 5.636-3.053 8.455-.47 3.053-.705 6.106 0 9.16.235 1.41.705 3.053 1.644 4.462.704 1.41 2.113 2.818 3.757 3.053 1.644.235 3.288-.705 4.227-1.88.47-.47.94-1.173 1.41-1.643-1.645 11.04-3.523 22.077-5.167 33.35-2.114.705-4.228 1.175-6.342 1.41-2.818.47-5.636.704-8.455.94-5.87.234-11.508-.236-17.38-1.645-5.636-1.175-11.508-3.054-16.91-5.403-5.167-2.348-10.1-5.4-13.857-9.63 3.523-12.916 7.516-25.834 11.51-38.75l6.105-19.495 5.872-19.728c3.992-13.153 7.985-26.305 11.743-39.457 1.88-6.576 3.523-13.153 5.402-19.73 1.41-6.81 4.227-13.15 2.113-20.667v-.234c-.235-.235-.47-.235-.47 0-1.174 1.174-1.878 2.113-2.818 3.288-2.583-5.872-5.402-11.51-7.985-17.38-.705-2.114-1.41-4.228-1.88-6.576-1.173-4.932-2.113-9.865-2.348-14.797-.234-2.582-.234-4.93-.234-7.514 0-2.584.234-5.167 0-7.75-.94-10.335-4.933-20.2-9.395-29.358-3.523-7.28-7.75-14.092-12.448-20.668 7.75-2.114 15.97-4.228 22.547-5.402.94 2.114 2.114 3.992 3.053 6.106l14.092 27.714 14.092 27.48 7.046 13.62 3.523 6.812c.94 1.41 1.41 3.053 2.348 4.227-3.052 2.82-6.105 5.637-9.158 8.455-.235.235-.47.705 0 1.175.235.47.94.47 1.174.235 4.932-3.523 9.864-7.28 14.796-11.04l14.797-11.272c9.863-7.516 19.492-15.03 29.122-22.547 9.63-7.516 19.258-15.266 28.888-23.017l.234-.234c5.167 4.932 12.918 12.212 21.138 18.554-3.523 1.88-6.81 3.757-9.864 6.106-4.932 3.758-9.63 7.985-13.857 12.683-4.227 4.697-8.22 9.394-11.742 14.56-2.584 3.524-4.932 7.282-7.28 11.275-14.327 11.743-28.42 23.72-42.04 36.168-.47.47-.47 1.175-.236 1.644.47.47 1.174.705 1.644.47-1.644 4.697-2.584 9.395-3.523 14.092-1.41 6.576-2.818 13.152-3.993 19.728zm103.81 31.472c-3.29 2.583-7.28 4.227-11.51 5.167-4.226.94-8.923.94-13.386.47-4.227-.47-8.69-1.174-12.917-2.348-.47-3.758.235-7.985 1.88-11.743 1.643.234 3.052.234 4.696.47.704 0 1.174-.236 1.41-.94.234-.706 0-1.645-.94-1.88-1.175-.47-2.114-.704-3.29-1.174.94-1.644 2.115-3.053 3.29-4.463 1.41-1.41 2.818-2.818 4.227-3.992 3.053 1.88 6.107 3.29 9.63 4.463 3.992 1.175 8.22 1.644 12.682 1.175 4.228-.47 8.69-2.584 11.508-6.107 2.584-3.052 3.758-6.575 3.993-10.333.47 1.41.47 3.053.235 4.463-.235 1.878-.47 3.992-.94 5.87l-.704 3.524-3.523 2.114c-1.408.94-2.583 1.88-3.757 3.992 2.114.705 3.758.47 5.402 0 .235 0 .235-.234.47-.234-.235.704-.235 1.174-.47 1.878-1.88 3.758-4.697 7.046-7.985 9.63zm23.25-30.767c-1.173 2.583-3.052 4.932-5.166 7.046-.94.94-2.114 1.88-3.053 2.583 0-2.114-.234-4.227-.704-6.34-.235-1.175-.47-2.115-.94-3.29-.47-.94-.94-2.113-2.113-2.817-.235 0-.47 0-.47.233-1.41 3.523-3.758 6.577-6.34 8.69-2.585 2.114-5.873 3.054-9.16 3.288-3.29.236-6.812-.468-10.335-1.408-3.523-.94-7.046-2.114-10.568-3.288l-.47-.235c-.705-.236-1.644 0-2.114.47-1.88 2.348-3.288 4.46-4.932 6.81-1.174 1.88-2.114 3.523-3.053 5.402-4.227-1.644-8.22-3.053-12.447-4.697-5.872-2.35-11.743-4.698-17.145-7.516-5.637-2.584-11.038-5.638-15.736-9.16-4.697-3.524-8.924-7.28-11.038-11.98v-.233c-.47-.94-1.175-1.645-2.114-2.114 0-.47.235-1.175.235-1.644.704-5.638 1.644-11.275 1.174-17.146 19.023-13.387 37.577-27.48 55.896-42.04l-.704 2.113c-1.174 3.523-1.644 7.516-1.644 11.508.235 3.993 1.41 8.455 3.992 12.213 2.584 3.758 6.107 6.576 9.63 8.22 1.88.94 3.758 1.644 5.402 2.114l2.818.705 2.35.47c6.105 1.644 11.977 3.992 17.378 7.045 5.402 3.054 10.57 6.81 14.797 11.04 4.227 4.226 7.515 9.628 7.985 15.03.235 3.758-.235 6.576-1.41 8.925z" fill="#3F3E29"/><path d="M89.952 247.075c-1.88 2.584-3.288 5.637-3.992 8.69-.47 1.644-.705 3.288-.705 4.697l-.235 4.698c-.47 6.106-.235 12.682 1.644 18.79 1.88 6.105 4.463 11.742 7.516 17.144-.94-3.054-2.114-5.872-3.053-8.69-.94-2.82-1.88-5.872-2.584-8.925-1.41-5.873-1.41-11.98-1.174-18.086l.234-4.697c0-1.41.235-3.053.47-4.462.704-2.818 1.878-5.637 3.287-8.22 1.646-2.584 3.524-4.932 5.873-7.046 2.114-2.115 4.697-3.994 7.516-5.403-5.873 2.35-11.275 6.106-14.798 11.508z" fill="#3F3E29"/></svg>