<svg width="512" height="124" viewBox="0 0 512 124" xmlns="http://www.w3.org/2000/svg" preserveAspectRatio="xMinYMin meet"><path d="M188.432 0c17.8-.077 36.052 5.03 49.886 16.537 7.09 5.738 12.815 12.937 17.678 20.602 8.75-14.145 21.53-26.163 37.292-31.956 19.206-7.21 40.915-6.712 60.088.355 16.747 6.113 31.39 16.768 44.67 28.486 10.39 9.17 20.003 19.206 30.702 28.034 5.638 4.574 11.696 8.86 18.63 11.23 9.215 3.146 20.114.178 26.704-6.922 6.103-6.645 5.726-18.13-.997-24.2-4.275-3.69-11.585-2.947-14.61 1.97-2.646 3.9-1.162 8.762.91 12.54-5.506-4.022-11.02-9.626-11-16.936-1.14-8.45 5.13-15.906 12.638-18.863 14.654-5.86 33.03-.81 42.278 12.094 8.895 12.04 9.603 27.867 8.053 42.21-1.872 13.624-9.492 26.34-20.79 34.226-15.86 11.32-35.964 14.83-55.092 14.587-18.385-.5-36.583-4.652-53.618-11.52-28.487-11.452-55.147-27.28-84.565-36.428-9.758-3.79-20.136-5.838-30.57-6.47-8.307-.055-16.182-.443-24.024.09-9.57.918-19.084 2.88-28.044 6.39-29.917 9.304-56.976 25.53-86.006 37.005-24.512 9.536-51.67 13.967-77.687 8.672-14.554-2.946-29.042-9.38-38.866-20.845C3.685 91.145-.346 78.098.05 65.316-.413 53.254 2.234 40.44 10.21 31.046c7.42-8.904 19.372-13.423 30.847-12.426 7.387.343 14.875 3.566 19.438 9.514 3.59 4.707 3.81 11.154 2.237 16.658-1.916 4.95-5.87 8.817-10.167 11.785 2.193-3.7 3.522-8.584.93-12.45-3.19-5.15-11.043-5.67-15.196-1.44-5.117 5.262-6.192 13.857-2.758 20.303 3.72 6.757 11.418 10.61 18.872 11.397 11.276.975 21.056-6.014 29.33-12.792 17.123-14.743 32.54-31.61 51.536-44.083 15.662-10.5 34.114-17.6 53.154-17.51z" fill="#423426"/></svg>