<svg width="256" height="194" viewBox="0 0 256 194" xmlns="http://www.w3.org/2000/svg" preserveAspectRatio="xMinYMin meet"><g stroke-width=".094" stroke="#0A0203" fill="#0A0203"><path d="M20.35 2.16C21.214.825 22.847.216 24.362.087c1.27-.154 2.518.272 3.692.717 1.168.597 2.15 1.493 3.206 2.265.937.63 1.636 1.558 2.225 2.51.843 1.96 1.38 4.1 1.15 6.25-.364.423-.666.904-1.087 1.27-.72.532-1.548.89-2.374 1.216l2.71 2.984c1.003.982 1.562 2.3 2.327 3.458.67-.828 1.744-1.078 2.557-1.72 1.19-.87 2.28-1.902 3.62-2.542.416-.14.868-.073 1.3-.107l.395.28c.042 1.46.783 2.756 1.237 4.11.738 2.335 1.482 4.677 2.454 6.927.254.01.506-.006.76-.014.294-1.477 1.092-2.76 1.788-4.067.698-1.143 1.18-2.418 2.035-3.465 1.065-1.368 1.993-2.87 3.302-4.022l.79.02c.078 1.744-.08 3.504.262 5.23.3 1.318.093 2.68.303 4.004.25 1.91-.156 3.897.453 5.758.89 1.553 2.432 2.567 3.433 4.033 1.52 1.673 3.043 3.348 4.53 5.053.858.996 1.476 2.18 2.372 3.146.708.79 1.26 1.71 1.998 2.477.36.365.65.793.915 1.233.438.734 1.127 1.27 1.578 1.997.45.616.843 1.318 1.45 1.786.58-.215 1.077-.7 1.752-.535l.388.43c.398.064.924-.002 1.125.442.457.91 1.176 1.67 1.538 2.63.747-.487 1.57-.848 2.325-1.325 1.105-.667 2.42-.46 3.642-.507 1.046-.06 2.062.438 3.104.16 1.137-.3 2.08.72 3.215.58.707-.208 1.33-.618 1.996-.922 1.385-.56 2.804-1.03 4.22-1.498 1.535-.77 3.193-1.215 4.824-1.706 1.676-.255 3.346-.58 5.04-.695.867-.11 1.718-.447 2.603-.28 2.177.297 4.363.618 6.564.588 1.56-.09 3.12.095 4.653.38 1.24.228 2.304.95 3.522 1.244 1.074.325 2.05.91 3.126 1.24 2.025.89 3.637 2.507 5.668 3.393 1.318.84 2.773 1.443 4.054 2.34 1.038.883 2.26 1.536 3.192 2.547.564.567.987 1.283 1.667 1.726.594.404 1.29.71 1.67 1.362 1.638 1.085 2.74 2.768 4.095 4.162.667.674 1.135 1.583 1.99 2.043.163-.223.31-.458.458-.69.477-.247.957-.51 1.49-.624 1.595-.294 3.22-.418 4.842-.362 1.42-.065 2.702.65 4.09.825 1.17.09 2.17.768 3.285 1.074.654.222 1.377.215 2.008.522.877.416 1.78.77 2.662 1.175 1.273.87 2.49 1.825 3.818 2.612.775.613 1.475 1.326 2.31 1.87.45-.844 1.505-.86 2.27-1.255 1.596-.752 3.22-1.49 4.672-2.504 1.11-.708 2.272-1.328 3.49-1.822 2.637-1.335 5.198-2.862 8.02-3.77.778-.37 1.7-.442 2.356-1.05-.63-1.036-.133-2.206.032-3.297.152-1.056.837-1.925 1.568-2.65 1.427-1.074 3.204-1.598 4.98-1.55 1.61-.155 3.142.717 4.172 1.915.593.832 1.092 1.752 1.458 2.705-.35.817-.465 1.698-.707 2.546-.293.988-1.187 1.576-1.87 2.276-1.12.853-2.218 1.854-3.665 2.068-1.206-.218-2.425-.365-3.635-.58-.63.555-1.03 1.34-1.745 1.797-.465.297-.747.79-1.158 1.144-1.114.873-2.16 1.83-3.278 2.693-1.492 1.008-3.045 1.92-4.54 2.916-.898.668-1.703 1.48-2.728 1.962-2 .97-3.537 2.63-5.33 3.912.47 1.02.664 2.133.88 3.23.163 1.426-.202 2.844-.19 4.273-.058.862.093 1.764-.23 2.588-.237.73-.74 1.343-.89 2.104-.287 1.246-.842 2.404-1.22 3.62-.204.704-.674 1.277-.99 1.93-.593 1.14-.964 2.395-1.646 3.494-.304.522-.688.993-.983 1.52-.613 1.145-1.487 2.112-2.15 3.22-.89.945-1.91 1.79-2.608 2.903-.94.808-1.695 1.85-2.86 2.35-.017.45-.027.898-.02 1.35-.338.572-.6 1.24-1.15 1.64-.422.267-.91.008-1.33-.11-.183-1.004-.284-2.022-.3-3.043l-.09.396c-.053-.404-.117-.81-.178-1.208-.085-.565-.134-1.134-.174-1.7l-.648-.024c-.47-.484-.94-.975-1.258-1.574-.903-.824-1.487-1.917-2.337-2.783-.548-.683-1.353-1.15-1.764-1.935-.773-.834-1.413-1.8-2.315-2.503-1.95-1.867-4.223-3.332-6.408-4.895-1.336-.738-2.662-1.51-4.1-2.03-2.07-1.268-4.562-1.328-6.8-2.13-1.016-.43-2.132-.227-3.193-.364-1.83-.29-3.69-.1-5.53-.1-1.956-.07-3.894.54-5.558 1.552-.63.41-1.445.237-2.087.632-1.74.967-3.584 1.727-5.443 2.42-1.49.77-2.927 1.65-4.454 2.356-1.442.93-3.062 1.538-4.466 2.537-2.26 1.17-4.32 2.68-6.598 3.816-2.09 1.427-4.507 2.316-6.47 3.946-1.513.85-2.786 2.04-4.09 3.174-.55.5-.992 1.115-1.612 1.532-.815.53-1.256 1.46-2.052 2.02l-.07.474c-.25.146-.504.283-.742.45-.053.41.083.823.107 1.236.11.817-.06 1.66.178 2.464.364 1.37.62 2.77.714 4.186.388 3.63 1.184 7.242 2.704 10.566.6 1.068.828 2.293 1.376 3.384.47.952.813 1.97 1.368 2.878.553.743.906 1.613 1.45 2.363.89 1.313 1.453 2.816 2.308 4.15.357.68.856 1.316.964 2.1.27 1.527.627 3.05 1.195 4.495-.116.44-.134.94-.46 1.292-.607.696-1.297 1.354-2.162 1.707-1.417.678-3.013.692-4.547.802-1.047.15-2.127.265-3.16-.032-.357-.162-.63.143-.892.332-1.262.18-2.39.815-3.64 1.042-.876.325-1.69.804-2.6 1.05-1.83.834-3.87 1.048-5.86 1.048-1.64.156-3.274.338-4.905.573-1.776-.023-3.51.513-5.293.463-1.14-.027-2.293.05-3.424-.146-2.248-.33-4.357-1.216-6.478-1.993-1.07-.39-2.07-.975-3.187-1.225-1.854-.452-3.59-1.295-5.224-2.277-.51-.36-.894-.864-1.334-1.298-1.837.71-3.43 1.955-5.322 2.533-2.214.63-4.043 2.098-6.132 3.022-2.236 1.288-4.63 2.263-6.885 3.517-2.38 1.326-4.888 2.38-7.367 3.5-.747.356-1.615.523-2.234 1.108.06 1.658-.303 3.316-.932 4.84-.457.653-.818 1.36-1.118 2.1-1.555 2.127-3.855 3.554-6.223 4.604-.85.445-1.843.257-2.76.197-.92-.17-1.91-.222-2.722-.746-1.14-.767-1.953-1.988-2.264-3.336-.026-.915-.1-1.837-.002-2.748.223-.93.733-1.756 1.08-2.642.448-1.16 1.422-1.976 2.267-2.84.93-.855 1.853-1.79 3.026-2.305 1.378-.48 2.834-.848 4.304-.662.883.137 1.944-.043 2.614.686.826-.568 1.31-1.452 1.934-2.207 2.09-1.493 3.903-3.358 6.006-4.838 1.135-1.066 2.337-2.06 3.39-3.21 1.14-1.064 2.01-2.4 3.258-3.347 1.186-.94 2.083-2.2 3.31-3.084 1.072-.745 1.93-1.75 2.942-2.568 1.206-.98 2.28-2.117 3.56-3.005l-.372-.417c-.394-1.455-.534-2.95-.48-4.456.095-1.643-.414-3.28-.102-4.912.17-1.384.95-2.578 1.336-3.898.404-1.003.898-1.972 1.415-2.92 1.25-1.563 1.983-3.47 3.174-5.075 1.067-1.563 2.122-3.136 3.36-4.567.617-.847 1.445-1.515 2.403-1.925-.232-.913-.11-1.873-.358-2.782-.467-1.89-.662-3.83-1-5.743-.523-1.61-1.18-3.22-1.167-4.947-.524-2.335-1.208-4.763-.678-7.165.388-1.682.386-3.432.854-5.096.25-.982.287-2.032.772-2.94.602-1.2.803-2.557 1.36-3.773 1.025-1.554 1.82-3.255 2.884-4.784.73-.847 1.466-1.692 2.18-2.55 1.814-1.727 3.667-3.415 5.504-5.12 1.68-1.433 2.89-3.37 4.742-4.615.73-.622 1.51-1.18 2.262-1.774.814-.952.904-2.286.894-3.49-.07-1.256.915-2.313 2.035-2.705.943-.326 1.81-.818 2.647-1.363-.806-.833-1.286-1.906-1.977-2.826-.148-.253-.4-.487-.377-.805.127-.32.307-.616.474-.914.316-.24.618-.493.916-.756-3.705-3.715-7.043-7.783-10.233-11.95-1.366-1.542-2.745-3.065-4.234-4.487-1.013-.868-1.847-1.946-2.555-3.074-.356-2.28-.106-4.602-.5-6.878-.637.992-1.167 2.05-1.76 3.07-.848 1.607-1.567 3.308-2.723 4.724-.347.418-.768.805-.957 1.33-.366 1.08-.12 2.272-.51 3.344-.28.075-.568.113-.854.163-.51-.674-.306-1.55-.535-2.32-.773-2.68-1.253-5.44-2.06-8.11-.42-.944-.636-1.958-.956-2.935-.317-1.014-.743-1.99-.97-3.028-.465.284-.872.643-1.31.962-1.13.67-2.463.978-3.444 1.89-.555.557-1.622.702-2.137.023-.606-.76-1.08-1.618-1.636-2.413-1.01-1.434-1.506-3.14-2.3-4.69-.43-1.26-1.078-2.417-1.63-3.62-1.276.155-2.57-.084-3.718-.66-.917-.475-2.048-.712-2.624-1.662-.913-.958-1.514-2.137-2.186-3.266-.692-1.733-1.22-3.557-1.315-5.433-.085-.78.56-1.32.954-1.9l-.005.003zm.383 2.35c-.117.534.116 1.068.192 1.595.473 1.49.76 3.17 1.906 4.31.687 1.033 1.333 2.297 2.587 2.705 1.014.357 2.03.753 3.113.85.008-.517-.112-1.184.438-1.472.585-.052 1.02.372 1.44.712.648-.184 1.34-.297 1.92-.658.522-.636.96-1.448.812-2.303-.135-1.02-.178-2.072-.57-3.032l.034.245c-.607-2.12-2.376-3.567-4.098-4.767-1.404-.714-2.978-1.383-4.582-1.078-1.46.32-2.74 1.446-3.193 2.892h.003zm10.623 12.227c.63 1.15 1.148 2.357 1.696 3.546.522 1.195 1.377 2.2 1.932 3.377.2.394.408.78.625 1.165 1.59-1.2 3.615-1.585 5.19-2.802l.71-.905.67-.022c.33.544.68 1.12.658 1.782-.04 1.618 1 2.958 1.264 4.51.144.846.47 1.642.756 2.446.332 1.846.957 3.623 1.315 5.467.447-.455.863-.94 1.256-1.44 2.11-3.35 3.865-6.913 5.593-10.475.174-.284.484-.443.733-.654l.616.345c-.086 1.504 0 3.01-.09 4.51.024 1.132-.246 2.265-.037 3.388.095.58.063 1.17.137 1.752.46.744 1.2 1.255 1.71 1.96.715.98 1.713 1.687 2.533 2.568.872.84 1.548 1.858 2.368 2.748.99.942 1.61 2.185 2.472 3.237 2.285 2.56 4.418 5.257 6.663 7.857.465.49.77 1.1 1.016 1.726.578-.32 1.313-.63 1.58-1.268-.837-1.42-2.02-2.586-3.202-3.71-.972-1.22-2.038-2.373-2.836-3.723-1.278-1.367-2.302-2.946-3.524-4.362-.697-1.005-1.72-1.7-2.463-2.663-1.374-1.736-3.024-3.215-4.438-4.91-.397-1.203-.15-2.484-.352-3.718-.352-2.423.178-4.894-.254-7.305-.077-.875-.064-1.753-.108-2.63-1.093 1.073-1.99 2.324-2.817 3.61-.557 1.095-1.304 2.077-1.85 3.178-.536 1.108-1.337 2.05-1.966 3.104-.407.78-1.378.846-2.147.804-.252-.477-.57-.92-.786-1.414-.296-.864-.367-1.786-.616-2.665-.692-2.104-1.02-4.33-2.026-6.317l-.352-1.038c-1.108.527-1.92 1.476-2.915 2.167-.94.52-2 .808-2.864 1.476-.506.006-1.012.01-1.517.05-.386-.72-.844-1.41-1.515-1.892-1.07-.772-1.576-2.107-2.642-2.87l.08-.17c-.05-.67-.916-.002-.257.18zm71.992 33.08c-1.612.042-3.054.85-4.62 1.133-1.27.274-2.342 1.093-3.636 1.283-1.274.55-2.625.946-3.808 1.694-.644.428-1.476.6-1.913 1.294-2.142 1.077-4.478 1.735-6.516 3.027-3.08 1.508-6.115 3.13-9.057 4.9-2.124 1.076-4.19 2.26-6.296 3.365-.094.387-.192.774-.295 1.16-.437.024-.936-.146-1.314.15-1.325.833-2.436 1.95-3.614 2.976-1.612 1.94-3.548 3.56-5.4 5.26-.965 1.025-2.007 1.967-3.003 2.96-1.273 1.488-2.47 3.054-3.383 4.8-.116.125-.21.272-.313.41 1.13-.345 2.217-.897 3.42-.94.91-.02 1.812-.207 2.725-.228 1.624.087 3.217-.35 4.846-.244 1.3-.125 2.56.237 3.846.32 2.495.822 5.047 1.55 7.338 2.877 2.27.993 4.507 2.193 6.27 3.974 1.844 1.553 3.736 3.088 5.205 5.022.756 1.2 1.59 2.352 2.33 3.565 1.56-1.727 3.748-2.74 5.19-4.595.535-.778 1.443-1.106 2.146-1.69 1.11-.998 2.444-1.682 3.68-2.5 1.403-.73 2.856-1.364 4.252-2.11.858-.47 1.847-.576 2.723-.995.873-.428 1.928-.503 2.576-1.314 1.6-.388 3.003-1.304 4.513-1.93.917-.347 1.842-.678 2.74-1.072 1.12-.5 2.377-.81 3.245-1.735 2.258-.667 4.33-1.812 6.568-2.53.82-.33 1.582-.812 2.46-.986.923-.182 1.79-.616 2.74-.66 1.43.036 2.795-.508 4.23-.448 1.375.056 2.663-.8 4.035-.442.934.163 1.555 1.02 2.44 1.326 1.632.567 3.27 1.148 4.79 1.98.914.49 1.91.854 2.723 1.513 1.286 1.306 2.93 2.17 4.25 3.44 1.16 1.248 2.485 2.34 3.5 3.722.408.57.81 1.148 1.19 1.74.813 1.318 1.93 2.417 2.666 3.788.904 1.31 1.345 2.85 1.85 4.344.566 1.724 1.257 3.427 1.507 5.238.325 1.358.993 2.63 1.08 4.05.647 1.193.438 2.592.764 3.87.247 1.027.404 2.078.513 3.13l.287.01c.042-.915.178-1.82.243-2.73.05-1.43-.21-2.843-.36-4.257.006-1.4-.006-2.812-.23-4.2-.19-.792-.41-1.582-.54-2.387-1.288-4.045-2.047-8.304-4.014-12.102-1.057-2.848-1.792-5.865-3.408-8.463-1.275-1.644-2.008-3.63-3.29-5.27-.648-.84-1.615-1.34-2.31-2.136-1.034-.958-1.834-2.143-2.934-3.03-1.386-1.423-2.604-3.002-3.95-4.462-.54-.843-1.43-1.337-2.102-2.056-.52-.54-1.14-.96-1.71-1.446-1.596-1.61-3.396-3.024-5.325-4.203-1.246-.47-2.266-1.34-3.44-1.946-1.51-.86-2.943-1.85-4.464-2.695-1.167-.585-2.416-.966-3.587-1.54-1.235-.284-2.52-.455-3.79-.34.393.413.963.528 1.456.772.657.3 1.185.84 1.87 1.087 1.28 1.174 2.98 1.762 4.198 3.018 1.966 1.728 3.6 3.786 5.495 5.59 2.28 2.606 4.48 5.325 6.112 8.405.726 1.606 1.5 3.19 2.26 4.776.544.888.353 1.974.38 2.967l-.563.15c-.828-2.452-2.078-4.715-3.23-7.018-1.247-2.235-2.645-4.39-4.268-6.37-1.046-1.35-2.003-2.794-3.287-3.934-.87-.774-1.57-1.718-2.387-2.537-1.476-1.058-2.775-2.383-4.4-3.218-.865-.473-1.744-.928-2.544-1.51-1.19-.65-2.472-1.127-3.797-1.404-1.31-.402-2.615-.825-3.953-1.108-.828-.245-1.68-.402-2.506-.658-1.077-.366-2.195.107-3.294-.036-1.275.07-2.525.364-3.802.39h.004zM74.818 51.8c-1.37 1.004-2.736 2.028-4.28 2.74.13.28.268.598.61.655l-.184.09c.712.695 1.322 1.486 1.63 2.45 1.263-.774 2.526-1.567 3.66-2.527.336-.293.726-.516 1.134-.687-.55-.643-.81-1.488-1.414-2.09-.138-.273-.265-.548-.384-.828-.275-.02-.563-.006-.773.198zm4.476 3.106c-.73.702-1.68 1.094-2.47 1.718-1.028.86-2.227 1.465-3.337 2.203-1.256.614-2.304 1.592-3.612 2.11-.52.256-1.116.488-1.414 1.024-.46.813-.313 1.774-.427 2.663 1.726-.906 3.448-1.833 5.216-2.658 1.196-.373 2.03-1.392 3.16-1.9.87-.39 1.653-.95 2.535-1.314.608-.26 1.006-.812 1.507-1.22 1.193-.75 2.432-1.422 3.684-2.07l.09.06c.518-.206 1.053-.36 1.59-.493.99-.407 1.97-.828 2.953-1.24.235.333.684-.283.26-.36-.92.254-1.887.24-2.832.276-1.412-.184-2.825-.433-4.255-.353-.81.64-1.705 1.152-2.65 1.557zM199.52 58.99c-.71.322-1.518.59-1.954 1.29-.678.807-.783 1.895-.743 2.91l-.206 1.094c.513.028 1.125-.205 1.547.21l.487.062c.272.233.545.46.83.68l-.395 1.32-.127-.314-.13.565c.802.348 1.715.42 2.583.48 1.253-.536 2.602-1.094 3.44-2.24.808-.824 1-1.994 1.31-3.06l-.248-.39c-.095-.277-.203-.56-.41-.77-.532-1.06-1.504-1.8-2.562-2.264-1.168-.287-2.28.266-3.418.426zm-3.153 6.71c-1.478.705-3.04 1.186-4.524 1.875l-.004.014c-.76.132-1.335.675-2.026.97-1.877.832-3.632 1.923-5.527 2.708-1.536.757-2.856 1.897-4.444 2.554-1.313.807-2.75 1.365-4.11 2.073l-.41-.09c.348.73.97 1.272 1.387 1.96.5.854.993 1.723 1.318 2.67.066.29.165.57.264.857 1.602-1.198 3.078-2.603 4.865-3.538 1.874-1.018 3.313-2.687 5.217-3.655 1.957-1.238 3.994-2.46 5.447-4.313 1.113-.7 2.16-1.545 2.983-2.586.392-.504.962-.953.972-1.65-.474-.02-.974-.066-1.408.15zm-42.575 2.844c-.12.216-.248.425-.388.628-.726.17-1.468.267-2.188.473-.16.11-.5.158-.32.415.985 1.144 2.19 2.062 3.255 3.123.556.658 1.066 1.358 1.6 2.038.01.32.028.64.047.962.795.952 1.364 2.064 2.052 3.092.885 1.41 1.19 3.078 1.876 4.58.716 1.576 1.144 3.263 1.78 4.87 1.128 2.15 1.452 4.598 2.346 6.84.674 1.556.832 3.273 1.48 4.84.125 1.282.778 2.454.75 3.76.16 1.57-.108 3.158.167 4.72.196 1.06.057 2.138.118 3.21.723-.674 1.45-1.34 2.273-1.89 1.623-1.885 3.35-3.755 4.397-6.05.42-1.013 1.383-1.73 1.565-2.85.297-.68.555-1.378.815-2.074l-.768-.408c-.063-.417-.162-.94.36-1.093.216-2.65-.06-5.325-.85-7.862-.314-1.843-.91-3.623-1.64-5.338-.826-1.902-1.627-3.818-2.64-5.625-1.09-1.49-1.877-3.2-3.16-4.543-1.005-.94-1.74-2.208-3.015-2.826-.553-.712-1.15-1.532-2.076-1.74-1.562-.45-3.11-.955-4.677-1.374-1.052-.11-2.124-.103-3.162.12l.002.002zm11.303 2.026c-.097.256.002.374.3.355.395.304.734.674 1.02 1.086l.01.003c1.6 1.643 3.11 3.407 4.24 5.422.508.978 1.25 1.816 1.656 2.853 1.257 2.802 2.616 5.612 3.154 8.67.224 1.34.614 2.645.895 3.975.26 1.177.18 2.387.207 3.582.595-1.274.927-2.654 1.503-3.937.437-1.302.667-2.68.394-4.042.294-1.615-.006-3.247-.517-4.785l-.102-.01c-.07-.49-.125-.994-.345-1.44-.522-.974-.885-2.025-1.515-2.942-.763-1.576-2.022-2.81-3.278-3.986-.453-.44-.884-1-1.555-1.074-.915-.734-1.847-1.456-2.847-2.066l-.05-.09-.244-.016.185.01c-.854-.453-1.707-.91-2.59-1.295-.076-.296-.25-.39-.523-.27h.003zm-30.626 6.737c-1.58.404-3.234.083-4.82.472-1.94.172-3.78.853-5.593 1.527-1.855.982-3.865 1.593-5.848 2.252-.913.44-1.79.957-2.764 1.258-2.268 1.264-4.806 1.912-7.113 3.1-1.376.75-2.822 1.36-4.223 2.066-3.077 1.106-5.94 2.733-8.656 4.547-.765.48-1.443 1.183-2.383 1.277-.342.344-.67.706-.978 1.085-1.516 1.843-3.526 3.174-5.074 4.986-.136.143-.233.31-.292.498-.746 2.436-1.133 4.956-1.565 7.463-.563 2.578-.72 5.258-.313 7.874.636-1.16 1.847-1.767 2.714-2.714.778-.85 1.727-1.515 2.546-2.32.81-.786 1.817-1.307 2.722-1.964 1.978-1.435 4.206-2.453 6.277-3.735 1.57-.978 3.198-1.863 4.755-2.864.544-.35 1.122-.642 1.71-.905 1.128-.5 2.108-1.27 3.215-1.81 2.158-1.064 4.18-2.384 6.317-3.483 1.792-.62 3.362-1.722 5.062-2.537 1.578-.398 2.912-1.512 4.565-1.64 3.864-.497 7.782-.603 11.662-.203.947.113 1.824.52 2.756.708 4.33.948 8.472 2.85 11.937 5.65.783.557 1.605 1.06 2.302 1.733 1.425 1.108 2.93 2.205 3.933 3.743.5.766 1.275 1.32 1.652 2.172l.4.23c.56.912 1.432 1.603 1.84 2.613.387.943.952 1.81 1.702 2.5-.12-1.207-.666-2.316-.767-3.525-.125-1.673-.908-3.183-1.322-4.784-.464-1.795-.93-3.604-1.704-5.292-.427-.952-.683-1.972-1.18-2.89-.643-1.286-1.62-2.347-2.432-3.52-.75-1.098-1.538-2.172-2.267-3.284-.4-.586-.75-1.234-1.32-1.673-1.182-.94-2.333-1.928-3.36-3.04-.46-.488-.92-1.005-1.542-1.283-1.435-.683-2.473-2.002-3.966-2.58-1.203-.607-2.56-.817-3.725-1.506-1.566-.454-3.26-.618-4.857-.2zM58.715 84.11c-1.6.1-3.204.173-4.792.374l.25.01c-1.14.208-2.248.573-3.382.817-.508.198-1.22.204-1.484.77-.46 1.015-.885 2.048-1.235 3.105-.78 2.79-.957 5.695-1.338 8.557-.13 2.503.466 4.956.75 7.426.163 1.658 1.042 3.12 1.288 4.76.08 1.947.924 3.768.983 5.722.472-.185.97-.275 1.478-.278.256-.094.515-.188.775-.274l.026-.098c2.264-.28 4.554-.706 6.835-.38 1.47.227 2.982-.036 4.43.34 1.03.26 2.106.22 3.13.506 1.93.693 3.534 2.083 5.485 2.76 2.38 1.174 4.557 2.72 6.63 4.376 1.306 1.17 2.405 2.554 3.74 3.692 1.246 1.238 2.02 2.855 3.023 4.288-.027-.983-.352-1.924-.432-2.9-.236-2.293-.708-4.55-1.028-6.83-.152-.952.01-1.95-.27-2.88.08-1.563-.234-3.11-.21-4.67-.018-1.727.15-3.44.255-5.16.235-1.847.89-3.62 1.032-5.48.125-.934.525-1.83.425-2.79.046-.624-.453-1.07-.703-1.59-1.658-3.116-4.386-5.413-6.966-7.72-1.028-1.158-2.432-1.834-3.705-2.664-1.528-.877-3.23-1.356-4.852-2.01-1.24-.508-2.586-.68-3.82-1.21-1.998-.825-4.205-.816-6.317-.568zm-6.362 32.108l.08.096c-.785.15-1.556.364-2.32.586l-.05.54c-1.988 1.724-3.62 3.825-5.124 5.98-.726.895-1.106 2.04-1.958 2.837-.514 1.435-1.664 2.52-2.312 3.893.987-.057 1.984-.317 2.967-.096l.657.073c1.368.194 2.766.282 4.08.75 1.272.514 2.646.773 3.836 1.487 1.902 1.195 3.93 2.35 5.3 4.19.808.954 1.706 1.83 2.47 2.82 1.086 1.657 2.052 3.39 2.888 5.186.665 1.142.95 2.442 1.337 3.696.214.99.286 2.01.645 2.966.1 1.18.276 2.357.296 3.548-.313.79-.17 1.673-.323 2.5-.312 1.836-.85 3.626-1.46 5.382 2.34-.282 4.68-.605 7.037-.72 1.868-.35 3.774-.36 5.653-.636 1.037-.138 2.035-.48 3.052-.73 1.324-.408 2.702-.8 3.795-1.706.666-.077 1.383-.087 1.964-.468.425-.408.783-.885 1.203-1.298.215-1.093.406-2.194.465-3.306.095-2.005.7-3.96.598-5.978.002-1.795-.102-3.596.18-5.376-.095-2.124-.29-4.35-1.307-6.256-.352-1.022-.72-2.04-1.144-3.032-.78-1.44-1.382-2.986-2.4-4.282-.954-1.566-2.513-2.576-3.68-3.952-1.328-1.39-2.812-2.64-4.43-3.672-1.877-1.363-4.092-2.125-6.06-3.335-1.25-.77-2.6-1.476-4.083-1.605-1.71-.08-3.395-.455-5.106-.52-1.337 0-2.68-.07-4.015.04-.915.112-1.81.35-2.73.4v-.002zM40.01 131.286l-.205.484-.24.607c-.5 1.33-1.056 2.658-1.26 4.08-.04.995-.057 2 .034 2.997.166 1.412.166 2.838.4 4.243.013.302.216.612.496.327.425-.33.697-1.31 1.366-.94.743.59 1.724.136 2.54.492 1.78.704 3.494 1.656 4.906 2.966.725.974 1.238 2.118 1.606 3.275.16 1.16.31 2.37-.085 3.506-.156.703-.878 1.005-1.363 1.447-.832.717-1.898 1.034-2.85 1.538 1.276 1.142 2.892 1.754 4.45 2.385 2.214.624 4.328 1.546 6.406 2.53 1.408.692 2.978.97 4.53 1.082.658-.54 1.37-1.08 1.69-1.906.706-1.684 1-3.513 1.153-5.325.08-1.085.432-2.207-.015-3.262-.41-2.128-.9-4.246-1.662-6.275-.85-1.662-1.635-3.37-2.71-4.898-.6-.68-1.153-1.4-1.78-2.058-.666-.696-1.143-1.567-1.9-2.177-1.126-.928-2.19-1.96-3.496-2.63-1.02-.62-2.165-.97-3.258-1.427-1.824-.755-3.787-1.15-5.754-1.234-.996.124-2.03-.14-3 .17v.002zm48.332 8.172c.197 1.555.464 3.12.303 4.695.01 2.395.002 4.797-.27 7.182-.488 2.18-.42 4.44-.872 6.63 1.197.384 2.457 0 3.672-.08 1.7-.218 3.85-.385 4.668-2.184.053-1.04-.432-2.003-.743-2.967-.283-.81-.29-1.72-.754-2.46-1.11-1.885-2.046-3.876-3.268-5.69-.64-1.02-1.148-2.117-1.733-3.167-.362-.64-.498-1.408-1.004-1.958h.002zm-48.4 5.884c-.647.63-1.306 1.25-2.045 1.773l-.01.082c-1.205.622-2.217 1.553-3.172 2.506-1.197.997-2.338 2.06-3.546 3.046-1.29 1.267-2.557 2.557-3.957 3.704-1.51 1.777-3.128 3.46-4.776 5.11-.832.528-1.463 1.306-2.24 1.91-.914.71-1.788 1.47-2.646 2.247-.59.55-1.348.908-1.846 1.56-.276.35-.542.704-.822 1.05.203.255.407.514.604.777l.408-.36.16-.265.132.216c4.052-1.31 7.726-3.53 11.655-5.15l3.77-1.795c2.202-.89 4-2.584 6.283-3.28.81-.27 1.56-.687 2.313-1.084.974-.525 2.01-.927 2.956-1.502 1.56-.856 3.24-1.506 4.695-2.54 1.05-1.095.4-2.718.2-4.016l-.108.044c-.412-.87-.83-1.8-1.672-2.333-1.31-.888-2.7-1.75-4.26-2.08-.703-.095-1.53-.177-2.077.377l.003.002zM7.155 169.17c-.875.418-1.493 1.194-2.253 1.776-1.837 1.49-3.218 3.698-3.305 6.122.075.747.39 1.433.84 2.028 1.067 1.463 3.062 1.78 4.735 1.497 1.3-.237 2.25-1.225 3.354-1.87.506-.322 1.065-.6 1.45-1.077 1.37-1.912 2.528-4.08 2.748-6.466-.102-.205-.22-.398-.353-.58-.18-.468-.516-.85-.85-1.208-.192-.374-.357-.76-.52-1.143-1.967 0-4.05-.01-5.845.92z"/><path d="M105.686 56.046c1.06-.04 2.12-.107 3.17-.26 1.455.38 2.974.318 4.433.686 1.73.117 3.428.464 5.124.808 1.748 1.072 3.84 1.693 5.174 3.352 1.623 1.5 2.62 3.66 2.67 5.88-.365 1.374-1.18 2.968-2.693 3.263-2.27.554-4.382 1.596-6.62 2.25-2.54.825-4.826 2.206-7.047 3.664-1.43.858-2.94 1.577-4.323 2.518-1.22.84-2.535 1.525-3.806 2.282-1.034.736-2 1.564-2.996 2.35-1.95 1.378-4.11 2.393-6.155 3.613-.98.218-1.88.718-2.884.836-2.11.232-4.5.31-6.233-1.14-.95-.578-1.298-1.688-1.946-2.537-.72-.907-.733-2.105-.91-3.198-.153-.933-.024-1.874.11-2.798.124-1.728.997-3.268 1.763-4.776.748-1.672 2.006-3.098 2.374-4.937.968-1.09 1.6-2.44 2.607-3.497.848-.862 1.436-1.95 2.365-2.734 1.803-2.116 4.548-2.915 6.966-4.07 1.965-.678 4.05-.914 6.105-1.134.927-.08 1.815-.425 2.75-.424v.002zm-3.188 1.64c-2.482.373-5 .822-7.28 1.922-1.012.61-2.08 1.12-3.06 1.78-1.317 1.02-2.257 2.433-3.407 3.624-.886 1.042-1.702 2.143-2.585 3.19-.968 1.11-1.21 2.67-2.216 3.753-.566 1.097-.92 2.303-1.363 3.458-.296 1.307-.92 2.558-.782 3.933-.08 1.84.875 3.47 1.814 4.964.884 1.098 2.28 1.55 3.63 1.682.847-.154 1.718-.02 2.563-.197 1.743-.314 3.277-1.272 4.757-2.2 1.826-.964 3.57-2.095 5.19-3.382 1.03-.683 1.982-1.49 3.113-2.002 1.796-1.304 3.78-2.302 5.674-3.45 1.59-.822 3.036-1.906 4.72-2.544 1.333-.824 2.853-1.204 4.236-1.923.885-.424 1.887-.522 2.764-.974.99-.482 2.116-.554 3.116-1.006 1.082-.644 1.497-2.073 1.205-3.263-.085-1.206-.894-2.138-1.467-3.14-1.594-1.704-3.708-2.816-5.885-3.57-1.986-.515-4.037-.662-6.05-1.023-1.466-.272-2.96-.075-4.436-.146-1.443-.063-2.81.57-4.252.515z"/><path d="M96.89 61.764c.227-.37.454-.886.986-.714.645.535 1.266 1.11 2.015 1.506 1.293.79 2.5 1.734 3.555 2.827l.35-.013c.253-.663.406-1.356.596-2.04.21-.563.877-.33 1.325-.328l.197.475c.002 1.395 1.105 2.35 1.705 3.5 1.22-.675 1.65-2.125 2.31-3.274.46-.75.202-1.9 1.005-2.417.5-.057.8.428 1.06.776.65.97 1.498 1.78 2.19 2.72.336-.37.787-.71.85-1.248.127-.445.03-.992.384-1.34.567-.202 1.132.12 1.668.278 1.33.524 2.718.918 3.954 1.657.506.34 1.136.343 1.68.585.206.295.174.678.242 1.02-1.21.56-2.228-.522-3.306-.922-1.06-.37-2.065-.876-3.14-1.202-.437.923-1.17 1.644-1.748 2.474-.23.347-.612.598-1.038.514-.254-.417-.42-.88-.686-1.285-.495-.8-1.257-1.365-1.923-2.007-.445 1.023-.835 2.07-1.278 3.093-.375.95-1.298 1.54-1.628 2.52-.447.148-.922.29-1.327-.04-.203-1.302-.84-2.545-1.83-3.415-.12.592-.245 1.185-.338 1.783-.325.15-.69.404-1.052.214l-1.49-1.68c-.922-.81-1.958-1.487-3.032-2.073.44 1.752.99 3.597.608 5.41.134 1.018.41 2.01.598 3.015.13.576-.576.794-1.012.66-.76-.18-1.538-.117-2.3-.215-.633-.253-1.257-.54-1.936-.653.024.627.488 1.072.723 1.62.212.605.22 1.255.377 1.875.046.315.167.66-.002.96-.372.24-.854.373-1.27.165-1.028-.406-2.127-.532-3.204-.74.56.944 1.363 1.71 1.917 2.653.34.464-.148 1.127-.675 1.065-1.407-.117-2.817.013-4.224-.108-.267 1.345-.904 2.57-1.16 3.92-.412-.08-.954.126-1.252-.257-.466-.417.072-1.018.188-1.49.48-.965.496-2.073.89-3.057 1.082-1.174 2.755-.16 4.097-.374-.33-1.05-1.257-1.655-1.888-2.478-.4-.548.106-1.03.515-1.352 1.55.287 3.193.23 4.66.888-.11-1.362-1.003-2.462-1.327-3.76.313-.25.612-.523.957-.726.59-.145 1.15.133 1.69.332.862.342 1.797.415 2.714.466-.446-1.79-.1-3.642-.37-5.443-.523-1.44-.987-2.905-1.57-4.323zM157.826 70.855c.654-.943 2.317-.947 2.766.203.686-.03 1.483-.143 1.97.477.686 1.264 1.814 2.44 1.735 3.982.058.73-.53 1.275-1.06 1.67-.807.54-1.816 1.006-2.794.702-1.206-.41-1.91-1.586-2.45-2.67-.685-1.34-.713-2.97-.166-4.366zm1.165 1.213c-.29 1.606.283 3.47 1.757 4.294.465.33 1.02-.01 1.475-.18-.934-1.47-1.82-3.043-3.23-4.114zm1.312.026c.873.815 1.608 1.766 2.52 2.534-.323-.697-.7-1.375-1.17-1.98-.308-.44-.88-.452-1.35-.554zM164.14 81.453c.863-.468 2.02-.348 2.576.535.955.23 1.75.886 2.247 1.73.712 1.29 1.455 2.578 1.826 4.02-.43 1.014-1.247 1.766-2.085 2.434-.987.036-2.19.098-2.866-.777-.86-1.13-1.765-2.335-1.964-3.787-.273-.995-.385-2.022-.218-3.046.17-.364.328-.735.483-1.108zm.876 1.506c-.51 1.804.39 3.57 1.374 5.024.438.51 1.118.695 1.717.94-.046-2.037-1.154-3.79-2.26-5.408l.653-.015c.457.58.962 1.125 1.457 1.676.65.753.75 1.825 1.428 2.554-.248-.997-.922-1.8-1.334-2.723-.557-1.172-1.596-1.984-2.69-2.61-.135.175-.247.365-.344.563zM169.303 94.223c1.36-.116 2.49.82 3.514 1.595.8.623.438 1.707.653 2.565.086 1.048.15 2.35-.767 3.07-.775.557-1.624 1.2-2.633 1.118-1.332.174-2.202-1.164-2.486-2.306-.616-1.605-.34-3.448.51-4.91.312-.448.677-.95 1.21-1.13zm1.508 1.787c.237.736.618 1.418.82 2.165.1.692.05 1.4.055 2.098l.328-.154c.487-1.426.375-3.453-1.203-4.11zm-1.15 5.38c.274-.315.69-.587.732-1.047.356-1.482-.19-3.002-1.066-4.19-1.292 1.476-1.132 3.932.333 5.238zM51.09 118.85c1.446-.247 2.973-.45 4.4-.003 1.053.447 2.248.82 2.964 1.784.393.79.573 1.694.553 2.578.02.824-.477 1.525-.837 2.227-.322.663-1.04.924-1.618 1.298-1.78.37-3.636-.113-5.187-1.027-1.007-.464-1.857-1.202-2.545-2.073l.027-.526-.44-.242c.32-.786.044-1.67.4-2.442.693-.624 1.47-1.13 2.285-1.575zm1.26.92c-1.106.424-2.31.93-2.977 1.977.237.206.474.416.72.616.574-.748 1.362-1.28 2.095-1.856.64-.514 1.495-.434 2.26-.535-.69-.112-1.405-.503-2.1-.203zm-1.267 3.872c.366.515.976.755 1.52 1.03.907.42 1.875.836 2.896.75.863-.043 1.636-.717 1.82-1.57.34-.74.313-1.654-.3-2.237-1.25-.178-2.553-.47-3.793-.16-.795.63-1.672 1.26-2.143 2.187zM64.903 128.705c2.222-1.534 5.28-1.057 7.44.357 1.15.763 1.94 1.924 2.74 3.026.74 1.078.64 2.456.613 3.7-.447 1.143-.85 2.402-1.895 3.14-.696.623-1.683.833-2.575.565-1.073-.376-2.18-.746-3.072-1.482-.873-.69-1.318-1.793-2.24-2.43-.114-.23-.19-.488-.402-.64-.982-.79-1.466-2.003-1.833-3.175-.093-1.16.233-2.38 1.226-3.06zm.273 1.974c1.24-.4 2.53-.515 3.81-.677 1.574.35 3.178.937 4.332 2.122-.595-.74-1.17-1.53-1.978-2.047-1.34-.884-3.022-1.262-4.6-.962-.67.335-1.23.883-1.564 1.563zm.765 1.156c-.94.455-.1 1.576.38 2.085l.075.485c.593.207 1.132.554 1.474 1.1.995 1.42 2.573 2.472 4.313 2.592 1.333-.4 1.887-2.015 1.886-3.294-1.446-1.403-2.9-3.114-5.014-3.385-1.038-.04-2.173-.1-3.113.42l-.002-.002zM74.794 148.463c1.063-.864 2.423-1.425 3.8-1.352.977.254 2.115.587 2.55 1.61 1.645 2.998.438 7.3-2.596 8.89-.974.607-2.183.744-3.298.548-1.167-.288-2.058-1.358-2.272-2.532-.17-.914.053-1.835.28-2.717.34-1.526.356-3.273 1.535-4.448zm2.78.038c1.162 2.083 1.365 4.496 1.587 6.826.872-.937 1.374-2.188 1.36-3.475-.054-1.103-.255-2.313-1.133-3.07-.6-.127-1.2-.26-1.81-.28h-.002zm-2.573 2.52c-.28.89-.2 1.85-.512 2.734-.59 1.25.485 3.12 1.93 2.94.373-.42.773-.814 1.193-1.182.145-2.22-.17-4.558-1.366-6.466-.567.54-1.073 1.187-1.243 1.972z"/></g><g stroke-width=".094" stroke="#F8B059" fill="#F8B059"><path d="M20.733 4.51c.452-1.447 1.734-2.574 3.193-2.893 1.604-.305 3.177.364 4.582 1.078 1.72 1.2 3.49 2.648 4.098 4.768l.034.21c-1.845.45-3.405-.893-5.032-1.498-1.108-.193-2.142-.66-3.237-.89-1.178.126-2.233.82-3.445.82-.076-.527-.31-1.06-.192-1.596zM199.52 58.99c1.138-.16 2.25-.71 3.42-.424 1.056.464 2.03 1.204 2.56 2.263-.948-.405-2.007-.814-3.04-.515-1.02.297-2.155.51-2.92 1.315-.507.488-.905 1.09-1.484 1.498-.39.15-.828.042-1.233.06-.04-1.013.066-2.102.743-2.907.437-.7 1.246-.968 1.955-1.29zM189.814 68.56c.69-.295 1.265-.838 2.025-.97-.23 1.058-.912 2.035-1.94 2.43-1.407.55-2.797 1.153-4.152 1.825-1.205.588-2.103 1.652-3.312 2.233-.85.41-1.78.6-2.638.997-.722.308-1.385.76-2.147.966-.638.168-1.29-.01-1.916-.146 1.36-.708 2.796-1.266 4.11-2.073 1.587-.655 2.907-1.795 4.443-2.553 1.895-.785 3.65-1.876 5.527-2.708zM165.394 70.924l.224-.086c.884.386 1.737.843 2.59 1.294l-.184-.008c-.533-.028-1.067-.07-1.6-.112l-.01-.002c-.285-.412-.624-.782-1.02-1.086zM168.32 72.23c1 .61 1.93 1.333 2.846 2.067-1.24-.11-2.406-.858-2.847-2.066zM39.805 131.77l.205-.484c.7.047 1.396-.026 2.09-.092-.327 1.08-.763 2.122-1.2 3.16-.574 1.364-.657 2.86-1.074 4.27-.228.756-.303 1.545-.304 2.332.02.978-.485 1.84-.782 2.742-.233-1.405-.233-2.83-.4-4.243-.092-.997-.073-2.002-.035-2.998.203-1.42.76-2.75 1.26-4.08l.24-.606zM34.716 149.703c.955-.953 1.967-1.884 3.173-2.506-.086.67-.124 1.396-.523 1.97-.497.703-1.28 1.122-1.813 1.792-.538.668-1.046 1.374-1.72 1.917-.777.636-1.616 1.196-2.32 1.92-.93.943-2.12 1.558-3.114 2.422-.574.493-1.153.99-1.814 1.368-1.51.81-2.594 2.23-4.15 2.975 1.65-1.65 3.267-3.332 4.777-5.11 1.4-1.146 2.666-2.435 3.956-3.704 1.207-.987 2.348-2.05 3.545-3.047zM7.154 169.17c1.797-.932 3.878-.92 5.845-.923.162.385.327.77.518 1.144-.77.476-1.635.775-2.543.786-1.314.073-2.468.76-3.648 1.276-.694.33-1.467.6-1.974 1.213-.542.682-.84 1.533-1.434 2.18-.732.785-1.48 1.563-2.327 2.222.087-2.423 1.468-4.633 3.306-6.122.76-.58 1.378-1.357 2.253-1.777z"/></g><g stroke-width=".094" stroke="#F6941E" fill="#F6941E"><path d="M20.925 6.105c1.212 0 2.267-.693 3.446-.82 1.096.23 2.13.697 3.238.89 1.627.605 3.187 1.95 5.032 1.5l.26 1.922c-1.213.918-2.22 2.436-3.88 2.464-1.185.058-2.42.048-3.532-.43-.898-.374-1.798-.752-2.656-1.216-1.146-1.14-1.434-2.82-1.906-4.31zM102.5 57.685c1.442.055 2.808-.577 4.25-.514 1.476.07 2.97-.125 4.435.147 2.015.36 4.065.51 6.05 1.022 2.178.754 4.292 1.866 5.886 3.57.575 1.002 1.384 1.934 1.47 3.14.29 1.19-.123 2.62-1.207 3.264-1 .452-2.124.524-3.115 1.005-.877.45-1.88.55-2.764.973-1.383.718-2.903 1.1-4.236 1.923-1.684.637-3.13 1.722-4.72 2.545-1.894 1.148-3.878 2.147-5.675 3.45-1.13.515-2.083 1.32-3.113 2.003-1.62 1.287-3.363 2.418-5.19 3.38-1.48.93-3.013 1.887-4.756 2.202-.845.176-1.716.043-2.563.197-1.35-.13-2.745-.584-3.63-1.682-.94-1.494-1.894-3.125-1.814-4.964-.14-1.375.485-2.626.782-3.933.442-1.155.796-2.36 1.362-3.458 1.006-1.085 1.247-2.642 2.216-3.754.883-1.045 1.7-2.146 2.586-3.188 1.15-1.19 2.09-2.603 3.407-3.625.978-.66 2.047-1.17 3.057-1.78 2.28-1.1 4.8-1.548 7.282-1.922zm-5.61 4.08c.58 1.416 1.045 2.88 1.568 4.322.27 1.8-.076 3.653.37 5.443-.916-.05-1.85-.124-2.712-.466-.54-.2-1.1-.477-1.69-.332-.346.203-.644.477-.958.725.324 1.298 1.218 2.398 1.326 3.76-1.465-.658-3.108-.6-4.66-.887-.407.32-.914.804-.513 1.352.632.823 1.56 1.43 1.888 2.477-1.343.213-3.017-.8-4.096.373-.397.984-.41 2.092-.892 3.057-.116.472-.654 1.073-.188 1.49.3.383.84.177 1.252.257.256-1.35.894-2.575 1.16-3.92 1.407.12 2.818-.01 4.224.108.528.062 1.015-.6.676-1.065-.555-.943-1.358-1.71-1.917-2.652 1.076.207 2.175.334 3.204.74.417.207.897.074 1.27-.165.17-.3.05-.646.002-.96-.157-.62-.165-1.27-.377-1.877-.235-.547-.698-.992-.722-1.62.678.113 1.302.4 1.936.654.76.098 1.54.034 2.298.214.437.134 1.142-.083 1.012-.66-.186-1.006-.464-1.996-.597-3.014.38-1.813-.17-3.658-.608-5.41 1.073.585 2.11 1.26 3.03 2.073l1.49 1.68c.363.19.727-.065 1.052-.215.093-.598.218-1.19.34-1.783.988.87 1.626 2.113 1.83 3.415.403.33.878.19 1.325.04.33-.982 1.253-1.57 1.628-2.52.443-1.026.832-2.07 1.278-3.094.665.642 1.427 1.207 1.923 2.007.265.406.433.868.687 1.285.425.085.81-.167 1.037-.514.578-.83 1.31-1.55 1.75-2.473 1.073.327 2.08.834 3.138 1.203 1.078.4 2.097 1.482 3.306.922-.068-.342-.036-.725-.242-1.02-.544-.242-1.173-.246-1.68-.586-1.237-.74-2.624-1.134-3.953-1.658-.536-.16-1.1-.48-1.67-.28-.353.35-.255.898-.383 1.342-.063.537-.514.877-.85 1.25-.69-.942-1.538-1.752-2.19-2.722-.26-.348-.56-.833-1.06-.776-.803.518-.544 1.666-1.004 2.417-.66 1.148-1.09 2.598-2.31 3.275-.6-1.15-1.704-2.107-1.706-3.5l-.197-.476c-.448-.002-1.113-.236-1.323.33-.19.682-.344 1.374-.598 2.038l-.35.013c-1.054-1.094-2.26-2.04-3.553-2.827-.75-.396-1.37-.97-2.016-1.506-.53-.172-.758.346-.987.714h.002zM202.458 60.315c1.034-.3 2.093.11 3.042.514.207.208.315.493.41.77l.075.42c-.694.715-1.37 1.46-1.77 2.392-.653 1.383-2.41 1.086-3.538 1.786-.484.164-.993.768-1.507.477l-.085-.118c.104-.45.288-.872.396-1.32-.285-.22-.558-.446-.83-.68l-.486-.06c-.422-.416-1.034-.182-1.547-.21l.206-1.095c.404-.02.843.087 1.233-.062.578-.407.976-1.01 1.483-1.497.765-.804 1.9-1.018 2.92-1.315l-.002-.003zM196.367 65.7c.434-.217.935-.17 1.41-.15-.01.697-.582 1.146-.973 1.65-.822 1.043-1.87 1.886-2.982 2.587-4.278 1.486-7.568 4.763-11.36 7.123-1.568 1.013-3.316 1.967-4.194 3.72l-.24-.195c-.324-.946-.818-1.814-1.318-2.67-.417-.687-1.04-1.228-1.387-1.96l.41.09c.626.135 1.28.315 1.918.148.764-.207 1.427-.658 2.148-.967.856-.395 1.788-.585 2.638-.996 1.208-.58 2.107-1.645 3.312-2.233 1.355-.67 2.745-1.275 4.153-1.825 1.03-.395 1.71-1.373 1.94-2.43l.003-.016c1.483-.688 3.046-1.17 4.524-1.873V65.7zM166.426 72.012c.53.04 1.065.083 1.6.112l.245.014.05.092c.44 1.208 1.607 1.957 2.846 2.066.672.072 1.1.632 1.555 1.073 1.257 1.176 2.518 2.41 3.28 3.986.63.918.993 1.967 1.514 2.942.22.446.276.948.345 1.438l.1.013c.51 1.537.812 3.168.518 4.783.273 1.362.042 2.74-.394 4.042-.576 1.284-.908 2.663-1.503 3.938-.026-1.195.054-2.406-.206-3.582-.282-1.33-.672-2.635-.896-3.976-.538-3.056-1.897-5.866-3.153-8.668-.407-1.038-1.148-1.876-1.656-2.853-1.13-2.015-2.642-3.78-4.24-5.423l-.004.002zM40.01 131.286c.97-.31 2.004-.047 3-.17 1.967.082 3.93.478 5.754 1.233 1.093.457 2.237.807 3.258 1.425 1.306.67 2.37 1.702 3.495 2.63.758.61 1.235 1.48 1.9 2.178.628.657 1.18 1.378 1.782 2.058 1.073 1.53 1.856 3.237 2.708 4.9.763 2.03 1.252 4.146 1.663 6.274.09.774.047 1.553-.003 2.327-.788-.043-1.618-.013-2.34-.384-.9-.463-1.796-.954-2.79-1.187-.885-.212-1.694-.638-2.543-.953-.84-.312-1.756-.22-2.622-.395-.602-.21-1.07-.704-1.69-.867-.646-.173-1.3-.308-1.927-.54-.37-1.156-.88-2.3-1.606-3.274-1.413-1.31-3.127-2.262-4.906-2.966-.818-.355-1.798.1-2.54-.492-.67-.368-.94.61-1.368.94-.28.285-.482-.025-.495-.326.297-.9.804-1.765.782-2.743.002-.787.077-1.576.305-2.33.417-1.41.5-2.908 1.074-4.27.438-1.04.873-2.08 1.202-3.16-.694.065-1.39.138-2.09.09l-.002.003z"/><path d="M39.943 145.343c.546-.554 1.374-.473 2.075-.38 1.564.33 2.95 1.195 4.26 2.083.842.532 1.262 1.463 1.673 2.333-1.54.48-2.577 1.774-3.816 2.73-1.19.862-2.232 1.912-3.41 2.796-1.506 1.373-3.35 2.264-5.15 3.174-1.81 1.007-3.502 2.23-5.396 3.086-1.09.498-1.99 1.328-3.07 1.85-1.642.828-3.3 1.67-5.08 2.155-1.035.268-1.92.9-2.914 1.275-1.135.45-2.406.922-3.058 2.04l-.16.264-.41.36c-.196-.264-.4-.523-.603-.778.28-.346.546-.7.822-1.05.497-.653 1.256-1.01 1.847-1.56.858-.778 1.733-1.537 2.647-2.245.774-.605 1.406-1.384 2.238-1.912 1.555-.746 2.64-2.164 4.15-2.975.66-.38 1.238-.875 1.813-1.37.996-.863 2.184-1.48 3.114-2.422.705-.723 1.543-1.284 2.32-1.92.675-.543 1.182-1.248 1.72-1.918.534-.67 1.316-1.09 1.814-1.79.398-.575.437-1.3.522-1.972l.008-.08c.74-.525 1.398-1.145 2.047-1.774h-.002zM13.52 169.392c.334.36.67.74.85 1.208l.187.69c-.644.72-.926 1.66-1.282 2.542-.53 1.31-1.86 1.946-2.81 2.895-.655.71-1.625.918-2.424 1.408-.655.385-1.345.744-2.106.854-1.162.255-2.342-.228-3.5.106-.45-.595-.765-1.28-.84-2.028.847-.658 1.595-1.437 2.326-2.223.593-.645.89-1.497 1.434-2.18.506-.613 1.28-.883 1.974-1.212 1.18-.515 2.334-1.204 3.647-1.276.91-.01 1.775-.31 2.544-.785z"/></g><g stroke-width=".094" stroke="#7D4B0F" fill="#7D4B0F"><path d="M32.606 7.463l-.036-.246c.394.96.437 2.013.572 3.03.147.856-.29 1.67-.813 2.304-.582.362-1.272.476-1.92.66-.42-.34-.855-.764-1.44-.713-.55.288-.43.956-.438 1.473-1.083-.098-2.1-.494-3.114-.85-1.253-.41-1.9-1.674-2.585-2.706.858.464 1.758.842 2.656 1.215 1.11.478 2.346.488 3.53.43 1.66-.026 2.667-1.545 3.882-2.463l-.26-1.923-.035-.21zM205.91 61.6l.248.39c-.312 1.066-.502 2.236-1.31 3.06-.837 1.145-2.187 1.703-3.44 2.24-.867-.06-1.78-.132-2.582-.48l.13-.565.127.312.085.118c.515.29 1.023-.313 1.508-.477 1.126-.7 2.884-.403 3.537-1.786.4-.93 1.076-1.677 1.77-2.392l-.074-.42zM182.463 76.91c3.79-2.36 7.08-5.637 11.36-7.124-1.454 1.855-3.492 3.076-5.448 4.312-1.904.97-3.343 2.637-5.217 3.655-1.788.935-3.264 2.34-4.865 3.538-.1-.284-.2-.566-.264-.857l.238.194c.88-1.752 2.626-2.705 4.196-3.72v.002zM47.95 149.38l.11-.046c.2 1.298.85 2.922-.2 4.015-1.456 1.034-3.138 1.685-4.696 2.54-.947.576-1.982.978-2.957 1.502-.754.396-1.503.813-2.312 1.085-2.284.695-4.082 2.39-6.282 3.28l-3.77 1.794c-3.93 1.622-7.604 3.84-11.655 5.15l-.13-.215c.65-1.117 1.922-1.59 3.057-2.04.993-.373 1.88-1.006 2.915-1.274 1.78-.484 3.437-1.325 5.08-2.153 1.078-.522 1.978-1.352 3.07-1.85 1.893-.855 3.585-2.08 5.394-3.087 1.8-.91 3.645-1.8 5.15-3.173 1.178-.884 2.22-1.934 3.41-2.796 1.24-.955 2.276-2.25 3.818-2.73z"/><path d="M49.654 149.817c.626.232 1.28.366 1.927.54.622.162 1.09.656 1.69.866.868.176 1.782.083 2.623.396.85.313 1.658.74 2.543.95.994.234 1.89.726 2.79 1.188.723.37 1.552.34 2.34.385.05-.774.093-1.553.004-2.327.447 1.055.095 2.177.015 3.262-.153 1.81-.447 3.64-1.153 5.324-.32.825-1.03 1.366-1.69 1.905-1.552-.113-3.12-.39-4.53-1.082-2.078-.984-4.19-1.906-6.405-2.53-1.56-.63-3.175-1.242-4.452-2.384.953-.504 2.018-.82 2.85-1.537.486-.443 1.208-.744 1.363-1.448.394-1.135.243-2.344.085-3.505v-.003zM14.37 170.6c.132.182.25.375.352.58-.22 2.385-1.378 4.553-2.75 6.466-.383.477-.942.755-1.448 1.078-1.105.644-2.055 1.632-3.354 1.87-1.673.283-3.668-.035-4.736-1.498 1.16-.334 2.338.15 3.5-.107.76-.11 1.45-.47 2.108-.855.8-.49 1.77-.697 2.423-1.408.95-.95 2.28-1.587 2.81-2.895.357-.88.64-1.82 1.283-2.54l-.19-.692z"/></g><path stroke="#0C0606" stroke-width=".094" opacity=".81" fill="#0C0606" d="M31.357 16.737c-.658-.182.205-.85.256-.18l-.08.17-.177.01z"/><g stroke-width=".094" stroke="#99987D" fill="#99987D"><path d="M31.356 16.737l.178-.01 2.642 2.87c.67.482 1.128 1.173 1.514 1.894.504-.04 1.01-.043 1.516-.05 1.042 0 2.02-.415 2.97-.81 1.118-.472 2.194-1.053 3.162-1.796 1.007 1.988 1.334 4.214 2.026 6.317.248.88.32 1.8.617 2.666.216.494.534.936.787 1.413.77.042 1.74-.024 2.147-.805.63-1.052 1.43-1.995 1.966-3.103.546-1.102 1.293-2.083 1.85-3.178 1.195.04 1.915-1.06 2.73-1.765l.196.784c.432 2.41-.098 4.88.254 7.304.2 1.234-.045 2.516.352 3.718 1.414 1.696 3.064 3.174 4.437 4.91.742.963 1.765 1.658 2.462 2.664 1.222 1.416 2.247 2.994 3.524 4.36.8 1.35 1.864 2.504 2.836 3.725 1.18 1.123 2.365 2.288 3.202 3.71-.267.638-1.002.946-1.58 1.267-.246-.627-.55-1.237-1.016-1.726-2.245-2.6-4.378-5.296-6.663-7.857-.86-1.053-1.483-2.295-2.472-3.237-.82-.89-1.495-1.908-2.368-2.75-.82-.88-1.817-1.586-2.534-2.567-.51-.704-1.248-1.215-1.708-1.96-.074-.58-.042-1.17-.137-1.75-.21-1.124.06-2.257.038-3.39.09-1.5.002-3.006.09-4.51l-.617-.343c-.248.21-.56.37-.733.654-1.73 3.56-3.482 7.124-5.594 10.476-1.043-1.208-2.04-2.496-2.572-4.027-.287-.804-.612-1.6-.756-2.447-.263-1.552-1.302-2.893-1.264-4.51.02-.663-.328-1.238-.657-1.782l-.67.022-.71.905c-.78-.637-1.73-.197-2.57.027-1.19.3-2.09 1.22-3.246 1.61-.555-1.18-1.41-2.183-1.932-3.378-.55-1.19-1.067-2.396-1.696-3.546zM112.95 50.12c1.34.284 2.644.707 3.953 1.11 1.326.275 2.607.754 3.797 1.402.8.582 1.68 1.038 2.546 1.51 1.624.835 2.923 2.16 4.4 3.22.816.82 1.515 1.762 2.386 2.537 1.283 1.138 2.24 2.583 3.287 3.934 1.62 1.98 3.02 4.134 4.267 6.37 1.152 2.302 2.4 4.565 3.23 7.016l.563-.15c-.028-.992.162-2.078-.38-2.966-.762-1.588-1.535-3.17-2.26-4.776-1.632-3.08-3.832-5.798-6.113-8.406-1.894-1.803-3.53-3.86-5.494-5.59-1.22-1.254-2.92-1.843-4.2-3.017 1.17.252 2.264.765 3.43 1.033 1.507.343 2.62 1.516 3.998 2.156 1.443.687 2.418 2.045 3.85 2.742.778.396 1.524.863 2.215 1.405.957.75 2.092 1.27 2.923 2.183.572.563.966 1.3 1.618 1.78.947.53 1.998.857 3.058 1.07 1.347 1.46 2.566 3.038 3.953 4.46 1.1.888 1.9 2.073 2.933 3.03.694.796 1.663 1.295 2.31 2.138 1.282 1.64 2.015 3.626 3.29 5.27 1.616 2.6 2.35 5.616 3.408 8.464 1.967 3.8 2.726 8.057 4.015 12.102.13.806.348 1.596.54 2.388.223 1.387.236 2.798.23 4.2.15 1.413.41 2.826.36 4.255-.066.91-.202 1.815-.244 2.73l-.288-.01c-.108-1.052-.265-2.103-.513-3.13-.327-1.278-.117-2.677-.766-3.87-.086-1.42-.754-2.692-1.078-4.05-.25-1.81-.94-3.514-1.506-5.238-.506-1.493-.947-3.035-1.85-4.344-.738-1.37-1.854-2.47-2.667-3.788-.38-.592-.782-1.17-1.19-1.74-1.015-1.382-2.34-2.475-3.5-3.724-1.32-1.268-2.964-2.133-4.25-3.44-.814-.658-1.81-1.024-2.724-1.51-1.52-.834-3.158-1.415-4.79-1.982-.885-.305-1.505-1.163-2.44-1.326-1.372-.36-2.66.498-4.034.44-1.436-.06-2.802.485-4.23.45-.95.043-1.818.477-2.742.66-.877.172-1.64.655-2.46.985-2.238.718-4.31 1.863-6.567 2.53-1.447.24-2.65 1.14-4.068 1.463-.925.25-1.75.757-2.644 1.077-1.386.48-2.683 1.227-3.787 2.198-.65.812-1.704.887-2.577 1.315-.876.42-1.865.526-2.723.995-1.396.746-2.85 1.38-4.25 2.11-1.238.818-2.572 1.503-3.682 2.5-.703.585-1.61.912-2.147 1.69-1.44 1.856-3.63 2.868-5.188 4.595-.74-1.213-1.574-2.364-2.33-3.566-1.47-1.934-3.362-3.47-5.206-5.023-1.762-1.782-3.998-2.98-6.27-3.974-2.29-1.328-4.842-2.055-7.337-2.876-1.287-.083-2.547-.446-3.847-.32-1.63-.108-3.222.33-4.846.243-.913.02-1.814.21-2.726.228-1.2.043-2.287.594-3.418.94.104-.138.197-.285.313-.41 1.434-.393 2.88-.818 4.378-.844.707-.01 1.516-.146 1.896-.83 1.422-2.314 3.025-4.502 4.524-6.76.903-1.307 2.362-2.032 3.38-3.225.69-.865 1.852-1.07 2.622-1.84.864-.846 2.133-1.055 2.982-1.922.87-.89 1.99-1.43 2.993-2.14 1.146-.987 2.398-1.834 3.604-2.74 1.995-1.18 4.193-1.964 6.156-3.2 1.185-.653 2.39-1.262 3.52-2.01 1.752-1.114 3.815-1.59 5.55-2.737 1.247-.797 2.65-1.297 3.947-2.003 1.278-.69 2.732-.864 4.132-1.147 1.373-.278 2.77-.408 4.163-.552 1.506-.14 2.86-.91 4.352-1.115 1.418-.2 2.857-.29 4.257-.633zm-7.264 5.926c-.934-.002-1.82.344-2.75.424-2.054.22-4.14.455-6.103 1.133-2.42 1.155-5.164 1.955-6.966 4.07-.93.786-1.516 1.872-2.364 2.735-1.008 1.06-1.64 2.408-2.607 3.496-.368 1.84-1.627 3.267-2.374 4.94-.766 1.506-1.64 3.047-1.762 4.775-.135.922-.265 1.863-.112 2.797.178 1.093.19 2.29.91 3.197.65.85.996 1.96 1.947 2.54 1.733 1.447 4.123 1.37 6.233 1.137 1.004-.116 1.9-.617 2.883-.836 2.044-1.22 4.207-2.235 6.156-3.612.996-.787 1.96-1.615 2.995-2.35 1.27-.757 2.586-1.442 3.806-2.282 1.383-.94 2.894-1.66 4.323-2.52 2.22-1.46 4.51-2.838 7.046-3.663 2.24-.654 4.35-1.696 6.62-2.25 1.513-.296 2.33-1.89 2.693-3.264-.05-2.22-1.048-4.38-2.67-5.88-1.334-1.657-3.427-2.28-5.174-3.352-1.696-.343-3.395-.69-5.125-.807-1.458-.368-2.977-.305-4.432-.684-1.05.15-2.11.22-3.17.258l-.002-.002z"/><path d="M58.716 84.11c2.112-.248 4.32-.257 6.318.57 1.233.53 2.58.7 3.82 1.21 1.62.652 3.324 1.13 4.85 2.008 1.274.83 2.678 1.506 3.707 2.665 2.58 2.306 5.31 4.603 6.967 7.72.25.52.75.965.703 1.59.1.96-.3 1.855-.425 2.79-.14 1.86-.797 3.632-1.032 5.48-.106 1.72-.273 3.432-.256 5.158-.036.957-.188 1.903-.254 2.856-.053.642.26 1.226.464 1.816.28.93.12 1.928.27 2.88.32 2.28.793 4.537 1.03 6.83.08.976.403 1.917.43 2.9-1-1.433-1.776-3.05-3.023-4.288-1.334-1.138-2.433-2.522-3.738-3.692-2.074-1.656-4.25-3.202-6.63-4.376-1.952-.676-3.555-2.066-5.487-2.76-1.024-.284-2.1-.245-3.13-.505-1.448-.376-2.96-.112-4.43-.34-2.28-.327-4.57.1-6.834.38.562-1.53.117-3.16.2-4.738.135-1.554-.74-2.95-.743-4.49-.015-1.372-.46-2.672-.73-4-.227-2.116-.62-4.233-.495-6.37.035-.68.324-1.303.578-1.92.417-.976.505-2.075 1.048-3 .693-1.193 1.1-2.528 1.834-3.697.45-.74.88-1.49 1.314-2.237-.29-.02-.578-.043-.867-.053l-.25-.01c1.587-.202 3.192-.275 4.79-.375zM52.35 119.77c.694-.3 1.408.09 2.098.202-.764.1-1.62.02-2.26.535-.732.575-1.52 1.108-2.094 1.856-.246-.2-.483-.41-.72-.616.667-1.046 1.87-1.553 2.976-1.978zM65.176 130.68c.335-.68.892-1.23 1.564-1.564 1.578-.3 3.26.078 4.6.962.81.518 1.383 1.307 1.978 2.047-1.154-1.185-2.758-1.773-4.332-2.122-1.28.163-2.57.276-3.81.676zM77.575 148.5c.612.02 1.21.153 1.81.28.88.757 1.08 1.967 1.133 3.07.015 1.29-.487 2.54-1.357 3.476-.222-2.33-.425-4.744-1.586-6.825z"/></g><g stroke-width=".094" stroke="#B3B39F" fill="#B3B39F"><path d="M40.072 19.964c.996-.69 1.807-1.64 2.915-2.167l.35 1.037c-.966.743-2.042 1.324-3.16 1.795-.95.395-1.928.81-2.97.81.864-.667 1.923-.957 2.866-1.476zM52.73 22.144c.83-1.286 1.725-2.537 2.818-3.61.044.876.03 1.755.108 2.63l-.197-.785c-.815.704-1.535 1.804-2.73 1.764zM103.348 49.816c1.277-.026 2.526-.32 3.8-.39 1.1.143 2.22-.33 3.297.036.826.257 1.677.413 2.505.658-1.4.343-2.838.433-4.257.633-1.493.206-2.847.975-4.352 1.115-1.39.143-2.788.274-4.163.552-1.4.283-2.855.456-4.132 1.147-1.298.705-2.7 1.206-3.948 2.004-1.734 1.147-3.797 1.624-5.548 2.74-1.132.746-2.338 1.355-3.52 2.008-1.964 1.236-4.163 2.02-6.158 3.2-1.206.906-2.457 1.753-3.603 2.74-1.003.71-2.125 1.25-2.993 2.14-.85.867-2.118 1.076-2.982 1.923-.77.77-1.935.975-2.622 1.84-1.02 1.192-2.478 1.917-3.38 3.224-1.5 2.258-3.103 4.447-4.526 6.76-.38.684-1.188.82-1.896.83-1.496.026-2.942.45-4.376.845.912-1.748 2.11-3.314 3.382-4.802.996-.993 2.038-1.936 3.004-2.96 1.85-1.698 3.787-3.32 5.4-5.26 1.176-1.025 2.29-2.143 3.615-2.975.376-.297.876-.126 1.313-.15.104-.387.2-.774.296-1.16 2.107-1.105 4.173-2.29 6.297-3.367 2.943-1.77 5.975-3.39 9.058-4.9 2.037-1.29 4.373-1.95 6.517-3.025.436-.692 1.27-.866 1.913-1.293 1.18-.748 2.533-1.144 3.808-1.694 1.294-.19 2.366-1.01 3.636-1.283 1.565-.283 3.008-1.09 4.62-1.134h-.004zM119.608 50.458c1.27-.116 2.554.055 3.788.34 1.172.572 2.42.953 3.586 1.54 1.52.842 2.952 1.835 4.465 2.695 1.173.605 2.194 1.476 3.44 1.946 1.93 1.177 3.73 2.592 5.326 4.202.567.486 1.19.905 1.71 1.446.67.72 1.56 1.213 2.1 2.056-1.06-.21-2.112-.54-3.06-1.07-.65-.48-1.045-1.216-1.617-1.778-.83-.914-1.966-1.434-2.923-2.182-.69-.544-1.436-1.01-2.216-1.405-1.43-.698-2.406-2.057-3.848-2.743-1.378-.64-2.492-1.814-3.998-2.156-1.167-.266-2.26-.78-3.43-1.033-.685-.245-1.212-.787-1.87-1.086-.494-.243-1.064-.36-1.455-.77v-.002zM54.175 84.495c.288.01.576.034.867.053-.433.746-.864 1.497-1.314 2.237-.733 1.17-1.14 2.504-1.834 3.698-.544.924-.63 2.023-1.048 2.998-.254.62-.544 1.242-.578 1.922-.125 2.137.268 4.254.496 6.37.27 1.328.714 2.628.73 4 .003 1.54.878 2.936.742 4.49-.082 1.58.362 3.21-.2 4.738l-.027.098c-.26.086-.52.18-.776.274-.508.002-1.006.092-1.478.278-.06-1.954-.903-3.775-.983-5.723-.246-1.64-1.125-3.1-1.288-4.76-.283-2.47-.88-4.923-.75-7.425.38-2.86.56-5.766 1.338-8.557.35-1.057.775-2.09 1.235-3.104.263-.566.976-.572 1.484-.77 1.133-.243 2.24-.608 3.383-.815z"/></g><g stroke-width=".094" stroke="#4E4D3F" fill="#4E4D3F"><path d="M38.23 22.05c.842-.223 1.79-.664 2.57-.026-1.575 1.216-3.598 1.602-5.19 2.802-.216-.385-.426-.772-.625-1.165 1.156-.39 2.056-1.308 3.246-1.608zM44.858 29.835c.532 1.53 1.53 2.818 2.57 4.027-.392.5-.808.984-1.255 1.44-.358-1.844-.983-3.62-1.315-5.467zM134.47 77.306c1.596-.417 3.29-.253 4.856.2 1.167.69 2.522.9 3.725 1.507 1.494.577 2.532 1.898 3.968 2.58.62.278 1.08.795 1.542 1.283 1.027 1.113 2.177 2.1 3.358 3.04.572.438.92 1.086 1.322 1.673.73 1.11 1.517 2.185 2.267 3.284.81 1.172 1.79 2.233 2.43 3.518.5.92.756 1.94 1.183 2.89.775 1.69 1.24 3.498 1.705 5.293.412 1.602 1.196 3.112 1.32 4.784.103 1.207.65 2.318.768 3.524-.75-.69-1.315-1.557-1.703-2.5-.407-1.01-1.28-1.7-1.838-2.61l-.4-.233c-.378-.85-1.154-1.404-1.653-2.17-1.005-1.538-2.508-2.635-3.934-3.743-.697-.67-1.52-1.177-2.302-1.732-3.465-2.8-7.606-4.703-11.937-5.65-.932-.19-1.81-.595-2.756-.71-3.88-.4-7.797-.292-11.662.204-1.652.127-2.987 1.24-4.565 1.64-1.7.814-3.27 1.915-5.06 2.536-2.14 1.1-4.16 2.42-6.32 3.482-1.105.54-2.086 1.31-3.213 1.812-.59.263-1.167.554-1.71.905-1.558 1-3.184 1.886-4.755 2.866-2.072 1.28-4.3 2.3-6.278 3.735-.904.657-1.91 1.178-2.722 1.963-.82.807-1.77 1.47-2.545 2.32-.867.95-2.078 1.556-2.714 2.715-.406-2.616-.25-5.296.314-7.875.432-2.507.82-5.027 1.565-7.463.06-.188.157-.355.292-.498 1.548-1.812 3.558-3.142 5.075-4.986.307-.377.635-.74.978-1.084.94-.094 1.618-.798 2.383-1.276 2.717-1.814 5.58-3.44 8.656-4.547 1.4-.706 2.846-1.315 4.223-2.066 2.306-1.187 4.843-1.835 7.112-3.1.974-.3 1.85-.82 2.764-1.26 1.98-.658 3.99-1.27 5.846-2.25 1.814-.675 3.654-1.355 5.594-1.528 1.584-.39 3.238-.07 4.818-.474zM113.156 82.097c1.417-.323 2.622-1.223 4.07-1.463-.87.924-2.128 1.236-3.246 1.735-.898.392-1.824.724-2.74 1.07-1.51.627-2.913 1.543-4.514 1.932 1.104-.97 2.402-1.72 3.787-2.2.896-.317 1.72-.824 2.643-1.075zM88.342 139.458c.506.55.642 1.318 1.005 1.958.584 1.05 1.092 2.147 1.732 3.167 1.22 1.814 2.158 3.805 3.268 5.69.464.74.47 1.65.754 2.46.312.965.796 1.927.743 2.968-.82 1.8-2.97 1.967-4.668 2.185-1.216.082-2.476.464-3.672.08.45-2.19.383-4.45.87-6.63.274-2.384.282-4.787.272-7.182.16-1.575-.106-3.14-.303-4.695h-.002z"/></g><path d="M145.093 23.375c.37-.112.493.51.135.594-.38.12-.508-.52-.135-.595z" stroke="#040202" stroke-width=".094" opacity=".28" fill="#040202"/><g stroke-width=".094" stroke="#D6D6C7" fill="#D6D6C7"><path d="M74.817 51.8c.21-.205.498-.218.773-.198.12.28.246.556.384.83-1.453 1.173-3.228 1.828-4.827 2.763-.34-.057-.48-.377-.608-.654 1.542-.712 2.91-1.736 4.277-2.74zM79.294 54.906c.944-.404 1.84-.915 2.65-1.557 1.43-.08 2.843.168 4.255.352.944-.036 1.91-.022 2.83-.276l-.26.36c-.984.412-1.965.834-2.952 1.24-.537.133-1.073.287-1.59.493l-.09-.06-.5-.32c-.726.216-1.44.477-2.19.586-.603.1-1.13-.284-1.65-.524-1.26.823-2.447 1.756-3.703 2.588-1.298.914-2.732 1.628-3.93 2.684-1.15.875-2.29 1.99-3.81 2.064l.107-.577c.3-.534.896-.767 1.415-1.023 1.306-.518 2.355-1.495 3.61-2.11 1.11-.737 2.31-1.343 3.34-2.202.787-.624 1.738-1.016 2.47-1.718h-.003zM153.792 68.544c1.037-.223 2.11-.23 3.162-.12 1.567.42 3.115.924 4.676 1.375.926.206 1.523 1.026 2.076 1.738-.384-.015-.765-.01-1.144-.002-.487-.62-1.284-.51-1.97-.477-.45-1.15-2.112-1.147-2.767-.204-1.27-.08-2.543-.19-3.808-.023-1.068.135-2.226-.21-2.802-1.186.72-.206 1.46-.302 2.187-.473.14-.203.27-.413.388-.63h.002zM50.113 116.9c.765-.222 1.536-.434 2.32-.585.16.245.48.46.42.793-.578.59-1.227 1.107-1.76 1.74-.816.444-1.593.95-2.286 1.576-.604.41-1.154.902-1.555 1.523-.74 1.095-1.84 1.9-2.457 3.086-.792 1.478-1.777 2.99-1.646 4.753.38.116.758.24 1.143.342l-.657-.072c-.982-.22-1.98.038-2.967.096.647-1.37 1.797-2.458 2.31-3.893.853-.8 1.232-1.943 1.96-2.84 1.505-2.154 3.136-4.254 5.124-5.978l.05-.54v-.002z"/></g><g stroke-width=".094" stroke="#C7C7B3" fill="#C7C7B3"><path d="M75.974 52.43c.605.602.864 1.447 1.414 2.09-.408.172-.8.395-1.133.688-1.135.96-2.397 1.753-3.66 2.526-.31-.963-.92-1.754-1.63-2.45l.182-.09c1.6-.934 3.374-1.588 4.827-2.763zM76.095 57.79c1.256-.833 2.44-1.765 3.702-2.59.52.24 1.048.625 1.65.525.75-.11 1.464-.37 2.19-.586l.5.318c-1.253.648-2.492 1.32-3.685 2.07-.5.408-.9.96-1.507 1.22-.88.365-1.665.925-2.534 1.316-1.13.507-1.965 1.528-3.16 1.9-1.77.824-3.49 1.75-5.217 2.658.114-.89-.032-1.85.428-2.663l-.107.576c1.52-.075 2.66-1.19 3.81-2.064 1.2-1.057 2.633-1.77 3.93-2.684h.002zM150.896 70.06c-.182-.257.16-.304.32-.415.577.975 1.735 1.322 2.803 1.187 1.263-.167 2.538-.058 3.807.023-.546 1.396-.52 3.024.167 4.365.538 1.085 1.243 2.26 2.45 2.67.977.304 1.985-.163 2.792-.7.53-.397 1.12-.942 1.06-1.672.08-1.544-1.047-2.718-1.733-3.982.38-.006.76-.013 1.143.002 1.275.618 2.01 1.884 3.017 2.825 1.28 1.344 2.07 3.054 3.16 4.543 1.012 1.808 1.813 3.724 2.64 5.625.727 1.716 1.325 3.496 1.638 5.34.792 2.537 1.07 5.21.852 7.86-.523.152-.423.676-.362 1.094l.77.408c-.26.695-.52 1.392-.816 2.073-.75.776-1.74 1.228-2.618 1.83-1.68 1.16-3.668 2.084-5.753 1.845.093-1.583-.305-3.12-.9-4.573-.648-1.568-.806-3.285-1.48-4.84-.894-2.244-1.218-4.693-2.347-6.842-.635-1.606-1.063-3.294-1.78-4.87-.685-1.502-.99-3.17-1.876-4.58-.688-1.028-1.258-2.14-2.052-3.09-.02-.323-.04-.643-.046-.962-.534-.68-1.045-1.38-1.6-2.04-1.065-1.06-2.27-1.977-3.255-3.12v-.003zm13.244 11.393c-.155.373-.312.744-.483 1.108-.167 1.026-.055 2.053.218 3.047.2 1.452 1.104 2.656 1.963 3.788.676.875 1.88.812 2.866.776.84-.666 1.654-1.42 2.084-2.433-.37-1.442-1.114-2.73-1.825-4.02-.498-.844-1.292-1.5-2.248-1.73-.555-.883-1.713-1.003-2.575-.534zm5.163 12.77c-.533.18-.898.682-1.21 1.13-.848 1.462-1.126 3.305-.51 4.91.284 1.142 1.154 2.48 2.487 2.307 1.007.083 1.857-.56 2.632-1.12.917-.717.854-2.02.767-3.068-.215-.858.147-1.942-.654-2.564-1.023-.777-2.154-1.71-3.514-1.596zM52.354 116.218c.92-.05 1.815-.287 2.73-.398 1.334-.11 2.678-.043 4.016-.04 1.712.064 3.395.44 5.106.52 1.483.128 2.834.833 4.083 1.604 1.967 1.21 4.183 1.972 6.06 3.335 1.617 1.032 3.102 2.28 4.43 3.67 1.166 1.378 2.726 2.388 3.68 3.953 1.017 1.296 1.618 2.843 2.398 4.282.424.992.792 2.01 1.144 3.032.505 1.628.947 3.29 1.06 5 .07.513-.32.91-.597 1.297-.866 1.063-1.736 2.124-2.537 3.24-.76 1.078-1.695 2.018-2.423 3.12l-.36-.112c-.437-1.025-1.574-1.358-2.55-1.61-1.38-.073-2.74.488-3.802 1.352-1.18 1.174-1.197 2.92-1.535 4.447l-.27.616c-.785.244-1.598.345-2.39.535-1.705.55-3.51.74-5.295.67l-.157.04c-.02-1.19-.196-2.366-.296-3.547-.36-.956-.432-1.976-.645-2.966-.386-1.254-.672-2.554-1.337-3.697-.836-1.796-1.802-3.53-2.887-5.184-.764-.99-1.662-1.867-2.47-2.82-1.37-1.843-3.398-2.995-5.3-4.19-1.19-.715-2.565-.975-3.837-1.487-1.314-.47-2.71-.558-4.08-.752-.384-.103-.764-.227-1.143-.343-.13-1.762.854-3.275 1.646-4.753.616-1.185 1.717-1.99 2.457-3.086.4-.62.95-1.112 1.555-1.523-.356.772-.08 1.656-.4 2.442l.44.242-.027.526c.69.87 1.538 1.61 2.546 2.073 1.55.914 3.406 1.397 5.187 1.027.578-.374 1.296-.635 1.618-1.298.362-.7.856-1.403.838-2.227.02-.884-.16-1.788-.554-2.577-.715-.962-1.91-1.336-2.963-1.783-1.426-.447-2.953-.244-4.398.002.534-.636 1.182-1.153 1.76-1.742.062-.333-.258-.548-.42-.793l-.078-.096v-.002zm12.55 12.487c-.994.68-1.32 1.9-1.227 3.058.367 1.172.85 2.384 1.834 3.174.213.154.29.41.404.64.92.638 1.366 1.74 2.24 2.433.89.735 1.998 1.106 3.07 1.482.893.267 1.88.057 2.577-.567 1.047-.736 1.45-1.996 1.896-3.138.026-1.245.127-2.622-.614-3.7-.798-1.102-1.59-2.263-2.74-3.027-2.16-1.414-5.217-1.89-7.44-.357v.002z"/></g><path stroke="#221C1B" stroke-width=".094" opacity=".78" fill="#221C1B" d="M89.03 53.426c.424.077-.025.693-.26.36l.26-.36z"/><path stroke="#190E08" stroke-width=".094" opacity=".69" fill="#190E08" d="M165.096 70.57c.273-.12.447-.03.523.268l-.225.086c-.296.02-.397-.098-.3-.355z"/><g stroke-width=".094" stroke="#FC0101" fill="#FC0101"><path d="M158.99 72.068c1.41 1.072 2.298 2.644 3.23 4.115-.455.168-1.01.51-1.473.18-1.475-.826-2.047-2.69-1.756-4.295zM166.39 87.984c-.985-1.453-1.883-3.22-1.374-5.025.512.117 1.018.286 1.484.54l-.652.015c1.105 1.62 2.213 3.37 2.26 5.407-.6-.244-1.28-.428-1.718-.94v.002zM169.66 101.39c-1.466-1.305-1.625-3.76-.333-5.237.875 1.187 1.422 2.708 1.065 4.19-.04.46-.457.732-.732 1.048zM51.084 123.642c.472-.926 1.35-1.557 2.143-2.186 1.24-.312 2.543-.02 3.793.16.613.582.642 1.496.3 2.236-.184.853-.957 1.527-1.82 1.57-1.022.086-1.99-.33-2.898-.75-.542-.275-1.153-.515-1.52-1.03h.002zM65.94 131.836c.94-.518 2.076-.458 3.114-.42 2.114.272 3.57 1.983 5.013 3.386.002 1.28-.553 2.893-1.885 3.293-1.74-.12-3.32-1.172-4.315-2.592-.34-.546-.88-.892-1.474-1.1l-.074-.483c-.483-.51-1.32-1.63-.38-2.086v.002zM75 151.02c.17-.786.677-1.434 1.244-1.972 1.197 1.907 1.51 4.247 1.367 6.466-.42.368-.82.76-1.192 1.18-1.444.182-2.52-1.69-1.93-2.938.312-.884.23-1.844.513-2.736z"/></g><g stroke-width=".094" stroke="#97967C" fill="#97967C"><path d="M160.302 72.094c.47.102 1.042.115 1.35.553.47.606.846 1.284 1.17 1.98-.912-.767-1.647-1.718-2.52-2.533zM165.015 82.96c.097-.2.21-.39.345-.565 1.092.627 2.132 1.44 2.69 2.612.413.923 1.086 1.726 1.334 2.722-.678-.73-.778-1.8-1.427-2.555-.496-.552-1-1.095-1.458-1.674-.466-.254-.972-.423-1.485-.54zM170.812 96.01c1.578.657 1.69 2.684 1.203 4.11l-.328.153c-.004-.7.044-1.405-.055-2.098-.203-.747-.585-1.43-.82-2.165z"/></g><g stroke-width=".094" stroke="#65655B" fill="#65655B"><path d="M165.332 100.406c.595 1.452.994 2.99.9 4.573 2.084.24 4.073-.685 5.753-1.847.877-.6 1.868-1.052 2.618-1.83-.182 1.122-1.145 1.838-1.565 2.852-1.048 2.295-2.775 4.165-4.397 6.05-.822.55-1.55 1.216-2.27 1.89-.062-1.072.078-2.15-.12-3.21-.276-1.563-.008-3.152-.167-4.72.028-1.306-.625-2.478-.75-3.76zM86.002 136.177c1.017 1.906 1.212 4.132 1.307 6.257-.283 1.78-.18 3.58-.18 5.375.1 2.016-.503 3.972-.6 5.977-.058 1.112-.25 2.214-.464 3.306-.42.413-.778.89-1.203 1.298-.58.382-1.298.393-1.964.47-1.093.905-2.472 1.298-3.796 1.704-1.016.253-2.015.593-3.052.73-1.88.277-3.786.288-5.653.637-2.358.116-4.696.44-7.037.722.608-1.756 1.148-3.547 1.46-5.384.154-.825.01-1.71.323-2.498l.156-.04c1.784.07 3.59-.122 5.295-.67.792-.19 1.605-.29 2.39-.535l.27-.616c-.227.88-.45 1.802-.28 2.716.214 1.174 1.105 2.244 2.272 2.532 1.113.197 2.323.06 3.297-.548 3.033-1.59 4.24-5.892 2.597-8.89l.36.114c.73-1.103 1.665-2.042 2.424-3.12.8-1.117 1.67-2.178 2.537-3.24.276-.388.667-.786.598-1.3-.115-1.708-.557-3.37-1.06-4.997z"/></g><path d="M162.262 111.07l.648.025c.04.566.09 1.135.174 1.7-.295-.567-.404-1.228-.822-1.724z" stroke="#090405" stroke-width=".094" opacity=".56" fill="#090405"/><path stroke="#4B493B" stroke-width=".094" fill="#4B493B" d="M83.114 116.156c.065-.953.218-1.9.254-2.855-.023 1.563.29 3.11.21 4.672-.203-.59-.518-1.173-.464-1.816z"/><path d="M145.562 173.315l-9.3 4.582-.082-34.738-8.22 8.913-3.487 19.992L117 176.23l2.824-56.23 6.476-3.833-.996 36.488c2.6-4.11 4.954-7.192 7.057-9.247.665-.666 1.716-1.694 3.156-3.082 1.77-1.666 3.79-2.5 6.06-2.5 2.38 0 3.792.556 4.234 1.667.72 1.887 1.08 4.72 1.08 8.496 0 4.442-.222 9.774-.664 15.994l-.665 9.33h.002zm21.835-1.666c-4.206 0-8.025-.945-11.457-2.833-4.206-2.332-6.31-5.443-6.31-9.33 0-3.22 1.577-5.997 4.732-8.33 2.435-1.834 5.48-3.222 9.133-4.166 1.938-.5 4.123-.75 6.56-.75 2.103 0 4.594.362 7.47 1.084 1.44.222 2.797.75 4.07 1.583-1.107-2.332-3.155-4.387-6.144-6.164-2.49-1.5-6.115-2.805-10.875-3.916-1.66-.388-3.958-.833-6.89-1.333l-1.66-7.33c.497 0 1.853.277 4.067.833 8.137 2.055 14.502 5.025 19.096 8.913 4.76 4.054 7.5 9.553 8.22 16.495v15.244l-3.986-.5-.083-5.165c-1.33 1.277-2.85 2.36-4.567 3.25-3.045 1.61-6.836 2.415-11.375 2.415zm2.657-13.663c-1.882.444-3.46 1.194-4.732 2.25-1.494 1.277-2.24 2.804-2.24 4.58 0 3 2.157 4.5 6.475 4.5 2.27 0 4.483-.584 6.642-1.75 2.6-1.39 3.902-3.138 3.902-5.248 0-.28-.056-.64-.167-1.085-.608-2.387-2.878-3.582-6.808-3.582h-1.246c-.22 0-.83.11-1.825.333zm53.717 7.664c-2.712 1.778-7.056 3.277-13.034 4.5-1.605.332-4.373.805-8.303 1.415l1.495 21.076-5.812.5-2.49-28.988-2.907-.333-1.827-25.826c3.155-1.222 5.756-2.138 7.804-2.75 6.31-1.887 11.79-2.83 16.44-2.83 11.456 0 17.185 4.636 17.185 13.91 0 9.11-2.85 15.55-8.55 19.328zm-8.966-12.828c-.11-.056-.416-.083-.914-.083-1.55 0-4.123.25-7.72.75-1.274.166-3.017.443-5.23.832l1.078 13.412c1.107-.056 1.993-.11 2.657-.167 6.31-.5 10.517-1.944 12.62-4.33 1.272-1.445 1.91-3.084 1.91-4.917 0-3.11-1.468-4.943-4.4-5.498zm28.56-25.158c-1.937 0-3.597-.445-4.98-1.334-1.717-1.054-2.575-2.47-2.575-4.248 0-1.39.968-2.61 2.905-3.665 1.716-.89 3.32-1.333 4.815-1.333 1.827 0 3.488.388 4.982 1.166 1.826.944 2.74 2.25 2.74 3.915 0 1.833-.886 3.25-2.657 4.248-1.494.834-3.238 1.25-5.23 1.25zm-4.068 44.4l.415-23.825 12.786-.834 3.405 25.242-16.604-.583z" fill="#0A0203"/></svg>