<svg width="256" height="244" viewBox="0 0 256 244" xmlns="http://www.w3.org/2000/svg" preserveAspectRatio="xMinYMin meet"><g fill="#2C1137"><path d="M92.725.154c-5.695.59-10.17 3.04-15.492 8.478-2.356 2.408-2.948 3.084-6.98 7.98-5.713 6.934-8.35 9.582-11.926 11.977-2.203 1.475-6.606 3.663-10.34 5.138-1.496.59-4.327 1.707-6.307 2.486-13.388 5.267-18.434 9.944-20.847 19.32-.79 3.068-1.234 6.76-1.67 13.868-.685 11.15-1.403 14.95-3.842 20.35-.842 1.865-2.838 5.244-5.884 9.965-4.89 7.58-6.63 10.786-7.894 14.548-.908 2.7-1.22 4.24-1.338 6.62-.17 3.383.447 6.62 1.965 10.315 1.424 3.466 2.667 5.68 6.732 11.986 4.356 6.76 6.074 9.78 7.27 12.79 1.596 4.01 2.376 8.588 2.898 17.003.33 5.313.536 7.874.808 10 1.474 11.516 5.614 17.2 16.14 22.168 1.09.513 4.663 1.996 7.94 3.295 6.956 2.757 9.453 3.85 11.845 5.184 4.92 2.745 7.913 5.574 14.962 14.146 3.567 4.338 6.506 7.61 8.205 9.13 6.336 5.672 11.933 7.507 20.01 6.56 3.01-.352 5.59-.898 12.355-2.613 11.093-2.812 14.878-3.29 20.66-2.616 3.17.37 5.73.91 12.81 2.694 9.34 2.355 12.896 2.926 16.998 2.727 3.382-.163 5.575-.73 8.604-2.23 3.703-1.83 7.926-5.585 12.512-11.126 1.297-1.57 3.35-4.045 4.547-5.49 2.848-3.43 7.165-7.7 9.26-9.156 3.254-2.26 6.957-4.05 14.23-6.87 6.904-2.68 9.78-3.964 12.65-5.648 7.61-4.46 11.01-10.034 12.305-20.156.272-2.126.48-4.687.807-10 .853-13.835 1.938-17.07 9.79-29.184 5.6-8.64 7.685-12.877 8.716-17.7.39-1.83.436-6.287.083-8.085-.403-2.044-1.67-5.644-2.793-7.926-1.16-2.358-3.273-5.907-6.28-10.54-7.738-11.925-8.694-14.932-9.61-30.23-.43-7.195-.88-10.78-1.776-14.164-1.972-7.455-5.897-11.94-13.975-15.97-2.682-1.338-4.206-1.98-11.67-4.907-2.262-.887-5.43-2.262-7.028-3.05-6.417-3.163-9.296-5.69-16.602-14.577-4.097-4.983-5.636-6.71-8.106-9.096-4.866-4.7-9.166-6.863-14.738-7.414-3.748-.37-8.15.238-16 2.212-12.248 3.08-13.34 3.27-18.837 3.27-5.52 0-6.59-.186-18.75-3.258C101.172.346 96.687-.256 92.725.154zM110.687 50c7.08 3.86 8.003 4.415 8.238 4.94.093.21.12 8.225.068 19.898-.078 17.37-.057 19.593.184 19.957.15.227 1.148.872 2.234 1.446 1.08.57 5.057 2.805 8.824 4.958l6.86 3.92.115-6.76c.06-3.71.14-6.787.174-6.82.034-.034 5.09-3.01 11.224-6.604l11.162-6.542 14.825 8.276.044 48.426c.042 47.406.036 48.437-.287 48.966-.536.88-3.245 2.56-13.6 8.437-2.42 1.373-5.06 2.935-5.898 3.488-.93.614-1.842 1.07-2.357 1.177-.75.155-.955.122-1.9-.305-.58-.262-1.42-.752-1.85-1.078-1.505-1.144-3.014-2.096-5.31-3.35-6.098-3.333-6.134-3.358-6.37-4.31-.082-.327-.105-9.252-.052-19.845.088-17.65.072-19.288-.193-19.688-.163-.246-1.27-.953-2.55-1.63-1.24-.654-5.195-2.873-8.77-4.92-3.575-2.048-6.557-3.73-6.615-3.73-.058 0-.105 3.024-.105 6.717 0 4.443-.064 6.835-.187 7.065-.245.454-2.196 1.68-3.844 2.41-.726.325-2.646 1.384-4.293 2.372-1.636.98-4.68 2.764-6.747 3.955-2.068 1.19-4.23 2.464-4.793 2.822-.56.357-1.35.8-1.744.978-1.438.652-1.594.595-6.816-2.486-2.63-1.55-5.692-3.348-6.8-3.99-1.138-.66-2.11-1.35-2.235-1.585-.34-.646-.225-96.556.118-97.218.187-.364 2.293-1.606 9.197-5.428 4.924-2.726 9.94-5.51 11.145-6.185 1.21-.678 2.253-1.232 2.33-1.237.078-.005 3.032 1.568 6.572 3.5z"/><path d="M83.385 108.742v47.11l2.147 1.107c1.176.605 3.724 1.996 5.634 3.074 1.91 1.078 3.562 1.97 3.653 1.97.107 0 .147-6.752.113-18.948-.05-17.736-.033-18.984.254-19.514.255-.47.412-.566.92-.566.838 0 1.49.3 3.698 1.706 1.04.66 3.592 2.175 5.66 3.355 2.076 1.186 7.938 4.554 13.055 7.5 5.117 2.948 11.61 6.655 14.457 8.257 5.117 2.878 5.812 3.33 6.178 4.01.218.406.19 21.812-.042 32.11-.094 4.146-.082 6.56.032 6.977.096.35.43.872.736 1.156.437.404 10.393 6.058 11.164 6.34.093.034.157-18.88.157-46.81 0-37.283-.044-46.9-.218-47.04-.12-.096-2.497-1.48-5.3-3.084-2.804-1.605-5.342-3.066-5.66-3.258l-.58-.348.027 18.616c.014 10.244-.027 18.89-.09 19.226-.192.993-.522 1.302-1.374 1.29-.907-.015-1.735-.428-4.328-2.158-1.11-.742-3.47-2.166-5.257-3.175l-7.342-4.142c-4.82-2.72-11.653-6.685-17.278-10.026-2.208-1.31-4.77-2.76-5.695-3.22-1.945-.966-2.705-1.6-2.925-2.438-.09-.35-.11-8.817-.045-19.69.062-10.487.053-19.24-.02-19.443-.105-.282-6.893-4.37-11.607-6.988-.067-.038-.123 21.135-.123 47.042z"/></g></svg>