<svg width="256" height="256" viewBox="0 0 256 256" xmlns="http://www.w3.org/2000/svg" preserveAspectRatio="xMinYMin meet"><path d="M127.946 31.99l-72.874-8.07L0 .004h63.97l63.976 31.99M127.946 31.99l74.542-6.4L255.892.003h-63.975l-63.97 31.99" fill="#FBC707"/><path d="M127.946 223.905l69.536 2.503 58.41 29.483h-63.975l-63.97-31.99" fill="#F68712"/><path d="M127.946 223.905H57.854L0 255.89h63.97l63.976-31.99" fill="#F25C19"/><path d="M31.985 127.95v67.306L0 255.89v-63.97l31.985-63.973" fill="#FFF200"/><path d="M31.985 127.95l-5.283-66.76L0 .005v63.97l31.985 63.973" fill="#FFF200"/><path d="M223.9 127.95l6.96-70.097L255.89.003v63.97l-31.99 63.974M223.9 127.95l5.846 75.094 26.146 52.847v-63.97l-31.99-63.973" fill="#F1471D"/><path d="M0 .004L127.946 31.99l-20.583 81.492-75.378 14.467L0 .01" fill="#FAB20B"/><path d="M255.892.004l-31.99 127.945-85.943-15.585-10.014-80.38L255.892.01" fill="#F47216"/><path d="M255.892 255.89l-127.946-31.985 14.463-84.828 81.49-11.122 31.992 127.928" fill="#F25C19"/><path d="M0 255.89l31.985-127.94 77.047 17.24 18.914 78.715L0 255.883" fill="#F89C0E"/><path d="M127.946 31.99l-95.96 95.96 95.96 95.955L223.9 127.95l-95.954-95.955" fill="#F68712"/></svg>