<svg width="256" height="400" viewBox="0 0 256 400" xmlns="http://www.w3.org/2000/svg" preserveAspectRatio="xMinYMin meet"><path d="M28.083 398.29v-34.78c0-2.452-1.798-3.51-3.917-3.51-4.248 0-9.554 1.058-14.37 3.18v35.11H0v-64.577h9.795v21.304c4.656-1.712 10.206-3.18 15.758-3.18 8.898 0 12.246 5.47 12.246 12.976v33.476h-9.717zm28-21.064c.325 11.674 2.612 13.96 9.793 13.96 5.634 0 12.002-1.878 16.902-3.756l1.632 7.346c-5.226 2.37-11.593 4.655-19.183 4.655-16.33 0-18.862-8.977-18.862-23.267 0-7.835.573-14.94 2.45-21.47 4.898-1.878 11.43-2.857 19.673-2.857 13.393 0 17.473 7.43 17.473 20.41v4.98H56.083zM68.487 360c-2.935 0-7.59.082-11.427.813-.405 1.96-.898 4.655-1.06 9.636h20.41c0-6.78-1.226-10.45-7.922-10.45zm35.837 3.18v35.11h-9.797v-39.516c8.246-4.49 16.98-5.877 22.698-6.285v8.163c-4 .326-9.064.816-12.9 2.528zm38.778 36.25c-14.616 0-21.228-7.182-21.228-23.593 0-17.39 8.735-24 21.228-24 14.612 0 21.226 7.182 21.226 23.592 0 17.39-8.738 24-21.227 24zm0-39.43c-7.512 0-11.675 4.326-11.675 15.837 0 12.574 3.51 15.35 11.675 15.35 7.51 0 11.674-4.247 11.674-15.758 0-12.575-3.51-15.43-11.674-15.43zm68.49 38.29H200.08c-2.69-7.185-6.45-14.533-12.245-20.9h-5.144v20.9h-9.795v-64.577h9.796v37.062h4.574c4.98-5.144 8.816-11.51 11.51-17.797h11.02c-3.753 7.593-8.57 14.287-13.958 19.757 6.45 8.164 11.51 16.818 15.757 25.554zm18.363 1.14c-8.897 0-12.244-5.467-12.244-12.98V352.98h9.714v34.697c0 2.452 1.794 3.512 3.917 3.512 4.246 0 10.042-1.06 14.86-3.184v-35.025H256v39.35c-11.593 6.37-20.493 7.103-26.044 7.103zM225.628 317.253H30.258C13.545 317.253 0 303.708 0 286.998V30.256C0 13.546 13.546 0 30.257 0h195.37c16.71 0 30.26 13.546 30.26 30.256v256.742c0 16.71-13.55 30.255-30.26 30.255z" fill="#6762A6"/><path d="M160.36 273.6V147.61s8.195-30.15-100.943 12.334c-.2.54-.2-116.504-.2-116.504l35.66-.22v74.99s99.846-39.324 99.846 29.825V273.6H160.36zm20.32-184.994h-37.824c13.615-16.646 25.94-45.167 25.94-45.167h39.11s-6.696 18.586-27.225 45.166zM59.865 273.382v-71.748l35.878 35.877-35.878 35.872z" fill="#FFF"/></svg>