<svg width="256" height="256" viewBox="0 0 256 256" xmlns="http://www.w3.org/2000/svg" preserveAspectRatio="xMinYMin meet"><path fill="#222" d="M0 0h256v256H0z"/><path d="M114.406 35.277L91.826 99.82l-68.493.19 55.51 41.02-19.948 66.233 56.075-39.7 57.584 42.147-21.08-68.87 54.95-41.02-68.307.19-23.71-64.733" fill="#E08524"/><path d="M117.228 34.336l22.768 10.726L159 97h-18.816l-22.956-62.66" fill="#466770"/><path d="M156.34 142.24l22.486 11.043 54.42-39.518-22.486-11.975-54.42 40.45" fill="#304A51"/><path d="M156.308 142.198l22.518 11.035 21.29 68.84-23.286-11.843-20.522-68.03" fill="#466770"/><path d="M62.095 209.618l52.875-37.822 18.535 13.736-49.96 35-21.45-10.914" fill="#304A51"/></svg>