<svg width="256" height="256" viewBox="0 0 256 256" xmlns="http://www.w3.org/2000/svg" preserveAspectRatio="xMinYMin meet"><path d="M232.793 0H23.207C10.39 0 0 10.39 0 23.207v209.586C0 245.61 10.39 256 23.207 256h209.586C245.61 256 256 245.61 256 232.793V23.207C256 10.39 245.61 0 232.793 0" fill="#DC395F"/><path d="M85.555 80.545c8.51 0 15.64-6.67 15.64-15.412 0-8.736-7.13-15.405-15.64-15.405-8.51 0-15.637 6.67-15.637 15.405 0 8.74 7.127 15.412 15.637 15.412M53.13 163.065c-.92 3.91-1.38 8.132-1.38 11.576 0 13.572 7.358 22.582 22.997 22.582 12.97 0 23.485-7.703 31.056-20.14l-4.623 18.553h25.755l14.72-59.04c3.68-14.947 10.81-22.706 21.62-22.706 8.508 0 13.797 5.29 13.797 14.027 0 2.53-.23 5.288-1.15 8.28l-7.59 27.136c-1.15 3.91-1.608 7.822-1.608 11.5 0 12.882 7.587 22.305 23.456 22.305 13.57 0 24.377-8.735 30.357-29.664l-10.118-3.906c-5.06 14.02-9.43 16.556-12.88 16.556-3.45 0-5.29-2.298-5.29-6.895 0-2.07.46-4.368 1.15-7.134l7.36-26.438c1.84-6.208 2.53-11.713 2.53-16.77 0-19.78-11.96-30.1-26.448-30.1-13.568 0-27.368 12.238-34.266 25.118l5.058-23.12H108.31l-5.52 20.365h18.398l-11.33 45.36c-8.897 19.78-25.24 20.1-27.29 19.64-3.37-.76-5.523-2.038-5.523-6.414 0-2.525.46-6.152 1.61-10.525l17.25-68.423H52.21l-5.52 20.364h18.167L53.13 163.066" fill="#FFF"/></svg>