<svg width="256" height="291" viewBox="0 0 256 291" xmlns="http://www.w3.org/2000/svg" preserveAspectRatio="xMinYMin meet"><path d="M254.976 145.213c0 22.353-.036 44.706.032 67.06.013 4.402-1.998 7.52-5.582 9.607-16.412 9.56-32.88 19.026-49.33 28.52-16.157 9.326-32.316 18.644-48.472 27.97-5.85 3.376-11.68 6.79-17.546 10.138-4.078 2.327-8.143 2.3-12.253-.085-13.32-7.73-26.673-15.403-40.01-23.103-11.54-6.66-23.074-13.33-34.612-19.995-13.55-7.827-27.106-15.643-40.645-23.488C2.838 219.682 1 216.4 1 212.092c0-44.582.006-89.164-.008-133.746 0-4.54 2.078-7.8 5.92-10.023 10.462-6.05 20.93-12.086 31.398-18.127 15.243-8.798 30.488-17.594 45.73-26.393 12.747-7.36 25.48-14.74 38.243-22.072 3.898-2.238 7.85-2.14 11.744.11 12.128 7.005 24.255 14.01 36.385 21.013 12.908 7.452 25.82 14.897 38.726 22.35 12.504 7.222 25.005 14.45 37.505 21.677 1.928 1.115 3.91 2.12 5.477 3.793 1.87 1.995 2.877 4.238 2.873 7.016-.03 22.507-.017 45.015-.017 67.523" fill="#292926"/><g fill="#F3DA47"><path d="M147.313 163.824c-7.736 2.545-15.908-2.49-17.118-10.55-.643-4.28.012-8.298 2.793-11.716 3.383-4.16 7.846-5.745 13.065-4.595 5.332 1.175 8.542 4.704 9.908 9.922.31 1.184.37 2.433.544 3.652-.108 6.323-3.624 11.456-9.19 13.287zm15.59-27.45c-4.993-6.34-11.78-9.005-19.823-9.233-.848.062-1.834.112-2.817.207-11.225 1.084-20.428 9.31-21.42 20.86-.67 7.776 1.626 14.527 7.616 19.665 6.75 5.79 14.707 7.3 23.197 5.238 18.656-4.53 22.428-25.078 13.247-36.735zM88.517 136.66h6.864v27.808H88.9v8.343h24.1v-8.342h-6.488v-36.15H88.517v8.343M95.38 110.697h11.13v9.814H95.38v-9.813z"/></g></svg>