<svg width="512" height="179" viewBox="0 0 512 179" xmlns="http://www.w3.org/2000/svg" preserveAspectRatio="xMinYMin meet"><g fill="#4E8EF7"><path d="M227.68 66.3h3.693v69.87h-3.692zM283.838 64.585c-20.96 0-36.776 15.82-36.776 36.65 0 20.96 15.815 36.648 36.776 36.648 20.963 0 36.782-15.688 36.782-36.65-.002-20.827-15.82-36.648-36.782-36.648zm0 69.87c-18.85 0-33.087-14.237-33.087-33.22 0-18.985 14.237-33.22 33.088-33.22 18.85 0 33.093 14.235 33.093 33.22 0 18.983-14.24 33.22-33.092 33.22zM390.355 71.573c-7.91-6.46-17.4-6.988-22.278-6.988-11.072 0-23.335 5.143-27.68 15.162h-.27V66.3h-3.69v69.87h3.69V95.96c0-17.532 10.814-27.945 28.345-27.945 10.547 0 16.21 3.427 19.772 6.59 5.273 4.746 8.57 12.523 8.57 24.65v36.914h3.692V99.253c0-12.52-3.295-21.882-10.15-27.68zM420.94 66.3h3.69v69.87h-3.69zM477.097 134.455c-17.8 0-33.09-13.448-33.09-33.22 0-9.492 3.953-18.72 9.624-23.864 7.25-6.457 13.71-9.355 23.598-9.355 13.708 0 25.837 7.644 30.583 20.958h4.09c-5.54-16.478-20.567-24.388-34.803-24.388-21.227 0-36.784 16.083-36.784 36.782 0 21.752 16.478 36.516 36.784 36.516 16.61 0 29.792-9.49 34.668-23.73h-4.084c-3.426 10.416-14.765 20.302-30.583 20.302z"/><circle cx="229.529" cy="44.642" r="3.985"/><circle cx="422.783" cy="44.642" r="3.985"/><circle cx="89.373" cy="89.271" r="36.448"/><path d="M163.755 27.424c0-6.923-5.614-12.533-12.535-12.533-3.142 0-6.003 1.164-8.203 3.073C128.07 6.69 109.49 0 89.372 0 40.148 0 .102 40.047.102 89.272c0 49.223 40.047 89.27 89.27 89.27 49.225 0 89.272-40.047 89.272-89.27 0-20.118-6.69-38.7-17.962-53.646 1.91-2.198 3.073-5.062 3.073-8.202zM89.372 175.54c-47.568 0-86.27-38.7-86.27-86.27 0-47.567 38.702-86.268 86.27-86.268 19.342 0 37.214 6.4 51.62 17.19-1.45 2.044-2.307 4.536-2.307 7.23 0 6.923 5.612 12.533 12.533 12.533 2.696 0 5.185-.858 7.23-2.306 10.79 14.403 17.19 32.276 17.19 51.62.002 47.57-38.697 86.27-86.266 86.27z"/></g></svg>