<svg width="256" height="388" viewBox="0 0 256 388" xmlns="http://www.w3.org/2000/svg" preserveAspectRatio="xMinYMin meet"><path d="M52.557 272c1.812 0 2.64.88 2.64 2.64v88.803c0 3.263-.62 6.42-1.915 9.32-1.295 2.9-2.952 5.438-5.127 7.612-2.174 2.175-4.712 3.884-7.61 5.127-2.9 1.242-6.008 1.915-9.322 1.915h-7.25c-3.26 0-6.42-.62-9.32-1.915-2.9-1.243-5.436-2.952-7.61-5.127-2.176-2.174-3.884-4.712-5.127-7.61C.62 369.864 0 366.756 0 363.442v-20.35c0-1.81.828-2.9 2.485-3.417l17.295-4.556c1.657-.518 2.485.103 2.485 1.916v25.475c0 1.296.415 2.33 1.347 3.212.88.88 1.967 1.346 3.21 1.346h1.553c1.243 0 2.33-.414 3.21-1.346.88-.88 1.347-1.968 1.347-3.21v-87.82c0-1.812.88-2.64 2.64-2.64.053-.052 16.985-.052 16.985-.052zm73.94 111.43c.26 1.813-.516 2.64-2.277 2.64h-17.294c-1.657 0-2.59-.88-2.848-2.64l-1.554-18.59H90.718l-1.553 18.59c-.26 1.813-1.243 2.64-2.848 2.64H69.023c-1.813 0-2.538-.88-2.28-2.64l14.293-108.737c.258-1.813 1.242-2.64 3.055-2.64h25.114c1.812 0 2.796.88 3.055 2.64l14.238 108.737zm-25.474-39.922l-3.573-42.045h-1.554l-3.572 42.045h8.7zM170.2 272c3.263 0 6.37.62 9.32 1.916 2.9 1.294 5.438 2.95 7.613 5.126 2.174 2.175 3.883 4.712 5.126 7.612 1.242 2.9 1.915 6.006 1.915 9.32v66.175c0 3.26-.622 6.42-1.916 9.32-1.296 2.9-2.953 5.436-5.127 7.61-2.175 2.176-4.712 3.884-7.612 5.127-2.9 1.295-6.005 1.916-9.32 1.916h-28.478c-1.813 0-2.64-.88-2.64-2.64v-108.79c0-1.813.88-2.64 2.64-2.64l28.48-.053zm1.76 24.906c0-1.243-.413-2.33-1.345-3.21-.88-.88-1.968-1.346-3.21-1.346h-6.06v73.372h6.06c1.242 0 2.33-.415 3.21-1.347.88-.88 1.346-1.967 1.346-3.21v-64.26zM256 366.498v16.932c0 1.813-.88 2.64-2.64 2.64h-41.27c-1.812 0-2.64-.88-2.64-2.64V274.693c0-1.813.88-2.64 2.64-2.64h41.217c1.813 0 2.64.88 2.64 2.64v16.88c0 1.812-.88 2.64-2.64 2.64h-21.695v21.696h18.796c1.812 0 2.64.88 2.64 2.64v16.932c0 1.812-.88 2.64-2.64 2.64h-18.796v25.684h21.695c1.813 0 2.693.88 2.693 2.692z" fill="#569A83"/><path d="M193.065 143.72c1.178 1.18 1.285 3.108-.107 4.073-3.43 2.25-7.82 1.928-11.892 1.5-6.857-.75-15-1.072-18.535-7.5-.106 0-.106-.107-.213-.214-4.5-2.465 3.107-4.18 5.25-4.5 4.82-.644 9.963.642 14.677 1.713 3.964.75 7.714 1.822 10.82 4.928zM255.63 245.93c-3.213 2.25-1.82 6.107-4.07 8.785-2.25 2.57-7.713 2.57-10.606 2.57-12.32.11-24.32-.856-36.426.11-3.107.213-5.892.64-8.785 1.39-.857.216-2.25.75-3.214.216-2.465-1.287-4.715-5.358-7.93-4.073-2.677 1.18-4.713 5.036-7.927 2.68-5.892-4.394-10.82-.43-17.034.75-6.43 1.284-12.536-2.25-18.857-.537-4.714 1.393-9.214 2.786-14.035 1.18-4.82-1.716-6.107-5.465-1.928-9 6.642-5.465 14.89-6.322 23.14-5.68 12.536 1.072 24.963.108 37.498-.535.43 0 .643.215.643.536 5.358 2.144 8.786-2.142 11.893-5.89.428-.537 1.178-.216 1.393.106 4.5 6.642 9.963-.857 15.64-.214 1.5.107 2.894.535 3.858 1.928.43.643.536 1.393.536 2.143.214 3.428 4.607 2.678 4.5-.75 0-.536.642-1.072 1.178-.857 4.5 1.82 10.285 4.178 13.927-.536 3.107-3.964 3.536-9.642 3.857-14.463.643-12.964-.214-26.248-1.178-39.104-.75-12.535-2.143-25.284-.643-37.82 1.5-12.427 1.394-24.533 1.18-37.068-.108-6.535-.43-13.07 0-19.605.214-6 1.285-12.428.642-18.428-.642-5.356-3.857-9.963-4.5-15.213-.642-4.822 0-9.857 1.18-14.57.642-2.894 2.142-6.43 2.035-9.43-.107-2.57-.215-5.25-.107-7.82 0-1.285-.215-3.32.75-4.392 1.5-1.822 2.25-4.5-1.286-4.82-8.464-1.073-17.142-6.43-25.177-1.18.107 1.82.215 3.857-.214 5.678l1.178 1.5c2.037.857 4.073 1.18 6.322 1.286 2.572 0 5.357-.643 7.928-.43 2.143.215 3.964 2.144 3.214 4.608-.535 1.82-2.142 3.32-3.106 4.82-1.715 2.68-1.393 6.536-1.393 9.643-.107 7.82 0 15.642.214 23.248.213 6.43.856 12.965 1.285 19.393.107.107.535.214.535.536.215 7.284 2.68 14.462 2.786 21.747.107.107-1.93 9-1.93 9-.106 9.427-.856 26.89-.856 26.89-.107 16.07-2.892 32.033-.107 47.997 1.18 6.428-1.285 12.64-1.5 19.07-.214 7.07.643 14.034-.428 21.105.107.428 0 .856-.536 1.07-14.678 2.786-29.57 3.322-44.57 2.465-3.75-.215-8.14-.536-11.784.857-1.393.642-3.32 1.5-5.035 1.392-2.142-.214-3.213-1.928-5.25-2.25-2.57-.535-5.034-1.07-7.498-1.285-6.643-.858-12.964-1.287-19.177 1.392-3.43 1.5-7.07.857-10.5-.536-4.07-1.714-7.178-3.75-11.677-1.5-1.822.857-3.43 1.82-5.464 2.25-1.714.428-3.214 0-4.714-.643-3.428-1.285-6.107-1.714-9.75-1.07.43.534.108 1.5-.642 1.5-21.75-1.18-43.604 1.39-65.352 1.713-1.072.214-1.822 1.393-2.465 1.393h-.64c-.537 0-.644-1.823-.537-2.144-2.893-3.214-2.143-13.82-2.036-16.927.857-20.25-1.714-40.606-2.25-60.747-.214-10.07-.214-20.248 1.393-30.212 1.93-11.248 1.93-22.176 1.714-33.425-.535-22.39 1.715-44.675 1.072-67.066 0-.43.428-.537.643-.43l.213-.107c6-.536 12.535-2.143 18.427-.536.107 0 .214.107.214.214l.857.11h6.644c.214 0 .535.106.535.213 11.784.107 23.57-.857 35.354-1.393 4.07-.107 8.357 0 12.428-1.285 2.035-.643 4.5-1.715 6.642-1.5 5.357.428 10.82 2.035 16.07 3.214 3.75.75 6.32-5.68 9.642-3.43 5.036 3.214 10.82 2.036 16.606 2.143 3.107.107 6-.536 9.107-.536 1.713 0 3.106.43 4.606.75 1.5-.214 2.785-.107 4.5.536l27.426-.857c5.464.107 11.463.536 16.713-1.5 1.393-.536 2.142-1.286 2.57-2.143-.213-.428-.428-.857-.642-1.392-.428-.75-.857-1.714-1.393-2.25-5.892-1.928-12.64-1.392-18.855-1.713-8.464-.43-16.713.75-25.177 1.392-7.82.642-15.963 1.178-23.784.535-4.607-.43-13.285-2.464-17.25.75-.427.214-.75.214-1.177 0-7.5-6.107-17.356 3.107-25.927.536-5.142-1.5-9.963-2.57-15.427-1.928-5.25.536-10.392 1.286-15.75 1.286-11.677-.107-23.247.643-34.925.214-2.57-.107-5.035-.107-7.392-.428-2.036-.215-4.714-1.286-6.75-.43-3.214 1.18-3.857 2.25-3.535 3.215.858.642-2.142 4.713-2.142 6.75l-.214 5.355c-.107 7.928-.643 15.213-2.464 22.927-.857 4.07-2.893 9.857-1.393 13.928.857 2.678 2.893 4.5 4.07 6.856 2.037 4.393 2.144 9.75 1.93 14.464l-1.286 46.068c-.535 15.32-1.5 30.747-.856 46.175.535 14.25 2.785 28.82.857 42.96-.642 4.715-6.32 13.07-.856 16.392 3.107 1.822 6.75 2.25 10.285 2.572 8.677.535 17.355-.43 26.14-1.393 3.214-.43 6.428-1.07 9.642-1.07 2.464-.11 4.714.213 7.07 1.07 2.036.75 5.143 2.143 7.5 2.143.107.107 3.857-.108 4.07-1.18 3.215-1.392 6-2.463 10.072-1.713 3.964.75 7.5 1.286 11.678.536 2.142-.43 5.356-.643 7.5-.108l.856.643c.857-.428-.536 1.072-1.393 1.393-4.82 1.928-3.32 8.142-3.856 12.32 0 .43-.537.536-.75.536-1.93 0-4.608 0-5.68-2.035-2.25-4.18-7.713-7.072-7.713 1.713 0 .535-.43.75-.75.75-.43 0-.75-.215-.75-.75 0-.536-5.678-3.536-6.32-3.857-2.787-1.5-6-3.32-9.322-2.143-2.035.643-3.75 1.822-5.678 2.68-3.428 4.177-7.07 8.677-12.106 5.998-1.07-.534-5.25-4.177-6.106-3.427-1.178 1.285-2.464 2.57-4.07 3.214-4.608 1.82-9.43 1.5-14.357 1.393-.214 0-.75-.215-.75-.643-.214-1.93-1.286-5.785-3.964-3.428-.643.534-1.18 1.07-1.82 1.713-.75.643-1.715 1.5-2.68 1.928-3.214 1.287-13.07-.427-14.356-2.677-1.07-1.714-1.393-3.43-1.82-5.357-.75-4.714-.215-9.856-.43-14.677-.428-12.108-1.285-24-2.25-36.106-.535-6.107-1.07-12.428-.535-18.64.214-3.965.428-9.43 2.464-13.072 1.714-2.892.536-5.25-1.714-7.392-.536-.643-.75-1.82-.75-2.57-.43-4.5.428-9.215.643-13.715.214-3.32.75-6.642.75-9.963 0-2.57-.536-5.036-.75-7.5-.107-1.285-.215-2.57.535-3.75 1.5-2.142 1.286-3.32.43-5.785-1.715-4.714 0-10.392.213-15.32.43-5.785.643-11.463 0-17.356C1.4 82.334.115 76.12.543 69.585c.43-5.892.75-11.25 1.072-17.034.535-10.5.535-21.106.214-31.605v2.464S.97 10.016 6.542 6.802C15.113 2.09 25.506 2.84 34.826 2.41c12.107-.535 24.32.643 36.426.643 7.07 0 14.035-.107 20.892-1.714 4.82-1.072 9.642-1.5 14.57-1.286 6 .428 11.785 1.928 17.677 2.464 5.894.535 11.68.214 17.57-.107 12.75-.857 25.607-.535 38.356 0l19.927.858c3.107.107 6.642.857 9.642.107l5.678-1.93c4.178-1.177 7.07-.106 11.142.858l15 3.536c1.713-.43 3.32-.537 4.606.75 2.786 2.57.108 5.784 2.143 8.677 2.464 3.428 4.714 5.678 5.25 10.07.536 4.714.75 9.857-.75 14.464-1.07 3.108-2.464 6.43-1.178 9.75.75 2.035 2.142 3.964 2.678 6.107 1.07 4.606 1.07 9.213.75 13.927-.214 5.357-.536 10.82-1.18 16.07-.427 3.43-1.82 6.75-1.927 10.07-.107 2.787.75 5.143 1.286 7.822 1.82 8.785-5.893 14.356-7.286 22.39-.75 4.394 4.18 2.465 6.428 5.036 1.393 1.715.643 4.5.536 6.32-.536 4.715.857 9.322.643 14.036-.214 5.892-2.036 10.713-.643 16.606.75 3.32 1.393 6.642.643 9.963-.75 3.322-4.607 11.678.536 13.178.213 0 .427.214.427.536 0 1.5-.214 2.572-.857 3.965-2.25 5.142 1.286 4.07 1.93 7.392.64 3.107-1.18 4.178-1.716 7.07-.75 4.608 1.715 8.143 1.5 12.643-.107 4.178-2.464 6.535-1.714 10.392.214 0 .536.214.536.536.428 2.035.643 4.392-.107 6.428-1.073 2.892-2.25 3.75 1.07 5.464.857-.643.857.107.32.428zM199.6 103.76c-2.036-12.535-3.214-25.605-7.392-37.604-1.822-5.036-2.68-10.5-8.57-11.464-7.715-1.285-5.144 5.143-4.072 11.25 1.5 9.427 2.142 19.07 4.606 28.39 1.715 6.428 4.822 14.035-3.75 9.107-14.355-8.68-19.284-27.642-25.07-41.784-2.57-6.428-10.07-21.748-15.212-25.605-2.464-1.82-14.57-4.5-16.927-2.892-5.036 3.43 10.5 27.534 12.642 31.82 4.714 9.64 9.75 19.176 15.856 27.854 4.393 6.107 11.25 11.785 1.5 15.428-10.07 3.857-14.998-1.822-21.855-7.07-5.464-4.072-12.428-4.715-19.284-5.465-18.855-2.25-36.747-.107-51.853 12.428-7.285 6.106-11.892 14.463-15.748 23.034-1.073 2.142-7.287 21.105-6.43 21.212-3.856-.643-1.5-9.643-6.428-4.393-4.392 4.607 1.286 17.89 3.214 22.498 4.393 10.285 9 20.356 12.428 31.07 3.428 10.713 4.178 10.498 14.035 11.356 12.534 1.18 24.854-2.678 37.175-4.178 0 0-21.856-13.606 21.32 1.286 9.642 3.32 19.82 2.464 29.89 2.785 7.178-1.714 7.392-14.034 11.142-19.82 1.393-2.142 8.357-13.07 10.5-13.927 3.106-1.18 7.5 2.035 10.606 2.464 17.998 2.786 23.57-12 20.677-26.462-2.464-12.642-1.072-26.784.75-36.533.75-3.643-3.107-11.464-3.75-14.785zm-80.458 153.846c-1.93-1.822-4.82-2.25-6.75-4.178-1.07-1.18-1.393-2.25-1.178-3.536 0 0-.108 0-.108-.107-1.392-2.57 1.822-4.714 4.072-3.857 1.178.536 2.892 1.286 3.107 2.678.107 1.822-1.072 3.107-1.393 4.714 1.285.75 2.57 2.572 3.214 3.43.428.75-.43 1.39-.964.856z" fill="#C1272D"/></svg>