<svg width="256" height="417" viewBox="0 0 256 417" xmlns="http://www.w3.org/2000/svg" preserveAspectRatio="xMinYMin meet"><path d="M250.74 169.278c0 69.457-55.07 125.817-123.038 125.817-67.97 0-123.038-56.36-123.038-125.817 0-69.458 55.07-125.818 123.038-125.818 67.97 0 123.04 56.36 123.04 125.818" fill="#D33833"/><path d="M9.724 200.434S.794 69.26 121.75 65.488l-8.435-14.09-65.588 22.028-18.753 21.532-16.372 31.355-9.328 36.515 2.78 24.41" fill="#EF3D3A"/><path d="M43.46 83.448c-21.53 22.127-34.927 52.59-34.927 86.326 0 33.736 13.396 64.198 34.927 86.325 21.63 22.126 51.3 35.72 84.242 35.72 32.943 0 62.61-13.594 84.242-35.72 21.532-22.128 34.927-52.59 34.927-86.326 0-33.737-13.394-64.2-34.926-86.326-21.63-22.028-51.3-35.72-84.242-35.72-32.843 0-62.61 13.593-84.242 35.72zm-5.457 177.91C15.083 237.94.893 205.495.893 169.774c0-35.72 14.19-68.168 37.11-91.684 22.92-23.417 54.673-38.003 89.7-38.003 35.026 0 66.778 14.586 89.7 38.003 22.92 23.417 37.11 55.863 37.11 91.684 0 35.72-14.19 68.167-37.11 91.584-22.922 23.516-54.674 38.003-89.7 38.003-35.027 0-66.78-14.486-89.7-38.002z" fill="#231F20"/><path d="M179.498 169.972l-18.754 2.778-25.302 2.878-16.372.397-15.975-.496-12.205-3.772-10.816-11.708-8.434-23.914-1.885-5.16-11.212-3.77-6.55-10.815-4.663-15.478 5.16-13.594 12.205-4.267 9.823 4.665 4.663 10.32 5.657-.894 1.885-2.38-1.885-10.816-.496-13.594 2.78-18.753-.1-10.716 8.533-13.692 14.983-10.816L136.732 5.16l29.073 4.266 25.302 18.258 11.71 18.753 7.54 13.594 1.885 33.737-5.656 29.073-10.32 25.8-9.723 13.79" fill="#F0D6B7"/><path d="M163.622 251.04l-66.977 2.777v11.212l5.656 39.392-2.778 3.274-46.834-15.975-3.274-5.655-4.664-52.986-11.014-31.753-2.38-7.54 37.506-25.8 11.71-4.663 10.318 12.7 8.93 7.94 10.32 3.273 4.663 1.39 5.656 24.41 4.266 5.158 10.815-3.77L128 229.01l40.682 19.25-5.06 2.78" fill="#335061"/><path d="M52.49 87.516l12.205-4.266 9.823 4.663 4.663 10.32 5.657-.893 1.39-5.656-2.78-10.816 2.78-25.798-2.382-14.09 8.434-9.823 18.256-14.487-5.16-7.045-25.798 12.7-10.815 8.435-6.053 13.097-9.327 12.7-2.778 14.984 1.885 15.976" fill="#6D6B6D"/><path d="M71.74 43.46s7.044-17.364 35.125-25.798c28.08-8.434 1.39-6.053 1.39-6.053L77.79 23.317 66.084 35.026l-5.16 9.327 10.816-.893M57.65 84.242s-9.824-32.844 27.683-37.507l-1.39-5.656-25.797 6.052-7.54 24.41 1.884 15.974 5.16-3.274" fill="#DCD9D8"/><path d="M72.633 127.802l6.15-5.954s2.78.298 3.276 3.572c.495 3.275 1.884 32.844 22.027 48.72 1.885 1.488-14.983-2.382-14.983-2.382L74.12 148.34M158.86 118.87s1.09-14.188 4.96-13.096c3.87 1.09 3.87 4.96 3.87 4.96s-9.327 5.954-8.83 8.137M197.755 66.878s-7.74 1.587-8.434 8.434c-.694 6.846 8.435 1.39 9.824.893M141.098 67.374s-10.32 1.39-10.32 7.938 11.71 6.052 14.983 3.274M77.395 97.836S59.635 87.02 57.75 97.34c-1.886 10.32-6.054 17.76 2.777 28.576l-6.053-1.885-5.655-14.486-1.887-14.09L57.75 84.242l12.203.893 7.045 5.656.397 7.046M85.83 68.267s7.937-41.278 48.223-49.216c33.14-6.548 50.604 1.39 57.153 8.93 0 0-29.57-35.124-57.65-24.408-28.08 10.816-48.72 30.462-48.223 43.064.794 21.63.496 21.63.496 21.63M194.48 32.645s-13.593-.496-14.09 11.708c0 0 0 1.886.894 3.77 0 0 10.815-12.204 17.364-5.655" fill="#F7E4CD"/><path d="M135.045 49.414s-2.38-18.654-18.257-7.84c-10.32 7.046-9.328 16.87-7.54 18.755 1.884 1.884 1.388 5.654 2.777 3.075 1.39-2.58.992-11.014 6.152-13.396 5.06-2.382 13.594-4.962 16.868-.596" fill="#F7E4CD"/><path d="M90.99 176.025L46.932 195.67s18.258 72.634 8.93 95.158l-6.548-2.38-.496-27.685-12.206-52.39-5.16-14.488 45.94-30.958 13.595 13.098M95.454 216.21l6.25 7.64v28.082h-7.44s-.893-19.647-.893-22.028c0-2.382.894-10.816.894-10.816M95.653 256.198l-21.135.893 6.053 4.268 14.983 2.382" fill="#49728B"/><path d="M167.79 251.535l17.363-.496 4.267 43.062-17.76 2.382-3.87-44.95" fill="#335061"/><path d="M172.453 251.535l26.195-1.39s10.816-27.187 10.816-28.576c0-1.39 9.327-39.393 9.327-39.393l-21.134-22.028-4.267-3.772-11.213 11.213v43.56l-9.724 40.385" fill="#335061"/><path d="M184.16 248.26l-16.37 3.275 2.38 13.098c6.053 2.778 16.373-4.664 16.373-4.664M184.657 166.202l32.844 24.41.894-11.214-24.806-22.92-8.93 9.724" fill="#49728B"/><path d="M111.926 343.814l-9.724-39.392-4.862-29.073-.794-21.533 43.956-2.38h27.287l-2.48 49.214 4.265 38.004-.496 7.045-35.623 2.778-21.53-4.664" fill="#FFF"/><path d="M161.736 251.04s-2.38 48.718 4.664 83.447c0 0-14.09 8.93-34.63 11.212l39.393-1.39 4.663-2.778-5.655-76.8-1.488-16.472" fill="#DCD9D8"/><path d="M190.115 290.43l18.257-5.16 34.63-1.884 5.16-15.975-9.328-27.683-10.815-1.39-14.984 4.665-14.29 7.045-7.64-1.39-5.953 2.382" fill="#FFF"/><path d="M189.817 281.005s12.205-5.656 14.09-5.16l-5.16-25.798 6.053-2.382s4.267 24.41 4.267 27.188c0 0 26.195 1.39 28.576 1.39 0 0 5.656-10.817 4.267-22.03l5.16 14.984.496 8.434-7.54 11.213-8.435 1.886-14.09-.497-4.663-6.053-16.372 2.38-5.16 1.887" fill="#DCD9D8"/><path d="M171.36 247.764l-10.318-26.195-10.816-15.48s2.382-6.55 5.656-6.55h10.816l10.32 3.772-.894 17.364-4.763 27.088" fill="#FFF"/><path d="M173.445 238.834s-13.098-25.302-13.098-29.073c0 0 2.382-5.655 5.656-4.265 3.275 1.39 10.32 5.16 10.32 5.16v-8.93l-15.976-3.275-10.815 1.39 18.257 43.26 3.77.497" fill="#DCD9D8"/><path d="M116.093 177.017l-12.998-1.39-12.205-3.77v4.267l5.953 6.55 18.754 8.433" fill="#FFF"/><path d="M95.157 178.406s14.486 6.053 19.25 4.664l.495 5.656-13.097-2.78-7.938-5.655 1.29-1.884" fill="#DCD9D8"/><path d="M190.115 201.13c-7.938-.2-15.182-1.192-21.433-2.978.397-2.58-.397-5.06.298-6.946 1.786-1.29 4.663-1.29 7.342-1.587-2.282-1.093-5.556-1.59-8.136-.894-.1-1.786-.893-2.878-1.39-4.267 4.466-1.59 14.984-12.007 20.937-8.634 2.878 1.687 4.07 11.014 4.267 15.678.198 3.77-.397 7.54-1.885 9.625" fill="#D33833"/><path d="M190.115 201.13c-7.938-.2-15.182-1.192-21.433-2.978.397-2.58-.397-5.06.298-6.946 1.786-1.29 4.663-1.29 7.342-1.587-2.282-1.093-5.556-1.59-8.136-.894-.1-1.786-.893-2.878-1.39-4.267 4.466-1.59 14.984-12.007 20.937-8.634 2.878 1.687 4.07 11.014 4.267 15.678.198 3.77-.397 7.54-1.885 9.625z" stroke="#D33833" stroke-width="2"/><path d="M152.112 188.13c0 .596 0 1.19-.1 1.786-2.48 1.588-6.45 1.588-9.228 2.977 3.97.198 7.145 1.19 9.923 2.48-.1 1.49-.1 3.077-.198 4.565-4.566 3.076-8.733 7.74-14.09 10.716-2.58 1.39-11.412 4.962-14.09 4.267-1.49-.396-1.688-2.28-2.283-4.067-1.29-3.77-4.267-9.923-4.565-15.678-.298-7.243-1.09-19.448 6.747-17.96 6.35 1.19 13.692 4.07 18.554 6.748 3.076 1.786 4.763 3.77 9.328 4.167" fill="#D33833"/><path d="M152.112 188.13c0 .596 0 1.19-.1 1.786-2.48 1.588-6.45 1.588-9.228 2.977 3.97.198 7.145 1.19 9.923 2.48-.1 1.49-.1 3.077-.198 4.565-4.566 3.076-8.733 7.74-14.09 10.716-2.58 1.39-11.412 4.962-14.09 4.267-1.49-.396-1.688-2.28-2.283-4.067-1.29-3.77-4.267-9.923-4.565-15.678-.298-7.243-1.09-19.448 6.747-17.96 6.35 1.19 13.692 4.07 18.554 6.748 3.076 1.786 4.763 3.77 9.328 4.167z" stroke="#D33833" stroke-width="2"/><path d="M156.577 196.763c-.695-3.97-1.49-5.06-1.19-8.534 10.616-7.046 12.5 12.105 1.19 8.533" fill="#D33833"/><path d="M156.577 196.763c-.695-3.97-1.49-5.06-1.19-8.534 10.616-7.046 12.5 12.105 1.19 8.533z" stroke="#D33833" stroke-width="2"/><path d="M171.857 199.938s-3.274-4.664-.893-6.053c2.382-1.39 4.664 0 6.053-2.38 1.39-2.383 0-3.772.496-6.55s2.778-3.274 5.16-3.77c2.38-.497 8.93-1.39 9.823.893l-2.778-8.435-5.656-1.885-17.76 10.32-.894 5.16v10.32M122.642 215.417c-.595-7.343-1.19-14.586-1.786-21.93-.992-10.913 2.58-9.028 12.105-9.028 1.49 0 8.93 1.686 9.428 2.777 2.58 5.26-4.267 4.068 2.976 8.037 6.053 3.275 16.87-1.984 14.388-9.426-1.39-1.687-7.144-.496-9.228-1.588l-11.014-5.655c-4.663-2.382-15.38-5.954-20.34-2.58-12.603 8.533.793 29.966 5.258 38.896" fill="#EF3D3A"/><path d="M135.045 49.414c-12.8-2.977-19.15 5.358-23.02 13.99-3.473-.793-2.084-5.556-1.19-7.937 2.28-6.25 11.51-14.686 19.05-13.495 3.175.397 7.54 3.374 5.16 7.442M197.26 63.9h.594c2.878 5.954 5.358 12.305 9.03 17.663-2.48 5.755-18.456 10.716-18.258.595 3.473-1.488 9.427-.298 12.503-2.282-1.787-4.862-4.268-9.03-3.87-15.975M141.495 64.1c2.778 5.06 3.67 10.32 7.54 14.09 1.787 1.686 5.16 3.77 3.474 8.532-.398 1.092-3.276 3.573-4.963 4.07-6.052 1.785-20.242.396-15.48-7.245 5.062.2 11.81 3.275 15.58-.397-2.878-4.564-8.038-13.693-6.152-19.05M194.977 115.1c-9.13 5.855-19.35 12.305-34.43 10.816-3.176-2.778-4.466-9.03-1.29-13.097 1.586 2.777.594 7.937 5.16 8.73 8.532 1.49 18.454-5.26 24.606-7.54 3.77-6.45-.297-8.732-3.77-12.9-7.045-8.434-16.372-18.952-16.075-31.553 2.878-2.084 3.076 3.175 3.473 4.068 3.672 8.533 12.9 19.547 19.548 26.89 1.687 1.786 4.366 3.572 4.664 4.763.893 3.373-2.282 7.54-1.885 9.823M74.12 108.95c-2.877-1.688-3.57-8.832-6.945-9.03-4.862-.298-3.97 9.327-3.97 14.982-3.273-2.976-3.87-12.304-1.487-17.066-2.778-1.39-3.97 1.488-5.557 2.48 2.085-14.387 21.136-6.648 17.96 8.633M200.732 121.153c-4.267 8.137-10.32 17.067-22.822 17.365-.298-2.58-.496-6.648 0-8.236 9.625-.992 15.578-5.854 22.822-9.13M140.8 126.412c7.938 4.168 22.623 4.664 33.538 4.366.595 2.382.595 5.358.595 8.236-13.99.595-30.462-2.878-34.133-12.602M139.312 134.152c5.556 13.89 24.508 12.304 40.483 11.907-.694 1.785-2.183 3.968-4.167 4.662-5.16 2.084-19.25 3.672-26.394-.1-4.465-2.38-7.442-7.838-9.922-11.013-1.092-1.49-7.045-5.36 0-5.458" fill="#231F20"/><path d="M194.282 210.654c-6.45 11.113-12.7 22.524-20.34 32.248 3.174-9.426 4.563-25.302 5.06-37.407 6.747-3.176 12.502.694 15.28 5.16" fill="#81B0C4"/><path d="M229.11 250.543c-7.243 1.488-12.304 8.533-19.448 8.037 3.97-5.458 10.716-7.84 19.448-8.037M232.285 261.854c-5.953.596-12.9 1.588-18.852 1.092 2.877-4.366 13.792-2.78 18.852-1.092M234.37 271.678c-6.65.1-14.885 0-21.235-.497 3.77-4.067 16.967-1.487 21.234.498" fill="#231F20"/><path d="M181.78 298.468c.992 8.335 4.267 16.77 3.87 25.898-3.672 1.19-5.755 2.282-10.717 2.282-.297-7.74-1.39-19.646-1.09-27.088 2.38.198 5.952-1.687 7.937-1.092" fill="#DCD9D8"/><path d="M171.064 175.43c-3.374 2.182-6.152 4.86-9.427 7.243-7.144.397-11.014-.496-16.173-4.564.1-.3.595-.2.595-.597 7.64 3.374 17.363-1.39 25.004-2.084" fill="#F0D6B7"/><path d="M131.175 227.324c2.084-9.03 10.32-13.792 17.76-18.753 7.642 9.725 12.305 22.227 17.465 34.332-12.205-3.67-24.608-9.525-35.225-15.578" fill="#81B0C4"/><path d="M173.842 299.66c-.298 7.44.694 19.25 1.09 27.087 4.963 0 7.046-1.09 10.718-2.282.397-9.13-2.878-17.563-3.87-25.898-1.985-.694-5.557 1.19-7.938 1.092zM97.24 257.587c3.275 29.866 7.938 54.87 16.57 81.364 19.15 5.854 42.17 6.35 59.14 1.09-3.077-14.882-1.787-33.04-3.573-49.016-1.39-12.006-.695-24.012-2.58-36.217-20.54-4.267-49.513-.993-69.557 2.778zm74.42-2.58c-.2 12.8.594 25.5 1.587 38.3 4.96-.694 8.235-1.19 12.8-2.282-1.49-12.304-1.29-26.294-4.366-37.21-3.472.1-6.548 0-10.02 1.192zm24.904-2.084c-2.38-.496-5.06 0-7.243 0 1.092 10.42 3.573 21.93 4.466 32.943 3.473.1 5.358-1.588 8.236-2.084.198-9.625-.794-22.92-5.458-30.86zm37.805 34.53c7.342-1.786 11.906-10.716 9.822-19.944-1.39-6.152-3.77-17.86-6.45-21.83-1.885-2.877-7.144-6.747-11.41-4.068-6.847 4.366-18.853 5.656-23.814 10.915 2.48 8.335 3.274 19.647 4.266 30.164 8.534.498 18.952-2.38 26.097.696-4.96 1.588-11.31 1.588-15.578 3.97 3.572 1.686 11.71 1.388 17.067.098zm-68.07-44.552c-5.16-12.105-9.822-24.607-17.463-34.33-7.442 4.96-15.578 9.723-17.76 18.752 10.715 6.053 23.118 11.907 35.224 15.578zm12.702-37.407c-.497 12.105-1.886 27.98-5.06 37.407 7.64-9.823 13.89-21.135 20.34-32.248-2.778-4.465-8.533-8.335-15.28-5.16zm-14.388-5.06c-2.878-.3-5.358 3.373-9.13 1.785-.892.992-1.686 1.985-2.58 2.977 8.336 10.12 12.206 24.41 18.656 36.217 3.473-11.41 3.076-23.814 3.87-36.217-4.763.198-7.442-4.465-10.816-4.763zm-9.228-12.206c-.298 3.472.496 4.564 1.19 8.533 11.312 3.572 9.427-15.58-1.19-8.534zm-12.602-4.168c-4.862-2.68-12.204-5.557-18.555-6.747-7.84-1.49-7.046 10.716-6.748 17.96.298 5.754 3.275 11.807 4.565 15.677.595 1.786.793 3.67 2.282 4.068 2.678.596 11.608-2.877 14.09-4.267 5.357-2.877 9.524-7.54 14.09-10.716.098-1.488.098-3.076.197-4.564-2.778-1.39-5.854-2.282-9.923-2.48 2.68-1.39 6.748-1.39 9.228-2.977 0-.596 0-1.19.1-1.787-4.565-.497-6.252-2.48-9.328-4.168zm-46.635-8.434c-4.07 4.167 11.41 9.724 16.272 10.022 0-2.58 1.488-5.06 1.19-6.946-5.854-.992-13.494-.298-17.463-3.076zm50.008 1.885c0 .397-.496.298-.595.596 5.26 4.067 9.128 4.96 16.173 4.563 3.176-2.282 6.053-5.06 9.427-7.244-7.74.694-17.464 5.457-25.005 2.083zM192 191.405c-.198-4.565-1.39-13.99-4.267-15.678-5.953-3.473-16.47 7.045-20.936 8.633.496 1.39 1.29 2.48 1.39 4.266 2.678-.694 5.853-.198 8.135.893-2.68.297-5.556.297-7.342 1.587-.596 1.885.198 4.366-.298 6.946 6.25 1.786 13.495 2.68 21.433 2.976 1.488-1.985 2.083-5.756 1.885-9.625zM89.302 179.597c-1.29-.893-9.922-12.106-11.113-11.61-15.58 6.153-30.165 16.77-43.164 26.89 12.403 26.692 17.464 59.337 18.357 90.79 14.19 6.65 26.69 16.274 46.04 17.266-2.282-15.776-4.266-29.966-5.556-44.85-4.862-2.083-11.808.1-16.372-.595 0-5.457 6.945-2.38 7.54-6.052.398-2.78-3.87-2.977-2.48-7.343 3.572 1.29 5.457 4.167 9.228 5.26 3.473-7.542 0-20.937.496-27.288.098-1.19.594-6.55 3.273-5.656 2.382.793-.1 14.387.1 20.34.198 5.557-.695 10.816 1.587 14.29 18.655-2.58 37.607-4.17 57.848-4.764-4.465-1.885-9.724-3.67-15.48-6.946-3.174-1.786-12.997-5.457-13.89-8.434-1.49-4.763 3.77-7.243 4.663-11.312-9.425 5.16-11.21-4.96-13.493-12.006-1.985-6.45-3.175-11.31-3.67-14.983-8.237-4.167-16.97-8.037-23.915-12.998zm94.462-10.32c13-6.25 15.38 23.517 10.22 33.142.794 2.876 3.473 3.968 4.565 6.547-7.245 13-15.282 25.104-22.724 37.904 5.458-3.472 13.396-.594 19.845-3.174 2.383-.893 4.07-6.35 5.856-10.716 4.96-11.907 10.12-26.99 12.403-38.3.495-2.58 1.983-8.237 1.586-10.52-.595-4.166-6.152-7.242-9.03-9.723-5.258-4.763-8.533-8.83-14.09-13.296-2.083 3.276-6.846 5.458-8.632 8.138zm-124.13-115.2c-6.152 6.847-4.862 19.548-4.167 28.676 11.212-7.044 25.997.596 25.897 12.503 5.358-.1 1.985-6.648.993-10.915-3.176-13.79 5.358-28.675.396-41.276-9.624.793-17.463 4.663-23.12 11.014zm44.254-39.59c-13.99 3.97-31.95 14.19-37.705 26.79 4.465-.694 7.54-2.877 11.907-3.175 1.687-.1 3.87.695 5.755.2 3.77-.993 7.045-9.527 9.922-12.702 2.78-3.076 6.152-4.465 8.435-7.243 1.488-.695 3.67-.695 3.77-2.878-.595-.696-1.29-1.192-2.084-.993zm72.93 3.77c-14.585-8.235-39.193-14.387-54.672-6.648-12.503 6.25-29.37 16.57-35.126 29.568 5.358 12.602-1.587 24.112-2.084 36.912-.198 6.846 3.176 12.7 3.473 20.143-1.886 3.076-7.443 3.373-11.312 3.175-1.29-6.55-3.572-13.892-10.32-14.686-9.525-1.09-16.57 6.847-16.967 15.083-.495 9.724 7.443 25.798 18.754 24.707 4.366-.397 5.458-4.763 10.22-4.763 2.58 5.16-3.968 6.746-4.663 10.417-.198.993.497 4.664.993 6.45 2.084 8.434 6.648 19.448 11.113 25.898 5.755 8.235 16.968 9.426 29.073 10.22 2.182-4.664 10.12-4.267 15.28-3.076-6.25-2.482-12.006-8.435-16.77-13.694-5.457-6.053-11.013-12.502-11.31-20.44 10.418 14.387 18.95 26.99 37.804 33.34 14.288 4.762 30.958-2.184 41.972-9.923 4.564-3.176 7.243-8.335 10.518-12.9 12.105-17.463 17.76-42.27 16.57-66.38-.496-9.923-.496-19.846-3.87-26.494-3.472-6.947-15.28-13.297-22.226-6.947-1.29-6.846 5.755-11.014 13.99-8.533-5.853-7.64-12.005-16.67-20.44-21.433zm27.188 224.348c11.41-5.656 32.645-15.182 39.69 0 2.68 5.655 5.755 15.082 7.045 20.936 1.886 8.138-2.083 25.403-10.517 28.082-7.442 2.38-16.074 2.282-25.004.496-1.093-.893-2.184-2.382-3.077-3.97-6.35-.198-12.403.3-17.365 2.978.496 4.762-2.68 5.457-5.755 6.45-2.183 8.83 4.465 20.34 2.878 28.278-1.09 5.755-8.136 6.648-13.295 7.64-.2 3.176.198 5.855.595 8.534-1.19 4.366-6.45 6.846-11.51 7.442-16.57 1.984-41.674 2.877-57.55-2.878-4.466-10.914-7.938-24.11-11.61-36.514-15.48 1.686-28.08-6.65-39.888-12.205-4.068-1.885-9.724-2.977-11.312-6.25-1.488-3.176-.893-9.23-1.29-14.885-.893-14.586-1.786-28.676-5.556-43.56-1.687-6.747-4.763-12.6-6.847-19.05-1.984-5.954-5.358-13.396-6.25-19.35-1.29-8.83 7.044-9.327 12.303-13.197 8.236-5.952 14.685-9.227 23.615-14.585 2.68-1.587 10.617-5.556 11.51-7.442 1.787-3.67-3.075-8.83-4.365-11.708-2.084-4.564-3.176-8.434-3.473-12.9-7.442-1.19-13.197-5.655-16.57-10.616-5.657-8.336-9.626-23.716-4.664-35.325.397-.893 2.282-2.78 2.58-4.168.595-2.778-1.092-6.45-1.19-9.426-.497-15.18 2.58-28.278 12.8-32.843 4.166-16.57 19.05-22.027 33.04-30.263 5.26-3.076 11.015-5.06 16.968-7.244 21.334-7.838 54.178-6.35 71.94 7.045 7.54 5.656 19.546 17.662 23.813 26.394 11.41 22.92 10.518 61.32 2.58 89.302-1.092 3.77-2.58 9.227-4.763 13.792-1.488 3.175-6.152 9.426-5.656 12.204.596 2.878 10.717 10.518 12.9 12.602 3.87 3.77 11.31 8.732 11.906 13.495.695 5.06-2.182 12.006-3.67 16.868-4.764 16.273-9.526 31.256-14.984 45.842z" fill="#231F20"/><path d="M128.1 129.885c.595-.794 3.968-2.083 8.73.2 0 0-5.655.892-5.16 10.318l-2.38-.496c.1.1-2.38-8.434-1.19-10.022" fill="#F7E4CD"/><path d="M169.178 210.456c0 1.39-1.19 2.58-2.58 2.58-1.39 0-2.58-1.19-2.58-2.58 0-1.39 1.19-2.58 2.58-2.58 1.49 0 2.58 1.19 2.58 2.58M171.758 222.462c0 1.39-1.19 2.58-2.58 2.58-1.39 0-2.58-1.19-2.58-2.58 0-1.39 1.19-2.58 2.58-2.58 1.49 0 2.58 1.092 2.58 2.58" fill="#1D1919"/><g fill="#231F20"><path d="M36.614 374.276c-.794.1-1.488.198-2.084.298-.595.1-1.19.198-1.984.397-.893.2-1.39.596-1.588 1.19-.198.597-.397 1.192-.397 1.986v24.21c0 2.184-.495 4.267-1.388 6.153-.893 1.884-2.084 3.372-3.67 4.662-1.59 1.19-3.375 2.183-5.36 2.778-1.984.596-4.068.993-6.25.993-3.87 0-6.946-.893-9.328-2.78-2.38-1.884-3.572-4.365-3.572-7.64 0-1.884.496-3.472 1.588-4.762 1.09-1.29 2.58-1.884 4.465-1.884 1.786 0 3.175.496 4.267 1.588 1.09 1.09 1.587 2.38 1.587 3.87 0 1.29-.497 2.58-1.39 3.67-.893 1.092-1.984 2.184-3.175 3.077v.398c.198.396.595.793 1.19 1.09.596.3 1.29.398 1.886.398 2.48 0 4.466-.893 5.855-2.68 1.39-1.785 2.084-4.464 2.084-8.036v-24.807c0-.694-.1-1.39-.3-1.885-.197-.496-.793-.893-1.686-1.29-.595-.297-1.39-.496-2.282-.694-.893-.2-1.587-.298-2.183-.397v-2.382h23.416v2.48h.298zM73.327 408.41c-.694 1.19-1.587 2.28-2.58 3.373-.992 1.09-2.183 1.885-3.473 2.68-1.39.793-2.778 1.388-4.167 1.785-1.39.397-3.076.595-4.862.595-3.076 0-5.656-.396-7.938-1.29-2.183-.893-4.068-1.984-5.457-3.472-1.49-1.488-2.48-3.175-3.275-5.16-.694-1.984-1.09-4.167-1.09-6.45 0-2.082.396-4.166 1.19-6.05.793-1.887 1.885-3.673 3.274-5.16 1.388-1.49 3.174-2.68 5.357-3.573 2.183-.893 4.564-1.39 7.144-1.39 2.88 0 5.26.398 7.145 1.092 1.886.694 3.374 1.686 4.565 2.877 1.19 1.19 1.984 2.58 2.58 4.167.496 1.588.793 3.275.793 5.06v1.985H51.597c0 4.266.794 7.44 2.48 9.624 1.588 2.183 4.267 3.274 7.74 3.274 1.985 0 3.67-.496 5.26-1.587 1.587-1.09 2.876-2.38 3.968-4.068l2.282 1.687zM61.52 396.6c0-1.19-.1-2.48-.2-3.77-.098-1.29-.297-2.382-.694-3.176-.397-.992-.793-1.687-1.488-2.183-.595-.496-1.39-.695-2.282-.695-1.588 0-2.878.794-3.77 2.382-.993 1.587-1.49 4.167-1.588 7.64l10.02-.198zM117.085 415.752H98.43v-2.282c.398 0 .894-.1 1.39-.2.596-.098.992-.197 1.29-.296.397-.2.695-.596.893-.993.2-.396.298-1.09.298-1.884V395.61c0-2.084-.396-3.672-1.19-4.763-.794-1.092-1.885-1.588-3.473-1.588-.794 0-1.587.098-2.282.396-.695.198-1.39.595-2.084 1.09-.594.398-1.09.795-1.487 1.29-.397.398-.695.795-.893 1.192v16.57c0 .695.1 1.29.298 1.786.198.497.595.894.992 1.092.298.198.694.397 1.19.496.497.1.993.2 1.49.298v2.282H76.005v-2.282c.496 0 .992-.1 1.588-.2.496-.098.992-.197 1.39-.296.694-.2 1.09-.596 1.388-1.092.2-.496.397-1.09.397-1.885v-18.06c0-.594-.2-1.29-.497-1.884-.298-.596-.794-1.092-1.29-1.49-.397-.197-.794-.495-1.39-.594-.595-.2-1.19-.3-1.884-.3v-2.28l14.783-.795.496.496v4.467h.098c.596-.497 1.29-1.092 2.084-1.886.794-.693 1.588-1.29 2.282-1.785.794-.496 1.786-.893 2.977-1.29 1.192-.397 2.58-.496 3.97-.496 3.374 0 5.854.99 7.54 2.877 1.688 1.885 2.482 4.465 2.482 7.64v15.18c0 .795.1 1.39.297 1.787.198.497.694.794 1.29 1.092.297.1.694.298 1.19.397.496.1.992.198 1.687.298v2.382h.198zM159.752 415.752h-14.586c-1.786-3.175-3.473-5.854-4.96-8.037-1.49-2.183-2.88-4.267-4.17-6.053l-1.785 1.588v6.747c0 .694.1 1.39.3 1.786.197.496.594.794 1.29 1.09.396.2.793.3 1.29.398.495.1.99.2 1.487.2v2.282h-19.25v-2.282c.497 0 .993-.1 1.588-.2.496-.098.992-.197 1.39-.296.694-.2 1.09-.596 1.388-1.092.2-.496.397-1.09.397-1.885v-34.53c0-.695-.198-1.39-.496-2.084-.298-.695-.694-1.29-1.29-1.687-.397-.198-.992-.496-1.786-.595-.794-.198-1.488-.297-2.183-.297v-2.282l15.38-.793.496.496v31.95c1.49-1.39 3.276-2.976 5.16-4.762 1.886-1.785 3.474-3.274 4.565-4.464.695-.695 1.092-1.19 1.092-1.588.1-.397.1-.595.1-.694 0-.397-.3-.695-.993-.893-.695-.198-1.588-.496-2.977-.694v-2.183h15.677v2.183c-2.083.595-3.67 1.09-4.762 1.588-1.092.496-2.283 1.19-3.572 1.984-.893.595-1.687 1.19-2.48 1.786-.795.595-1.688 1.39-2.78 2.282 1.985 2.977 3.87 5.656 5.557 8.137 1.687 2.48 3.473 5.16 5.358 7.938.596.993 1.39 1.588 2.382 1.985.992.298 1.885.496 2.877.596v2.382h.298zM179.597 415.752H160.05v-2.282c.496 0 1.09-.1 1.587-.2.496-.098.992-.197 1.29-.296.695-.2 1.092-.596 1.39-1.092.297-.496.396-1.09.396-1.885v-18.06c0-.694-.198-1.388-.496-1.884-.298-.596-.695-.993-1.19-1.29-.398-.2-.894-.496-1.687-.695-.794-.198-1.49-.397-2.084-.397v-2.28l15.18-.795.497.496v24.61c0 .694.2 1.29.496 1.884.297.497.793.894 1.29 1.092.396.198.892.397 1.39.496.495.1.99.2 1.586.298v2.282h-.1zm-4.465-42.17c0 1.587-.596 2.877-1.786 3.968-1.19 1.092-2.68 1.687-4.267 1.687-1.688 0-3.077-.595-4.367-1.687-1.19-1.09-1.786-2.48-1.786-3.97 0-1.586.595-2.876 1.786-4.067 1.19-1.09 2.68-1.687 4.366-1.687 1.686 0 3.075.596 4.266 1.687 1.19 1.092 1.786 2.48 1.786 4.068zM223.355 415.752H204.7v-2.282c.398 0 .894-.1 1.39-.2.595-.098.992-.197 1.29-.296.397-.2.694-.596.893-.993.198-.396.298-1.09.298-1.884V395.61c0-2.084-.396-3.672-1.19-4.763-.794-1.092-1.885-1.588-3.473-1.588-.794 0-1.588.098-2.282.396-.695.297-1.39.595-2.084 1.09-.594.398-1.09.795-1.487 1.29-.397.398-.695.795-.893 1.192v16.57c0 .695.1 1.29.297 1.786.2.497.596.894.993 1.092.297.198.694.397 1.19.496.496.1.993.2 1.49.298v2.282h-18.854v-2.282c.496 0 .992-.1 1.588-.2.496-.098.992-.197 1.39-.296.693-.2 1.09-.596 1.388-1.092.198-.496.397-1.09.397-1.885v-18.06c0-.594-.2-1.29-.497-1.884-.298-.596-.794-1.092-1.29-1.49-.397-.197-.794-.495-1.39-.594-.595-.2-1.19-.3-1.885-.3v-2.28l14.785-.795.496.496v4.467h.098c.595-.497 1.29-1.092 2.084-1.886.794-.693 1.587-1.29 2.282-1.785.794-.496 1.786-.893 2.977-1.29 1.19-.397 2.58-.496 3.97-.496 3.373 0 5.854.99 7.54 2.877 1.688 1.885 2.48 4.465 2.48 7.64v15.18c0 .795.1 1.39.3 1.787.198.497.694.794 1.29 1.092.297.1.694.298 1.19.397.496.1.992.198 1.687.298v2.382h.198zM240.52 416.843c-1.984 0-3.968-.297-5.853-.893-1.886-.595-3.374-1.19-4.465-1.885l-.893 2.084h-2.383l-.397-11.51h2.282c.298.892.794 1.983 1.588 3.174.695 1.19 1.588 2.183 2.48 3.175.993.892 2.084 1.686 3.374 2.38 1.29.596 2.58.993 3.97.993 1.885 0 3.274-.397 4.167-1.092.894-.693 1.39-1.884 1.39-3.372 0-.794-.2-1.49-.596-2.084-.396-.496-.992-.992-1.686-1.39-.794-.396-1.687-.793-2.68-1.09-.992-.298-2.182-.596-3.57-1.092-1.39-.397-2.58-.794-3.574-1.29-.992-.397-2.083-1.092-3.076-1.985-.893-.793-1.686-1.786-2.182-2.877-.596-1.092-.794-2.48-.794-4.068 0-2.878 1.19-5.26 3.67-7.045 2.482-1.786 5.657-2.68 9.626-2.68 1.885 0 3.572.2 5.16.596 1.587.397 2.877.794 3.97 1.29l.693-1.786h2.382l.497 10.518h-2.184c-.695-2.183-1.985-3.97-3.672-5.557-1.786-1.587-3.67-2.38-5.655-2.38-1.59 0-2.88.296-3.772.99-.893.696-1.39 1.59-1.39 2.78 0 1.587.695 2.678 1.985 3.373 1.29.696 3.176 1.39 5.557 1.985 3.67.993 6.35 2.283 8.136 3.87 1.687 1.687 2.58 3.77 2.58 6.25 0 3.375-1.29 6.054-3.97 7.84-2.976 1.786-6.448 2.778-10.715 2.778z"/></g></svg>