<svg width="512" height="186" viewBox="0 0 512 186" xmlns="http://www.w3.org/2000/svg" preserveAspectRatio="xMinYMin meet"><path d="M507.576 62.406c-10.695-6-15.012-8.18-21.34-8.18-5.852 0-8.673 2.998-8.673 7.635 0 13.908 33.502 10.09 33.502 42.54 0 17.72-9.77 28.357-26.36 28.357-10.155 0-14.95-4.367-22.375-9.272v-19.907c10.695 8.727 15.012 12 23.082 12 6.223 0 8.683-3.273 8.683-8.728 0-15.266-33.29-9.54-33.29-43.08 0-16.09 6.663-26.723 23.9-26.723 8.3 0 13.477 2.18 22.87 7.365v17.994M248.81 37.88c15.276 0 21.988 12.814 21.988 26.725 0 10.09-4.148 17.726-12.66 22.633-2.37 1.008-3.595 1.317-5.363 1.75l25.664 41.873h-18.062l-24.174-37.9v37.9h-16.317V37.88h28.923zm-12.606 38.175h7.585c5.236 0 10.257-2.727 10.257-10.634 0-7.09-3.71-10.63-10.695-10.63h-7.148v21.265zM356.205 130.86H338.58l-6.107-18.537H303.55l-5.46 18.538h-17.406l27.667-92.977h17.14l30.715 92.978zM317.25 59.968l-8.677 36.266h18.442l-9.765-36.266zM361.656 37.883h16.312v92.98h-16.312v-92.98zM453.712 130.86h-13.475l-34.33-59.71v59.71H389.59V37.884h14.79l33.01 56.714V37.883h16.322v92.978M196.417 79.603c6.334-3.82 10.26-10.636 10.26-18.542 0-4.12-.806-8.617-2.847-12.548-5.988 5.307-12.596 11.078-14.593 12.815.312 1.073.47 2.19.47 3.278 0 4.907-2.615 10.09-9.388 10.09h-5.346V52.546l19.478-12.766c-2.798-1.187-6.15-1.9-10.2-1.9h-25.595v92.98h27.282c21.83 0 26.415-16.628 26.415-27.265 0-10.908-5.24-20.452-15.938-23.992m-15.44 34.086h-6.003V91.872h8.618c6.553 0 11.355 3.54 11.355 10.357 0 8.188-3.708 11.46-13.97 11.46" fill="#0C5789"/><path d="M219.625 26.954c-1.027-.64-12.96 6.788-20.463 12.016l-2.757 1.91-19.196 12.885v14.28c4.114-2.803 7.43-5.432 9.804-7.812l14.364-12.303s7.18-6.453 10.947-10.225l1.404-1.307c1.05-.948 1.764-1.59 1.764-2.478 0-.046-.003-.098-.01-.145-.043-.502 4.593-6.538 4.14-6.82M144.337 87.647l11.687-7.936V65.414l-10.48 6.832s-9.332 6.06-12.593 8.18c.243-1.843.494-3.786.494-3.786 1.642-12.16 3.156-24.297 3.156-32.367 0-3.907-.353-6.864-1.22-8.406-.613-1.094-1.55-1.8-2.706-2.038-1.532-.313-3.316.224-5.023 1.516-5.353 3.73-8.013 14.637-8.013 33.15 0 5.987.29 12.8.843 20.387l-3.7 3.337c.04-.037-5.298 4.662-5.298 4.662-.006.003-.14.18-.23.295-4.95 4.37-8.064 6.824-9.252 7.288-1.476.583-2.774.712-3.94.604 6.718-4.96 12.202-15.57 12.202-21.88 0-.722-.073-1.393-.227-1.987-1.094-4.316-3.27-7.452-6.302-9.075-2.967-1.584-6.558-1.648-10.672-.183l-1.606.65c-7.41 3.355-29.95 16.023-36.94 19.973.826-9.887 4.885-54.964 6.016-78.74.735-15.358 0-5.835 0-8.817 0-11.166-14.03.007-21.797 7.773-3.26 3.26-13.448 12.568-9.758 19.652 3.965 7.62 8.152 5.073 10.345 18.19 3.856 23.067.91 46.713.916 48.238-1.266.593-10.93 5.144-10.93 5.144C12.655 111.71 0 117.564 0 127.177c0 1.5.31 3.083.954 4.784 13.817 36.14 32.65 55.583 40.073 53.617 10.768-2.867 11.207-17.015 11.87-38.422.33-10.678.716-22.768 2.358-36.368.868-.546 18.963-14.017 22.327-16.17-1.613 3.28-1.6 6.452-1.6 8.16 0 4.256.61 7.765 1.477 9.573 1.454 3.046 2.745 5.32 6.07 6.815 4.222 2.016 7.883 2.576 15.08-.25 3.236-1.272 8.776-5.112 14.934-10.276 1.227 2.1 6.564 11.29 6.564 11.29l4.89 8.332c2.206 3.92 5.706 5.032 9.607 3.04 2.964-1.487 4.922-2.786 5.506-4.697.124-.4.175-.79.175-1.18 0-1.285-.575-2.505-1.12-3.48-5.615-9.99-5.99-18.7-5.99-25.322 0-.43 0-.846.003-1.255.96-.67 11.16-7.72 11.16-7.72m-109.95 68.438c-4.42-3.578-6.515-6.6-9.748-14.425-5.47-13.23 2.107-17.32 15.833-25.106-1.634 14.088-2.773 42.85-6.086 39.532m54.686-56.53c-.19-4.96-1.223-11.35 5.16-14.74 2.493-1.354 3.944-.493 4.783.35 1.68 1.686-2.086 9.493-9.943 14.39" fill="#E9822C"/></svg>