<svg width="512" height="200" viewBox="0 0 512 200" xmlns="http://www.w3.org/2000/svg" preserveAspectRatio="xMinYMin meet"><g fill="#264970"><path d="M468.91 51.385c-.472-1.496-1.86-2.512-3.427-2.512h-33.52c-1.567 0-2.953 1.016-3.424 2.512l-42.29 134.13c-.345 1.09-.148 2.28.528 3.204.676.923 1.752 1.467 2.897 1.467h23.076c1.593 0 2.995-1.047 3.446-2.575l29.122-98.647s.762-2.464 3.4-2.464c2.68 0 3.334 2.562 3.334 2.564l13.51 46.78H447c-1.61 0-3.022 1.07-3.457 2.618l-5.21 18.52c-.304 1.082-.084 2.244.596 3.14.678.897 1.737 1.423 2.862 1.423h31.326l8.138 26.117c.468 1.502 1.858 2.525 3.43 2.525h23.087c1.145 0 2.22-.544 2.896-1.468.677-.924.873-2.115.528-3.206l-42.29-134.13"/><path d="M311.28 74.988h27.934c14.446 0 17.346 5.684 17.346 14.857v13.7c0 11.416-4.376 15.268-17.346 15.268H311.28V74.988zm85.29 109.27l-30.694-44.277c13.216-5.48 19.914-16.97 19.914-34.153V87.77c0-26.902-14.045-38.897-45.54-38.897h-54.606c-1.983 0-3.592 1.607-3.592 3.59v134.13c0 1.986 1.61 3.594 3.592 3.594h22.045c1.982 0 3.59-1.608 3.59-3.593v-42.066h22.562l30.684 44.117c.67.965 1.773 1.542 2.95 1.542h26.365c1.984 0 3.592-1.608 3.592-3.593 0-.893-.325-1.71-.864-2.337zM255.268 48.873h-22.046c-1.983 0-3.592 1.607-3.592 3.59v134.13c0 1.986 1.61 3.594 3.592 3.594h22.046c1.984 0 3.593-1.608 3.593-3.593V52.464c0-1.984-1.608-3.59-3.592-3.59M203.64 48.873h-22.314c-1.89 0-3.43 1.532-3.43 3.42V157.25c0 13.19-10.05 17.526-16.853 17.872-.917.045-1.984.623-2.57 1.48-.59.86-.753 1.938-.447 2.932l5.425 17.648c.444 1.444 2 2.373 4.533 2.373 21.35 0 39.077-16.763 39.077-39.232V52.295c0-.908-.36-1.78-1.002-2.42-.64-.643-1.51-1.002-2.42-1.002"/><g><path d="M30.847 12.28c-6.856 0-12.407 5.545-12.407 12.418 0 6.856 5.55 12.42 12.407 12.42 6.86 0 12.406-5.564 12.406-12.42 0-6.873-5.545-12.417-12.406-12.417M112.356 12.28c-6.86 0-12.403 5.545-12.403 12.418 0 6.856 5.544 12.42 12.403 12.42 6.84 0 12.404-5.564 12.404-12.42 0-6.873-5.564-12.408-12.404-12.417M71.6.95c-6.854 0-12.405 5.544-12.405 12.42 0 6.855 5.55 12.42 12.406 12.42 6.86 0 12.406-5.565 12.406-12.42C84.006 6.493 78.46.95 71.6.95M141.686 46.882c-.69-.525-1.52-.797-2.362-.797-.467 0-.94.085-1.386.257-8.4 3.213-16.932 5.652-24.718 7.466-1.588.37-2.87 1.55-3.402 2.966-5.673 15.54-20.16 30.336-35.357 45.834-.61.58-1.463 1.343-2.854 1.343-1.388 0-2.234-.74-2.855-1.342C53.556 87.11 39.07 72.364 33.395 56.824c-.532-1.415-1.815-2.594-3.4-2.966-7.79-1.814-16.343-4.33-24.734-7.54-.45-.172-.92-.257-1.39-.257-.84 0-1.656.265-2.344.79C.45 47.673-.11 49.005.018 50.284 1.305 63.205 6.41 75.838 15.626 89.075c8.662 12.446 19.96 23.966 30.883 35.106 20.125 20.53 39.138 39.92 40.806 62.402.15 2.028 1.84 3.6 3.878 3.6h23.646c1.065 0 2.082-.438 2.817-1.21.732-.77 1.12-1.806 1.067-2.87-.744-15.032-6.4-30.086-17.294-46.016-2.283-3.34-4.728-6.59-7.285-9.77-1.04-1.295-.604-2.904.19-3.716.786-.804 1.575-1.606 2.37-2.42 10.923-11.14 22.22-22.66 30.883-35.105 9.214-13.24 14.318-25.797 15.606-38.717.128-1.298-.46-2.676-1.508-3.476M46.232 141.67c-.56-.585-1.38-1.182-2.76-1.182-1.766 0-2.813 1.22-3.21 1.824-9.945 15.135-15.082 29.42-15.792 43.775-.05 1.06.34 2.11 1.07 2.883.736.77 1.767 1.212 2.83 1.212h23.605c2.03 0 3.742-1.59 3.89-3.614.515-6.92 2.67-13.854 6.59-21.142 1.36-2.52.304-4.89-.478-5.902-3.89-5.06-8.656-10.457-15.745-17.854"/><path d="M71.628 58.466c7.41 0 11.708-.445 13.218-.445 1.83 0 3.577 1.5 3.577 3.598 0 .612-.145 1.05-.288 1.437-.983 2.627-5.462 12.08-13.8 20.19-.937.91-1.997 1.08-2.727 1.08h-.01c-.728 0-1.787-.17-2.722-1.08-8.34-8.11-12.82-17.563-13.8-20.19-.145-.387-.29-.825-.29-1.437 0-2.098 1.75-3.597 3.58-3.597 1.51 0 5.805.446 13.213.446h.048"/></g></g></svg>