<svg width="256" height="258" viewBox="0 0 256 258" xmlns="http://www.w3.org/2000/svg" preserveAspectRatio="xMinYMin meet"><path d="M255.667 35.56c0-18.606-15.084-33.69-33.69-33.69-16.99 0-31.036 12.578-33.35 28.93-.216-.116-.34-.18-.34-.18-27.554-12.428-50.763 9.583-50.763 9.583l-61.39 61.692 24.256 23.36 49.413-48.546c23.074-23.076 35.638-7.458 35.638-7.458 17.37 14.674.6 32.044.6 32.044l24.856 23.96c20.298-21.924 21.475-41.057 15.305-56.277 16.613-2.08 29.467-16.244 29.467-33.42" fill="#F9AE41"/><path d="M226.514 190.507c.115-.215.18-.34.18-.34 12.428-27.554-9.584-50.763-9.584-50.763L155.417 78.01l-23.36 24.26 48.547 49.412c23.074 23.075 7.456 35.64 7.456 35.64-14.673 17.37-32.043.598-32.043.598l-23.96 24.856c21.923 20.298 41.057 21.475 56.276 15.305 2.08 16.613 16.244 29.468 33.42 29.468 18.606 0 33.69-15.084 33.69-33.69 0-16.99-12.578-31.036-28.93-33.35" fill="#EE4035"/><path d="M155.942 133.04l-49.413 48.545c-23.076 23.076-35.64 7.46-35.64 7.46-17.37-14.676-.6-32.045-.6-32.045l-24.854-23.96c-20.298 21.923-21.476 41.056-15.307 56.276C13.516 191.396.662 205.558.662 222.734c0 18.607 15.084 33.69 33.692 33.69 16.99 0 31.035-12.576 33.35-28.927.215.115.34.18.34.18 27.554 12.428 50.762-9.585 50.762-9.585L180.2 156.4l-24.258-23.36" fill="#4F91CD"/><path d="M75.727 106.613c-23.075-23.075-7.46-35.64-7.46-35.64 14.677-17.37 32.046-.598 32.046-.598l23.96-24.855C102.35 25.222 83.216 24.045 67.996 30.214 65.917 13.6 51.755.747 34.577.747 15.973.747.89 15.83.888 34.437c0 16.992 12.577 31.037 28.93 33.35-.116.217-.18.343-.18.343-12.43 27.552 9.583 50.76 9.583 50.76l61.694 61.393 23.36-24.257-48.547-49.413" fill="#7AC043"/></svg>