<svg width="256" height="358" viewBox="0 0 256 358" xmlns="http://www.w3.org/2000/svg" preserveAspectRatio="xMinYMin meet"><g transform="translate(7.97 106.584)"><path d="M.784 52.446v146.942c0 28.508 53.166 51.62 118.75 51.62 65.585 0 118.75-23.112 118.75-51.62V52.446s-4.94 50.177-118.75 50.177C5.722 102.623.784 52.446.784 52.446z" fill="#9EAAB2"/><ellipse fill="#8E979A" cx="119.534" cy="52.446" rx="118.75" ry="51.616"/><path d="M.784 52.446v146.942c0 28.508 53.166 51.62 118.75 51.62 65.585 0 118.75-23.112 118.75-51.62V52.446s-4.94 50.177-118.75 50.177C5.722 102.623.784 52.446.784 52.446z" fill="#9EAAB2"/><path d="M222.402 76.928c3.35-2.565 6.62-5.132 9.09-8.606 1.416-1.998 2.584-4.125 3.68-6.29 1.215-2.112 2.257-4.296 3.11-6.546V199.39c0 13.217-11.434 25.275-30.234 34.407v-148.2c5.07-2.39 9.91-5.27 14.354-8.67zM16.666 76.928c-3.353-2.565-6.62-5.132-9.09-8.606-1.42-1.998-2.585-4.125-3.68-6.29C2.68 59.92 1.64 57.735.783 55.485V199.39c0 13.217 11.435 25.275 30.234 34.407v-148.2c-5.068-2.39-9.907-5.27-14.352-8.67z" fill="#8E979A"/><path d="M119.534 247.15C55.568 247.15 3.432 225.776.96 199.016c-.063.66-.103 1.322-.103 1.986 0 27.686 53.133 50.127 118.677 50.127 65.544 0 118.678-22.44 118.678-50.126 0-.663-.038-1.326-.103-1.985-2.474 26.76-54.61 48.136-118.576 48.136z" fill="#8E979A"/><path d="M119.534 100.58C55.568 100.58 3.432 79.21.96 52.448c-.063.66-.103 1.32-.103 1.988 0 27.684 53.133 50.125 118.677 50.125 65.544 0 118.678-22.44 118.678-50.125 0-.667-.038-1.328-.103-1.988-2.474 26.76-54.61 48.134-118.576 48.134zM119.534 230.706c-63.966 0-116.102-21.374-118.575-48.134-.063.66-.103 1.32-.103 1.988 0 27.684 53.133 50.124 118.677 50.124 65.544 0 118.678-22.44 118.678-50.124 0-.667-.038-1.327-.103-1.988-2.474 26.76-54.61 48.134-118.576 48.134z" fill="#DBE1E3"/></g><path d="M235.916 156.343c0 4.547-1.96 8.644-5.577 12.73-7.158 8.086-54.527 26.834-102.102 26.874-48.063.04-96.34-18.706-103.572-26.874-3.624-4.088-5.577-8.178-5.577-12.73 0-22.63 48.54-40.976 108.413-40.976 59.874 0 108.413 18.346 108.413 40.976z" fill="#1A2B2F"/><path d="M24.665 107.412c17.107 11.935 60.622 23.074 102.837 23.074s88.118-11.537 102.836-23.074v-7.16s-32.256 20.64-102.836 20.64c-70.582 0-102.837-20.64-102.837-20.64v7.16z" fill="#1B3134"/><path d="M230.34 164.918s-20.908 29.438-102.837 29.438c-81.93 0-102.837-29.438-102.837-29.438V101s29.603 20.158 100.416 20.158C195.895 121.158 230.34 101 230.34 101v63.918z" fill="#213F48"/><path d="M127.463 191.21c-51.632-.01-94.312-14.947-102.797-32.18v10.043S45.56 197.3 127.422 197.32h.08c81.865-.02 102.837-28.247 102.837-28.247V159.03c-8.486 17.233-51.245 32.17-102.877 32.18z" fill="#1B3134"/><path d="M127.503 118.79C58.78 118.79 2.767 97.414.11 70.654c-.066.66-.11 1.323-.11 1.988 0 27.685 57.086 50.125 127.503 50.125s127.502-22.44 127.502-50.125c0-.665-.043-1.33-.11-1.988-2.656 26.76-58.67 48.136-127.392 48.136z" fill="#8E979A"/><path d="M127.503 0C57.086 0 0 22.442 0 50.126v21.88c0 27.683 57.086 50.125 127.503 50.125s127.502-22.44 127.502-50.123v-21.88C255.005 22.44 197.92 0 127.503 0z" fill="#9EAAB2"/><path d="M127.24 16.91c18.844 0 36.204 2.588 49.374 6.85l18.87-6.85 4.57 19.44H143.06l-.727-.146 20.263-7.355c-9.32-3.116-21.755-5.02-35.302-5.02-10.858 0-21.03 1.233-29.442 3.342l-18.72-3.8c13.13-4.09 30.075-6.463 48.11-6.463zm-73.693 17.9c.632-2.832 7.573-5.09 15.514-5.09 7.94 0 14.078 2.26 13.706 5.09-.38 2.883-7.342 5.257-15.544 5.257-8.2 0-14.32-2.374-13.675-5.257zm74.01 35.917c-22.214 0-41.89-3.532-55.453-9.073l-24.992 9.073 5.183-23.683h59.636l.272.06-23.025 8.355c9.523 3.742 23.104 6.11 38.31 6.11 12.494 0 23.814-1.584 32.672-4.203l21.815 4.672c-13.248 5.248-32.374 8.687-54.417 8.687zm61.92-16.303c-8.566 0-15.885-2.59-16.34-5.73-.448-3.084 5.91-5.54 14.184-5.54 8.28 0 15.577 2.456 16.308 5.54.744 3.14-5.587 5.73-14.15 5.73z" fill="#DBE1E3"/><path d="M216.017 108.08V83.76s34.51-10.607 38.988-33.634v21.88c0 14.166-14.953 26.958-38.988 36.074zM38.987 108.08V83.495C11.837 75.01 1.227 59.625 0 50.125v21.882c0 14.165 14.953 26.957 38.987 36.073z" fill="#8E979A"/><path d="M127.503 96.274C58.78 96.274 2.767 74.898.11 48.138c-.066.66-.11 1.322-.11 1.99C0 77.81 57.087 100.25 127.504 100.25s127.502-22.44 127.502-50.123c0-.667-.043-1.33-.11-1.99-2.656 26.76-58.67 48.137-127.392 48.137z" fill="#DBE1E3"/><g><g transform="translate(161.37 135.47)"><path d="M34.023 19.73c0 9.748-7.132 17.653-16.913 17.653C7.33 37.383.198 29.478.198 19.73.198 9.977 7.33 2.075 17.11 2.075S34.023 9.978 34.023 19.73z" fill="#1B3134"/><ellipse fill="#51C3F1" cx="17.111" cy="16.217" rx="15.536" ry="15.536"/><circle fill="#FFF" cx="17.11" cy="13.818" r="5.068"/></g><g transform="translate(58.77 135.47)"><path d="M34.264 19.73c0 9.748-7.132 17.653-16.913 17.653C7.573 37.383.44 29.478.44 19.73.438 9.977 7.57 2.075 17.35 2.075c9.782 0 16.914 7.902 16.914 17.653z" fill="#1B3134"/><circle fill="#51C3F1" cx="17.507" cy="16.217" r="15.535"/><circle fill="#FFF" cx="17.352" cy="13.818" r="5.068"/></g></g><path d="M128.24 326.028c-5.3 0-10.627-.277-19.01-.988-3.926-.336-7.124-3.848-7.124-7.836v-79.662c0-3.713 2.813-6.515 6.545-6.515.207 0 .42.01.63.027 8.35.71 13.667.988 18.96.988 5.29 0 10.606-.278 18.96-.99.208-.016.42-.025.627-.025 3.73 0 6.544 2.8 6.544 6.515v79.662c0 3.988-3.197 7.5-7.125 7.836-8.383.71-13.71.988-19.006.988zm-19.59-91.023c-1.535 0-2.565 1.018-2.565 2.537v79.662c0 1.904 1.627 3.713 3.484 3.872 8.258.7 13.492.975 18.67.975 5.173 0 10.407-.273 18.668-.974 1.856-.158 3.485-1.968 3.485-3.872v-79.662c0-1.61-1.2-2.673-2.853-2.523-8.478.718-13.888 1-19.3 1-5.415 0-10.826-.282-19.3-1-.098-.01-.197-.015-.29-.015z" fill="#DBE1E3"/><g><path d="M225.364 231.588c-9.444 6.12-27.024 17.514-62.096 25.417 5.038 26.734 5.038 26.734 11.66 61.773 12.134-3.61 37.384-11.13 57.84-27.995-2.334-19.59-4.206-34.825-7.404-59.195" fill="#F5DD3E"/><path d="M202.513 301.993c-6.912 3.813-11.637-1.727-11.637-1.727l4.08-3.878s2.278 2.936 6.038.433c1.76-1.17.612-7.038.612-7.038l-3.38-16.132 5.32-2.243s3.225 18.628 3.562 20.492c.63 3.488 1.148 6.923-4.595 10.093zM216.842 293.843c-3.893.588-6.093-2.315-6.093-2.315l3.548-4.344s1.338 1.484 3.195 1.206c1.576-.24 3.426-1.29 4.072-3.27 1.1-3.39.08-4.552-3.373-4.167-3.45.385-7.79.89-8.557-5.913-.68-6.036 4.595-10.653 8.167-11.28 3.544-.62 5.522 1.88 5.522 1.88l-3.535 4.292s-2.345-1.066-3.755.196c-1.282 1.15-1.775 2.65-1.287 3.792.428 1 1.718 1.44 3.79 1.286 2.075-.15 5.49-1.356 7.592 2.874 2.363 4.75-.1 14.38-9.288 15.763z" fill="#3B3735"/></g></svg>