<svg width="512" height="111" viewBox="0 0 512 111" xmlns="http://www.w3.org/2000/svg" preserveAspectRatio="xMinYMin meet"><path d="M51.554 63.04l6.075 10.52-15.157 26.308h78.896l6.04 10.462H24.172l27.38-47.29z" fill="#F35757"/><path d="M51.608 20.943l27.264 47.36H66.726l-15.16-26.256-39.535 68.283H0l51.608-89.387z" fill="#49C5B1"/><path d="M115.303 89.362H60.65l6.08-10.552h30.314L57.678 10.43 63.698 0l51.605 89.362z" fill="#00AFD7"/><path d="M212.144 81.164l-25.712-31.71 23.88-23.69c1.033-1.03 1.535-2.134 1.535-3.37 0-2.506-2.15-4.702-4.603-4.702-1.61 0-2.697.765-3.674 1.635L165.74 58.11V22.493c0-2.646-2.154-4.8-4.8-4.8-2.552 0-4.708 2.198-4.708 4.8v62.07c0 2.602 2.156 4.8 4.708 4.8 2.646 0 4.8-2.153 4.8-4.8V69.94L179.685 56l25.077 31.23c.99 1.416 2.288 2.135 3.856 2.135 2.603 0 4.803-2.2 4.803-4.8 0-1.556-.61-2.547-1.28-3.4zm54.38-19.36c0-13.256-8.417-26.676-24.507-26.676-14.185 0-25.297 12.017-25.297 27.36v.2c0 15.6 11.298 27.365 26.28 27.365 7.987 0 14.096-2.445 19.783-7.898.95-.833 1.476-1.937 1.476-3.11 0-2.268-1.89-4.113-4.213-4.113-1.264 0-2.158.62-2.754 1.115-4.212 3.878-8.69 5.685-14.096 5.685-8.946 0-15.66-6.196-16.96-15.52h35.88c2.43 0 4.408-1.98 4.408-4.408zm-24.703-18.55c9.914 0 14.367 7.898 15.3 15.617h-30.883c1.28-9.244 7.582-15.615 15.584-15.615zm80.566 18.55c0-13.256-8.42-26.676-24.51-26.676-14.18 0-25.292 12.017-25.292 27.36v.2c0 15.6 11.298 27.365 26.277 27.365 7.986 0 14.095-2.445 19.783-7.9.95-.83 1.474-1.935 1.474-3.108 0-2.268-1.89-4.113-4.214-4.113-1.262 0-2.156.62-2.752 1.115-4.21 3.878-8.69 5.685-14.094 5.685-8.942 0-15.655-6.196-16.96-15.52h35.88c2.432 0 4.41-1.98 4.41-4.408zm-24.705-18.55c9.91 0 14.363 7.898 15.3 15.617h-30.884c1.28-9.244 7.582-15.615 15.585-15.615zm59.8-8.126c-6.926 0-12.49 2.695-16.577 8.024v-2.726c0-2.64-2.065-4.708-4.702-4.708-2.537 0-4.603 2.11-4.603 4.708V84.66c0 2.637 2.065 4.702 4.702 4.702 2.623 0 4.603-2.022 4.603-4.702V58.846c0-8.888 5.925-15.096 14.41-15.096 8.28 0 13.224 5.423 13.224 14.503V84.66c0 2.636 2.067 4.7 4.707 4.7 2.585 0 4.61-2.064 4.61-4.7V56.383c0-12.912-7.997-21.256-20.373-21.256zm66.104-17.436c-2.55 0-4.703 2.197-4.703 4.8V84.56c0 2.603 2.155 4.8 4.704 4.8 2.648 0 4.803-2.152 4.803-4.8V22.49c0-2.645-2.155-4.798-4.803-4.798zm52.48-.69c-20.26 0-36.13 16.044-36.13 36.524v.197c0 20.713 15.448 36.33 35.933 36.33C496.13 90.053 512 74.01 512 53.526v-.195c0-20.71-15.45-36.328-35.937-36.328zm26.133 36.524v.197c0 15.63-11.236 27.416-26.134 27.416-15.008 0-26.325-11.873-26.325-27.614v-.196c0-15.628 11.233-27.413 26.13-27.413 14.763 0 26.33 12.127 26.33 27.61z" fill="#546A7E"/></svg>