<svg width="256" height="256" viewBox="0 0 256 256" xmlns="http://www.w3.org/2000/svg" preserveAspectRatio="xMinYMin meet"><path d="M203.03 255.89h-74.935c-24.974 0-49.96.247-74.934 0-25.352-.25-47.654-18.5-52.144-43.634-1.61-9.012-.824-18.753-.824-27.862V82.08c0-9.536-.068-19.075 0-28.61.16-22.24 13.735-42.55 34.82-50.24C45.46-.582 56.34.037 67.236.037h47.276c28.945 0 57.89-.038 86.834 0 19.592.026 37.8 9.432 47.682 26.695 6.603 11.538 6.97 23.682 6.97 36.44v136.103c0 17.274-5.68 33.352-19.377 44.6-9.423 7.74-21.4 12.016-33.592 12.016" fill="#3CB5E8"/><path d="M46.365 63.143V195.65h36.33l-.168-42.71 16.825-20.404 20.57 63.115h38.946l-31.913-88.394 31.996-44.28h-45.703L82.527 99.22V63.06l-36.162.083M215.12 63.06H165.84l28.428 43.136-27.367 89.455h48.216V63.06" fill="#FFF"/></svg>