<svg width="256" height="274" viewBox="0 0 256 274" xmlns="http://www.w3.org/2000/svg" preserveAspectRatio="xMinYMin meet"><path d="M128 1.268L.085 64.104v148.109L128 275.05l127.915-62.836V64.103L128 1.268z" fill="#0081C2"/><path d="M225.13 185.612c-.403-2.743-1.524-5.333-2.993-7.434-1.473-2.11-3.233-3.818-5.075-5.21-3.704-2.777-7.72-4.485-11.793-5.548-.332-.087-.663-.17-.998-.248 1.022-1.333 1.95-2.692 2.81-4.106 1.735-2.88 3.19-5.96 4.17-9.263.96-3.295 1.41-6.847.98-10.348-.412-3.496-1.74-6.85-3.73-9.54-.98-1.358-2.09-2.577-3.277-3.668l-.907-.794c-.31-.254-.62-.502-.938-.748l-.973-.715-.947-.638c-.427-.287-1.008-.252-1.396.116-.45.424-.467 1.133-.043 1.582l.786.83.707.81.682.843.646.858c.832 1.16 1.54 2.376 2.096 3.625 1.118 2.5 1.585 5.122 1.394 7.674-.185 2.557-.998 5.048-2.198 7.395-1.19 2.348-2.76 4.567-4.547 6.6-.89 1.017-1.837 1.994-2.81 2.892-.242.224-.486.44-.726.642-.12.1-.236.2-.34.28l-.04.028-.01.006c-.02.014.15-.144.064-.067l.002-.006c.01-.01-.01.005-.016.007l-.148.097c-.455.297-1.002.634-1.55.937-2.21 1.228-4.61 2.203-7.006 2.797-2.406.603-4.81.83-7.138.723-2.33-.106-4.58-.6-6.743-1.386-.097-.034-.195-.073-.292-.11.45-.066.9-.14 1.357-.23 1.42-.287 2.877-.706 4.32-1.31 1.44-.6 2.872-1.393 4.172-2.383 1.307-.982 2.48-2.148 3.456-3.404.978-1.253 1.766-2.588 2.365-3.923.608-1.333 1.047-2.664 1.38-3.964.315-1.297.526-2.57.65-3.804.248-2.477.197-4.814.016-7.07l-.074-.846-.097-.874c-.036-.284-.064-.595-.103-.853l-.114-.738-.057-.37-.028-.182-.014-.092-.006-.045-.004-.023c0 .01-.015-.168-.01-.103l-.114-.708-.226-1.415c-.3-1.887-.553-3.773-.76-5.662-.122-.947-.177-1.886-.268-2.832-.08-.945-.122-1.884-.19-2.83-.074-1.878-.135-3.767-.068-5.633.01-.938.09-1.86.134-2.793.085-.92.148-1.853.283-2.763.237-1.83.58-3.637 1.084-5.376.5-1.74 1.172-3.408 2.04-4.94.853-1.542 1.938-2.93 3.273-4.006.664-.545 1.397-.992 2.182-1.327.39-.168.796-.31 1.21-.42.208-.06.385-.086.584-.135.216-.036.486-.05.728-.08h.033c.51-.058.93-.462.986-.992.065-.614-.38-1.164-.994-1.23-.254-.026-.48-.065-.757-.083-.297-.006-.614-.022-.898-.008-.57.02-1.14.085-1.7.193-1.12.22-2.208.612-3.217 1.134-2.03 1.036-3.777 2.53-5.23 4.214-1.455 1.688-2.633 3.563-3.62 5.502-.984 1.94-1.774 3.947-2.44 5.98-.348 1.017-.618 2.04-.91 3.07-.253 1.025-.513 2.06-.714 3.095-.44 2.073-.742 4.15-1.022 6.232-.248 2.078-.43 4.163-.55 6.24-.118 2.08-.186 4.156-.202 6.23l-.002 1.553v.778c.006.08-.008-.08-.006-.057v.072l-.002.094v.187l-.002.373-.006.746c-.002.238-.02.42-.03.634l-.033.614-.048.64c-.132 1.71-.38 3.352-.782 4.795-.2.72-.437 1.385-.69 1.99-.263.59-.55 1.114-.852 1.545-.614.873-1.233 1.308-1.884 1.59-.646.275-1.45.46-2.543.494-1.08.04-2.393-.09-3.79-.392-.198-.04-.397-.083-.6-.13 0 0-5.093-1.796-3.42-7.625 1.136-2.11 3.215-4.285 7.05-4.852 0 0 8.177-63.325-43.066-104.03-.033-.026-.067 0-.067 0-51.237 40.7-43.06 104.024-43.06 104.024 4.09.603 6.186 3.037 7.263 5.27 1.227 5.122-2.894 6.954-3.463 7.18-.237.057-.473.11-.705.156-1.397.3-2.71.43-3.79.392-1.092-.036-1.896-.22-2.545-.495-.648-.283-1.27-.718-1.88-1.59-.302-.43-.59-.954-.854-1.543-.252-.608-.488-1.272-.69-1.992-.4-1.442-.645-3.086-.78-4.794l-.048-.64-.033-.614c-.01-.21-.026-.394-.03-.634l-.004-.746-.002-.373-.002-.187v-.166c.002-.024-.012.138-.006.057v-.778l-.002-1.555c-.017-2.073-.082-4.15-.203-6.228-.118-2.078-.3-4.163-.55-6.24-.28-2.084-.58-4.16-1.02-6.233-.198-1.035-.46-2.07-.714-3.097-.292-1.028-.564-2.052-.91-3.068-.668-2.032-1.456-4.04-2.44-5.98-.987-1.938-2.167-3.813-3.622-5.503-1.45-1.683-3.2-3.178-5.232-4.214-1.01-.522-2.095-.913-3.216-1.134-.56-.106-1.13-.173-1.7-.193-.285-.013-.604.003-.9.01-.277.017-.503.054-.756.082-.614.065-1.06.616-.994 1.23.055.53.475.934.985.99l.033.003c.242.03.512.043.73.08.198.048.377.075.582.133.415.11.817.25 1.21.42.784.336 1.52.783 2.18 1.328 1.338 1.077 2.42 2.464 3.275 4.006.867 1.53 1.536 3.2 2.04 4.94.503 1.74.847 3.547 1.084 5.376.133.91.198 1.844.282 2.763.042.935.126 1.856.132 2.794.07 1.863.008 3.755-.065 5.632-.07.947-.113 1.886-.192 2.83-.092.947-.146 1.886-.268 2.833-.206 1.888-.46 3.774-.76 5.66l-.228 1.415-.112.707c.005-.065-.01.114-.01.104l-.002.022-.006.047-.014.092-.03.182-.057.37-.11.737c-.038.258-.07.57-.103.853l-.095.874-.073.847c-.182 2.254-.237 4.593.013 7.07.126 1.235.335 2.507.652 3.803.333 1.302.77 2.63 1.376 3.964.602 1.333 1.39 2.667 2.37 3.923.975 1.256 2.15 2.42 3.454 3.405 1.302.99 2.732 1.782 4.173 2.384 1.442.602 2.9 1.02 4.32 1.307.456.09.91.165 1.356.23-.097.038-.195.077-.292.11-2.16.786-4.412 1.28-6.74 1.387-2.327.108-4.734-.122-7.136-.723-2.4-.593-4.797-1.568-7.012-2.795-.544-.303-1.09-.638-1.546-.937l-.148-.097c-.006 0-.026-.017-.018-.005 0 .002.004.004.004.006-.086-.076.083.082.065.068l-.01-.004-.038-.03c-.102-.078-.22-.18-.34-.28-.237-.202-.483-.418-.725-.64-.973-.897-1.92-1.876-2.81-2.892-1.787-2.034-3.358-4.253-4.547-6.6-1.2-2.346-2.015-4.84-2.2-7.397-.19-2.552.276-5.173 1.394-7.674.557-1.248 1.266-2.463 2.097-3.623l.647-.858.682-.844.706-.81.785-.83c.425-.45.407-1.158-.042-1.582-.388-.368-.97-.403-1.398-.116l-.947.638-.973.715c-.317.247-.626.497-.936.75l-.907.793c-1.188 1.09-2.298 2.31-3.28 3.667-1.988 2.692-3.315 6.047-3.73 9.54-.428 3.502.02 7.054.982 10.35.98 3.3 2.433 6.38 4.168 9.262.86 1.414 1.79 2.775 2.812 4.11-.335.077-.668.154-1 .242-4.07 1.062-8.088 2.77-11.792 5.55-1.84 1.392-3.602 3.1-5.075 5.208-1.467 2.1-2.588 4.693-2.99 7.434-.427 2.745-.047 5.512.747 7.87.41 1.173.912 2.266 1.473 3.278.575.994 1.185 1.945 1.853 2.784.656.863 1.357 1.64 2.066 2.39l.58.576.29.29c.097.096.197.194.27.257l1.05.935c1.43 1.234 2.922 2.38 4.446 3.452 3.066 2.127 6.286 3.915 9.537 5.433 2.977 1.398 5.98 2.56 8.942 3.667l.048.126.236.555c.087.18.186.354.282.532.19.352.388.7.59 1.045l.153.256.17.24.348.48c.236.313.47.634.715.935 2.036 2.37 4.61 4.002 7.23 4.965 2.633.97 5.333 1.284 7.895 1.162.32-.016.642-.024.96-.05l.94-.122.934-.13c.31-.047.61-.126.912-.193l.903-.208c.153-.04.297-.066.456-.115l.478-.146.95-.304.47-.156c.157-.053.325-.11.42-.156l1.352-.584.17-.073c.094-.038-.158.055.224-.09l.037-.015.076-.035.296-.138.594-.28c.394-.196.798-.363 1.2-.532.405-.168.807-.35 1.222-.49 1.64-.637 3.328-1.14 5.042-1.513 3.426-.742 6.992-1.024 10.415-.516 1.707.253 3.373.702 4.91 1.38 1.533.683 2.947 1.59 4.07 2.77.14.15.287.294.423.45l.376.48.19.242.165.258.33.52c.383.726.744 1.485.945 2.312.05.208.122.41.16.622l.107.64.054.32c.013.11.015.22.025.328l.05.66c.026.44-.005.858.002 1.297-.04.472-.108.972-.16 1.458v.012c-.066.615.38 1.164.993 1.23.544.056 1.038-.287 1.188-.795.14-.474.29-.93.425-1.42.105-.533.242-1.084.31-1.622l.088-.807c.014-.134.03-.27.04-.406l.005-.41.005-.825c-.002-.28-.043-.553-.063-.83-.08-1.115-.364-2.218-.72-3.3l-.327-.793-.168-.398-.2-.38-.408-.762c-.147-.246-.31-.478-.468-.72-.303-.493-.677-.922-1.034-1.373-.175-.235-.382-.423-.577-.635-.198-.205-.39-.42-.597-.615-.84-.764-1.724-1.486-2.67-2.083-1.885-1.227-3.93-2.14-6.027-2.806-4.204-1.313-8.605-1.7-12.928-1.405-2.164.145-4.32.45-6.437.927-.533.103-1.055.246-1.582.38-.528.13-1.056.266-1.572.43l-.78.238-.39.12-.098.033-.05.014c.353-.132.074-.03.14-.055l-.175.047-1.42.39c-.133.043-.204.043-.283.052l-.24.03-.47.067-.235.036c-.08.012-.18.014-.268.022l-.542.04c-.18.01-.36.037-.54.035l-.527-.012-.524-.003c-.17-.014-.34-.043-.508-.06-1.347-.137-2.574-.53-3.552-1.082-.98-.55-1.686-1.27-2.086-1.973-.378-.725-.466-1.4-.397-2.13.083-.73.35-1.582.906-2.53.554-.94 1.355-1.94 2.348-2.912 2.054-1.924 4.75-3.718 7.74-5.212l.552-.288.583-.266 1.163-.528c.756-.372 1.593-.66 2.387-.994l2.74-1.126 1.363-.558.168-.067.194-.09.392-.18.002-.002.78-.363c.953-.445 1.92-.89 2.815-1.366 6.046-2.743 18.704-7.786 30.045-7.786 11.34 0 24 5.043 30.047 7.785.892.475 1.86.92 2.812 1.365l.785.365.39.18.195.09.168.068 1.362.558 2.74 1.126c.797.333 1.634.626 2.39.994l1.162.528.58.266.55.288c2.99 1.494 5.688 3.288 7.744 5.212.993.97 1.794 1.97 2.348 2.913.555.947.82 1.8.902 2.528.072.73-.018 1.405-.394 2.132-.4.703-1.107 1.42-2.086 1.973-.976.553-2.205.945-3.552 1.083-.168.018-.337.045-.508.06l-.524.003-.53.013c-.175.002-.358-.026-.537-.036l-.544-.04c-.09-.007-.19-.01-.267-.02l-.234-.038-.47-.068-.24-.03c-.08-.01-.148-.01-.282-.05l-1.42-.393-.177-.048c.068.026-.213-.077.14.055l-.05-.014-.097-.033-.39-.12-.78-.238c-.52-.164-1.045-.298-1.57-.43-.53-.132-1.052-.277-1.586-.38-2.117-.476-4.273-.782-6.437-.927-4.325-.294-8.726.094-12.928 1.406-2.096.666-4.142 1.578-6.026 2.807-.95.597-1.834 1.32-2.672 2.083-.207.195-.398.41-.597.615-.193.212-.4.4-.575.634-.357.45-.73.88-1.036 1.373-.16.24-.32.473-.465.72l-.408.76-.2.38-.165.4-.328.79c-.358 1.084-.64 2.187-.72 3.303-.022.276-.06.55-.06.83l.003.824.006.41c.006.136.024.272.038.406l.09.807c.067.538.207 1.09.308 1.62.134.493.287.948.425 1.422.153.508.645.85 1.192.794.613-.066 1.058-.62.99-1.23v-.012c-.052-.484-.12-.984-.157-1.46.004-.438-.027-.855.002-1.295l.046-.66c.01-.108.012-.22.025-.328l.055-.32.103-.64c.043-.212.112-.415.16-.623.202-.824.563-1.586.947-2.312l.334-.52.16-.258.193-.242.378-.48c.134-.154.283-.298.42-.45 1.126-1.18 2.54-2.087 4.072-2.77 1.538-.678 3.202-1.127 4.91-1.38 3.425-.51 6.99-.227 10.416.515 1.715.374 3.403.876 5.038 1.512.415.142.817.323 1.224.49.406.17.806.337 1.2.534l.596.28.296.137.073.035.04.016c.38.144.13.05.225.087l.168.075 1.35.584c.095.046.263.103.422.156l.47.154.948.305.477.145c.16.047.303.074.456.114l.905.207c.3.065.6.142.91.193l.935.13.94.12c.317.03.64.038.963.052 2.56.122 5.26-.195 7.892-1.162 2.623-.965 5.197-2.594 7.233-4.965.245-.3.48-.622.717-.935l.347-.48.173-.24.15-.255c.2-.346.4-.693.59-1.045.095-.178.197-.35.28-.532l.234-.555c.017-.042.03-.083.047-.126 2.963-1.107 5.968-2.27 8.944-3.667 3.25-1.52 6.47-3.306 9.536-5.433 1.522-1.073 3.015-2.218 4.446-3.452l1.048-.934c.073-.062.175-.16.272-.257l.29-.29.58-.576c.71-.75 1.408-1.526 2.066-2.39.668-.838 1.28-1.79 1.853-2.783.562-1.012 1.064-2.105 1.476-3.28.788-2.35 1.168-5.117.744-7.862zM75.46 187.88c-.233.16-.466.306-.698.477l-.69.52-1.374 1.042c-.23.168-.455.355-.68.55l-.67.573c-.446.386-.893.758-1.332 1.162l-1.29 1.27c-.213.215-.427.423-.636.642l-.618.703c-.406.47-.817.927-1.21 1.42-1.563 1.99-2.99 4.26-4.03 6.894-.52 1.315-.92 2.74-1.16 4.234l-.144 1.138c-.004.05-.01.106-.016.154-1.33-.825-2.633-1.664-3.895-2.537-2.7-1.837-5.195-3.834-7.45-5.996-1.12-1.085-2.19-2.206-3.184-3.38l-.74-.897c-.08-.09-.12-.152-.164-.213l-.135-.193-.273-.38c-.382-.565-.747-1.126-1.038-1.686-.315-.555-.536-1.104-.744-1.63-.182-.524-.308-1.024-.384-1.485-.113-.927-.034-1.656.224-2.272.254-.612.642-1.185 1.253-1.79.61-.602 1.423-1.207 2.406-1.732 1.96-1.058 4.47-1.784 7.074-2.12 2.612-.342 5.343-.275 7.984.123 2.648.39 5.214 1.15 7.567 2.226.59.264 1.164.555 1.725.863l.83.475.71.368.508.243.49.224c.668.294 1.363.565 2.08.81l-.297.2zm37.09-44.03c-2.28 0-4.128-1.847-4.128-4.127 0-2.277 1.847-4.126 4.127-4.126 2.278 0 4.125 1.85 4.125 4.126 0 2.28-1.847 4.127-4.126 4.127zm30.9 0c-2.278 0-4.125-1.847-4.125-4.127 0-2.277 1.847-4.126 4.126-4.126 2.28 0 4.128 1.85 4.128 4.126.002 2.28-1.845 4.127-4.127 4.127zm69.64 46.41c-.076.464-.202.964-.382 1.486-.208.526-.43 1.073-.744 1.63-.293.56-.658 1.12-1.038 1.686l-.273.38-.134.193c-.043.06-.086.126-.163.213l-.74.898c-.993 1.172-2.066 2.294-3.183 3.38-2.254 2.16-4.75 4.158-7.45 5.995-1.26.874-2.563 1.713-3.892 2.54l-.018-.156-.144-1.138c-.238-1.493-.64-2.92-1.16-4.234-1.04-2.635-2.465-4.9-4.027-6.894-.392-.493-.805-.95-1.21-1.42l-.617-.703c-.21-.22-.424-.427-.636-.642l-1.294-1.27c-.437-.404-.886-.776-1.33-1.162l-.67-.572c-.223-.195-.45-.382-.68-.55l-1.373-1.043-.69-.52c-.23-.17-.466-.317-.7-.477l-.3-.202c.72-.245 1.413-.518 2.08-.81l.49-.224.51-.244.71-.367.83-.475c.56-.306 1.135-.6 1.724-.863 2.353-1.073 4.92-1.833 7.567-2.225 2.643-.396 5.374-.465 7.984-.122 2.603.335 5.116 1.06 7.075 2.12.98.523 1.798 1.13 2.404 1.73.613.606 1 1.18 1.253 1.792.254.616.335 1.347.22 2.274z" fill="#FFF"/></svg>