<svg width="256" height="233" viewBox="0 0 256 233" xmlns="http://www.w3.org/2000/svg" preserveAspectRatio="xMinYMin meet"><g fill="none" fill-rule="evenodd"><path d="M.388 0H24.18v157.893h94.087v19.466H.387V0zM183.154 46.503c16.222-2.163 33.526 1.08 46.503 11.896 14.06 9.732 21.63 27.035 22.71 43.257 2.164 19.466 0 38.933-10.814 55.155-9.733 12.977-24.873 21.63-42.177 22.71-16.222 2.163-34.606-1.08-48.665-11.896-12.977-10.814-19.466-27.036-21.63-43.258-2.16-17.304 0-36.77 10.816-51.91 8.652-15.14 25.955-24.874 43.258-25.955zm3.245 18.385c10.813-1.082 22.71 2.162 31.36 9.733 7.57 8.652 11.897 19.467 12.98 30.282 1.08 11.896 0 24.873-5.41 35.688-5.406 10.814-15.14 18.385-27.035 20.547-10.815 2.163-22.71-1.08-30.28-7.57-8.653-6.49-14.06-16.222-16.223-25.955-2.163-14.06-1.08-28.118 4.326-41.095 5.407-11.896 17.303-20.548 30.28-21.63z" fill="#000"/><path d="M.388 205.477h255.224v27.037H.388v-27.037z" fill="#3492FF"/></g></svg>