<svg width="256" height="227" viewBox="0 0 256 227" xmlns="http://www.w3.org/2000/svg" preserveAspectRatio="xMinYMin meet"><path d="M.832.452h254.85v225.642H.83V.452z" fill="#E6E6E1"/><path d="M255.68.452H.833l127.432 186.24L255.68.45" fill="#D8D8D3"/><path d="M101.3 226.094h53.926l-26.962-39.403-26.965 39.404" fill="#B4B6B4"/><path d="M128.302 118.827L73.94 39.037v68.493l31.042 45.595 23.267-34.23.052-.068" fill="#1A1918"/><path d="M128.302 118.827l23.412 34.37 30.844-45.096V39.04l-54.256 79.79" fill="#ED9D4A"/><path d="M128.25 118.895l-23.268 34.23 23.344 34.273 23.388-34.2-23.412-34.37-.053.067" fill="#BB7731"/><path d="M35.333 187.49H73.94v-79.96L35.333 50.86v136.63" fill="#4CB2D4"/><path d="M35.333 39.038V50.86l38.607 56.67V39.038H35.333" fill="#1B82AD"/><path d="M182.558 108.1v79.39h38.593V51.682L182.56 108.1" fill="#C02439"/><path d="M221.15 39.038H182.56V108.1l38.593-56.417V39.038" fill="#8F202F"/></svg>