<svg width="256" height="315" viewBox="0 0 256 315" xmlns="http://www.w3.org/2000/svg" preserveAspectRatio="xMinYMin meet"><path d="M150.815 142.832l29.445-69.646c.35-.837 1.325-1.233 2.17-.883.84.35 1.242 1.31.888 2.15l-25.95 61.37-6.553 7.01z" fill="#939598"/><path d="M176.216 107.388s-14.092 18.468-24.037 29.137c-9.956 10.673-24.46 27.5-24.46 27.5v37.62c.104-.006.2-.027.304-.027 2.406 0 4.355 1.927 4.355 4.306 0 2.382-1.952 4.312-4.356 4.312-.104 0-.2-.025-.305-.034v37.957s18.266-12.414 31.498-24.422c14.92-13.54 31.5-34.684 31.5-34.684l-14.502-81.664v-.002z" fill="#931A2B"/><path d="M117.376 38.55l-.136 14.666-53.23 21.32.937-13.03 52.43-22.96v.003z" fill="#A7A9AC"/><path d="M191.325 60.993l1.038 13.026-53.498-20.893-.253-14.662 52.713 22.528zM127.972 33.91l.056 14.982L50.16 18.48l1.617-17.14 76.195 32.57zM51.777 1.34L50.16 18.48 39.836 24.57 41.62 7.836 51.778 1.34z" fill="#BCBEC0"/><path d="M203.82.7l1.743 17.13-77.535 31.062-.058-14.982L203.82.7z" fill="#A7A9AC"/><path d="M214.053 7.116l1.916 16.724-10.405-6.01L203.822.703l10.23 6.414z" fill="#BCBEC0"/><path d="M74.608 77.534l-10.6-2.996 53.232-21.32-77.405-28.644L50.16 18.48 128.03 48.89l77.537-31.06 10.404 6.008-77.105 29.288 53.498 20.89-10.574 3.083-53.713-19.873-53.47 20.303v.004z" fill="#808285"/><path d="M40.676 120.55c-.056 0-.112 0-.166-.008-.91-.09-1.576-.89-1.485-1.796l9.49-94.68c.09-.9.88-1.56 1.812-1.47.91.087 1.576.892 1.485 1.792l-9.487 94.68c-.087.848-.802 1.483-1.646 1.483h-.004zm170.62 0c-.867 0-1.6-.672-1.65-1.542l-5.737-95.332c-.057-.906.64-1.686 1.554-1.74.936-.06 1.702.635 1.757 1.54l5.732 95.328c.057.906-.637 1.684-1.552 1.74-.037.005-.07.005-.104.007zm-110.764 19.054L73.082 74.89c-.353-.836.044-1.802.885-2.152.847-.35 1.818.045 2.172.88l30.466 71.826-6.074-5.84z" fill="#939598"/><path d="M123.676 205.928c0-2.277 1.786-4.122 4.045-4.28v-37.622s-14.51-16.828-24.458-27.5c-9.948-10.67-24.04-29.138-24.04-29.138L64.715 189.06s16.58 21.142 31.5 34.683c13.23 12.008 31.502 24.42 31.502 24.42v-37.96c-2.255-.157-4.042-2.004-4.042-4.275z" fill="#A81E2C"/><path d="M128.024 208.388c-.4 0-.81-.143-1.126-.436l-57.13-52.522-.017-4.494 58.264 53.555 57.524-54.193.23 4.31-56.602 53.326c-.32.306-.732.456-1.145.456h.004v-.002z" fill="#939598"/><path d="M247.515 118.88l-71.297-11.49s6.63 37.756 6.63 100.957c0 63.21-8.703 106.3-8.703 106.3l72.127-7.8s9.116-34.482 9.116-93.99c-.003-59.505-7.876-93.98-7.876-93.98l.003.002zm-32.958 166.628c-1.945 0-3.523-1.558-3.523-3.487 0-1.92 1.576-3.485 3.523-3.485 1.948 0 3.522 1.565 3.522 3.486 0 1.926-1.574 3.488-3.523 3.488zM72.59 208.346c0-63.202 6.63-100.958 6.63-100.958l-71.295 11.49S.05 153.353.05 212.86c0 59.516 9.118 93.992 9.118 93.992l72.126 7.803c0-.008-8.705-43.097-8.705-106.31zM39.555 285.28c-1.813 0-3.286-1.46-3.286-3.255 0-1.797 1.47-3.255 3.285-3.255 1.813 0 3.284 1.458 3.284 3.25 0 1.794-1.47 3.255-3.285 3.255v.005z" fill="#CE2227"/><ellipse fill="#A51724" cx="214.557" cy="139.605" rx="3.258" ry="3.225"/><path d="M214.56 283.664c-.126 0-.257-.018-.388-.05-.89-.207-1.44-1.085-1.23-1.976.052-.202 4.93-21.18 4.93-69.764 0-48.678-4.89-71.7-4.936-71.923-.19-.888.378-1.76 1.27-1.952.89-.192 1.78.373 1.97 1.26.05.227 5.01 23.597 5.01 72.616 0 49.048-4.812 69.666-5.016 70.52-.183.766-.863 1.27-1.61 1.27z" fill="#939598"/><ellipse fill="#A51724" cx="39.556" cy="139.605" rx="3.821" ry="3.783"/><path d="M39.553 283.664c-.807 0-1.513-.588-1.64-1.402-.04-.272-4.162-27.914-4.162-71.244s4.124-71.372 4.164-71.65c.136-.9.976-1.518 1.883-1.384.907.13 1.534.968 1.4 1.862-.044.28-4.128 28.103-4.128 71.176 0 43.09 4.087 70.492 4.125 70.755.14.89-.488 1.735-1.395 1.87-.083.006-.167.017-.247.017z" fill="#939598"/></svg>