<svg width="256" height="208" viewBox="0 0 256 208" xmlns="http://www.w3.org/2000/svg" preserveAspectRatio="xMinYMin meet"><path d="M15.624 35.012v87.53l15.058-8.47V43.48l-15.058-8.47z" fill="#949494"/><path d="M.565 114.07V8.66l89.41 50.822v17.883l-74.35-42.353v87.53l-15.06-8.47z" fill="#EFEFEF"/><path d="M181.27 8.66v105.41l-60.235 33.883-15.06-9.412 60.237-33.88V34.07L89.976 77.366V59.482L181.27 8.66z" fill="#949494"/><path d="M166.212.188L90.918 42.54 15.624.19.564 8.658l89.412 50.824L181.27 8.66 166.213.187z" fill="#D6D6D6"/><path d="M151.153 42.54V96.19l15.06 8.47V34.072l-15.06 8.47z" fill="#EFEFEF"/><path d="M75.86 138.54l75.293-42.352 15.06 8.47-60.237 33.883 59.295 33.884 60.236-33.883 15.06 8.472-75.295 42.353-89.41-50.824z" fill="#D6D6D6"/><path d="M75.86 138.54v17.884l89.41 50.823v-17.882L75.86 138.54zM240.565 147.012V94.306l-15.06-8.47v52.705l15.06 8.472z" fill="#EFEFEF"/><path d="M165.27 189.365l75.295-42.353V94.306l15.06-8.47v70.588l-90.354 50.823v-17.882z" fill="#949494"/><path d="M255.624 85.835l-15.06 8.47-15.058-8.47 15.06-8.47 15.058 8.47z" fill="#D6D6D6"/><path d="M240.565 77.365V59.482l15.06-8.47v17.882l-15.06 8.47z" fill="#949494"/><path d="M240.565 59.482v17.883l-15.06-8.47V51.01l15.06 8.47z" fill="#EFEFEF"/><path d="M255.624 51.012l-15.06 8.47-15.058-8.47 15.06-8.47 15.058 8.47z" fill="#D6D6D6"/></svg>