<svg width="254" height="254" viewBox="0 0 254 254" xmlns="http://www.w3.org/2000/svg"><defs><linearGradient x1="50%" y1="100%" x2="50%" y2="0%" id="a"><stop stop-color="#574C4A" offset="0%"/><stop stop-color="#80716D" offset="100%"/></linearGradient><linearGradient x1="88.778%" y1="98.342%" x2="30.149%" y2="-8.68%" id="b"><stop stop-color="#268D83" offset="0%"/><stop stop-color="#2EA19E" offset="100%"/></linearGradient><radialGradient cx="41.406%" cy="42.708%" fx="41.406%" fy="42.708%" id="c"><stop stop-color="#DB7C7C" offset="0%"/><stop stop-color="#C83737" offset="100%"/></radialGradient><radialGradient cx="44.271%" cy="42.708%" fx="44.271%" fy="42.708%" id="d"><stop stop-color="#DB7C7C" offset="0%"/><stop stop-color="#C83737" offset="100%"/></radialGradient></defs><path d="M0 171.19V82.17C0 10.27 10.26 0 82.086 0h89.19C243.1 0 253.36 10.27 253.36 82.17v89.02c0 71.9-10.26 82.17-82.085 82.17h-89.19C10.262 253.36 0 243.09 0 171.19z" fill="url(#a)"/><path d="M8.89.655C-3.56 79.583 2.954 153.48 2.954 153.48H41.88c-3.703-19.704-16.99-109.724-5.937-110.02 5.924.94 32.99 76.37 32.99 76.37s5.96-.742 11.958-.742c6 0 11.96.742 11.96.742s27.066-75.43 32.99-76.37c11.053.296-2.235 90.316-5.938 110.02h38.927s6.515-73.897-5.94-152.825h-36.04c-6.86.08-32.96 45.856-35.96 45.856C77.893 46.51 51.793.737 44.933.656H8.892z" fill="url(#b)" transform="translate(45.79 47.098)"/><path d="M73.214 144.267c0 5.088-4.125 9.213-9.214 9.213-5.088 0-9.213-4.125-9.213-9.213 0-5.09 4.125-9.214 9.213-9.214 5.09 0 9.214 4.125 9.214 9.214z" fill="url(#c)" transform="translate(45.79 47.098)"/><path d="M106.995 144.267c0 5.088-4.125 9.213-9.213 9.213-5.088 0-9.213-4.125-9.213-9.213 0-5.09 4.124-9.214 9.212-9.214s9.213 4.125 9.213 9.214z" fill="url(#d)" transform="translate(45.79 47.098)"/><path d="M196.846 50.362c5.618 38.026 6.936 74.52 6.833 101.705-.107 27.806-1.7 45.87-1.7 45.87h-32.767l-3.52 2.64h38.926s6.515-73.896-5.94-152.824l-1.834 2.61zm-103.154-.96c10.226 11.376 27.913 41.567 30.35 41.567-6.484-8.293-22.41-34.75-30.35-41.568zM79.094 87.918c-11.054.297 2.234 90.317 5.938 110.02H51.05l-2.307 2.64H87.67c-3.684-19.604-16.855-108.825-6.102-110.02-1.002-1.505-1.866-2.544-2.474-2.64zm89.896 0c-5.923.94-32.99 76.37-32.99 76.37s-5.96-.74-11.958-.74c-3.55 0-6.604.217-8.67.41l-.65 2.97s5.96-.742 11.96-.742c5.997 0 11.958.742 11.958.742s26.862-74.936 32.907-76.37c-.65-1.65-1.456-2.61-2.557-2.64z" opacity=".1"/><path d="M54.68 47.753c-12.452 78.928-5.937 152.825-5.937 152.825L51.035 198c-1.173-17.433-4.306-80.48 6.285-147.608h36.042c.763.01 1.787.635 2.97 1.65-2.36-2.626-4.323-4.274-5.61-4.29h-36.04zm107.96 0c-6.86.08-32.96 45.856-35.96 45.856 1.224 1.563 2.217 2.638 2.64 2.638 3 0 29.1-45.775 35.96-45.856h31.805l1.596-2.64h-36.04zM84.207 93.196c8.755 13.148 30.515 73.732 30.515 73.732l.637-2.954c-5.373-14.732-25.845-69.96-30.988-70.778-.056.002-.11-.006-.165 0zm90.062 0c5.87 14.977-5.245 89.65-8.578 107.382l3.53-2.757c4.508-26.445 15.363-104.346 5.047-104.624z" opacity=".3" fill="#FFF"/></svg>