<svg width="256" height="329" viewBox="0 0 256 329" xmlns="http://www.w3.org/2000/svg" preserveAspectRatio="xMinYMin meet"><path d="M0 284.853c4.33-1.91 8.93-2.862 13.35-2.862 4.24 0 6.945 1.04 8.478 3.21 3.247-2.167 7.666-3.21 11.094-3.21 10.284 0 10.644 4.164 10.644 16.394v27.058c0 1.214.18 1.214-4.96 1.214v-28.794c0-8.846-.18-11.535-6.042-11.535-2.615 0-5.322.606-8.21 2.515v37.206c-.09.348-.27.434-.9.52-.09 0-.18.086-.272.086h-3.79v-28.792c0-8.498 0-11.622-6.13-11.622-2.616 0-5.232.52-8.3 1.996v37.206c0 1.214.18 1.214-4.96 1.214v-41.803m67.81-2.862c-7.666 0-16.144 2.17-16.144 25.327 0 17.866 6.222 20.64 14.792 20.64 6.582 0 12.265-2.168 12.265-3.21 0-1.3-.18-3.295-.63-4.423-2.797 1.91-6.767 2.948-11.185 2.948-6.043 0-10.1-1.734-10.194-15.177 3.97 0 14.074-.086 21.56-1.56.63-2.864.9-7.027.9-10.668 0-8.673-3.52-13.876-11.364-13.876m-.452 4.337c5.412 0 6.855 3.554 6.945 10.494 0 1.82-.09 3.99-.36 6.07-5.052 1.215-13.623 1.215-17.23 1.215.634-15.783 6.044-17.778 10.645-17.778m19.664-.52c4.237-2.776 8.12-3.816 12.087-3.816 4.42 0 6.496 1.215 6.496 2.69 0 .868-.273 2.343-.723 3.21-1.264-.694-2.705-1.3-5.053-1.3-2.885 0-5.59.778-7.755 2.687v36.167c0 1.215.09 1.215-5.05 1.215v-40.853m45.536-.954c0-1.128-3.786-2.862-7.575-2.862-7.31 0-16.237 2.516-16.237 23.938 0 20.293 5.414 22.115 14.882 22.115 4.69 0 8.93-2.515 8.93-3.902 0-.78-.178-1.994-.632-3.036-1.895 1.387-4.78 2.69-7.845 2.69-6.494 0-10.283-1.82-10.283-17.605 0-17.434 6.222-19.863 11.635-19.863 3.065 0 4.78.867 6.493 1.995.454-1.04.633-2.515.633-3.47m34.552 40.33c-3.97 1.996-9.2 2.777-13.71 2.777-11.546 0-13.26-4.856-13.26-16.392v-27.146c0-1.126-.088-1.126 5.053-1.126v28.794c0 8.673 1.262 11.622 8.026 11.622 2.617 0 6.225-.52 8.932-2.082v-37.206c0-1.126-.18-1.126 4.96-1.126v41.885m10.286-39.376c4.237-2.776 8.117-3.816 12.084-3.816 4.42 0 6.495 1.215 6.495 2.69 0 .868-.27 2.343-.72 3.21-1.264-.694-2.707-1.3-5.053-1.3-2.885 0-5.592.778-7.757 2.687v36.167c0 1.215.092 1.215-5.05 1.215v-40.853m30.16-2.515c-3.97 0-5.14 0-5.14 2.342v41.022c5.05 0 5.14 0 5.14-1.214v-42.15m-5.32-15.263c0 2.86.9 3.9 2.703 3.987 2.076 0 3.068-1.473 3.068-4.077.09-2.688-.633-3.902-2.706-3.902-1.983 0-2.975 1.475-3.066 3.99m13.878 17.78c0-.955.18-1.476.543-1.735 1.714-.954 8.3-2.082 15.785-2.082 5.683 0 9.29 2.69 9.29 10.495v5.636c0 15.44-.45 26.975-.45 26.975-2.076 1.126-5.953 2.862-12.27 2.862-6.493.086-12.986-.52-12.986-13.356 0-12.227 6.674-14.136 13.348-14.136 2.525 0 5.503.26 7.488 1.042v-8.068c0-5.636-2.885-6.85-6.315-6.85-4.598 0-11 .867-13.798 2.168-.543-.954-.636-2.43-.636-2.95m20.746 19.256c-1.714-.608-4.15-.867-5.863-.867-5.14 0-9.832 1.04-9.832 10.58 0 8.933 3.88 9.02 8.478 9.02 2.887 0 5.774-.78 6.765-1.82.002 0 .452-10.41.452-16.913m19.14 20.38c0 1.214.09 1.214-4.962 1.214v-61.404c0-2.342.992-2.342 4.962-2.342v62.532" fill="#010101"/><path d="M239.15 190.973c45.73-76.034-9.658-199.35-110.932-186.82-91.503 11.31-92.977 107.62-12.335 130.5 69.787 19.818 14.418 64.082 16.036 93.56 1.623 29.47 60.667 40.164 107.23-37.24z" fill="#1B1A1B"/><path d="M81.333 238.91c21.074-5.54 33.686-27.197 28.17-48.37-5.518-21.17-27.074-33.84-48.15-28.298-21.073 5.543-33.685 27.2-28.168 48.37 5.517 21.17 27.074 33.84 48.148 28.3zM23.78 90.97C9.593 92.35-.794 105.01.58 119.265c1.377 14.264 13.98 24.707 28.172 23.327 14.187-1.398 24.583-14.058 23.203-28.313-1.378-14.246-13.98-24.69-28.172-23.31z" fill="#1B1A1B"/><path d="M239.344 187.56c45.442-75.902-9.594-199.002-110.227-186.496-90.923 11.292-92.39 107.438-12.258 130.278 69.343 19.782 14.325 63.97 15.933 93.398 1.616 29.417 60.283 40.09 106.55-37.18z" fill="#BFBFBF"/><path d="M144.453 236.353c-2.753-4.487 1.458-9.472 5.786-9.093 6.89.606 21.89-.08 33.728-6.822 29.574-16.842 75.084-97.88 52.195-148.992-10.248-22.88-15.237-29.43-25.79-40.623-2.154-2.282-.918-2.158.54-1.385 5.707 3.008 15.735 14.663 26.022 33.63 17.38 32.05 16.478 70.15 10.014 94.05-4.503 16.626-20.012 54.238-42.723 70.5-22.763 16.3-49.398 25.65-59.774 8.735zM123.847 131.186c-15.494-4.62-35.468-11.055-47.02-26.235-8.517-11.193-12.84-23.41-13.945-30.336-.393-2.472-.726-4.534-.018-5.103.328-.264 6.36 13.433 15.377 24.912 9.016 11.482 21.617 18.197 32.114 20.637 9.337 2.168 28.677 6.932 35.22 12.533 6.728 5.756 7.29 18.194 5.025 19.597-2.283 1.41-6.913-10.09-26.753-16.004z"/><path d="M155.794 238.547c-.3 3.562 3.774 4.26 9.257 3.435 7.028-1.058 12.97-1.853 21.06-5.926 10.962-5.52 22.057-13.414 30.182-24.066 24.243-31.775 32.828-69.37 31.506-74.78-.442 4.467-6.294 27.91-19.68 49.047-17.19 27.15-29.654 41.61-58.404 48.62-8 1.953-13.53-1.02-13.92 3.67zM92.03 114.986c3.275 2.79 9.984 6.508 23.184 10.857 15.944 5.25 23.707 9.806 26.958 11.988 3.445 2.318 5.628 7.49 5.844 2.897.225-4.598-2.596-8.552-8.89-10.65-4.26-1.42-11.424-4.802-18.29-6.164-4.414-.875-11.593-2.612-17.75-4.506-3.374-1.04-6.812-2.866-11.056-4.42z" fill="#FFF"/><path d="M81.323 235.83c20.99-5.542 33.552-27.197 28.057-48.37-5.495-21.17-26.966-33.84-47.957-28.298-20.99 5.543-33.552 27.2-28.057 48.37 5.495 21.17 26.966 33.84 47.957 28.3z" fill="#BFBFBF"/><path d="M47.984 226.375c30.56 28.56 76.556-10.672 56.302-45.323-2.275-3.89-5.228-6.853-4.256-3.872 6.473 19.925.49 35.687-10.67 43.807-10.943 7.966-25.983 9.298-38.025 3-3.536-1.847-5.003.846-3.35 2.388z"/><path d="M71.962 232.24c3.89-.825 26.52-6.736 31.836-25.508 1.655-5.853 1.953-4.677 1.485-1.506-2.388 16.187-17.558 28.128-30.467 28.57-2.62.272-6.056-.88-2.854-1.555z" fill="#FFF"/><path d="M24 87.89C9.865 89.27-.48 101.93.887 116.185c1.37 14.262 13.925 24.707 28.058 23.327 14.133-1.398 24.487-14.06 23.11-28.315-1.37-14.246-13.922-24.69-28.057-23.31z" fill="#BFBFBF"/><path d="M12.335 133.418c.157 1.832 2.645 4.186 6.553 5.267 3.358.928 12.014 3.3 23.134-3.778 11.12-7.08 12.403-26.014 7.348-31.583-1.565-2.82-3.6-4.875-1.98-.373 4.088 11.37-3.857 22.002-10.71 26.926-6.85 4.923-15.538 2.593-19.086 1.503-3.547-1.092-5.418.146-5.26 2.038z"/><path d="M26.685 135.962c1.02-.926 6.18-.547 10.838-3.074 4.655-2.526 10.19-8.064 11.177-15.933.582-4.62.757-3.46.988-.944-.722 13.083-12.65 20.31-19.472 21.262-1.84.258-5.08.1-3.53-1.31z" fill="#FFF"/><path d="M230.73 138.253C250 82.23 209.672-2.374 128.092 7.803c-73.713 9.192-74.9 87.445-9.938 106.037 73.584 11.235 29.275 67.223 22.99 95.457-5.636 25.31 59.467 29.474 89.584-71.044z" fill="#999"/><path d="M180.307 182.013c-19.934-2.49-48.62 42.906-21.573 37.59 27.045-5.313-27.048 5.316 0 0 13-1.945 23.772-6.574 33.414-17.674 12.57-14.47 31.35-45.728 36.783-65.923 4.576-17.028 2.277-43.41-2.44-18.622-4.837 25.44-26.248 67.116-46.183 64.628z" fill="#F3F3F3"/><path d="M46.4 218.324c4.615.078 7.407.733 12.08 4.04 9.24 3.873 26.22 1.42 34.062-8.993 7.842-10.41 8.1-24.758 5.112-33.426-7.31-21.217-38.36-20.84-52.23-3.227-15.006 19.67-3.64 41.528.976 41.607zM5.183 120.007c.92 2.922 3.27 7.185 8.234 7.896 6.628.95 7.984 3.97 15.81 2.402 7.827-1.567 13.76-8.036 16.134-15.192 2.72-9.902-1.35-15.014-7.476-19.578-6.124-4.564-19.597-4.073-27.638 3.32-5.714 5.25-7.303 14.038-5.063 21.152z" fill="#999"/><path d="M31.213 126.555c6.014-1.588 13.967-9.853 10.02-16.164-4.873-7.774-18.445-1.12-18.904 7.538-.462 8.66 2.51 10.31 8.883 8.627zM76.37 219.836c5.13-1.355 20.85-7.807 17.9-30.856-1.496-11.676-7.81 14.49-19.5 18.404-17.714 5.928-15.724 17.026 1.6 12.452z" fill="#F3F3F3"/></svg>