<svg width="512" height="124" viewBox="0 0 512 124" xmlns="http://www.w3.org/2000/svg" preserveAspectRatio="xMinYMin meet"><g fill-rule="evenodd"><g fill="#DF4F4F"><path d="M303.758.215l107.286 113.642s3.656 2.578 6.45-.43c2.796-3.007.646-6.014.646-6.014L303.758.215zM337.728 10.956l81.702 88.078s3.655 2.578 6.45-.43c2.795-3.007.645-6.014.645-6.014l-88.797-81.634zM313.863 33.942l81.7 88.08s3.656 2.577 6.45-.43c2.796-3.01.646-6.016.646-6.016l-88.797-81.634zM366.446 20.194l57.08 61.535s2.553 1.8 4.506-.302c1.953-2.1.45-4.202.45-4.202l-62.036-57.032zM321.725 60.58l57.08 61.536s2.554 1.8 4.506-.3c1.954-2.102.452-4.203.452-4.203L321.725 60.58zM395.78 33.513l25.87 27.974s1.263.844 2.23-.14c.965-.985.222-1.97.222-1.97L395.78 33.513zM336.008 88.938l25.87 27.974s1.264.844 2.23-.14c.966-.985.223-1.97.223-1.97L336.01 88.938z"/></g><g fill="#26262C"><path d="M446.17 46.23v75.433h17.068V97.33h12.8l16.457 24.333H512l-18.286-26.157s16.238-6.418 16.238-23.826c0-24.576-22.333-25.448-22.333-25.448l-41.45-.002zm17.068 14.602v21.9h21.943s8.388-.002 8.388-10.952c0-11.365-10.216-10.948-10.216-10.948h-20.114zM257.22 46.232v75.43h57.294v-14.598h-40.228V91.248h34.743v-14.6h-34.744V60.82h40.228V46.232H257.22zM174.324 46.232v14.6h22.552v60.83h17.067v-60.83h22.552v-14.6h-62.17zM96.305 46.232v75.43H153.6v-14.598h-40.23V91.248h34.744v-14.6H113.37V60.82h40.23V46.232H96.305z"/></g></g></svg>