<svg width="256" height="329" viewBox="0 0 256 329" xmlns="http://www.w3.org/2000/svg" preserveAspectRatio="xMinYMin meet"><g fill="#1A1918"><path d="M239.967 0H16.034C7.18 0 0 7.178 0 16.033v84.57l50.39-14.077 33.543 13.91-27.45-13.91S37.176 75.974 33.778 62.14C30.38 48.305 47.594 32.52 47.594 32.52l62.266 7.965-33.87-6.378s11.88-7.912 38.598-7.052c29.323.942 70.64 8.354 77.457 15.172 6.82 6.82 19.526 52.875 12.222 60.182-3.432 3.43-47.254-7.324-47.254-7.324l36.558 11.59s20.276 46.532 7.45 86.552c0 0-27.91-15.146-50.01-45.054 18.312 38.32 48.295 50.61 48.295 50.61s-11.272 30.34-17.8 36.867L75.16 189.927l-53.992 66.072h218.8c8.855 0 16.032-7.18 16.032-16.033V16.033C256 7.178 248.823 0 239.967 0M44.92 303.075v17.262c0 2.727-.627 4.773-1.88 6.134-1.253 1.363-2.91 2.045-4.963 2.045-1.993 0-3.608-.682-4.845-2.044-1.236-1.36-1.855-3.406-1.855-6.133V299.65c0-3.266-.113-5.8-.337-7.61-.224-1.805-.832-3.287-1.822-4.444-.99-1.158-2.556-1.737-4.697-1.737-4.282 0-7.103 1.458-8.46 4.375-1.36 2.917-2.04 7.102-2.04 12.554v17.547c0 2.694-.617 4.732-1.854 6.11-1.237 1.378-2.868 2.068-4.89 2.068-1.995 0-3.626-.69-4.896-2.068-1.27-1.378-1.9-3.416-1.9-6.112V283.19c0-2.443.568-4.298 1.708-5.566 1.14-1.268 2.64-1.903 4.507-1.903 1.8 0 3.3.596 4.505 1.786s1.81 2.832 1.81 4.926v1.238c2.273-2.697 4.707-4.68 7.302-5.95 2.595-1.27 5.477-1.906 8.65-1.906 3.298 0 6.134.652 8.505 1.953 2.37 1.3 4.324 3.27 5.863 5.903 2.207-2.666 4.57-4.64 7.098-5.928 2.524-1.283 5.323-1.928 8.394-1.928 3.58 0 6.665.7 9.255 2.095 2.59 1.396 4.524 3.395 5.805 5.996 1.115 2.348 1.674 6.04 1.674 11.083v25.347c0 2.727-.623 4.77-1.868 6.134-1.244 1.363-2.886 2.045-4.928 2.045-1.98 0-3.597-.69-4.857-2.068-1.262-1.378-1.89-3.416-1.89-6.11V298.51c0-2.79-.122-5.026-.362-6.705-.24-1.68-.886-3.092-1.942-4.234-1.057-1.14-2.656-1.71-4.8-1.71-1.732 0-3.37.507-4.924 1.522-1.554 1.014-2.76 2.376-3.624 4.088-.96 2.19-1.44 6.056-1.44 11.605M137.247 302.16c0 3.87-.61 7.435-1.82 10.7-1.215 3.266-2.972 6.072-5.27 8.418-2.3 2.346-5.047 4.146-8.24 5.398-3.194 1.25-6.787 1.877-10.777 1.877-3.96 0-7.52-.637-10.683-1.904-3.162-1.27-5.9-3.085-8.214-5.45-2.315-2.364-4.072-5.157-5.27-8.377-1.197-3.22-1.794-6.784-1.794-10.687 0-3.933.605-7.535 1.818-10.804 1.212-3.267 2.953-6.06 5.22-8.376 2.27-2.316 5.016-4.1 8.24-5.355 3.226-1.252 6.787-1.88 10.682-1.88 3.96 0 7.552.636 10.778 1.906 3.226 1.273 5.987 3.082 8.285 5.432 2.3 2.35 4.048 5.145 5.246 8.384 1.196 3.24 1.797 6.813 1.797 10.72zm-13.15 0c0-5.295-1.173-9.416-3.514-12.363-2.343-2.947-5.49-4.423-9.443-4.423-2.552 0-4.8.658-6.742 1.973-1.944 1.317-3.44 3.257-4.493 5.825-1.052 2.568-1.578 5.564-1.578 8.99 0 3.39.518 6.356 1.553 8.892 1.036 2.536 2.52 4.478 4.448 5.825 1.927 1.347 4.2 2.02 6.812 2.02 3.953 0 7.1-1.482 9.443-4.446 2.34-2.964 3.515-7.063 3.515-12.293zM159.494 282.91v1.57c2.3-3.015 4.813-5.23 7.544-6.642 2.728-1.41 5.865-2.117 9.41-2.117 3.448 0 6.53.746 9.244 2.238 2.713 1.493 4.74 3.602 6.083 6.332.86 1.587 1.42 3.302 1.674 5.14.254 1.84.383 4.19.383 7.044v24.178c0 2.603-.6 4.57-1.795 5.904-1.195 1.33-2.75 1.997-4.665 1.997-1.95 0-3.526-.684-4.738-2.047-1.212-1.364-1.82-3.314-1.82-5.854v-21.657c0-4.282-.598-7.558-1.796-9.826-1.2-2.27-3.588-3.405-7.165-3.405-2.334 0-4.458.69-6.375 2.07-1.917 1.38-3.322 3.277-4.215 5.688-.642 1.936-.96 5.553-.96 10.852v16.277c0 2.634-.613 4.608-1.837 5.925-1.224 1.317-2.804 1.976-4.743 1.976-1.876 0-3.416-.684-4.625-2.047-1.207-1.364-1.812-3.314-1.812-5.854v-37.555c0-2.474.54-4.322 1.62-5.544 1.082-1.22 2.56-1.832 4.434-1.832 1.145 0 2.18.27 3.1.81.922.54 1.66 1.35 2.218 2.427.554 1.08.834 2.397.834 3.952M255.943 302.16c0 3.87-.608 7.435-1.82 10.7-1.214 3.266-2.97 6.072-5.27 8.418-2.298 2.346-5.045 4.146-8.238 5.398-3.194 1.25-6.787 1.877-10.777 1.877-3.962 0-7.52-.637-10.683-1.904-3.162-1.27-5.9-3.085-8.214-5.45-2.314-2.364-4.07-5.157-5.27-8.377-1.196-3.22-1.795-6.784-1.795-10.687 0-3.933.607-7.535 1.82-10.804 1.213-3.267 2.953-6.06 5.222-8.376 2.267-2.316 5.014-4.1 8.24-5.355 3.225-1.252 6.786-1.88 10.68-1.88 3.96 0 7.553.636 10.778 1.906 3.225 1.273 5.986 3.082 8.286 5.432 2.3 2.35 4.05 5.145 5.246 8.384 1.198 3.24 1.797 6.813 1.797 10.72zm-13.148 0c0-5.295-1.173-9.416-3.516-12.363-2.342-2.947-5.49-4.423-9.442-4.423-2.552 0-4.8.658-6.743 1.973-1.944 1.317-3.44 3.257-4.493 5.825-1.052 2.568-1.578 5.564-1.578 8.99 0 3.39.518 6.356 1.553 8.892 1.035 2.536 2.52 4.478 4.448 5.825 1.927 1.347 4.2 2.02 6.813 2.02 3.953 0 7.1-1.482 9.44-4.446 2.344-2.964 3.517-7.063 3.517-12.293z"/></g></svg>