<svg width="256" height="113" viewBox="0 0 256 113" xmlns="http://www.w3.org/2000/svg" preserveAspectRatio="xMinYMin meet"><path d="M99.586 1.655H81.93L45.794 63.588 31.586 1.655H14.62L0 84.415h14.07l8.964-50.62c.276-1.932 1.242-8.277 1.242-8.277s.827 6.207 1.24 8.276l11.45 50.622h10.62l29.38-50.622c1.103-1.93 3.586-7.173 4-8-.276.965-1.38 6.483-1.656 8l-8.965 50.622h14.62l14.62-82.76zM157.24 37.38h-15.033l-3.724 20.553c-2.07 11.586-8.276 16-13.104 16-3.863 0-5.518-2.345-5.518-6.07 0-7.724 4.966-15.31 4.966-22.207 0-6.483-4.69-9.517-10.07-9.517-4.137 0-8.69 1.24-11.31 2.895v5.794c.966-.277 2.207-.69 3.586-.69 1.518 0 2.62.965 2.62 2.896 0 5.655-5.24 16.828-5.24 24.69 0 8.138 5.103 14.07 14.07 14.07 6.068 0 12.826-3.863 16.826-9.656l-1.793 10.207c-1.93 11.173-7.31 14.897-14.483 14.897-6.206 0-10.344-1.38-16.275-5.242l-1.105 11.173c4.966 2.897 11.586 5.104 17.793 5.104 13.93 0 25.518-5.795 29.242-26.898l8.55-48.002zm40.967 0h-10.76l2.76-16-15.31 1.655-2.483 14.345h-6.76L164 46.76h6.76l-3.726 20.966c-2.068 11.724 3.725 17.656 13.38 17.656 5.93 0 10.345-1.794 13.103-3.863l-1.103-7.31C190.76 75.31 188.966 76 186.62 76c-4.137 0-5.24-3.31-4.275-9.242l3.448-20h10.76l1.654-9.38zM256 82.623v-6.07c-.828.277-2.07.828-3.448.828-1.518 0-2.76-1.102-2.76-2.895 0-5.656 4.553-16.828 4.553-24.69 0-8.14-5.104-13.932-14.07-13.932-6.068 0-12.827 3.724-16.827 9.655L231.31 0 216 1.655l-14.62 82.76h15.034l3.724-20.69c2.07-11.586 8.414-16 13.103-16 3.863 0 5.657 2.345 5.657 6.07 0 7.724-4.276 15.31-4.276 22.207 0 6.483 4.828 9.38 10.346 9.38 4.827 0 8.55-1.38 11.034-2.76z"/></svg>