<svg width="256" height="256" viewBox="0 0 256 256" xmlns="http://www.w3.org/2000/svg" preserveAspectRatio="xMinYMin meet"><path d="M237.248 18.752c12.04 12.04 18.29 27.122 18.748 45.247v128c-.457 18.12-6.707 33.208-18.748 45.248-12.04 12.04-27.127 18.29-45.25 18.752h-128c-18.124-.46-33.206-6.71-45.246-18.752C6.712 225.208.462 210.12 0 192V64C.46 45.873 6.71 30.79 18.752 18.75 30.792 6.712 45.874.462 64 0h127.997c18.124.46 33.21 6.71 45.25 18.752zm-17.655 103c-4.023-4.002-6.114-9.024-6.28-15.066V64c-.128-6.043-2.202-11.073-6.22-15.092-4.02-4.023-9.055-6.093-15.096-6.22h-21.312v106.626L85.315 42.687H64c-6.043.128-11.073 2.198-15.092 6.22-4.023 4.02-6.093 9.05-6.22 15.092v42.686c-.167 6.042-2.258 11.064-6.28 15.066-4.02 3.997-9.05 6.08-15.092 6.246 6.04.17 11.072 2.253 15.09 6.25 4.024 4.002 6.115 9.024 6.28 15.066V192c.13 6.038 2.2 11.073 6.222 15.092 4.02 4.02 9.05 6.093 15.09 6.22h21.317V106.687l85.37 106.627h21.312c6.04-.128 11.076-2.202 15.095-6.22 4.02-4.02 6.093-9.055 6.22-15.092v-42.686c.167-6.042 2.258-11.064 6.28-15.066 4.02-3.997 9.05-6.08 15.092-6.25-6.04-.167-11.072-2.25-15.09-6.246z" fill="#3C5AFD"/></svg>