<svg width="256" height="271" viewBox="0 0 256 271" xmlns="http://www.w3.org/2000/svg" preserveAspectRatio="xMinYMin meet"><g fill="#E92200"><path d="M23.22 60.23c7.872 2.03 39.195 11.49 58.002 17.234 18.808 5.736 32.884 9.448 43.82 12.497 11.03 3.16 10.206 11.78 1.58 11.035-8.62-.835-18.813-5.468-29-9.46-10.2-3.878-42.26-13.243-58.757-18.802-16.387-5.47-20.38-5.47-22.685-8.62-2.323-3.055-.835-5.933 7.04-3.884"/><path d="M140.794 94.693c7.035-.743 7.78 6.298 6.206 10.193-1.573 3.89-9.352 5.463-10.924 1.58-2.415-5.475-2.415-10.944 4.718-11.773M233.174 38.263c-4.64 3.987-18.807 12.607-28.915 19.65-10.188 7.04-29 19.55-34.56 22.695-5.457 3.146-12.5 7.048-17.23 10.925-4.64 3.993-3.06 11.034 3.988 8.627 7.03-2.317 14.082-6.206 18.8-10.944 4.634-4.718 9.36-7.87 14.083-10.924 4.732-3.146 40.774-29.83 47.815-34.567 7.048-7.78.744-9.357-3.98-5.462M251.25 25.014c3.882 0 5.455 8.62 1.572 10.93-3.89 2.317-9.456 2.317-9.456-5.462 0-7.883 3.987-5.468 7.883-5.468M248.93 41.41c3.06 0 4.628 6.31 3.896 11.028-.835 4.633.732 35.213 1.567 46.144.744 11.028.744 15.76-.835 19.648-1.567 3.89 0 10.187 0 20.38 0 10.2-1.567 23.447-2.31 29.007-.83 5.462-1.574 9.352-4.738 8.614-3.146-.828-3.146-4.73-3.146-11.033 0-6.2 0-39.188.842-46.967.725-7.876.725-11.028.725-17.24V51.61c0-6.305.85-10.2 4-10.2M246.51 182.44c4.737-.75 6.316 7.87 3.908 10.186-2.33 2.414-7.803 1.58-9.37-2.317-1.573-3.89.744-7.036 5.462-7.87M6.53 53.182c4.274-.652 5.658 7.048 2.14 9.816C5.154 65.88.24 63.74.978 59.486c.64-4.176 1.39-5.56 5.554-6.304M16.453 46.88c9.827-4.913 30.207-17.606 35.115-18.99 4.913-1.39 13.99-7.04 17.52-9.82 3.506-2.787 14.717-9.176 16.85-10.566 2.14-1.39 11.95 0 3.525 5.652-8.444 5.657-20.374 12.6-28.812 17.514-8.436 5-32.346 17.6-37.254 19.734-4.913 2.128-16.862 1.39-6.943-3.523M100.028.464c1.402-.646 5.645 2.87 3.51 5.65-2.108 2.775-4.906 4.91-7.778 0-2.774-4.912 2.872-4.912 4.268-5.65M114.107 1.202c9.09 0 31.592 3.52 38.64 5.658 6.955 2.03 21.044 4.164 23.818 4.907 2.865.647 12.686.647 14.814 1.39 2.047.64 8.43 3.52 21.03 4.915 12.7 1.384 20.375 2.78 23.917 4.163 3.524 1.487 1.396 9.913-4.273 8.43-5.554-1.39-28.714-4.17-34.37-4.906-5.66-.653-16.864-4.908-23.162-5.56-6.4-.744-22.52-4.268-35.865-5.66-13.338-1.383-22.507-4.163-26.037-4.906-3.518-.744-7.682-8.432 1.487-8.432M4.5 76.347c0-4.913 7.688-7.047 8.432-.652.646 6.304 1.384 16.863 2.036 25.294.744 8.436 1.482 16.13 2.128 21.775.744 5.56 4.26 19.643 4.926 23.91.725 4.158 1.377 12.595 1.377 17.51 0 4.913 1.48 11.96.743 15.478-.744 3.51-4.26 12.595-6.303 2.12-2.128-10.558-.744-23.897-2.128-27.42-1.396-3.53-4.268-11.218-4.268-16.863 0-5.657-2.773-20.38-3.432-23.904-.73-3.523-3.51-32.34-3.51-37.25M19.882 195.135c.744-2.877 6.395-4.914 8.425-1.396 2.14 3.528 1.48 9.082-3.426 9.826-4.998.652-5.65-5.657-4.998-8.43M31.178 185.96c6.31-6.297 24.557-16.12 35.128-25.3 10.56-9.083 29.45-21.776 32.975-25.287 3.52-3.53 12.7-.66 4.915 5.645-7.682 6.303-25.94 19.642-33.732 25.952-7.68 6.39-28.72 20.38-32.975 24.635-4.17 4.176-12.607.653-6.31-5.645M113.366 123.416c2.786.743 2.786 6.395 0 7.784-2.78 1.385-7.694.64-7.035-3.524.738-4.26 4.256-4.907 7.036-4.26M41.01 202.177c9.816 2.78 31.586 16.863 38.633 19.637 7.042 2.786 20.387 9.82 26.684 13.345 6.298 3.516 21.77 10.564 26.038 12.6 4.157 2.133 7.687 2.87 9.815 5.005 2.134 2.03-.732 9.82-6.304 6.95-5.645-2.78-27.42-13.99-30.94-16.125-3.504-2.134-16.86-9.17-21.13-11.955-4.163-2.78-9.814-3.518-15.374-6.304-5.65-2.767-25.294-13.332-31.69-16.855-6.29-3.518-5.565-9.175 4.27-6.298M137.92 116.468c-.648 6.95.742 20.295 1.486 23.82.646 3.504 3.432 18.24 2.774 28.81-.732 10.566 0 23.904 1.396 30.94 1.378 7.047 2.122 25.293 2.122 30.213 0 4.91 1.39 11.206 2.133 12.602.647 1.482 4.92 7.78 5.56-1.396.757-9.083 0-27.33.757-32.98.652-5.653-.756-18.99-2.14-35.866-1.39-16.87-2.12-30.848-2.12-35.11 0-4.17 1.377-14.734-1.41-18.99-2.127-7.047-9.815-9.083-10.558-2.042M151.264 255.542c2.127-.744 9.187 4.914 6.39 11.21-2.855 6.31-7.03 3.525-9.823-1.383-2.876-4.914 1.39-9.176 3.434-9.828M166.09 248.496c9.078-10.56 11.224-7.688 16.132-11.943 4.907-4.182 24.544-19.65 31.59-25.946 7.03-6.39 12.687-9.913 16.845-13.34 4.274-3.53 10.59 1.67 4.274 5.555-6.303 3.89-20.373 17.69-26.037 25.293-5.554 7.603-10.565 5.646-16.87 11.955-6.278 6.298-9.8 11.212-13.337 12.7-3.518 1.39-6.292 3.425-9.084 5.547-2.87 2.134-12.687.75-3.51-9.82"/><path d="M125.96 128.325c4.27 1.487 21.87 7.785 33.745 13.436 11.955 5.56 40.754 17.51 46.417 21.04 5.64 3.51 28.068 11.942 30.94 14.076 2.792 2.036 3.438 12.607-2.872 9.827-6.304-2.87-23.904-12.698-35.103-17.606-11.217-4.914-28.824-13.35-37.267-15.48-8.425-2.04-24.55-11.856-28.8-14.734-4.17-2.773-9.09-2.773-11.21-6.297-2.146-3.518 0-5.645 4.15-4.26M104.936 18.81c1.396 8.43 2.78 17.51 2.78 24.55 0 7.04 1.39 18.253 2.14 21.776.73 3.518 2.12 15.473 1.378 17.607-.647 2.036 0 18.898 0 23.166 0 4.163 1.39 9.82-2.78 9.82-4.262 0-4.914-3.53-4.914-11.217 0-7.785-2.86-24.642-2.86-31.69 0-6.943-1.395-21.775-1.395-31.597 0-9.815-2.043-20.38-2.774-23.16-.75-2.786 7.03-7.687 8.426.744"/></g></svg>