<svg width="256" height="169" viewBox="0 0 256 169" xmlns="http://www.w3.org/2000/svg" preserveAspectRatio="xMinYMin meet"><g fill="#333"><path d="M22.512 121.755c-4.093 0-7.64 1.02-9.718 2.706l-.01-.002c-1.137-2.065-3.284-3.102-6.114-3.102-4.46 0-6.48 1.184-6.48 3.462 0 1.368.28 2.104.644 3.012h3.283c1.37 0 2.272.64 2.272 2.555h.004v24.5c0 .668.545 1.21 1.212 1.21h4.606c.668 0 1.212-.542 1.212-1.21v-18.92c0-5.438 2.7-7.97 8.494-7.97 3.26 0 4.598.59 5.144 1.085.524.472 1.148 1.646 1.148 4.548v21.256c0 .67.542 1.212 1.212 1.212h4.61c.667 0 1.21-.543 1.21-1.212v-20.466c0-4.854-.898-8.11-2.744-9.945-1.844-1.828-5.11-2.718-9.986-2.718zM54.78 121.755c-6.22 0-10.213 1.13-12.204 3.45-1.946 2.265-2.892 6.828-2.892 13.952 0 7.122.945 11.684 2.89 13.95 1.993 2.32 5.985 3.45 12.207 3.45 6.245 0 10.248-1.13 12.24-3.448 1.947-2.268 2.893-6.83 2.893-13.953 0-7.124-.946-11.687-2.893-13.952-1.992-2.322-5.995-3.45-12.24-3.45zm6.644 27.065c-.413.56-1.822 1.497-6.643 1.497-4.79 0-6.197-.938-6.61-1.497-.456-.624-1.226-2.708-1.226-9.663 0-6.958.77-9.04 1.227-9.666.413-.557 1.82-1.495 6.61-1.495 4.822 0 6.23.938 6.644 1.496.46.626 1.23 2.71 1.23 9.667 0 6.954-.77 9.04-1.23 9.663zM138.188 144.164h-4.707c-.667 0-1.21.542-1.21 1.21v.988c0 1.153-.185 2.637-1.062 3.15-.515.3-2.06.805-6.612.805-4.582 0-6.038-.987-6.5-1.576-.463-.592-1.224-2.352-1.325-7.52h21.418c.67 0 1.21-.54 1.21-1.21v-2.467c0-6.373-.99-10.503-3.035-12.623-2.057-2.13-6.068-3.167-12.26-3.167-5.736 0-9.537 1.195-11.62 3.653-2.03 2.4-3.017 6.79-3.017 13.42 0 7.145.985 11.767 3.006 14.13 2.07 2.423 6.102 3.6 12.324 3.6 5.27 0 8.905-.705 11.112-2.155 2.34-1.538 3.525-4.188 3.525-7.91l-.034-1.15c-.02-.655-.557-1.176-1.212-1.176zM118.164 129.4c.486-.526 1.96-1.405 6.367-1.405 4.43 0 5.925.76 6.424 1.213.48.438 1.282 1.764 1.282 5.763l.006.244h-15.398c.126-3.926.864-5.322 1.32-5.813zM149.647 122.215h-4.61c-.668 0-1.21.543-1.21 1.213v34.354c0 2.66-.356 3.59-.53 3.886l-.592.193h-3.69c-1.935 1.223-3.046 6.127 3.628 6.28l.006-.028c.17.01.354.028.513.028 3.51 0 7.695-1.563 7.695-9.01V123.43c0-.67-.543-1.213-1.21-1.213zM162.197 122.215h-4.608c-.668 0-1.213.543-1.213 1.213v31.456c0 .67.545 1.212 1.212 1.212h4.607c.668 0 1.21-.543 1.21-1.212v-31.456c0-.67-.54-1.213-1.21-1.213zM209.325 135.94l-8.42-.428c-2.446-.122-3.49-1.275-3.49-3.858 0-2.266.56-2.85.8-2.994.33-.2 1.56-.664 5.887-.664 4.82 0 5.996.475 6.242.62.358.213.74 1.123.74 3.04 0 .666.542 1.21 1.21 1.21h4.608c.67 0 1.21-.544 1.21-1.21v-1.153c0-5.803-4.612-8.747-13.715-8.747-5.496 0-9.124.643-11.092 1.967-2.09 1.407-3.15 4.12-3.15 8.063 0 4.194 1.328 7.032 3.945 8.438 2.405 1.294 7.11 1.922 14.38 1.922 1.628 0 3.293.447 3.293 3.757 0 1.84-.405 3.018-1.208 3.504-.562.34-2.2.912-6.86.912-3.722 0-5.077-.527-5.553-.838-.686-.452-1.033-1.5-1.033-3.146l-.035-1.48c-.015-.66-.553-1.185-1.212-1.185h-4.77c-.66 0-1.2.528-1.213 1.19l-.034 1.733c0 3.76 1.168 6.415 3.47 7.897 2.16 1.392 5.856 2.068 11.3 2.068 5.327 0 8.944-.717 11.06-2.19 2.222-1.552 3.346-4.334 3.346-8.268.002-6.33-3.353-9.844-9.707-10.16zM254.926 150.084h-1.908c-1.37 0-2.274-.644-2.274-2.556v-24.1c0-.67-.542-1.213-1.21-1.213h-4.608c-.67 0-1.213.544-1.213 1.214v18.03c0 3.454-.584 5.905-1.693 7.086-1.105 1.177-3.317 1.773-6.573 1.773-3.162 0-4.3-.68-4.695-1.085-.398-.408-1.068-1.585-1.068-4.88V123.43c0-.67-.544-1.214-1.212-1.214h-4.608c-.667 0-1.21.544-1.21 1.213v20.926c0 7.983 4.228 12.203 12.234 12.203 3.816 0 6.786-.802 8.878-2.388l.415-.498c.71 1.922 2.18 2.885 4.907 2.885 4.464 0 6.48-1.186 6.48-3.464.003-1.367-.277-2.104-.64-3.012zM105.49 150.084c-1.208 0-2.05-.504-2.234-1.934v-31.72c0-.67-.543-1.212-1.21-1.212h-4.608c-.67 0-1.21.543-1.21 1.212v7.566c-1.983-1.488-5.034-2.24-9.122-2.24-4.957 0-8.49 1.314-10.5 3.906-1.966 2.537-2.923 6.8-2.923 13.034 0 6.738.947 11.27 2.894 13.86 2 2.655 5.65 4.002 10.858 4.002 3.84 0 6.793-.784 8.827-2.34l.45-.397c.73 1.825 2.192 2.738 4.85 2.738 4.464 0 6.482-1.184 6.482-3.462 0-1.366-.28-2.103-.645-3.01h-1.91v-.002zm-17.202.234c-3.044 0-5.024-.655-5.886-1.95-.665-.99-1.457-3.483-1.457-9.707 0-5.605.788-7.89 1.452-8.82.872-1.225 2.823-1.845 5.792-1.845 3.217 0 5.363.64 6.377 1.9.74.922 1.625 3.117 1.625 8.34 0 6.57-.815 9.13-1.498 10.12-.882 1.285-3.1 1.963-6.406 1.963zM185.932 122.215h-6.769v-6.357c0-.67-.543-1.212-1.21-1.212h-4.608c-.67 0-1.21.543-1.21 1.212v6.357h-3.133c-.67 0-1.212.543-1.212 1.213v3.815c0 .67.54 1.212 1.212 1.212h3.133v19.16c0 4.052 1.775 8.876 10.17 8.937l.002.006c.018 0 .034-.004.05-.004.037 0 .067.004.102.004.03 0 .055-.015.083-.016 6.393-.27 5.3-5.057 3.39-6.262h-4.21c-1.356-.158-2.56-.91-2.56-3.785v-18.04h3.137l.007.04c6.673-.153 5.56-5.06 3.625-6.28z"/></g><path d="M198.896 57.898c2.205-11.653-1.398-23.464-9.777-31.848-6.707-6.705-15.652-10.396-25.182-10.396-2.234 0-4.473.21-6.663.616C150.592 6.48 139.74.673 127.88.673c-11.853 0-22.792 5.81-29.473 15.6-2.18-.407-4.417-.613-6.656-.613-9.523 0-18.467 3.69-25.164 10.393-8.39 8.384-11.99 20.195-9.783 31.845-10.384 5.877 4.493 35.628 35.435 30.442 2.712 1.527 19.1 8.127 35.642 8.16 16.68.035 33.517-6.51 36.448-8.163 29.748 3.535 45.175-25.665 34.568-30.44z" fill="#C5C7C9"/><path d="M98.254 52.1c-6.757-5.5-16.688-4.483-22.188 2.273-5.498 6.754-4.48 16.688 2.274 22.188 5.255 4.28 12.43 4.61 17.946 1.367.6-.353 2.005-.97 3.478.23l21.367 17.397 4.4-5.404-21.366-17.394c-1.474-1.2-1.158-2.696-.934-3.354 2.058-6.06.28-13.022-4.976-17.3z" fill="#333"/><path d="M84.55 69.067c-2.617-2.13-3.013-5.976-.883-8.592 2.132-2.62 5.98-3.01 8.595-.88 2.616 2.13 3.015 5.977.883 8.596-2.13 2.617-5.98 3.007-8.596.877z" fill="#FFF"/><path d="M157.438 52.1c6.756-5.5 16.688-4.483 22.188 2.273 5.498 6.754 4.48 16.688-2.275 22.188-5.254 4.28-12.428 4.61-17.945 1.367-.6-.353-2.005-.97-3.478.23L134.56 95.555l-4.4-5.404 21.367-17.394c1.474-1.2 1.16-2.696.934-3.354-2.058-6.06-.28-13.022 4.978-17.3z" fill="#333"/><path d="M171.362 69.067c2.616-2.13 3.012-5.976.882-8.592-2.133-2.62-5.98-3.01-8.594-.88-2.617 2.13-3.016 5.977-.884 8.596 2.13 2.617 5.98 3.007 8.596.877z" fill="#FFF"/><path d="M142.26 94.792c0 7.94-6.436 14.376-14.377 14.376-7.94 0-14.378-6.436-14.378-14.376 0-7.942 6.437-14.38 14.378-14.38 7.94 0 14.377 6.438 14.377 14.38z" fill="#333"/><path d="M127.88 100.902c-3.375 0-6.107-2.738-6.107-6.11 0-3.376 2.732-6.112 6.106-6.112 3.375 0 6.108 2.735 6.108 6.11 0 3.374-2.732 6.112-6.11 6.112z" fill="#FFF"/><path d="M143.654 40.544c0-8.712-7.06-15.772-15.77-15.772s-15.772 7.06-15.772 15.772c0 6.776 4.306 12.548 10.303 14.78.653.242 2.048.944 2.048 2.843V85.57h6.365V58.166c0-1.9 1.63-2.6 2.28-2.842 6.002-2.23 10.546-8.003 10.546-14.78z" fill="#333"/><path d="M121.773 40.542c0-3.373 2.732-6.11 6.106-6.11 3.375 0 6.108 2.737 6.108 6.11 0 3.374-2.732 6.113-6.11 6.113-3.373 0-6.105-2.74-6.105-6.113z" fill="#FFF"/></svg>