<svg width="256" height="290" viewBox="0 0 256 290" xmlns="http://www.w3.org/2000/svg" preserveAspectRatio="xMinYMin meet"><path d="M127.866 286.234c-2.74 0-5.25-.685-7.078-1.598L10.503 221.16c-3.88-2.284-7.078-7.992-7.078-12.33V81.42c0-4.338 3.425-10.046 7.078-12.33L120.788 5.614c1.827-1.142 4.338-1.6 7.078-1.6s5.252.686 7.08 1.6L245 69.32c3.882 2.282 7.08 7.99 7.08 12.328V208.83c0 4.338-3.426 10.046-7.08 12.33l-110.055 63.704c-1.827.914-4.34 1.37-7.08 1.37z" fill="#3D3B47"/><path d="M127.866 7.44c2.055 0 4.11.457 5.48 1.142L243.402 72.06c2.74 1.597 5.48 6.164 5.48 9.36V208.6c0 3.198-2.74 7.765-5.48 9.363l-110.056 63.705c-1.37.685-3.425 1.14-5.48 1.14-2.055 0-4.11-.455-5.48-1.14L12.33 218.19c-2.74-1.597-5.48-6.164-5.48-9.36V81.42c0-3.196 2.74-7.763 5.48-9.36L122.386 8.58c1.37-.685 3.425-1.142 5.48-1.142zm0-6.85c-3.196 0-6.393.685-8.905 2.055L8.906 66.122C4.11 69.09 0 75.94 0 81.42V208.6c0 5.71 3.882 12.56 8.905 15.3l110.056 63.704c2.513 1.37 5.71 2.055 8.906 2.055 3.197 0 6.394-.686 8.905-2.056L246.828 223.9c4.795-2.74 8.905-9.59 8.905-15.3V81.42c0-5.708-3.88-12.558-8.905-15.298L136.77 2.645c-2.51-1.37-5.707-2.055-8.904-2.055z" fill="#CCC"/><path d="M127.866 135.307h.685c3.198.228 6.166 2.055 7.993 4.795.913 1.598 1.37 3.653 1.37 5.708-.457 5.252-4.567 9.133-9.818 9.133h-.685c-3.197-.228-6.165-2.055-7.992-4.795-.913-1.598-1.37-3.653-1.37-5.708.228-5.023 4.567-9.133 9.818-9.133zm0-.685c-5.48 0-10.046 4.338-10.503 9.818-.228 2.055.228 4.11 1.37 5.937 1.827 2.968 4.795 5.023 8.448 5.25h.686c5.48 0 10.047-4.337 10.504-9.817.228-2.055-.457-4.11-1.37-5.937-1.827-2.968-4.795-5.023-8.45-5.25h-.684z" fill="#EFF3F3"/><path d="M128.095 141.7c1.826.228 3.425 1.827 3.196 3.653-.227 1.827-1.825 3.425-3.652 3.197-1.827-.228-3.425-1.827-3.197-3.653 0-1.827 1.828-3.425 3.655-3.197zM127.866 159.053h-.913c-4.567-.228-8.905-2.968-11.188-6.85-1.37-2.51-2.055-5.25-1.827-7.99.228-3.198 1.598-6.166 3.653-8.45v-.228L27.4 204.263l103.663-45.666c-1.142.228-2.055.456-3.197.456z" fill="#EFF3F3"/><path d="M124.44 131.653c1.37-.228 2.74-.456 4.34-.456 4.566.228 8.905 2.968 11.188 6.85 1.37 2.51 2.055 5.25 1.826 7.99-.228 3.426-1.598 6.395-3.88 8.678l91.104-67.13-104.577 44.068z" fill="#0977F7"/></svg>