<svg width="256" height="292" viewBox="0 0 256 292" xmlns="http://www.w3.org/2000/svg" preserveAspectRatio="xMinYMin meet"><path d="M120.947 289.19c4.258 2.462 9.51 2.462 13.77 0l114.08-65.83c4.267-2.46 6.893-7.008 6.893-11.935V79.665c0-4.924-2.627-9.47-6.886-11.935L134.724 1.846c-4.266-2.46-9.52-2.46-13.785 0L6.89 67.73C2.626 70.195 0 74.74 0 79.664v131.77c0 4.918 2.627 9.465 6.892 11.925l114.054 65.83" fill="#76D04B"/><path d="M201.7 114.11l-5.086-2.927c7.823-11.54 12.498-28.888 6.636-54.825 0 0-13.202 37-39.74 35.773l-31.073-17.88c-1.172-.696-2.485-1.054-3.813-1.11h-.717c-1.325.057-2.636.415-3.824 1.11L93.006 92.13C66.47 93.36 53.266 56.36 53.266 56.36c-5.866 25.936-1.183 43.285 6.638 54.825l-5.087 2.93c-2.583 1.488-4.19 4.254-4.19 7.27l.153 107.332c0 1.498.775 2.885 2.09 3.614 1.284.774 2.873.774 4.155 0l41.164-23.573c2.604-1.547 4.188-4.276 4.188-7.26v-50.142c0-2.99 1.584-5.762 4.177-7.243l17.53-10.094c1.304-.76 2.733-1.13 4.192-1.13 1.426 0 2.892.37 4.162 1.13l17.522 10.093c2.594 1.48 4.183 4.254 4.183 7.243v50.143c0 2.983 1.605 5.733 4.194 7.26l41.153 23.57c1.29.774 2.904.774 4.184 0 1.275-.728 2.077-2.116 2.077-3.614l.134-107.332c-.003-3.018-1.586-5.784-4.186-7.27z" fill="#4F4D3F"/></svg>