<svg width="256" height="308" viewBox="0 0 256 308" xmlns="http://www.w3.org/2000/svg" preserveAspectRatio="xMinYMin meet"><path d="M235.734 269.653c-13.904 13.905-48.045 4.005-87.062-22.24l64.99-64.57c26.113 38.908 35.945 72.937 22.072 86.81zM34.924 128.987C14.928 95.457 8.473 67.1 20.825 54.747c12.41-12.41 40.946-5.85 74.672 14.356l-60.575 59.884zm189.88 42.787l18.76-18.64V0l-91.367 90.753c-1.847-1.56-3.696-3.087-5.545-4.59l18.762-18.492L165.398 0l-58.806 58.135C64.664 33.522 27.224 26.73 9.762 44.193-7.625 61.577-.994 98.73 23.348 140.43L9.71 153.91v153.143l71.743-71.18-.097-85.356 53.85-53.074c1.85 1.524 3.704 3.08 5.558 4.664L88.612 153.91l-.006 153.18 48.39-48.077c46.833 30.785 90.078 40.837 109.25 21.665 19.124-19.124 9.16-62.205-21.443-108.904z" fill="#7D4F8F"/><path d="M9.67 154.304v153.534l71.926-71.363-.097-85.573 84.27-83.058L165.754 0 9.67 154.304" fill="#3F2A70"/><path d="M88.256 307.886l.006-153.577L243.616 0v153.53L88.256 307.885" fill="#5A2A79"/><path d="M136.995 258.884c46.833 30.785 90.077 40.837 109.25 21.665 27.02-27.022-4.014-101.865-69.317-167.168C111.625 48.08 36.782 17.045 9.76 44.066-7.623 61.45-.992 98.603 23.35 140.3l11.574-11.44C14.93 95.33 8.474 66.97 20.826 54.62c20.55-20.55 85.316 10.9 144.66 70.245 59.345 59.344 90.795 124.11 70.246 144.66-13.904 13.904-48.045 4.004-87.06-22.24l-11.677 11.6" fill="#7D4F8F"/></svg>