<svg width="256" height="259" viewBox="0 0 256 259" xmlns="http://www.w3.org/2000/svg" preserveAspectRatio="xMinYMin meet"><path d="M94.03 57.213c18.68-15.56 49.258-15.562 67.944 0l80.016 66.632c18.68 15.56 18.683 41.015-.003 56.577l-80.013 66.63c-18.69 15.564-49.266 15.56-67.945 0l-80.017-66.63c-18.683-15.56-18.683-41.016-.003-56.577l80.02-66.632z" fill="#015965"/><path d="M94.03 35.56c18.68-15.558 49.258-15.56 67.944 0l80.016 66.634c18.68 15.562 18.683 41.017-.003 56.578l-80.013 66.63c-18.69 15.564-49.266 15.56-67.945 0l-80.017-66.63c-18.683-15.56-18.683-41.016-.003-56.578L94.03 35.56z" fill="#E5E5E5"/><path d="M161.974 12.32l80.016 66.63c18.68 15.563 18.683 41.018-.003 56.58l-80.013 66.63c-18.69 15.564-49.266 15.56-67.945 0l-80.017-66.63C-4.67 119.967-4.67 94.512 14.01 78.95l80.02-66.63c18.68-15.56 49.258-15.564 67.944 0z" fill="#35BBCE"/><path d="M244.31 81.1c-.735-.71-1.493-1.405-2.3-2.077L161.99 12.33c-18.69-15.577-49.268-15.574-67.953 0L14.01 79.023c-18.68 15.58-18.68 41.058.004 56.634l8.612 7.176C45.142 115.79 121.074 40.853 244.31 81.1z" opacity=".15" fill="#FFF"/></svg>