<svg width="256" height="209" viewBox="0 0 256 209" xmlns="http://www.w3.org/2000/svg" preserveAspectRatio="xMinYMin meet"><path d="M231.94 142.042c-3.53 0-6.954.772-9.978 2.146-1.326-.806-2-1.588-4-2.35V52.714l-90.21-52.5-75.764 44.72c-1.286-.752-2.58-1.538-3.907-2.342-.108-13.167-10.842-23.847-24.034-23.847C10.786 18.745 0 29.535 0 42.795c0 13.26 10.79 24.05 24.052 24.05 3.532 0 7.03-.773 10.054-2.147 1.253.762 2.86 1.502 3.86 2.224v89.93l90.084 52.143 76.497-44.746c1.124.66 2.23 1.344 3.385 2.045.11 13.168 10.835 23.847 24.027 23.847 13.26 0 24.04-10.79 24.04-24.05 0-13.26-10.798-24.05-24.06-24.05" fill="#B8C6C9"/><g fill="#759BC5"><path d="M127.876 194.07l77.148-45.142v-88.65L127.872 15.36 50.766 60.908v88.543l77.11 44.62M242.933 166.29c0 6.048-4.898 10.95-10.937 10.95-6.04 0-10.937-4.902-10.937-10.95 0-6.047 4.895-10.95 10.936-10.95 6.04 0 10.937 4.903 10.937 10.95M13.072 42.784c0-6.047 4.896-10.95 10.937-10.95 6.04 0 10.936 4.903 10.936 10.95s-4.897 10.95-10.937 10.95c-6.042 0-10.938-4.903-10.938-10.95"/></g><path d="M232.096 172.75c-3.62 0-6.565-2.946-6.565-6.566 0-3.62 2.946-6.564 6.566-6.564 3.62 0 6.564 2.944 6.564 6.564s-2.944 6.565-6.564 6.565zm-89.16 7.354c7.145-10.292 15.613-25.042 20.823-42.76 11.065 2.27 21.393 5.95 32.597 11.542l-53.42 31.218zM89.016 78.04c-1.727 7.203-2.91 14.875-3.178 22.945-10.058.003-19.858.003-30.867.003V65.57c11.01 5.936 22.6 9.937 34.045 12.47zM24.033 49.347c-3.62 0-6.566-2.945-6.566-6.565 0-3.62 2.946-6.564 6.566-6.564 3.62 0 6.564 2.944 6.564 6.564s-2.944 6.565-6.564 6.565zm87.425-19.163c-7.18 10.024-15.395 24.083-20.526 41.135-10.346-2.252-20.104-5.77-30.61-10.966l51.135-30.17zm19.384 97.08c.006-2.69.014-5.423.022-8.188 5.673-1.137 10.176-5.512 11.524-11.106 6.932.006 13.555.01 20.052.01-.264 7.48-1.347 14.678-2.99 21.498-8.787-1.43-18.115-2.104-28.608-2.213zm-.012 7.002c9.867.1 18.592.7 26.78 1.974-6.926 22.825-19.53 40.672-26.634 49.495-.122-16.324-.17-33.12-.146-51.47zm-39.88 4.053c5.14 17.12 13.365 31.12 20.55 41.065l-52.485-30.332c6.425-3.02 17.44-7.492 31.934-10.734zm22.535-30.347c1.327 5.503 5.71 9.82 11.253 11.04-.01 2.792-.017 5.553-.023 8.27-10.81.182-20.715 1.32-29.545 2.97-1.7-6.985-2.812-14.432-3.06-22.268 6.963-.002 14.015-.006 21.375-.012zm11.225-26.276c.007 2.763.015 5.518.024 8.27-5.53 1.217-9.903 5.52-11.24 11.003-7.36.006-14.41.01-21.374.013.267-7.652 1.35-14.926 2.998-21.758 9.085 1.583 18.71 2.337 29.592 2.472zm-.07-53.737c.01 15.356.02 31.085.053 46.735-10.243-.126-19.26-.795-27.733-2.215 7.12-23.304 20.274-40.677 27.678-49.144l.003 4.624zm38.97 43.15c-5.195-17.348-13.514-31.767-20.57-41.88L196.82 60.5c-6.64 3.017-18.107 7.487-33.207 10.61zM130.77 27.957l-.003-4.7c7.015 8.576 19.693 26.22 26.717 49.007-8.06 1.367-16.997 2.292-26.662 2.427-.033-15.65-.043-31.378-.052-46.734zm-2.832 84.41c-4.343 0-7.877-3.533-7.877-7.877 0-4.344 3.535-7.878 7.878-7.878 4.344 0 7.878 3.534 7.878 7.877s-3.534 7.877-7.878 7.877zm-3.083 73.846c-7.312-8.343-20.582-25.763-27.8-49.143 8.31-1.54 17.592-2.603 27.65-2.784-.024 18.518.025 35.457.15 51.926zm17.524-85.245c-1.362-5.574-5.857-9.932-11.518-11.065l-.023-8.21c10.398-.137 19.957-1.13 28.53-2.603 1.693 6.925 2.81 14.253 3.074 21.89-6.5-.003-13.13-.007-20.065-.013zm57.71-.01c-10.008.014-21.207.022-31.838.022-.257-8.067-1.556-15.778-3.29-23.044 16.32-3.385 29.124-8.292 35.128-11.488v34.51zM54.97 107.99c11.01 0 20.853 0 30.906-.003.244 8.297 1.332 16.153 3.083 23.505-15.62 3.495-26.983 8.378-33.99 11.59V107.99zm110.247 22.616c1.678-7.15 2.616-14.72 2.872-22.624 10.628 0 21.992-.008 32-.023v35.326c-11.01-6.128-22.947-10.183-34.873-12.68zm66.88 20.26c-4.115 0-8.044 1.64-10.798 4.288-4.16-2.61-8.2-4.99-12.202-7.172V57.746L127.722 10.31 51.136 55.554c-4.087-2.288-8.278-4.817-12.746-7.62.58-1.613.936-3.342.936-5.152 0-8.446-6.86-15.316-15.305-15.316S8.71 34.336 8.71 42.782c0 8.446 6.875 15.318 15.32 15.318 4.114 0 7.617-1.638 10.372-4.286 4.082 2.56 8.56 4.9 11.562 7.048v91.023L127.72 199l77.605-45.284c3.918 2.207 8.038 4.64 12.307 7.316-.58 1.613-.883 3.343-.883 5.152 0 8.446 6.885 15.318 15.33 15.318 8.447 0 15.325-6.872 15.325-15.318s-6.863-15.317-15.31-15.317z" fill="#343532"/></svg>