<svg width="512" height="110" viewBox="0 0 512 110" xmlns="http://www.w3.org/2000/svg" preserveAspectRatio="xMinYMin meet"><path d="M89.285 49.987l1.064-10.64c-.203-4.888-1.365-9.3-3.454-13.352l-5.59 7.73c.773 2.575 1.084 5.354.852 8.257-1.064 13.294-13.142 24.07-26.98 24.07-3.248 0-6.306-.593-9.066-1.674l33.408-34.9 14.108-14.31-10.052 5.314C76.912 12.094 66.204 7.114 53.924 7.605 32.8 8.45 14.854 25.635 13.838 45.99 12.823 66.346 29.12 82.16 50.244 81.318c18.63-.744 34.79-14.203 39.04-31.33zM127.23 58.4c.573-5.707.098-9.85-1.42-12.425-1.48-2.572-4.085-3.86-7.808-3.863-1.637 0-3.298.262-4.983.783-1.654.52-3.315 1.304-4.988 2.35l-2.948 29.493c.93.417 1.96.715 3.096.89 1.164.174 2.547.258 4.15.258 4.456 0 7.906-1.442 10.353-4.33 2.444-2.925 3.96-7.31 4.547-13.157zm41.22 30.9c-7.45 0-12.724-1.526-15.828-4.592-3.072-3.063-4.258-8.074-3.56-15.035l2.74-27.405h-6.673c1.158 4.416 1.433 9.672.825 15.766-.935 9.36-4.075 16.914-9.416 22.656-5.31 5.742-11.443 8.61-18.402 8.61-2.924 0-5.433-.33-7.522-.99-2.093-.662-4.286-1.687-6.582-3.08l-2.444 24.43H83.32l3.308-33.097C76.872 89.626 61.436 98.218 44.7 98.218c-26.768 0-46.707-21.985-44.54-49.11C2.334 21.986 25.79 0 52.56 0c13.57 0 25.386 5.65 33.455 14.757l15.397-5.898-9.096 15.165c.897 1.768 1.68 3.606 2.345 5.507h14.94l-.61 6.108c2.908-2.297 5.826-4.16 8.753-5.587 2.927-1.426 6.214-2.138 9.87-2.14 3.037 0 5.71.54 8.023 1.617h17.438l1.675-16.76h18.272l-1.678 16.76h17.594l-1.274 12.738H170.07l-2.078 20.777c-.205 2.054-.368 3.846-.485 5.376-.12 1.534.02 2.91.422 4.125.365 1.22 1.12 2.193 2.266 2.924 1.184.697 2.957 1.044 5.324 1.044.974 0 2.264-.21 3.874-.628 1.642-.417 2.793-.8 3.456-1.148h1.565l-1.287 12.894c-2.038.52-4.182.922-6.437 1.2-2.258.314-5.005.47-8.24.47zM32.045 41.983C33.11 28.687 45.19 17.907 59.027 17.907c6.937 0 13 2.71 17.187 7.087l-41.032 30.34c-2.35-3.82-3.53-8.413-3.137-13.352zm173.29 46.17h-18.27l5.86-58.622h18.27l-5.86 58.623zm7.22-66.974h-19.316l1.423-14.25h19.315l-1.424 14.25zm67.023 66.975l2.93-29.284c.29-2.89.48-5.323.573-7.31.093-1.982-.057-3.602-.455-4.854-.396-1.255-1.124-2.158-2.182-2.714-1.02-.59-2.52-.887-4.504-.887-1.394 0-2.8.314-4.22.94-1.416.59-2.982 1.444-4.692 2.557l-4.157 41.553H244.5l2.93-29.284c.283-2.852.455-5.27.515-7.254.098-2.02-.052-3.653-.45-4.907-.396-1.256-1.127-2.16-2.183-2.715-1.02-.59-2.504-.887-4.45-.887-1.5 0-2.996.35-4.49 1.045-1.498.695-2.97 1.514-4.422 2.455l-4.155 41.553h-18.27l5.862-58.622h18.273l-.65 6.473c3.247-2.54 6.263-4.525 9.05-5.95 2.79-1.428 5.836-2.14 9.142-2.142 3.584 0 6.647.853 9.192 2.558 2.545 1.708 4.36 4.247 5.45 7.62 3.84-3.27 7.397-5.776 10.67-7.516 3.31-1.776 6.563-2.662 9.768-2.662 2.714 0 5.106.436 7.177 1.304 2.07.87 3.766 2.176 5.09 3.914 1.445 1.88 2.44 4.124 2.98 6.734.58 2.575.658 5.952.24 10.128l-3.815 38.16h-18.374v-.005zm47.584-66.975h-19.314l1.426-14.25h19.315l-1.428 14.25zm47.43 52.985c-2.16-4.526-2.914-10.046-2.262-16.563.957-9.57 4.47-17.21 10.54-22.918 6.07-5.706 14.044-8.56 23.93-8.562 8.976 0 15.487 2.42 19.527 7.256 4.04 4.84 5.608 11.764 4.708 20.776l-.658 6.577h-40.04c-.097 2.713.25 4.996 1.04 6.837.794 1.81 1.937 3.254 3.43 4.332 1.46 1.08 3.21 1.862 5.247 2.347 2.043.456 4.3.68 6.77.68 2.122 0 4.233-.224 6.33-.68 2.1-.485 4.043-1.113 5.827-1.88 1.564-.66 3.007-1.37 4.338-2.14 1.364-.764 2.477-1.443 3.336-2.038h1.93l-1.507 15.086c-1.555.592-2.984 1.148-4.29 1.67-1.27.487-3.007.992-5.216 1.513-2.034.52-4.13.92-6.278 1.2-1.588.236-3.434.38-5.535.44l-85.818.045h-18.27l5.864-58.623h18.27l-4.435 44.354 29.16-30.626-21.764.08 1.582-13.44 44.262-.368-1.184 11.85-31.31 32.782h32.475v.01zm38.88-24.446c.28-3.862-.33-6.803-1.834-8.82-1.467-2.02-3.944-3.026-7.422-3.03-3.548 0-6.44 1.062-8.67 3.184-2.197 2.126-3.582 5.012-4.155 8.667h22.08zM512 27.947l-37.612 80.13H454.76l11.167-22.914-12.452-45.126-4.653 46.534H430.55l8.122-81.226h18.27l-2.26 22.604h14.665L477.99 64.7l15.214-36.752H512z" fill="#707070"/></svg>