<svg width="256" height="203" viewBox="0 0 256 203" xmlns="http://www.w3.org/2000/svg" preserveAspectRatio="xMinYMin meet"><path d="M256 39.788c0-20.403-14.696-37.007-35.105-37.007-12.06 0-20.814 4.192-26.34 11.08-1.033.787-1.938 1.69-2.838 2.608C173.904 6.078 152.134.07 128.115 0c-24.938.068-46.995 5.888-64.79 16.16C57.66 7.847 47.782 2.78 34.397 2.78 13.988 2.78 0 19.386 0 39.79 0 55.435 7.682 67.87 19.476 73.492c-1.815 7.387-2.865 15.14-2.865 23.29 0 59.075 48.977 105.97 111.5 105.97h.058c60.436 0 111.498-48.817 111.498-105.917 0-8.333-1.227-16.312-3.322-23.94C247.966 66.998 256 54.86 256 39.79" fill="#090B08"/><path d="M226.806 97.41c0 49.378-45.422 91.504-98.875 91.504S29.05 148.882 29.05 99.504c0-49.386 45.43-89.412 98.883-89.412 53.454 0 98.876 37.933 98.876 87.318" fill="#FFF"/><path d="M107.82 78.44c-2.267 17.232-13.733 29.934-25.595 28.368-11.863-1.565-19.643-16.803-17.37-34.035 2.27-17.232 13.73-29.933 25.6-28.368 11.862 1.56 19.642 16.796 17.364 34.035" fill="#090B08"/><path d="M98.38 62.067c0 5.138-4.167 9.306-9.306 9.306-5.14 0-9.306-4.168-9.306-9.306 0-5.14 4.167-9.307 9.306-9.307 5.14 0 9.306 4.168 9.306 9.307" fill="#FFF"/><path d="M147.91 78.44c2.273 17.232 13.732 29.934 25.595 28.368 11.87-1.565 19.643-16.803 17.37-34.035-2.27-17.232-13.73-29.933-25.594-28.368-11.867 1.56-19.64 16.796-17.37 34.035" fill="#090B08"/><path d="M157.356 62.067c0 5.138 4.16 9.306 9.306 9.306 5.14 0 9.3-4.168 9.3-9.306 0-5.14-4.16-9.307-9.3-9.307-5.145 0-9.306 4.168-9.306 9.307" fill="#FFF"/><path d="M134.853 138.443v-10.208c0-.554-.053-1.078-.167-1.556 7.58-1.458 13.08-5.53 13.08-10.38 0-4.756-1.058-8.805-8.402-10.344-2.035-.422-8.415-.654-10.7-.654-2.186 0-8.474.212-10.43.6-7.49 1.488-8.678 5.583-8.678 10.398 0 6.007 8.385 10.87 18.788 10.972-.04.316-.096.62-.096.963v10.683c-15.285-.19-29.51-10.613-29.51-3.65 0 7.035 15.137 13.7 30.58 13.7 15.442 0 27.96-5.7 27.96-12.735 0-6.07-9.815.337-22.425 2.21" fill="#090B08"/><path d="M136.946 114.206c0 1.962-4.86 3.56-8.282 3.56-3.42 0-8.29-1.598-8.29-3.56 0-1.565 2.477-2.893 4.908-3.375.634-.125 2.675-.19 3.382-.19.74 0 2.807.08 3.467.21 2.38.496 4.816 1.81 4.816 3.356" fill="#E7EBE0"/><path d="M127.93 10.092c-53.453 0-98.882 40.026-98.882 89.41 0 49.38 45.43 89.412 98.883 89.412-2.133 0-4.253-.086-6.353-.21 2.787-.173 5.54-.457 8.27-.847-46.757-6.578-84.048-43.62-84.048-88.354 0-44.86 37.495-81.98 84.436-88.4-2.807-.376-5.647-.647-8.514-.812 2.06-.118 4.128-.198 6.21-.198" fill="#E1DEDC"/><path d="M127.93 10.092c2.86 0 5.694.133 8.508.344-2.08.165-4.155.383-6.202.667 46.743 6.262 84.008 41.578 84.008 86.307 0 44.847-37.476 83.69-84.398 90.447 2.094.29 4.207.522 6.334.694-2.728.225-5.475.364-8.25.364 53.454 0 98.876-42.126 98.876-91.504 0-49.385-45.422-87.318-98.875-87.318" fill="#F1EFEE"/><path d="M129.846 187.857c-2.728.39-5.482.674-8.27.846 2.1.125 4.22.21 6.355.21 2.775 0 5.522-.138 8.25-.362-2.127-.17-4.24-.402-6.334-.693M127.93 10.092c-2.08 0-4.147.08-6.208.2 2.867.164 5.707.435 8.514.81 2.047-.283 4.12-.5 6.202-.666-2.814-.21-5.647-.344-8.507-.344" fill="#D3D0CD"/><path d="M229.008 54.533c4.09-3.612 6.722-8.837 6.722-14.725 0-10.885-8.824-19.716-19.716-19.716-4.74 0-9.03 1.742-12.43 4.53 10.632 8.312 19.266 18.422 25.424 29.91M26.05 55.36c5.816-11.823 14.19-22.108 24.687-30.52-3.44-2.92-7.835-4.748-12.7-4.748-10.884 0-19.715 8.83-19.715 19.716 0 6.356 3.06 11.947 7.727 15.552" fill="#FFF"/></svg>