<svg width="256" height="279" viewBox="0 0 256 279" xmlns="http://www.w3.org/2000/svg" preserveAspectRatio="xMinYMin meet"><path d="M242.562 40.657c-.824-21.506-19.727-26.017-19.727-26.017s-65.518-9.873-94.22-13.457c-28.71-3.603-26.924 24.22-26.924 24.22s6.522 202.785 7.198 227.903c.77 29.925 28.702 25.11 28.702 25.11l98.71-17.07c17.95-3.594 18.84-26.008 18.84-26.008s-11.66-171.203-12.578-194.68c-.824-21.507.917 23.477 0 0zm-22.08 172.26l-73.4 7.602s-21.375 3.26-21.856-22.71c-.352-19.135-4.585-128.738-4.585-128.738s-1.472-20.098 20.525-18.45c22.45 1.667 76.243 5.76 76.243 5.76s14.402 3.428 15.03 19.84c.677 17.838 6.892 116.9 6.892 116.9s1.62 16.283-18.848 19.794zM40.796 183.37l-13.56.964s-13.68 1.852-13.994-13.115c-.222-11.03-1.593-73.64-1.593-73.64s-.946-11.587 13.123-10.642c3.566.23 8.622.555 14.207.89-.194-10.384-.36-19.46-.49-26.37-7.743-.583-14.986-1.213-20.163-1.76C-.263 57.653.877 73.26.877 73.26s2.242 114.827 2.66 128.905c.508 16.782 18.578 14.06 18.578 14.06l19.292-2.066c-.167-8.327-.39-18.94-.61-30.786zM94.727 79c-.065-1.463-.306-2.797-.676-3.992-5.936-.48-20.838-4.362-25.617.686-3.03 3.177-1.78 9.873-1.705 13.68l10.81.61s9.214 1.973 9.613 11.42c.427 10.3.37 67.99.37 67.99s1.038 9.41-12.04 11.402l-6.862.51c.037 2.046.074 3.695.092 4.917.288 16.45 17.783 11.18 28.758 10.114.945-17.45-.732-35.426-1.12-52.884-.473-21.478-.65-42.993-1.62-64.453-.066-1.463.59 13.133 0 0z"/><path d="M100.404 203.08l-19.774 1.908s-18.44 2.648-18.838-18.598c-.287-15.68-2.14-104.556-2.14-104.556s-1.278-16.43 17.644-15.115c4.862.333 11.55.88 18.83 1.463-.547-17.05-.983-30.5-1.205-37.427-9.964-.973-19.356-1.954-26.302-2.75C43.61 25.17 45.186 47.278 45.186 47.278s2.973 163.024 3.556 182.946c.676 23.812 25.007 19.987 25.007 19.987l27.997-3.585c-.278-9.27-.75-24.84-1.343-43.548zM140.637 57.55c-3.5-.278-7.752-.046-10.345 2.686-2.742 2.87-2.788 6.946-2.63 10.632 9.92.862 17.115 1.5 17.115 1.5s12.392 2.79 12.957 16.218c.574 14.606 4.122 93.97 4.122 93.97s1.39 13.346-16.227 16.226l-13.338 1.278c1.77 20.848 28.73 12.05 42.52 10.624-1.416-31.35-5.806-128.312-6.797-151.078-10.457-.815-20.44-1.565-27.378-2.056-.685-.055 6.937.49 0 0z"/></svg>