<svg width="256" height="216" viewBox="0 0 256 216" xmlns="http://www.w3.org/2000/svg" preserveAspectRatio="xMinYMin meet"><defs><linearGradient x1="12.263%" y1="17.905%" x2="76.247%" y2="93.931%" id="a"><stop stop-color="#FFF" offset="0%"/><stop stop-color="#F3F3F3" offset="100%"/></linearGradient><linearGradient x1="23.187%" y1="25.037%" x2="76.733%" y2="75%" id="b"><stop stop-color="#FFF" offset="0%"/><stop stop-color="#CDCCCC" offset="100%"/></linearGradient><linearGradient x1="-7.453%" y1="5.774%" x2="107.462%" y2="94.22%" id="c"><stop stop-color="#E6E6E5" offset="0%"/><stop stop-color="#B4B4B4" offset="100%"/></linearGradient><linearGradient x1="-162.109%" y1="25.07%" x2="261.031%" y2="75.011%" id="d"><stop stop-color="#E6E6E5" offset="0%"/><stop stop-color="#B4B4B4" offset="100%"/></linearGradient><linearGradient x1="14.795%" y1="-20.578%" x2="85.174%" y2="120.413%" id="e"><stop stop-color="#FFF" offset="0%"/><stop stop-color="#F3F3F3" offset="100%"/></linearGradient><linearGradient x1="-2.03%" y1="1.797%" x2="94.731%" y2="105.624%" id="f"><stop stop-color="#E6E6E5" offset="0%"/><stop stop-color="#B4B4B4" offset="100%"/></linearGradient><linearGradient x1="8.471%" y1="-14.277%" x2="87.773%" y2="121.196%" id="g"><stop stop-color="#E6E6E5" offset="0%"/><stop stop-color="#B4B4B4" offset="100%"/></linearGradient><linearGradient x1="28.439%" y1="24.939%" x2="71.998%" y2="74.85%" id="h"><stop stop-color="#E6E6E5" offset="0%"/><stop stop-color="#B4B4B4" offset="100%"/></linearGradient><linearGradient x1=".074%" y1="49.985%" y2="49.985%" id="i"><stop stop-color="#FFF" offset="0%"/><stop stop-color="#F3F3F3" offset="100%"/></linearGradient><linearGradient x1="-.151%" y1="50%" x2="99.908%" y2="50%" id="j"><stop stop-color="#FFF" offset="0%"/><stop stop-color="#F3F3F3" offset="100%"/></linearGradient><linearGradient x1="1.554%" y1="-2.029%" x2="91.147%" y2="111.297%" id="k"><stop stop-color="#E6E6E5" offset="0%"/><stop stop-color="#B4B4B4" offset="100%"/></linearGradient><linearGradient x1="-4.05%" y1="3.951%" x2="100.293%" y2="100.087%" id="l"><stop stop-color="#E6E6E5" offset="0%"/><stop stop-color="#B4B4B4" offset="100%"/></linearGradient><linearGradient x1="28.439%" y1="25.295%" x2="71.998%" y2="75.206%" id="m"><stop stop-color="#E6E6E5" offset="0%"/><stop stop-color="#B4B4B4" offset="100%"/></linearGradient><linearGradient x1="-.151%" y1="49.929%" x2="99.908%" y2="49.929%" id="n"><stop stop-color="#FFF" offset="0%"/><stop stop-color="#F3F3F3" offset="100%"/></linearGradient><linearGradient x1=".074%" y1="50.134%" y2="50.134%" id="o"><stop stop-color="#FFF" offset="0%"/><stop stop-color="#F3F3F3" offset="100%"/></linearGradient><linearGradient x1="28.391%" y1="6.822%" x2="71.562%" y2="93.236%" id="p"><stop stop-color="#FFF" offset="0%"/><stop stop-color="#F3F3F3" offset="100%"/></linearGradient><linearGradient x1="25.117%" y1="-.221%" x2="74.898%" y2="100.255%" id="q"><stop stop-color="#FFF" offset="0%"/><stop stop-color="#F3F3F3" offset="100%"/></linearGradient><linearGradient x1="91.728%" y1="-5.343%" x2="45.16%" y2="89.085%" id="r"><stop stop-color="#FDFEFF" stop-opacity="0" offset="0%"/><stop stop-color="#FDFEFF" stop-opacity=".91" offset="91.04%"/><stop stop-color="#FDFEFF" offset="100%"/></linearGradient><linearGradient x1="91.694%" y1="-5.291%" x2="45.127%" y2="88.564%" id="s"><stop stop-color="#FDFEFF" stop-opacity="0" offset="0%"/><stop stop-color="#FDFEFF" stop-opacity=".91" offset="91.04%"/><stop stop-color="#FDFEFF" offset="100%"/></linearGradient><linearGradient x1="-12.528%" y1="7.979%" x2="109.001%" y2="85.233%" id="t"><stop stop-color="#E6E6E5" offset="0%"/><stop stop-color="#B4B4B4" offset="100%"/></linearGradient><linearGradient x1="-86.792%" y1="19.441%" x2="187.005%" y2="80.532%" id="u"><stop stop-color="#E6E6E5" offset="0%"/><stop stop-color="#B4B4B4" offset="100%"/></linearGradient><linearGradient x1="26.757%" y1="24.978%" x2="73.163%" y2="75.039%" id="v"><stop stop-color="#FFF" offset="0%"/><stop stop-color="#CDCCCC" offset="100%"/></linearGradient><linearGradient x1="30.007%" y1="10.056%" x2="69.977%" y2="89.997%" id="w"><stop stop-color="#FFF" offset="0%"/><stop stop-color="#F3F3F3" offset="100%"/></linearGradient><linearGradient x1="29.174%" y1="8.204%" x2="70.785%" y2="91.679%" id="x"><stop stop-color="#FFF" offset="0%"/><stop stop-color="#F3F3F3" offset="100%"/></linearGradient><linearGradient x1="-12.386%" y1="8.279%" x2="112.446%" y2="91.754%" id="y"><stop stop-color="#E6E6E5" offset="0%"/><stop stop-color="#B4B4B4" offset="100%"/></linearGradient><linearGradient x1="36.655%" y1="23.218%" x2="63.346%" y2="76.667%" id="z"><stop stop-color="#FFF" offset="0%"/><stop stop-color="#F3F3F3" offset="100%"/></linearGradient><linearGradient x1="-1.652%" y1="2.073%" x2="94.605%" y2="105.901%" id="A"><stop stop-color="#E6E6E5" offset="0%"/><stop stop-color="#B4B4B4" offset="100%"/></linearGradient><linearGradient x1="8.292%" y1="-13.765%" x2="87.593%" y2="121.708%" id="B"><stop stop-color="#E6E6E5" offset="0%"/><stop stop-color="#B4B4B4" offset="100%"/></linearGradient><linearGradient x1="28.172%" y1="25.451%" x2="71.731%" y2="75.362%" id="C"><stop stop-color="#E6E6E5" offset="0%"/><stop stop-color="#B4B4B4" offset="100%"/></linearGradient><linearGradient x1="-.033%" y1="49.978%" x2="99.893%" y2="49.978%" id="D"><stop stop-color="#FFF" offset="0%"/><stop stop-color="#F3F3F3" offset="100%"/></linearGradient><linearGradient x1=".083%" y1="49.995%" x2="100.142%" y2="49.995%" id="E"><stop stop-color="#FFF" offset="0%"/><stop stop-color="#F3F3F3" offset="100%"/></linearGradient><linearGradient x1="1.914%" y1="-2.381%" x2="91.04%" y2="111.701%" id="F"><stop stop-color="#E6E6E5" offset="0%"/><stop stop-color="#B4B4B4" offset="100%"/></linearGradient><linearGradient x1="-4.229%" y1="3.665%" x2="100.114%" y2="99.802%" id="G"><stop stop-color="#E6E6E5" offset="0%"/><stop stop-color="#B4B4B4" offset="100%"/></linearGradient><linearGradient x1="28.172%" y1="24.766%" x2="71.731%" y2="74.677%" id="H"><stop stop-color="#E6E6E5" offset="0%"/><stop stop-color="#B4B4B4" offset="100%"/></linearGradient><linearGradient x1=".083%" y1="49.924%" x2="100.142%" y2="49.924%" id="I"><stop stop-color="#FFF" offset="0%"/><stop stop-color="#F3F3F3" offset="100%"/></linearGradient><linearGradient x1="-.033%" y1="49.869%" x2="99.893%" y2="49.869%" id="J"><stop stop-color="#FFF" offset="0%"/><stop stop-color="#F3F3F3" offset="100%"/></linearGradient><linearGradient x1="-7.571%" y1="5.829%" x2="107.554%" y2="94.275%" id="K"><stop stop-color="#E6E6E5" offset="0%"/><stop stop-color="#B4B4B4" offset="100%"/></linearGradient><linearGradient x1="-161.333%" y1="24.992%" x2="261.809%" y2="75.041%" id="L"><stop stop-color="#E6E6E5" offset="0%"/><stop stop-color="#B4B4B4" offset="100%"/></linearGradient><linearGradient x1="14.725%" y1="-20.449%" x2="85.22%" y2="120.543%" id="M"><stop stop-color="#FFF" offset="0%"/><stop stop-color="#F3F3F3" offset="100%"/></linearGradient><linearGradient x1="25.18%" y1=".287%" x2="75.189%" y2="99.849%" id="N"><stop stop-color="#FFF" offset="0%"/><stop stop-color="#F3F3F3" offset="100%"/></linearGradient></defs><g fill="none" fill-rule="evenodd"><path d="M109.645 213.398c-.193 0-.29 0-.483-.097l-15.843-3.96c-.097 0-.29-.096-.387-.193L82.5 203.93v1.933c0 .772-.387 1.45-1.063 1.74l-5.313 2.607c-.29.096-.58.193-.87.193-.29 0-.58-.097-.87-.193l-52.938-26.47c-.676-.29-1.063-.966-1.063-1.738v-14.394l-17.485-8.695c-.676-.29-1.063-.966-1.063-1.74V136.02c0-.773.387-1.45 1.063-1.74l7.922-3.96c.29-.096.58-.193.87-.193.29 0 .58.097.868.193l12.076 6.087 2.03-1.063c.288-.097.578-.193.868-.193.29 0 .58.095.87.192l.966.483 12.365-15.747-1.74-.87c-.675-.29-1.062-.965-1.062-1.738V87.716l-5.505-2.8c-.676-.29-1.063-.967-1.063-1.74V40.863c0-.772.387-1.45 1.063-1.738l74.095-37c.29-.096.58-.193.87-.193.29 0 .58.097.87.193l41.442 20.77 1.74-.87c.29-.096.578-.193.868-.193.29 0 .58.097.87.194l31.782 15.843c.676.288 1.063.965 1.063 1.738V64.82l41.25 20.674c.676.29 1.062.966 1.062 1.74v12.075l6.86 3.476c.096.097.29.194.386.29l15.843 13.235c.483.387.676.87.676 1.45v3.96c0 .774-.387 1.45-1.063 1.74l-10.627 5.313c-.29.096-.58.193-.87.193-.386 0-.772-.097-1.16-.386l-10.142-7.632v3.864l6.86 4.444 15.65 5.216c.772.29 1.352.966 1.352 1.836v3.96c0 .774-.387 1.45-1.063 1.74l-10.627 5.313c-.29.097-.58.194-.87.194-.193 0-.29 0-.483-.097l-15.843-3.96c-.096 0-.29-.097-.386-.194l-15.262-7.63-.773.385c-.193.193-.29.387-.58.483-.29.194-.676.29-1.063.29-.29 0-.58-.096-.87-.192l-18.354-9.178v2.126c0 .772-.386 1.45-1.062 1.74l-74.095 36.998c-.29.096-.58.193-.87.193-.29 0-.578-.097-.868-.193l-10.627-5.313c-.676-.29-1.062-.965-1.062-1.738v-2.126c-.194.097-.483.097-.677.097-.29 0-.58-.097-.87-.193l-10.625-5.313c-.676-.29-1.062-.966-1.062-1.74v-1.448l-4.25-2.127c-.677-.29-1.063-.966-1.063-1.738v-7.922l-23.668-11.496-8.115 10.144 38.545 19.225c.676.29 1.063.966 1.063 1.74v1.737l17.485 8.695c.097.096.29.193.386.29l15.844 13.234c.483.388.677.87.677 1.45v3.96c0 .774-.386 1.45-1.062 1.74l-10.626 5.313c-.29.097-.58.193-.87.193-.386 0-.773-.096-1.16-.386l-15.65-11.69-5.12-1.835v2.995l17.39 11.206 15.65 5.217c.772.29 1.352.966 1.352 1.835v3.96c0 .774-.386 1.45-1.063 1.74l-10.625 5.313c0 .098-.29.098-.58.098z" fill="url(#a)"/><path d="M108.293 3.864l7.92 3.96 2.61 1.353 10.626 5.314 21.155 10.627 2.61-1.352 31.878 15.843v26.47l42.312 21.155v13.235l7.922 3.96 15.843 13.235v3.96l-10.627 5.314-13.138-10.046v8.792l7.922 5.12 15.843 5.313v3.96l-10.627 5.314-15.843-3.962-16.132-8.018-2.416 1.16v.29l-21.156-10.628v5.314l-74.095 37-10.625-5.314v-5.314l-2.61-1.352v2.608L87.04 151.86v-2.607l-5.313-2.608v-9.178l-26.18-12.752-10.53 13.235 40.67 20.287v2.898l18.548 9.274 15.843 13.234v3.96l-10.626 5.314-15.843-11.883-7.922-2.8v6.76l18.547 11.883 15.843 5.314v3.96l-10.626 5.314-15.843-3.96-13.042-6.57v5.023l-5.314 2.608-52.94-26.47v-15.65l-18.45-9.177v-21.155l7.922-3.96 12.945 6.47 2.9-1.448 2.317 1.16L44.824 119.5l-3.96-1.933v-31.01l-6.57-3.285v-42.41l74-36.998zm0-3.864c-.58 0-1.16.097-1.74.386L32.556 37.482c-1.352.676-2.125 2.03-2.125 3.478v42.312c0 1.45.87 2.802 2.125 3.478L37 88.972v28.69c0 1.354.675 2.61 1.835 3.286l-9.95 12.655c-.387-.097-.773-.193-1.256-.193-.58 0-1.16.096-1.74.386l-1.16.58-11.205-5.7c-.58-.29-1.16-.386-1.74-.386-.58 0-1.16.096-1.738.386l-7.922 3.96C.87 133.314 0 134.667 0 136.117v21.155c0 1.45.87 2.802 2.125 3.48l16.423 8.21v13.235c0 1.45.87 2.8 2.125 3.477l52.94 26.47c.58.29 1.158.386 1.738.386.58 0 1.16-.096 1.74-.386l5.313-2.608c.966-.483 1.642-1.353 1.932-2.32l7.825 3.865c.29.096.483.192.773.29l15.843 3.96c.29.096.58.096.966.096.58 0 1.16-.096 1.74-.386l10.625-5.313c1.353-.676 2.125-2.03 2.125-3.478v-3.962c0-1.642-1.062-3.188-2.608-3.67l-8.598-2.9 9.08-4.54c1.354-.675 2.126-2.028 2.126-3.477v-3.96c0-1.16-.483-2.222-1.352-2.994l-12.558-10.434c.29.097.58.097.772.097.58 0 1.16-.098 1.74-.387l74.094-37c1.063-.483 1.74-1.45 2.03-2.51l15.65 7.824c.578.29 1.158.386 1.738.386.676 0 1.45-.193 2.028-.58.194-.096.29-.193.483-.386l14.298 7.15c.29.095.483.192.773.288l15.843 3.96c.29.098.58.098.967.098.58 0 1.16-.097 1.738-.387l10.627-5.313c1.352-.676 2.125-2.028 2.125-3.478v-3.96c0-1.643-1.062-3.188-2.608-3.67l-8.6-2.9 9.082-4.54c1.352-.676 2.125-2.028 2.125-3.477v-3.96c0-1.16-.483-2.223-1.352-2.996l-16.133-13.138c-.193-.193-.483-.386-.773-.483l-5.797-2.897V87.137c0-1.45-.87-2.802-2.125-3.478L188.86 63.564V39.608c0-1.45-.87-2.802-2.125-3.478L155.05 20.287c-.58-.29-1.16-.387-1.74-.387-.58 0-1.16.097-1.74.387l-.868.483-19.417-9.757L120.658 5.7l-2.608-1.353-7.922-3.96c-.58-.29-1.16-.387-1.835-.387zM51.2 136.694l5.603-7.052L77.96 139.98v6.76c0 1.45.87 2.803 2.125 3.48l3.187 1.545v.29c0 .29 0 .58.097.772L51.2 136.694zm38.545 22.123v-.483c0-.29 0-.58-.097-.773l6.376 3.19c.193.095.29.192.483.192v.29c0 .386.097.773.193 1.062l-6.955-3.477z" fill="#333"/><path d="M185.093 129.546l-74.095 37V124.23l74.095-37.095v42.41z" stroke="#333" fill="url(#b)"/><g stroke="#333"><path d="M.097 3.478V45.79l52.938 26.47V29.947L.097 3.477z" fill="url(#c)" transform="translate(169.057 59.894)"/><path d="M53.035 29.947V72.26l5.314-2.61V27.243l-5.315 2.705z" fill="url(#d)" transform="translate(169.057 59.894)"/><path d="M.097 3.478L5.41.868l52.94 26.374-5.315 2.705L.097 3.477z" fill="url(#e)" transform="translate(169.057 59.894)"/><path d="M174.466 71.1l-10.626 5.217 42.41 21.156 10.53-5.216L174.465 71.1zM147.997 68.685l-7.922 3.96 31.783 15.844 7.922-3.962-31.783-15.843zM140.075 72.646v21.156l31.783 15.843V88.49l-31.783-15.844z" fill="#676767"/><path d="M163.84 76.607v37l42.41 21.155v-37l-42.41-21.155zM216.78 92.257l-10.53 5.216v37.096l10.53-5.314v-37z" fill="#676767"/><g><path d="M.483 5.41v7.92l18.45 9.275v-5.313L.484 5.41z" fill="url(#f)" transform="translate(205.766 118.823)"/><path d="M18.934 17.292v5.313l15.843 3.96v-3.96l-15.843-5.313z" fill="url(#g)" transform="translate(205.766 118.823)"/><path d="M34.777 22.605v3.96l10.627-5.312v-3.96l-10.627 5.312z" fill="url(#h)" transform="translate(205.766 118.823)"/><path d="M29.56 11.98L18.935 17.29l15.843 5.313 10.627-5.313L29.56 11.98z" fill="url(#i)" transform="translate(205.766 118.823)"/><path d="M11.013.097L.483 5.41l18.45 11.882 10.628-5.313L11.014.096z" fill="url(#j)" transform="translate(205.766 118.823)"/></g><g><path d="M.483 5.7v7.92l18.45 6.667v-5.313L.484 5.7z" fill="url(#k)" transform="translate(205.766 94.672)"/><path d="M18.934 14.974v5.313L34.777 32.17v-3.962L18.934 14.974z" fill="url(#l)" transform="translate(205.766 94.672)"/><path d="M34.777 28.208v3.96l10.627-5.312v-3.96l-10.627 5.312z" fill="url(#m)" transform="translate(205.766 94.672)"/><path d="M11.013.483L.483 5.7l18.45 9.274L29.562 9.66 11.014.483z" fill="url(#n)" transform="translate(205.766 94.672)"/><path d="M29.56 9.66l-10.626 5.314 15.843 13.234 10.627-5.313L29.56 9.66z" fill="url(#o)" transform="translate(205.766 94.672)"/></g></g><path d="M40.863 42.216v75.35l48.98 23.862V65.98l-48.98-23.764z" stroke="#333" fill="#676767"/><path d="M71.294 59.41v38.353l10.626 6.57v42.408l26.373 13.14V77.96l-37-18.55zM116.31 7.825l-72.742 37 63.47 31.782 72.742-37-63.47-31.782z" stroke="#333" fill="#676767"/><path d="M34.294 40.863l74-37L150.7 25.02l-74.095 37-42.313-21.157z" stroke="#333" fill="url(#p)"/><path d="M108.293 14.49l10.626-5.313 10.626 5.314-10.627 5.217-10.627-5.216z" stroke="#333" fill="url(#q)"/><path d="M108.293 83.176l74.095-37v79.312l-74.095 37.096V83.176zM55.45 40.863l10.53 5.314 52.94-26.47-10.627-5.216L55.45 40.864z" stroke="#333" fill="#676767"/><path d="M108.293 25.02l8.018-3.96 2.61-1.353-10.627-5.216v10.53z" stroke="#333" fill="#676767"/><g stroke="#333"><path d="M103.076 27.63l2.61-1.257 5.312-2.705-7.922-3.96v7.92z" fill="#333"/><path d="M103.076 19.707l7.922 3.96 2.608-1.255-7.92-3.96-2.61 1.255z" fill="#676767"/></g><g stroke="#333"><path d="M97.763 30.334l2.608-1.353 5.315-2.607-7.922-3.96v7.92z" fill="#333"/><path d="M97.763 22.412l7.922 3.96 2.608-1.352-7.922-3.96-2.607 1.352z" fill="#676767"/></g><g stroke="#333"><path d="M92.45 32.942l2.705-1.353 5.216-2.61-7.92-3.96v7.922z" fill="#333"/><path d="M92.45 25.02l7.92 3.96 2.706-1.35-7.92-3.962-2.706 1.352z" fill="#676767"/></g><g stroke="#333"><path d="M87.137 35.647l2.705-1.353 5.313-2.705-8.018-3.96v8.017z" fill="#333"/><path d="M87.137 27.63l8.018 3.96 2.608-1.256-7.92-3.96-2.706 1.255z" fill="#676767"/></g><g stroke="#333"><path d="M81.92 38.255l2.608-1.352 5.314-2.61-7.922-3.96v7.922z" fill="#333"/><path d="M81.92 30.334l7.922 3.96 2.608-1.352-7.922-3.96-2.608 1.352z" fill="#676767"/></g><g stroke="#333"><path d="M76.607 40.863l2.608-1.255 5.313-2.705-7.92-3.96v7.92z" fill="#333"/><path d="M76.607 32.942l7.92 3.96 2.61-1.255-7.922-4.058-2.608 1.352z" fill="#676767"/></g><g stroke="#333"><path d="M71.294 43.568l2.704-1.352 5.217-2.608-7.92-3.96v7.92z" fill="#333"/><path d="M71.294 35.647l7.92 3.96 2.706-1.352-7.922-3.96-2.704 1.352z" fill="#676767"/></g><g stroke="#333"><path d="M65.98 46.177l2.705-1.353 5.313-2.608-8.018-3.96v7.92z" fill="#333"/><path d="M65.98 38.255l8.018 3.96 2.61-1.352-7.923-3.96-2.705 1.352z" fill="#676767"/></g><g stroke="#333"><path d="M60.764 48.785l2.608-1.256 5.313-2.706-7.92-3.96v7.92z" fill="#333"/><path d="M60.764 40.863l7.92 3.96 2.61-1.255-7.922-3.96-2.608 1.255z" fill="#676767"/></g><path d="M118.92 101.724v15.843l18.547-9.274V92.45l-18.548 9.274z" stroke="#010101" fill="#36A3C9"/><path d="M132.154 105.685v-10.53l-13.235 6.57v10.625l13.234-6.665z" fill="#50C8EC"/><path d="M18.645 16.52V.675L5.41 7.342.097 9.95" fill="url(#r)" transform="translate(118.823 91.774)"/><path d="M118.92 101.724v15.843l18.548-9.274V92.45l-18.548 9.274z" stroke="#333"/><path d="M153.31 84.528v15.843l18.548-9.176v-15.94l-18.548 9.274z" stroke="#010101" fill="#36A3C9"/><path d="M166.545 88.49V77.96l-13.235 6.568v10.627l13.235-6.666z" fill="#50C8EC"/><path d="M19.224 16.81V.87L5.99 7.534.675 10.143" fill="url(#s)" transform="translate(152.634 74.385)"/><path d="M153.31 84.528v15.843l18.548-9.176v-15.94l-18.548 9.274z" stroke="#333"/><path d="M76.607 93.802V62.02L34.294 40.863v42.313l52.843 26.47v42.312l10.626 5.313V114.96l10.53 5.314v-10.627L76.607 93.802z" stroke="#333" fill="url(#t)"/><path d="M185.093 129.546l-74.095 37V124.23l74.095-37.095v42.41z" stroke="#333" fill="url(#b)"/><path d="M100.37 118.92v42.312L111 166.545v-42.313l-10.627-5.313z" stroke="#333" fill="url(#u)"/><g stroke="#333"><path d="M105.878 48.11L31.783 85.107V53.422l74.095-37V48.11z" fill="url(#v)" transform="translate(79.215 23.185)"/><path d="M47.626 34.874l21.156-10.53 10.626 5.313-21.156 10.53-10.626-5.313z" fill="url(#x)" transform="translate(79.215 23.185)"/><path d="M0 37.58v31.685l31.783 15.843V53.422L0 37.58z" fill="url(#y)" transform="translate(79.215 23.185)"/></g><path d="M110.998 124.232l74.095-37.095-2.705-1.256-74.095 37 2.705 1.352z" stroke="#333" fill="url(#z)"/><g stroke="#333"><path d="M54.098 103.076v13.235l10.627 5.218v-13.235l-10.627-5.217z" fill="#333"/><path d="M22.412 147.997v9.274l5.217 2.61V150.7l-5.218-2.705z" fill="#676767"/><path d="M56.803 104.332l-34.39 43.665 5.216 2.705 34.39-43.665-5.217-2.705zM27.63 150.702v9.177l37.095-46.274v-5.313l-2.705-1.256-34.39 43.665z" fill="#676767"/></g><g stroke="#333"><path d="M43.568 137.177l-10.626 5.314 42.312 21.157 10.627-5.313-42.312-21.157zM11.786 132.154l-7.922 3.96 37 18.55 7.92-3.962-36.998-18.548zM3.864 136.115v21.156l37 18.55v-21.157l-37-18.548z" fill="#676767"/><path d="M32.942 142.684v37.096l42.312 21.156V163.84l-42.312-21.156zM85.88 158.334l-10.626 5.313v37l10.627-5.314v-37z" fill="#676767"/><path d="M.87 5.796v7.922l18.547 9.274v-5.314L.87 5.796z" fill="url(#A)" transform="translate(74.385 184.513)"/><path d="M19.417 17.678v5.314l15.843 3.96v-3.96l-15.843-5.314z" fill="url(#B)" transform="translate(74.385 184.513)"/><path d="M35.26 22.992v3.96l10.627-5.216v-4.058L35.26 22.992z" fill="url(#C)" transform="translate(74.385 184.513)"/><path d="M29.947 12.462l-10.53 5.216 15.843 5.314 10.627-5.314-15.94-5.216z" fill="url(#D)" transform="translate(74.385 184.513)"/><path d="M11.496.58L.87 5.796l18.547 11.882 10.53-5.216L11.497.58z" fill="url(#E)" transform="translate(74.385 184.513)"/><g><path d="M.87 6.183v7.92l18.547 6.57v-5.216L.87 6.183z" fill="url(#F)" transform="translate(74.385 160.362)"/><path d="M19.417 15.457v5.216l15.843 11.98V28.69L19.417 15.458z" fill="url(#G)" transform="translate(74.385 160.362)"/><path d="M35.26 28.69v3.962l10.627-5.313v-3.962L35.26 28.69z" fill="url(#H)" transform="translate(74.385 160.362)"/><path d="M11.496.87L.87 6.182l18.547 9.274 10.53-5.314L11.497.87z" fill="url(#I)" transform="translate(74.385 160.362)"/><path d="M29.947 10.143l-10.53 5.314L35.26 28.69l10.627-5.312-15.94-13.235z" fill="url(#J)" transform="translate(74.385 160.362)"/></g><g><path d="M.193 2.608v42.41L53.035 71.39V29.078L.193 2.608z" fill="url(#K)" transform="translate(22.22 137.177)"/><path d="M53.035 29.078V71.39l5.314-2.608V26.47l-5.315 2.608z" fill="url(#L)" transform="translate(22.22 137.177)"/><path d="M.193 2.608L5.41 0l52.94 26.47-5.315 2.608L.193 2.608z" fill="url(#M)" transform="translate(22.22 137.177)"/></g></g><path d="M44.824 46.177l10.627-5.314 10.53 5.314-10.53 5.313-10.626-5.313z" stroke="#333" fill="url(#N)"/></g></svg>