<svg width="256" height="134" viewBox="0 0 256 134" xmlns="http://www.w3.org/2000/svg" preserveAspectRatio="xMinYMin meet"><g fill-rule="evenodd"><ellipse fill="#8993BE" cx="128" cy="66.63" rx="128" ry="66.63"/><path d="M35.945 106.082l14.028-71.014H82.41c14.028.877 21.042 7.89 21.042 20.165 0 21.04-16.657 33.315-31.562 32.438H56.11l-3.507 18.412H35.945zm23.67-31.56L64 48.218h11.397c6.137 0 10.52 2.63 10.52 7.89-.876 14.904-7.89 17.534-15.78 18.41h-10.52zM100.192 87.67L114.22 16.66h16.657l-3.507 18.41h15.78c14.028.877 19.288 7.89 17.535 16.658l-6.137 35.945h-17.534l6.137-32.437c.877-4.384.877-7.014-5.26-7.014h-13.15l-7.89 39.45H100.19zM153.425 106.082l14.027-71.014h32.438c14.028.877 21.042 7.89 21.042 20.165 0 21.04-16.658 33.315-31.562 32.438h-15.78l-3.508 18.412h-16.657zm23.67-31.56l4.384-26.303h11.397c6.137 0 10.52 2.63 10.52 7.89-.876 14.904-7.89 17.534-15.78 18.41h-10.52z" fill="#232531"/></g></svg>