<svg width="512" height="266" viewBox="0 0 512 266" xmlns="http://www.w3.org/2000/svg" preserveAspectRatio="xMinYMin meet"><path d="M7.533 14.63L14.3 7.86C24.673-2.402 41.594-1.747 51.09 9.28l93.667 109.168c8.188 9.497 8.08 23.58-.218 32.97L51.2 257.2c-9.607 10.81-26.31 11.354-36.57 1.093l-6.77-6.77c-9.17-9.17-9.825-23.798-1.528-33.84l55.894-67.03c7.642-9.17 7.75-22.38.328-31.77L5.786 47.926C-2.294 38.1-1.528 23.69 7.533 14.63z" fill="#92D13D"/><path d="M62.117 150.87L6.223 217.9c-8.297 9.935-7.642 24.672 1.528 33.842l6.77 6.77c10.26 10.26 26.964 9.715 36.57-1.093l20.197-22.926c7.642-15.065 11.9-32.096 11.9-50.108 0-22.27-6.55-42.904-17.686-60.26 4.15 8.514 3.058 19.103-3.383 26.745zM192.79 214.516h-21.723V88.208h21.724v13.21c3.058-8.843 14.084-15.175 29.15-15.175 12.88 0 23.69 4.585 32.422 13.755 8.843 9.06 13.21 20.306 13.21 33.843 0 13.537-4.367 24.782-13.21 34.06-8.733 9.062-19.54 13.538-32.423 13.538-15.066 0-26.092-6.332-29.15-15.174v48.252zm6.333-100.544c-5.24 5.24-7.97 12.008-7.97 19.978 0 7.97 2.73 14.628 7.97 19.978 5.46 5.24 12.118 7.97 19.978 7.97 7.86 0 14.084-2.73 19.215-7.97 5.24-5.24 7.75-12.01 7.75-19.978 0-7.97-2.51-14.63-7.75-19.978-5.022-5.24-11.463-7.97-19.214-7.97-7.75 0-14.518 2.73-19.977 7.97zm75.98-60.698h21.726v96.396c0 8.843 2.947 12.663 10.916 12.663 2.51 0 4.694-.218 6.55-.764V181c-2.51.765-6.004 1.093-10.37 1.093-19.215 0-28.822-9.825-28.822-29.585V53.274zm112.772 48.143v-13.21H409.6v63.755c0 7.75 1.856 10.7 6.66 10.7 1.31 0 2.947-.22 4.584-.33v17.578c-2.4.873-6.004 1.42-10.698 1.42-5.24 0-9.39-.875-12.664-2.95-4.04-2.728-6.55-6.33-7.423-11.025-6.333 9.607-16.813 14.3-31.332 14.3-12.882 0-23.69-4.475-32.642-13.754-8.733-9.278-13.1-20.523-13.1-34.06 0-13.536 4.367-24.78 13.1-33.842 8.843-9.28 19.76-13.755 32.642-13.755 14.628 0 25.654 6.55 29.147 15.174zm-6.55 52.4c5.46-5.24 8.188-12.007 8.188-19.976 0-7.97-2.73-14.628-8.188-19.977-5.24-5.24-12.008-7.97-19.76-7.97-7.75 0-14.082 2.73-19.43 7.97-5.023 5.24-7.643 12.008-7.643 19.978 0 7.97 2.51 14.63 7.642 19.978 5.24 5.24 11.572 7.97 19.432 7.97 7.86 0 14.52-2.73 19.76-7.97zm47.052 43.996c2.73.874 6.113 1.42 10.153 1.42 3.493 0 6.004-.765 7.97-1.966 1.964-1.2 3.82-4.04 5.24-7.75l2.4-6.55-38.208-94.76h21.833l26.856 68.886 25.22-68.885h21.942l-40.94 106.22c-2.728 7.097-6.003 12.555-9.824 16.267-5.458 5.022-12.663 7.642-21.943 7.642-4.04 0-7.64-.546-10.698-1.42v-19.104z" fill="#49691F"/></svg>