<svg width="256" height="256" viewBox="0 0 256 256" xmlns="http://www.w3.org/2000/svg" preserveAspectRatio="xMinYMin meet"><g fill="#DD3735"><path d="M255.902 121.097c-.086-3.284-.26-6.654-.432-9.938-.173-3.372-.26-6.742-.605-10.112-.605-4.58-1.21-9.247-2.247-13.74-.778-3.717-2.074-7.26-3.37-10.803-1.642-4.15-3.284-8.383-5.358-12.358-3.37-6.395-7.778-12.1-11.84-18.062-2.68-3.803-6.135-6.914-8.728-10.802-1.47-2.247-3.63-4.15-5.79-5.877-3.457-2.765-7.087-5.272-10.716-7.69-2.766-1.903-5.53-3.717-8.47-5.36-2.333-1.296-4.84-2.333-7.26-3.456-2.764-1.297-5.443-2.852-8.554-3.457-.778-.173-1.47-.432-2.247-.69-1.988-.693-3.89-1.47-5.877-2.075-3.024-.95-5.962-2.075-9.074-2.852-3.024-.778-6.135-1.297-9.246-1.73-3.457-.517-7-.69-10.457-1.036-2.246-.26-4.493-.518-6.654-.605-3.283-.172-6.654-.172-9.938-.26-1.642-.085-3.37-.258-5.012-.172-2.506.087-5.012.346-7.52.692-2.418.26-4.838.69-7.172 1.037-2.85.345-5.703.518-8.555.864-2.68.346-5.445.864-8.124 1.296-.95.173-1.902.52-2.852.69-2.074.434-4.235.607-6.31 1.298-3.715 1.123-7.43 2.42-11.06 3.802-3.37 1.383-6.655 2.852-9.852 4.58-3.284 1.815-6.395 3.976-9.507 6.05-2.938 1.987-5.876 4.062-8.728 6.31-2.765 2.16-5.358 4.58-7.864 7-1.383 1.38-2.506 3.023-3.803 4.58-2.16 2.505-4.32 4.925-6.395 7.517-1.728 2.16-3.284 4.407-4.925 6.654-2.94 3.975-5.445 8.21-7.778 12.444-.95 1.728-1.815 3.457-2.68 5.185-1.296 2.593-2.678 5.1-3.888 7.778-.864 1.816-1.556 3.803-2.074 5.79-1.21 4.235-2.42 8.556-3.543 12.79C.36 100.184.1 104.16.014 108.05c-.087 3.456.26 6.827.605 10.284.085.864-.433 1.9.604 2.592.086 0 0 .346-.087.432-.26.52 0 1.037.52 1.21 0 0 .085.087.085.173H1.31c-.26.777.605 1.382.26 2.246-.087.173.26.518.43.778 0 .26-.085.605 0 .864.088.778.434 1.555.434 2.42 0 .605.518 1.296.69 1.9.087.26 0 .692-.172.865-.518.605-.432 1.124.346 1.47.173.086.432.43.432.604 0 .52-.173 1.037-.26 1.556.173.173.26.345.173.518 0 .26-.26.52-.172.693.692 1.382.95 2.938 1.038 4.493 0 .346.173.692.345 1.124.087 0 .346 0 .52.086l-.52 1.556c.432-.26.778-.346 1.21-.52.26 1.125.52 2.162.864 3.112.087.173.26.346.52.52-.088.172-.088.517-.26.604.345 1.555.518 3.025 1.123 4.494.087 0 .173-.087.26-.087-.26-1.555-.433-3.197-.692-4.753v-.518s.173-.087.26-.087c.086.346.26.778.26 1.037.69 0 1.727.432 2.418.432.087-.26.173-.605.26-.777-.52-.52-.95-1.298-1.47-1.816.173.69 0 .95 0 1.21-.345-.173-.777-.346-1.21-.52.346-.43.692-.863 1.21-1.382 0-.777-.432-1.47-1.642-1.382.52-.173 1.038-.432 1.642-.605.087.26.173.518.26.69.69-1.21-.346-2.16-.346-3.37.086-1.468-.778-2.937-1.037-4.493-.432-2.42-.346-6.05-.605-8.47 0-.172-.26-.345-.432-.518-.087.087-.52 1.21-.605 1.297.26 2.075.52 4.15.692 6.223-.086 0-.173 0-.173.086-.346-1.816-.692-3.717-1.124-5.79-.086.604-.173.863-.173 1.21-.26-.087-.345-.174-.778-.347.346.778.692 1.297.95 1.902-.604-.26-1.295-.173-1.295-.173v2.42c-.864-.865-1.124-1.556-1.556-2.16-.173-.692-.26-1.384-.432-2.075l.26-.087c-.087-.345-.26-.605-.26-.864-.086-.605-.173-1.296-.26-2.074.087-.086.433-.173.606-.345l-.692-1.037c.692.086 1.124.172 1.556.172 0-.172.086-.26 0-.345-.864-.778-.26-1.47.086-2.16.173-.347.778-.433.95-.78.692-1.295 1.816-2.332 1.816-3.974 0-.778.26-1.642.345-2.42.172-1.47.345-2.938.432-4.407.172-1.9 0-3.803.432-5.617.69-3.026 1.555-6.05 2.506-9.075.69-2.16 1.47-4.235 2.333-6.395 1.297-3.37 2.506-6.74 4.148-9.94 2.335-4.665 5.014-9.16 7.606-13.74 1.642-2.85 3.37-5.53 5.185-8.296 1.73-2.68 3.458-5.444 5.446-7.95 2.765-3.543 5.79-6.827 9.16-9.766 3.457-3.11 6.74-6.308 10.457-9.16 4.84-3.716 9.938-7 15.383-9.852 4.407-2.333 8.987-4.148 13.568-5.877 2.938-1.124 6.135-1.642 9.16-2.593 3.457-1.124 6.914-1.642 10.543-1.73 2.334-.085 4.58-.344 6.914-.603 2.075-.173 4.15-.346 6.396-.605-.26.344-.346.517-.432.69-.95 1.383-1.988 2.765-2.938 4.148-.778 1.124-1.642 2.333-2.42 3.457-1.383 1.815-2.852 3.63-4.148 5.53-1.988 2.853-3.803 5.79-5.877 8.643-2.073 2.765-4.32 5.358-6.48 8.037-2.852 3.716-5.53 7.518-8.383 11.234-2.593 3.543-5.358 6.913-7.864 10.456-2.247 3.11-4.235 6.395-6.395 9.593-3.198 4.752-6.395 9.418-9.593 14.17-2.506 3.63-5.012 7.174-7.605 10.804-.173.26-.432.346-.69.518-.174.173-.52.346-.52.52-.172.604-.172 1.21-.432 1.727-.69 1.296-1.382 2.592-2.16 3.802-.432.69-1.037 1.296-1.556 1.987-.173-.087-.26-.173-.432-.173.346-.865 1.815-1.383 1.124-2.68-.432.692-.865 1.297-1.297 1.988l-1.037 2.074c.346.26.95.43.346.95-.26.432-.52.95-.778 1.383.087 0 .087.086.173.086.26-.347.52-.606.78-.952.085 0 .172.087.258.087-.26.864-.778 1.642-1.21 2.42-.346.69-1.21 1.21-1.815 1.728.087.086.692.346.778.432.26-.346.347-.173.606-.518.173.26.432-.173.52.086.258-.346.517-.605.604-.864.345-.865.864-1.557 1.728-1.902.346-.173.605-.433.864-.692 2.593-2.68 5.272-5.27 7.605-8.123 3.63-4.408 6.914-8.988 10.37-13.482 1.47-1.9 3.198-3.8 4.753-5.616.173.087.346.087.433.173-.173 1.815-.346 3.716-.433 5.53-.26 3.198-.432 6.396-.69 9.68-.087 1.296 0 2.592-.087 3.89 0 .344-.26.603-.26.95 0 .863.26 1.814.26 2.678-.26 3.198-.605 6.31-.865 9.506-.086.693.26 1.384.433 1.99-.086-.087-.172-.174-.432-.347 0 5.013.95 9.94.173 14.865.347-.087.52-.173.52-.346.086-.605.26-1.21.26-1.815.086-.518 0-1.037 0-1.642v-.864c.086-1.555.43-3.197.258-4.752-.172-1.73-.172-3.37.173-5.013.174-.69-.085-1.555.347-2.42v1.297c-.087 4.926.086 9.852-.605 14.778-.086.432.26 1.21-.69 1.123-.088 0-.174.432-.347.692-.432.864.518 1.987-.346 2.85-.174.174.172.952.258 1.47 0 .173.087.346 0 .433-.345.605-.345.605.173.69.088 1.902.26 3.63.347 5.445h.26c1.123-3.284.43-6.654 1.036-10.024.087 1.38.173 2.764.087 4.233 0 2.247-.087 4.408-.173 6.655 0 .432-.087.864-.173 1.296-.26 1.21-.346 2.42-.778 3.543-.345.864-.173 2.16-.173 3.198v3.283c0 .087.26.346.26.692.086.778-.346 1.556-.087 2.42.087.173-.086.432-.173.605-.086.26-.172.518-.086.777l.26 1.297c0 .085.086.172.172.344.086-.345.086-.605.086-.69 1.47.172.69 1.468 1.382 2.16-.345.172-.605.26-.605.345.087.345.26.604.26.95 0 .777-.087 1.47-.173 2.247 0 1.987-.087 3.975-.087 5.876 0 .26.087.52.087.778 0 .174-.087.347-.087.606v1.815h.346c-.174.26-.347.52-.606.778-.086 0-.346 0-.346-.086v-10.89h-1.296c-.173 5.186.26 9.853-.69 14.692-1.038.087-1.384.26-2.507.26-2.68 0-5.358 0-8.037.086-3.198 0-6.31.087-9.507.087-1.554 0-3.196.172-4.752.172-2.074 0-4.234-.26-6.308-.26-3.198 0-6.31.26-9.506.346-2.334.086-4.667.086-7 .173-1.556.085-3.112.172-4.667.344-.69.087-1.296.346-2.16.605-.26 0-.865-.087-1.383 0-.864.172-1.642.69-2.506.863-1.297.26-1.642.605-1.47 1.902v.864c-.172-.174-.432-.347-.605-.433-.086 0-.172.086-.172.086.087.26.26.432.346.692.346-.173.778-.605 1.124-.605h1.21c-.173 0-.26.518-.52.95.692-.26 1.125-.432 1.557-.605.086.26.086.605.086.692 1.21-.087 2.333-.432 3.37-.173 3.37.864 6.828 1.21 10.284 1.555 2.247.172 4.408.26 6.655.345 3.197.173 6.395.346 9.592.346 2.68 0 5.272-.258 7.95-.258 3.717 0 7.433.172 11.15.26.777 0 1.64-.088 2.505-.088h6.308c5.617-.172 11.234-.26 16.852-.432 3.197-.086 6.48-.26 9.68-.345l9.85-.26c3.803-.086 7.605-.086 11.32-.173 2.853 0 5.62-.086 8.47-.172 3.198-.087 6.482-.346 9.68-.52 1.728-.085 3.456-.258 5.185-.43 2.074-.174 4.234-.433 6.308-.52 3.11-.172 6.31-.26 9.42-.432 3.89-.26 7.778-.605 11.753-.69 3.63-.174 7.346-.087 10.975-.174 3.2-.086 6.396-.26 9.68-.345l5.445-.26s3.63-.085 5.444-.258c3.11-.173 6.22-.52 9.332-.605 1.988-.086 3.976 0 5.963-.086 3.198-.086 6.482-.26 9.68-.26 1.21 0 2.506.174 4.06.26-.69.606-1.122.95-1.64 1.383.345.087.69.26 1.036.432 0 .087-.085.173-.085.346-.432 0-.864.088-1.297.088-.172.432-.345.604-.518 1.47h1.555c-.604 0-1.123.776-1.728 1.295.087.086.173.086.26.173-.95-.346-1.556-.173-1.902.778.26.086.432.086.69.086-.085.26-.17.52-.258.864-.086.173-.173.346-.173.605l-.26-.26c0-.173 0-.346-.085-.52-.52.52-1.298.866-.866 1.99-.345.172-.777.345-1.21.604.087.173.26.346.346.605-.777.085-1.555.258-1.382 1.21.345.085.69.258.95.344-.432.173-.864.432-1.296.605-.087.172-.173.604-.346.69-1.21.26-.518.692-.173 1.124-.26.173-.518.346-.777.432.26.087.432.173.605.346-.26.173-.432.26-.604.346.172.086.432.26.518.26-.346.258-.778.604-1.296 1.036 0 .173 0 .26.086.432-.345.346-.69.69-1.037 1.21-.345.518-.518 1.21-.95 1.728-1.815 1.988-3.112 4.32-5.445 5.877-.864.606-1.642 1.383-2.42 2.16-1.555 1.47-2.938 3.112-4.58 4.495-2.16 1.815-4.407 3.457-6.74 5.1-2.852 1.986-5.704 3.974-8.556 5.875-1.556 1.037-3.284 1.815-4.926 2.766-1.642.95-3.197 1.815-4.84 2.765-1.037.693-1.987 1.643-3.11 2.162-2.853 1.21-5.877 2.247-8.815 3.37-.26.086-.432.173-.692.26-2.16.95-4.234 1.987-6.395 2.765-1.988.69-4.06 1.21-6.136 1.642-.69.172-1.47 0-2.246.085-1.47.26-2.94.605-4.408.778-3.802.52-7.605.864-11.407 1.383-2.246.26-4.407.69-6.654.95-1.555.087-3.197-.086-4.753-.086-1.123 0-2.333.26-3.457.086-1.814-.26-3.63-.69-5.444-1.037-.432-.087-1.037-.26-1.383-.087-.692.345-1.297-.173-1.988 0-.432.086-.864-.26-1.297-.26-.345-.086-.777.087-1.21 0-.95-.26-1.814-.604-2.85-.518-1.038.087-2.075-.432-3.2-.69-1.554-.347-3.023-.693-4.58-1.038-.604-.173-1.122-.432-1.727-.778-.173.085-.433.258-.778.258-1.47-.26-2.938-.345-4.32-.864-1.21-.432-2.334-1.037-3.63-.864-.346.086-.606-.087-.95-.087-.26-.345-.52-1.037-.78-1.037-1.728.087-2.765-1.382-4.234-1.814-.778-.26-1.382-1.124-2.16-1.383-1.9-.78-3.457-2.42-5.617-2.68-.693-.087-1.384-.432-2.162-.692.26.346.432.605.69.865l-.172.172c-2.333-1.382-4.666-2.765-7-4.06-.345-.088-.604-.433-.864-.606l-2.333-1.557c-.26-.173-.78-.432-.78-.346-.517.606-1.036.087-1.38-.086-2.335-1.64-5.014-2.678-7.26-4.493-.95-.777-2.075-1.296-2.766-2.247-1.21-1.47-2.68-2.506-4.32-3.37-1.297-.69-2.507-1.47-3.717-2.247-.605-.432-1.21-.95-1.21-1.9 0-.606-.26-1.21-1.037-.865-.346-.52-.69-1.124-1.123-1.297-1.037-.43-1.73-1.208-2.507-1.9-.777-.69-1.382-1.642-2.333-1.987-1.728-.692-2.765-2.16-3.802-3.37-2.42-2.853-4.58-5.964-6.828-8.99-.172-.258-.518-.43-.777-.69l-.087.087c.432.864.864 1.642 1.297 2.506-.087.086-.26.173-.346.26-.52-.606-1.124-1.21-1.642-1.816-.087.087-.173.173-.26.173l6.223 9.852c.518.778.95 1.555 1.47 2.333-.087.087-.174.173-.347.26-.95-.173-1.814-.865-2.247-1.643-.776-1.382-1.64-2.246-3.37-2.074-.172-.604-.345-1.295-.43-1.9-.347 0-.606 0-1.21-.086 1.21 1.9 2.246 3.543 3.37 5.444-.433-.26-.692-.432-.865-.518 1.556 1.642 2.68 3.716 4.667 4.753.432 1.987 2.68 2.938 3.197 4.84-.433-.087-.778-.174-1.21-.26-.692-.864-1.47-1.728-2.247-2.68.172.606.432 1.124.777 1.557 1.037 1.296 1.988 2.592 3.198 3.716.432.432 1.037.605 1.037 1.382.173-.173.346-.26.69-.432-.172.346-.258.52-.344.778.346 0 .606.086.865.086.173.52-.087 1.297.95 1.124.087 0 .173.086.26.173.432 1.123 1.123 1.123 2.074.69.172-.085.604 0 .69.174.432.95 1.037 1.038 1.815.347 0 .432.086.864.086 1.21h.347c0-.173-.086-.433-.086-.865.433.346.692.52.865.692.864 1.21 1.642 2.333 2.852 3.283 1.642 1.383 3.11 2.852 4.666 4.15 3.025 2.505 6.395 4.58 9.766 6.48 4.147 2.333 8.122 4.84 12.357 7.086 5.098 2.68 10.543 4.494 16.16 5.79 2.074.433 4.062.865 6.136 1.383 1.815.52 3.63 1.297 5.444 1.73 2.766.604 5.618 1.122 8.383 1.64.605.087 1.21.174 1.9.26v.173c.78 0 1.73-.347 1.903-.088.432.692.777.346 1.296.26.604-.173 1.295-.173 1.986-.173 2.42.085 4.753.604 7.173.43.518 0 1.296-.43 1.728.433.173-.087.26-.173.432-.26.345-.086.778-.086 1.123-.172v.174c-.173.086-.345.086-.69.173.43.086.69.172.95.26-.173.172-.26.172-.433.258-.172.086-.432.173-.777.432 3.11.605 6.05.692 8.642 0v-.518h.345c0 .17.087.344.173.517 3.975.346 7.864-.173 11.58-1.47.346.433.605 1.038 1.124.174.173-.258.605-.345.95-.43.778-.174 1.73-.52 2.42-.26.778.26 1.037-.433 1.642-.433 1.036 0 1.987-.086 2.937-.26.52-.085 1.037-.345 1.642-.517 0-.087 0-.173-.087-.26-.605-.086-1.296-.172-1.815-.172 1.037-.52 1.988-.95 2.938-1.383 0 .086.087.086.087.173-.26.086-.432.432-.778.432h1.21c-.26 0-.605.778-1.037 1.296 3.11-.778 5.963-1.47 8.728-2.16v-.173c-.345.086-.605.086-.864.173-.086-1.815 1.9-1.21 2.593-2.247-.865.258-1.73.517-2.593.69v-.173c2.938-1.296 5.963-2.592 8.9-3.89 0 .088.088.088.088.174-.52.347-1.037.606-1.815 1.038.518.087.864.087 1.123.173 0 .26 0 .433-.086.52 1.47-.087 1.123-1.383 1.555-2.16.26.085.605.258.865.172.777-.173 1.47-.432 2.246-.69.865-.26 1.73-.52 2.593-.866 1.384-.605 2.68-1.382 4.063-2.074.26-.086.69 0 1.037 0 .26 0 .432-.173.605-.345.345-.26.69-.778.95-.692 1.21.173 2.074-.26 2.42-1.382.087 0 .087-.087.173-.087.432-.345.864-.69 1.296-.95 1.902-1.038 3.716-2.074 5.618-3.112.086-.086.26 0 .432 0 .26 0 .605 0 .777-.086 1.125-.52 2.162-1.123 3.2-1.728-.26-.087 0-.173-.865-.26v-.173c.864-.172 1.123-.26 1.642-.432l-.173-.172c2.247-2.247 5.1-3.89 7.26-5.79.43.086.604.172.863.172.087-.26.087-.518.087-.69.345-.433.69-.952 1.123-1.297 1.9-1.73 3.976-3.198 5.704-5.013 2.507-2.506 4.927-5.098 7.174-7.777 2.074-2.42 4.148-4.84 5.876-7.52 2.42-3.715 4.494-7.517 6.654-11.406 1.556-2.766 2.94-5.53 4.494-8.297.173-.26.52-.604.778-.604 2.333-.26 4.667-.432 6.914-.69.518-.087 1.123-.433 1.642-.692-.26-.432-.433-.95-.692-1.383-.345-.52-.864-.95-1.21-1.47-.345-.43-.604-.95-.864-1.468-.26-.432-.518-.778-.778-1.21-.518-.95-1.037-1.9-1.47-2.938-.085-.26-.258-.693-.172-.952 1.556-3.37 2.16-7 3.63-10.37 1.47-3.457 1.9-7.346 2.593-11.062.604-3.543.95-7.086 1.38-10.63.26-2.506.606-4.926.693-7.432.518-3.975.345-7.69.26-11.407zM38.642 217.54c-.603-.69-1.122-1.468-1.727-2.16l.26-.26c.95 1.04 1.9 2.075 2.85 3.2-.517-.26-1.122-.433-1.382-.78zm1.384.78c.26-.087.52-.087.778-.174.26.432.432.95.69 1.47-1.21-.087-1.814-.606-1.468-1.297zm89.876 35.69v-.26c1.642-.172 3.198-.345 4.84-.517v.26c-1.642.258-3.198.43-4.84.517zm21.778-2.247c-1.21.26-2.506.432-3.716.605-.432.087-.95.52-1.123-.26-.172.087-.345.087-.518.174.432 1.296 1.47.26 2.333.778-1.9.26-3.716.432-5.53.69v-.172c.518-.086 1.123-.173 1.642-.26v-.258c-.865-.087-1.73-.173-2.593-.173-.26 0-.605.346-.864.432-.346.085-.692.172-1.124.172-1.47.086-2.938.086-4.32.173-.087 0-.26-.087-.346-.087v-.26c5.79-.777 11.494-1.555 17.284-2.332.086.172.086.345.172.518-.518 0-.864.173-1.296.26zm1.296-.864c1.988-.26 3.803-.433 5.704-.692-3.975 1.123-5.27 1.296-5.704.69zM77.706 76.417c2.765-3.802 5.616-7.605 8.382-11.494.864-1.123 1.555-2.333 2.42-3.456.26-.346.604-.52 1.037-.865l-.087-.172c.346-.432.69-.777.864-1.123.432-.69.692-1.47 1.037-2.247.086-.173.345-.345.345-.345 1.21.604 1.21-.692 1.642-1.124.778-.863 1.556-1.814 2.247-2.678.518-.69 1.037-1.296 1.47-2.074.085-.26-.174-.69-.26-1.037h-.26c.26-.172.52-.43.778-.604.087 0 .087 0 .173-.086.52-.778 1.037-1.556 1.556-2.247 1.038-1.383 2.16-2.766 3.37-3.976-.172.432-.345.865-.517 1.21.086 0 .086.087.172.087 1.037-1.383 2.16-2.68 3.198-4.062-.087-.086-.173-.173-.26-.173-.43.43-.777.863-1.21 1.295-.086-.086-.172-.172-.26-.172.866-1.124 1.73-2.247 2.594-3.544.173.26.346.604.69 1.296.347-.865.693-1.47.952-2.074-.26.26-.606.518-.865.777l-.26-.26 1.556-2.333c1.643-2.334 3.285-4.753 4.927-7.087.605-.864 1.383-1.555 1.9-2.42 1.643-3.283 4.236-5.876 6.223-8.9.433-.605 1.037-1.124 1.556-1.643.432-.518.778-.345 1.124.087 2.333 2.938 4.666 5.963 7 8.9 1.728 2.162 3.456 4.236 5.098 6.482 1.988 2.766 3.89 5.53 5.877 8.297 2.247 3.197 4.494 6.395 6.654 9.68 3.283 4.838 6.394 9.678 9.678 14.517 2.42 3.544 4.84 7 7.173 10.544h-4.407c-4.06-.087-8.21-.433-12.27-.26-5.532.26-11.15.864-16.68 1.296-7 .605-14.087.692-21.086.692-2.507 0-5.013.345-7.52.518-3.024.173-5.962.346-8.987.433-3.543.172-7 .26-10.543.345-1.987.087-4.062 0-6.222 0zm99.122 39.753v.78c-.086 0-.173.085-.346.085-.345-1.21-.69-2.506-1.123-3.716-.865-2.507-1.816-5.013-3.37-7.26-1.73-2.42-3.285-4.926-5.014-7.432-.432-.605-1.037-1.124-1.555-1.642-1.814-1.988-3.63-4.062-5.962-5.53-3.457-2.16-7-3.976-10.803-5.532-1.037-.432-1.987-.95-3.024-1.555h2.075l14.778-.26c3.197-.087 6.308-.087 9.506-.26.777 0 1.21.26 1.64.95.78 1.297 1.556 2.593 2.42 3.89.087.172.26.432.26.69 0 1.902 0 3.89.086 5.79.087 1.99.26 3.89.346 5.878 0 1.987-.173 4.06-.087 6.135.087 2.94.173 5.963.173 8.988zM83.84 87.22c4.063-.172 7.95-.432 11.927-.604 3.11-.173 6.308-.26 9.42-.432 1.296-.087 2.506-.173 3.802 0-1.384.69-2.766 1.382-3.976 2.247-1.556 1.037-3.025 2.42-4.58 3.544-1.556 1.123-2.94 2.506-4.235 3.975-1.643 1.987-3.458 3.715-5.186 5.616-1.21 1.383-2.593 2.68-3.63 4.148-1.47 1.902-2.765 3.976-4.148 6.136.432-8.21.95-16.333.605-24.63zm56.433 83.136c-2.766.69-5.617 1.47-8.47 1.815-2.42.347-4.925.26-7.43.26-2.248 0-4.41-.086-6.656-.26-2.506-.258-5.012-.518-7.432-1.64-2.074-.952-4.234-1.816-6.308-2.853-2.074-1.037-4.15-2.247-5.704-4.148-1.124-1.384-2.68-2.507-4.062-3.717.26 1.037.865 1.9 1.816 2.506-.432.518-1.037.258-1.9-1.124-.26.172-.52.26-.693.345.26-.604.52-1.208.778-1.727-.344-.69-.777-1.47-1.122-2.16-.692-1.124-1.383-2.334-1.988-3.457-.173-.26-.173-.52-.346-.778-.432-.52-.864-1.037-1.21-1.556-.69-1.037-1.296-2.16-2.16-3.197 0 .26.086.518.086.864-.086 0-.172.085-.172.085l-1.815-4.407c-.087 0-.087 0-.173.087l1.556 5.703c-.087 0-.173.087-.26.087-.26-.346-.518-.692-.69-1.124-.174-.69-.692-.69-1.125-.43-.258.172-.43.777-.344 1.036.605 1.47 1.296 2.938 1.987 4.408.173.518.346.95.605 1.47.087.172.346.344.346.604.346.69.605 1.382 1.037 1.987.78 1.037 1.643 2.074 2.42 3.11.78 1.038 1.47 2.162 2.16 3.2.088.172.347.172.433.258.433 1.296 1.902 2.247 2.94 1.73.258 1.986 2.418 2.678 3.283 4.58-1.037-.433-1.815-.78-2.507-1.125-.087.087-.087.173-.173.346 1.037.518 2.074 1.037 3.024 1.642.865.518 1.73 1.037 2.507 1.642 1.038.95 2.247 1.47 3.717 1.815-.087-.26-.173-.346-.173-.346 2.42 1.124 4.927 2.333 6.828 3.284-8.988.174-18.58.347-28.52.52 0-1.643-.085-3.198-.085-4.84 0-.69.173-1.296.086-1.988-.26-3.975-.26-7.95-.778-11.84-.52-4.147-.52-8.21-.432-12.357.086-2.247-.087-4.58-.173-6.827 0-3.025 0-5.963.086-8.988 0-.432.173-.778.346-1.21h.258c.086.173 0 .432.173.52.26.258.692.69.865.604.52-.346 1.296-.692 1.47-1.21.43-1.037.604-2.16.604-3.198 0-.777.345-1.296.69-1.815.173-.258.26-.517.433-.863-.346-.26-.692-.432-1.124-.777.345-.95.258-2.075 1.555-2.593.173-.087.173-.52.26-.778.085-.692.172-1.47.258-2.16.173.258.26.344.432.517.087-.173.173-.26.173-.26 0-.345-.086-1.036 0-1.036 1.037-.172.605-1.295 1.124-1.814.086-.086-.087-.346-.087-.518 0-.173 0-.433.087-.433 1.21-.26 1.037-1.555 1.814-2.16.26-.173.346-.432.692-.864.69 1.21-.52 1.816-.605 2.68 1.47-.864 1.9-2.938 1.037-3.543.346-.26.69-.605.95-.95.95-1.038 1.988-1.99 2.852-3.026.605-.777.95-1.727 1.556-2.505.346-.432 1.037-.778 1.555-1.037 1.556-.864 3.025-1.815 3.976-3.284.172-.173.43-.346.69-.518.26-.173.778-.173.864-.433.087-.172-.173-.604-.346-.864.346-.174.692-.52 1.383-.865-.258.52-.344.864-.517 1.21l.432.432c.778-.605 1.988-1.296 2.765-1.815 0-.086-.432-.432-.432-.432-.518.26-1.296.692-2.074 1.037.173-.26.173-.432.26-.518 1.21-.78 2.42-1.557 3.715-2.162 3.024-1.383 6.05-2.765 9.073-4.062.52-.26 1.21-.086 1.815-.086.26 0 .432 0 .692-.086 1.382-.432 2.765-.864 4.148-1.21.605-.173 1.296-.26 1.9-.26 2.594.087 5.186.087 7.78.26 1.122.086 2.16.346 3.196.69 1.297.433 2.68 1.038 3.89 1.643 1.468.778 2.85 1.642 4.234 2.593 2.506 1.642 4.84 3.456 7.345 4.926 2.42 1.47 4.32 3.456 5.877 5.703 1.9 2.678 4.062 5.098 4.926 8.382l1.296 5.704c.26 1.037.864 2.074.605 3.284-.432 2.16-.778 4.407-1.123 6.568-.173.864-.346 1.728-.26 2.592.173 2.68-.864 5.012-1.9 7.432-.347.778-.865 1.556-1.297 2.42.086.086.605.346.69.346l.78-1.556c.085 0 .085 0 .172.087-.433 1.208-.78 2.505-1.21 3.715-1.038 2.68-2.075 5.444-3.37 8.037-.693 1.47-1.903 2.68-2.767 4.06-.864 1.21-1.555 2.507-2.42 3.63-.777.952-1.555 1.902-2.592 2.594-2.333 1.728-4.752 3.456-7.258 4.84-1.556.95-3.37 1.468-5.1 1.9zm-46.062-4.58l-.085.086c-.173-.086-.432-.173-.605-.345l-2.074-3.11c-.173-.26-.26-.52-.173-.866.95 1.47 1.9 2.853 2.938 4.236zm53.754 11.84c3.89-1.643 7.087-3.976 10.025-6.655.43-.43.863-.863 1.382-1.21 3.63-2.246 6.308-5.357 8.728-8.814 2.765-3.975 4.58-8.47 6.827-12.703.173-.346.346-.692.52-.95-.174 9.85.95 19.53 2.245 29.295-9.765.346-19.703.692-29.728 1.037zm87.63-2.593c-.087.173-.26.345-.346.518-.087-.172-.087-.43-.173-.776-.52 1.382-1.642.69-2.42.69-4.666.087-9.42.087-14.086.087-4.495 0-9.075 0-13.57.088-1.468 0-3.024.345-4.493.432-3.543.173-7.086.26-10.63.345-.26 0-.518-.432-.95-.777-.086.173-.26.432-.52.777-.085-.172-.258-.345-.43-.604-.087.26-.174.52-.26.692h-.26c-.172-1.21-.518-2.333-.518-3.543 0-2.594.258-5.186.345-7.78.086-1.21 0-2.332 0-3.456.346.26.605.432.95.692.173-.346.346-.605.52-.865 0 0-.174-.085-.347-.258.173-.086.346-.26.346-.345.087-.26.26-.52.26-.692 0-.605-.173-1.123-.26-1.642.087 0 .173 0 .26-.086l.518 2.592h.26c-.346-.606.777-1.124-.174-1.816-.086-.086.087-.605.087-.864-.26-.518-.432-1.037-.692-1.728.087-.086.346-.173.605-.26-.345-.172-.605-.345-.864-.432.864-.777.864-1.21.087-2.074.173-.086.346-.086.346-.172 0-.778 0-1.556-.173-2.334-.172-.864.26-1.9-1.037-2.42.087.26.173.433.346.692 0 0-.26.086-.52.26-1.122-1.038-.43-2.42-.69-3.976.605.173 1.037.346 1.47.518-.174-.604-.606-1.296-.865-2.074h-.346v-5.703c0 .086.606.086.952.172 0-.087.086-.173.086-.26-.26-.346-.605-.69-.95-1.123l.173-.173c-.69-.864-.345-2.074-.345-2.333v-6.05c.864.865-.432 1.99.864 2.507v-.864h-.087c-.087-1.296-.087-2.592-.173-3.89h-.173c-.086.174-.086.26-.173.433h-.173c.174-6.827.347-13.654.52-20.654.864 1.124 1.815 2.16 2.42 3.284 1.987 3.63 4.58 6.74 7 10.025 2.074 2.853 3.975 5.964 5.876 8.902 2.333 3.543 4.58 7.086 6.914 10.63 1.728 2.68 3.543 5.358 5.358 7.95 1.642 2.333 3.37 4.58 5.1 6.827 1.468 1.987 3.023 3.975 4.492 5.962 1.73 2.42 3.457 4.84 5.186 7.173.864 1.21 1.814 2.42 2.765 3.63.52.69 1.297 1.21 1.816 1.642-.087 0-.173 0-.346-.087.26.346.432.605.605.778.95.518 1.037 1.037.52 1.815zM240 153.418v-.605c0 .173.087.432 0 .605zm2.94-38.11c-.087 0-.606-.52-.692-.606-.087.26 0 .518-.173.864-.086-.26-.69-.173-.69-.432-.088 1.21.517 2.42.43 3.63.26-.173 1.297-.26 1.556-.52.088.088.26.174.347.174-1.728 1.296-1.296 2.593-.52 4.062.174.345.693 1.037.174 1.728-.172.173.088.692.174 1.124h.26v.172l-.778.26c-.173-.26-1.21-.778-1.21-1.21v4.407c.864.26.864 1.47 1.21 2.075.172-.26.26-.432.345-.69l.088.085c-.087.52-.173 1.037-.346 1.556-.173.778-.346 1.47-.432 2.247 0 .086.173.26.173.345-.95 2.16-.432 4.58-.778 6.828-.26 1.642 0 3.37-.173 5.098-.173 1.47-.518 3.025-.864 4.494-.086.26-.26.346-.69.52.17-1.038.085-1.73-.088-2.68-.086 0-1.21-.605-1.296-.605 0 1.21.69 2.852.95 4.234-.26-.086-1.296-.69-1.382-.69-.173 1.036-.173 2.42-.26 3.542-.086.863-.864 1.64-.95 2.592 0 .518.605.864.518 1.728h.692c0-1.728.778-3.284.778-5.1h.26c.085.174.345.347.258.434-.173.95-.518 1.987-.432 2.938 0 .518.432 1.037.26 1.642-.174.518-.26 1.037-.346 1.814-.087-.432-.173-.604-.173-.864-.087 0-.864-.086-.95-.086-.087.518.604 1.037.518 1.47-.087.086-.173.086-.346.172l-2.853-4.148c-2.247-3.284-4.494-6.568-6.74-9.938-.606-.865-1.124-1.73-1.556-2.593-2.678-4.58-5.616-8.987-8.9-13.22-2.507-3.2-4.494-6.656-6.828-10.026-2.16-3.197-4.32-6.31-6.48-9.506-.78-1.037-1.73-1.988-2.42-3.11-2.248-3.544-4.235-7.174-6.482-10.717-1.9-2.938-3.976-5.79-5.963-8.64-.69-.952-1.383-1.99-2.074-3.026-.087-.173-.173-.346-.173-.605-.173-1.902-.346-3.803-.432-5.618 0-1.73.173-3.457.173-5.272v-1.555c0-.432.087-.778.087-1.21.086-.087.173-.26.26-.346-2.507 0-5.1-.087-7.606 0-1.64.086-2.505-.606-3.628-1.815-3.284-3.717-5.704-7.95-8.556-11.926-2.68-3.804-5.444-7.52-8.21-11.236-2.246-3.025-4.493-5.963-6.74-8.988-2.506-3.456-4.926-6.913-7.52-10.37-3.11-4.148-6.307-8.296-9.505-12.444-1.468-1.902-3.11-3.716-4.752-5.704 1.123.173 2.16.346 3.198.432l4.148.26c3.11.26 6.222.43 9.333.863 2.593.346 5.185.865 7.864 1.297 5.705.95 11.322 2.506 16.767 4.32 3.197 1.038 6.308 2.42 9.42 3.717 7 2.852 13.654 6.308 20.22 9.938 2.076 1.123 3.285 2.938 4.84 4.58 2.248 2.334 4.495 4.667 6.655 7.087 2.506 2.852 4.84 5.79 7.26 8.728 2.16 2.593 4.407 5.185 6.567 7.778.69.778 1.21 1.728 1.814 2.592 1.383 2.074 2.938 4.062 4.148 6.31.865 1.64 1.383 3.542 1.988 5.357.864 2.68 1.728 5.272 2.593 7.95.604 1.988 1.123 4.062 1.555 6.136.346 1.383.26 2.852.69 4.235.52 1.815 0 3.802.52 5.617.086.173.173.432.26.605.345.346.604.69.086 1.21-.087.086-.087.432 0 .69.172-.17.26-.344.432-.604 0 .173.086.26.086.346 0 .346-.086.69 0 1.037 0 .172.173.43.26.604.172-.173.345-.26.69-.518.778 2.938.865 5.876.865 8.9 0 2.853.518 5.704-.69 8.47.258-.95-.347-1.815-.088-2.68z"/><path d="M188 149.197c.087 0 .174.087.174.087l-.087-.087c0-.086 0-.086-.086 0zm13.655 85.383c-.95.69-1.9 1.296-3.11 1.555-.087-.086-.087-.173-.174-.26.952-.604 1.99-1.21 2.94-1.814.086.174.26.347.345.52zM39.62 117.48c.95-1.21 1.9-2.42 2.937-3.628.086.086.778.26.864.345-.95 1.21-2.246 2.852-3.196 4.148-.173-.172-.432-.777-.605-.864zm-24.544 42.347c-.692-1.47-1.383-3.025-2.074-4.494.086-.086.69-.346.777-.346.95 1.383 1.382 3.025 2.073 4.494 0 0-.69.347-.777.347zm22.037-41.482c-.52.778-1.037 1.642-1.556 2.42-.086-.086-1.037.346-1.123.26.518-.778 1.814-2.16 2.333-2.94.086.088.173.174.346.26zm155.295 119.778c.087 0 .087-.087.173-.087.606.087 1.298.173 1.99.173-1.125.777-1.816.69-2.162-.087zM37.285 121.975c.087-.26.26-.52.432-.778.173 0 .433-.086.433-.086.345-.604.345-1.036.69-1.555-.085-.086-.172-.086-.258-.173-.52.346-1.037.778-1.556 1.124.173.173.173.26.173.432-.692-.086-.952.26-1.297 1.21-.087.26-.52.345-.95.69-.087.174-.174.606-.347 1.038l.087.087c-.173.172-.432.26-.432.26-.518.517-1.123.95-1.64 1.468-.088.26-.174.52-.174.78.605-.606 1.642-1.73 2.42-2.42l.086.085c.346-.518.605-1.037.95-1.555.087.086.087.173.174.26-.26.69-.52 1.468-.778 2.16-.173.086-.432.26-.432.173-.346.26-.605.604-.95.864l-1.556 1.037c-.865.778-1.73 1.47-2.68 2.247-.604.95-1.21 1.815-1.9 2.94 1.036-.26 1.296.172 1.21 1.036 1.21.173 1.295-.778 1.64-1.47.088-.172.174-.518.347-.604.778-.69 1.642-1.296 2.506-1.988.173-.173.173-.518.173-.778 0-.086-.432-.086-.69-.172.776-.865 1.9-2.334 2.678-3.284.432-.26.864-.605.864-.865-.087-.95.518-1.21 1.21-1.555-.346-.26-.433-.52-.433-.605z"/><path d="M39.014 121.024c-.346.605-.69 1.124-1.037 1.73l-.52-.26c-.344 1.987-1.554 3.716-2.764 4.06.346.174.69.347.95.26.26-.086.433-.518.605-.777l2.334-3.37.778-1.297-.346-.346zm-28.778 37.938c.432 0 .864.087 1.383.087 0-.347.43-.26.43-.606h.26c0 .432.087.778.087 1.21h-1.815c-.087-.087-.432-.605-.346-.692zm-.69-3.975c-.26-.26-.693-.518-.693-.778-.086-.346.173-.778.433-1.21.172.604.26 1.123.432 1.728-.087.086-.173.173-.173.26zm2.16-5.53c.345.864.69 1.814 1.036 2.678-.086 0-.605.26-.69.346-.347-.863-.78-1.814-1.124-2.678.086-.086.604-.346.777-.346zm192.37 82.617c.43-.173.95-.26 1.64-.433-.777.606-1.382 1.038-1.9 1.557-.087-.087-.173-.173-.26-.173.173-.346.346-.605.52-.95zM97.865 49.47c.518-.347.95-.606 1.47-.952l.172.173c-.52.693-.95 1.384-1.556 2.248-.086-.605-.086-.95-.173-1.383-.087 0 0 0 .086-.086zm25.32 43.727c.778-.345 1.556-.69 2.507-1.123-.087.518-.087.864-.087 1.21-.26-.087-.605-.173-.864-.173-.518.087-1.47.78-1.9.865-.088 0 .344-.69.344-.778zM188 166.48c.174.865 1.816 1.297.174 2.16.26.174.518.26.778.434 0 .086-.087.26-.173.345-.174.086-.52.26-.693.172-.086 0-.26-.346-.26-.518 0-.778.088-1.556.174-2.593z"/></g></svg>