<svg width="256" height="330" viewBox="0 0 256 330" xmlns="http://www.w3.org/2000/svg" preserveAspectRatio="xMinYMin meet"><g fill-opacity=".9"><path d="M18.752 0L0 91.46 53.782 142.2l-34.943 62.29 71.1 125.185h77.785L239.13 204.49l-35.244-62.288 51.96-50.743L238.738 0 165.6 97.41H92.37L18.752 0z" fill="#6CCB94"/><path d="M18.84 204.49l34.94-62.288 75.045 62.29H18.84z" fill="#5DBD85"/><path d="M53.782 142.203l75.044 62.29L92.37 97.41l-38.588 44.793z" fill="#64C48C"/><path d="M239.13 204.49l-35.246-62.288-75.056 62.29H239.13z" fill="#6ECC95"/><path d="M89.94 329.677h77.784L128.827 204.49 89.94 329.678z" fill="#5EBE86"/><path d="M203.884 142.203l-75.056 62.29 36.77-107.082 38.286 44.793z" fill="#76D29C"/><path d="M238.74 0l17.102 91.46-51.958 50.743-38.286-44.793L238.738 0z" fill="#74D09B"/><path d="M128.825 204.49l38.9 125.187L239.13 204.49H128.825z" fill="#64C48C"/><path d="M128.825 204.49L89.928 329.678 18.838 204.49h109.987z" fill="#58B880"/><path d="M18.752 0L0 91.46l53.782 50.744 38.59-44.793L18.75 0z" fill="#5FBF87"/><path d="M128.825 204.49l36.773-107.08H92.37l36.455 107.08z" fill="#6ECC95"/></g></svg>