<svg width="256" height="243" viewBox="0 0 256 243" xmlns="http://www.w3.org/2000/svg" preserveAspectRatio="xMinYMin meet"><path d="M104.898 193.25s-23.103 17.17-39.337 12.487c0 0 79.923 79.922 162.967 3.122 0 0 27.785-32.158 26.536-55.884l-10.926-3.122s-15.298 75.55-95.22 66.185c.312.31-19.98-4.372-44.02-22.79z" fill="#EBA546"/><path d="M80.69 86.79s-2.498-28.722 9.99-39.96c0 0-109.893 26.536-87.727 137.677 0 0 13.112 40.586 33.717 51.825l8.117-7.805s-56.507-52.45-6.868-115.825c-.313 0 14.36-14.985 42.77-25.912z" fill="#322D6B"/><path d="M185.756 116.755s26.537 11.24 30.595 27.473c0 0 28.41-109.268-79.92-142.05 0 0-42.147-7.49-61.503 5.31l3.122 10.926S151.1-6.874 183.57 66.804c-.31 0 5.932 19.668 2.186 49.95z" fill="#7C64A5"/><path d="M144.748 77.002c-9.366 10.614-25.6 11.55-36.215 2.185-10.614-9.366-11.55-25.6-2.185-36.214 9.366-10.615 25.6-11.552 36.215-2.186 10.614 9.366 11.55 25.6 2.185 36.215z" fill="#7C64A5"/><path d="M79.14 183.1c-9.367 10.614-25.6 11.55-36.216 2.185-10.614-9.366-11.55-25.6-1.873-36.214 9.367-10.614 25.6-11.55 36.216-1.873 10.302 9.054 11.24 25.288 1.873 35.903z" fill="#322D6B"/><path d="M200.943 186.27c-9.366 10.615-25.6 11.55-36.214 2.185-10.616-9.365-11.553-25.6-2.187-36.214 9.366-10.614 25.6-11.55 36.215-2.185 10.615 9.366 11.55 25.6 2.185 36.215z" fill="#EBA546"/></svg>