<svg width="256" height="255" viewBox="0 0 256 255" xmlns="http://www.w3.org/2000/svg" preserveAspectRatio="xMinYMin meet"><defs><linearGradient x1="12.959%" y1="12.039%" x2="79.639%" y2="78.201%" id="a"><stop stop-color="#387EB8" offset="0%"/><stop stop-color="#366994" offset="100%"/></linearGradient><linearGradient x1="19.128%" y1="20.579%" x2="90.742%" y2="88.429%" id="b"><stop stop-color="#FFE052" offset="0%"/><stop stop-color="#FFC331" offset="100%"/></linearGradient></defs><path d="M126.916.072c-64.832 0-60.784 28.115-60.784 28.115l.072 29.128h61.868v8.745h-86.44S.144 61.355.144 126.77c0 65.418 36.21 63.098 36.21 63.098h21.61v-30.356s-1.165-36.21 35.632-36.21h61.362s34.474.557 34.474-33.32V33.97S194.67.072 126.916.072zM92.802 19.66c6.155 0 11.13 4.974 11.13 11.13 0 6.155-4.975 11.13-11.13 11.13-6.156 0-11.13-4.975-11.13-11.13 0-6.156 4.974-11.13 11.13-11.13z" fill="url(#a)"/><path d="M128.757 254.126c64.832 0 60.784-28.115 60.784-28.115l-.07-29.126H127.6v-8.745h86.442s41.486 4.704 41.486-60.713c0-65.416-36.21-63.096-36.21-63.096h-21.61v30.356s1.165 36.21-35.632 36.21h-61.362s-34.475-.557-34.475 33.32v56.013s-5.236 33.896 62.517 33.896zm34.114-19.586c-6.154 0-11.13-4.975-11.13-11.13 0-6.156 4.976-11.13 11.13-11.13 6.157 0 11.132 4.974 11.132 11.13 0 6.155-4.975 11.13-11.13 11.13z" fill="url(#b)"/></svg>