<svg width="256" height="295" viewBox="0 0 256 295" xmlns="http://www.w3.org/2000/svg" preserveAspectRatio="xMinYMin meet"><path d="M49.068 101.516c.036 30.473.08 60.946.038 91.418 26.356 15.225 52.692 30.484 79.022 45.758 26.328-15.224 52.656-30.45 78.984-45.673-.036-30.474-.08-60.947-.038-91.42-26.357-15.223-52.692-30.485-79.022-45.757-26.328 15.225-52.656 30.45-78.984 45.673" fill="#B7A634"/><path d="M128.413 78.985l-.046-.024-.308-.172c-19.736 11.43-39.492 22.823-59.255 34.204-.005 22.84-.01 45.68-.012 68.518 19.788 11.394 39.57 22.8 59.332 34.238 5.034-2.967 54.195-31.297 59.256-34.205l.022-68.518c-19.682-11.31-39.35-22.66-58.99-34.04" fill="#F9DF34"/><path d="M92.587 126.98l1.653 2.864-3.134 1.81 4.455 7.712c.418.725.816 1.137 1.197 1.24.38.1.932-.057 1.656-.475.24-.138.464-.28.675-.43.21-.146.402-.3.58-.454l1.914 3.315c-.327.27-.706.54-1.136.816-.43.275-.857.536-1.28.778-.66.384-1.315.7-1.96.952s-1.268.377-1.87.377c-.604 0-1.175-.166-1.714-.497-.54-.33-1.036-.888-1.488-1.672l-5.306-9.192-2.592 1.498-1.654-2.863 2.593-1.496-2.697-4.67 4.28-2.47 2.696 4.67 3.133-1.81M95.187 117.565l4.68 8.106.09-.052c.02-1.216.334-2.275.94-3.173.606-.9 1.31-1.58 2.114-2.044 1.146-.662 2.174-1.047 3.088-1.16.913-.11 1.74-.012 2.48.296.743.31 1.426.81 2.056 1.506.627.695 1.22 1.525 1.777 2.49l5.533 9.58-4.278 2.472-5.08-8.8c-.742-1.284-1.497-2.128-2.264-2.528-.767-.402-1.662-.307-2.686.285-1.165.673-1.81 1.507-1.93 2.502-.123.995.274 2.285 1.19 3.873l4.715 8.166-4.28 2.47-12.423-21.515 4.28-2.47M122.115 125.724c1 .252 2.105.03 3.31-.667.864-.498 1.484-1.144 1.856-1.936.375-.79.494-1.467.355-2.03l3.766-2.175c.478 2.216.326 4.085-.457 5.608-.78 1.524-2.056 2.794-3.823 3.815-1.226.707-2.445 1.15-3.654 1.326-1.21.177-2.366.1-3.467-.23-1.1-.326-2.127-.887-3.08-1.676-.95-.79-1.774-1.787-2.47-2.993-.673-1.165-1.108-2.36-1.307-3.585-.198-1.224-.157-2.407.123-3.545.28-1.14.784-2.2 1.516-3.187.73-.983 1.687-1.818 2.873-2.502 1.326-.766 2.63-1.176 3.91-1.232 1.28-.056 2.486.164 3.616.664 1.134.497 2.16 1.22 3.078 2.16.92.943 1.685 2.04 2.302 3.29l-11.24 6.49c.86 1.353 1.79 2.154 2.795 2.406zm.104-10.99c-.838-.266-1.78-.098-2.824.505-.683.393-1.184.838-1.502 1.33-.318.49-.516.986-.59 1.483-.072.5-.056.97.055 1.417.11.445.24.824.394 1.137l6.96-4.018c-.827-.97-1.66-1.588-2.495-1.855zM130.555 105.06l1.252 2.17.09-.052c.022-1.217.345-2.28.97-3.193.627-.91 1.39-1.626 2.296-2.148 1.145-.66 2.174-1.048 3.087-1.16.913-.112 1.74-.013 2.48.297.742.308 1.426.81 2.055 1.506.628.695 1.22 1.524 1.778 2.487l5.532 9.584-4.278 2.47-5.08-8.797c-.742-1.287-1.497-2.13-2.265-2.53-.766-.4-1.662-.307-2.687.284-1.164.674-1.81 1.508-1.93 2.5-.122.996.275 2.288 1.19 3.874l4.716 8.168-4.28 2.47-8.993-15.58 4.068-2.348" fill="#524739"/><path d="M189.056 109.455c-19.725-11.353-39.38-22.71-58.424-33.76-.02-.01-.084-.05-.104-.06l-.304-.17c-1.368-.768-3.035-.755-4.39.033-19.546 11.336-39.115 22.64-58.69 33.926-1.372.79-2.218 2.253-2.218 3.838l-.01 67.976c0 1.583.846 3.048 2.216 3.84 19.6 11.302 39.195 22.615 58.77 33.96.686.402 1.453.6 2.22.6.78 0 1.56-.205 2.255-.615 2.916-1.722 5.848-3.415 8.782-5.107 2.075-1.196 4.15-2.394 6.222-3.602 2.107-1.23 27.62-15.94 28.634-16.532 5.002-2.893 10.005-5.786 15.015-8.667 1.375-.793 2.224-2.256 2.224-3.84l.023-67.978c0-1.587-.847-3.05-2.22-3.842zm-6.664 69.254c-2.992 1.723-52.08 30.08-54.284 31.365-18.097-10.487-36.21-20.947-54.33-31.397l.01-62.854c18.102-10.44 36.198-20.89 54.274-31.374 17.748 10.295 36.012 20.85 54.35 31.41l-.02 62.85z" fill="#524839"/><path d="M4.895 76.045c.057 47.437.125 94.875.06 142.314 41.088 23.7 82.146 47.454 123.194 71.228 41.044-23.698 82.09-47.4 123.136-71.097-.058-47.438-.126-94.875-.06-142.314C210.136 52.48 169.08 28.72 128.03 4.946L4.896 76.047zm123.622-19.752c26.166 15.162 52.37 30.28 78.595 45.35l-.03 91.292c-6.743 3.872-13.476 7.76-20.207 11.65-13.5-23.352-26.98-46.716-40.462-70.08l-38.53 22.21c13.48 23.365 26.962 46.73 40.46 70.084-6.727 3.918-13.502 7.755-20.208 11.707-26.33-15.24-52.686-30.435-79.052-45.616l.015-91.29c26.333-15.162 52.654-30.343 78.948-45.572l.41.23.06.035z" fill="#F9DF34"/><path d="M128.15 294.16c-.793 0-1.584-.206-2.292-.616-49.707-28.79-87.7-50.757-123.19-71.225-1.416-.82-2.29-2.332-2.286-3.97.06-43.985.007-88.712-.046-131.966L.323 76.05c-.002-1.635.87-3.147 2.287-3.964L125.746.986c1.417-.815 3.16-.815 4.576.004 36.6 21.197 79.858 46.236 123.19 71.227 1.416.818 2.29 2.33 2.288 3.966-.063 43.743-.01 88.22.042 131.233l.015 11.07c.002 1.636-.87 3.148-2.286 3.965l-123.136 71.097c-.706.41-1.495.613-2.285.613zM9.53 215.72c34.292 19.782 71.09 41.058 118.623 68.587l118.556-68.452-.01-8.427c-.05-42.152-.103-85.71-.05-128.612-41.668-24.035-83.163-48.052-118.623-68.59L9.47 78.683l.01 7.692c.05 42.393.105 86.2.05 129.346zm118.605 27.36c-.79 0-1.582-.207-2.29-.617-26.327-15.24-52.68-30.43-79.044-45.608-1.416-.818-2.29-2.328-2.29-3.964l.016-91.292c0-1.634.875-3.145 2.29-3.96C77.66 79.88 102.744 65.4 125.754 52.07c1.404-.81 3.127-.818 4.537-.026l.41.233c.018.008.094.05.108.06 25.51 14.78 51.948 30.035 78.583 45.344 1.42.816 2.294 2.33 2.294 3.966l-.028 91.29c-.002 1.637-.878 3.15-2.297 3.963-6.74 3.87-13.47 7.757-20.2 11.643-2.186 1.267-4.98.516-6.244-1.67-12.737-22.035-25.458-44.078-38.18-66.126l-30.608 17.646c12.717 22.043 25.438 44.084 38.172 66.117 1.26 2.18.52 4.97-1.656 6.238-2.794 1.627-5.597 3.242-8.4 4.856-3.938 2.267-7.875 4.534-11.788 6.84-.715.422-1.52.635-2.32.635zm-74.48-52.832c24.835 14.302 49.66 28.613 74.463 42.968 3.18-1.86 6.372-3.697 9.564-5.536l4.418-2.547c-12.736-22.038-25.458-44.084-38.178-66.132-.606-1.05-.77-2.297-.455-3.47.315-1.17 1.08-2.168 2.132-2.775l38.53-22.21c2.186-1.263 4.982-.512 6.242 1.675 12.72 22.044 25.44 44.086 38.173 66.12 4.654-2.686 9.308-5.374 13.968-8.052l.026-86c-25.234-14.505-50.27-28.952-74.488-42.982-21.82 12.636-45.585 26.355-74.383 42.936l-.015 86.006z" fill="#524839"/></svg>