<svg width="256" height="256" viewBox="0 0 256 256" xmlns="http://www.w3.org/2000/svg" preserveAspectRatio="xMinYMin meet"><path d="M127.997 247.452c-14.063 0-27.287-5.475-37.233-15.426L23.98 165.243C14.025 155.3 8.54 142.073 8.54 128c0-14.073 5.484-27.303 15.444-37.25l66.782-66.78c9.946-9.95 23.165-15.422 37.23-15.422 14.065 0 27.29 5.472 37.238 15.418l66.78 66.788c9.956 9.938 15.447 23.168 15.447 37.245 0 14.076-5.487 27.303-15.45 37.25l-66.78 66.776c-9.945 9.95-23.17 15.426-37.233 15.426z" fill="#F89938"/><path d="M82.24 58.308c0-25.272 20.488-45.76 45.76-45.76 25.275 0 45.76 20.488 45.76 45.76 0 25.275-20.485 45.76-45.76 45.76-25.275.003-45.76-20.485-45.76-45.76" fill="#39F"/><path d="M246.713 159.027C252.75 149.9 256 139.207 256 128.01c0-15.085-5.88-29.26-16.55-39.908l-71.556-71.566-.027.027C157.657 6.336 143.554 0 127.997 0c-15.56 0-29.66 6.34-39.867 16.566l-.024-.027L16.55 88.093C5.877 98.754 0 112.93 0 128.01c0 15.076 5.876 29.25 16.544 39.904l64.522 64.523c2.586 2.903 5.304 5.62 8.17 8.115C99.755 250.52 113.45 256 127.995 256c15.068 0 29.24-5.868 39.895-16.528l69.616-69.614c.176-.173.352-.352.528-.528l1.41-1.408c2.69-2.683 5.073-5.594 7.136-8.684.05-.068.1-.133.152-.2l-.02-.01zM235.12 128.01c0 7.018-2.035 13.717-5.804 19.452-2.26 3.087-4.62 5.784-7.05 8.115l-.175.174c-11.444 10.888-24.376 13.973-35.35 13.973-6.04 0-11.49-.937-15.773-2.018-25.08-6.336-52.345-27.92-64.822-59.397 6.723 2.84 14.107 4.41 21.85 4.41 29.1 0 53.115-22.168 56.056-50.5l40.64 40.64c6.727 6.722 10.43 15.653 10.43 25.15zM128 20.876c19.567 0 35.48 15.92 35.48 35.482 0 19.566-15.915 35.485-35.48 35.485-19.565 0-35.48-15.92-35.48-35.486 0-19.564 15.915-35.483 35.48-35.483zm-96.696 132.28c-6.723-6.718-10.428-15.65-10.428-25.145 0-9.5 3.702-18.43 10.425-25.144L58.796 75.37C51.62 99.8 48.538 125.51 50.19 150.15c.593 8.858 1.817 17.355 3.577 25.465l-22.463-22.46zm47.003-70.24c6.038 47.248 43.437 93.884 87.548 105.032 7.186 1.813 14.232 2.706 21.047 2.706.098 0 .198-.008.295-.008l-34.063 34.067c-6.718 6.712-15.645 10.41-25.138 10.41-6.61 0-12.924-1.83-18.426-5.182l.01-.02c-2.165-1.434-4.23-3.056-6.235-4.773-.157-.154-.325-.28-.48-.435l-6.882-6.884c-14.153-16.248-23.054-40.426-24.968-69.074-1.45-21.678 1.153-44.282 7.292-65.84z" fill="#333"/></svg>