<svg width="256" height="220" viewBox="0 0 256 220" xmlns="http://www.w3.org/2000/svg" preserveAspectRatio="xMinYMin meet"><path d="M245.97 168.943c-13.662 7.12-84.434 36.22-99.5 44.075-15.068 7.856-23.438 7.78-35.34 2.09-11.903-5.69-87.217-36.112-100.784-42.597C3.566 169.27 0 166.536 0 163.95v-25.875s98.05-21.345 113.88-27.024c15.827-5.678 21.32-5.883 34.79-.95 13.47 4.937 94.017 19.47 107.33 24.345l-.006 25.51c.002 2.558-3.07 5.364-10.024 8.988" fill="#912626"/><path d="M245.965 143.22c-13.66 7.118-84.43 36.218-99.498 44.072-15.066 7.857-23.436 7.78-35.338 2.09-11.904-5.686-87.215-36.113-100.78-42.594-13.567-6.485-13.852-10.948-.525-16.166 13.326-5.22 88.224-34.605 104.055-40.284 15.828-5.677 21.32-5.884 34.79-.948 13.47 4.934 83.818 32.935 97.13 37.81 13.315 4.88 13.826 8.9.165 16.02" fill="#C6302B"/><path d="M245.97 127.074c-13.662 7.122-84.434 36.22-99.5 44.078-15.068 7.853-23.438 7.777-35.34 2.087-11.904-5.688-87.217-36.113-100.784-42.598C3.566 127.402 0 124.67 0 122.085v-25.88s98.05-21.343 113.88-27.022c15.827-5.68 21.32-5.885 34.79-.95 13.47 4.935 94.017 19.464 107.33 24.34l-.006 25.514c.002 2.557-3.07 5.363-10.024 8.987" fill="#912626"/><path d="M245.965 101.35c-13.66 7.12-84.43 36.22-99.498 44.076-15.066 7.854-23.436 7.777-35.338 2.087-11.904-5.686-87.215-36.112-100.78-42.594C-3.218 98.435-3.503 93.97 9.824 88.75 23.15 83.535 98.05 54.148 113.88 48.47c15.828-5.678 21.32-5.884 34.79-.95 13.47 4.935 83.818 32.934 97.13 37.81 13.315 4.88 13.826 8.9.165 16.02" fill="#C6302B"/><path d="M245.97 83.653c-13.662 7.12-84.434 36.22-99.5 44.078-15.068 7.855-23.438 7.778-35.34 2.088-11.904-5.687-87.217-36.113-100.784-42.595C3.566 83.98 0 81.247 0 78.665v-25.88s98.05-21.343 113.88-27.02c15.827-5.68 21.32-5.885 34.79-.95 13.47 4.934 94.017 19.463 107.33 24.34l-.006 25.512c.002 2.555-3.07 5.36-10.024 8.986" fill="#912626"/><path d="M245.965 57.93c-13.66 7.12-84.43 36.22-99.498 44.074-15.066 7.854-23.436 7.777-35.338 2.09-11.903-5.69-87.215-36.113-100.78-42.596C-3.218 55.015-3.503 50.55 9.824 45.33 23.15 40.114 98.05 10.73 113.88 5.05c15.828-5.68 21.32-5.884 34.79-.95 13.47 4.936 83.818 32.935 97.13 37.812 13.315 4.876 13.826 8.897.165 16.017" fill="#C6302B"/><path d="M159.283 32.757l-22.01 2.285-4.927 11.856-7.958-13.23-25.415-2.284 18.964-6.84-5.69-10.497 17.755 6.944 16.738-5.48-4.524 10.856 17.067 6.39M131.032 90.275L89.955 73.238l58.86-9.035-17.783 26.072M74.082 39.347c17.375 0 31.46 5.46 31.46 12.194 0 6.737-14.085 12.196-31.46 12.196s-31.46-5.46-31.46-12.195c0-6.733 14.085-12.193 31.46-12.193" fill="#FFF"/><path d="M185.295 35.998l34.836 13.766-34.805 13.753-.03-27.52" fill="#621B1C"/><path d="M146.755 51.243l38.54-15.245.03 27.52-3.78 1.477-34.79-13.752" fill="#9A2928"/></svg>