<svg width="256" height="254" viewBox="0 0 256 254" xmlns="http://www.w3.org/2000/svg" preserveAspectRatio="xMinYMin meet"><path d="M137.452 220.045c-.02-3.128-.525-43.3-13.27-77.868-13.274-35.993-35.77-66.14-35.77-66.14s46.567 28.346 67.938 51.968c18.415 20.353 34.494 52.4 38.59 60.875-4.44 3.278-7.32 8.547-7.32 14.487 0 9.94 8.06 18 17.998 18 9.94 0 17.998-8.06 17.998-18 0-9.635-7.575-17.504-17.095-17.974-2.845-7.268-14.882-35.643-39.146-63.013-28.12-31.72-67.265-52.867-67.265-52.867s42.293 13.498 63.664 22.946c18.97 8.387 50.352 25.814 57.162 29.624-.597 1.79-.92 3.705-.92 5.695 0 9.94 8.058 17.997 17.997 17.997 9.94 0 17.998-8.058 17.998-17.998 0-9.94-8.058-17.998-17.997-17.998-3.787 0-7.3 1.17-10.2 3.168-6.92-4.556-35.234-22.39-77.986-38.713-49.493-18.897-85.937-25.42-85.937-25.42l-6.3 14.172s23.932 15.86 47.553 67.15c21.67 47.056 20.265 82.467 19.885 87.996-8.188 1.688-14.345 8.94-14.345 17.626 0 9.94 8.058 18 17.997 18 9.94 0 17.998-8.06 17.998-18 0-6.753-3.722-12.64-9.226-15.717z" fill="#3D4C67"/><path d="M63.89 51.29c0 9.444-7.654 17.1-17.098 17.1-9.44 0-17.096-7.656-17.096-17.1 0-9.44 7.655-17.096 17.096-17.096 9.444 0 17.098 7.656 17.098 17.097" fill="#F6861A"/><path d="M146.678 18.446c0 9.94-8.06 17.997-17.998 17.997-9.94 0-17.997-8.057-17.997-17.997C110.683 8.508 118.74.45 128.68.45s17.998 8.058 17.998 17.996M223.616 52.19c0 9.94-8.06 17.998-17.998 17.998-9.94 0-17.997-8.057-17.997-17.997 0-9.938 8.06-17.996 17.998-17.996 9.94 0 17.998 8.058 17.998 17.997M68.39 204.717c0 9.94-8.058 17.998-17.998 17.998-9.94 0-17.997-8.058-17.997-17.998 0-9.938 8.058-17.997 17.997-17.997 9.94 0 17.998 8.06 17.998 17.997M35.995 127.78c0 9.94-8.058 17.997-17.998 17.997C8.057 145.777 0 137.72 0 127.78c0-9.94 8.058-17.998 17.997-17.998 9.94 0 17.998 8.06 17.998 17.997" fill="#3D4C67"/></svg>