<svg width="256" height="256" viewBox="0 0 256 256" xmlns="http://www.w3.org/2000/svg" preserveAspectRatio="xMinYMin meet"><path d="M2.206 157.636c2.723 11.652 9.052 22.693 14.712 32.882C22.745 201.008 30 209.25 38.424 217.67c5.683 5.682 11.224 12.852 17.888 17.39 7.58 5.164 15.744 10.207 24.37 13.667 5.65 2.267 12.168 2.123 18.18 3.574 9.683 2.34 19.12 2.905 29.52 2.905 8.36 0 18.55 1.218 26.464-.31 10.085-1.946 19.076-7.767 28.168-11.928 9.423-4.313 18.905-7.042 26.935-13.405 8.052-6.38 13.975-16.402 20.292-24.51 10.802-13.867 19.49-27.995 23.873-45.578 2.484-9.96 1.11-20.382 1.11-31.11 0-9.267-.983-18.977-2.85-27.685-2.484-11.582-4.514-22.582-9.894-32.77-4.15-7.858-10.437-13.886-16.066-20.67-3.566-4.3-6.734-9.706-10.824-13.504-5.068-4.706-10.52-7.662-16.298-11.508-6.022-4.004-12.4-9.533-19.08-12.49-9.64-4.266-19.906-6.706-30.62-8.49-6.9-1.148-13.985-.4-21.21-.4-3.678 0-9.34-.518-12.94-.214-11.108.937-21.38 3.29-31.28 6.878-.65.236-1.978 1.15-2.638 1.397-6.48 2.418-10.69 3.328-16.625 6.717-3.774 2.156-8.1 6.516-11.62 9.03-9.646 6.89-17.042 12.484-24.358 21.643-.545.682-3.104 4.064-3.64 4.765-8.943 11.65-13.236 24.21-17.774 38.528-1.855 5.852-5.32 12.56-6.324 18.74-1.093 6.74-.316 12.982-.316 20.03 0 10.07-.858 19.87 1.338 29.273"/><path d="M188.186 199.353c3.558 3.952-2.28 5.744-4.317 9.3-2.036 3.556 4.782 15.947 13.398 14.882 10.427-1.288 9.454-6.456 11.8-8.568 2.346-2.11 5.11 1.033 10.735-5.838 5.626-6.872.236-12.704-4.09-16.566-4.327-3.863-9.394-.09-13.658 1.456C176.18 171.798 79.872 68.27 72.842 55.754c-1.267-3.472-1.39-2.2 1.787-6.222 3.18-4.024 1.118-9.03-2.393-12.213-4.282-3.883-9.856-3.456-13.073-.56l-5.828 5.25c-3.77 3.392-5.923.136-12.265 5.846-6.34 5.71-1.982 12.915-.087 15.02 1.896 2.104 6.608 8.908 14.07 4.283 2.635-1.634 5.753-3.436 9.46.68 0 0 92.587 92.57 123.673 131.513" fill="#820202"/><path d="M186.707 68.924c-1.214-4.613-.16-5.648-5.347-11.954-3.886-4.722 6.02-19.528 16.5-14.497 10.482 5.032 4.9 8.62 9.31 12.59 4.408 3.97 5.112.48 7.664 4.84 2.552 4.36 1.56 8.464-2.758 12.317-4.318 3.853-7.278 3.568-11.532 2.024-25.816 22.17-124.006 125.604-129.422 139.644 0 0 .766 4.77-2.294 8.17-3.06 3.4-6.783 3.38-10.18.32-3.4-3.058.016-3.575-1.835-7.17-1.852-3.595-9.51 2.787-14.35-1.573-4.843-4.36-7.438-9.56-4.055-15 3.383-5.436 11.972-7.537 16.636-3.338 2.17 1.954 1.576 4.538 3.8 6.543 2.226 2.003 3.973-1.15 4.474-1.707 0 0 92.374-92.357 123.39-131.21"/><path d="M186.707 62.195c-1.215-4.613-.16-5.648-5.347-11.953-3.886-4.724 6.02-19.53 16.5-14.498 10.482 5.032 4.9 8.62 9.31 12.59 4.408 3.97 5.112.48 7.664 4.84 2.552 4.36 1.56 8.463-2.758 12.316-4.318 3.854-7.278 3.568-11.532 2.025C174.728 89.685 76.538 193.12 71.122 207.16c0 0 .766 4.77-2.294 8.17-3.06 3.398-6.783 3.38-10.18.32-3.4-3.058.016-3.575-1.835-7.17-1.852-3.595-9.51 2.787-14.35-1.573-4.843-4.36-7.438-9.562-4.055-15 3.383-5.437 11.972-7.538 16.636-3.34 2.17 1.956 1.576 4.54 3.8 6.544 2.226 2.004 3.973-1.15 4.474-1.706 0 0 92.374-92.358 123.39-131.21" fill="#820202"/><path d="M72.74 99.225c1.293 0 2.504.5 3.634 1.503 1.13 1 2.148 1.922 3.053 2.762.516 1.55 1.324 2.712 2.422 3.488.387.452.774.936 1.162 1.453.387.518.645 1.132.775 1.842.26 0 .517.275.775.824.26.55.485 1.195.678 1.937.194.744.356 1.438.485 2.084.13.646.193 1.066.193 1.26 0 .904-.16 1.906-.484 3.004-.322 1.098-.727 2.197-1.21 3.295-.485 1.1-1.002 2.148-1.552 3.15-.55 1-1.017 1.824-1.404 2.47-.258.452-.598.808-1.017 1.067-.42.258-.823.5-1.21.726-.39.226-.728.533-1.02.92-.29.388-.435.905-.435 1.55 0 .71.194 1.648.582 2.81.387 1.164.872 2.326 1.453 3.49.582 1.162 1.18 2.195 1.793 3.1.614.904 1.115 1.454 1.502 1.647.775.517 1.47 1.163 2.083 1.938.614.775 1.26 1.55 1.938 2.325.678.776 1.405 1.47 2.18 2.084.775.614 1.68 1.017 2.713 1.212.387.128 1 .37 1.84.726.84.355 1.486.76 1.94 1.21.386.388.596.663.628.825.033.16-.016.5-.145 1.018-.194.71-.662 1.227-1.405 1.55-.743.322-1.55.533-2.422.63-.873.097-1.664.13-2.375.097-.71-.033-1.13-.08-1.258-.146-.452-.387-1.05-.58-1.793-.58-.743 0-1.34-.066-1.793-.196-1.744-1.033-2.972-1.872-3.683-2.52-.71-.644-1.55-1.258-2.52-1.84-.386-.194-.87-.532-1.452-1.017-.582-.484-1.212-1.048-1.89-1.695-.678-.645-1.357-1.324-2.035-2.035-.678-.71-1.308-1.356-1.89-1.937-.775-.97-1.437-1.906-1.986-2.81-.548-.905-1.032-1.76-1.452-2.568-.42-.808-.824-1.55-1.21-2.23-.39-.677-.81-1.21-1.262-1.597-.903-.517-1.565-1.003-1.986-1.455-.42-.45-1.082-.677-1.986-.677-.775 0-1.373.242-1.793.726-.418.484-.74 1.05-.967 1.695-.226.647-.372 1.325-.437 2.035-.064.712-.096 1.292-.096 1.745l1.066 4.554v1.94c0 1.55.5 2.713 1.502 3.488 1 .775 2.083 1.42 3.245 1.937 1.164.517 2.245 1.018 3.246 1.502 1 .484 1.502 1.212 1.502 2.18 0 .453-.226.84-.68 1.163-.45.323-.87.484-1.26.484h-3.487l-5.426-.775H45.995c-.193 0-.823-.048-1.89-.146-1.065-.097-2.196-.258-3.39-.484-1.195-.226-2.277-.55-3.246-.97-.97-.42-1.454-.985-1.454-1.695 0-.194.097-.387.29-.582.194-.193.42-.387.68-.58.258-.26.58-.485.968-.68.194 0 .485.033.872.098.388.066.775.13 1.163.194.45.065.935.13 1.452.194h1.94c1.29 0 2.372-.37 3.245-1.114.87-.742 1.308-1.534 1.308-2.374v-25.872l.775-6.977c-.195-.644-.323-1.42-.388-2.323-.065-.905-.177-1.762-.34-2.568-.16-.81-.452-1.535-.87-2.182-.42-.646-1.05-1.066-1.89-1.26h-3.78c-.71 0-1.42-.064-2.132-.193-.71-.13-1.372-.356-1.986-.68-.613-.32-1.114-.774-1.502-1.355-.387-.582-.58-1.357-.58-2.326 0-.193.144-.404.435-.63.29-.226.597-.436.92-.63.39-.258.84-.483 1.357-.678L54.33 100h9.98c.194 0 .55-.032 1.067-.096.516-.064 1.033-.162 1.55-.29.646-.13 1.323-.26 2.035-.39h3.78zm-9.205 9.885c-.258.065-.55.128-.872.193-.323.13-.678.242-1.066.34-.387.096-.807.307-1.26.63-.452 0-.887.21-1.308.63-.42.42-.63 1.082-.63 1.985v7.074c0 .516-.13.986-.388 1.405-.26.42-.388.824-.388 1.21l.388.195c.13.13.227.242.29.34.065.096.098.306.098.63-.194.645-.13 1.243.193 1.792.323.548.775 1.034 1.357 1.453.582.42 1.21.743 1.89.97.678.225 1.243.338 1.695.338l1.744-.775c.516-.193.984-.388 1.405-.58.42-.195.79-.292 1.114-.292l1.937.775c.84 0 1.55-.338 2.13-1.017.583-.678 1.05-1.454 1.407-2.326.354-.872.63-1.712.823-2.52.194-.807.355-1.34.485-1.598L74 117.25c0-.453-.05-.89-.145-1.31-.097-.42-.404-.887-.92-1.404 0-.388-.05-.97-.146-1.745-.098-.774-.405-1.355-.922-1.743-.194 0-.662-.096-1.404-.29-.743-.194-1.55-.42-2.423-.678-.87-.26-1.743-.486-2.616-.68-.87-.194-1.502-.29-1.89-.29z" fill="#820202"/><path d="M143.96 131.413c-.13-.195-.26-.42-.39-.68-.257-.516-.386-.936-.386-1.26v-4.553l-.872-5.426v-1.842c0-.71-.226-1.178-.678-1.404-.452-.226-.937-.405-1.454-.533-.71-.13-1.34-.26-1.89-.387-.548-.13-.823-.517-.823-1.164 0-.58.13-1.146.388-1.695.257-.55.565-1.067.92-1.55.356-.486.76-.874 1.21-1.165.453-.29.874-.436 1.26-.436.906.45 1.81.807 2.714 1.065.775.324 1.646.582 2.615.776.97.194 1.906.292 2.81.292h3.78c.645 0 1.388-.08 2.228-.243.84-.163 1.632-.228 2.374-.195.743.032 1.373.258 1.89.68.516.418.775 1.242.775 2.47.194.646.323 1.26.388 1.84.064.517.08 1.002.048 1.454-.032.45-.178.774-.436.967h-4.652c-.774 0-1.404.405-1.89 1.212-.483.807-.725 1.662-.725 2.567-.323.97-.517 1.744-.582 2.326-.065.58-.032 1.034.097 1.356.064.387.226.678.485.87L152 130.25c.325.516.534 1.05.632 1.598.096.55.21 1.05.338 1.502.065.582.13 1.1.195 1.55 0 .194-.065.485-.195.873-.128.387-.258.807-.387 1.26l-.388 1.355c-.13.453-.194.808-.194 1.067v1.84c0 .26-.03.582-.095.97s-.162.807-.29 1.26l-.39 1.55c0 .453.066.856.196 1.212.13.354.26.694.388 1.017.13.258.193.564.193.92v1.21c0 .906-.063 1.52-.192 1.842-.387.388-.582 1.034-.582 1.94 0 .903-.37 1.823-1.113 2.76-.743.937-1.535 2.147-2.375 3.634 0 .84-.404 1.566-1.21 2.18-.808.614-1.665 1.34-2.57 2.18-.45.516-.806.92-1.065 1.21-.258.292-.5.534-.726.728-.226.194-.484.356-.775.484-.29.13-.695.29-1.212.485-2.13.968-4.23 1.534-6.298 1.696-2.067.16-3.553.242-4.458.242-1.098 0-2.31-.065-3.633-.194-1.323-.128-2.648-.354-3.972-.677-1.325-.323-2.6-.71-3.828-1.163-1.227-.452-2.26-1.033-3.1-1.744l-1.938-2.713c-.517-.71-.97-1.486-1.357-2.326-.387-.84-.743-1.615-1.066-2.325-.388-.84-.744-1.712-1.067-2.617v-6.492c0-.904-.177-1.825-.533-2.762-.355-.935-.532-2.146-.532-3.632v-5.426c.13-.647.29-1.292.484-1.94.13-.516.26-1.032.388-1.55.13-.516.193-.87.193-1.064-.193-.905-.387-1.713-.58-2.423-.324-1.42-.485-2.422-.485-3.004.13-.516.29-1.032.484-1.55.13-.45.26-.872.388-1.26.13-.387.193-.71.193-.968v-5.33c0-.452-.387-.84-1.162-1.162-.775-.323-1.63-.598-2.567-.824-.936-.226-1.776-.452-2.52-.678-.742-.226-1.082-.5-1.017-.824 0-.84.355-1.68 1.066-2.52.71-.84 1.518-1.26 2.422-1.26l4.652-1.065h1.84c.388 0 1.147.177 2.278.533 1.13.355 2.18.532 3.15.532h8.04c.906 0 1.44.194 1.6.582.16.387.243.71.243.97 0 1.42-.194 2.405-.582 2.954-.387.55-.888.906-1.502 1.067-.613.16-1.26.242-1.938.242-.678 0-1.324.145-1.938.435-.613.29-1.114.84-1.502 1.648-.387.807-.58 2.115-.58 3.924 0 .194.03.5.096.92.066.42.146.873.243 1.357.097.485.194.937.29 1.356.098.42.146.728.146.92v23.74c-.388.84-.486 1.374-.29 1.6.192.226.29.598.29 1.115l1.065 2.615c.646.97 1.26 1.744 1.84 2.326.583.582 1.228 1.05 1.94 1.405.71.356 1.55.598 2.52.728.968.13 2.195.193 3.68.193.452 0 1.227-.192 2.326-.58 1.1-.387 2.133-.84 3.102-1.356.193-.453.5-.89.92-1.308.42-.42.92-1 1.503-1.744.58-.743 1.21-1.713 1.89-2.908.678-1.194 1.404-2.793 2.18-4.796v-3.78c0-.45.032-1.29.096-2.52.065-1.226.146-2.518.243-3.875.097-1.356.194-2.63.29-3.827.098-1.195.146-1.986.146-2.373"/><path d="M143.96 121.99c-.13-.192-.26-.418-.39-.677-.257-.517-.386-.936-.386-1.26V115.5l-.872-5.427v-1.84c0-.712-.226-1.18-.678-1.406-.452-.226-.937-.404-1.454-.533-.71-.13-1.34-.258-1.89-.388-.548-.13-.823-.517-.823-1.162 0-.582.13-1.147.388-1.696.257-.55.565-1.066.92-1.55.356-.485.76-.872 1.21-1.163.453-.29.874-.436 1.26-.436.906.45 1.81.807 2.714 1.065.775.322 1.646.58 2.615.775.97.194 1.906.29 2.81.29h3.78c.645 0 1.388-.08 2.228-.242.84-.16 1.632-.226 2.374-.194.743.033 1.373.26 1.89.678.516.42.775 1.245.775 2.472.194.645.323 1.26.388 1.84.064.518.08 1.002.048 1.454-.032.452-.178.775-.436.97h-4.652c-.774 0-1.404.403-1.89 1.21-.483.808-.725 1.664-.725 2.568-.323.97-.517 1.745-.582 2.325-.065.583-.032 1.035.097 1.358.064.388.226.678.485.873L152 120.83c.325.516.534 1.05.632 1.598.096.55.21 1.05.338 1.502.065.58.13 1.098.195 1.55 0 .194-.065.484-.195.87-.128.39-.258.81-.387 1.262l-.388 1.356c-.13.452-.194.808-.194 1.066v1.84c0 .26-.03.583-.095.97-.065.388-.162.808-.29 1.26l-.39 1.55c0 .452.066.856.196 1.21.13.357.26.696.388 1.018.13.26.193.566.193.922v1.21c0 .905-.063 1.52-.192 1.842-.387.387-.582 1.033-.582 1.937 0 .905-.37 1.825-1.113 2.763-.743.936-1.535 2.147-2.375 3.633 0 .84-.404 1.565-1.21 2.18-.808.612-1.665 1.34-2.57 2.18-.45.516-.806.92-1.065 1.21-.258.29-.5.533-.726.728-.226.193-.484.354-.775.484-.29.13-.695.29-1.212.484-2.13.97-4.23 1.535-6.298 1.696-2.067.162-3.553.242-4.458.242-1.098 0-2.31-.064-3.633-.194-1.323-.128-2.648-.354-3.972-.678-1.325-.323-2.6-.71-3.828-1.163-1.227-.453-2.26-1.035-3.1-1.745l-1.938-2.713c-.517-.71-.97-1.485-1.357-2.325-.387-.84-.743-1.616-1.066-2.326-.388-.84-.744-1.71-1.067-2.615v-6.493c0-.904-.177-1.824-.533-2.76-.355-.938-.532-2.15-.532-3.635v-5.426c.13-.645.29-1.29.484-1.937.13-.517.26-1.034.388-1.55.13-.517.193-.872.193-1.067-.193-.904-.387-1.71-.58-2.422-.324-1.42-.485-2.422-.485-3.003.13-.516.29-1.033.484-1.55.13-.453.26-.872.388-1.26.13-.387.193-.71.193-.97v-5.328c0-.452-.387-.84-1.162-1.162-.775-.324-1.63-.598-2.567-.824-.936-.226-1.776-.452-2.52-.678-.742-.226-1.082-.5-1.017-.824 0-.84.355-1.68 1.066-2.52.71-.84 1.518-1.26 2.422-1.26l4.652-1.065h1.84c.388 0 1.147.176 2.278.532 1.13.355 2.18.533 3.15.533h8.04c.906 0 1.44.194 1.6.58.16.39.243.712.243.97 0 1.42-.194 2.406-.582 2.955-.387.55-.888.904-1.502 1.066-.613.162-1.26.243-1.938.243-.678 0-1.324.144-1.938.434-.613.29-1.114.84-1.502 1.648-.387.808-.58 2.115-.58 3.924 0 .194.03.5.096.92.066.42.146.872.243 1.358.097.484.194.936.29 1.356.098.42.146.726.146.92v23.74c-.388.84-.486 1.374-.29 1.6.192.226.29.596.29 1.113l1.065 2.617c.646.97 1.26 1.744 1.84 2.325.583.582 1.228 1.05 1.94 1.406.71.356 1.55.598 2.52.728.968.128 2.195.193 3.68.193.452 0 1.227-.192 2.326-.58 1.1-.388 2.133-.84 3.102-1.357.193-.452.5-.888.92-1.308.42-.42.92-1 1.503-1.745.58-.742 1.21-1.71 1.89-2.906.678-1.196 1.404-2.794 2.18-4.796v-3.78c0-.452.032-1.292.096-2.52.065-1.226.146-2.518.243-3.875.097-1.356.194-2.632.29-3.828.098-1.194.146-1.986.146-2.374M234.644 98.96c2.198 0 3.65.613 4.36 1.84.712 1.227 1.067 2.52 1.067 3.876 0 .194-.144.485-.435.873-.29.386-.646.774-1.066 1.16-.42.39-.84.728-1.26 1.02-.42.29-.76.434-1.018.434h-1.648c-.45 0-.838.033-1.162.098-.84.13-1.42.355-1.744.678-.968 0-1.696.21-2.18.63-.485.42-.856.952-1.114 1.6-.258.644-.404 1.355-.437 2.13-.032.775-.047 1.486-.047 2.132V128.9c0 .712.096 1.26.29 1.648.194.388.355.743.485 1.066.322.387.5.775.532 1.163.032.388.048.807.048 1.26l-.29 3.197c0 .904.13 1.793.388 2.665.258.87.387 1.5.387 1.888l1.163 2.714v2.713c0 1.162.566 1.97 1.695 2.422 1.13.453 2.358.823 3.683 1.114 1.325.292 2.553.615 3.682.97 1.13.356 1.697 1.018 1.697 1.987 0 1.938-.906 2.907-2.715 2.907h-3.488c-.452 0-.936.016-1.453.048-.517.033-1.034.21-1.55.533l-8.043-.58h-4.553c-.194 0-.647.03-1.357.096s-1.47.13-2.277.194c-.808.065-1.567.13-2.277.194-.71.065-1.163.097-1.357.097-.97 0-1.664-.065-2.085-.193-.42-.13-.63-.614-.63-1.455 0-.903.243-1.888.728-2.954.484-1.066 1.405-1.6 2.76-1.6h5.62c.454 0 .825-.144 1.116-.435.29-.29.483-.647.58-1.066.097-.42.16-.84.194-1.26.032-.42.05-.76.05-1.017 0-.84-.18-1.842-.534-3.004-.356-1.162-.533-1.97-.533-2.422v-9.108c0-.258-.05-.695-.145-1.308-.098-.614-.244-1.227-.437-1.84-.194-.615-.403-1.148-.63-1.6-.225-.452-.468-.678-.726-.678-.13 0-.405.274-.825.824-.42.55-.905 1.26-1.454 2.13-.547.873-1.16 1.842-1.84 2.908-.678 1.066-1.324 2.116-1.938 3.15-.613 1.033-1.178 1.97-1.695 2.81-.517.838-.905 1.485-1.163 1.937-.517.388-.953.905-1.31 1.55-.353.647-.66 1.31-.92 1.987-.257.68-.483 1.357-.677 2.034-.194.68-.388 1.245-.58 1.697-.518.905-1.02 1.696-1.503 2.375-.485.678-.89 1.243-1.21 1.695-.518 1.1-.874 1.728-1.067 1.89-.195.16-.55.243-1.066.243-.774 0-1.275-.26-1.5-.776-.227-.517-.63-1.26-1.213-2.23l-.774-5.91c-.453-1.162-.97-2.357-1.55-3.585-.582-1.227-1.115-2.47-1.6-3.73-.484-1.26-.888-2.503-1.21-3.73-.324-1.23-.486-2.39-.486-3.49v-1.065c0-.26-.096-.695-.29-1.31-.194-.612-.42-1.226-.68-1.84-.257-.613-.548-1.146-.87-1.598-.324-.453-.614-.68-.873-.68-.193 0-.452.29-.775.873-.324.58-.63 1.26-.92 2.034-.292.776-.534 1.567-.728 2.375-.194.807-.29 1.404-.29 1.792v6.686c-.26 1.68-.517 3.197-.776 4.554-.194 1.163-.372 2.294-.533 3.392-.162 1.097-.242 1.776-.242 2.035 0 1.81.323 3.037.97 3.682.645.647 1.357 1.066 2.132 1.26.775.194 1.485.388 2.13.582.648.193.97.775.97 1.743 0 .712-.145 1.245-.436 1.6-.29.355-.63.614-1.017.775-.388.16-.777.258-1.164.29-.388.033-.68.05-.872.05h-3.78l-9.204-1.648h-3.49c-.193.13-.42.226-.677.29-.387.194-.808.29-1.26.29h-1.84c-.195 0-.485-.03-.872-.096-.388-.064-.775-.177-1.163-.34-.387-.16-.726-.338-1.017-.532-.29-.194-.436-.42-.436-.68 0-.644.242-1.21.727-1.694s1.034-.89 1.648-1.21c.613-.324 1.21-.55 1.793-.68.582-.128.97-.193 1.163-.193h1.938c.195 0 .582-.034 1.164-.098s1.195-.162 1.84-.29c.712-.13 1.52-.26 2.423-.388.452-.452.905-1.244 1.357-2.375.452-1.13.84-2.294 1.162-3.49.324-1.193.598-2.292.824-3.293.226-1 .34-1.632.34-1.89v-4.554c.193-.194.355-.5.484-.92.13-.42.226-.856.29-1.308.066-.517.097-1.034.097-1.55v-4.36c0-.26.05-.648.147-1.165.097-.516.21-1.033.34-1.55.193-.58.387-1.195.58-1.84v-2.714c.13-.387.26-.775.388-1.162.13-.324.226-.68.29-1.066.065-.387.097-.808.097-1.26v-2.132c0-.194-.096-.63-.29-1.308-.194-.678-.42-1.372-.678-2.083-.26-.84-.55-1.777-.873-2.81-.32-.453-.774-.872-1.355-1.26-.58-.387-1.13-.776-1.647-1.163-.387-.323-.856-.63-1.405-.92-.55-.29-.985-.727-1.308-1.308v-1.066c0-.388.16-.68.484-.873.323-.193.71-.354 1.162-.484.453-.128 1-.192 1.647-.192h2.42c.648 0 1.116-.05 1.407-.146.29-.097.5-.226.63-.387.13-.162.226-.29.29-.39.065-.095.194-.143.388-.143h6.395l2.713 1.066c.646 1.68 1.34 3.73 2.084 6.153.742 2.423 1.5 4.99 2.276 7.704.776 2.713 1.535 5.41 2.277 8.09.743 2.682 1.455 5.088 2.132 7.22.678 2.132 1.276 3.86 1.793 5.184.517 1.324.937 1.986 1.26 1.986.13-.323.29-.614.484-.872.13-.26.306-.533.532-.823.226-.292.436-.534.63-.73.97-3.293 2.277-6.716 3.924-10.27 1.648-3.553 3.117-6.943 4.41-10.174 0-1.356.404-2.536 1.21-3.537.808-1.002 1.664-2.18 2.568-3.537.195-.452.323-1.05.388-1.793.065-.743.178-1.485.34-2.228.16-.744.435-1.438.823-2.084.388-.646 1.033-1.098 1.938-1.356h3.78l1.356.775c.903 0 1.743-.08 2.518-.242.775-.162 1.518-.34 2.228-.533.71-.26 1.453-.55 2.228-.873" fill="#820202"/></svg>