<svg width="256" height="256" viewBox="0 0 256 256" xmlns="http://www.w3.org/2000/svg" preserveAspectRatio="xMinYMin meet"><path d="M255.68 119.882c-2.266-38.19-22.948-75.106-54.428-96.758C169.92 1.068 128.288-5.956 91.684 5.294 54.708 16.1 23.626 44.153 9.44 79.858c-14.732 35.638-12.092 77.327 7.023 110.824 18.586 33.627 52.963 57.53 91.005 63.58 37.735 6.537 78.137-5.69 106.437-31.524 28.495-25.452 44.352-64.688 41.776-102.858zm-33.178 74.19l-30.91-21.628c4.542-6.297 7.806-13.416 10.273-20.73l-11.972-3.848c-2.867 9.29-8.05 17.85-14.794 24.888l36.483 34.626c-2.035 2.027-3.92 4.212-6.13 6.05-19.044 17.56-44.487 27.966-70.204 29.73l-2.386-37.648c7.73-.66 15.36-2.22 22.64-4.882l-4.454-11.76c-9.092 3.38-19.022 4.712-28.728 3.884l-4.278 50.117c-2.863-.297-5.748-.4-8.57-1.02-25.725-3.97-49.567-17.315-66.973-36.366l27.932-25.357c5.27 5.67 11.267 10.677 17.914 14.676l6.42-10.812c-8.342-5.033-15.57-11.922-20.99-20.002l-41.858 27.89c-1.706-2.32-3.077-4.86-4.497-7.366-12.932-22.615-17.432-49.467-13.34-75.008l37.24 6.02c-1.048 7.632-1.516 15.48-.236 23.147l12.456-1.72c-1.313-9.69-.477-19.61 2.467-28.857l-47.89-15.388c.753-2.79 1.903-5.436 2.97-8.11 9.648-24.083 27.657-44.53 50.328-57.143l18.51 32.873C83.162 64.078 76.93 68.85 71.676 74.55l9.122 8.655c6.723-7.053 14.97-12.642 24.045-16.114l-17.82-47.035 8.216-2.702c24.823-7.282 52.028-6.208 76.094 3.766l-14.21 34.944c-7.137-2.977-14.755-4.84-22.478-5.388l-1.07 12.53c9.68.835 19.166 3.788 27.554 8.762l25.686-43.246 7.226 4.706c21.094 14.86 37.344 36.827 44.535 61.845l-36.185 10.67c-2.037-7.485-5.634-14.45-9.804-20.943l-10.464 6.974c5.486 8.05 8.974 17.365 10.236 27.037l49.825-6.882.945 8.55c1.497 25.734-5.612 52.29-20.628 73.393z"/><path d="M180.384 124.657c-.972-11.817-5.458-23.185-13.537-31.92l27.93-25.357c6.14 6.6 10.983 14.307 14.89 22.394l11.388-5.33c-6.427-14.01-16.2-26.378-28.123-36.052L161.114 87.35c-1.064-.768-1.97-1.758-3.117-2.405-9.685-6.912-21.526-9.93-33.372-9.4L122.24 37.9c8.986-.4 18.016.29 26.807 2.308l2.936-12.23c-15.02-3.534-30.704-3.648-45.725-.425l10.574 49.176c-1.26.327-2.597.41-3.802.932-11.31 3.174-21.26 10.675-28.117 20.272l-30.91-21.627c5.23-7.31 11.413-13.947 18.487-19.525l-7.737-9.915c-12.08 9.513-22.005 21.69-28.876 35.45l45.046 22.382c-.702 1.116-1.093 2.372-1.59 3.58-4.584 10.775-4.98 23.32-1.706 34.623L41.443 153.57c-2.36-8.656-3.984-17.617-3.67-26.625L25.2 126.81c-.15 15.325 3.13 30.735 9.642 44.7l45.56-21.31c.427 1.24 1.183 2.32 1.807 3.465 5.653 10.304 15.097 18.623 26.03 22.93l-14.206 34.948c-8.346-3.343-16.22-7.937-23.117-13.718l-7.954 9.74c11.9 9.697 25.97 16.792 40.954 20.415l11.737-48.91 3.846.71c11.63 1.82 24.02-.158 34.135-6.062l18.506 32.87c-7.802 4.475-16.324 7.745-25.146 9.525l2.643 12.293c15.03-3.23 29.383-9.847 41.504-19.312l-30.94-39.657 2.99-2.56c8.654-8.014 14.84-18.83 16.56-30.452l37.242 6.02c-1.277 8.932-4.356 17.514-8.234 25.604l11.26 5.594c6.948-13.727 10.6-29.14 10.68-44.498l-50.297-.535-.016-3.953zm-25.644 32.908c-8.866 7.954-21.272 11.936-33.232 9.8-11.62-1.846-22.655-9.334-28.342-19.865-5.96-10.165-6.812-23.65-2.185-34.488 4.312-11.17 14.313-19.99 25.606-23.292 11.597-3.625 24.403-1.244 34.202 5.53 9.97 6.946 16.19 18.17 17.044 30.203.674 12.043-4.078 23.96-13.092 32.112z"/></svg>