<svg width="256" height="230" viewBox="0 0 256 230" xmlns="http://www.w3.org/2000/svg" preserveAspectRatio="xMinYMin meet"><path d="M251.22 187.856c5.785 10.045 6.345 20.608 1.538 28.958-4.8 8.357-14.192 13.143-25.768 13.143h-21.816c.26-4.068.43-8.17.43-12.302 0-4.628-.214-9.198-.53-13.754l14.35-.013c3.528 0 6.38-2.867 6.38-6.403 0-1.106-.28-2.134-.768-3.053l-91.46-158.97c-1.085-1.932-3.162-3.24-5.54-3.24-2.314 0-4.34 1.237-5.46 3.09l-14.523 25.244c44.134 33.27 73.804 84.813 77.864 143.333.316 4.548.53 9.12.53 13.753 0 4.132-.17 8.228-.423 12.302h-71.246c.388-4.053.61-8.148.61-12.302 0-4.65-.272-9.233-.775-13.753-3.52-32.206-19.286-60.748-42.503-80.89l-10.003 17.376c17.54 16.325 29.512 38.558 32.767 63.514.59 4.505.92 9.09.92 13.753 0 4.154-.273 8.264-.74 12.302H29.01c-11.576 0-20.968-4.793-25.768-13.15-4.807-8.35-4.247-18.905 1.538-28.958l13.56-23.238c7.774 4.174 14.76 9.614 20.715 16.052l-8.083 13.768c-.482.913-.77 1.947-.77 3.054 0 3.535 2.853 6.395 6.382 6.395l32.033.015c-2.687-15.356-9.772-29.21-19.918-40.183-5.98-6.445-12.964-11.9-20.74-16.074l35.77-62.15c7.618 4.262 14.825 9.148 21.565 14.624 30.827 25.013 51.644 61.955 55.416 103.776h19.173c-3.91-48.892-28.477-92.006-64.937-120.548-6.834-5.346-14.07-10.19-21.672-14.457l30.532-53.045C109.583 5.77 118.42 0 128.036 0c9.607 0 18.438 5.77 24.223 15.823l98.96 172.033z" fill="#FB2D26"/></svg>