<svg width="256" height="425" viewBox="0 0 256 425" xmlns="http://www.w3.org/2000/svg" preserveAspectRatio="xMinYMin meet"><defs><linearGradient x1="50%" y1="-352.926%" x2="50%" y2="96.718%" id="a"><stop stop-color="#002E3B" offset="0%"/><stop stop-color="#002639" offset="100%"/></linearGradient><linearGradient x1="50%" y1="-2.808%" x2="50%" y2="428.759%" id="b"><stop stop-color="#002E3B" offset="0%"/><stop stop-color="#002639" offset="100%"/></linearGradient><radialGradient cx="16.423%" cy="143%" fx="16.423%" fy="143%" r="295.571%" id="c"><stop stop-color="#00BC85" offset="0%"/><stop stop-color="#149D91" offset="100%"/></radialGradient><radialGradient cx="16.423%" cy="-43%" fx="16.423%" fy="-43%" r="357.004%" id="d"><stop stop-color="#00BC85" offset="0%"/><stop stop-color="#149D91" offset="100%"/></radialGradient><radialGradient cx="11.467%" cy="-40.458%" fx="11.467%" fy="-40.458%" r="343.189%" id="e"><stop stop-color="#004473" offset="0%"/><stop stop-color="#00345F" offset="100%"/></radialGradient></defs><path d="M65.7 330.3L.107 362.385l127.292 62 127.64-62.194-65.76-32.54-61.928 30.755L65.7 330.3z" fill="url(#a)"/><path d="M57.602 98.175v-.02l69.93-34.107 69.934 34.106L255.004 62.2 127.484 0 0 62.18v.055L57.554 98.2l.048-.025z" fill="url(#b)"/><path d="M.156 298.428l62.915-30.803 64.715 32.042L.155 362.462v-64.034z" fill="url(#c)"/><path d="M196.678 99.41v100.768l-70.342 34.424 64.686 32.34 62.98-30.798V62.19l-57.324 35.977v1.243z" fill="url(#d)"/><path d="M255.004 298.216L57.59 199.966V98.182L0 62.23v173.702l255.004 126.32v-64.036z" fill="url(#e)"/></svg>