<svg width="256" height="256" viewBox="0 0 256 256" xmlns="http://www.w3.org/2000/svg" preserveAspectRatio="xMinYMin meet"><path d="M96.447 7.382c32.267-8.275 67.93-3.453 96.386 14.11 35.84 21.433 59.238 61.976 59.833 103.71 1.31 42.15-20.66 83.944-55.963 106.865-39.293 26.433-93.648 27.446-133.775 2.322-40.9-24.41-64.774-73.646-58.64-120.917 4.94-49.95 43.52-94.005 92.16-106.09z" fill="#010101"/><path d="M91.505 27.803c60.964-24.41 135.74 20.658 142.05 86.028 9.824 58.82-38.995 118.594-98.59 120.32-56.677 5.657-111.45-42.388-113.056-99.303-4.228-46.08 26.135-91.803 69.595-107.044z" fill="#FFF"/><path d="M97.637 121.69c27.327-22.326 54.058-45.426 81.98-67.097-14.646 22.505-29.708 44.71-44.354 67.215-12.562.06-25.123.06-37.626-.12zM120.737 134.132c12.62 0 25.183 0 37.745.18-27.505 22.205-54.117 45.483-82.1 67.095 14.647-22.505 29.71-44.77 44.355-67.275z" fill="#010101"/></svg>