<svg width="256" height="254" viewBox="0 0 256 254" xmlns="http://www.w3.org/2000/svg" preserveAspectRatio="xMinYMin meet"><g fill="#6DB33F"><path d="M244.896 54.567L74.628 1.61c-8.23-2.56-17.08 2.028-19.66 10.196L1.6 180.754c-2.58 8.17 2.045 16.947 10.277 19.507l170.27 52.958c8.23 2.56 17.077-2.028 19.657-10.196l53.37-168.95c2.58-8.167-2.044-16.945-10.276-19.505zM81.598 180.537c0 7.217-5.95 13.123-13.226 13.123h-.05c-7.272 0-13.224-5.906-13.224-13.124V113.29c0-7.22 5.952-13.124 13.225-13.124h.05c7.274 0 13.225 5.905 13.225 13.123v67.246zm-13.25-93.292c-7.348 0-13.305-5.91-13.305-13.2 0-7.292 5.957-13.203 13.305-13.203 7.347 0 13.304 5.91 13.304 13.202 0 7.29-5.957 13.2-13.304 13.2zm84.263 106.37c-33.116 0-59.916-27.194-59.916-60.054s26.847-59.498 59.965-59.498c17.054 0 32.447 7.065 43.365 18.408l6.405-11.245c6.57 17.583 10.846 38.124 10.846 52.22 0 32.86-27.548 60.17-60.665 60.17z"/><path d="M129.955 174.32c6.436-2.004 13.297-4.112 19.036-5.95 22.66-7.26 42.14-25.54 47.29-48.5-4.098 10.8-20.833 31.9-47.043 40.306-8.41 2.646-17.132 4.32-25.745 6.295-1.107.255-2.624-.028-3.596-.628-5.52-3.406-8.495-9.5-8.964-15.647-1.265-16.54 10.057-30.04 26.89-33.536 7.067-1.47 14.345-1.087 21.565-1.854 19.07-1.99 36.997-15.54 42.412-26.866 0 0 .97 2.207 1.18 2.857 4.093 12.723 7.356 25.614 7.674 39.06.17 7.263-.63 14.412-3.218 21.273-5.203 13.79-15.824 20.784-30.014 22.43-8.296.962-16.74.75-25.118.91-6.8.13-14.67-.15-22.35-.15M121.522 175.013c0 2.804-2.29 5.076-5.116 5.076-2.826 0-5.116-2.273-5.116-5.077s2.29-5.077 5.116-5.077c2.826 0 5.116 2.273 5.116 5.077"/></g></svg>