<svg width="512" height="114" viewBox="0 0 512 114" xmlns="http://www.w3.org/2000/svg" preserveAspectRatio="xMinYMin meet"><g fill="#0A0B09"><path d="M112.963 105.623c-6.248 0-11.14-1.43-15.204-5.343l3.61-3.613c2.937 3.085 6.926 4.29 11.518 4.29 6.096 0 9.86-2.183 9.86-6.55 0-3.235-1.883-5.04-6.173-5.418l-6.096-.527c-7.227-.603-11.065-3.84-11.065-9.935 0-6.774 5.72-10.838 13.623-10.838 5.268 0 10.01 1.28 13.322 3.988l-3.538 3.537c-2.634-2.03-6.02-2.935-9.86-2.935-5.42 0-8.28 2.334-8.28 6.097 0 3.16 1.807 5.043 6.474 5.42l5.946.526c6.473.602 10.913 3.085 10.913 10.01 0 7.15-6.096 11.29-15.052 11.29M144.495 105.172c-6.323 0-9.484-4.442-9.484-9.935v-22.73h-4.665v-4.14h4.666v-11.59h5.42v11.59h7.903v4.14h-7.903v22.58c0 3.386 1.58 5.418 5.043 5.418h2.86v4.667h-3.838M176.36 88.086H165.97c-5.57 0-8.28 2.26-8.28 6.548 0 4.29 2.635 6.323 8.506 6.323 3.16 0 5.945-.227 8.28-2.484 1.278-1.204 1.88-3.312 1.88-6.398v-3.99zm0 17.086v-3.538c-3.012 3.01-5.722 3.99-10.69 3.99-5.117 0-8.128-.98-10.462-3.387-1.805-1.808-2.784-4.592-2.784-7.528 0-6.473 4.516-10.69 12.795-10.69h11.14v-3.536c0-5.418-2.71-8.128-9.485-8.128-4.74 0-7.15 1.13-9.333 4.215l-3.688-3.386c3.312-4.29 7.075-5.494 13.097-5.494 9.935 0 14.827 4.29 14.827 12.342v25.14h-5.418zM203.002 105.623c-9.333 0-16.408-6.323-16.408-18.967 0-12.644 7.075-18.966 16.408-18.966 5.118 0 8.354 1.354 12.192 5.494l-3.687 3.462c-2.785-3.086-4.968-4.14-8.505-4.14-3.613 0-6.623 1.43-8.58 4.216-1.73 2.408-2.41 5.27-2.41 9.934 0 4.666.68 7.527 2.41 9.935 1.957 2.786 4.967 4.216 8.58 4.216 3.537 0 5.72-1.13 8.505-4.215l3.687 3.54c-3.838 4.137-7.074 5.493-12.192 5.493M244.86 105.172l-11.74-18.968-7.226 8.28v10.688h-5.42v-53.59h5.42v35.826l16.71-19.267h6.773l-12.57 14.15 14.752 22.882h-6.7M273.417 77.59c-1.07-1.07-2.497-1.64-4.35-1.64-1.856 0-3.21.57-4.28 1.64-1.928 1.926-2.142 5.135-2.142 8.988 0 3.852.214 7.133 2.14 9.058 1.07 1.07 2.426 1.64 4.28 1.64 1.855 0 3.282-.57 4.352-1.64 1.925-1.925 2.14-5.206 2.14-9.058 0-3.853-.215-7.062-2.14-8.988zm7.204 23.468c-2.282 2.425-6.062 4.565-11.554 4.565-5.493 0-9.202-2.14-11.485-4.565-3.35-3.495-4.207-7.705-4.207-14.48 0-6.705.856-10.914 4.208-14.41 2.284-2.425 5.993-4.565 11.486-4.565 5.492 0 9.272 2.14 11.555 4.565 3.354 3.496 4.21 7.705 4.21 14.41 0 6.775-.856 10.985-4.21 14.48zM305.67 105.195h-7.275L284.7 68.03h9.77L302.034 91l7.49-22.97h9.77l-13.622 37.165M341.276 79.16c-.998-2.212-3.067-3.853-6.207-3.853-3.138 0-5.208 1.64-6.205 3.852-.572 1.354-.786 2.352-.857 3.994h14.124c-.072-1.642-.285-2.64-.856-3.995zM328.008 89.5c0 4.78 2.925 8.274 8.132 8.274 4.066 0 6.063-1.14 8.418-3.495l5.635 5.493c-3.78 3.78-7.42 5.85-14.124 5.85-8.775 0-17.192-3.994-17.192-19.045 0-12.127 6.562-18.975 16.19-18.975 10.345 0 16.194 7.56 16.194 17.762v4.137h-23.254zM376.068 78.16c-1.427-1.427-2.64-2.21-4.92-2.21-2.855 0-5.994 2.14-5.994 6.847v22.398h-9.273V68.03h9.06V71.6c1.783-2.14 5.35-3.995 9.345-3.995 3.638 0 6.205.927 8.774 3.496l-6.992 7.06M420.844 105.195c-7.632 0-10.842-5.35-10.842-10.63v-41.74h9.273v41.17c0 2.212.927 3.353 3.28 3.353h3.567v7.847h-5.278zm-22.1-30.087v30.087h-9.273V75.108h-3.85v-7.06h3.85V63.41c0-5.278 3.282-10.628 10.843-10.628h5.28v7.846h-3.568c-2.21 0-3.28 1.213-3.28 3.353v4.067h6.847v7.06h-6.847zM447.497 77.59c-1.07-1.07-2.497-1.64-4.352-1.64-1.854 0-3.21.57-4.28 1.64-1.926 1.926-2.14 5.135-2.14 8.988 0 3.852.214 7.133 2.14 9.058 1.07 1.07 2.426 1.64 4.28 1.64 1.855 0 3.282-.57 4.352-1.64 1.925-1.925 2.14-5.206 2.14-9.058 0-3.853-.215-7.062-2.14-8.988zm7.204 23.468c-2.282 2.425-6.063 4.565-11.555 4.565s-9.2-2.14-11.484-4.565c-3.35-3.495-4.208-7.705-4.208-14.48 0-6.705.857-10.914 4.21-14.41 2.282-2.425 5.99-4.565 11.483-4.565 5.492 0 9.273 2.14 11.556 4.565 3.354 3.496 4.21 7.705 4.21 14.41 0 6.775-.856 10.985-4.21 14.48zM500.524 105.195h-7.632l-7.775-23.325-7.775 23.325h-7.632L458.297 68.03h9.844L474.133 91l7.562-22.97h6.775L496.1 91l5.992-22.97h9.772l-11.342 37.165"/></g><path d="M63.277 73.175L19.852 62.643l2.107-8.685L65.383 64.49l-2.107 8.685" fill="#B58F52"/><path d="M66.188 62.785l-39.79-20.332 4.066-7.96 39.79 20.334-4.066 7.958" fill="#C78431"/><path d="M72.317 52.022l-33.65-29.4 5.88-6.73 33.65 29.4-5.88 6.73" fill="#E9812C"/><path d="M81.575 42.56L56.48 5.59l7.396-5.02L88.97 37.543l-7.395 5.02" fill="#E5712A"/><path d="M62.582 84.038l-44.618-2.436.487-8.924 44.62 2.436-.488 8.924" fill="#9D8469"/><path d="M71.833 105.06V68.034h8.93l.005 45.962H0l.002-46H8.94v37.062h62.893" fill="#797B7B"/><path d="M17.84 87.22h44.988v8.937H17.84V87.22z" fill="#797B7B"/></svg>