<svg width="256" height="253" viewBox="0 0 256 253" xmlns="http://www.w3.org/2000/svg" preserveAspectRatio="xMinYMin meet"><g fill="#264970"><path d="M156.487 127.66c0-16.48-13.353-29.84-29.833-29.84-16.482 0-29.834 13.36-29.837 29.84 0 16.472 13.35 29.83 29.837 29.83 16.478 0 29.833-13.358 29.833-29.83M223.534 200.71l-15.514-8.956c-1.953-1.13-4.428-.727-5.928.958-19.092 21.48-46.447 33.803-75.05 33.808-28.61 0-55.964-12.322-75.056-33.806-1.5-1.685-3.977-2.088-5.93-.958l-15.514 8.958c-1.217.7-2.06 1.907-2.305 3.29-.244 1.38.136 2.803 1.04 3.878 24.36 29.073 59.994 45.747 97.766 45.747 37.766-.006 73.398-16.683 97.757-45.75.903-1.077 1.283-2.497 1.038-3.88-.244-1.383-1.088-2.59-2.304-3.29"/><path d="M142.488 201.877c.376 0 .755-.04 1.13-.127 34.394-7.68 59.36-38.823 59.36-74.052 0-7.74-1.172-15.387-3.48-22.73-.473-1.497-1.6-2.704-3.066-3.275-1.463-.57-3.11-.442-4.473.342l-9.253 5.34c-2.04 1.178-3.028 3.583-2.41 5.853 1.29 4.73 1.94 9.598 1.94 14.47 0 24.998-16.89 46.924-41.075 53.32-2.274.603-3.86 2.66-3.86 5.015v10.658c0 1.573.718 3.063 1.943 4.047.93.744 2.075 1.14 3.243 1.14M127.613 50.292c-21.125 0-41.472 8.953-55.833 24.57-1.065 1.162-1.547 2.74-1.308 4.298.238 1.556 1.17 2.918 2.532 3.705l9.232 5.332c.81.465 1.704.693 2.59.693 1.348 0 2.682-.526 3.68-1.533 10.45-10.518 24.337-16.312 39.107-16.312s28.66 5.793 39.11 16.31c1.657 1.667 4.232 2.013 6.267.838l9.237-5.33c1.36-.788 2.293-2.15 2.53-3.707.24-1.558-.244-3.135-1.31-4.297C169.09 59.242 148.74 50.29 127.613 50.29"/><path d="M32.266 158.405c-3.422-10.252-5.157-20.916-5.157-31.692.007-47.497 33.76-88.897 80.25-98.42 2.213-.45 3.8-2.398 3.8-4.655V5.758c0-1.402-.62-2.734-1.694-3.636-1.074-.904-2.493-1.292-3.874-1.045C44.42 11.74.012 64.57 0 126.71c0 15.046 2.61 29.785 7.756 43.81.482 1.316 1.523 2.353 2.843 2.83.523.19 1.07.285 1.616.285.826 0 1.646-.214 2.38-.637l15.54-8.974c1.953-1.128 2.845-3.476 2.13-5.62"/><path d="M71.32 107.376l-9.25-5.34c-1.363-.786-3.01-.913-4.473-.342-1.465.57-2.593 1.78-3.065 3.277-2.31 7.344-3.482 14.99-3.483 22.727 0 35.234 24.963 66.38 59.356 74.056.375.086.753.127 1.128.127 1.17 0 2.315-.397 3.245-1.14 1.226-.985 1.94-2.474 1.94-4.048v-10.657c0-2.353-1.584-4.413-3.858-5.015-24.183-6.395-41.073-28.322-41.073-53.32 0-4.874.653-9.743 1.94-14.47.62-2.274-.37-4.676-2.41-5.854M149.912 1.075c-1.38-.24-2.8.14-3.874 1.045-1.074.902-1.693 2.234-1.693 3.637v17.88c0 2.256 1.587 4.2 3.798 4.655 46.502 9.52 80.253 50.92 80.253 98.415 0 10.777-1.736 21.44-5.158 31.696-.715 2.143.176 4.493 2.132 5.62l15.54 8.97c.73.424 1.55.64 2.376.64.547 0 1.095-.096 1.62-.286 1.32-.478 2.358-1.513 2.842-2.83 5.147-14.025 7.756-28.764 7.756-43.81 0-62.14-44.407-114.972-105.59-125.632"/></g></svg>