<svg width="256" height="244" viewBox="0 0 256 244" xmlns="http://www.w3.org/2000/svg" preserveAspectRatio="xMinYMin meet"><path d="M32.167 98.573c2.9 0 5.246.396 7.028 1.19 1.782.792 2.672 1.78 2.672 2.97 0 1.453-.366 3.1-1.09 4.948-.727 1.85-1.42 3.365-2.08 4.553-.264.265-.592.297-.988.1-.397-.2-.596-.56-.596-1.09.397-.92.595-2.24.595-3.958 0-1.847-.496-3.367-1.486-4.553-.99-1.188-2.344-1.78-4.057-1.78-2.246 0-4.058.69-5.444 2.077-1.385 1.384-2.078 3.333-2.078 5.836 0 2.114.56 4.127 1.682 6.038 1.12 1.918 2.376 3.83 3.76 5.742 1.387 1.913 2.674 3.96 3.86 6.137 1.19 2.178 1.783 4.652 1.783 7.423 0 4.75-1.914 8.444-5.74 11.082-3.828 2.643-8.843 3.96-15.043 3.96-4.487 0-8.017-.725-10.59-2.177-2.575-1.45-3.86-3.03-3.86-4.748 0-.526.197-1.254.593-2.18.396-.92.922-1.91 1.585-2.97.658-1.054 1.385-2.107 2.178-3.167.79-1.054 1.647-1.91 2.572-2.57.396-.265.76-.2 1.09.196.328.397.362.793.1 1.19-.793.79-1.385 1.616-1.783 2.474-.396.857-.594 2.014-.594 3.463 0 2.374.792 4.324 2.377 5.837 1.583 1.52 3.627 2.278 6.135 2.278 3.43 0 6.102-.957 8.017-2.87 1.912-1.91 2.87-4.256 2.87-7.028 0-2.506-.562-4.85-1.683-7.026-1.123-2.18-2.344-4.288-3.66-6.335-1.322-2.046-2.544-4.124-3.664-6.237-1.123-2.107-1.682-4.352-1.682-6.73 0-3.428 1.45-6.3 4.355-8.608 2.9-2.304 7.188-3.465 12.864-3.465zM86.203 99.566c.66.264.924.63.794 1.09-.135.463-.727.824-1.783 1.088-1.98 0-4.255.068-6.828.197-2.575.133-5.315.333-8.215.594-2.642 6.47-4.818 12.767-6.532 18.905-1.717 6.134-2.572 11.117-2.572 14.944 0 4.485 1.712 6.727 5.145 6.727 3.432 0 7.258-2.966 11.484-8.903.394-.265.757-.265 1.086 0 .33.264.428.724.3 1.385-2.247 3.695-5.084 6.897-8.513 9.6-3.433 2.707-6.798 4.057-10.095 4.057-3.434 0-5.973-.822-7.62-2.475-1.652-1.65-2.476-3.925-2.476-6.83 0-3.824.922-9.105 2.77-15.835 1.848-6.73 4.223-13.588 7.128-20.586-3.434.396-6.6.93-9.5 1.585-.663-.13-.83-.462-.497-.99.328-.526.922-1.09 1.782-1.683.854-.596 1.88-1.12 3.066-1.585 1.187-.46 2.31-.692 3.365-.692h1.585c.527 0 1.056-.065 1.584-.197 1.712-3.827 3.494-7.522 5.343-11.086 1.847-3.564 3.693-6.794 5.543-9.7.79-.922 1.88-1.747 3.265-2.475 1.386-.722 2.74-1.285 4.058-1.682 1.318-.396 2.407-.625 3.268-.693.856-.064 1.217.168 1.09.693-2.247 3.434-4.454 7.26-6.633 11.48-2.178 4.225-4.255 8.646-6.235 13.263 2.506-.13 5.048-.197 7.62-.197h7.225z" fill="#606060"/><path d="M206.3.528c1.978 0 3.592.496 4.85 1.485 1.25.99 2.108 2.31 2.57 3.96.463 1.65.527 3.53.2 5.64-.33 2.114-1.09 4.225-2.277 6.335-.265.264-.594.264-.99 0-.395-.265-.66-.593-.79-.99.262-1.584-.297-2.902-1.684-3.96-1.386-1.053-3.533-1.583-6.434-1.583-5.412 0-10.855 2.013-16.33 6.038-5.477 4.027-10.79 9.34-15.934 15.934-5.147 6.6-9.965 14.19-14.45 22.765-4.488 8.58-8.38 17.42-11.68 26.524-3.298 9.105-5.907 18.145-7.818 27.118-1.913 8.976-2.868 17.155-2.868 24.547 0 3.957 1.12 5.938 3.365 5.938 1.584 0 3.134-.66 4.652-1.98 1.515-1.32 3.267-3.297 5.246-5.94.395-.26.758-.227 1.087.1.33.334.428.76.3 1.286-2.644 3.96-5.742 7.26-9.306 9.897-3.563 2.643-6.8 3.96-9.7 3.96-2.508 0-4.255-.725-5.244-2.178-.99-1.45-1.485-3.295-1.485-5.54 0-6.203 1.318-13.958 3.96-23.258 2.64-9.304 6.166-19.134 10.59-29.495 4.42-10.36 9.534-20.685 15.34-30.978 5.807-10.293 11.845-19.562 18.114-27.81 6.266-8.247 12.57-14.945 18.903-20.093C194.817 3.1 200.755.527 206.3.527zM30.55 243.76c-1.98 0-3.595-.495-4.85-1.484-1.253-.99-2.11-2.31-2.574-3.96-.46-1.65-.526-3.53-.198-5.64.332-2.114 1.09-4.224 2.276-6.335.266-.265.594-.265.99 0 .395.263.66.594.79.99-.26 1.585.298 2.903 1.684 3.96 1.385 1.053 3.53 1.582 6.433 1.582 5.413 0 10.857-2.013 16.332-6.038 5.476-4.023 10.788-9.335 15.935-15.93 5.146-6.602 9.964-14.19 14.45-22.766 4.486-8.578 8.38-17.42 11.677-26.525 3.3-9.105 5.908-18.144 7.82-27.118 1.913-8.975 2.868-17.155 2.868-24.545 0-3.96-1.12-5.938-3.365-5.938-1.584 0-3.134.657-4.65 1.978-1.516 1.317-3.268 3.3-5.247 5.94-.395.26-.757.228-1.087-.1-.328-.332-.427-.76-.298-1.29 2.642-3.955 5.74-7.257 9.304-9.896 3.56-2.638 6.796-3.956 9.698-3.956 2.508 0 4.255.722 5.244 2.175.99 1.453 1.486 3.3 1.486 5.545 0 6.202-1.318 13.953-3.96 23.258-2.638 9.304-6.166 19.133-10.59 29.494-4.42 10.358-9.534 20.684-15.34 30.977-5.807 10.293-11.844 19.562-18.113 27.81-6.266 8.247-12.57 14.946-18.904 20.09-6.33 5.15-12.268 7.723-17.81 7.723z" fill="#B3D107"/><path d="M164.264 149.248c-5.543 0-8.314-3.035-8.314-9.105 0-2.11.228-4.552.692-7.322.46-2.773 1.19-5.64 2.178-8.61.99-2.97 2.142-5.97 3.463-9.01 1.318-3.03 2.9-5.936 4.75-8.706-1.452.925-2.837 1.88-4.154 2.87-1.322.99-2.51 2.013-3.565 3.067-.396.27-.76.17-1.09-.295-.33-.46-.362-.89-.098-1.286 2.243-2.378 5.444-4.816 9.6-7.327 4.156-2.503 8.147-4.485 11.977-5.937.66 0 1.153.167 1.484.496.328.332.363.76.1 1.285-4.225 5.545-7.622 11.55-10.195 18.013-2.573 6.468-3.86 12.738-3.86 18.805 0 3.83 1.19 5.74 3.564 5.74 1.713 0 3.825-1.154 6.333-3.463 2.507-2.31 5.148-5.344 7.92-9.107 2.77-3.76 5.572-8.016 8.412-12.765 2.837-4.752 5.444-9.57 7.82-14.453.394-.79 1.55-1.582 3.462-2.374 1.913-.794 3.86-1.19 5.84-1.19s2.573.532 1.782 1.586c-1.848 3.433-3.463 6.63-4.85 9.6-1.385 2.967-2.542 5.905-3.463 8.807-.925 2.903-1.617 5.837-2.08 8.807-.464 2.97-.692 6.235-.692 9.797 0 4.228 1.122 6.335 3.367 6.335 2.242 0 4.75-1.978 7.52-5.938.398-.26.794-.26 1.188 0 .397.268.527.665.397 1.19-2.245 3.43-4.72 6.036-7.423 7.82-2.707 1.78-5.182 2.67-7.423 2.67-5.544 0-8.314-3.233-8.314-9.7 0-6.73 1.186-13.392 3.562-19.993-5.016 9.105-10.293 16.33-15.834 21.676-5.544 5.348-10.23 8.018-14.056 8.018zM246.01 98.573c2.902 0 5.248.396 7.03 1.19 1.78.792 2.67 1.78 2.67 2.97 0 1.453-.364 3.1-1.087 4.948-.73 1.85-1.42 3.365-2.08 4.553-.266.265-.593.297-.99.1-.395-.2-.593-.56-.593-1.09.396-.92.594-2.24.594-3.958 0-1.847-.494-3.367-1.484-4.553-.99-1.188-2.344-1.78-4.058-1.78-2.244 0-4.057.69-5.443 2.077-1.388 1.385-2.08 3.333-2.08 5.836 0 2.114.56 4.127 1.683 6.038 1.12 1.918 2.376 3.83 3.76 5.742 1.386 1.913 2.673 3.96 3.86 6.137 1.19 2.178 1.783 4.652 1.783 7.423 0 4.75-1.914 8.444-5.74 11.082-3.83 2.643-8.844 3.96-15.044 3.96-4.49 0-8.017-.725-10.59-2.177-2.575-1.45-3.86-3.03-3.86-4.748 0-.526.197-1.254.593-2.18.396-.92.92-1.91 1.584-2.97.657-1.054 1.383-2.107 2.176-3.167.79-1.054 1.65-1.91 2.574-2.57.396-.265.758-.2 1.088.196.328.397.363.793.1 1.19-.792.79-1.385 1.616-1.782 2.474-.396.857-.594 2.014-.594 3.463 0 2.374.792 4.324 2.376 5.837 1.584 1.52 3.627 2.278 6.136 2.278 3.43 0 6.102-.957 8.018-2.87 1.91-1.91 2.87-4.256 2.87-7.028 0-2.506-.564-4.85-1.683-7.026-1.124-2.18-2.345-4.288-3.663-6.335-1.32-2.046-2.543-4.124-3.663-6.237-1.123-2.107-1.682-4.352-1.682-6.73 0-3.428 1.45-6.3 4.354-8.608 2.9-2.304 7.188-3.465 12.865-3.465z" fill="#606060"/></svg>