<svg width="256" height="186" viewBox="0 0 256 186" xmlns="http://www.w3.org/2000/svg" preserveAspectRatio="xMinYMin meet"><path d="M0 0v67.15C34.6 52.74 80.83 38.26 139.01 23.65 176.29 14.304 212.32 6.444 247.12 0H0zm256 14.318c-33.737 5.014-63.992 10.914-90.62 17.58C134.9 39.555 110.36 47.295 91.8 55.188c-18.584 7.75-27.217 14.02-26.008 18.848 1.09 4.264 8.873 6.2 23.38 5.8 7.466-.142 19.556-.963 36.338-2.447 16.782-1.485 38.45-3.63 64.974-6.435 26.29-2.714 48.068-4.55 65.518-5.618v-51.02zM181.058 99.5c-7.467.094-17.746.665-30.902 1.63-13.202.99-29.536 2.416-49.115 4.442-30.387 3.25-55.68 5.78-75.757 7.43-9.63.813-17.998 1.318-25.283 1.722v54.463c39.875-5.83 75.947-12.78 108.11-20.843 31.596-7.916 55.88-15.64 72.948-23.108 17.09-7.468 25.07-13.804 23.742-18.94-1.114-4.428-9.117-6.678-23.742-6.796zM256 118.62c-35.04 13.727-78.53 27.19-130.492 40.236C77.13 170.986 35.34 179.666 0 185.046v.452h256V118.62zM10.693 130.04c.13-.02.23-.002.363 0 .66.02 1.367.23 1.812.724.68.7.856 1.82.453 2.718-.437 1.033-1.6 1.656-2.718 1.45-1.233-.18-2.19-1.39-2.084-2.628.036-1.164 1.024-2.12 2.175-2.265zm9.062 0c.578.022 1.115.14 1.54.543.804.66 1.12 1.846.726 2.81-.37.988-1.38 1.723-2.446 1.63-.915-.038-1.815-.608-2.175-1.45-.5-1.095-.093-2.576.996-3.172.406-.247.882-.366 1.36-.36zm-8.7 16.04c1.08-.036 2.045.724 2.357 1.72.33 1.11-.196 2.503-1.27 2.99-1.077.542-2.493.2-3.17-.815-.69-.99-.595-2.483.362-3.262.47-.42 1.092-.648 1.722-.634zm8.7 0c.86-.048 1.622.495 2.084 1.177.666 1.04.387 2.538-.635 3.262-1.025.778-2.627.648-3.444-.364-.842-1.004-.787-2.715.273-3.534.46-.38 1.122-.562 1.722-.543z" fill="#809CC8"/></svg>