<svg width="256" height="256" viewBox="0 0 256 256" xmlns="http://www.w3.org/2000/svg" preserveAspectRatio="xMinYMin meet"><path d="M128 256c70.692 0 128-57.308 128-128C256 57.308 198.692 0 128 0 57.308 0 0 57.308 0 128c0 70.692 57.308 128 128 128" fill="#F04C3C"/><path d="M76.59 136.99c-3.373 0-6.156-1.124-8.348-3.373-2.192-2.247-3.288-5.114-3.288-8.6 0-3.316 1.208-6.182 3.625-8.6 2.416-2.416 5.282-3.625 8.6-3.625 3.653 0 6.562 1.32 8.726 3.963 2.163 2.642 3.246 6.184 3.246 10.623v38.953h31.534v-41.228c0-13.77-3.92-24.633-11.762-32.588-7.84-7.953-18.564-11.93-32.166-11.93-12.198 0-22.554 4.244-31.07 12.73-8.516 8.49-12.774 18.832-12.774 31.03 0 12.534 4.216 22.96 12.647 31.28 8.433 8.32 18.972 12.478 31.62 12.478 2.135 0 4.496-.225 7.082-.674v-32.63c-2.36 1.462-4.92 2.192-7.673 2.192M178.99 136.864c-3.374 0-6.156-1.124-8.348-3.373-2.192-2.247-3.288-5.113-3.288-8.6 0-3.315 1.208-6.182 3.625-8.6 2.415-2.415 5.282-3.625 8.6-3.625 3.653 0 6.562 1.322 8.726 3.963 2.163 2.643 3.246 6.184 3.246 10.624v38.953h31.534v-41.23c0-13.77-3.92-24.633-11.762-32.587-7.84-7.954-18.564-11.93-32.166-11.93-12.198 0-22.554 4.244-31.07 12.73-8.516 8.49-12.774 18.832-12.774 31.028 0 12.536 4.216 22.963 12.647 31.28 8.433 8.32 18.972 12.48 31.62 12.48 2.135 0 4.496-.226 7.082-.675v-32.63c-2.36 1.464-4.92 2.194-7.673 2.194" fill="#FFF"/></svg>