<svg width="256" height="253" viewBox="0 0 256 253" xmlns="http://www.w3.org/2000/svg" preserveAspectRatio="xMinYMin meet"><g fill="#403E42"><path d="M168.485 152.203c.31 8.564 4.89 8.5 10.338 8.3 7.338-.134 11.366-2.383 15.048-.61-.057-.205-1.207-3.643-6.29-3.045.592-1.272.842-2.994.663-5.36-.67-8.557-5.648-15.355-11.11-15.162-5.448.186-8.95 7.293-8.648 15.877zm8.135-10.44c1.535-.033 2.814 1.194 2.833 2.736.032 1.534-1.202 2.813-2.73 2.84-1.543.024-2.815-1.21-2.84-2.75-.033-1.537 1.2-2.803 2.737-2.828zM93.684 162.046c.566.013 1.157 0 1.76-.013.528 0 1.055-.013 1.607-.032 5.47-.05 10 .463 9.928-8.108-.09-8.57-3.894-15.51-9.36-15.452-5.456.05-10.738 7.08-10.423 15.645.096 2.236.424 3.842.95 5.005-4.754 1.202-6.07 4.138-6.148 4.324 2.994-1.612 6.38-1.38 11.687-1.368zm4.697-18.215c1.543-.05 2.822 1.17 2.873 2.712.04 1.536-1.182 2.82-2.718 2.86-1.542.05-2.827-1.177-2.865-2.712-.045-1.536 1.17-2.827 2.71-2.86zM111.212 52.498h15.33v-6.322h3.45v29.208h-5.21v16.34h26.837v-16.34H146.4V46.176h3.457v6.322H165.2V30.852h-53.99v21.646z"/><path d="M255.006 94.235c-.097-1.857-.277-3.707-.527-5.532-.13-.925-.265-1.85-.457-2.756-.18-.938-.36-1.806-.662-2.827l-.192-.72-.507-.405c-2.923-2.287-6.065-4.022-9.258-5.55-2.64-1.247-5.32-2.333-8.025-3.33-7.562-20.97-20.54-39.565-37.625-52.51C180.102 7.214 159.342.126 137.728.126c-21.626 0-42.38 7.087-60.036 20.477-13.447 10.19-24.338 23.888-32.055 39.482H45.6c-2.09 4.22-3.965 8.565-5.572 13.03-2.71.996-5.39 2.082-8.03 3.328-3.2 1.53-6.336 3.264-9.26 5.55l-.514.406-.192.72c-.296 1.02-.49 1.89-.67 2.827-.178.906-.326 1.83-.448 2.756-.187 1.317-.31 2.654-.418 3.99h.045c-.044.514-.082 1.028-.108 1.55-.187 3.706-.084 7.413.32 11.1.393 3.683 1.074 7.326 2.057 10.943.513 1.8 1.098 3.566 1.792 5.333.34.88.713 1.753 1.13 2.633.206.437.43.868.656 1.31l.366.65c.14.244.238.418.45.732l.366.58.59.3c.624.322 1.145.56 1.71.83l1.645.745c.302.122.598.25.912.38-7.498 6.925-15.645 15.927-22.693 27.055l-8.9 14.026 12.498-10.967c.22-.186 10.69-9.252 28.168-19.538l.244 2.01.636 5.07 3.2 26.002c.07.495.327.94.74 1.22l6.56 4.608c.114.366.223.733.333 1.112.154.52.295 1.034.456 1.554l1.496 4.518c3.283 10.21 7.935 19.417 13.595 27.506-.268.084-.545.16-.815.238-3.41-1.58-15.33-7.106-19.333-8.912l-8.372-3.758 4.954 7.73c.36.558 8.905 13.884 15.877 22.866 6.535 8.385 15.472 16.943 32.332 16.943 2.024 0 4.157-.128 6.34-.36 5.032-.584 8.81-1.033 11.682-1.406 17.695 6.515 37.214 6.9 55.738-.11 5.076-1.927 9.695-4.26 13.93-6.88.09-.013.173-.04.25-.058 6.888-1.658 14.707-3.528 18.569-4.607.617-.168 1.395-.355 2.198-.547 5.378-1.227 14.366-3.322 19.153-12.908 4.826-9.676 12.704-24.493 12.78-24.64l3.69-6.895-7.165 3.117c-.392.167-9.477 4.13-14.2 6.605-.16.096-.366.18-.552.27 3.842-7.833 5.757-14.072 6.444-16.468l2.59-10.685 7.46-16.687s2.093-18.24 2.138-18.228l.733-6.978c.655-.276 4.64-.552 5.416-.86 1.112-.438 2.223-.868 3.335-1.35l1.637-.745c.58-.27 1.093-.508 1.716-.83l.59-.3.374-.58c.205-.314.32-.494.443-.732l.36-.65c.25-.442.462-.873.66-1.31.42-.873.785-1.747 1.145-2.634.688-1.767 1.26-3.534 1.78-5.333.976-3.617 1.683-7.26 2.056-10.942.412-3.674.502-7.387.316-11.095zM84.78 139.255c.16-.108 6.86-4.503 17.803-9.855 10.91-.83 22.944-1.356 35.84-1.356 3.135 0 6.212.045 9.25.097-2.12 1.71-4.355 3.322-6.68 4.717l-7.73 4.677c-4.877.59-9.104 1.805-9.336 1.87-.147.038-.282.103-.404.173-.38.22-.67.578-.797 1.003l-7.903 26.028-42.18 9.374-13.294-9.31-3.87-31.31c7.544-1.394 17.644-2.994 29.762-4.35-1.298 1.543-2.564 3.175-3.752 4.896l-7.216 10.358 10.505-7.01zm56.926 108.932c-6.96.463-14.026-.353-20.946-2.25.578-.114.996-.18 1.51-.236.565-.077 12.985-1.71 18.568-10.01l.527.013 1.388-.013c.92 0 1.754-.077 2.647-.115 2.12-.174 4.17-.482 6.207-.893.218.212.424.424.65.655 4.194 4.157 9.405 6.54 15.13 6.958-9.632 3.913-18.697 5.43-25.68 5.892zm.63-15.227c1.046-2.333 1.837-4.15 2.434-5.52 1.234 1.375 2.795 3.078 4.55 4.896-1.37.206-2.72.38-4.05.49-.872.037-1.785.134-2.62.134h-.315zm-20.696-53.727l3.77-.848c.625-.135 1.113-.604 1.3-1.208l7.877-25.913c1.362-.18 2.557-.276 3.59-.276 1.003 0 2.218.097 3.574.276l8.11 26.684c.205.68.79 1.176 1.483 1.253l3.007.34.77.085 51.8 5.892c.43.05.855-.07 1.208-.315l5.205-3.637 4.812-3.367 1.78-1.252c-.29 1.24-.61 2.473-.945 3.688-.495 1.593-1.02 3.135-1.548 4.664-2.127 6.053-4.51 11.546-7.106 16.506-.707.045-1.472.077-2.275.077-2.518 0-5.075-.204-7.908-.468-4.922-.456-12.715-1.35-15.17-1.625-2.14-1.703-9.406-7.466-15.44-12.227-.23-.18-.436-.373-.648-.54-1.06-.9-2.268-1.915-4.716-1.915-2.236 0-5.487.81-13.345 3.18 4.093-3.057 4.125-6.996 4.125-6.996s-5.82 5.422-15.215 6.617c-9.368 1.208-16.737-4.556-16.737-4.556.308 1.004.745 3.272 2.872 5.193-2.5-.29-5.198-.495-8.032-.495-1.015 0-2.056.026-3.052.077-5.77.31-13.89 9.02-19.59 17.817-2.8.887-11.558 3.67-21.684 6.644-5.982-8.276-10.036-16.674-12.33-22.077-1.337-3.15-2.082-5.29-2.25-5.796v-.013c-.185-.513-.385-1.06-.558-1.606l2.43 1.697v.013l6.006 4.215 2.005 1.395c.302.212.668.32 1.015.32.128 0 .257-.012.392-.038l51.42-11.462zm31.958-38.653c-.18-.58-.63-1.01-1.208-1.183-.263-.083-5.474-1.567-11.006-2.036l1.015-.077c.873-.064 15.4-1.837 32.755-7.825 19.217 1.47 34.907 3.83 45.637 5.782l-3.797 26.64-13.403 9.373-42.13-4.787-7.864-25.886zm92.49-35.885c-.47 3.43-2.024 10.113-2.024 10.113l-1.215.2c-.637-.174-6.56-1.71-16.764-3.598.328-.07.643-.142.95-.212 2.115-.527 4.197-1.176 6.22-1.992 1.003-.43 2.005-.887 2.95-1.427.938-.547 1.857-1.15 2.576-1.967-10.216 3.34-31.328 1.825-50.096-.115-17.15-1.774-34.362-2.917-51.658-2.956-17.29.04-34.483 1.19-51.65 2.956-18.77 1.94-39.875 3.456-50.09.115.718.81 1.643 1.42 2.588 1.966.938.54 1.934.99 2.936 1.426 2.018.81 4.112 1.465 6.226 1.992.745.173 1.504.34 2.262.475-9.31 1.767-14.7 3.168-15.305 3.335 0 0-2.146.347-2.615-1.298-.93-3.29-1.555-5.59-2.024-9.015-.443-3.41-.668-6.862-.642-10.305.006-.566-.007-1.697-.007-1.697.032-1.156.084-2.313.193-3.47.064-.854 3.206-3.59 5.905-5.146 2.917-1.696 5.982-3.225 9.104-4.645 3.09-1.465 13.106-3.592 19.146-4.684 6.04-1.105 27.64-3.97 29.26-4.575 1.613-.616 10.948-7.813 12.58-8.41-3.43.565-50.835 7.806-52.968 8.48 15.388-40.24 45.592-59.836 85.794-59.836 40.19 0 70.4 18.504 85.8 58.75-20.328-5.402-48.483-7.92-51.914-8.493 1.632.598 10.865 7.093 12.58 7.312 14.058 1.825 36.225 6.74 37.83 7.376 3.188 1.29 6.38 2.62 9.478 4.08 3.13 1.42 6.188 2.95 9.105 4.645 2.7 1.562 5.835 4.292 5.912 5.147.148 1.722.212 3.437.23 5.16.027 3.443-.21 6.9-.654 10.31z"/></g></svg>