<svg width="512" height="124" viewBox="0 0 512 124" xmlns="http://www.w3.org/2000/svg" preserveAspectRatio="xMinYMin meet"><path d="M290.78 25.68c0 5.31-4.145 7.99-7.992 7.99h-.883c-3.848 0-7.993-2.68-7.993-7.99v-1.195c0-5.31 4.146-7.993 7.993-7.993h.883c3.848 0 7.993 2.68 7.993 7.993v1.195zM126.657 79.003c4.508.58 6.785 4.376 6.785 7.918 0 3.848-2.68 7.993-7.992 7.993h-6.786c-2.804 0-5.334-1.562-6.764-3.826-4.47 2.653-9.714 4.173-15.37 4.173-15.946 0-29.447-13.313-29.447-29.45 0-16.544 12.896-30.464 29.787-30.464 16.106 0 29.54 12.88 29.787 29.003l.002 14.653zm-16.41-13.995c0-7.258-6.04-13.18-13.377-13.18-7.507 0-13.376 6.188-13.376 13.768 0 7.19 6.068 13.18 13.178 13.18 7.643 0 13.573-6.128 13.573-13.768zM230.11 51.652c-7.257 0-13.18 6.04-13.18 13.377 0 7.506 6.187 13.374 13.768 13.374 7.19 0 13.18-6.07 13.18-13.18.002-7.642-6.128-13.572-13.768-13.572zm30.252 27.22c4.512.577 6.786 4.374 6.786 7.918 0 3.848-2.68 7.993-7.992 7.993h-6.787c-2.852 0-5.423-1.617-6.84-3.95-4.313 2.52-9.31 3.98-14.617 3.98-16.545 0-30.465-12.893-30.465-29.784 0-16.256 13.112-29.79 29.446-29.79 5.23 0 10.166 1.275 14.48 3.553V23.257c0-5.31 4.147-7.2 7.994-7.2 3.847 0 7.993 1.888 7.993 7.2V78.87h.002zM25.382 90.656L9.026 51.78H8.002C2.684 51.78 0 47.63 0 43.778c0-3.85 2.684-8.002 8.002-8.002h6.34c3.39 0 6.28 2.2 7.386 4.928l12.53 32.833L46.81 40.65c1.135-2.54 3.91-4.874 7.364-4.874h6.34c5.317 0 8 4.15 8 8.002 0 3.853-2.683 8.002-8 8.002H59.49L43.138 90.657c-1.13 2.624-3.155 4.89-8.86 4.89-5.732 0-7.762-2.26-8.895-4.89zm167.405-11.654c4.508.58 6.785 4.376 6.785 7.918 0 3.848-2.68 7.993-7.993 7.993h-6.786c-2.805 0-5.333-1.562-6.764-3.826-4.472 2.653-9.714 4.173-15.37 4.173-15.945 0-29.446-13.313-29.446-29.45 0-16.544 12.895-30.464 29.786-30.464 16.107 0 29.54 12.88 29.786 29.003v14.653zm-16.41-13.995c0-7.258-6.04-13.18-13.378-13.18-7.507 0-13.375 6.188-13.375 13.768 0 7.19 6.067 13.18 13.178 13.18 7.643 0 13.573-6.128 13.573-13.768zm146.647-2.824l-.038 26.034c0 5.31-3.866 6.695-8.923 6.695-3.848 0-7.992-1.384-7.992-6.695-.035-.516-.054-35.11-.054-35.11-4.512-.577-6.786-4.375-6.786-7.92 0-3.847 2.68-7.992 7.993-7.992h6.785c2.77 0 5.287 1.53 6.728 3.77 4.62-3.765 11.09-5.76 17.195-5.76 17.07 0 27.57 12.55 27.618 28.13l.012 15.64c4.512.58 6.787 4.376 6.787 7.92 0 3.85-2.68 7.994-7.993 7.994H356.685c-4.302 0-7.992-3.69-7.992-7.993v-2.144l.008-22.34c0-7.074-4.627-12.52-12.972-12.52-6.667 0-12.704 5.547-12.704 12.29zm-33.832 32.73h-6.785c-4.302 0-7.993-3.692-7.993-7.993V45.108c0-5.312 4.146-7.993 7.993-7.993h.884c3.848 0 7.992 2.68 7.992 7.993V79c4.513.578 6.786 4.376 6.786 7.92 0 3.848-2.68 7.993-7.993 7.993h-.883z"/><path d="M507.458 69.803l-43.254 14.602v.915c0 4.748-3.704 7.143-7.143 7.143-3.437 0-7.143-2.395-7.143-7.143v-5.66c0-3.028 1.965-5.61 4.4-6.595l37.857-11.187L454.27 50.67c-2.27-1.015-4.353-3.49-4.353-6.575v-5.66c0-4.747 3.706-7.143 7.144-7.143 3.44 0 7.144 2.395 7.144 7.144v.914l43.254 14.6c2.342 1.01 4.365 2.818 4.365 7.91 0 5.118-2.018 6.93-4.365 7.943zm-97.073 33.607V75.98c0-12.48 9.6-13.44 14.4-13.852-4.802-.687-14.4-1.646-14.4-14.125V20.57c0-5.758-2.605-8.227-6.445-8.227h-3.43c-3.568 0-6.172-1.92-6.172-6.172 0-3.975 2.604-6.17 6.17-6.17h10.15c11.93 0 17.83 5.623 17.83 18.24v27.98c0 8.365 3.565 9.19 6.994 9.19 4.527 0 6.584 3.29 6.584 6.582 0 3.29-2.058 6.584-6.584 6.584-3.43 0-6.993.823-6.993 9.19v27.977c0 12.62-5.9 18.242-17.83 18.242h-10.15c-3.568 0-6.172-2.196-6.172-6.173 0-4.252 2.604-6.173 6.17-6.173h3.432c3.84 0 6.445-2.47 6.445-8.23z" fill="#00B4F0"/></svg>