<svg width="256" height="89" viewBox="0 0 256 89" xmlns="http://www.w3.org/2000/svg" preserveAspectRatio="xMinYMin meet"><path d="M210.824 0C235.774 0 256 19.72 256 44.043c0 24.324-20.226 44.043-45.176 44.043-21.015 0-38.68-13.99-43.728-32.936l4.005 2.536 2.078-3.118c4.686 15.962 19.766 27.646 37.646 27.646 21.623 0 39.152-17.09 39.152-38.17 0-21.082-17.53-38.172-39.152-38.172-1.85 0-3.672.126-5.454.368l3.786-5.684-.777-.493C209.187.02 210.002 0 210.823 0z" fill="#BF3078"/><path d="M165.647 0h45.177l-60.236 88.086L128 55.054l-22.588 33.032L82.57 54.68l3.57-5.36 19.272 28.18 17.576-25.704 5.012-7.33 5.012 7.33L150.588 77.5l48.98-71.628h-84.486L118.992 0h46.655z" fill="#802050"/><path d="M60.235 88.086L0 0h120.47L60.236 88.086zm0-10.587l48.98-71.628h-97.96L60.235 77.5z" fill="#26134D"/></svg>