<svg width="256" height="264" viewBox="0 0 256 264" xmlns="http://www.w3.org/2000/svg" preserveAspectRatio="xMinYMin meet"><path d="M188.37 263.647l-97.924-95.04-57.952 44.114L.51 196.676.532 67.212l32.085-16.136 57.996 44.148L188.3.094l67.168 26.925.023 209.804-67.12 26.823" fill="#FFF"/><path d="M238.472 38.518l-46.234-18.533-100.262 97.637-61.206-46.59-13.24 6.658-.022 108.497 13.13 6.586 61.15-46.55 100.51 97.55 46.195-18.46-.02-186.795zM37.36 157.395l-.035-50.924 28.328 25.29-28.294 25.635zm90.63-25.653l56.634-42.338.023 85.008-56.658-42.67z" fill="#68217A"/></svg>