<svg width="256" height="137" viewBox="0 0 256 137" xmlns="http://www.w3.org/2000/svg" preserveAspectRatio="xMinYMin meet"><path d="M67.654 1.61l24.22 82.354L116.1 1.61h17.53L93.54 136.91h-1.67L66.814 53.066 41.757 136.91h-1.67L0 1.61h17.54l24.217 82.354L58.13 28.51 50.11 1.613h17.542V1.61z" fill="#005A9C"/><path d="M183.427 93.48c0 12.255-3.26 22.555-9.763 30.908-6.52 8.35-14.958 12.523-25.313 12.523-7.793 0-14.58-2.485-20.374-7.432-5.793-4.96-10.08-11.67-12.862-20.123l13.693-5.68c2.01 5.124 4.652 9.16 7.937 12.103 3.285 2.95 7.148 4.432 11.607 4.432 4.678 0 8.635-2.623 11.866-7.853 3.23-5.233 4.84-11.52 4.84-18.876 0-8.13-1.728-14.413-5.183-18.87-4.006-5.23-10.3-7.855-18.868-7.855h-6.68V58.74l23.383-40.422h-28.234L121.62 31.68h-5.004V1.61h65.136v8.182l-24.717 42.6c8.682 2.782 15.252 7.853 19.707 15.202 4.458 7.347 6.685 15.968 6.685 25.885z" fill="#005A9C"/><path d="M251.404.853l2.84 17.268-10.056 19.242s-3.863-8.16-10.274-12.678c-5.407-3.812-8.93-4.636-14.43-3.505-7.08 1.464-15.09 9.913-18.587 20.338-4.185 12.47-4.225 18.508-4.373 24.05-.23 8.89 1.164 14.14 1.164 14.14s-6.104-11.295-6.045-27.84c.036-11.81 1.9-22.523 7.36-33.087 4.81-9.29 11.947-14.865 18.29-15.515 6.553-.69 11.742 2.467 15.743 5.9 4.195 3.59 8.46 11.44 8.46 11.44L251.403.852zM252.633 98.583s-4.433 7.945-7.206 11.003c-2.77 3.06-7.728 8.45-13.846 11.154-6.12 2.696-9.328 3.208-15.38 2.622-6.045-.582-11.66-4.08-13.627-5.55-1.965-1.45-7-5.75-9.832-9.746-2.85-4.016-7.296-12.037-7.296-12.037s2.476 8.032 4.03 11.442c.888 1.96 3.634 7.96 7.528 13.195 3.624 4.87 10.67 13.26 21.387 15.15 10.713 1.897 18.074-2.91 19.89-4.078 1.822-1.162 5.66-4.374 8.096-6.98 2.538-2.71 4.938-6.18 6.257-8.247.978-1.522 2.562-4.59 2.562-4.59l-2.562-13.34z" fill="#221B0A"/>=</svg>