<svg width="256" height="256" viewBox="0 0 256 256" xmlns="http://www.w3.org/2000/svg" preserveAspectRatio="xMinYMin meet"><path fill="#FB651E" d="M0 0h256v256H0z"/><path d="M119.374 144.746l-43.94-82.314h20.08l25.848 52.092c.398.928.862 1.89 1.392 2.883.53.994.994 2.022 1.39 3.082.267.397.465.76.598 1.093.133.33.265.63.398.894.662 1.326 1.26 2.618 1.79 3.877.53 1.26.993 2.42 1.39 3.48 1.06-2.254 2.22-4.673 3.48-7.257 1.26-2.585 2.552-5.27 3.877-8.053l26.246-52.092h18.69l-44.34 83.308v53.087h-16.9v-54.08z" fill="#FFF"/></svg>