<?xml version="1.0" standalone="no"?>
<!DOCTYPE svg PUBLIC "-//W3C//DTD SVG 20010904//EN"
 "http://www.w3.org/TR/2001/REC-SVG-20010904/DTD/svg10.dtd">
<svg version="1.0" xmlns="http://www.w3.org/2000/svg"
 width="1980.000000pt" height="800.000000pt" viewBox="0 0 1980.000000 800.000000"
 preserveAspectRatio="xMidYMid meet">
<metadata>
Created by potrace 1.12, written by Peter Selinger 2001-2015
</metadata>
<g transform="translate(0.000000,800.000000) scale(0.100000,-0.100000)"
fill="#000000" stroke="none">
<path d="M0 4000 l0 -4000 4359 0 4359 0 6 57 c4 32 11 108 15 168 5 64 15
126 24 147 10 21 17 53 17 72 0 19 5 38 10 41 6 3 10 30 10 60 0 30 4 56 9 59
5 3 9 45 10 93 1 49 6 105 10 125 5 21 7 38 5 38 -3 0 2 13 10 28 8 16 18 64
22 106 4 51 12 80 20 83 8 3 14 16 14 29 0 63 23 174 36 174 8 0 14 5 14 12 0
6 6 19 13 27 18 21 47 128 47 173 0 33 20 68 39 68 12 0 78 164 73 183 -1 4 2
7 6 7 4 0 8 8 9 18 1 24 48 188 68 242 10 25 19 63 21 85 15 144 14 141 48
171 27 24 34 40 40 84 10 76 27 130 41 130 14 0 28 32 44 95 6 22 17 49 25 60
9 11 16 35 16 53 0 17 5 32 10 32 6 0 9 3 8 8 -5 18 15 87 29 97 8 6 22 36 30
66 8 30 16 59 17 64 4 12 15 43 27 73 5 13 9 37 9 55 0 18 7 43 16 55 9 13 14
32 11 43 -3 10 -2 19 3 19 10 0 18 19 42 110 11 41 23 77 27 80 4 3 15 28 25
55 22 60 48 90 99 116 34 18 48 19 127 12 67 -7 93 -6 106 4 35 25 46 17 39
-31 -13 -87 -36 -81 325 -84 l320 -3 24 28 c18 20 22 32 15 45 -13 23 -11 68
2 68 6 0 22 -9 36 -20 33 -25 55 -25 71 0 13 21 37 26 47 10 3 -5 -1 -25 -10
-45 -13 -33 -13 -39 2 -59 17 -22 25 -23 211 -30 106 -3 198 -3 205 1 6 3 55
6 109 5 136 -3 175 18 161 88 -6 33 11 40 46 18 15 -9 25 -7 55 11 31 20 37
21 42 7 3 -9 1 -30 -5 -48 -10 -28 -9 -36 7 -57 19 -25 19 -25 -14 -56 -26
-25 -33 -41 -39 -89 -11 -85 1 -198 23 -214 27 -20 -2 -32 -83 -32 -78 0 -108
11 -87 32 16 16 15 210 -1 258 l-12 35 -110 8 c-135 11 -205 11 -315 4 -52 -4
-103 -2 -132 5 -82 20 -96 -8 -105 -204 l-4 -108 285 0 c156 0 291 -3 300 -6
32 -12 3 -24 -57 -24 -34 0 -68 -4 -76 -9 -28 -18 -47 -217 -28 -293 l7 -28
133 -1 c72 -1 143 -5 157 -9 22 -7 22 -8 4 -9 -35 -2 -54 -24 -70 -81 -20 -73
-19 -236 2 -268 9 -13 13 -27 9 -30 -8 -8 -163 -5 -176 4 -5 3 -2 15 6 27 31
44 11 288 -27 334 -7 9 -41 13 -114 13 -57 0 -104 3 -104 8 0 4 9 13 20 20 18
11 20 23 20 100 0 86 -19 195 -37 213 -5 5 -108 12 -229 16 -199 6 -216 8
-185 20 l33 14 -4 127 c-3 70 -8 134 -12 143 -6 13 -35 17 -177 23 -94 3 -175
4 -180 0 -9 -5 -160 -6 -248 -1 -33 2 -35 0 -49 -48 -8 -27 -18 -94 -23 -149
-9 -89 -8 -100 8 -112 14 -10 16 -15 6 -25 -7 -7 -13 -25 -13 -39 0 -14 -7
-35 -15 -47 -9 -12 -18 -61 -23 -123 -7 -92 -6 -103 10 -114 17 -12 17 -16 3
-52 -9 -21 -20 -48 -26 -58 -6 -11 -16 -71 -21 -135 -10 -113 -10 -115 12
-133 12 -10 32 -18 44 -19 18 0 18 -2 -5 -10 -45 -17 -76 -103 -84 -234 -7
-120 -3 -133 54 -150 23 -7 23 -7 -8 -26 -52 -31 -67 -77 -80 -246 -13 -160
-11 -187 18 -202 10 -6 132 -6 317 0 164 5 316 7 337 3 43 -7 92 10 102 34 3
9 9 85 12 169 6 160 1 195 -39 239 -18 21 -18 22 -1 29 10 4 70 6 134 6 97 -1
119 2 130 15 10 12 15 53 18 130 3 124 -14 205 -49 224 -11 6 -171 10 -409 10
-365 0 -416 3 -379 26 13 8 982 6 1016 -3 21 -5 22 -7 7 -23 -42 -46 -72 -294
-42 -350 13 -24 15 -25 127 -25 168 0 212 -4 205 -15 -3 -6 -53 -10 -113 -10
-59 0 -178 -3 -265 -7 l-158 -6 -20 -38 c-17 -33 -19 -60 -19 -207 0 -142 3
-172 16 -183 12 -10 98 -14 373 -16 438 -5 397 -24 393 181 -3 155 -17 218
-57 256 -13 13 -22 27 -19 31 3 5 63 9 134 9 118 0 130 2 140 19 24 45 5 289
-27 339 -8 13 -12 27 -8 30 11 11 193 8 204 -3 7 -7 6 -28 -4 -65 -18 -66 -19
-210 -3 -279 16 -70 7 -77 -88 -73 -41 1 -83 -2 -92 -7 -36 -19 -45 -74 -37
-239 7 -140 9 -157 29 -177 21 -21 28 -21 367 -23 l347 -3 22 28 c21 26 22 35
16 123 -10 157 -19 207 -46 262 -14 29 -17 45 -10 52 6 6 59 13 118 16 l107 5
3 87 c2 58 -4 118 -18 184 -11 54 -17 101 -13 105 27 26 168 18 182 -10 5 -9
5 -43 0 -76 -6 -42 -4 -94 6 -171 9 -61 13 -118 10 -127 -7 -17 -48 -27 -115
-27 -41 0 -50 -4 -65 -27 -25 -38 -30 -147 -12 -267 13 -82 20 -103 41 -125
l26 -26 435 -5 c239 -3 449 -1 466 3 50 13 61 53 43 162 -21 134 -51 246 -75
280 -3 6 -9 51 -12 100 -3 50 -11 134 -18 188 -10 85 -10 100 3 113 18 18 112
21 132 5 8 -7 15 -47 19 -109 9 -135 31 -206 80 -260 19 -21 20 -27 9 -67 -16
-60 -15 -116 4 -216 22 -119 41 -166 78 -188 32 -19 65 -20 1381 -24 33 0 398
0 810 0 413 0 1079 0 1481 -1 707 -1 733 0 753 18 36 32 27 74 -46 224 -53
107 -79 148 -120 189 -50 49 -53 55 -53 103 0 37 -9 71 -31 118 -60 129 -79
173 -79 187 0 19 51 45 90 45 49 0 70 -16 70 -54 0 -78 87 -244 168 -320 41
-40 42 -42 42 -105 0 -57 5 -76 46 -155 60 -120 114 -197 150 -216 24 -13 91
-15 404 -16 206 0 400 -4 430 -8 48 -7 59 -5 80 12 19 16 24 29 24 60 -1 37
-11 57 -87 193 -88 156 -97 194 -51 205 38 10 125 -1 135 -17 4 -8 8 -33 7
-56 -1 -47 28 -113 76 -177 18 -22 51 -69 75 -104 42 -63 90 -102 124 -102 16
0 17 36 17 615 l0 615 -47 1 c-86 2 -96 8 -118 74 -11 33 -46 103 -77 155 -32
53 -58 104 -58 113 0 33 88 49 122 23 11 -8 21 -33 24 -62 4 -27 13 -61 21
-76 20 -40 92 -108 114 -108 18 0 19 10 19 215 0 182 -2 215 -15 215 -40 0
-143 136 -119 160 8 8 63 18 117 19 16 1 17 34 17 540 l0 539 -36 7 c-20 3
-46 15 -57 26 -29 27 -61 22 -69 -11 -4 -18 -52 -50 -74 -50 -9 0 -18 -9 -21
-20 -7 -26 -23 -26 -23 0 0 11 -4 20 -9 20 -19 0 -71 52 -71 71 0 17 -8 19
-74 19 -70 0 -76 -2 -105 -31 -23 -22 -31 -40 -31 -65 0 -24 -5 -34 -15 -34
-12 0 -13 -4 -6 -19 9 -16 5 -19 -32 -25 -67 -11 -128 -6 -173 13 -45 20 -68
43 -34 34 26 -7 25 3 -2 44 -20 28 -29 33 -64 33 -23 0 -47 6 -53 14 -15 18
-51 27 -51 13 0 -6 -12 -24 -27 -39 -21 -22 -24 -31 -15 -40 17 -17 15 -28 -5
-28 -15 0 -14 -2 2 -20 17 -19 17 -20 -8 -29 -14 -5 -27 -15 -29 -21 -2 -8
-43 -8 -153 1 -164 13 -155 13 -270 7 -44 -2 -91 0 -105 4 -13 5 -26 6 -27 1
-2 -5 -54 -7 -116 -5 -81 3 -115 8 -123 18 -6 8 -28 14 -48 14 -31 0 -36 3
-36 24 0 17 -7 26 -25 30 -27 7 -41 52 -33 106 l5 30 -74 0 c-40 0 -73 -4 -73
-9 0 -5 -9 -13 -20 -16 -11 -3 -20 -12 -20 -20 0 -7 -9 -15 -20 -18 -13 -3
-20 -14 -20 -30 0 -13 -9 -32 -19 -41 -11 -10 -21 -28 -23 -39 -4 -25 -32 -35
-105 -36 -31 -1 -53 -6 -56 -13 -3 -10 -9 -10 -26 0 -11 6 -28 12 -36 12 -8 0
-15 9 -15 21 0 11 4 18 10 14 11 -7 36 30 45 68 4 15 11 27 16 27 5 0 9 5 9
10 0 6 -6 10 -13 10 -8 0 -22 9 -32 20 -10 11 -22 17 -26 14 -5 -3 -9 1 -9 8
0 8 -22 22 -50 32 -55 20 -120 22 -330 12 l-135 -7 -32 -37 c-27 -31 -32 -45
-33 -86 0 -37 -5 -53 -22 -67 -25 -22 -51 -24 -70 -6 -7 7 -21 16 -30 20 -14
5 -18 18 -18 51 0 36 -5 48 -26 65 -15 12 -31 21 -37 21 -6 0 -27 11 -47 25
-36 25 -42 26 -238 29 -180 4 -205 3 -239 -14 -50 -24 -88 -66 -103 -113 -14
-43 -37 -53 -105 -43 -37 6 -46 12 -51 32 -3 13 -12 24 -20 24 -8 0 -14 4 -14
9 0 6 -12 6 -32 0 -45 -12 -48 -12 -48 11 0 13 -7 20 -19 20 -11 0 -23 9 -26
20 -4 13 -15 20 -31 20 -14 0 -23 4 -19 9 9 15 -63 31 -141 31 -39 0 -85 5
-102 11 -22 8 -46 7 -86 -1 -66 -14 -106 -42 -106 -76 0 -14 -7 -38 -15 -55
-9 -16 -16 -44 -17 -62 l-1 -33 -53 7 c-66 9 -72 12 -79 52 -9 45 -24 62 -70
77 -46 14 -67 29 -60 40 17 28 -155 56 -355 59 -77 1 -101 -2 -126 -18 -31
-19 -74 -94 -74 -129 0 -80 -139 -74 -165 8 -6 19 -21 39 -33 45 -12 5 -22 15
-22 22 0 7 -9 13 -20 13 -13 0 -20 7 -20 20 0 12 -8 22 -22 25 -99 22 -144 26
-300 26 -98 0 -188 -3 -201 -6 -23 -6 -28 -15 -70 -117 -11 -25 -17 -28 -57
-28 -43 0 -46 2 -63 40 -9 22 -17 46 -17 54 0 7 -7 19 -15 26 -8 7 -15 18 -15
25 0 9 -51 13 -212 14 -117 1 -247 4 -288 6 -47 3 -84 0 -99 -8 -33 -16 -53
-78 -45 -138 6 -46 6 -47 -24 -53 -64 -15 -122 17 -123 68 -1 49 -24 100 -50
112 -24 12 -138 19 -429 28 -167 5 -175 3 -198 -47 -15 -35 -15 -62 0 -103 17
-49 2 -62 -69 -56 -32 2 -64 10 -72 17 -9 9 -14 37 -15 80 -1 61 -4 69 -29 89
-26 21 -43 23 -194 29 -276 11 -396 9 -420 -8 -31 -22 -47 -96 -29 -139 13
-31 13 -36 -1 -48 -18 -14 -103 -18 -103 -4 0 5 -7 3 -15 -4 -12 -10 -18 -10
-32 1 -10 7 -19 14 -20 14 -1 1 2 18 8 38 13 47 -12 143 -39 151 -19 5 -279 9
-489 7 l-131 -1 -11 -31 c-14 -40 -14 -106 -1 -114 19 -12 11 -43 -13 -48 -22
-5 -85 -2 -139 6 -16 2 -28 0 -28 -6 0 -12 -60 -3 -101 15 -16 7 -29 19 -29
25 0 7 -11 13 -25 13 -18 0 -25 5 -25 20 0 11 -7 23 -15 26 -8 4 -15 14 -15
24 0 10 -7 21 -16 24 -8 3 -12 10 -9 16 3 5 0 10 -7 10 -7 0 -25 30 -39 68
-42 107 -51 141 -44 162 7 23 -22 120 -36 120 -5 0 -9 11 -9 25 0 14 -9 43
-20 64 -19 38 -19 38 1 60 11 11 29 21 40 21 11 0 30 7 42 14 28 19 251 67
340 73 48 4 84 0 120 -11 33 -10 73 -14 107 -12 30 3 251 8 490 12 347 5 441
10 463 21 46 23 133 26 165 5 24 -15 55 -17 331 -14 271 4 311 6 353 23 61 24
82 24 138 -2 42 -19 142 -27 480 -40 44 -1 198 19 217 29 26 14 127 16 151 3
9 -5 53 -15 97 -22 44 -7 83 -17 87 -23 4 -5 20 -3 41 7 39 19 133 22 185 8
35 -10 187 2 257 21 77 20 133 21 178 3 37 -16 80 -18 337 -18 266 -1 299 1
333 18 41 19 120 23 140 7 22 -18 160 -33 236 -26 40 4 153 7 250 8 149 1 184
4 228 21 l53 20 92 -24 c51 -14 115 -25 143 -25 172 1 498 14 508 22 7 5 32
14 57 21 41 11 52 10 100 -10 51 -20 74 -22 345 -26 l290 -3 67 26 67 27 68
-23 c64 -22 86 -23 347 -26 256 -3 282 -2 330 16 65 25 91 25 167 -1 57 -20
82 -21 348 -22 244 0 292 2 325 16 52 23 86 21 184 -9 58 -17 96 -23 121 -19
20 3 137 7 261 9 179 3 233 7 264 20 52 22 83 20 170 -9 44 -15 97 -25 130
-25 l56 0 0 1345 0 1345 -9900 0 -9900 0 0 -4000z m13820 618 c10 -12 16 -28
13 -35 -14 -37 -138 -58 -175 -29 -21 15 -24 56 -6 74 7 7 41 12 81 12 59 0
71 -3 87 -22z m-1267 -1104 c8 -59 7 -62 -21 -91 -45 -45 -52 -140 -20 -266
13 -53 -1 -67 -67 -67 -85 0 -85 0 -85 100 0 105 -14 187 -37 212 -13 14 -31
18 -88 18 -50 0 -76 4 -84 14 -19 22 37 36 118 29 92 -8 123 6 150 62 18 39
25 44 58 48 67 7 67 6 76 -59z m1639 34 c36 -30 40 -108 4 -108 -7 0 -23 -11
-35 -24 -20 -21 -22 -32 -18 -93 2 -37 10 -96 17 -131 15 -78 7 -92 -59 -92
-25 0 -52 4 -59 9 -20 12 -54 167 -56 251 l-1 75 37 20 c20 11 42 29 48 40 14
25 69 65 90 65 9 0 23 -6 32 -12z m-832 -20 c27 -29 25 -68 -5 -96 -43 -42
-50 -86 -30 -207 13 -81 14 -110 6 -118 -16 -16 -120 -14 -130 2 -4 6 -14 65
-21 129 -6 64 -20 136 -30 159 -21 47 -20 48 32 58 37 7 53 19 89 68 25 33 60
35 89 5z m1662 8 c10 -7 21 -27 24 -44 6 -28 3 -33 -30 -53 -20 -12 -41 -29
-46 -39 -16 -30 -11 -93 14 -188 14 -52 20 -95 16 -103 -12 -19 -106 -17 -126
2 -8 9 -28 73 -44 144 -17 71 -35 134 -40 139 -27 27 -6 50 66 71 12 3 38 23
58 45 39 43 75 51 108 26z m852 -19 c39 -51 35 -75 -15 -83 -64 -11 -84 -33
-82 -92 1 -27 11 -72 23 -101 11 -29 24 -70 29 -91 10 -46 4 -50 -68 -50 -56
0 -75 16 -85 73 -8 44 -57 195 -71 218 -6 8 -21 23 -34 32 l-24 16 27 11 c15
5 50 10 78 10 46 0 54 3 95 45 56 57 90 60 127 12z m822 2 c27 -30 68 -49 105
-49 37 0 109 -20 109 -30 0 -20 -125 -26 -228 -11 -40 6 -58 4 -73 -7 -31 -22
-23 -107 19 -196 48 -103 41 -126 -38 -126 -56 0 -75 17 -84 77 -6 39 -32 110
-77 212 -24 52 -17 61 49 61 52 0 110 23 119 47 18 47 66 58 99 22z m1495 -72
c14 -8 19 -23 19 -53 0 -42 24 -124 39 -134 14 -9 71 -115 71 -132 0 -20 -21
-28 -75 -28 -50 0 -56 6 -86 85 -12 32 -35 81 -51 108 -15 26 -28 51 -28 55 0
4 -14 24 -31 45 -34 41 -33 63 3 70 34 8 117 -2 139 -16z m-842 1 c46 -10 51
-14 51 -39 0 -43 21 -129 31 -129 5 0 9 -7 9 -16 0 -9 8 -28 18 -42 10 -15 24
-42 32 -60 18 -47 -2 -66 -71 -66 -58 0 -73 12 -84 71 -8 44 -81 209 -107 242
-19 25 -19 25 4 38 29 16 54 16 117 1z m1636 -18 c8 -7 20 -31 26 -54 16 -59
29 -86 64 -131 73 -95 83 -130 39 -141 -33 -9 -95 2 -106 18 -4 7 -13 30 -18
50 -12 42 -26 71 -56 113 -33 46 -74 124 -74 140 0 7 6 16 13 19 20 9 96 0
112 -14z m-6809 -323 c4 -3 -5 -12 -20 -18 -35 -16 -41 -42 -41 -181 0 -159 1
-160 143 -151 129 8 138 2 116 -80 -17 -63 -18 -149 -3 -235 14 -76 9 -83 -59
-90 -85 -8 -88 -2 -95 145 -4 95 -11 143 -26 184 l-21 56 -99 -1 c-55 -1 -102
2 -106 6 -4 3 -1 17 6 29 8 16 10 52 6 118 -7 105 -25 177 -48 192 -8 5 -47 9
-86 9 -60 0 -73 3 -73 16 0 13 23 15 200 12 109 -2 202 -7 206 -11z m1598 -1
c26 -13 27 -17 30 -112 2 -55 6 -131 11 -171 l8 -72 -37 -6 c-36 -7 -70 -2
-93 13 -7 4 -22 64 -33 133 -10 68 -22 140 -26 160 -4 23 -2 39 5 43 8 6 54
17 102 25 4 1 19 -5 33 -13z m2534 2 c7 -7 12 -40 12 -76 0 -47 8 -83 30 -139
42 -105 45 -129 19 -144 -20 -10 -113 -8 -124 3 -3 2 -11 38 -19 79 -8 41 -25
99 -36 129 -27 68 -40 121 -34 132 15 23 132 36 152 16z m-3347 -8 c16 -9 17
-14 8 -32 -16 -29 -12 -189 5 -253 18 -66 10 -75 -69 -75 -38 0 -66 5 -72 13
-6 6 -13 62 -16 122 -4 61 -14 132 -23 159 -16 47 -16 50 1 63 22 16 138 18
166 3z m1664 -11 c6 -6 13 -45 16 -87 4 -42 14 -104 22 -137 30 -112 24 -125
-58 -125 -55 0 -71 16 -84 83 -29 153 -44 231 -45 245 -2 34 118 51 149 21z
m843 9 c7 -7 12 -30 12 -53 0 -38 11 -93 43 -217 17 -68 11 -77 -52 -85 -47
-7 -91 16 -91 47 0 11 -16 76 -35 144 -42 148 -43 163 -12 169 48 9 124 6 135
-5z m2501 3 c8 -5 18 -37 23 -72 4 -34 18 -79 29 -98 76 -127 85 -162 50 -181
-24 -13 -72 -13 -104 -1 -19 8 -27 20 -32 53 -4 24 -29 87 -56 141 -56 110
-60 147 -19 158 37 10 93 10 109 0z m825 -1 c22 -8 26 -16 26 -52 0 -49 28
-115 65 -160 33 -40 55 -92 48 -117 -4 -15 -17 -22 -48 -27 -58 -8 -82 7 -95
59 -15 58 -25 82 -70 157 -53 88 -58 113 -29 134 27 18 66 21 103 6z m-1667
-8 c7 -4 19 -40 28 -80 8 -40 28 -98 44 -130 41 -78 46 -105 26 -126 -17 -17
-90 -22 -113 -8 -7 5 -21 40 -32 78 -10 39 -33 99 -49 135 -35 73 -39 113 -13
128 20 12 92 14 109 3z m-6147 -342 c22 -14 -589 -17 -740 -4 -113 10 -85 11
300 12 255 1 431 -2 440 -8z m3958 -5 c19 -14 22 -24 21 -88 -1 -51 7 -100 25
-166 15 -52 25 -100 22 -107 -6 -17 -69 -34 -98 -27 -42 10 -55 32 -73 121 -9
48 -26 114 -36 146 -27 85 -25 112 9 124 41 16 105 14 130 -3z m-1726 -7 c13
-10 17 -41 22 -143 4 -71 9 -151 12 -176 6 -47 6 -47 -30 -59 -75 -24 -126 10
-126 86 0 23 -7 95 -16 158 -13 92 -13 120 -4 131 16 19 119 20 142 3z m869
-9 c5 -8 9 -40 9 -71 0 -31 9 -102 20 -157 11 -55 17 -107 14 -116 -9 -23 -75
-37 -112 -24 -26 9 -33 18 -37 47 -21 135 -35 214 -51 293 -5 19 0 28 18 37
31 16 127 9 139 -9z m1715 0 c6 -5 14 -37 17 -72 3 -34 22 -106 42 -161 34
-93 35 -100 19 -117 -12 -13 -31 -19 -64 -19 -64 0 -81 16 -91 84 -4 31 -22
102 -40 157 -35 109 -33 127 12 141 28 8 89 0 105 -13z m866 4 c11 -10 18 -30
18 -52 0 -51 17 -104 61 -197 22 -45 39 -86 39 -92 0 -26 -33 -42 -86 -42 -67
0 -89 19 -98 85 -4 26 -25 93 -47 148 -41 107 -46 136 -27 155 18 18 118 15
140 -5z m835 11 c24 -7 43 -54 43 -108 0 -16 20 -69 45 -118 65 -128 60 -158
-27 -158 -60 0 -88 26 -88 83 0 25 -14 70 -39 121 -21 45 -44 99 -51 120 -11
35 -11 41 6 53 19 14 73 17 111 7z m864 -17 c9 -7 19 -24 22 -39 4 -16 10 -40
13 -54 4 -15 31 -67 60 -117 76 -127 71 -157 -21 -157 -62 0 -80 16 -88 77 -3
24 -28 90 -57 149 -49 101 -51 106 -36 130 13 18 25 24 54 24 20 0 44 -6 53
-13z m861 -7 c18 -13 27 -33 32 -65 5 -39 62 -142 96 -175 11 -10 30 -62 30
-81 0 -40 -105 -54 -140 -19 -12 12 -20 33 -20 54 0 21 -13 58 -34 93 -96 166
-101 183 -63 201 34 17 72 14 99 -8z m-1959 -349 c22 -8 25 -17 29 -79 5 -64
38 -149 115 -294 2 -4 -5 -16 -17 -28 -15 -15 -33 -20 -78 -20 -80 0 -93 12
-103 93 -5 36 -13 74 -18 84 -19 32 -91 208 -91 220 0 25 115 42 163 24z
m-1765 -18 c5 -10 12 -52 15 -94 3 -42 10 -85 16 -95 15 -27 41 -128 41 -158
0 -32 -25 -46 -83 -46 -57 0 -73 18 -91 105 -8 39 -22 97 -31 130 -47 170 -46
175 55 175 56 0 71 -3 78 -17z m883 7 c16 -9 19 -22 19 -73 0 -59 27 -151 74
-251 19 -39 10 -63 -28 -75 -35 -12 -101 0 -121 21 -7 7 -19 42 -28 78 -8 36
-26 103 -41 149 -31 101 -34 148 -8 154 33 9 114 7 133 -3z m2640 0 c13 -7 19
-21 19 -45 0 -53 28 -124 76 -191 25 -34 49 -77 56 -95 10 -29 9 -34 -13 -52
-19 -15 -33 -18 -68 -13 -57 8 -68 18 -76 69 -4 23 -28 80 -53 127 -86 157
-98 194 -64 203 33 9 103 7 123 -3z m-4413 -12 c7 -7 12 -39 12 -73 0 -33 11
-100 25 -150 39 -143 35 -162 -41 -171 -70 -9 -96 14 -105 92 -4 33 -16 106
-28 164 -29 139 -24 150 62 150 36 0 68 -5 75 -12z"/>
<path d="M12537 5264 c-21 -22 -26 -40 -31 -113 -18 -245 -3 -321 63 -321 43
0 52 11 41 51 -6 18 -8 47 -4 62 5 23 10 28 32 25 23 -3 27 -8 30 -41 2 -26
-1 -39 -12 -43 -9 -3 -16 -16 -16 -29 0 -20 6 -23 61 -29 121 -12 358 -7 388
9 35 18 39 28 46 113 3 37 10 112 16 168 10 88 9 104 -5 132 -17 33 -43 41
-64 20 -21 -21 -112 -27 -172 -11 -33 9 -74 12 -102 9 -27 -3 -70 -9 -96 -12
-37 -5 -59 -1 -95 15 -25 12 -48 21 -51 21 -3 0 -16 -12 -29 -26z"/>
<path d="M10036 5267 c-16 -12 -17 -26 -11 -158 6 -106 13 -163 29 -210 l21
-64 305 0 305 0 11 46 c16 62 6 339 -12 363 -7 10 -23 18 -36 17 -328 -8 -507
-7 -542 5 -47 17 -48 17 -70 1z"/>
<path d="M12275 5267 c-13 -8 -77 -13 -175 -15 -85 -1 -184 -3 -220 -4 -36 -2
-88 1 -117 6 l-52 8 -15 -37 c-12 -28 -16 -72 -16 -174 0 -148 14 -209 48
-222 10 -4 141 -5 291 -2 l271 6 16 25 c19 29 37 207 32 321 -2 61 -7 76 -23
87 -16 10 -24 10 -40 1z"/>
<path d="M11466 5263 c-4 -5 -89 -9 -189 -11 -100 -1 -204 -3 -232 -4 -27 -1
-77 0 -110 2 -56 4 -61 2 -71 -21 -12 -25 -3 -278 11 -347 12 -57 21 -58 330
-54 l281 4 17 30 c14 25 17 57 17 193 0 103 -4 174 -12 190 -11 25 -28 32 -42
18z"/>
<path d="M13378 5253 c-9 -2 -19 -16 -23 -30 -6 -26 -26 -241 -28 -300 -1 -41
27 -83 57 -83 31 0 36 8 25 38 -5 14 -7 38 -4 53 5 22 13 28 41 31 19 2 38 2
42 -1 5 -4 10 -31 11 -61 2 -30 8 -58 14 -62 7 -4 90 -8 185 -8 l173 0 30 33
c27 29 29 37 27 92 l-3 60 -44 11 c-55 13 -70 38 -50 84 14 31 44 46 78 37 14
-3 21 4 29 29 16 53 -2 64 -87 57 -48 -4 -82 -1 -112 9 -35 12 -61 13 -124 6
-73 -8 -168 -6 -205 5 -8 3 -22 3 -32 0z"/>
<path d="M14297 5233 c-40 -3 -50 -9 -59 -29 -11 -23 -8 -28 23 -57 43 -38 50
-55 56 -127 3 -30 8 -57 12 -60 5 -3 12 -27 17 -55 9 -50 9 -50 54 -57 72 -11
254 -9 288 3 37 13 47 42 55 152 3 50 1 72 -9 82 -20 19 -17 35 5 35 37 0 36
109 -2 110 -201 5 -403 6 -440 3z"/>
<path d="M15225 5210 c-11 -5 -50 -9 -87 -9 -67 -1 -88 -13 -47 -26 12 -4 33
-19 46 -34 19 -21 22 -33 18 -66 -3 -23 -14 -47 -26 -58 l-21 -17 26 -21 c22
-17 26 -28 26 -73 0 -52 1 -54 31 -60 50 -10 224 -7 279 5 42 9 51 15 55 37 3
15 10 41 14 58 8 30 2 56 -13 55 -18 -2 -37 14 -51 42 -15 30 -14 32 10 56 19
20 27 23 37 13 20 -20 33 -14 45 19 21 56 5 69 -87 69 -43 0 -82 5 -85 10 -7
12 -142 12 -170 0z"/>
<path d="M18518 4617 c-22 -6 -40 -19 -47 -34 -10 -22 -8 -25 42 -48 28 -14
69 -25 90 -25 33 0 37 3 37 25 0 17 -6 25 -17 25 -17 1 -17 1 0 14 25 19 21
33 -14 45 -36 12 -40 12 -91 -2z"/>
</g>
</svg>
